<svg width="348" height="348" viewBox="0 0 348 348" fill="none" xmlns="http://www.w3.org/2000/svg">
<g opacity="0.6">
<g opacity="0.05">
<path d="M25.0385 174C25.0385 91.8641 91.8635 25.0391 173.999 25.0391C256.14 25.0391 322.971 91.8589 322.971 174C322.971 256.141 256.146 322.966 174.005 322.966C91.8635 322.966 25.0385 256.136 25.0385 174Z" fill="#F5FDF0" stroke="#9FE870"/>
</g>
<g opacity="0.05">
<path d="M52.5196 174C52.5196 107.016 107.015 52.5205 173.999 52.5205C240.983 52.5205 295.479 107.016 295.479 174C295.479 240.984 240.983 295.48 173.999 295.48C107.015 295.48 52.5196 240.984 52.5196 174Z" fill="#F5FDF0" stroke="#9FE870"/>
</g>
<g opacity="0.05">
<path d="M76.0163 174C76.0163 119.974 119.968 76.0166 173.999 76.0166C228.025 76.0166 271.983 119.974 271.983 174C271.983 228.025 228.025 271.983 173.999 271.983C119.974 271.983 76.0163 228.025 76.0163 174Z" fill="#F5FDF0" stroke="#9FE870"/>
</g>
<g opacity="0.1">
<path d="M99.5442 174C99.5442 132.949 132.943 99.5449 173.999 99.5449C215.051 99.5449 248.454 132.949 248.454 174C248.454 215.051 215.051 248.455 173.999 248.455C132.948 248.455 99.5442 215.051 99.5442 174Z" fill="#F5FDF0" stroke="#9FE870"/>
</g>
<g opacity="0.15">
<path d="M122.491 174C122.491 145.601 145.6 122.492 173.999 122.492C202.399 122.492 225.508 145.601 225.508 174C225.508 202.4 202.399 225.509 173.999 225.509C145.6 225.509 122.491 202.4 122.491 174Z" fill="#F5FDF0" stroke="#9FE870"/>
</g>
<path opacity="0.1" d="M261 261C309.049 212.951 309.049 135.049 261 87C212.951 38.9512 135.049 38.9512 87 87C38.9512 135.049 38.9512 212.951 87 261C135.049 309.049 212.951 309.049 261 261Z" fill="#F5FDF0" stroke="#9FE870" stroke-width="4" stroke-linecap="round" stroke-linejoin="round"/>
<path opacity="0.1" d="M244.946 244.946C284.129 205.764 284.129 142.236 244.946 103.054C205.764 63.8715 142.236 63.8715 103.054 103.054C63.8716 142.236 63.8716 205.764 103.054 244.946C142.236 284.128 205.764 284.128 244.946 244.946Z" fill="#F5FDF0" stroke="#9FE870" stroke-width="7" stroke-linecap="round" stroke-linejoin="round"/>
<path opacity="0.15" d="M173.999 251.597C216.855 251.597 251.597 216.856 251.597 174C251.597 131.144 216.855 96.4023 173.999 96.4023C131.143 96.4023 96.4019 131.144 96.4019 174C96.4019 216.856 131.143 251.597 173.999 251.597Z" fill="#F5FDF0" stroke="#9FE870" stroke-width="10" stroke-linecap="round" stroke-linejoin="round"/>
<path opacity="0.2" d="M173.999 229.443C204.62 229.443 229.443 204.62 229.443 174C229.443 143.379 204.62 118.557 173.999 118.557C143.379 118.557 118.556 143.379 118.556 174C118.556 204.62 143.379 229.443 173.999 229.443Z" fill="#F5FDF0" stroke="#9FE870" stroke-width="13" stroke-linecap="round" stroke-linejoin="round"/>
<path opacity="0.1" d="M173.999 324.544C257.142 324.544 324.543 257.144 324.543 174C324.543 90.857 257.142 23.4561 173.999 23.4561C90.8559 23.4561 23.455 90.857 23.455 174C23.455 257.144 90.8559 324.544 173.999 324.544Z" fill="#F5FDF0" stroke="#9FE870" stroke-width="4" stroke-linecap="round" stroke-linejoin="round"/>
</g>
<g clip-path="url(#clip0_2001_9877)">
<path d="M204.309 289.869L142.557 289.832C135.129 289.828 129.111 283.792 129.113 276.349L129.143 121.196C129.145 113.749 135.171 107.713 142.603 107.718L204.355 107.754C211.782 107.759 217.8 113.795 217.799 121.238L217.769 276.391C217.766 283.838 211.74 289.873 204.309 289.869Z" fill="#263238"/>
<path d="M204.739 112.982L192.725 112.927C191.114 112.92 189.802 114.283 189.795 115.97L189.786 118.155C189.779 119.843 188.467 121.205 186.856 121.198L163.438 121.089C161.827 121.082 160.526 119.708 160.533 118.019L160.543 115.835C160.55 114.147 159.249 112.772 157.638 112.765L153.413 112.745L142.898 112.696C137.675 112.673 133.423 116.897 133.401 122.131L132.76 274.101C132.738 279.333 136.95 283.592 142.17 283.616L204.012 283.902C209.234 283.926 213.486 279.702 213.509 274.468L214.15 122.497C214.171 117.266 209.959 113.007 204.739 112.982Z" fill="#F5F5F5"/>
<path d="M178.495 255.183C178.425 257.019 178.358 258.739 178.302 260.17H187.185L186.098 254.701L178.495 255.183Z" fill="#F5F5F5"/>
<path d="M142.391 257.472L142.468 260.169H177.413C177.472 258.655 177.538 256.973 177.604 255.239L142.391 257.472Z" fill="#F5F5F5"/>
<path d="M186.541 254.672L187.635 260.169H204.012L203.815 253.577L186.541 254.672Z" fill="#F5F5F5"/>
<path d="M179.381 177.831L182.479 159.836L174.368 159.234V177.831H179.381Z" fill="#EBEBEB"/>
<path d="M141.66 247.482L132.857 250.939L132.831 257.188L141.922 256.612L141.66 247.482Z" fill="#F5F5F5"/>
<path d="M141.621 246.076L141.14 229.317L141.133 229.317V223.406L132.971 224.273L132.865 249.504L141.617 246.067L141.621 246.076Z" fill="#EBEBEB"/>
<path d="M141.132 210.212L133.034 209.14L132.976 222.932L141.132 222.067V210.212Z" fill="#F5F5F5"/>
<path d="M201.491 223.657L201.15 228.459L191.586 229.493L192.326 233.293L203.184 232.473L203.021 227.023L203.886 223.414L201.491 223.657Z" fill="#F5F5F5"/>
<path d="M184.254 233.903L191.881 233.326L190.22 224.796L183.563 225.469L184.254 233.903Z" fill="#F5F5F5"/>
<path d="M184.325 234.789L184.908 241.902L185.943 251.658L186.368 253.794L203.789 252.689L203.21 233.362L184.325 234.789Z" fill="#EBEBEB"/>
<path d="M154.342 201.206L155.012 202.356L141.576 210.21V228.84L155.756 227.835L183.086 225.071L182.085 212.859L155.977 209.441L156.149 208.119L181.974 211.501L180.28 190.833L154.72 193.296L154.635 192.411L180.208 189.947L179.324 179.163H154.737L133.145 183.101L133.04 207.797L141.216 208.878L154.342 201.206ZM142.952 227.063C142.952 227.063 143.054 211.701 142.952 211.127L153.915 205.282L155.336 226.278L142.952 227.063Z" fill="#F5F5F5"/>
<path d="M200.596 223.747L190.663 224.752L191.416 228.618L200.319 227.656L200.596 223.747Z" fill="#F5F5F5"/>
<path d="M178.622 251.892C178.591 252.698 178.56 253.501 178.53 254.291L185.923 253.822L185.543 251.91L178.622 251.892Z" fill="#F5F5F5"/>
<path d="M162.696 177.832L164 171.913H173.924V159.202L142.889 156.897V168.833L133.195 171.031L133.15 181.747L154.617 177.832H162.696Z" fill="#EBEBEB"/>
<path d="M183.404 142.46L183.139 141.371L194.991 136.671L187.282 121.162C187.143 121.183 187.001 121.197 186.856 121.196L173.76 121.136L174.116 142.841L183.404 142.46Z" fill="#F5F5F5"/>
<path d="M201.366 134.143L201.353 112.967L192.728 112.927C191.116 112.92 189.804 114.282 189.798 115.97L189.788 118.154C189.784 119.196 189.281 120.112 188.519 120.661L196.233 136.18L201.366 134.143Z" fill="#EBEBEB"/>
<path d="M156.813 135.051L155.814 112.755L153.414 112.744L144.04 112.7L140.047 132.638L156.813 135.051ZM154.677 115.014L154.996 133.172L142.537 131.345L145.265 115.014H154.677Z" fill="#F5F5F5"/>
<path d="M157.265 135.116L157.267 135.306C157.288 137.046 157.324 140.177 157.35 143.527L173.673 142.858L173.316 121.133L163.438 121.087C161.827 121.08 160.527 119.705 160.534 118.017L160.543 115.833C160.55 114.144 159.249 112.77 157.639 112.762L156.257 112.756L157.259 135.114L157.265 135.116Z" fill="#F5F5F5"/>
<path d="M138.727 132.449L142.682 112.705C137.56 112.797 133.422 116.969 133.4 122.13L133.359 131.972L133.401 131.682L138.727 132.449Z" fill="#F5F5F5"/>
<path d="M141.56 156.798L133.259 156.182L133.202 169.662L141.56 167.767V156.798Z" fill="#F5F5F5"/>
<path d="M138.642 132.886L133.36 132.126L133.268 153.956L134.405 154.041L138.642 132.886Z" fill="#F5F5F5"/>
<path d="M155.409 245.821L155.548 228.295L141.582 229.285L142.075 246.455L155.409 245.821Z" fill="#F5F5F5"/>
<path d="M157.978 241.777L177.757 251.273C177.993 245.067 178.204 239.264 178.184 238.895L178.613 238.872L178.822 238.453C179.103 238.594 179.103 238.594 178.956 242.824C178.874 245.185 178.757 248.325 178.637 251.467H185.478L184.468 241.943L183.121 225.514L157.279 228.128L157.978 241.777Z" fill="#F5F5F5"/>
<path d="M206.462 212.69L206.239 210.379L182.53 212.85L183.527 225.027L203.998 222.956L206.462 212.69Z" fill="#F5F5F5"/>
<path d="M173.924 173.245H165.068L164.058 177.831H173.924V173.245Z" fill="#F5F5F5"/>
<path d="M202.799 174.793L180.619 173.255L179.715 178.507L180.649 189.905L204.041 187.651L202.799 174.793ZM181.434 178.497L182.625 175.183L201.89 176.404L203.005 185.885L182.086 188.372L181.434 178.497Z" fill="#F5F5F5"/>
<path d="M205.1 198.616L204.126 188.535L180.721 190.791L181.6 201.519L205.1 198.616Z" fill="#F5F5F5"/>
<path d="M141.949 257.5L132.868 258.075L132.831 257.482L132.82 260.169H142.026L141.949 257.5Z" fill="#F5F5F5"/>
<path d="M213.988 129.137L214.121 129.476L214.151 122.497C214.173 117.265 209.96 113.007 204.741 112.983L201.795 112.969L201.809 133.967L213.988 129.137Z" fill="#EBEBEB"/>
<path d="M177.738 251.757L157.548 242.064L156.837 228.173L155.992 228.258L155.848 246.245L142.088 246.899L142.1 247.3L142.102 247.309L142.1 247.31L142.366 256.583L177.639 254.347C177.672 253.487 177.706 252.62 177.738 251.757ZM142.952 248.043L162.212 246.688L174.743 252.516L142.952 254.24V248.043Z" fill="#F5F5F5"/>
<path d="M208.249 152.459L209.075 147.548C201.835 144.959 201.334 137.392 201.355 135.102L196.629 136.976L203.745 151.292L208.249 152.459Z" fill="#F5F5F5"/>
<path d="M182.42 211.522L192.263 210.496L190.324 201.783L181.709 202.847L182.42 211.522Z" fill="#F5F5F5"/>
<path d="M203.655 161.002L185.27 160.999L183.743 160.886L181.667 172.951L203.49 174.465L202.983 169.218L205.131 161.469L203.655 161.002Z" fill="#F5F5F5"/>
<path d="M202.384 157.765L202.614 152.006L195.388 137.469L184.184 141.912L188.036 157.764H202.384V157.765ZM194.952 139.237L201.573 151.862L200.617 155.796L189.287 155.369L186.455 143.428L194.952 139.237Z" fill="#F5F5F5"/>
<path d="M205.244 227.254L205.583 238.565L213.549 238.116L213.574 238.56L205.596 239.01L206.002 252.549L213.533 252.071L213.589 252.958L206.028 253.437L206.231 260.169H213.57L213.729 222.418L206.222 223.177L205.244 227.254Z" fill="#F5F5F5"/>
<path d="M156.828 135.502L139.961 133.075L135.742 154.14L156.903 155.711C156.988 152.467 156.914 142.52 156.828 135.502Z" fill="#EBEBEB"/>
<path d="M184.572 157.764H187.124L183.512 142.9L174.124 143.285L174.35 157.006L184.572 157.764Z" fill="#F5F5F5"/>
<path d="M132.774 270.983L132.761 274.1C132.76 274.197 132.772 274.29 132.774 274.385V270.983Z" fill="#F5F5F5"/>
<path d="M157.333 155.743L173.905 156.974L173.681 143.304L157.354 143.972C157.389 148.595 157.403 153.526 157.333 155.743Z" fill="#F5F5F5"/>
<path d="M205.229 199.942L190.765 201.728L192.707 210.449L206.109 209.052L205.229 199.942Z" fill="#F5F5F5"/>
<path d="M209.151 147.104L210.078 141.594L214.071 141.905L214.121 130.04L201.806 134.924C201.554 143.273 206.787 146.21 209.151 147.104Z" fill="#EBEBEB"/>
<path d="M204.409 168.398L204.912 173.603L213.934 174.228L213.979 163.511L206.426 161.121L204.409 168.398Z" fill="#F5F5F5"/>
<path d="M208.702 212.846L206.332 222.72L213.731 221.972L213.774 211.618C211.504 211.019 209.522 210.531 208.458 210.325L208.702 212.846Z" fill="#F5F5F5"/>
<path d="M203.708 157.933L213.988 161.187L214.013 155.328L203.917 152.714L203.708 157.933Z" fill="#F5F5F5"/>
<path d="M208.327 208.969C209.155 209.094 210.725 209.428 213.78 210.233L213.875 187.595L206.332 188.322L208.327 208.969Z" fill="#F5F5F5"/>
<path d="M206.249 187.437L213.881 186.702L213.928 175.564L205.042 174.948L206.249 187.437Z" fill="#F5F5F5"/>
<path d="M210.002 147.384C211.448 147.825 212.795 148.166 214.042 148.417L214.065 142.795L210.816 142.542L210.002 147.384Z" fill="#F5F5F5"/>
<path d="M209.111 152.682L214.018 153.953L214.04 148.873C212.77 148.619 211.401 148.273 209.928 147.825L209.111 152.682Z" fill="#F5F5F5"/>
<path d="M213.589 252.958L213.533 252.071L206.002 252.548L205.596 239.009L213.573 238.56L213.549 238.116L205.583 238.565L205.244 227.254L206.222 223.177L213.729 222.418L213.731 221.972L206.333 222.72L208.702 212.846L208.459 210.325C209.523 210.53 211.504 211.018 213.775 211.618L213.781 210.233C210.726 209.428 209.156 209.094 208.327 208.969L206.333 188.322L213.876 187.595L213.88 186.702L206.247 187.437L205.041 174.948L213.927 175.564L213.933 174.229L204.911 173.603L204.408 168.399L206.425 161.121L213.977 163.512L213.987 161.185L203.708 157.932L203.916 152.712L214.012 155.327L214.018 153.952L209.11 152.681L209.927 147.825C211.4 148.272 212.769 148.618 214.039 148.873L214.041 148.416C212.794 148.165 211.448 147.825 210.001 147.384L210.815 142.542L214.065 142.796L214.069 141.905L210.076 141.593L209.15 147.103C206.786 146.209 201.553 143.273 201.804 134.924L214.118 130.04L214.121 129.475L213.987 129.137L201.808 133.967L201.795 112.968L201.352 112.966L201.365 134.143L196.232 136.178L188.519 120.659C188.157 120.919 187.736 121.094 187.283 121.161L194.991 136.67L183.14 141.37L183.404 142.459L174.116 142.84L173.76 121.135L173.316 121.133L173.673 142.858L157.35 143.526C157.324 140.177 157.288 137.045 157.267 135.306L157.265 135.116L157.259 135.115L156.257 112.756L155.813 112.754L156.812 135.05L140.046 132.638L144.039 112.699L142.897 112.694C142.824 112.694 142.754 112.703 142.682 112.704L138.727 132.448L133.4 131.682L133.358 131.972L133.358 132.125L138.64 132.884L134.403 154.039L133.266 153.954L133.256 156.181L141.558 156.797V167.767L133.2 169.662L133.194 171.029L142.887 168.832V156.896L173.922 159.2V171.912H163.998L162.694 177.83H154.615L133.148 181.745L133.143 183.1L154.735 179.162H179.323L180.207 189.946L154.633 192.41L154.718 193.295L180.279 190.832L181.972 211.499L156.148 208.118L155.975 209.439L182.084 212.857L183.084 225.069L155.755 227.834L141.575 228.839V210.209L155.01 202.355L154.34 201.204L141.214 208.877L133.039 207.796L133.033 209.139L141.132 210.21V222.066L132.975 222.932L132.97 224.272L141.132 223.405V229.316L141.138 229.315L141.619 246.075L141.616 246.066L132.863 249.503L132.857 250.936L141.659 247.48L141.922 256.609L132.831 257.185L132.829 257.481L132.867 258.073L141.948 257.498L142.024 260.168H142.468L142.39 257.47L177.604 255.238C177.537 256.972 177.472 258.653 177.413 260.168H178.3C178.356 258.737 178.423 257.016 178.493 255.181L186.096 254.699L187.184 260.168H187.635L186.542 254.671L203.815 253.576L204.012 260.168H206.23M178.529 254.29C178.559 253.502 178.59 252.698 178.621 251.891L185.542 251.91L185.922 253.821L178.529 254.29ZM186.368 253.793L185.943 251.658L184.909 241.902L184.326 234.788L203.21 233.362L203.789 252.689L186.368 253.793ZM190.663 224.751L200.596 223.747L200.319 227.656L191.416 228.618L190.663 224.751ZM190.22 224.796L191.881 233.326L184.253 233.903L183.562 225.469L190.22 224.796ZM203.184 232.473L192.327 233.293L191.586 229.493L201.151 228.459L201.492 223.656L203.887 223.414L203.021 227.023L203.184 232.473ZM190.323 201.783L192.263 210.496L182.42 211.522L181.709 202.847L190.323 201.783ZM192.707 210.45L190.765 201.729L205.229 199.942L206.109 209.052L192.707 210.45ZM202.669 173.448L180.846 171.935L182.923 159.869L184.449 159.982L202.835 159.986L204.311 160.453L202.163 168.203L202.669 173.448ZM201.355 135.102C201.334 137.392 201.835 144.959 209.075 147.549L208.249 152.459L203.745 151.292L196.629 136.976L201.355 135.102ZM195.388 137.469L202.614 152.006L202.384 157.765H188.036L184.184 141.913L195.388 137.469ZM183.512 142.901L187.123 157.765H184.572L174.35 157.006L174.124 143.286L183.512 142.901ZM173.681 143.303L173.905 156.973L157.334 155.742C157.402 153.525 157.389 148.594 157.355 143.971L173.681 143.303ZM139.959 133.075L156.827 135.502C156.912 142.52 156.986 152.467 156.902 155.71L135.741 154.139L139.959 133.075ZM182.479 159.836L179.382 177.83H174.368V159.234L182.479 159.836ZM165.068 173.245H173.924V177.831H164.058L165.068 173.245ZM179.715 178.507L180.619 173.255L202.799 174.793L204.041 187.65L180.649 189.905L179.715 178.507ZM204.127 188.535L205.1 198.616L181.6 201.518L180.721 190.79L204.127 188.535ZM182.529 212.85L206.237 210.379L206.46 212.69L203.997 222.956L183.527 225.027L182.529 212.85ZM184.467 241.943L185.477 251.467H178.637C178.756 248.325 178.874 245.184 178.956 242.824C179.103 238.594 179.103 238.594 178.822 238.453L178.612 238.871L178.184 238.895C178.204 239.264 177.993 245.067 177.757 251.273L157.978 241.776L157.279 228.127L183.122 225.513L184.467 241.943ZM155.548 228.295L155.409 245.822L142.075 246.456L141.582 229.285L155.548 228.295ZM142.1 247.31L142.103 247.308L142.1 247.3L142.088 246.899L155.849 246.245L155.992 228.258L156.838 228.172L157.549 242.063L177.739 251.757C177.707 252.619 177.673 253.486 177.64 254.347L142.367 256.583L142.1 247.31Z" fill="white"/>
<path d="M162.213 246.688L142.952 248.043V254.239L174.744 252.515L162.213 246.688Z" fill="#E0E0E0"/>
<path d="M201.891 176.404L182.626 175.183L181.436 178.497L182.088 188.372L203.007 185.885L201.891 176.404Z" fill="#E0E0E0"/>
<path d="M155.373 134.333L155.053 116.175H145.642L142.914 132.505L155.373 134.333Z" fill="#E0E0E0"/>
<path d="M200.617 155.796L201.573 151.862L194.952 139.237L186.455 143.428L189.288 155.369L200.617 155.796Z" fill="#EBEBEB"/>
<path d="M142.952 211.128C143.054 211.701 142.952 227.063 142.952 227.063L155.337 226.278L153.915 205.282L142.952 211.128Z" fill="#E0E0E0"/>
<path d="M184.256 223.603L183.602 214.082L204.841 211.347V212.988L202.273 221.743L184.256 223.603Z" fill="#E0E0E0"/>
<path d="M204.057 247.857L203.791 241.648L185.119 242.557C184.628 242.58 184.142 242.477 183.707 242.257L157.226 228.851C156.613 228.542 156.21 227.922 156.175 227.234L152.57 157.169C152.553 156.834 152.68 156.507 152.92 156.271C153.159 156.035 153.491 155.918 153.824 155.94L165.173 156.783V144.348H166.503V156.955C166.503 157.28 166.367 157.593 166.129 157.814C165.892 158.035 165.572 158.148 165.247 158.125L153.907 157.283L157.503 227.166C157.514 227.377 157.637 227.567 157.825 227.662L184.308 241.067C184.538 241.184 184.797 241.241 185.055 241.226L203.881 240.309C204.202 240.293 204.498 240.403 204.731 240.616C204.964 240.829 205.099 241.12 205.113 241.435L205.386 247.8L204.057 247.857Z" fill="white"/>
<path d="M202.456 167.754C202.456 161.465 196.785 156.503 190.288 157.725C186.202 158.494 182.945 161.839 182.23 165.943C181.782 168.509 182.311 170.922 183.478 172.914H183.473L183.501 172.953C183.892 173.613 184.382 174.085 184.877 174.779L190.795 182.636C191.531 183.613 192.996 183.613 193.732 182.636L199.551 174.909C199.551 174.909 200.637 173.61 201.032 172.943L201.053 172.915H201.049C201.938 171.398 202.456 169.639 202.456 167.754ZM192.264 172.201C189.787 172.201 187.778 170.189 187.778 167.706C187.778 165.223 189.786 163.21 192.264 163.21C194.741 163.21 196.749 165.223 196.749 167.706C196.749 170.188 194.741 172.201 192.264 172.201Z" fill="#7D966A"/>
<path d="M173.475 278.721C173.418 278.721 173.362 278.698 173.322 278.656L171.192 276.43C171.11 276.345 171.113 276.21 171.198 276.129C171.282 276.047 171.417 276.05 171.498 276.135L173.475 278.2L175.414 276.175C175.495 276.091 175.629 276.087 175.715 276.169C175.8 276.25 175.802 276.385 175.721 276.47L173.629 278.656C173.589 278.698 173.533 278.721 173.475 278.721Z" fill="#263238"/>
<path d="M237.786 152.432H185.365C182.976 152.432 181.039 150.491 181.039 148.097V136.986C181.039 134.592 182.976 132.651 185.365 132.651H237.786C240.175 132.651 242.111 134.592 242.111 136.986V148.097C242.111 150.491 240.174 152.432 237.786 152.432Z" fill="white"/>
<path d="M237.786 152.432C237.778 152.392 238.347 152.488 239.307 152.12C239.778 151.934 240.346 151.622 240.86 151.081C241.371 150.545 241.835 149.777 241.99 148.819C242.078 148.345 242.046 147.829 242.049 147.285C242.046 146.742 242.045 146.173 242.042 145.578C242.039 144.388 242.035 143.096 242.031 141.708C242.028 140.319 242.024 138.835 242.02 137.26C242.027 136.863 241.999 136.48 241.92 136.089C241.835 135.702 241.69 135.325 241.503 134.965C241.302 134.611 241.056 134.279 240.763 133.982C240.465 133.692 240.122 133.442 239.747 133.239C239.372 133.038 238.956 132.906 238.53 132.825C238.102 132.737 237.657 132.763 237.198 132.758C236.286 132.76 235.353 132.761 234.401 132.762C232.497 132.765 230.517 132.768 228.466 132.771C224.365 132.774 219.983 132.779 215.372 132.784C206.148 132.787 196.009 132.791 185.367 132.795C184.08 132.797 182.81 133.413 182.048 134.439C181.663 134.944 181.39 135.534 181.265 136.154C181.14 136.77 181.194 137.425 181.182 138.076C181.181 140.674 181.18 143.234 181.179 145.749C181.179 146.378 181.179 147.004 181.179 147.627C181.162 148.258 181.194 148.847 181.394 149.419C181.768 150.556 182.643 151.496 183.719 151.957C184.795 152.454 186.023 152.253 187.201 152.297C188.382 152.298 189.549 152.299 190.702 152.3C199.924 152.311 208.229 152.322 215.207 152.331C222.177 152.35 227.818 152.365 231.728 152.376C233.672 152.388 235.183 152.397 236.22 152.403C236.726 152.41 237.116 152.414 237.388 152.418C237.651 152.422 237.786 152.432 237.786 152.432C237.786 152.432 237.651 152.442 237.388 152.447C237.116 152.45 236.727 152.455 236.22 152.461C235.184 152.468 233.673 152.477 231.728 152.489C227.819 152.5 222.177 152.515 215.208 152.534C208.23 152.543 199.924 152.554 190.703 152.565C189.55 152.566 188.382 152.567 187.201 152.568C186.61 152.569 186.017 152.569 185.42 152.569C184.808 152.572 184.183 152.459 183.611 152.211C182.464 151.721 181.531 150.721 181.13 149.508C180.916 148.911 180.881 148.239 180.899 147.628C180.899 147.005 180.898 146.379 180.898 145.75C180.898 143.235 180.897 140.675 180.896 138.077C180.909 137.433 180.85 136.773 180.984 136.099C181.118 135.436 181.409 134.805 181.821 134.266C182.635 133.17 183.993 132.509 185.368 132.509C196.01 132.513 206.149 132.517 215.372 132.52C219.983 132.525 224.365 132.529 228.467 132.534C230.517 132.536 232.498 132.539 234.402 132.542C235.353 132.544 236.286 132.545 237.199 132.546C237.649 132.553 238.116 132.528 238.566 132.621C239.014 132.708 239.449 132.848 239.843 133.061C240.235 133.274 240.593 133.537 240.904 133.843C241.208 134.155 241.466 134.503 241.673 134.874C241.867 135.251 242.017 135.646 242.104 136.051C242.185 136.454 242.212 136.871 242.202 137.262C242.198 138.836 242.195 140.321 242.191 141.71C242.187 143.098 242.183 144.39 242.179 145.58C242.177 146.175 242.175 146.744 242.173 147.287C242.166 147.826 242.195 148.349 242.1 148.84C241.933 149.821 241.45 150.602 240.922 151.142C240.39 151.687 239.809 151.996 239.327 152.176C238.843 152.361 238.446 152.403 238.185 152.428C237.921 152.435 237.786 152.432 237.786 152.432Z" fill="#263238"/>
<path d="M194.689 147.791C197.417 147.791 199.628 145.575 199.628 142.841C199.628 140.107 197.417 137.891 194.689 137.891C191.962 137.891 189.75 140.107 189.75 142.841C189.75 145.575 191.962 147.791 194.689 147.791Z" fill="#455A64"/>
<path d="M195.09 142.903C195.468 142.749 195.739 142.364 195.747 141.907C195.755 141.307 195.308 140.814 194.747 140.805C194.186 140.796 193.724 141.275 193.715 141.875C193.708 142.337 193.973 142.733 194.351 142.895C192.785 143.114 192.837 144.817 192.837 144.817L196.533 144.875C196.533 144.875 196.638 143.155 195.09 142.903Z" fill="white"/>
<path d="M199.413 142.212C200.603 142.212 201.568 141.244 201.568 140.052C201.568 138.859 200.603 137.892 199.413 137.892C198.222 137.892 197.257 138.859 197.257 140.052C197.257 141.244 198.222 142.212 199.413 142.212Z" fill="#A0B78E"/>
<path d="M199.37 141.017L198.219 140.245L198.488 139.842L199.26 140.36L200.221 139.086L200.606 139.378L199.37 141.017Z" fill="white"/>
<path d="M211.33 147.791C214.057 147.791 216.269 145.575 216.269 142.841C216.269 140.107 214.057 137.891 211.33 137.891C208.602 137.891 206.39 140.107 206.39 142.841C206.39 145.575 208.602 147.791 211.33 147.791Z" fill="#455A64"/>
<path d="M211.732 142.904C212.11 142.75 212.382 142.365 212.389 141.908C212.398 141.308 211.951 140.815 211.389 140.806C210.828 140.797 210.366 141.276 210.357 141.876C210.35 142.338 210.615 142.734 210.993 142.896C209.427 143.115 209.479 144.818 209.479 144.818L213.176 144.876C213.176 144.876 213.28 143.156 211.732 142.904Z" fill="white"/>
<path d="M218.208 140.051C218.208 141.243 217.243 142.211 216.053 142.211C214.862 142.211 213.898 141.243 213.898 140.051C213.898 138.858 214.862 137.891 216.053 137.891C217.243 137.89 218.208 138.858 218.208 140.051Z" fill="#A0B78E"/>
<path d="M216.011 141.016L214.86 140.244L215.128 139.841L215.9 140.359L216.861 139.085L217.247 139.377L216.011 141.016Z" fill="white"/>
<path d="M227.968 147.79C230.696 147.79 232.907 145.574 232.907 142.84C232.907 140.106 230.696 137.89 227.968 137.89C225.24 137.89 223.029 140.106 223.029 142.84C223.029 145.574 225.24 147.79 227.968 147.79Z" fill="#455A64"/>
<path d="M228.372 142.903C228.749 142.749 229.021 142.364 229.028 141.907C229.037 141.307 228.59 140.814 228.029 140.805C227.468 140.796 227.005 141.275 226.996 141.875C226.989 142.337 227.254 142.733 227.632 142.895C226.067 143.114 226.119 144.817 226.119 144.817L229.815 144.875C229.815 144.875 229.919 143.155 228.372 142.903Z" fill="white"/>
<path d="M232.693 142.211C233.883 142.211 234.848 141.243 234.848 140.051C234.848 138.858 233.883 137.891 232.693 137.891C231.502 137.891 230.537 138.858 230.537 140.051C230.537 141.243 231.502 142.211 232.693 142.211Z" fill="#A0B78E"/>
<path d="M232.65 141.016L231.498 140.244L231.767 139.841L232.539 140.359L233.499 139.085L233.885 139.377L232.65 141.016Z" fill="white"/>
<path d="M207.062 80.3806L199.634 79.5118C196.641 82.5578 192.799 84.8388 188.353 85.934C175.567 89.0831 162.654 81.2481 159.512 68.4336C156.37 55.619 164.188 42.6781 176.974 39.529C189.759 36.3798 202.672 44.2148 205.814 57.0294C207.127 62.3802 206.522 67.7501 204.448 72.4229L204.456 72.4121L207.062 80.3806Z" fill="white"/>
<path d="M207.063 80.381C207.063 80.381 206.995 80.1992 206.878 79.8542C206.758 79.5003 206.587 78.9926 206.362 78.327C205.91 76.9816 205.248 75.0057 204.387 72.4358L204.515 72.459L204.507 72.4697C204.481 72.5019 204.434 72.5073 204.402 72.4816C204.375 72.4602 204.368 72.4232 204.381 72.3929C205.626 69.5381 206.717 65.5285 206.31 60.7819C206.209 59.6015 206.022 58.3818 205.717 57.146C205.354 55.9268 205.022 54.6499 204.45 53.4165C203.388 50.9276 201.832 48.4619 199.741 46.2924C197.658 44.1228 195.045 42.2542 192.04 40.9594C189.04 39.6616 185.647 38.9448 182.151 39.0175C175.167 39.0973 167.799 42.6934 163.376 49.0113C161.14 52.2236 159.647 55.9024 159.208 59.6504C158.727 63.3888 159.151 67.1368 160.304 70.5159C161.445 73.9063 163.383 76.8797 165.696 79.2667C168.018 81.6573 170.745 83.4526 173.556 84.6318C176.37 85.8164 179.264 86.3843 181.992 86.4683C182.333 86.4725 182.672 86.4772 183.009 86.4814C183.345 86.4915 183.679 86.4915 184.008 86.4498C184.668 86.3914 185.316 86.3342 185.954 86.2776C187.208 86.0267 188.434 85.8492 189.567 85.4827C194.137 84.1051 197.442 81.6275 199.586 79.4621C199.601 79.4461 199.624 79.4389 199.645 79.4413C202.039 79.7404 203.882 79.971 205.14 80.1283C205.761 80.2082 206.236 80.2689 206.569 80.3112C206.891 80.3536 207.063 80.381 207.063 80.381C207.063 80.381 206.91 80.3702 206.595 80.3375C206.267 80.3029 205.797 80.2528 205.183 80.1879C203.912 80.0497 202.048 79.8465 199.627 79.5825L199.685 79.5617C197.549 81.7598 194.235 84.2809 189.629 85.6943C188.488 86.069 187.251 86.255 185.985 86.513C185.341 86.5726 184.687 86.6333 184.021 86.6953C183.688 86.7382 183.351 86.7406 183.011 86.7311C182.671 86.7281 182.329 86.7251 181.983 86.7221C179.226 86.6476 176.296 86.0828 173.446 84.8922C170.598 83.7071 167.834 81.8962 165.477 79.4794C163.129 77.0662 161.161 74.0559 159.999 70.6208C158.826 67.1981 158.391 63.3983 158.878 59.6063C159.322 55.8053 160.833 52.0734 163.102 48.8158C163.357 48.4005 163.674 48.0323 163.982 47.6587L164.903 46.5402L165.921 45.5177C166.255 45.1739 166.592 44.8337 166.972 44.5429C167.34 44.239 167.706 43.9357 168.073 43.633C168.431 43.3196 168.849 43.0896 169.233 42.8155C169.629 42.5581 170.007 42.2739 170.415 42.0415C170.828 41.8192 171.241 41.597 171.652 41.3759C174.965 39.6521 178.6 38.7446 182.143 38.6939C185.688 38.6248 189.125 39.3565 192.161 40.677C195.202 41.995 197.843 43.8934 199.945 46.0945C202.055 48.2956 203.621 50.7953 204.686 53.3152C205.258 54.5635 205.59 55.8553 205.951 57.0882C206.254 58.3377 206.438 59.5705 206.534 60.7622C206.921 65.5565 205.794 69.5911 204.516 72.4524L204.39 72.3756L204.399 72.3654C204.424 72.3333 204.47 72.3279 204.503 72.3529C204.514 72.3625 204.523 72.3756 204.527 72.3887C205.358 74.9938 205.996 76.9959 206.431 78.3598C206.639 79.0206 206.798 79.5247 206.909 79.8763C207.016 80.2159 207.063 80.381 207.063 80.381Z" fill="#263238"/>
<path d="M171.681 63.2851L174.533 60.1229L180.586 64.9917L189.576 54.6445L192.517 57.5142L180.449 70.8192L171.681 63.2851Z" fill="#263238"/>
<path d="M141.639 82.4473C142.717 82.3126 144.298 82.1148 146.351 81.858C146.369 81.8562 146.388 81.8621 146.402 81.8758C148.24 83.7325 151.073 85.8568 154.992 87.0378C155.963 87.3518 157.015 87.5043 158.09 87.7194C158.637 87.7677 159.192 87.8172 159.758 87.8666C160.04 87.9024 160.326 87.903 160.615 87.894C160.903 87.8904 161.194 87.8869 161.487 87.8827C163.826 87.8106 166.307 87.3238 168.719 86.3078C169.338 86.048 169.952 85.7525 170.558 85.423C170.373 85.3515 170.187 85.2842 170.002 85.2067C167.211 84.0454 164.501 82.2703 162.191 79.9011C159.89 77.5362 157.961 74.5855 156.822 71.2183C155.672 67.8636 155.246 64.1388 155.723 60.4225C156.158 56.6965 157.64 53.0391 159.863 49.8459C160.114 49.439 160.424 49.0779 160.726 48.7114L161.629 47.6156L162.017 47.2253C161.794 47.2146 161.571 47.1997 161.349 47.1967C158.351 47.1342 155.443 47.7491 152.871 48.8616C150.294 49.9723 148.054 51.5745 146.267 53.4342C144.475 55.2945 143.14 57.4086 142.23 59.5424C141.74 60.5994 141.455 61.6946 141.144 62.7398C140.882 63.7998 140.721 64.8455 140.636 65.8573C140.287 69.9276 141.222 73.3652 142.29 75.8129C142.302 75.8386 142.295 75.8696 142.272 75.888C141.54 78.0724 140.976 79.7546 140.592 80.901C140.399 81.4718 140.252 81.9068 140.149 82.2101C140.048 82.5057 139.991 82.6618 139.991 82.6618C139.991 82.6618 140.138 82.6385 140.415 82.6028C140.699 82.5676 141.106 82.5158 141.639 82.4473Z" fill="#F5F5F5"/>
<path d="M141.639 82.4473C141.639 82.4473 141.501 82.477 141.226 82.5182C140.939 82.5599 140.53 82.62 139.996 82.6975L139.939 82.7058L139.957 82.651C140.417 81.2573 141.181 78.9442 142.197 75.8648L142.221 75.8296C142.209 75.8243 142.225 75.8678 142.208 75.826L142.167 75.7295L142.084 75.5341C142.03 75.4024 141.975 75.2695 141.921 75.1348C141.811 74.8661 141.711 74.5867 141.609 74.3024C141.409 73.7322 141.23 73.1292 141.071 72.4988C140.755 71.2373 140.532 69.8561 140.474 68.3814C140.412 66.9078 140.509 65.3419 140.808 63.7336C140.946 62.9245 141.198 62.1206 141.442 61.3079C141.679 60.4874 142.022 59.6723 142.394 58.8684C143.883 55.6371 146.398 52.5285 149.83 50.3244C153.237 48.1126 157.554 46.8255 162.023 47.0746L162.362 47.0936L162.123 47.3338C162.003 47.4553 161.869 47.5894 161.735 47.7241L161.744 47.7133C159.017 50.7927 156.932 54.6944 156.1 58.987C154.987 64.8711 156.169 70.9281 159.033 75.5901C161.878 80.2896 166.187 83.6116 170.604 85.2996L170.893 85.4099L170.619 85.5404C169.538 86.0558 168.497 86.5992 167.404 86.9418C166.322 87.3041 165.239 87.5675 164.171 87.7427C162.043 88.0972 159.958 88.0531 158.079 87.8273L158.071 87.8261L158.067 87.8255C157.382 87.6867 156.706 87.5728 156.052 87.4263C155.394 87.2868 154.772 87.0741 154.173 86.8745C152.977 86.4514 151.887 85.9521 150.914 85.4045C148.965 84.3069 147.481 83.058 146.383 81.9431C146.374 81.8859 146.25 81.9426 146.16 81.9402C146.066 81.9515 145.974 81.9622 145.882 81.9729C145.7 81.9944 145.522 82.0158 145.351 82.0361C145.008 82.0766 144.687 82.1142 144.389 82.1493C143.796 82.2178 143.293 82.2756 142.882 82.3233C142.483 82.3662 142.175 82.4002 141.955 82.424C141.747 82.4443 141.639 82.4473 141.639 82.4473C141.639 82.4473 141.744 82.4234 141.952 82.3924C142.171 82.3614 142.478 82.3179 142.875 82.2619C143.285 82.2065 143.788 82.1386 144.379 82.0593C144.677 82.02 144.997 81.9777 145.34 81.9318C145.512 81.9092 145.688 81.8859 145.871 81.8621C145.962 81.8502 146.055 81.8377 146.149 81.8258L146.291 81.8073C146.322 81.8061 146.321 81.7972 146.38 81.8013C146.402 81.8055 146.426 81.8168 146.442 81.8341L146.468 81.8597C147.572 82.9543 149.057 84.1812 150.997 85.2549C152.937 86.3317 155.325 87.2135 158.11 87.6134L158.099 87.6116C159.053 87.6926 160.024 87.8022 161.029 87.7736C162.042 87.7671 163.077 87.6759 164.133 87.5031C165.187 87.3262 166.256 87.0622 167.324 86.7005C168.401 86.3591 169.427 85.818 170.493 85.3068L170.509 85.5475C166.037 83.8535 161.667 80.5012 158.779 75.7456C155.869 71.0228 154.669 64.8914 155.796 58.9292C156.642 54.5699 158.755 50.6295 161.511 47.5203L161.519 47.5113L161.52 47.5095C161.654 47.3749 161.788 47.2408 161.909 47.1193L162.008 47.3779C157.603 47.1282 153.348 48.389 149.983 50.5627C146.593 52.7293 144.104 55.7878 142.621 58.9751C142.247 59.7777 141.911 60.5655 141.672 61.38C141.424 62.1951 141.173 62.9817 141.034 63.7777C140.732 65.3663 140.628 66.9161 140.682 68.3742C140.73 69.8341 140.944 71.2034 141.248 72.4559C141.402 73.0815 141.575 73.6803 141.769 74.2476C141.868 74.5306 141.965 74.8083 142.072 75.0759C142.125 75.2099 142.178 75.3422 142.231 75.4733L142.311 75.6675L142.352 75.7641C142.371 75.7808 142.39 75.9101 142.32 75.9506L142.344 75.9154C141.293 79.0002 140.512 81.3133 140.021 82.6761L139.983 82.6296C140.52 82.5664 140.93 82.5176 141.219 82.4836C141.498 82.4532 141.639 82.4473 141.639 82.4473Z" fill="#263238"/>
<path d="M168.663 198.973C168.663 198.973 170.889 197.822 172.854 198.254C174.82 198.686 181.958 203.35 181.958 203.35L187.709 202.273L191.098 218.548L168.663 227.892V198.973Z" fill="#AE7461"/>
<path d="M152.066 204.647C152.066 204.647 157.205 203.996 159.067 203.064C160.929 202.131 165.368 198.184 166.299 198.256C167.229 198.327 170.595 198.974 170.595 198.974L169.234 203.064C169.234 203.064 175.965 207.154 177.969 208.661C179.974 210.168 186.275 216.914 186.562 218.564C186.848 220.214 186.347 222.152 185.559 222.798C184.771 223.444 181.907 222.152 181.907 222.152C181.907 222.152 182.337 223.659 181.263 225.094C180.189 226.529 177.683 226.027 177.683 226.027C177.683 226.027 177.468 228.395 176.322 228.825C175.176 229.256 172.599 227.964 172.599 227.964C172.599 227.964 171.821 229.973 170.885 230.189C169.949 230.405 167.3 228.826 167.3 228.826C167.3 228.826 155.844 220.573 153.266 219.353C150.688 218.133 149.9 218.062 149.9 218.062L152.066 204.647Z" fill="#FFBE9D"/>
<path d="M172.6 227.964C172.548 227.962 172.516 227.762 172.395 227.46C172.276 227.158 172.073 226.752 171.819 226.314C171.309 225.439 170.851 224.738 170.933 224.678C171.003 224.624 171.588 225.235 172.117 226.141C172.38 226.594 172.562 227.045 172.629 227.392C172.699 227.742 172.643 227.968 172.6 227.964Z" fill="#FFAE83"/>
<path d="M177.361 226.569C177.267 226.617 176.707 225.586 175.916 224.401C175.133 223.206 174.294 222.408 174.354 222.334C174.409 222.254 175.394 222.976 176.202 224.207C177.014 225.426 177.437 226.532 177.361 226.569Z" fill="#FFAE83"/>
<path d="M181.957 222.427C181.856 222.452 181.537 221.21 180.745 219.871C179.967 218.523 179.042 217.637 179.113 217.561C179.163 217.49 180.229 218.293 181.042 219.696C181.866 221.093 182.044 222.418 181.957 222.427Z" fill="#FFAE83"/>
<path d="M178.601 213.471C178.691 213.452 178.938 214.306 178.984 215.395C179.034 216.483 178.864 217.356 178.773 217.345C178.675 217.335 178.689 216.469 178.639 215.41C178.595 214.351 178.505 213.49 178.601 213.471Z" fill="#FFAE83"/>
<path d="M161.931 207.009C161.931 207.009 163.721 201.268 164.365 200.551C165.01 199.833 170.997 198.254 170.997 198.254L172.853 203.063L171.525 204.471L168.661 204.283C168.662 204.282 166.872 209.019 161.931 207.009Z" fill="#AE7461"/>
<path d="M150.944 218.362C150.944 218.362 150.126 218.993 150.944 220.5C151.763 222.007 153.983 220.931 154.699 220.5C154.699 220.5 153.625 223.012 154.986 223.801C156.346 224.59 157.993 224.375 157.993 224.375C157.993 224.375 157.922 225.883 159.855 226.887C161.788 227.891 162.289 226.887 162.289 226.887C162.289 226.887 162.504 229.398 164.724 229.614C166.944 229.829 167.725 229.065 167.725 229.065L166.729 227.581C166.729 227.581 168.017 224.949 167.015 223.801C166.012 222.653 164.366 222.797 164.366 222.797C164.366 222.797 164.804 220.465 163.527 219.816C161.154 218.609 160.141 220.86 160.141 220.86C160.141 220.86 159.998 218.305 158.136 218.362C156.274 218.42 155.272 219.568 155.272 219.568L150.944 218.362Z" fill="#AE7461"/>
<path d="M160.141 220.86C160.225 220.902 159.874 221.776 159.287 222.774C158.702 223.773 158.11 224.505 158.033 224.451C157.953 224.397 158.412 223.586 158.991 222.599C159.57 221.612 160.054 220.816 160.141 220.86Z" fill="#6F4439"/>
<path d="M164.411 223.121C164.494 223.16 164.129 224.093 163.435 225.106C162.744 226.122 162.009 226.802 161.942 226.738C161.87 226.671 162.476 225.903 163.15 224.911C163.829 223.922 164.323 223.077 164.411 223.121Z" fill="#6F4439"/>
<path d="M120.059 250.201H109.198L106.417 289.785H117.307C119.16 283.756 123.795 252.34 123.795 252.34L120.059 250.201Z" fill="#263238"/>
<path d="M58.5457 250.201C58.5457 250.201 51.5948 266.537 52.2897 273.149C52.9847 279.762 56.8884 289.785 56.8884 289.785H110.682C110.682 289.785 112.183 284.262 113.342 276.095C114.5 267.926 117.628 250.201 117.628 250.201H58.5457Z" fill="#263238"/>
<path d="M129.637 92.5477C127.82 90.2499 125.574 88.037 125.109 85.1428C124.681 82.4815 125.843 79.5675 124.652 77.1509C123.187 74.1772 118.977 73.5961 117.15 70.8306C116.266 69.4913 116.056 67.7945 115.184 66.4479C113.697 64.1528 110.644 63.4138 107.918 63.571C105.192 63.7283 102.532 64.5773 99.8029 64.6344C96.058 64.7133 92.2655 63.305 88.6285 64.2039C84.6156 65.1956 82.0264 68.5852 79.2889 71.8548L75.7433 75.6286C75.0165 76.2687 74.2521 76.8531 73.4201 77.3367C71.9647 78.1824 70.3193 78.735 69.0498 79.8414C66.3335 82.2089 66.3183 87.0181 69.02 89.4028C66.1012 90.1816 63.8932 93.0883 63.9203 96.1152C63.9355 97.7808 64.5477 99.3722 64.9667 100.983C65.3863 102.595 65.5995 104.376 64.8641 105.87C64.1281 107.363 62.1319 108.314 60.7255 107.426C61.1319 109.604 62.578 111.562 64.5378 112.587C63.7204 113.351 62.6032 113.785 61.4846 113.773C64.1692 121.045 72.2261 125.187 79.9514 125.598C87.6774 126.009 95.2141 123.426 102.521 120.877L123.586 116.449C125.433 116.116 126.299 113.927 126.362 112.047C126.425 110.167 126.043 108.191 126.795 106.467C127.826 104.105 130.678 102.961 131.751 100.617C132.972 97.9533 131.453 94.8455 129.637 92.5477Z" fill="#0E0F0C"/>
<path d="M79.5066 109.228C78.2226 104.444 76.9591 99.6258 76.5156 94.6919C76.0722 89.758 76.4825 84.6596 78.441 80.1111C78.7382 79.4218 81.203 74.8196 81.9436 74.9317C82.4731 75.012 80.878 79.3409 81.1229 79.8179C83.4646 84.3717 83.8895 89.7248 83.2171 94.8027C82.5453 99.8806 81.2507 104.413 79.5066 109.228Z" fill="#353533"/>
<path d="M79.9882 90.327C80.2238 77.9046 87.6334 67.6879 100.017 68.2677L101.159 68.3877C112.644 69.6016 121.278 79.4476 120.995 91.0189C120.732 101.785 120.302 113.677 119.629 119.397C118.236 131.237 106.209 131.831 106.209 131.831C106.183 131.83 105.886 151.39 105.886 151.39L77.7272 131.835L79.9882 90.327Z" fill="#FFBE9D"/>
<path d="M106.208 131.831C106.208 131.831 98.7047 131.481 91.2845 125.64C91.2845 125.64 94.0571 135.66 105.974 135.84L106.208 131.831Z" fill="#FFAE83"/>
<path d="M116.889 100.208C116.827 101.105 116.017 101.792 115.08 101.744C114.146 101.695 113.437 100.931 113.5 100.033C113.562 99.1356 114.372 98.4477 115.307 98.4955C116.242 98.5439 116.951 99.3107 116.889 100.208Z" fill="#263238"/>
<path d="M117.944 95.6744C117.711 95.8728 116.531 94.7882 114.712 94.6011C112.899 94.3882 111.466 95.1842 111.293 94.9401C111.206 94.8313 111.461 94.4552 112.087 94.0924C112.703 93.7308 113.722 93.4231 114.853 93.5478C115.985 93.6738 116.894 94.1919 117.396 94.6774C117.909 95.167 118.057 95.5862 117.944 95.6744Z" fill="#263238"/>
<path d="M100.433 100.206C100.37 101.104 99.5603 101.791 98.6238 101.742C97.6892 101.694 96.9804 100.93 97.0432 100.032C97.1061 99.1347 97.9156 98.4462 98.8508 98.4946C99.7867 98.5424 100.495 99.3092 100.433 100.206Z" fill="#263238"/>
<path d="M100.056 94.5307C99.8228 94.729 98.6407 93.6444 96.8239 93.4574C95.0104 93.2444 93.5774 94.0404 93.4033 93.7963C93.3173 93.6875 93.5701 93.3114 94.1983 92.9493C94.8145 92.5871 95.8331 92.2799 96.9649 92.404C98.0967 92.53 99.0047 93.0487 99.5078 93.5337C100.02 94.0239 100.168 94.4431 100.056 94.5307Z" fill="#263238"/>
<path d="M105.121 109.216C105.124 109.112 106.274 109.035 108.13 108.994C108.599 108.995 109.048 108.949 109.16 108.639C109.305 108.315 109.163 107.793 108.995 107.228C108.676 106.056 108.344 104.828 107.995 103.54C106.619 98.2953 105.675 94.0022 105.886 93.9478C106.098 93.894 107.385 98.1023 108.76 103.348C109.088 104.641 109.402 105.872 109.7 107.051C109.82 107.598 110.059 108.229 109.749 108.902C109.588 109.236 109.221 109.453 108.915 109.502C108.608 109.561 108.346 109.539 108.115 109.528C106.261 109.433 105.117 109.321 105.121 109.216Z" fill="#263238"/>
<path d="M99.6358 109.912C99.9337 109.926 99.7291 111.904 101.271 113.486C102.808 115.072 104.935 115.072 104.922 115.351C104.936 115.478 104.413 115.686 103.522 115.616C102.648 115.554 101.406 115.139 100.462 114.171C99.5226 113.202 99.201 112.006 99.2188 111.188C99.2308 110.353 99.5021 109.886 99.6358 109.912Z" fill="#263238"/>
<path d="M100.743 87.1251C100.511 87.6021 98.7207 87.1749 96.561 87.2074C94.4007 87.1961 92.6143 87.6399 92.378 87.1663C92.2741 86.9401 92.6236 86.5062 93.3688 86.0996C94.1081 85.6937 95.2558 85.3547 96.5517 85.3467C97.847 85.3421 98.998 85.6691 99.7413 86.0678C100.491 86.4678 100.845 86.8983 100.743 87.1251Z" fill="#263238"/>
<path d="M117.829 89.5383C117.466 89.9184 116.259 89.3565 114.755 89.1768C113.258 88.9446 111.945 89.1615 111.697 88.6972C111.59 88.4736 111.834 88.0803 112.433 87.7473C113.022 87.415 113.975 87.1934 115.007 87.334C116.038 87.476 116.895 87.9456 117.375 88.4252C117.862 88.9068 117.992 89.3512 117.829 89.5383Z" fill="#263238"/>
<path d="M80.0309 99.2083C79.8383 99.0995 72.156 95.9401 71.5616 104.073C70.9679 112.206 79.2373 111.127 79.2684 110.894C79.2989 110.662 80.0309 99.2083 80.0309 99.2083Z" fill="#FFBE9D"/>
<path d="M77.0177 107.631C76.9839 107.602 76.8688 107.719 76.6219 107.812C76.381 107.902 75.9746 107.946 75.5636 107.756C74.729 107.378 74.1068 105.961 74.1743 104.492C74.2081 103.75 74.4139 103.057 74.7184 102.493C75.0096 101.916 75.4239 101.528 75.8614 101.483C76.2983 101.415 76.5848 101.697 76.6676 101.933C76.7596 102.168 76.696 102.327 76.7384 102.344C76.7596 102.367 76.9224 102.221 76.882 101.88C76.8602 101.716 76.7788 101.517 76.6001 101.346C76.4167 101.174 76.1361 101.071 75.8336 101.082C75.2048 101.079 74.5992 101.614 74.265 102.234C73.8957 102.854 73.6468 103.632 73.6091 104.465C73.5416 106.108 74.2663 107.703 75.4147 108.129C75.9746 108.32 76.4631 108.183 76.7232 108.009C76.9892 107.827 77.0448 107.648 77.0177 107.631Z" fill="#FFAE83"/>
<path d="M116.609 77.1997C117.969 76.5582 114.299 72.0382 111.165 70.3613C106.426 67.8273 99.0612 65.9799 94.4784 66.9683C88.9617 68.1583 84.2863 70.5702 81.249 75.337C78.211 80.1038 76.8191 85.7965 76.6146 91.4482C76.5524 93.1729 76.6152 94.9792 77.4393 96.4942C78.4579 98.3668 80.5613 99.6404 80.3065 102.116C80.2131 103.021 80.413 103.953 80.9908 104.655C82.3741 106.335 84.2876 104.964 85.2189 103.525C87.2084 100.452 87.6519 96.6601 88.0431 93.0183C88.3217 90.43 88.5964 87.7859 88.0265 85.246C87.7168 83.8642 87.1608 82.5415 86.9272 81.1439C86.6935 79.7462 86.8358 78.1874 87.7631 77.1187C87.914 76.9449 88.1582 76.7294 88.4653 76.4925C90.8944 74.6206 94.1521 74.2239 96.9697 75.4319C101.438 77.3483 109.091 80.2729 111.23 78.8494C114.308 76.801 115.104 75.3874 115.104 75.3874L116.609 77.1997Z" fill="#0E0F0C"/>
<path d="M94.9723 65.8907C99.53 64.6828 104.605 65.0894 108.642 67.5298C110.784 68.8253 112.669 70.7968 113.19 73.2498C113.712 75.7028 112.495 78.6016 110.121 79.3963L109.956 79.4865C106.417 80.4318 104.195 79.8215 100.817 78.4006C97.9759 77.2046 95.5065 75.2405 92.6591 74.0584C89.6324 72.802 86.2257 72.4823 83.019 73.1536C86.3515 69.8124 90.4147 67.098 94.9723 65.8907Z" fill="#0E0F0C"/>
<path d="M97.0234 64.4794C97.0267 64.4575 97.3205 64.4814 97.8494 64.5616C98.3742 64.6605 99.1341 64.8263 100.035 65.158C100.934 65.4883 101.972 65.9872 103.025 66.7029C104.074 67.4153 105.149 68.3513 106.004 69.5619C106.867 70.7758 107.338 72.1277 107.644 73.3569C107.944 74.5933 108.076 75.7316 108.143 76.6855C108.21 77.6401 108.212 78.4142 108.202 78.9475C108.192 79.4815 108.165 79.776 108.143 79.776C108.118 79.776 108.099 79.4815 108.068 78.9501C108.037 78.4188 107.997 77.6507 107.9 76.7067C107.803 75.7641 107.647 74.6437 107.335 73.4351C107.02 72.2338 106.55 70.9237 105.722 69.7616C104.899 68.5954 103.86 67.6754 102.844 66.9656C101.825 66.2525 100.819 65.7404 99.9455 65.3862C98.1915 64.683 97.0101 64.5457 97.0234 64.4794Z" fill="#353533"/>
<path d="M104.497 64.0266C104.505 64.0041 104.752 64.0737 105.198 64.221C105.417 64.3052 105.705 64.3643 106 64.5215C106.311 64.6794 106.649 64.8512 107.014 65.0369C108.459 65.884 110.243 67.5861 111.224 69.9987C111.492 70.5897 111.651 71.202 111.821 71.7877C111.932 72.3874 112.06 72.9625 112.086 73.5237C112.158 74.0802 112.116 74.6149 112.117 75.1117C112.055 75.6052 112.036 76.0715 111.931 76.4822C111.834 76.8948 111.762 77.2702 111.63 77.5813C111.51 77.8951 111.43 78.173 111.303 78.376C111.08 78.7926 110.948 79.0141 110.927 79.0028C110.856 78.9697 111.417 78.0728 111.691 76.4384C111.779 76.0357 111.783 75.5787 111.831 75.0984C111.818 74.6135 111.849 74.0941 111.769 73.5535C111.737 73.0082 111.604 72.4504 111.493 71.8686C111.322 71.3008 111.166 70.7065 110.906 70.1333C109.954 67.7937 108.264 66.1281 106.886 65.2452C106.536 65.0475 106.213 64.8644 105.916 64.6966C105.634 64.5255 105.358 64.4492 105.15 64.347C104.724 64.1633 104.49 64.0498 104.497 64.0266Z" fill="#353533"/>
<path d="M109.789 149.426C109.789 150.543 115.371 175.115 117.508 181.151C119.644 187.186 126.41 247.714 125.52 252.025C124.629 256.336 122.315 256.163 122.315 256.163C122.315 256.163 67.6558 252.714 61.7804 253.232C55.905 253.749 53.4124 253.577 51.988 246.851C50.5637 240.126 52.0304 205.173 50.7841 196.723C49.5378 188.274 49.5272 184.178 49.0454 171.624C48.6277 160.744 51.0978 152.016 56.2611 145.718C61.4243 139.419 72.8535 133.051 72.8535 133.051L76.9074 127.125L105.596 142.332L106.252 138.871L107.993 144.259L109.789 149.426Z" fill="#455A64"/>
<g opacity="0.3">
<path d="M122.12 224.32C121.642 223.1 120.093 222.792 118.792 222.648C106.637 221.297 93.984 218.256 85.1063 209.825C81.6328 206.527 78.894 202.542 76.2545 198.543C70.485 189.799 65.061 180.833 59.6389 171.869L55.4288 173.465C58.0114 186.122 60.553 195.285 64.7578 205.659C68.968 216.045 72.229 226.098 82.8877 229.497C89.7778 231.693 102.863 230.01 110.071 229.444C113.081 229.208 116.111 228.916 119.001 228.041C119.874 227.777 120.759 227.444 121.417 226.81C122.075 226.175 122.453 225.171 122.12 224.32Z" fill="black"/>
</g>
<path d="M53.9462 170.157C54.2606 170.718 78.5862 222.789 89.4469 224.93C100.307 227.071 134.061 227.571 140.648 226.322C147.236 225.073 153.681 223.91 153.681 223.91C153.681 223.91 158.451 212.555 154.097 202.881L145.031 203.168C145.031 203.168 119.821 201.806 116.26 200.829C112.7 199.854 109.623 196.506 106.419 196.685L87.2408 151.956C87.2408 151.956 74.7778 140.357 65.8757 143.926C56.9729 147.496 51.3378 165.507 53.9462 170.157Z" fill="#455A64"/>
<path d="M145.728 225.715C145.706 225.707 145.771 225.395 145.909 224.84C146.052 224.286 146.231 223.475 146.42 222.471C146.614 221.467 146.781 220.26 146.901 218.915C147.006 217.569 147.055 216.083 146.996 214.527C146.862 211.409 146.308 208.625 145.762 206.656C145.491 205.671 145.245 204.878 145.057 204.338C144.874 203.794 144.783 203.489 144.805 203.481C144.827 203.471 144.96 203.76 145.182 204.291C145.411 204.819 145.693 205.604 145.997 206.588C146.607 208.554 147.205 211.362 147.341 214.513C147.4 216.086 147.341 217.587 147.218 218.944C147.079 220.301 146.885 221.515 146.66 222.52C146.439 223.526 146.222 224.331 146.038 224.877C145.86 225.423 145.751 225.722 145.728 225.715Z" fill="#263238"/>
<path d="M87.2411 151.956C87.2411 151.956 87.3702 152.223 87.6032 152.749C87.8375 153.284 88.1797 154.065 88.6264 155.086C89.5199 157.148 90.8291 160.17 92.5063 164.041C95.852 171.808 100.664 182.98 106.544 196.631L106.412 196.548C107.926 196.477 109.348 197.137 110.663 197.853C111.986 198.584 113.268 199.434 114.674 200.077C116.062 200.784 117.639 200.948 119.236 201.141C120.833 201.331 122.463 201.471 124.116 201.615C130.731 202.163 137.741 202.595 145.04 203.003H145.026C147.878 202.911 150.963 202.812 154.093 202.712L154.206 202.709L154.251 202.812C155.65 206.02 156.236 209.627 156.067 213.24C155.912 216.856 155.173 220.494 153.841 223.977L153.809 224.062L153.713 224.08C151.887 224.418 149.923 224.781 147.948 225.147C145.832 225.538 143.728 225.928 141.638 226.314C139.545 226.723 137.411 226.88 135.321 226.966C131.127 227.158 126.994 227.174 122.933 227.153C118.873 227.13 114.884 227.036 110.98 226.891C107.077 226.753 103.257 226.55 99.5347 226.265C97.6735 226.132 95.8381 225.952 94.0293 225.754C92.2204 225.514 90.4446 225.353 88.6979 224.866C87.8461 224.548 87.0909 224.06 86.3893 223.531C85.6857 223.002 85.0417 222.413 84.4282 221.808C83.1991 220.597 82.0997 219.304 81.0619 218.003C76.9491 212.764 73.7251 207.456 70.8433 202.597C65.1413 192.833 61.0258 184.655 58.2003 179.003C56.7952 176.172 55.7315 173.96 55.0174 172.457C54.3039 170.954 53.9465 170.156 53.9465 170.156C53.9465 170.156 54.0544 170.346 54.2437 170.729C54.4356 171.119 54.7149 171.686 55.0796 172.427C55.8242 173.924 56.9156 176.118 58.3201 178.942C61.1814 184.574 65.3293 192.733 71.0531 202.473C73.9448 207.317 77.1794 212.614 81.285 217.824C82.3201 219.117 83.4162 220.4 84.6347 221.596C85.2423 222.194 85.8797 222.774 86.5693 223.292C87.257 223.808 87.9937 224.281 88.8012 224.58C90.4552 225.039 92.2766 225.213 94.0643 225.444C95.8679 225.639 97.7 225.816 99.5585 225.947C103.275 226.227 107.091 226.426 110.992 226.561C114.892 226.702 118.877 226.793 122.934 226.813C126.991 226.832 131.122 226.814 135.304 226.622C137.4 226.533 139.492 226.38 141.574 225.974C143.664 225.587 145.769 225.197 147.886 224.806C149.861 224.441 151.825 224.077 153.652 223.739L153.523 223.842C154.833 220.419 155.572 216.794 155.725 213.225C155.893 209.653 155.314 206.101 153.944 202.949L154.103 203.048C150.973 203.146 147.888 203.242 145.037 203.332H145.03L145.023 203.331C137.721 202.917 130.711 202.477 124.09 201.919C122.435 201.772 120.804 201.63 119.201 201.437C118.399 201.345 117.605 201.242 116.816 201.092C116.017 200.971 115.269 200.659 114.552 200.34C113.12 199.681 111.836 198.824 110.527 198.098C109.227 197.385 107.846 196.753 106.427 196.818L106.331 196.823L106.294 196.736C100.459 183.066 95.6846 171.878 92.3653 164.099C90.7173 160.215 89.4313 157.184 88.553 155.115C88.1221 154.088 87.7918 153.301 87.5661 152.763C87.3451 152.233 87.2411 151.956 87.2411 151.956Z" fill="#263238"/>
<path d="M84.6996 148.445C84.6764 148.466 84.3607 148.131 83.7558 147.569C83.1528 147.005 82.2249 146.244 80.9733 145.466C79.725 144.687 78.1252 143.932 76.2508 143.417C74.3804 142.9 72.2273 142.658 69.9975 142.868C67.7696 143.104 65.7066 143.768 63.9751 144.647C62.2391 145.524 60.82 146.581 59.7504 147.593C58.6775 148.602 57.9177 149.533 57.4385 150.206C56.956 150.877 56.7131 151.267 56.686 151.251C56.6761 151.245 56.7264 151.142 56.8329 150.951C56.9454 150.763 57.0884 150.47 57.328 150.129C57.7774 149.428 58.5161 148.463 59.5823 147.416C60.6453 146.368 62.0716 145.272 63.8309 144.364C65.5855 143.454 67.6876 142.766 69.9631 142.525C72.2406 142.31 74.4366 142.567 76.3356 143.111C78.2391 143.652 79.854 144.443 81.103 145.26C82.3552 146.074 83.2693 146.874 83.8484 147.472C84.1502 147.759 84.3488 148.018 84.4957 148.179C84.638 148.346 84.7082 148.437 84.6996 148.445Z" fill="#263238"/>
<path d="M106.344 196.724C106.433 196.757 105.884 198.449 105.117 200.501C104.349 202.554 103.656 204.191 103.566 204.158C103.477 204.124 104.026 202.433 104.794 200.38C105.561 198.328 106.254 196.691 106.344 196.724Z" fill="#263238"/>
<path d="M150.41 205.301C150.41 205.281 150.503 205.255 150.66 205.311C150.816 205.366 151.016 205.525 151.148 205.789C151.273 206.04 151.363 206.455 151.124 206.823C150.899 207.164 150.471 207.425 149.973 207.356C149.466 207.261 149.17 206.82 149.106 206.429C149.036 206.019 149.206 205.646 149.437 205.449C149.673 205.244 149.936 205.222 150.088 205.236C150.247 205.251 150.325 205.293 150.322 205.314C150.333 205.38 149.936 205.29 149.606 205.625C149.454 205.791 149.351 206.078 149.418 206.369C149.478 206.658 149.716 206.963 150.031 207.015C150.348 207.067 150.695 206.881 150.86 206.646C151.034 206.415 151.003 206.11 150.925 205.886C150.754 205.411 150.397 205.345 150.41 205.301Z" fill="#263238"/>
<path d="M106.282 144.064C106.274 144.077 106.048 143.959 105.629 143.725C105.178 143.467 104.573 143.121 103.818 142.688L103.945 142.632C103.588 144.445 103.241 147.113 102.634 150.31L102.594 150.523L102.409 150.406C99.7459 148.724 96.5504 146.801 93.1411 144.736C90.5995 143.211 88.2234 141.671 86.0346 140.341C83.8346 139.022 81.8245 137.879 80.1321 136.928C78.4635 135.998 77.1007 135.238 76.1152 134.689C75.6671 134.436 75.3057 134.232 75.0258 134.075C74.7782 133.931 74.6505 133.852 74.6558 133.841C74.6611 133.83 74.7994 133.889 75.0582 134.013C75.3461 134.156 75.7181 134.341 76.1788 134.57C77.1471 135.063 78.541 135.79 80.2499 136.714C81.9589 137.639 83.9828 138.76 86.1975 140.067C88.3902 141.414 90.7948 142.89 93.3198 144.44C96.7271 146.504 99.918 148.444 102.568 150.154L102.343 150.249C102.977 147.077 103.368 144.406 103.778 142.597L103.805 142.478L103.906 142.541C104.643 143.002 105.234 143.372 105.674 143.648C106.079 143.907 106.29 144.051 106.282 144.064Z" fill="#263238"/>
<g opacity="0.3">
<path d="M78.6872 135.988C83.6777 139.715 88.6682 143.442 93.658 147.168C96.9521 149.628 100.325 152.129 104.236 153.388C104.164 149.912 104.092 146.436 104.02 142.961L102.487 150.28L78.6872 135.988Z" fill="black"/>
</g>
<path d="M232.85 83.7596C230.244 84.1092 227.528 82.2379 226.919 79.6741C226.31 77.1103 227.895 74.2142 230.378 73.3492C228.722 71.7121 228.262 68.9837 229.29 66.8922C230.319 64.8007 232.758 63.5039 235.062 63.8236C235.113 61.5218 236.442 59.2904 238.439 58.1521C240.436 57.0144 243.029 57.0111 245.029 58.1441C247.523 55.9153 251.611 55.7541 254.272 57.7793C256.495 57.3229 258.95 58.4665 260.035 60.4625C261.121 62.4585 260.749 65.1463 259.162 66.7708" fill="#263238"/>
<path d="M232.088 84.5282C232.8 72.6577 242.489 63.3278 254.352 63.0864L255.531 63.0625C268.256 63.5474 274.954 74.649 274.119 87.3845L274.875 132.82L243.954 143.944L243.684 127.582C243.684 127.582 231.427 125.927 231.027 113.687C230.834 107.774 231.425 95.5681 232.088 84.5282Z" fill="#AE7461"/>
<path d="M243.58 127.565C243.58 127.565 251.391 127.876 259.492 122.543C259.492 122.543 255.906 131.431 243.694 130.577L243.58 127.565Z" fill="#6F4439"/>
<path d="M235.516 95.599C235.502 96.523 236.271 97.2965 237.234 97.329C238.196 97.3608 238.987 96.6398 239.001 95.7157C239.015 94.7917 238.246 94.0169 237.285 93.9844C236.322 93.9526 235.53 94.675 235.516 95.599Z" fill="#263238"/>
<path d="M234.836 90.4642C235.058 90.6877 236.359 89.6801 238.237 89.647C240.112 89.5866 241.509 90.5265 241.707 90.2924C241.805 90.1882 241.577 89.781 240.968 89.3557C240.368 88.9319 239.353 88.5286 238.183 88.5571C237.014 88.5876 236.039 89.0393 235.482 89.4924C234.915 89.9481 234.728 90.3647 234.836 90.4642Z" fill="#263238"/>
<path d="M252.621 95.599C252.607 96.5231 253.377 97.2965 254.339 97.3283C255.3 97.3609 256.092 96.6398 256.106 95.7151C256.12 94.7917 255.35 94.017 254.389 93.9845C253.426 93.9519 252.634 94.675 252.621 95.599Z" fill="#263238"/>
<path d="M253.292 90.4398C253.513 90.6633 254.816 89.6564 256.692 89.6232C258.567 89.5628 259.964 90.5028 260.163 90.268C260.261 90.1638 260.035 89.7572 259.423 89.3313C258.824 88.9075 257.808 88.5042 256.639 88.5327C255.47 88.5632 254.494 89.0149 253.937 89.468C253.372 89.9237 253.183 90.3403 253.292 90.4398Z" fill="#263238"/>
<path d="M246.768 104.533C246.774 104.426 245.603 104.248 243.708 104.044C243.227 104.004 242.772 103.918 242.685 103.592C242.565 103.247 242.755 102.725 242.976 102.161C243.403 100.989 243.849 99.7607 244.319 98.4732C246.182 93.2242 247.52 88.9125 247.308 88.8388C247.097 88.7659 245.415 92.9608 243.552 98.2098C243.104 99.504 242.676 100.738 242.269 101.918C242.099 102.468 241.799 103.093 242.058 103.808C242.195 104.165 242.552 104.419 242.861 104.495C243.17 104.583 243.44 104.583 243.677 104.592C245.582 104.656 246.762 104.64 246.768 104.533Z" fill="#263238"/>
<path d="M252.596 84.0462C252.853 84.5178 254.451 83.9679 256.431 83.8638C258.408 83.7145 260.085 84.0541 260.256 83.5546C260.33 83.3172 259.969 82.8959 259.248 82.5285C258.532 82.161 257.449 81.8877 256.263 81.9626C255.077 82.0402 254.055 82.4482 253.412 82.9032C252.763 83.3576 252.481 83.8207 252.596 84.0462Z" fill="#263238"/>
<path d="M234.472 83.8101C234.877 84.2293 236.417 83.7537 238.28 83.6954C240.141 83.5819 241.727 83.9123 242.081 83.4579C242.236 83.2376 241.979 82.8144 241.281 82.4244C240.594 82.035 239.45 81.7285 238.171 81.7876C236.892 81.8479 235.79 82.2579 235.15 82.7083C234.501 83.1607 234.293 83.6051 234.472 83.8101Z" fill="#263238"/>
<path d="M233.148 78.8893C233.148 78.8893 236.214 71.1561 239.867 69.2914C244.289 67.0341 246.311 71.9077 250.543 70.6287C254.775 69.3498 258.996 67.184 263.412 70.3926C268.246 73.9043 266.067 76.482 266.471 81.9088C268.111 103.909 272.251 110.056 273.182 99.6585C273.284 98.5195 276.413 97.551 276.782 92.7398C277.26 86.5005 277.345 78.9351 275.869 74.5444C274.624 70.8437 272.453 68.3137 268.596 65.5542C262.507 61.198 254.266 61.2703 248.682 61.9483C243.099 62.6262 232.443 69.2987 233.148 78.8893Z" fill="#263238"/>
<path d="M272.399 99.3412C272.437 97.45 274.032 95.925 275.914 96.0656C278.197 96.2361 280.759 97.4812 280.704 102.203C280.608 110.579 272.237 108.754 272.225 108.513C272.218 108.35 272.328 102.846 272.399 99.3412Z" fill="#AE7461"/>
<path d="M274.076 105.383C274.113 105.357 274.221 105.487 274.465 105.602C274.703 105.715 275.115 105.796 275.553 105.638C276.44 105.323 277.199 103.927 277.257 102.418C277.287 101.656 277.136 100.929 276.874 100.324C276.625 99.7087 276.236 99.2762 275.791 99.1919C275.35 99.0838 275.032 99.3471 274.928 99.582C274.813 99.8148 274.864 99.9826 274.82 99.9966C274.796 100.017 274.642 99.8539 274.713 99.509C274.75 99.3432 274.85 99.1468 275.048 98.9883C275.251 98.8271 275.547 98.7468 275.856 98.7846C276.5 98.8364 277.073 99.4374 277.361 100.101C277.686 100.767 277.873 101.585 277.839 102.441C277.766 104.128 276.886 105.698 275.674 106.034C275.084 106.18 274.595 105.997 274.345 105.797C274.088 105.585 274.047 105.397 274.076 105.383Z" fill="#6F4439"/>
<path d="M271.904 83.1266C270.834 83.8908 269.703 84.6795 268.399 84.8361C267.094 84.9926 265.585 84.2709 265.338 82.9774C265.227 82.397 265.355 81.7177 264.964 81.2752C264.497 80.7472 263.659 80.933 262.96 81.0212C260.537 81.329 258.016 79.658 257.349 77.3032C256.749 78.2451 255.303 78.2345 254.353 77.6481C253.403 77.0617 252.78 76.0833 252.029 75.2561C251.278 74.4296 250.234 73.6973 249.133 73.877C248.517 73.9772 247.947 74.3579 247.324 74.3155C246.226 74.2399 245.664 72.9643 245.476 71.8764C245.288 70.7885 245.133 69.5182 244.192 68.9444C243.32 68.4124 242.211 68.7527 241.204 68.9225C240.197 69.0924 238.889 68.8814 238.61 67.897C238.464 67.3809 238.675 66.8304 238.953 66.3713C240.212 64.2931 243.03 63.3233 245.296 64.1889C246.058 61.4062 248.594 59.2013 251.451 58.8404C254.308 58.4789 257.312 59.984 258.738 62.4901C260.471 60.849 263.022 60.1227 265.357 60.6069C267.691 61.0905 269.746 62.7707 270.688 64.9664C272.708 64.3893 275.04 65.1296 276.361 66.7673C277.682 68.4051 277.915 70.8456 276.928 72.7049C278.447 73.5341 279.763 75.0027 279.829 76.7347C279.896 78.4667 278.247 80.2272 276.569 79.8053C277.271 81.1406 276.759 82.9827 275.47 83.7628C274.182 84.5429 272.317 84.1395 271.464 82.8964" fill="#263238"/>
<path d="M244.727 66.6644C244.721 66.6651 244.722 66.7168 244.733 66.8176C244.746 66.9178 244.755 67.0697 244.795 67.2634C244.879 67.6481 245.046 68.2173 245.434 68.864C245.824 69.5002 246.424 70.2325 247.326 70.805C248.211 71.3847 249.417 71.8146 250.767 71.7131L250.622 71.5307C250.377 72.2517 250.466 73.1094 250.836 73.8384C251.188 74.58 251.732 75.2328 252.308 75.8676C252.602 76.1721 252.858 76.5322 253.262 76.8089C253.654 77.0749 254.12 77.2241 254.596 77.2739C255.54 77.3754 256.597 77.0616 257.264 76.2537L256.95 76.1707C257.196 77.8304 258.174 79.4762 259.695 80.4605C260.501 81.0197 261.49 81.3507 262.456 81.305C263.423 81.2758 264.315 80.9733 265.147 80.6556L264.922 80.5614C265.391 81.5929 266.1 82.4665 266.951 83.1046C267.786 83.7421 268.89 84.1036 269.877 83.8389C271.84 83.3806 273.114 81.7109 273.346 80.1581L273.159 80.2503C274.147 80.7644 275.198 80.7942 276.037 80.6144C276.887 80.4406 277.55 80.0553 278.021 79.6791C278.493 79.2957 278.768 78.9063 278.933 78.637C279.084 78.3578 279.146 78.2039 279.136 78.1999C279.093 78.1661 278.872 78.842 277.935 79.5684C277.466 79.9153 276.817 80.2682 275.999 80.4154C275.191 80.5707 274.195 80.5189 273.282 80.0254L273.123 79.9398L273.094 80.1176C272.859 81.5663 271.63 83.1252 269.81 83.5292C268.916 83.7587 267.946 83.435 267.154 82.832C266.358 82.2297 265.683 81.3879 265.247 80.4181L265.178 80.2642L265.022 80.3239C264.203 80.6343 263.342 80.9183 262.448 80.9428C261.555 80.9806 260.666 80.6854 259.899 80.1561C258.462 79.2247 257.544 77.6851 257.303 76.1137L257.243 75.719L256.988 76.0308C256.426 76.722 255.48 77.0205 254.631 76.9309C254.205 76.8885 253.792 76.7578 253.449 76.5283C253.116 76.3087 252.848 75.9532 252.55 75.646C251.976 75.0225 251.447 74.3943 251.112 73.7044C250.76 73.0232 250.679 72.269 250.888 71.6162L250.952 71.4152L250.742 71.4338C249.47 71.5459 248.309 71.1579 247.446 70.6153C246.565 70.0806 245.967 69.3868 245.568 68.7798C244.78 67.5314 244.786 66.6438 244.727 66.6644Z" fill="#455A64"/>
<path d="M253.239 105.181C252.94 105.216 253.285 107.19 251.847 108.889C250.412 110.593 248.275 110.743 248.308 111.021C248.302 111.15 248.842 111.322 249.733 111.189C250.608 111.065 251.827 110.56 252.707 109.521C253.583 108.479 253.823 107.255 253.747 106.434C253.677 105.595 253.371 105.145 253.239 105.181Z" fill="#263238"/>
<path d="M184.988 200.44C186.047 200.016 221.026 195.803 221.026 195.803L235.219 183.762L233.887 218.622L189.224 222.938L184.988 200.44Z" fill="#BCEF9B"/>
<path opacity="0.3" d="M228.943 189.086C228.517 189.299 225.012 192.421 225.012 192.421L226.081 219.265L228.943 189.086Z" fill="black"/>
<path d="M288.54 252.216H229.458C229.458 252.216 232.586 268.923 233.744 276.623C234.902 284.321 236.596 289.785 236.596 289.785H290.106C290.106 289.785 294.1 280.079 294.796 273.847C295.49 267.614 288.54 252.216 288.54 252.216Z" fill="#263238"/>
<path d="M225.054 254.232C225.054 254.232 223.403 273.278 225.054 289.785H245.52V274.575L225.054 254.232Z" fill="#263238"/>
<path d="M236.425 160.878L242.792 146.904L243.583 138.272C243.583 138.272 255.793 130.581 261.585 127.679C267.377 124.776 275.18 122.148 275.18 122.148V130.292L236.425 160.878Z" fill="#EBEBEB"/>
<path d="M289.644 232.248C289.644 232.248 293.103 185.669 293.337 182.208C293.337 182.208 295.38 157.321 290.97 147.844C286.561 138.367 276.694 130.038 276.694 130.038L275.786 125.062L256.514 137.236L247.605 145.002C247.605 145.002 242.549 150.352 239.199 155.484C236.67 158.99 233.859 163.502 232.608 169.175C232.151 171.248 226.848 196.043 226.69 213.327C226.69 213.327 225.875 228.405 225.006 236.946C223.931 247.517 222.292 271.615 222.648 285.893L285.097 283.981C300.53 281.622 297.816 280.084 297.816 280.084L289.644 232.248Z" fill="#BCEF9B"/>
<path d="M275.18 130.294C275.18 130.294 275.035 130.369 274.747 130.492C274.442 130.619 274.018 130.797 273.473 131.026C272.928 131.288 272.266 131.635 271.488 132.04C270.742 132.503 269.853 132.981 268.932 133.639C265.185 136.159 260.242 140.428 255.21 146.349L255.175 146.391L255.123 146.4C253.221 146.751 251.212 147.122 249.131 147.505L249.26 147.355C249.166 150.145 249.068 153.073 248.966 156.103L248.964 156.171L248.912 156.221C245.911 159.068 242.863 162.291 240.102 165.899C238.982 167.378 237.95 168.898 237.081 170.475L236.755 171.065L236.505 171.681C236.335 172.088 236.173 172.498 236.053 172.93C235.786 173.778 235.522 174.62 235.305 175.47C234.38 178.852 233.618 182.154 232.903 185.299C231.48 191.593 230.296 197.283 229.315 202.064C227.354 211.627 226.25 217.562 226.25 217.562C226.25 217.562 226.265 217.181 226.384 216.473C226.493 215.762 226.675 214.718 226.913 213.374C227.397 210.687 228.127 206.805 229.076 202.016C230.028 197.228 231.187 191.531 232.593 185.229C233.3 182.079 234.056 178.775 234.98 175.38C235.197 174.528 235.461 173.679 235.73 172.823C235.849 172.393 236.015 171.969 236.192 171.545L236.45 170.908L236.781 170.31C237.66 168.711 238.701 167.178 239.827 165.69C242.607 162.059 245.662 158.834 248.686 155.974L248.631 156.091C248.74 153.061 248.845 150.133 248.946 147.344L248.95 147.216L249.075 147.194C251.156 146.818 253.167 146.454 255.07 146.11L254.983 146.161C260.061 140.231 265.043 135.986 268.836 133.495C269.768 132.846 270.669 132.376 271.425 131.923C272.212 131.528 272.884 131.193 273.436 130.943C273.99 130.731 274.422 130.566 274.731 130.449C275.025 130.339 275.18 130.294 275.18 130.294Z" fill="#263238"/>
<path d="M254.215 167.099L254.965 229.251L245.521 289.785H270.417C270.417 289.785 281.732 243.823 284.367 234.164C286.926 224.785 290.759 177.576 291.099 175.258C291.232 174.349 293.931 158.046 285.986 150.354" fill="#BCEF9B"/>
<path d="M285.985 150.355C285.985 150.355 286.165 150.527 286.506 150.874C286.845 151.222 287.32 151.772 287.866 152.55C288.955 154.1 290.237 156.662 290.976 160.209C291.721 163.745 291.983 168.212 291.449 173.322C291.075 175.868 290.888 178.59 290.613 181.491C290.35 184.388 290.072 187.451 289.781 190.668C289.187 197.101 288.516 204.148 287.707 211.71C287.291 215.49 286.86 219.401 286.328 223.42C285.784 227.432 285.256 231.592 284.135 235.741C279.976 252.343 275.398 270.616 270.585 289.827L270.552 289.959H270.418C269.57 289.959 268.652 289.959 267.732 289.959C260.177 289.958 252.756 289.957 245.521 289.957H245.322L245.353 289.76C248.847 267.433 252.072 246.826 254.825 229.231L254.823 229.254C254.621 210.434 254.455 194.898 254.339 184.059C254.29 178.648 254.252 174.41 254.226 171.517C254.218 170.08 254.212 168.977 254.207 168.227C254.205 167.483 254.215 167.1 254.215 167.1C254.215 167.1 254.234 167.483 254.25 168.227C254.264 168.977 254.284 170.079 254.31 171.517C254.354 174.409 254.418 178.646 254.5 184.057C254.645 194.896 254.852 210.431 255.105 229.251V229.263L255.103 229.275C252.366 246.873 249.16 267.483 245.688 289.813L245.52 289.616C252.755 289.615 260.175 289.614 267.73 289.614C268.65 289.614 269.568 289.614 270.416 289.614L270.249 289.745C275.073 270.533 279.66 252.261 283.828 235.658C284.948 231.535 285.478 227.392 286.027 223.381C286.565 219.366 287.001 215.458 287.423 211.68C288.245 204.122 288.929 197.076 289.538 190.645C289.838 187.43 290.124 184.368 290.394 181.471C290.677 178.583 290.877 175.829 291.257 173.302C291.807 168.212 291.566 163.76 290.844 160.236C290.128 156.701 288.874 154.145 287.808 152.589C287.274 151.808 286.808 151.254 286.479 150.898C286.149 150.544 285.985 150.355 285.985 150.355Z" fill="#263238"/>
<path d="M267.382 235.368C267.367 235.411 266.628 235.21 265.458 234.81C264.287 234.41 262.689 233.799 260.963 233.033C259.238 232.264 257.714 231.485 256.633 230.883C255.551 230.282 254.907 229.867 254.929 229.828C254.954 229.784 255.639 230.123 256.745 230.667C257.852 231.212 259.386 231.952 261.103 232.717C262.821 233.48 264.397 234.123 265.542 234.581C266.687 235.039 267.398 235.32 267.382 235.368Z" fill="#263238"/>
<path d="M224.762 239.488C224.756 239.487 224.754 239.432 224.756 239.325C224.761 239.197 224.766 239.041 224.773 238.848C224.796 238.402 224.829 237.792 224.871 237.02C224.973 235.404 225.119 233.116 225.298 230.301C225.679 224.63 226.225 216.794 226.988 208.153C227.752 199.508 228.633 191.701 229.351 186.061C229.712 183.241 230.017 180.961 230.248 179.389C230.361 178.624 230.451 178.02 230.518 177.578C230.549 177.389 230.575 177.235 230.596 177.109C230.616 177.003 230.629 176.95 230.635 176.95C230.641 176.951 230.639 177.006 230.632 177.113C230.62 177.241 230.605 177.397 230.587 177.588C230.536 178.031 230.467 178.639 230.381 179.407C230.191 181.015 229.923 183.291 229.593 186.091C228.937 191.737 228.096 199.544 227.332 208.184C226.57 216.822 225.986 224.652 225.542 230.319C225.317 233.13 225.135 235.416 225.006 237.03C224.937 237.8 224.883 238.409 224.843 238.854C224.823 239.045 224.806 239.2 224.793 239.327C224.778 239.434 224.768 239.489 224.762 239.488Z" fill="#263238"/>
<path d="M275.181 142.514C275.073 142.55 274.463 140.125 272.838 137.562C271.237 134.983 269.323 133.381 269.402 133.3C269.428 133.269 269.938 133.625 270.664 134.323C271.39 135.018 272.31 136.074 273.13 137.378C273.947 138.683 274.498 139.973 274.808 140.929C275.12 141.887 275.22 142.504 275.181 142.514Z" fill="#263238"/>
<path d="M231.25 219.733C231.268 219.729 231.331 219.886 231.311 220.185C231.29 220.477 231.16 220.923 230.771 221.31C230.406 221.702 229.681 221.981 228.975 221.719C228.629 221.601 228.299 221.376 228.052 221.057C227.803 220.742 227.666 220.309 227.679 219.891C227.686 219.357 227.85 218.845 228.158 218.445C228.312 218.248 228.512 218.082 228.738 217.986C228.976 217.898 229.149 217.856 229.346 217.793L229.371 217.785L229.393 217.786C229.843 217.797 230.281 217.895 230.593 218.131C230.91 218.36 231.068 218.675 231.149 218.922C231.302 219.432 231.272 219.731 231.25 219.733C231.209 219.742 231.173 219.442 230.984 218.987C230.885 218.766 230.726 218.509 230.452 218.336C230.184 218.155 229.805 218.086 229.392 218.088L229.438 218.081C229.258 218.145 229.029 218.214 228.866 218.28C228.698 218.356 228.544 218.486 228.42 218.651C228.172 218.981 228.027 219.435 228.023 219.894C227.987 220.623 228.502 221.211 229.081 221.42C229.665 221.65 230.255 221.453 230.603 221.132C230.966 220.816 231.119 220.429 231.178 220.166C231.237 219.897 231.222 219.737 231.25 219.733Z" fill="#263238"/>
<path d="M230.322 241.71C230.34 241.706 230.402 241.863 230.383 242.162C230.361 242.454 230.232 242.9 229.842 243.287C229.478 243.677 228.752 243.957 228.047 243.695C227.701 243.577 227.371 243.352 227.124 243.034C226.875 242.718 226.738 242.285 226.751 241.868C226.758 241.333 226.922 240.821 227.23 240.422C227.384 240.224 227.584 240.059 227.811 239.963C228.049 239.874 228.222 239.833 228.419 239.77L228.443 239.762L228.465 239.762C228.916 239.774 229.353 239.871 229.666 240.108C229.983 240.337 230.141 240.651 230.222 240.899C230.374 241.408 230.344 241.707 230.322 241.71C230.281 241.719 230.245 241.418 230.056 240.964C229.957 240.742 229.797 240.485 229.524 240.313C229.256 240.132 228.877 240.062 228.464 240.065L228.509 240.058C228.329 240.121 228.101 240.19 227.938 240.257C227.77 240.333 227.616 240.462 227.492 240.627C227.244 240.957 227.098 241.411 227.094 241.87C227.059 242.599 227.574 243.187 228.153 243.396C228.737 243.627 229.327 243.429 229.675 243.109C230.038 242.793 230.191 242.405 230.25 242.142C230.308 241.873 230.294 241.713 230.322 241.71Z" fill="#263238"/>
<path d="M283.182 146.677C283.147 146.736 282.326 146.209 280.873 145.651C280.15 145.366 279.258 145.109 278.253 144.903C277.245 144.718 276.121 144.598 274.937 144.606C273.753 144.63 272.632 144.783 271.629 144.995C270.63 145.228 269.746 145.51 269.031 145.815C267.594 146.413 266.787 146.962 266.751 146.905C266.738 146.885 266.932 146.739 267.297 146.492C267.478 146.365 267.705 146.218 267.984 146.074C268.26 145.927 268.568 145.74 268.934 145.591C269.648 145.252 270.542 144.94 271.557 144.685C272.577 144.45 273.722 144.285 274.932 144.261C276.142 144.252 277.29 144.386 278.316 144.592C279.338 144.819 280.24 145.106 280.964 145.425C281.334 145.565 281.646 145.742 281.927 145.882C282.209 146.018 282.44 146.158 282.624 146.281C282.996 146.517 283.195 146.657 283.182 146.677Z" fill="#263238"/>
<g opacity="0.3">
<path d="M228.649 204.814C231.346 200.881 232.336 197.172 233.776 192.623C235.918 185.864 236.515 178.227 239.875 171.985C241.854 168.31 244.18 164.539 247.621 162.182C250.976 159.883 251.473 156.961 251.407 149.057C253.806 149.081 256.342 147.228 256.643 146.903C258.277 145.143 259.459 142.349 259.584 141.379C257.902 143.212 255.097 146.254 255.097 146.254C255.097 146.254 249.013 147.387 249.103 147.348C248.953 150.389 248.948 153.056 248.798 156.096C248.798 156.096 237.128 168.506 236.22 171C235.311 173.496 228.649 204.814 228.649 204.814Z" fill="black"/>
</g>
<g opacity="0.3">
<path d="M271.977 282.287C286.767 254.232 291.363 217.345 290.483 182.207C290.483 182.207 286.238 224.915 284.807 232.247C283.386 239.527 271.977 282.287 271.977 282.287Z" fill="black"/>
</g>
<path d="M274.235 125.778C274.241 125.788 274.127 125.876 273.903 126.032C273.648 126.206 273.321 126.428 272.917 126.702C272.017 127.296 270.776 128.113 269.258 129.113C266.118 131.141 261.842 133.902 257.118 136.954C255.289 138.122 253.527 139.248 251.879 140.301L251.891 140.293C251.319 140.737 250.76 141.17 250.218 141.59C249.662 141.999 249.185 142.415 248.724 142.869C247.807 143.757 246.991 144.62 246.257 145.403L246.124 145.545L246.048 145.369C245.255 143.532 244.607 142.03 244.138 140.944C243.932 140.447 243.765 140.045 243.635 139.733C243.524 139.454 243.471 139.305 243.482 139.3C243.493 139.295 243.569 139.434 243.702 139.703C243.848 140.008 244.034 140.4 244.266 140.887C244.761 141.962 245.444 143.448 246.28 145.266L246.071 145.232C246.794 144.435 247.601 143.56 248.516 142.656C248.962 142.205 249.485 141.744 250.03 141.337C250.568 140.914 251.121 140.479 251.689 140.033L251.695 140.028L251.701 140.024C253.347 138.967 255.106 137.836 256.932 136.662C261.678 133.643 265.974 130.911 269.129 128.905C270.67 127.943 271.931 127.158 272.847 126.588C273.264 126.336 273.602 126.132 273.867 125.973C274.102 125.835 274.229 125.768 274.235 125.778Z" fill="#263238"/>
</g>
<defs>
<clipPath id="clip0_2001_9877">
<rect width="249" height="251" fill="white" transform="translate(49 39)"/>
</clipPath>
</defs>
</svg>
