<svg width="348" height="348" viewBox="0 0 348 348" fill="none" xmlns="http://www.w3.org/2000/svg">
<g opacity="0.6">
<g opacity="0.05">
<path d="M25.0385 174C25.0385 91.8641 91.8635 25.0391 173.999 25.0391C256.14 25.0391 322.971 91.8589 322.971 174C322.971 256.141 256.146 322.966 174.005 322.966C91.8635 322.966 25.0385 256.136 25.0385 174Z" fill="#F5FDF0" stroke="#9FE870"/>
</g>
<g opacity="0.05">
<path d="M52.5195 174C52.5195 107.016 107.015 52.5205 173.999 52.5205C240.983 52.5205 295.479 107.016 295.479 174C295.479 240.984 240.983 295.48 173.999 295.48C107.015 295.48 52.5195 240.984 52.5195 174Z" fill="#F5FDF0" stroke="#9FE870"/>
</g>
<g opacity="0.05">
<path d="M76.0162 174C76.0162 119.974 119.968 76.0166 173.999 76.0166C228.025 76.0166 271.983 119.974 271.983 174C271.983 228.025 228.025 271.983 173.999 271.983C119.974 271.983 76.0162 228.025 76.0162 174Z" fill="#F5FDF0" stroke="#9FE870"/>
</g>
<g opacity="0.1">
<path d="M99.5442 174C99.5442 132.949 132.943 99.5449 173.999 99.5449C215.051 99.5449 248.454 132.949 248.454 174C248.454 215.051 215.051 248.455 173.999 248.455C132.948 248.455 99.5442 215.051 99.5442 174Z" fill="#F5FDF0" stroke="#9FE870"/>
</g>
<g opacity="0.15">
<path d="M122.491 174C122.491 145.601 145.6 122.492 173.999 122.492C202.399 122.492 225.508 145.601 225.508 174C225.508 202.4 202.399 225.509 173.999 225.509C145.6 225.509 122.491 202.4 122.491 174Z" fill="#F5FDF0" stroke="#9FE870"/>
</g>
<path opacity="0.1" d="M261 261C309.049 212.951 309.049 135.049 261 87C212.951 38.9512 135.049 38.9512 87 87C38.9512 135.049 38.9512 212.951 87 261C135.049 309.049 212.951 309.049 261 261Z" fill="#F5FDF0" stroke="#9FE870" stroke-width="4" stroke-linecap="round" stroke-linejoin="round"/>
<path opacity="0.1" d="M244.946 244.946C284.129 205.764 284.129 142.236 244.946 103.054C205.764 63.8715 142.237 63.8715 103.054 103.054C63.8717 142.236 63.8717 205.764 103.054 244.946C142.237 284.128 205.764 284.128 244.946 244.946Z" fill="#F5FDF0" stroke="#9FE870" stroke-width="7" stroke-linecap="round" stroke-linejoin="round"/>
<path opacity="0.15" d="M173.999 251.597C216.855 251.597 251.597 216.856 251.597 174C251.597 131.144 216.855 96.4023 173.999 96.4023C131.144 96.4023 96.402 131.144 96.402 174C96.402 216.856 131.144 251.597 173.999 251.597Z" fill="#F5FDF0" stroke="#9FE870" stroke-width="10" stroke-linecap="round" stroke-linejoin="round"/>
<path opacity="0.2" d="M173.999 229.443C204.62 229.443 229.443 204.62 229.443 174C229.443 143.379 204.62 118.557 173.999 118.557C143.379 118.557 118.556 143.379 118.556 174C118.556 204.62 143.379 229.443 173.999 229.443Z" fill="#F5FDF0" stroke="#9FE870" stroke-width="13" stroke-linecap="round" stroke-linejoin="round"/>
<path opacity="0.1" d="M173.999 324.544C257.142 324.544 324.543 257.144 324.543 174C324.543 90.857 257.142 23.4561 173.999 23.4561C90.8559 23.4561 23.455 90.857 23.455 174C23.455 257.144 90.8559 324.544 173.999 324.544Z" fill="#F5FDF0" stroke="#9FE870" stroke-width="4" stroke-linecap="round" stroke-linejoin="round"/>
</g>
<g clip-path="url(#clip0_5901_7063)">
<path d="M177.285 183.07C177.611 182.438 178.373 182.063 179.074 182.189C179.895 181.537 181.179 181.557 181.978 182.234C182.598 181.866 183.412 181.847 184.047 182.188C184.682 182.528 185.116 183.215 185.149 183.933C185.87 183.816 186.645 184.203 186.983 184.848C187.322 185.493 187.198 186.348 186.69 186.872C187.476 187.123 187.994 188.016 187.823 188.82C187.651 189.625 186.812 190.229 185.991 190.14L177.606 185.031C177.096 184.537 176.959 183.701 177.285 183.07Z" fill="#263238"/>
<path d="M186.237 190.375C185.925 186.675 182.814 183.834 179.089 183.847L178.719 183.848C174.728 184.094 173.481 187.761 173.838 191.73L174.24 206.488L180.599 211.93L182.467 207.855L182.916 203.9C182.916 203.9 186.751 203.293 186.786 199.469C186.803 197.622 186.527 193.817 186.237 190.375Z" fill="#FFBF9D"/>
<path d="M182.948 203.895C182.948 203.895 180.499 204.05 177.916 202.445C177.916 202.445 178.971 205.299 182.798 204.942L182.948 203.895Z" fill="#FFAE83"/>
<path d="M185.137 193.919C185.148 194.208 184.912 194.455 184.61 194.472C184.309 194.49 184.055 194.27 184.044 193.982C184.033 193.693 184.268 193.446 184.569 193.429C184.872 193.411 185.126 193.631 185.137 193.919Z" fill="#263238"/>
<path d="M185.462 192.443C185.394 192.515 184.978 192.209 184.389 192.213C183.8 192.208 183.368 192.512 183.304 192.44C183.273 192.408 183.341 192.279 183.529 192.142C183.714 192.005 184.03 191.872 184.397 191.872C184.764 191.873 185.074 192.007 185.251 192.144C185.434 192.282 185.495 192.411 185.462 192.443Z" fill="#263238"/>
<path d="M180.085 194.188C180.096 194.477 179.86 194.724 179.558 194.741C179.257 194.758 179.003 194.539 178.992 194.25C178.981 193.962 179.216 193.715 179.518 193.697C179.82 193.68 180.074 193.9 180.085 194.188Z" fill="#263238"/>
<path d="M179.821 192.38C179.753 192.452 179.337 192.147 178.748 192.15C178.159 192.145 177.727 192.449 177.663 192.377C177.631 192.346 177.699 192.217 177.888 192.08C178.073 191.943 178.389 191.81 178.756 191.81C179.124 191.811 179.433 191.944 179.611 192.082C179.792 192.219 179.854 192.348 179.821 192.38Z" fill="#263238"/>
<path d="M181.778 196.728C181.775 196.694 182.141 196.63 182.735 196.552C182.886 196.537 183.028 196.506 183.053 196.404C183.088 196.295 183.024 196.134 182.951 195.959C182.808 195.597 182.659 195.217 182.502 194.819C181.878 193.194 181.426 191.858 181.492 191.833C181.558 191.809 182.117 193.106 182.74 194.731C182.891 195.131 183.034 195.513 183.171 195.878C183.228 196.049 183.327 196.242 183.25 196.467C183.21 196.579 183.1 196.661 183.004 196.687C182.908 196.717 182.823 196.719 182.748 196.723C182.151 196.758 181.781 196.761 181.778 196.728Z" fill="#263238"/>
<path d="M180.044 197.141C180.139 197.135 180.143 197.773 180.692 198.223C181.24 198.676 181.922 198.602 181.928 198.691C181.937 198.731 181.777 198.815 181.488 198.824C181.206 198.835 180.793 198.745 180.457 198.47C180.122 198.193 179.977 197.823 179.954 197.562C179.929 197.295 180 197.137 180.044 197.141Z" fill="#263238"/>
<path d="M179.823 190.701C179.754 190.854 179.246 190.719 178.629 190.731C178.011 190.729 177.498 190.873 177.434 190.721C177.406 190.648 177.509 190.509 177.725 190.378C177.939 190.248 178.27 190.138 178.64 190.135C179.009 190.132 179.336 190.236 179.545 190.363C179.757 190.49 179.854 190.628 179.823 190.701Z" fill="#263238"/>
<path d="M185.323 190.832C185.231 190.973 184.815 190.87 184.327 190.905C183.839 190.923 183.437 191.071 183.33 190.94C183.282 190.876 183.336 190.737 183.505 190.596C183.672 190.455 183.96 190.327 184.295 190.309C184.63 190.291 184.93 190.386 185.111 190.509C185.295 190.631 185.363 190.763 185.323 190.832Z" fill="#263238"/>
<path d="M185.862 188.622C185.862 188.622 184.842 186.231 183.682 185.676C182.277 185.004 181.678 186.54 180.34 186.172C179.002 185.804 177.662 185.16 176.299 186.194C174.807 187.326 175.51 188.115 175.424 189.812C175.072 196.692 173.819 198.641 173.449 195.403C173.408 195.048 172.419 194.769 172.267 193.269C172.071 191.325 171.988 188.964 172.419 187.582C172.782 186.418 173.445 185.612 174.635 184.722C176.514 183.317 179.102 183.278 180.859 183.448C182.618 183.619 186.012 185.623 185.862 188.622Z" fill="#263238"/>
<path d="M174.18 195.296C174.154 194.706 173.642 194.242 173.052 194.3C172.337 194.37 171.542 194.778 171.594 196.251C171.687 198.865 174.301 198.234 174.303 198.158C174.304 198.107 174.228 196.39 174.18 195.296Z" fill="#FFBF9D"/>
<path d="M173.697 197.195C173.685 197.187 173.652 197.229 173.576 197.267C173.503 197.304 173.374 197.332 173.235 197.286C172.955 197.194 172.705 196.764 172.676 196.293C172.661 196.056 172.703 195.827 172.781 195.637C172.854 195.443 172.973 195.305 173.112 195.275C173.25 195.238 173.352 195.318 173.386 195.39C173.424 195.462 173.409 195.515 173.423 195.519C173.431 195.525 173.478 195.473 173.453 195.366C173.44 195.314 173.408 195.253 173.344 195.205C173.279 195.156 173.186 195.134 173.089 195.148C172.887 195.168 172.711 195.36 172.626 195.569C172.529 195.78 172.476 196.037 172.493 196.303C172.528 196.83 172.816 197.313 173.199 197.409C173.385 197.45 173.537 197.389 173.614 197.325C173.695 197.258 173.706 197.2 173.697 197.195Z" fill="#7D966A"/>
<path d="M173.728 190.233C174.069 190.463 174.43 190.701 174.84 190.74C175.251 190.779 175.72 190.543 175.788 190.137C175.818 189.955 175.773 189.744 175.893 189.603C176.035 189.435 176.3 189.486 176.519 189.509C177.283 189.587 178.062 189.047 178.253 188.307C178.449 188.597 178.903 188.582 179.197 188.392C179.49 188.203 179.679 187.892 179.908 187.628C180.138 187.365 180.46 187.128 180.807 187.176C181.001 187.203 181.183 187.317 181.378 187.299C181.723 187.268 181.889 186.865 181.94 186.524C181.991 186.184 182.031 185.786 182.321 185.6C182.591 185.427 182.942 185.525 183.259 185.57C183.576 185.616 183.985 185.54 184.066 185.231C184.108 185.069 184.037 184.898 183.947 184.757C183.536 184.118 182.645 183.836 181.94 184.123C181.68 183.26 180.867 182.591 179.968 182.499C179.069 182.408 178.137 182.9 177.708 183.693C177.152 183.193 176.346 182.985 175.616 183.154C174.887 183.322 174.255 183.862 173.975 184.554C173.337 184.389 172.61 184.637 172.208 185.158C171.805 185.679 171.75 186.443 172.074 187.016C171.603 187.286 171.201 187.754 171.194 188.295C171.186 188.837 171.716 189.374 172.24 189.23C172.03 189.652 172.204 190.223 172.614 190.457C173.024 190.691 173.607 190.552 173.865 190.157" fill="#263238"/>
<path d="M172.046 189.225C172.037 189.218 171.999 189.445 172.211 189.727C172.317 189.861 172.496 190 172.738 190.037C172.974 190.076 173.264 190.017 173.485 189.818L173.374 189.802C173.505 190.026 173.677 190.255 173.9 190.452C174.043 190.578 174.203 190.684 174.379 190.747C174.551 190.814 174.747 190.82 174.907 190.794C175.239 190.756 175.529 190.577 175.662 190.358C175.802 190.145 175.845 189.946 175.873 189.814C175.899 189.68 175.902 189.605 175.893 189.603C175.881 189.6 175.859 189.672 175.816 189.799C175.772 189.924 175.712 190.112 175.576 190.297C175.328 190.673 174.519 190.867 173.999 190.339C173.792 190.157 173.626 189.94 173.498 189.73L173.452 189.653L173.388 189.714C173.208 189.882 172.96 189.942 172.756 189.917C172.548 189.893 172.385 189.783 172.28 189.669C172.068 189.432 172.069 189.218 172.046 189.225Z" fill="#455A64"/>
<path d="M176.982 183.238C176.981 183.247 177.051 183.256 177.168 183.306C177.282 183.355 177.452 183.453 177.577 183.649L177.608 183.699L177.644 183.651C177.888 183.323 178.298 182.9 178.909 182.623C179.212 182.488 179.565 182.394 179.941 182.394C180.314 182.391 180.706 182.497 181.053 182.706C181.322 182.869 181.549 183.086 181.716 183.329C181.879 183.575 181.979 183.848 182.007 184.116L182.015 184.199L182.095 184.177C182.488 184.067 182.89 184.143 183.185 184.305C183.485 184.468 183.676 184.717 183.784 184.94C183.997 185.399 183.923 185.718 183.95 185.714C183.956 185.715 183.977 185.642 183.981 185.501C183.983 185.361 183.965 185.149 183.861 184.906C183.758 184.666 183.563 184.39 183.243 184.204C182.928 184.02 182.494 183.928 182.057 184.043L182.145 184.103C182.119 183.811 182.013 183.512 181.838 183.247C181.66 182.984 181.418 182.751 181.13 182.578C180.761 182.354 180.338 182.241 179.939 182.248C179.539 182.252 179.168 182.357 178.853 182.504C178.219 182.804 177.81 183.255 177.576 183.604L177.644 183.605C177.496 183.395 177.307 183.305 177.182 183.265C177.055 183.227 176.982 183.233 176.982 183.238Z" fill="#455A64"/>
<path d="M173.965 202.276L173.662 204.249L184.724 209.931L183.999 206.734C183.999 206.734 182.465 205.35 180.581 204.449C177.435 202.944 173.965 202.276 173.965 202.276Z" fill="#F5F5F5"/>
<path d="M172.075 205.367C172.075 205.367 169.268 212.688 169.239 215.389C169.21 218.091 170.795 225.406 170.795 225.406L178.732 240.407L180.129 251.483C185.4 251.506 192.456 250.46 200.042 249.097C200.042 249.097 194.234 228.352 192.403 225.564C190.572 222.775 184.144 209.997 184.144 209.997C184.144 209.997 183.614 208.66 182.014 207.222C179.79 205.224 175.704 204.199 172.062 203.764L172.075 205.367Z" fill="#9FE870"/>
<path d="M175.1 208.45C177.368 208.373 180.489 209.61 182.079 213.343L183.771 217.997L190.06 226.945L206.563 225.87L207.584 232.633C207.584 232.633 189.6 236.582 187.492 236.361C185.384 236.14 175.177 225.588 175.177 225.588C175.177 225.588 169.876 219.032 170.137 213.571" fill="#9FE870"/>
<path d="M170.136 213.571C170.141 213.572 170.147 213.65 170.154 213.802C170.159 213.967 170.167 214.191 170.177 214.479C170.19 214.775 170.259 215.139 170.31 215.572C170.404 215.997 170.486 216.496 170.66 217.038C171.28 219.218 172.734 222.259 175.256 225.526L175.25 225.52C176.803 227.103 178.552 228.841 180.491 230.676C181.462 231.592 182.479 232.535 183.561 233.473C184.102 233.942 184.658 234.411 185.239 234.865C185.82 235.312 186.426 235.769 187.087 236.093C187.26 236.163 187.41 236.232 187.592 236.227C187.778 236.22 187.959 236.231 188.15 236.212C188.532 236.17 188.917 236.141 189.303 236.079C190.078 235.975 190.861 235.842 191.652 235.709C193.233 235.434 194.847 235.123 196.491 234.802C199.778 234.15 203.184 233.438 206.67 232.684L207.552 232.492L207.438 232.656C207.092 230.356 206.751 228.096 206.419 225.893L206.573 226.016C200.643 226.396 195.076 226.753 190.068 227.074L189.996 227.078L189.954 227.019C187.634 223.702 185.527 220.689 183.686 218.057L183.678 218.046L183.674 218.033C183.307 217.016 182.959 216.046 182.629 215.13C182.289 214.219 182.029 213.329 181.62 212.586C180.834 211.066 179.702 210.04 178.669 209.437C177.628 208.824 176.69 208.621 176.067 208.528C175.752 208.489 175.509 208.468 175.347 208.467C175.183 208.462 175.099 208.457 175.099 208.452C175.099 208.452 175.435 208.407 176.074 208.471C176.705 208.546 177.66 208.732 178.726 209.34C179.784 209.937 180.95 210.972 181.764 212.51C182.192 213.274 182.455 214.155 182.803 215.065C183.139 215.98 183.495 216.948 183.868 217.965L183.856 217.941C185.709 220.565 187.83 223.567 190.166 226.874L190.052 226.82C195.059 226.489 200.625 226.12 206.554 225.727L206.688 225.718L206.708 225.851C207.041 228.054 207.383 230.313 207.731 232.613L207.751 232.749L207.616 232.778L206.733 232.97C203.245 233.724 199.838 234.435 196.548 235.083C194.902 235.403 193.286 235.711 191.7 235.984C190.906 236.116 190.122 236.248 189.341 236.351C188.953 236.412 188.559 236.441 188.17 236.483C187.976 236.502 187.77 236.492 187.571 236.496C187.365 236.5 187.151 236.413 186.975 236.337C186.265 235.987 185.665 235.526 185.076 235.071C184.491 234.611 183.934 234.138 183.392 233.666C182.309 232.72 181.294 231.772 180.325 230.85C178.391 229.003 176.651 227.255 175.105 225.659L175.101 225.655L175.099 225.652C172.578 222.343 171.148 219.277 170.554 217.069C170.388 216.521 170.314 216.016 170.228 215.587C170.185 215.15 170.125 214.783 170.12 214.483C170.122 214.195 170.124 213.97 170.125 213.803C170.127 213.649 170.131 213.571 170.136 213.571Z" fill="#263238"/>
<path d="M185.625 210.493C185.616 210.501 185.474 210.372 185.224 210.134C185.099 210.014 184.948 209.867 184.759 209.709C184.573 209.55 184.371 209.357 184.124 209.171C183.647 208.779 183.049 208.351 182.358 207.917C181.661 207.492 180.868 207.069 180.004 206.69C178.271 205.938 176.605 205.508 175.394 205.247C174.788 205.118 174.294 205.023 173.952 204.965C173.61 204.904 173.421 204.865 173.423 204.854C173.424 204.843 173.616 204.861 173.961 204.902C174.307 204.941 174.805 205.019 175.417 205.134C176.639 205.367 178.322 205.783 180.07 206.541C180.941 206.923 181.74 207.355 182.439 207.79C183.131 208.236 183.728 208.677 184.198 209.083C184.442 209.276 184.64 209.477 184.822 209.643C185.005 209.808 185.151 209.962 185.269 210.089C185.506 210.342 185.633 210.485 185.625 210.493Z" fill="#263238"/>
<path d="M198.545 194.772L196.975 199.352L196.425 200.121C196.425 200.121 195.947 202.667 195.917 203.212C195.886 203.756 196.599 206.604 196.599 206.604L195.003 209.137L199.422 210.817C199.422 210.817 200.619 208.503 200.952 208.241C201.285 207.979 201.525 207.229 201.604 206.722C201.682 206.215 202.344 203.21 202.344 203.21C202.344 203.21 204.303 199.894 203.485 199.726C203.299 199.688 202.872 199.738 202.872 199.738C202.872 199.738 201.692 201.919 201.377 201.965L200.93 201.707C200.93 201.707 201.851 198.371 201.898 197.746C201.946 197.122 201.815 196.683 201.33 196.61C201.33 196.61 200.966 196.756 200.933 196.915C200.9 197.073 199.981 200.796 199.773 200.726C199.565 200.655 199.664 200.318 199.664 200.318C199.664 200.318 200.887 195.803 200.83 195.544C200.773 195.284 200.552 194.88 200.098 194.925L199.162 197.405C199.162 197.405 199.598 195.318 199.26 194.945C198.921 194.573 198.545 194.772 198.545 194.772Z" fill="#FFBF9D"/>
<path d="M199.481 204.909C199.444 204.91 199.469 204.519 199.321 203.897C199.17 203.289 198.767 202.42 197.949 201.79L197.888 201.743L197.904 201.675C197.981 201.343 198.062 200.996 198.144 200.638L198.149 200.616L198.164 200.596C198.241 200.489 198.321 200.362 198.394 200.236C198.644 199.805 198.83 199.354 198.904 198.916C198.938 198.698 198.949 198.48 198.895 198.298C198.85 198.114 198.703 197.981 198.56 197.96L198.634 197.932C198.106 198.433 197.663 198.845 197.349 199.128C197.034 199.411 196.849 199.565 196.834 199.55C196.82 199.535 196.978 199.354 197.269 199.047C197.56 198.74 197.983 198.308 198.497 197.793L198.529 197.761L198.572 197.765C198.833 197.792 199.03 198.001 199.097 198.236C199.17 198.469 199.158 198.712 199.124 198.95C199.05 199.427 198.856 199.901 198.596 200.351C198.517 200.485 198.438 200.612 198.35 200.732L198.369 200.69C198.284 201.048 198.2 201.394 198.12 201.725L198.076 201.61C198.957 202.308 199.334 203.226 199.457 203.868C199.516 204.194 199.526 204.457 199.516 204.636C199.507 204.814 199.495 204.91 199.481 204.909Z" fill="#FFAE83"/>
<path d="M199.48 201.203C199.5 201.146 200.172 201.34 200.884 201.809C201.598 202.275 202.042 202.811 201.997 202.851C201.948 202.898 201.446 202.451 200.755 202.002C200.068 201.548 199.455 201.265 199.48 201.203Z" fill="#FFAE83"/>
<path d="M201.286 210.423L194.628 207.602L190.906 213.441L199.345 214.134L201.286 210.423Z" fill="#9FE870"/>
<path d="M141.354 197.627L139.924 201.798L139.423 202.498C139.423 202.498 138.988 204.817 138.96 205.313C138.932 205.809 139.582 208.402 139.582 208.402L138.129 210.708L142.152 212.238C142.152 212.238 143.242 210.132 143.546 209.893C143.849 209.654 144.068 208.971 144.139 208.509C144.211 208.048 144.813 205.312 144.813 205.312C144.813 205.312 146.597 202.292 145.853 202.138C145.682 202.103 145.294 202.149 145.294 202.149C145.294 202.149 144.22 204.135 143.933 204.177L143.526 203.943C143.526 203.943 144.364 200.904 144.407 200.336C144.45 199.768 144.331 199.367 143.89 199.302C143.89 199.302 143.558 199.434 143.528 199.579C143.497 199.723 142.661 203.113 142.472 203.049C142.283 202.986 142.373 202.678 142.373 202.678C142.373 202.678 143.487 198.567 143.435 198.331C143.383 198.094 143.181 197.727 142.768 197.767L141.916 200.026C141.916 200.026 142.313 198.126 142.005 197.786C141.696 197.446 141.354 197.627 141.354 197.627Z" fill="#AE7461"/>
<path d="M142.206 206.859C142.172 206.859 142.195 206.504 142.06 205.937C141.923 205.384 141.556 204.592 140.811 204.018L140.756 203.976L140.771 203.913C140.84 203.611 140.914 203.295 140.989 202.968L140.994 202.949L141.007 202.93C141.077 202.833 141.149 202.718 141.217 202.602C141.444 202.21 141.614 201.8 141.68 201.4C141.712 201.202 141.722 201.004 141.672 200.837C141.631 200.67 141.497 200.549 141.367 200.529L141.435 200.504C140.954 200.96 140.551 201.335 140.264 201.593C139.978 201.851 139.809 201.991 139.796 201.978C139.783 201.964 139.927 201.799 140.192 201.52C140.457 201.24 140.842 200.847 141.31 200.378L141.34 200.349L141.378 200.353C141.616 200.377 141.796 200.568 141.857 200.781C141.923 200.994 141.912 201.215 141.881 201.431C141.814 201.866 141.637 202.298 141.4 202.707C141.329 202.829 141.257 202.944 141.177 203.054L141.195 203.016C141.116 203.341 141.041 203.657 140.968 203.958L140.927 203.854C141.729 204.489 142.073 205.325 142.184 205.91C142.239 206.206 142.248 206.447 142.239 206.609C142.229 206.772 142.218 206.859 142.206 206.859Z" fill="#6F4439"/>
<path d="M142.205 203.483C142.223 203.431 142.834 203.609 143.483 204.035C144.134 204.459 144.538 204.948 144.497 204.984C144.453 205.027 143.995 204.619 143.366 204.21C142.741 203.797 142.183 203.54 142.205 203.483Z" fill="#6F4439"/>
<path d="M120.894 188.621C121.669 187.723 121.432 186.255 120.606 185.403C119.781 184.551 118.532 184.226 117.341 184.2C115.497 184.159 113.532 184.846 112.513 186.37C111.495 187.893 111.818 190.292 113.447 191.149C112.653 191.373 111.817 191.62 111.255 192.22C110.694 192.819 110.56 193.891 111.201 194.406C111.932 194.992 113.006 194.503 113.801 194.006C113.307 194.474 113.392 195.349 113.876 195.828C114.36 196.306 115.119 196.427 115.787 196.285C116.455 196.143 117.051 195.777 117.612 195.389" fill="#263238"/>
<path d="M118.134 189.455C118.387 188.993 118.646 188.525 119.028 188.161C119.41 187.798 119.941 187.55 120.464 187.63C120.711 187.668 120.964 187.797 121.055 188.027C121.145 188.257 120.98 188.575 120.731 188.563L120.68 188.61C120.144 189.114 119.598 189.607 119.043 190.089C118.904 190.21 118.758 190.334 118.583 190.394C118.407 190.454 118.191 190.436 118.063 190.303C117.851 190.082 117.987 189.722 118.134 189.455Z" fill="#9FE870"/>
<path d="M117.154 191.287C118.916 188.995 121.341 187.627 124.244 187.479C125.882 187.395 126.572 187.709 127.763 187.984C128.954 188.258 130.041 188.849 130.78 189.815C131.658 190.962 132.407 192.255 132.615 193.679C132.829 195.143 133.044 196.616 132.984 198.094C132.924 199.572 132.572 201.07 131.739 202.296L127.978 203.079C125.89 203.222 122.816 205.906 120.764 205.503C118.711 205.101 116.77 201.849 116.088 199.8C115.176 197.065 115.393 193.579 117.154 191.287Z" fill="#263238"/>
<path d="M128.227 209.735C128.155 208.42 128.052 206.772 128.053 206.778C128.053 206.778 131.127 206.334 131.841 202.386C132.197 200.423 132.162 197.191 132.047 194.548C131.943 192.168 129.784 188.999 126.819 189.091L125.496 188.984L120.521 191.146C119.794 191.208 119.235 191.811 119.235 192.534L119.755 210.285L123.072 215.011L128.244 211.74L128.227 209.735Z" fill="#AE7461"/>
<path d="M125.876 201.674C125.896 201.466 126.006 201.279 126.149 201.149C126.436 200.888 126.867 200.849 127.191 201.054C127.515 201.259 127.711 201.696 127.667 202.111C127.497 202.359 127.232 202.531 126.932 202.568C126.885 202.573 126.839 202.577 126.791 202.577C126.563 202.579 126.328 202.511 126.148 202.35C125.969 202.19 125.851 201.93 125.876 201.674Z" fill="#6F4439"/>
<path d="M131.127 197.497C131.131 197.766 130.905 197.991 130.622 198C130.34 198.009 130.107 197.8 130.103 197.532C130.099 197.263 130.325 197.038 130.607 197.029C130.89 197.019 131.123 197.228 131.127 197.497Z" fill="#263238"/>
<path d="M131.19 195.9C131.125 195.965 130.742 195.672 130.19 195.663C129.639 195.646 129.229 195.919 129.171 195.851C129.142 195.821 129.209 195.703 129.388 195.579C129.564 195.455 129.863 195.338 130.206 195.346C130.549 195.355 130.836 195.486 130.999 195.618C131.166 195.75 131.221 195.871 131.19 195.9Z" fill="#263238"/>
<path d="M127.802 200.301C127.8 200.27 128.144 200.218 128.701 200.159C128.842 200.147 128.976 200.122 129.002 200.027C129.037 199.927 128.981 199.776 128.916 199.612C128.79 199.272 128.659 198.915 128.52 198.541C127.972 197.016 127.579 195.763 127.641 195.742C127.703 195.721 128.198 196.94 128.746 198.464C128.878 198.84 129.004 199.198 129.123 199.541C129.173 199.701 129.262 199.882 129.185 200.091C129.145 200.194 129.041 200.268 128.95 200.29C128.859 200.316 128.78 200.316 128.71 200.319C128.151 200.337 127.803 200.333 127.802 200.301Z" fill="#263238"/>
<path d="M128.053 206.778C128.053 206.778 125.361 206.896 122.729 205.257C122.729 205.257 124.099 208.03 128.108 207.739L128.053 206.778Z" fill="#6F4439"/>
<path d="M126.171 200.648C126.261 200.644 126.25 201.238 126.754 201.669C127.257 202.102 127.896 202.048 127.899 202.13C127.907 202.168 127.755 202.243 127.486 202.245C127.221 202.248 126.837 202.156 126.528 201.893C126.221 201.628 126.093 201.281 126.078 201.037C126.06 200.789 126.13 200.643 126.171 200.648Z" fill="#263238"/>
<path d="M131.1 194.811C131.004 194.943 130.584 194.845 130.09 194.876C129.594 194.891 129.184 195.028 129.078 194.905C129.03 194.845 129.087 194.716 129.261 194.586C129.432 194.455 129.726 194.337 130.066 194.321C130.406 194.306 130.709 194.396 130.89 194.509C131.074 194.624 131.142 194.747 131.1 194.811Z" fill="#263238"/>
<path d="M124.93 197.601C124.925 197.87 125.151 198.096 125.434 198.105C125.716 198.116 125.949 197.907 125.954 197.639C125.959 197.37 125.734 197.145 125.452 197.134C125.168 197.124 124.935 197.333 124.93 197.601Z" fill="#263238"/>
<path d="M123.731 195.947C123.796 196.012 124.179 195.72 124.731 195.712C125.282 195.697 125.691 195.971 125.75 195.903C125.779 195.873 125.712 195.754 125.534 195.63C125.358 195.507 125.06 195.388 124.716 195.396C124.373 195.404 124.086 195.534 123.922 195.665C123.754 195.797 123.699 195.918 123.731 195.947Z" fill="#263238"/>
<path d="M124 194.188C124.111 194.31 124.534 194.174 125.046 194.159C125.557 194.128 125.993 194.226 126.09 194.094C126.133 194.031 126.062 193.907 125.871 193.793C125.682 193.679 125.368 193.589 125.017 193.604C124.666 193.621 124.363 193.738 124.187 193.868C124.008 193.999 123.951 194.128 124 194.188Z" fill="#263238"/>
<path d="M120.153 199.153C120.158 198.858 119.828 198.156 119.536 198.104C118.753 197.967 117.337 198.002 117.284 199.977C117.211 202.677 119.962 202.192 119.969 202.115C119.974 202.055 120.135 200.171 120.153 199.153Z" fill="#AE7461"/>
<path d="M119.243 201.11C119.231 201.101 119.195 201.141 119.114 201.176C119.034 201.209 118.899 201.23 118.758 201.174C118.473 201.062 118.243 200.603 118.243 200.116C118.242 199.87 118.301 199.637 118.393 199.445C118.482 199.25 118.615 199.116 118.76 199.094C118.906 199.065 119.006 199.153 119.037 199.23C119.071 199.306 119.052 199.36 119.067 199.365C119.074 199.372 119.127 199.321 119.108 199.209C119.098 199.155 119.068 199.09 119.005 199.037C118.941 198.983 118.846 198.953 118.744 198.961C118.534 198.97 118.34 199.157 118.237 199.367C118.123 199.577 118.052 199.839 118.053 200.115C118.056 200.66 118.323 201.176 118.714 201.3C118.904 201.354 119.066 201.301 119.15 201.239C119.237 201.175 119.253 201.115 119.243 201.11Z" fill="#6F4439"/>
<path d="M119.424 198.117L120.14 198.803C123.024 195.87 128.604 188.584 128.294 189.017C128.294 189.017 126.221 188.255 124.016 188.706C121.811 189.157 117.642 190.403 117.797 192.994C117.954 195.584 119.424 198.117 119.424 198.117Z" fill="#263238"/>
<path d="M115.453 197.658C115.448 197.657 115.461 197.603 115.489 197.501C115.518 197.399 115.571 197.251 115.66 197.07C115.836 196.709 116.181 196.215 116.751 195.763C117.312 195.3 118.1 194.91 119.001 194.594C119.9 194.269 120.917 194.005 121.908 193.542C122.907 193.095 123.791 192.532 124.542 191.958C125.29 191.379 125.904 190.783 126.38 190.25C126.856 189.716 127.2 189.249 127.431 188.923C127.537 188.767 127.623 188.641 127.691 188.542C127.751 188.455 127.785 188.411 127.789 188.413C127.793 188.416 127.767 188.465 127.715 188.557C127.661 188.648 127.586 188.784 127.476 188.953C127.258 189.29 126.925 189.768 126.454 190.314C125.984 190.859 125.372 191.468 124.621 192.059C123.867 192.644 122.975 193.216 121.966 193.668C120.961 194.137 119.937 194.397 119.043 194.714C118.146 195.022 117.37 195.395 116.811 195.84C116.244 196.274 115.895 196.747 115.706 197.095C115.52 197.445 115.467 197.663 115.453 197.658Z" fill="#455A64"/>
<path d="M116.259 198.055C116.259 198.055 116.224 197.836 116.344 197.463C116.458 197.093 116.762 196.585 117.321 196.158C117.874 195.719 118.676 195.431 119.559 195.199C120.447 194.972 121.408 194.688 122.348 194.214C123.285 193.744 124.121 193.185 124.807 192.59C125.497 191.999 126.048 191.391 126.471 190.852C126.899 190.315 127.182 189.835 127.386 189.51C127.474 189.354 127.546 189.226 127.603 189.125C127.654 189.037 127.683 188.992 127.688 188.994C127.692 188.996 127.672 189.045 127.628 189.137C127.577 189.242 127.512 189.374 127.433 189.536C127.244 189.871 126.972 190.362 126.55 190.911C126.133 191.463 125.584 192.084 124.891 192.686C124.203 193.292 123.358 193.862 122.41 194.338C121.461 194.818 120.478 195.103 119.592 195.322C118.71 195.547 117.925 195.819 117.381 196.236C116.83 196.642 116.522 197.125 116.395 197.48C116.263 197.838 116.278 198.058 116.259 198.055Z" fill="#455A64"/>
<path d="M163.127 192.437C163.127 192.437 166.551 195.38 167.786 199.866C169.02 204.354 168.315 217.147 170.167 221.226C172.018 225.305 180.656 240.443 180.811 243.746C180.966 247.049 180.178 248.367 178.315 251.516C176.452 254.664 172.45 259.552 169.39 259.61C166.331 259.667 165.448 256.737 165.448 256.737L170.695 246.461L163.818 229.468L159.064 210.733L156.922 201.501L163.127 192.437Z" fill="#263238"/>
<path d="M175.665 244.177C175.665 244.177 177.469 247.093 175.89 249.681C174.311 252.27 169.758 259.848 167.305 258.951C164.852 258.053 163.818 256.616 164.039 256.315C164.26 256.014 165.866 249.853 165.111 244.058C164.356 238.263 158.495 216.164 157.149 211.047C155.802 205.931 155.104 196.079 157.12 192.517C159.137 188.954 163.127 192.436 163.127 192.436C163.127 192.436 160.261 202.522 160.852 207.276C161.443 212.032 175.665 244.177 175.665 244.177Z" fill="#E0E0E0"/>
<path d="M175.665 244.177C175.665 244.177 175.621 244.098 175.545 243.937C175.467 243.767 175.358 243.529 175.215 243.219C174.928 242.575 174.509 241.639 173.968 240.427C172.888 237.987 171.326 234.427 169.41 229.939C167.507 225.446 165.196 220.048 162.834 213.845C162.539 213.07 162.242 212.283 161.964 211.475C161.823 211.072 161.68 210.667 161.536 210.259C161.407 209.845 161.278 209.429 161.147 209.01C161.004 208.596 160.911 208.158 160.817 207.718C160.692 207.283 160.696 206.829 160.653 206.378C160.634 205.475 160.664 204.562 160.757 203.647C161.122 199.983 161.958 196.23 162.991 192.398L163.034 192.542C162.436 192.05 161.746 191.623 161.006 191.342C160.273 191.053 159.438 190.94 158.707 191.232C157.97 191.509 157.441 192.178 157.098 192.907C156.733 193.636 156.547 194.458 156.38 195.276C156.087 196.929 156.004 198.642 156.012 200.368C156.025 202.095 156.137 203.84 156.335 205.59C156.474 206.875 156.674 208.145 156.925 209.394C157.17 210.643 157.523 211.865 157.839 213.089C158.476 215.533 159.103 217.941 159.719 220.307C160.94 225.043 162.093 229.617 163.132 233.99C163.65 236.176 164.145 238.311 164.575 240.398C165.003 242.479 165.4 244.531 165.42 246.542C165.472 248.548 165.314 250.482 165.045 252.322C164.908 253.241 164.74 254.138 164.537 255.008C164.425 255.447 164.342 255.86 164.164 256.3C164.056 256.435 164.171 256.616 164.275 256.791C164.391 256.96 164.524 257.121 164.674 257.266C165.271 257.85 165.994 258.278 166.726 258.607C167.1 258.756 167.458 258.966 167.826 258.921C168.198 258.891 168.553 258.73 168.874 258.538C169.517 258.141 170.057 257.62 170.553 257.103C171.048 256.58 171.493 256.041 171.908 255.51C173.56 253.371 174.773 251.377 175.774 249.76C176.296 248.966 176.468 248.119 176.489 247.399C176.506 246.673 176.376 246.062 176.237 245.585C176.096 245.107 175.942 244.757 175.834 244.525C175.726 244.294 175.665 244.177 175.665 244.177C175.665 244.177 175.982 244.611 176.294 245.569C176.443 246.047 176.585 246.662 176.577 247.401C176.566 248.132 176.396 249.006 175.873 249.82C174.885 251.446 173.686 253.451 172.039 255.609C171.624 256.146 171.18 256.692 170.682 257.222C170.182 257.749 169.64 258.28 168.972 258.697C168.636 258.898 168.262 259.076 167.838 259.112C167.734 259.123 167.626 259.109 167.519 259.104C167.417 259.075 167.302 259.058 167.21 259.018C167.022 258.942 166.83 258.874 166.643 258.786C165.893 258.453 165.153 258.02 164.525 257.412C164.367 257.261 164.225 257.091 164.097 256.905C164.035 256.81 163.977 256.71 163.937 256.593C163.917 256.535 163.902 256.471 163.906 256.393C163.902 256.36 163.928 256.308 163.944 256.269L163.974 256.201C164.119 255.833 164.219 255.381 164.323 254.959C164.521 254.096 164.684 253.204 164.818 252.29C165.079 250.461 165.231 248.538 165.173 246.55C165.148 244.557 164.751 242.532 164.319 240.451C163.885 238.369 163.387 236.237 162.865 234.052C161.82 229.684 160.661 225.113 159.437 220.379C158.82 218.013 158.191 215.606 157.552 213.163C157.237 211.942 156.883 210.717 156.633 209.453C156.381 208.193 156.179 206.915 156.039 205.623C155.84 203.864 155.728 202.109 155.716 200.37C155.709 198.632 155.791 196.906 156.091 195.224C156.262 194.389 156.45 193.551 156.834 192.782C157.193 192.019 157.766 191.281 158.6 190.966C159.427 190.638 160.339 190.774 161.106 191.077C161.889 191.377 162.587 191.811 163.22 192.331L163.287 192.386L163.263 192.475C162.23 196.289 161.389 200.038 161.021 203.672C160.365 207.366 161.99 210.658 163.06 213.761C165.403 219.962 167.695 225.369 169.574 229.87C171.483 234.353 173.005 237.926 174.055 240.389C174.577 241.608 174.981 242.551 175.259 243.199C175.392 243.513 175.493 243.754 175.566 243.926C175.636 244.091 175.665 244.177 175.665 244.177Z" fill="#263238"/>
<path d="M301.967 267.595L36.3174 267.595L36.3174 230.778L301.967 230.778V267.595Z" fill="#9FE870"/>
<g opacity="0.4">
<path d="M301.967 267.595L36.3174 267.595L36.3174 230.778L301.967 230.778V267.595Z" fill="black"/>
</g>
<path d="M108.923 194.079C108.923 194.079 112.347 197.022 113.582 201.509C114.816 205.996 114.111 218.79 115.963 222.869C117.814 226.948 126.452 242.086 126.607 245.389C126.762 248.691 125.974 250.01 124.111 253.158C122.248 256.307 118.246 261.195 115.187 261.252C112.128 261.31 111.245 258.38 111.245 258.38L116.492 248.103L109.615 231.11L104.86 212.376L102.718 203.143L108.923 194.079Z" fill="#263238"/>
<path d="M121.461 245.82C121.461 245.82 123.266 248.736 121.686 251.325C120.107 253.913 115.555 261.492 113.101 260.594C110.648 259.697 109.614 258.259 109.835 257.959C110.056 257.658 111.662 251.497 110.907 245.702C110.152 239.907 104.291 217.808 102.945 212.691C101.598 207.574 100.9 197.722 102.916 194.16C104.933 190.598 108.923 194.079 108.923 194.079C108.923 194.079 106.057 204.165 106.648 208.92C107.239 213.675 121.461 245.82 121.461 245.82Z" fill="#E0E0E0"/>
<path d="M121.461 245.82C121.461 245.82 121.417 245.741 121.341 245.58C121.263 245.41 121.154 245.172 121.011 244.862C120.723 244.218 120.305 243.282 119.764 242.07C118.684 239.63 117.122 236.07 115.206 231.582C113.303 227.089 110.991 221.691 108.63 215.488C108.335 214.713 108.038 213.926 107.76 213.118C107.619 212.715 107.476 212.31 107.332 211.902C107.203 211.488 107.073 211.072 106.943 210.653C106.799 210.239 106.707 209.801 106.613 209.361C106.488 208.926 106.492 208.472 106.449 208.021C106.43 207.118 106.459 206.205 106.552 205.29C106.918 201.626 107.754 197.874 108.787 194.041L108.83 194.185C108.232 193.694 107.542 193.266 106.802 192.985C106.069 192.696 105.234 192.583 104.503 192.875C103.765 193.152 103.236 193.821 102.894 194.55C102.529 195.279 102.343 196.101 102.176 196.92C101.882 198.573 101.8 200.286 101.808 202.012C101.82 203.739 101.932 205.484 102.13 207.233C102.27 208.518 102.47 209.788 102.72 211.038C102.966 212.287 103.319 213.508 103.635 214.732C104.272 217.176 104.899 219.584 105.515 221.95C106.736 226.686 107.889 231.261 108.928 235.633C109.446 237.82 109.941 239.955 110.371 242.041C110.799 244.123 111.195 246.175 111.215 248.186C111.267 250.191 111.109 252.126 110.841 253.966C110.703 254.886 110.535 255.782 110.333 256.651C110.22 257.09 110.137 257.504 109.959 257.944C109.851 258.079 109.967 258.26 110.071 258.435C110.186 258.604 110.319 258.765 110.469 258.909C111.067 259.493 111.789 259.922 112.521 260.25C112.895 260.399 113.253 260.61 113.621 260.565C113.993 260.535 114.348 260.373 114.669 260.181C115.313 259.785 115.852 259.264 116.348 258.746C116.843 258.224 117.288 257.684 117.704 257.153C119.355 255.015 120.568 253.021 121.57 251.404C122.09 250.61 122.264 249.762 122.284 249.042C122.301 248.316 122.171 247.705 122.032 247.229C121.891 246.75 121.737 246.401 121.63 246.169C121.521 245.937 121.461 245.82 121.461 245.82C121.461 245.82 121.777 246.254 122.09 247.212C122.239 247.69 122.38 248.305 122.372 249.044C122.362 249.775 122.192 250.649 121.669 251.463C120.681 253.089 119.482 255.094 117.835 257.253C117.42 257.789 116.976 258.335 116.478 258.865C115.978 259.392 115.436 259.923 114.768 260.34C114.433 260.541 114.058 260.719 113.635 260.756C113.53 260.766 113.422 260.752 113.315 260.747C113.213 260.718 113.098 260.701 113.007 260.661C112.818 260.586 112.625 260.518 112.439 260.43C111.69 260.096 110.949 259.664 110.322 259.055C110.164 258.905 110.021 258.734 109.893 258.549C109.831 258.453 109.773 258.354 109.734 258.237C109.714 258.178 109.698 258.115 109.703 258.037C109.698 258.003 109.724 257.952 109.741 257.912L109.77 257.845C109.915 257.476 110.015 257.025 110.119 256.602C110.317 255.74 110.481 254.848 110.615 253.934C110.875 252.104 111.027 250.181 110.969 248.193C110.944 246.201 110.548 244.175 110.115 242.094C109.682 240.013 109.183 237.88 108.662 235.695C107.616 231.327 106.458 226.756 105.234 222.022C104.616 219.656 103.987 217.249 103.349 214.806C103.034 213.585 102.679 212.36 102.43 211.096C102.178 209.836 101.976 208.558 101.836 207.266C101.637 205.507 101.525 203.752 101.513 202.013C101.506 200.275 101.588 198.549 101.888 196.867C102.059 196.032 102.247 195.195 102.631 194.425C102.99 193.662 103.563 192.924 104.397 192.608C105.224 192.281 106.136 192.417 106.903 192.72C107.685 193.019 108.384 193.453 109.016 193.973L109.083 194.028L109.059 194.117C108.027 197.931 107.186 201.681 106.818 205.315C106.162 209.008 107.787 212.301 108.857 215.404C111.2 221.605 113.491 227.012 115.371 231.513C117.28 235.995 118.802 239.568 119.851 242.031C120.374 243.251 120.778 244.194 121.056 244.842C121.188 245.156 121.29 245.397 121.363 245.569C121.431 245.734 121.461 245.82 121.461 245.82Z" fill="#263238"/>
<path d="M23.4095 231.687C23.4095 231.687 24.505 221.519 24.9921 220.233C25.4792 218.945 27.4272 216.243 27.4272 216.243V204.788C25.9663 203.372 25.7228 202.214 25.7228 202.214C25.4518 201.525 43.01 199.639 43.01 199.639C43.01 199.639 83.0637 186.897 91.3423 184.452C99.6208 182.007 136.874 178.532 136.874 178.532C164.753 175.024 183.749 177.321 203.486 184.193C215 188.202 262.027 212.897 262.027 212.897L266.775 213.283C266.775 213.283 281.434 215.34 284.726 215.727C290.162 216.365 309.75 223.837 317.298 228.599C321.729 231.395 324.944 234.59 326.843 236.752C328.145 238.234 328.864 240.181 328.864 242.204V257.43C329.229 262.835 315.594 273.518 315.594 273.518H298.793V264.251H298.278C298.332 263.52 298.368 262.784 298.368 262.037C298.368 246.9 286.966 234.628 272.901 234.628C258.837 234.628 247.436 246.9 247.436 262.037C247.436 262.784 247.471 263.52 247.526 264.251L247.624 273.518H245.591H101.888L101.831 261.033C101.34 246.361 90.1409 234.628 76.3893 234.628C62.6376 234.628 51.4388 246.361 50.9472 261.033L50.9792 270.669C50.9792 270.669 32.2969 267.855 29.9836 265.925C27.6703 263.994 18.1599 251.123 18.1599 247.777C18.1594 244.429 23.4095 231.687 23.4095 231.687ZM163.085 211.376L220.991 215.725L229.909 202.939C229.909 202.939 207.474 189.446 187.762 185.374C167.764 181.244 157.655 182.359 157.655 182.359L163.085 211.376ZM150.197 211.376C150.197 211.376 148.377 183.864 147.649 182.901C146.921 181.939 93.9626 189.058 92.6889 189.828C91.4151 190.597 84.8635 203.681 84.6813 204.258L150.197 211.376Z" fill="#9FE870"/>
<path d="M299.667 247.777C299.667 247.777 299.621 247.7 299.533 247.547C299.444 247.396 299.321 247.164 299.14 246.87C298.795 246.272 298.239 245.415 297.478 244.33C296.691 243.268 295.719 241.954 294.411 240.578C293.117 239.193 291.548 237.672 289.586 236.279C287.635 234.887 285.346 233.494 282.637 232.599C279.946 231.664 276.901 231.189 273.638 231.142C270.38 231.073 266.906 231.4 263.372 232.302C261.602 232.737 259.824 233.343 258.073 234.125C256.328 234.907 254.575 235.849 253.004 237.093L252.956 237.132L252.901 237.126C241.252 235.909 228.128 234.538 214.292 233.093C201.566 231.753 189.443 230.478 178.416 229.318C178.072 229.281 177.728 229.245 177.386 229.209C177.042 229.19 176.701 229.171 176.359 229.152C175.677 229.117 174.999 229.083 174.326 229.049C172.978 228.986 171.648 228.924 170.338 228.863C167.715 228.764 165.169 228.667 162.707 228.574C157.783 228.415 153.195 228.317 149.006 228.252C140.628 228.125 133.847 228.111 129.161 228.083C126.824 228.069 125.008 228.058 123.765 228.05C123.155 228.043 122.687 228.038 122.362 228.034C122.046 228.028 121.883 228.017 121.883 228.017C121.883 228.017 122.046 228.006 122.362 228C122.687 227.996 123.154 227.991 123.765 227.984C125.008 227.977 126.824 227.967 129.161 227.955C133.847 227.944 140.629 227.923 149.009 228.02C153.199 228.071 157.789 228.155 162.715 228.303C165.178 228.377 167.725 228.468 170.348 228.575C171.66 228.634 172.99 228.694 174.339 228.754C175.014 228.787 175.694 228.82 176.378 228.854C176.72 228.872 177.062 228.891 177.406 228.909C177.749 228.945 178.093 228.98 178.437 229.016C189.465 230.169 201.59 231.436 214.318 232.766C228.154 234.223 241.278 235.604 252.928 236.83L252.826 236.863C254.445 235.585 256.201 234.65 257.967 233.86C259.734 233.075 261.527 232.469 263.31 232.035C266.87 231.135 270.366 230.815 273.641 230.895C276.914 230.951 279.993 231.441 282.7 232.394C285.427 233.308 287.726 234.722 289.68 236.132C291.647 237.544 293.214 239.081 294.502 240.481C295.806 241.872 296.771 243.199 297.548 244.272C298.299 245.369 298.844 246.237 299.177 246.844C299.521 247.446 299.667 247.777 299.667 247.777Z" fill="#263238"/>
<g opacity="0.2">
<path d="M328.863 246.619L318.111 242.564L316.833 248.743L299.667 247.777C299.667 247.777 292.11 232.516 276.657 231.174C263.426 230.024 252.916 236.978 252.916 236.978L177.311 229.05C177.311 229.05 138.961 227.505 124.169 227.698C109.377 227.891 96.3406 239.258 96.3406 239.258C96.3406 239.258 91.9745 232.563 76.5054 232.41C61.0358 232.257 54.5825 241.861 54.5825 241.861C43.6772 240.352 33.1662 235.768 24.4254 228.71L23.6713 229.349C23.5131 230.721 23.4093 231.687 23.4093 231.687C23.4093 231.687 18.1598 244.429 18.1598 247.776C18.1598 251.122 27.6706 263.993 29.9834 265.923C32.2962 267.854 50.979 270.668 50.979 270.668L50.9471 261.032C51.4387 246.36 62.6375 234.627 76.3891 234.627C90.1408 234.627 101.34 246.36 101.831 261.032L101.888 273.517H245.591H247.624L247.526 264.25C247.471 263.519 247.436 262.782 247.436 262.036C247.436 246.898 258.837 234.627 272.901 234.627C286.966 234.627 298.367 246.899 298.367 262.036C298.367 262.782 298.331 263.519 298.277 264.25H298.793V273.517H315.593C315.593 273.517 329.229 262.834 328.863 257.429V246.619Z" fill="black"/>
</g>
<path d="M69.5481 200.471L83.8703 189.596C84.4028 189.192 85.0257 188.933 85.676 188.843C116.094 184.63 139.631 180.927 151.896 180.477C192.413 178.126 219.557 195.341 223.426 197.267C227.294 199.194 243.772 208.974 247.497 212.761C249.36 214.654 249.073 216.321 248.321 217.513C247.53 218.767 246.112 219.412 244.689 219.328L155.941 214.124L83.1541 205.641L70.3442 203.834C68.7605 203.611 68.2505 201.456 69.5481 200.471ZM163.085 211.376L220.991 215.725L229.909 202.939C229.909 202.939 207.474 189.446 187.762 185.374C167.764 181.244 157.655 182.359 157.655 182.359L163.085 211.376ZM150.197 211.376C150.197 211.376 148.377 183.864 147.649 182.901C146.921 181.939 93.9626 189.058 92.6889 189.828C91.4152 190.597 84.8635 203.68 84.6813 204.258L150.197 211.376Z" fill="#263238"/>
<path d="M104.862 187.828L104.401 207.029H107.132V187.506L104.862 187.828Z" fill="#263238"/>
<path d="M232.128 202.24C232.128 202.24 232.176 202.337 232.261 202.532C232.348 202.733 232.474 203.023 232.638 203.402C232.796 203.79 233.022 204.259 233.234 204.841C233.448 205.422 233.696 206.095 233.977 206.856C235.026 209.925 236.296 214.557 237.084 220.594C237.886 226.624 238.218 234.041 237.732 242.489C237.494 246.713 237.058 251.193 236.383 255.88C236.04 258.223 235.648 260.618 235.151 263.051C235.018 263.655 234.92 264.279 234.682 264.88C234.451 265.473 234.159 266.031 233.853 266.582C233.234 267.681 232.542 268.74 231.805 269.785L231.764 269.843L231.694 269.842C214.059 269.502 193.452 269.104 171.536 268.681C160.164 268.406 149.144 268.139 138.703 267.886C133.483 267.778 128.407 267.668 123.505 267.632C122.893 267.63 122.282 267.619 121.677 267.63C121.073 267.643 120.467 267.643 119.851 267.609C118.631 267.513 117.449 267.142 116.381 266.574C115.311 266.007 114.35 265.258 113.497 264.415C112.645 263.569 111.891 262.642 111.261 261.621L111.267 261.63C105.664 253.469 100.598 245.929 96.1672 239.199C93.9617 235.827 91.8984 232.669 90.0408 229.711C88.1756 226.76 86.4901 224.027 85.0612 221.496C84.343 220.234 83.6862 219.017 83.1806 217.815C83.0608 217.51 82.9431 217.211 82.8273 216.916C82.7105 216.622 82.6466 216.313 82.5562 216.02C82.4799 215.722 82.3736 215.438 82.3262 215.144C82.2738 214.851 82.2223 214.563 82.1719 214.281C81.7916 212.005 82.1166 210.016 82.5373 208.51C82.976 206.993 83.551 205.925 83.9727 205.243C84.3989 204.56 84.6804 204.258 84.6804 204.258C84.6804 204.258 84.6205 204.342 84.5017 204.506C84.3845 204.673 84.2158 204.924 84.0081 205.267C83.5994 205.954 83.0394 207.024 82.6161 208.535C82.2104 210.036 81.9014 212.009 82.2907 214.26C82.3421 214.54 82.3945 214.824 82.448 215.114C82.4964 215.405 82.6037 215.686 82.6805 215.981C82.7719 216.271 82.8357 216.576 82.953 216.867C83.0693 217.158 83.1876 217.455 83.3074 217.755C83.8145 218.945 84.4733 220.154 85.1955 221.411C86.6319 223.931 88.3258 226.655 90.1985 229.6C92.0636 232.549 94.1349 235.701 96.3474 239.066C100.793 245.783 105.871 253.313 111.484 261.463L111.49 261.472C112.726 263.428 114.427 265.194 116.505 266.311C117.546 266.862 118.69 267.221 119.871 267.311C120.458 267.342 121.061 267.343 121.673 267.329C122.283 267.318 122.892 267.328 123.506 267.329C128.412 267.36 133.487 267.465 138.708 267.57C149.15 267.82 160.169 268.082 171.542 268.354C193.457 268.791 214.063 269.202 231.698 269.555L231.587 269.611C232.318 268.578 233.01 267.521 233.622 266.438C233.925 265.895 234.213 265.344 234.436 264.775C234.66 264.215 234.761 263.596 234.894 262.992C235.393 260.568 235.789 258.176 236.135 255.839C236.817 251.162 237.261 246.689 237.508 242.474C238.012 234.041 237.702 226.638 236.925 220.616C236.161 214.588 234.918 209.959 233.896 206.885C233.623 206.123 233.381 205.449 233.173 204.866C232.967 204.282 232.749 203.811 232.597 203.421C232.442 203.037 232.323 202.745 232.241 202.541C232.163 202.343 232.128 202.24 232.128 202.24Z" fill="#263238"/>
<path d="M157.049 214.19C157.059 214.186 157.119 214.372 157.201 214.733C157.284 215.093 157.388 215.63 157.496 216.325C157.711 217.715 157.935 219.741 158.083 222.255C158.402 227.284 158.273 234.24 158.179 241.912C158.064 249.588 157.903 256.535 157.77 261.563C157.695 264.054 157.634 266.08 157.591 267.517C157.563 268.197 157.541 268.737 157.525 269.135C157.515 269.303 157.507 269.441 157.5 269.555C157.493 269.65 157.486 269.698 157.481 269.698C157.476 269.698 157.472 269.649 157.469 269.554C157.467 269.439 157.465 269.301 157.463 269.133C157.465 268.734 157.468 268.194 157.471 267.513C157.491 266.076 157.519 264.05 157.553 261.557C157.634 256.503 157.747 249.568 157.871 241.906C157.965 234.235 158.127 227.285 157.865 222.268C157.746 219.759 157.556 217.735 157.378 216.343C157.288 215.647 157.203 215.11 157.141 214.746C157.112 214.58 157.088 214.445 157.068 214.332C157.051 214.239 157.044 214.191 157.049 214.19Z" fill="#263238"/>
<g opacity="0.2">
<path d="M112.12 249.4C112.12 249.4 139.17 261.423 144.09 262.555C149.009 263.687 228.27 264.336 228.27 264.336L229.91 260.598L147.183 260.019C147.183 260.019 113.946 246.89 112.12 249.4Z" fill="black"/>
</g>
<path d="M96.3411 239.258C96.3366 239.262 96.2912 239.212 96.1974 239.121C96.107 239.026 95.9638 238.895 95.7801 238.718C95.4023 238.377 94.8263 237.898 94.0402 237.347C93.2462 236.809 92.2385 236.213 91.0222 235.62C89.7944 235.056 88.366 234.483 86.7394 234.013C85.1094 233.566 83.3027 233.137 81.3307 232.909C80.35 232.751 79.3238 232.706 78.2717 232.613C77.7452 232.566 77.2096 232.588 76.6676 232.572C76.1256 232.573 75.5751 232.531 75.0201 232.588C70.5766 232.773 65.7079 233.988 61.1272 236.463C59.1752 237.515 57.3305 238.728 55.7544 240.109L55.6256 240.222L55.5303 240.083C52.9509 236.316 50.5513 232.756 48.4695 229.485C46.3863 226.216 44.6289 223.237 43.1975 220.731C41.7661 218.225 40.6546 216.195 39.891 214.797C39.5222 214.109 39.2327 213.571 39.0261 213.185C38.9362 213.012 38.8649 212.873 38.808 212.764C38.76 212.669 38.7381 212.619 38.7421 212.616C38.7461 212.614 38.7765 212.659 38.8324 212.749C38.8953 212.855 38.9747 212.988 39.074 213.156C39.2916 213.535 39.596 214.064 39.9843 214.739C40.7879 216.137 41.9378 218.135 43.3682 220.621C44.8216 223.111 46.5964 226.073 48.6916 229.327C50.7854 232.582 53.193 236.132 55.7773 239.895L55.5532 239.868C57.1663 238.451 59.0145 237.237 60.9879 236.173C65.6091 233.676 70.5267 232.458 75.0101 232.288C75.5701 232.234 76.1251 232.278 76.6721 232.278C77.2186 232.297 77.7596 232.278 78.2887 232.327C79.3468 232.426 80.3779 232.477 81.3641 232.641C83.3465 232.882 85.1628 233.327 86.7998 233.791C88.4334 234.279 89.8663 234.871 91.0956 235.454C92.3134 236.067 93.319 236.684 94.1081 237.242C94.8892 237.812 95.4567 238.311 95.823 238.67C96.0012 238.855 96.1385 238.994 96.2213 239.098C96.3067 239.197 96.3446 239.255 96.3411 239.258Z" fill="#263238"/>
<path d="M27.1211 254.551C27.1001 254.555 27.0218 254.228 26.898 253.634C26.7742 253.039 26.6085 252.176 26.4184 251.107C26.0346 248.97 25.5569 246.006 25.0987 242.722C24.6416 239.437 24.2907 236.453 24.0751 234.289C23.9658 233.208 23.8889 232.331 23.8455 231.724C23.8016 231.117 23.7876 230.78 23.8086 230.778C23.8301 230.776 23.8845 231.108 23.9648 231.71C24.0497 232.372 24.1595 233.23 24.2922 234.262C24.5632 236.416 24.948 239.392 25.4047 242.674C25.8624 245.955 26.3056 248.921 26.634 251.067C26.7887 252.095 26.9175 252.95 27.0168 253.61C27.1036 254.212 27.1421 254.546 27.1211 254.551Z" fill="#263238"/>
<path d="M51.489 256.708C51.489 256.719 51.3817 256.727 51.1781 256.732C50.9395 256.733 50.6455 256.735 50.2882 256.737C49.5156 256.737 48.3976 256.714 47.0166 256.665C44.2551 256.568 40.4415 256.336 36.2445 255.898C32.0466 255.456 28.2639 254.891 25.5384 254.412C24.1753 254.174 23.0748 253.965 22.3172 253.805C21.9673 253.728 21.6793 253.665 21.4457 253.614C21.2471 253.567 21.1438 253.537 21.1458 253.526C21.1478 253.515 21.2546 253.524 21.4567 253.549C21.6933 253.584 21.9843 253.627 22.3377 253.679C23.1467 253.805 24.2407 253.976 25.5718 254.184C28.3034 254.603 32.084 255.131 36.2755 255.572C40.4654 256.01 44.2706 256.277 47.0266 256.433C48.3707 256.506 49.4752 256.566 50.2917 256.61C50.648 256.632 50.9415 256.65 51.1796 256.666C51.3827 256.682 51.4895 256.697 51.489 256.708Z" fill="#263238"/>
<path d="M318.111 242.564C318.111 242.564 314.762 234.369 314.859 234.094C315.375 232.625 317.297 228.598 317.297 228.598C317.297 228.598 318.871 229.514 320.779 230.962C322.908 232.578 325.479 234.843 327.262 236.927C328.294 238.132 328.863 239.698 328.864 241.324L328.87 248.188L318.111 242.564Z" fill="#EBEBEB"/>
<path d="M245.252 204.601C245.317 204.664 244.567 205.608 243.699 206.812C242.827 208.014 242.163 209.026 242.087 208.977C242.017 208.932 242.57 207.831 243.453 206.614C244.333 205.394 245.194 204.54 245.252 204.601Z" fill="#263238"/>
<path d="M27.4261 204.787C27.4261 204.787 52.7923 206.982 52.5128 207.573C52.2333 208.165 27.4261 216.242 27.4261 216.242V204.787Z" fill="#EBEBEB"/>
<path d="M27.348 216.57C27.2626 216.57 27.1928 213.944 27.1918 210.705C27.1908 207.465 27.2592 204.839 27.345 204.839C27.4303 204.839 27.5002 207.465 27.5012 210.705C27.5022 213.944 27.4333 216.57 27.348 216.57Z" fill="#263238"/>
<path d="M228.27 264.336C228.27 264.336 228.167 264.345 227.968 264.347C227.756 264.346 227.461 264.345 227.082 264.344C226.289 264.335 225.144 264.321 223.675 264.303C220.704 264.252 216.428 264.18 211.149 264.09C200.562 263.878 185.957 263.586 169.826 263.263C161.756 263.088 154.069 262.921 147.074 262.769C146.637 262.759 146.203 262.75 145.772 262.74C145.344 262.726 144.909 262.739 144.471 262.672C143.591 262.564 142.813 262.145 142.052 261.833C140.518 261.175 139.019 260.561 137.568 259.97C134.665 258.796 131.946 257.739 129.464 256.773C124.499 254.847 120.491 253.256 117.743 252.096C116.369 251.517 115.306 251.057 114.59 250.734C114.241 250.576 113.971 250.453 113.776 250.365C113.593 250.279 113.503 250.229 113.503 250.229C113.503 250.229 113.602 250.259 113.788 250.334C113.986 250.415 114.26 250.528 114.614 250.674C115.352 250.977 116.419 251.416 117.788 251.978C120.547 253.102 124.565 254.658 129.54 256.556C132.026 257.509 134.75 258.555 137.66 259.718C139.114 260.303 140.616 260.913 142.154 261.567C142.932 261.884 143.681 262.285 144.51 262.381C144.918 262.443 145.344 262.43 145.778 262.443C146.21 262.452 146.644 262.461 147.081 262.47C154.075 262.613 161.763 262.772 169.833 262.938C185.963 263.298 200.568 263.624 211.154 263.86C216.432 263.993 220.708 264.102 223.678 264.177C225.146 264.221 226.291 264.255 227.083 264.28C227.463 264.294 227.757 264.306 227.969 264.315C228.168 264.323 228.27 264.336 228.27 264.336Z" fill="#263238"/>
<path d="M221.572 202.733C220.481 205.099 219.284 208.596 219.507 212.224C219.652 214.587 221.492 216.436 223.732 216.454L234.162 216.536C235.697 216.548 237.092 215.403 237.29 213.794C237.355 213.269 237.296 212.7 237.025 212.116C235.941 209.78 235.037 210.224 235.037 210.224C235.037 210.224 231.88 203.335 227.078 200.721C225.066 199.626 222.563 200.582 221.572 202.733Z" fill="#9FE870"/>
<path d="M232.37 216.522C232.387 216.564 232.784 216.443 233.317 216.036C233.829 215.634 234.555 214.939 234.831 213.867C235.097 212.825 235.042 211.871 235.044 211.201C235.033 210.525 235.001 210.106 234.951 210.104C234.901 210.103 234.842 210.518 234.789 211.193C234.723 211.864 234.731 212.806 234.484 213.763C234.244 214.712 233.61 215.386 233.157 215.826C232.691 216.265 232.345 216.469 232.37 216.522Z" fill="#263238"/>
<path d="M233.157 208.769C233.196 208.751 233.017 208.184 232.577 207.34C232.14 206.496 231.413 205.392 230.424 204.351C229.432 203.313 228.381 202.553 227.58 202.097C226.778 201.639 226.241 201.454 226.224 201.495C226.167 201.604 228.238 202.572 230.17 204.622C232.122 206.648 233.054 208.83 233.157 208.769Z" fill="white"/>
<path d="M152.656 180.437C152.666 180.435 152.697 180.55 152.744 180.772C152.795 181.03 152.859 181.351 152.937 181.745C153.096 182.591 153.316 183.817 153.574 185.336C154.088 188.373 154.768 192.575 155.422 197.231C156.077 201.89 156.578 206.122 156.832 209.198C156.904 209.967 156.948 210.664 156.982 211.276C157.019 211.888 157.052 212.415 157.054 212.848C157.058 213.249 157.062 213.578 157.065 213.842C157.064 214.07 157.059 214.189 157.048 214.189C157.038 214.189 157.023 214.07 157.004 213.844C156.985 213.581 156.962 213.254 156.934 212.854C156.914 212.424 156.863 211.899 156.81 211.29C156.759 210.68 156.701 209.986 156.615 209.221C156.305 206.156 155.771 201.934 155.116 197.279C154.463 192.626 153.818 188.42 153.359 185.375C153.136 183.886 152.953 182.665 152.819 181.767C152.764 181.37 152.719 181.044 152.683 180.784C152.655 180.558 152.645 180.439 152.656 180.437Z" fill="#455A64"/>
<g opacity="0.2">
<path d="M27.4266 216.242L39.9709 208.376L40.3333 205.984C45.2025 206.495 51.1133 206.982 52.5133 207.573C52.5153 207.976 37.0872 213.144 27.4266 216.242Z" fill="black"/>
</g>
<g opacity="0.2">
<path d="M314.859 234.094L321.562 240.11L328.864 241.324L328.87 248.188L318.11 242.564C316.787 239.301 315.579 236.248 314.859 234.094Z" fill="black"/>
</g>
<path d="M314.786 234.094C314.784 234.099 314.726 234.079 314.617 234.033C314.491 233.978 314.331 233.908 314.131 233.821C313.686 233.621 313.063 233.34 312.272 232.983C310.639 232.244 308.312 231.191 305.443 229.894C302.555 228.601 299.114 227.069 295.259 225.461C293.327 224.678 291.297 223.827 289.143 223.176C288.062 222.888 286.924 222.711 285.777 222.504C284.627 222.312 283.459 222.117 282.279 221.92C272.816 220.392 264.235 219.102 258.029 218.14C254.942 217.66 252.436 217.27 250.679 216.997C249.829 216.858 249.16 216.749 248.683 216.672C248.469 216.634 248.298 216.603 248.165 216.579C248.048 216.557 247.989 216.542 247.989 216.537C247.99 216.531 248.051 216.534 248.169 216.546C248.303 216.562 248.476 216.582 248.691 216.607C249.171 216.67 249.842 216.758 250.696 216.871C252.456 217.119 254.966 217.474 258.059 217.911C264.274 218.815 272.859 220.069 282.325 221.597C283.507 221.795 284.676 221.99 285.827 222.183C286.976 222.393 288.114 222.571 289.22 222.867C291.406 223.532 293.427 224.389 295.363 225.181C299.217 226.806 302.651 228.362 305.53 229.681C308.406 231.004 310.724 232.1 312.321 232.867C313.103 233.248 313.717 233.547 314.156 233.761C314.351 233.86 314.507 233.94 314.63 234.001C314.735 234.058 314.788 234.089 314.786 234.094Z" fill="#263238"/>
<path d="M52.5177 262.624C52.329 276.479 62.7996 287.872 75.905 288.072C89.0103 288.272 99.7878 277.202 99.977 263.347C100.166 249.493 89.695 238.099 76.5897 237.899C63.4843 237.699 52.7068 248.769 52.5177 262.624Z" fill="#263238"/>
<path d="M52.522 262.559C52.5215 262.58 52.5181 262.602 52.5176 262.623C52.3289 276.478 62.7995 287.872 75.9049 288.072C89.0102 288.272 99.7877 277.202 99.9769 263.347C99.9774 263.325 99.9744 263.304 99.9749 263.282L52.522 262.559Z" fill="#263238"/>
<path d="M59.5873 262.732C59.4546 272.459 66.8058 280.458 76.0062 280.598C85.2071 280.739 92.7739 272.967 92.9062 263.24C93.0389 253.513 85.6877 245.513 76.4869 245.373C67.286 245.233 59.7201 253.005 59.5873 262.732Z" fill="#FAFAFA"/>
<path d="M76.4876 245.373C67.2867 245.233 59.7208 253.005 59.588 262.732L92.9074 263.24C93.0402 253.513 85.6889 245.513 76.4876 245.373Z" fill="#E0E0E0"/>
<path d="M66.0988 262.831C66.0179 268.757 70.4959 273.629 76.1002 273.715C81.7051 273.8 86.3143 269.066 86.3952 263.141C86.476 257.215 81.9976 252.343 76.3932 252.257C70.7888 252.172 66.1797 256.906 66.0988 262.831Z" fill="#263238"/>
<path d="M272.646 288.075C259.539 288.075 248.914 276.842 248.914 262.986C248.914 249.129 259.539 237.896 272.646 237.896C285.753 237.896 296.378 249.129 296.378 262.986C296.378 276.842 285.753 288.075 272.646 288.075Z" fill="#263238"/>
<path d="M248.921 262.559C248.921 262.58 248.917 262.602 248.917 262.623C248.728 276.478 259.199 287.872 272.305 288.072C285.41 288.272 296.187 277.202 296.377 263.347C296.377 263.325 296.374 263.304 296.374 263.282L248.921 262.559Z" fill="#263238"/>
<path d="M255.987 262.732C255.854 272.459 263.205 280.458 272.406 280.598C281.607 280.739 289.174 272.967 289.306 263.24C289.439 253.513 282.088 245.513 272.887 245.373C263.686 245.233 256.12 253.005 255.987 262.732Z" fill="#FAFAFA"/>
<path d="M272.887 245.373C263.686 245.233 256.12 253.005 255.988 262.732L289.307 263.24C289.439 253.513 282.088 245.513 272.887 245.373Z" fill="#E0E0E0"/>
<path d="M262.498 262.831C262.417 268.757 266.895 273.629 272.5 273.715C278.105 273.8 282.714 269.066 282.795 263.141C282.876 257.215 278.397 252.343 272.793 252.257C267.188 252.172 262.579 256.906 262.498 262.831Z" fill="#263238"/>
<path d="M328.87 248.188C328.849 248.188 328.828 247.837 328.809 247.201C328.796 246.506 328.779 245.6 328.758 244.507C328.731 243.377 328.758 242.001 328.694 240.528C328.572 239.058 327.541 237.719 326.53 236.39C325.506 235.058 324.275 234.027 323.173 233.089C322.056 232.165 321.018 231.375 320.142 230.718C319.294 230.095 318.591 229.577 318.052 229.182C317.558 228.82 317.286 228.616 317.298 228.597C317.309 228.578 317.602 228.746 318.118 229.075C318.633 229.405 319.371 229.894 320.266 230.527C321.161 231.162 322.215 231.935 323.348 232.851C324.466 233.781 325.716 234.814 326.77 236.181C327.291 236.855 327.79 237.527 328.201 238.237C328.617 238.937 328.921 239.72 328.977 240.498C329.029 242.029 328.977 243.363 328.976 244.506C328.957 245.599 328.941 246.505 328.929 247.2C328.912 247.837 328.892 248.188 328.87 248.188Z" fill="#263238"/>
<path d="M311.802 152.536L276.105 180.645L311.802 152.536Z" fill="#E0E0E0"/>
<path d="M276.105 180.644C276.055 180.583 284.007 174.237 293.861 166.475C303.716 158.713 311.769 152.485 311.802 152.535C311.836 152.586 303.901 158.943 294.04 166.705C284.18 174.466 276.156 180.706 276.105 180.644Z" fill="#0E0F0C"/>
<path d="M276.407 181.467C276.277 181.57 276.119 181.633 275.953 181.646C275.787 181.659 275.621 181.623 275.476 181.542C275.331 181.461 275.213 181.338 275.138 181.19C275.062 181.042 275.033 180.875 275.052 180.71C275.072 180.545 275.14 180.389 275.248 180.263C275.356 180.137 275.5 180.046 275.66 180.001C275.82 179.956 275.99 179.96 276.148 180.012C276.306 180.063 276.445 180.161 276.547 180.292C276.684 180.467 276.746 180.688 276.719 180.908C276.693 181.129 276.581 181.329 276.407 181.467Z" fill="#0E0F0C"/>
<path d="M320.616 166.403C308.273 166.403 298.232 156.362 298.232 144.019C298.232 131.676 308.273 121.635 320.616 121.635C332.959 121.635 343 131.676 343 144.019C343 156.362 332.959 166.403 320.616 166.403Z" stroke="#A0B78E" stroke-width="0.5" stroke-linecap="round" stroke-linejoin="round"/>
<path d="M320.616 163.247C309.992 163.247 301.388 154.634 301.388 144.019C301.388 133.404 310.001 124.791 320.616 124.791C331.23 124.791 339.843 133.404 339.843 144.019C339.843 154.634 331.23 163.247 320.616 163.247Z" fill="white" stroke="#A0B78E"/>
<path d="M327.865 134.46C327.726 134.353 327.565 134.28 327.393 134.246C327.222 134.212 327.045 134.219 326.877 134.265L318.162 136.607C317.86 136.688 317.593 136.868 317.404 137.117C317.215 137.366 317.114 137.672 317.117 137.985V147.865C317.117 148.16 316.926 148.414 316.631 148.513L316.626 148.516L314.352 149.303C313.483 149.593 312.92 150.401 312.92 151.359C312.917 151.748 313.007 152.133 313.184 152.48C313.361 152.827 313.618 153.127 313.935 153.354C314.343 153.65 314.835 153.81 315.339 153.811C315.603 153.81 315.865 153.767 316.115 153.683L316.132 153.677L317.087 153.33C317.501 153.192 317.861 152.927 318.118 152.574C318.374 152.22 318.513 151.795 318.516 151.359V142.09C318.516 141.772 318.724 141.513 319.047 141.431L319.057 141.429L326.691 139.39C326.717 139.383 326.744 139.382 326.77 139.388C326.796 139.393 326.821 139.404 326.842 139.421C326.863 139.437 326.88 139.458 326.892 139.482C326.904 139.506 326.91 139.532 326.91 139.559V145.764C326.91 146.059 326.724 146.305 326.424 146.405L326.413 146.409L324.188 147.201C323.756 147.343 323.379 147.62 323.114 147.99C322.849 148.36 322.708 148.805 322.713 149.261C322.709 149.651 322.799 150.037 322.976 150.386C323.153 150.734 323.411 151.035 323.728 151.263C324.039 151.488 324.4 151.634 324.779 151.69C325.159 151.746 325.546 151.71 325.909 151.584L325.925 151.579L326.88 151.231C327.294 151.093 327.654 150.829 327.911 150.475C328.167 150.122 328.306 149.697 328.309 149.261V135.362C328.31 135.187 328.27 135.015 328.193 134.858C328.116 134.702 328.003 134.565 327.865 134.46V134.46Z" fill="#163300"/>
<path d="M331.841 137.724C331.875 137.724 331.892 141.182 331.875 145.452C331.858 149.722 331.824 153.18 331.785 153.18C331.746 153.18 331.735 149.716 331.752 145.452C331.768 141.188 331.808 137.724 331.841 137.724Z" fill="white"/>
<path d="M329.894 156.772C329.894 156.772 330.079 156.711 330.359 156.577C330.715 156.398 331.024 156.137 331.26 155.816C331.487 155.492 331.633 155.117 331.685 154.724C331.73 154.417 331.685 154.226 331.73 154.221C331.784 154.385 331.799 154.559 331.774 154.73C331.748 155.149 331.605 155.552 331.36 155.894C331.116 156.235 330.78 156.501 330.392 156.661C330.238 156.739 330.067 156.777 329.894 156.772Z" fill="white"/>
<path d="M239.791 168.123C239.718 168.083 244.417 159.873 250.287 149.785C256.156 139.697 260.963 131.551 261.03 131.591C261.097 131.63 256.404 139.841 250.534 149.929C244.665 160.017 239.836 168.159 239.791 168.123Z" fill="#0E0F0C"/>
<path d="M240.203 168.835C240.069 168.93 239.909 168.983 239.744 168.988C239.58 168.992 239.417 168.948 239.278 168.86C239.138 168.772 239.028 168.645 238.961 168.494C238.893 168.344 238.872 168.177 238.9 168.014C238.927 167.852 239.003 167.701 239.116 167.581C239.229 167.462 239.375 167.378 239.536 167.341C239.696 167.305 239.864 167.316 240.018 167.375C240.173 167.433 240.306 167.536 240.401 167.671C240.465 167.76 240.51 167.861 240.535 167.968C240.559 168.075 240.562 168.186 240.544 168.294C240.525 168.402 240.486 168.505 240.428 168.598C240.369 168.691 240.293 168.771 240.203 168.835Z" fill="#0E0F0C"/>
<path d="M267.361 136.157C255.193 134.089 246.976 122.508 249.044 110.339C251.112 98.1705 262.694 89.9539 274.862 92.022C287.031 94.0901 295.247 105.672 293.179 117.84C291.111 130.009 279.53 138.225 267.361 136.157Z" stroke="#A0B78E" stroke-width="0.5" stroke-linecap="round" stroke-linejoin="round"/>
<path d="M267.572 133.74C257.099 131.96 250.06 122.027 251.838 111.562C253.617 101.097 263.551 94.0491 274.016 95.8277C284.48 97.6062 291.528 107.54 289.75 118.005C287.971 128.47 278.037 135.518 267.572 133.74Z" fill="white" stroke="#A0B78E"/>
<g clip-path="url(#clip1_5901_7063)">
<path d="M262.831 127.845L278.533 127.845C279.145 127.845 279.655 127.335 279.655 126.723L279.655 103.843C279.655 103.231 279.145 102.721 278.533 102.721L262.831 102.721C262.22 102.725 261.714 103.231 261.714 103.843L261.714 126.719C261.714 127.378 262.224 127.783 262.831 127.845Z" fill="white"/>
<path d="M262.831 127.845L278.533 127.845C279.145 127.845 279.655 127.335 279.655 126.723L279.655 103.843C279.655 103.231 279.145 102.721 278.533 102.721L262.831 102.721C262.22 102.725 261.714 103.231 261.714 103.843L261.714 126.719C261.714 127.378 262.224 127.783 262.831 127.845Z" stroke="#163300" stroke-width="1.5"/>
<path fill-rule="evenodd" clip-rule="evenodd" d="M262.232 110.044L262.235 110.095L262.247 110.141L262.271 110.188L262.306 110.231L262.345 110.266L262.391 110.301L262.442 110.328L262.496 110.348L262.555 110.356L262.617 110.359L278.798 110.359L278.794 110.359L278.853 110.356L278.915 110.348L278.97 110.328L279.02 110.301L279.067 110.266L279.106 110.231L279.137 110.188L279.16 110.141L279.176 110.095L279.18 110.044L279.184 110.044L279.188 110.044L279.188 119.494L279.18 119.494L279.176 119.447L279.16 119.4L279.137 119.354L279.106 119.311L279.067 119.272L279.02 119.241L278.97 119.213L278.915 119.194L278.853 119.182L278.794 119.182L278.798 119.178L262.617 119.178L262.617 119.182L262.555 119.182L262.496 119.194L262.442 119.213L262.391 119.241L262.345 119.272L262.306 119.311L262.271 119.354L262.247 119.4L262.235 119.447L262.232 119.494L262.235 119.494L262.235 110.044" fill="#163300"/>
<path fill-rule="evenodd" clip-rule="evenodd" d="M270.712 117.246L269.169 114.733L270.712 112.217L272.246 114.733L270.719 117.238L270.712 117.246ZM270.712 110.951L268.402 114.733L270.712 118.512L270.719 118.496L273.025 114.733L270.712 110.951Z" fill="white"/>
<path fill-rule="evenodd" clip-rule="evenodd" d="M267.993 123.896L268.32 123.896L266.606 126.314L266.29 126.314L267.993 123.896Z" fill="#163300"/>
<path fill-rule="evenodd" clip-rule="evenodd" d="M265.862 124.188L265.862 124.001L265.866 124.001L265.897 123.993L265.924 123.985L265.955 123.97L265.987 123.958L266.014 123.942L266.037 123.927L266.064 123.911L266.092 123.892L266.088 123.892L266.092 123.895L266.271 123.895L266.271 125.508L265.994 125.508L265.994 124.188L265.862 124.188Z" fill="#163300"/>
<path d="M268.947 106.316L268.947 105.265L268.067 105.265L268.067 106.316L267.685 106.316L267.685 103.901L268.067 103.901L268.067 104.875L268.947 104.875L268.947 103.901L269.329 103.901L269.329 106.316L268.947 106.316Z" fill="#163300"/>
<path d="M271.128 104.435C271.05 104.306 270.957 104.256 270.813 104.248C270.626 104.24 270.509 104.334 270.423 104.544C270.365 104.688 270.33 104.91 270.33 105.113C270.33 105.366 270.38 105.631 270.474 105.783C270.552 105.911 270.653 105.97 270.805 105.97C270.984 105.97 271.093 105.876 271.179 105.666C271.23 105.537 271.272 105.3 271.272 105.113C271.272 104.844 271.222 104.595 271.128 104.435ZM271.389 106.086C271.253 106.273 271.058 106.359 270.805 106.359C270.466 106.359 270.256 106.223 270.112 105.927C270.01 105.724 269.94 105.401 269.94 105.113C269.94 104.715 270.042 104.357 270.201 104.131C270.345 103.944 270.54 103.858 270.821 103.858C271.124 103.858 271.339 103.995 271.491 104.291C271.592 104.501 271.65 104.809 271.65 105.113C271.654 105.494 271.561 105.876 271.389 106.086Z" fill="#163300"/>
<path d="M273.111 106.316L272.815 106.316L272.052 103.901L272.449 103.901L272.967 105.514L273.477 103.901L273.882 103.901L273.111 106.316Z" fill="#163300"/>
<path d="M266.894 109.615L266.894 107.2L267.276 107.2L267.276 109.261L268.394 109.261L268.394 109.615L266.894 109.615Z" fill="#163300"/>
<path d="M269.52 107.87L269.274 108.548L269.757 108.548L269.52 107.87ZM270.131 109.615L269.894 108.937L269.138 108.937L268.9 109.615L268.495 109.615L269.325 107.2L269.707 107.2L270.536 109.615L270.131 109.615Z" fill="#163300"/>
<path d="M272.164 109.615L271.241 107.979L271.241 109.615L270.86 109.615L270.86 107.2L271.241 107.2L272.122 108.743L272.122 107.2L272.503 107.2L272.503 109.615L272.164 109.615Z" fill="#163300"/>
<path d="M273.041 109.615L273.041 107.2L274.463 107.2L274.463 107.582L273.419 107.582L273.419 108.174L274.124 108.174L274.124 108.564L273.419 108.564L273.419 109.226L274.541 109.226L274.541 109.615L273.041 109.615Z" fill="#163300"/>
<path d="M266.914 122.209L266.914 120.195L268.102 120.195L268.102 120.515L267.233 120.515L267.233 121.009L267.821 121.009L267.821 121.333L267.233 121.333L267.233 121.886L268.168 121.886L268.168 122.209L266.914 122.209Z" fill="#163300"/>
<path d="M270.123 122.209L269.352 120.846L269.352 122.209L269.037 122.209L269.037 120.195L269.352 120.195L270.088 121.481L270.088 120.195L270.404 120.195L270.404 122.209L270.123 122.209Z" fill="#163300"/>
<path d="M272.301 120.6C272.25 120.55 272.18 120.515 272.094 120.515L271.732 120.515L271.732 121.886L272.051 121.886C272.157 121.886 272.223 121.862 272.277 121.808C272.398 121.687 272.46 121.469 272.46 121.2C272.46 120.932 272.398 120.706 272.301 120.6ZM272.433 122.096C272.355 122.166 272.25 122.201 272.145 122.209C272.126 122.209 272.083 122.209 272.032 122.209L271.417 122.209L271.417 120.195L272.067 120.195C272.274 120.195 272.351 120.215 272.457 120.3C272.671 120.484 272.788 120.803 272.788 121.196C272.788 121.602 272.659 121.921 272.433 122.096Z" fill="#163300"/>
<path d="M274.786 122.092C274.673 122.19 274.517 122.248 274.35 122.248C274.003 122.248 273.75 122.042 273.614 121.738L273.917 121.625C274.003 121.816 274.159 121.921 274.35 121.921C274.533 121.921 274.661 121.792 274.661 121.625C274.661 121.356 274.35 121.313 274.089 121.208C273.968 121.157 273.699 121.037 273.699 120.705C273.699 120.312 273.968 120.16 274.326 120.16C274.611 120.16 274.802 120.324 274.899 120.569L274.619 120.655C274.619 120.655 274.548 120.483 274.322 120.48C274.174 120.472 273.999 120.53 274.011 120.713C274.038 121.087 274.985 120.838 274.985 121.633C274.985 121.816 274.915 121.975 274.786 122.092Z" fill="#163300"/>
<path d="M271.732 125.995L271.732 124.947L271.311 125.995L270.895 124.947L270.895 125.995L270.606 125.995L270.606 124.184L270.895 124.184L271.311 125.2L271.732 124.184L272.02 124.184L272.02 125.995L271.732 125.995Z" fill="#163300"/>
<path d="M272.659 125.995L272.659 124.184" stroke="#163300" stroke-width="0.25"/>
<path d="M273.302 125.995L273.302 124.184L273.59 124.184L273.59 125.726L274.428 125.726L274.428 125.995L273.302 125.995Z" fill="#163300"/>
<path d="M274.759 125.995L274.759 124.184L275.826 124.184L275.826 124.468L275.047 124.468L275.047 124.916L275.573 124.916L275.573 125.204L275.047 125.204L275.047 125.703L275.884 125.703L275.884 125.995L274.759 125.995Z" fill="#163300"/>
<path d="M268.242 126.319C268.246 126.132 268.289 125.98 268.378 125.828C268.444 125.703 268.55 125.602 268.663 125.516C268.69 125.497 268.713 125.481 268.737 125.466L268.822 125.419L268.9 125.372L268.978 125.325C269.04 125.286 269.087 125.216 269.087 125.15C269.087 125.029 268.951 124.936 268.791 124.936C268.628 124.936 268.526 125.014 268.499 125.162L268.246 125.103C268.3 124.838 268.511 124.675 268.795 124.675C269.099 124.675 269.344 124.889 269.344 125.154C269.344 125.279 269.29 125.403 269.181 125.501C269.157 125.516 269.134 125.536 269.114 125.543L269.037 125.594L268.951 125.641L268.873 125.688C268.721 125.777 268.635 125.875 268.557 126.054L269.348 126.054L269.348 126.315L268.242 126.315" fill="#163300"/>
<path fill-rule="evenodd" clip-rule="evenodd" d="M278.899 126.723C278.899 126.922 278.732 127.089 278.533 127.093L262.831 127.093C262.633 127.093 262.465 126.922 262.465 126.723L262.465 103.842C262.465 103.64 262.629 103.476 262.831 103.476L278.533 103.476C278.732 103.476 278.895 103.644 278.899 103.842L278.899 126.723ZM278.533 103.009L262.831 103.009C262.376 103.009 261.994 103.391 261.994 103.846L261.994 126.723C261.994 127.179 262.376 127.561 262.831 127.561L278.533 127.561C278.989 127.561 279.371 127.179 279.371 126.723L279.371 103.842C279.371 103.387 278.989 103.009 278.533 103.009Z" fill="#163300"/>
</g>
<g opacity="0.3">
<path d="M273.935 100.18C273.678 100.083 273.405 100.036 273.13 100.043C271.966 100.068 270.82 100.33 269.762 100.814C268.703 101.298 267.755 101.993 266.975 102.857C266.772 103.067 266.634 103.332 266.579 103.619C266.392 104.722 267.508 105.037 268.282 104.754C268.862 104.471 269.392 104.095 269.851 103.641C270.636 103.012 271.552 102.564 272.531 102.331C273.071 102.265 273.589 102.08 274.048 101.789C274.194 101.705 274.314 101.582 274.393 101.434C274.472 101.285 274.508 101.117 274.496 100.949C274.485 100.781 274.426 100.62 274.326 100.484C274.227 100.348 274.092 100.243 273.935 100.18Z" fill="white"/>
</g>
<path d="M197.9 157.65C197.822 157.642 199.687 148.361 202.065 136.937C204.443 125.512 206.439 116.263 206.517 116.278C206.594 116.292 204.73 125.567 202.351 136.997C199.972 148.427 197.954 157.667 197.9 157.65Z" fill="#0E0F0C"/>
<path d="M198.521 158.193C198.427 158.331 198.293 158.438 198.138 158.5C197.982 158.562 197.811 158.576 197.648 158.54C197.484 158.504 197.335 158.42 197.22 158.299C197.104 158.178 197.028 158.025 197 157.859C196.972 157.694 196.994 157.525 197.064 157.372C197.133 157.22 197.246 157.092 197.389 157.004C197.532 156.917 197.697 156.874 197.865 156.881C198.032 156.889 198.193 156.946 198.328 157.046C198.502 157.175 198.619 157.366 198.656 157.58C198.692 157.794 198.643 158.014 198.521 158.193Z" fill="#0E0F0C"/>
<path d="M209.657 117.708C197.389 116.345 188.519 105.257 189.882 92.9894C191.244 80.7218 202.333 71.8509 214.6 73.2138C226.868 74.5768 235.739 85.6651 234.376 97.9327C233.013 110.2 221.925 119.071 209.657 117.708Z" stroke="#A0B78E" stroke-width="0.5" stroke-linecap="round" stroke-linejoin="round"/>
<path d="M210.006 114.571C199.447 113.398 191.847 103.888 193.019 93.3381C194.191 82.7882 203.702 75.179 214.252 76.3511C224.802 77.5232 232.411 87.0344 231.239 97.5844C230.067 108.134 220.556 115.744 210.006 114.571Z" fill="white" stroke="#A0B78E"/>
<g clip-path="url(#clip2_5901_7063)">
<path d="M210.187 100.607L203.017 93.2783C201.59 94.9834 200.861 97.2375 200.861 99.8571L210.084 100.579C210.12 100.582 210.155 100.592 210.187 100.607Z" fill="#163300"/>
<path d="M212.141 98.8306C212.409 98.8313 212.675 98.8781 212.928 98.9687L212.928 85.0521C212.928 84.8202 212.835 84.5978 212.671 84.4338C212.508 84.2699 212.285 84.1777 212.053 84.1777C211.821 84.1777 211.599 84.2699 211.435 84.4338C211.271 84.5978 211.179 84.8202 211.179 85.0521L211.179 99.0422C211.481 98.9046 211.809 98.8325 212.141 98.8306Z" fill="#163300"/>
<path d="M212.141 102.852C213.058 102.852 213.802 102.108 213.802 101.191C213.802 100.273 213.058 99.5293 212.141 99.5293C211.223 99.5293 210.479 100.273 210.479 101.191C210.479 102.108 211.223 102.852 212.141 102.852Z" fill="#163300"/>
<path d="M210.479 99.5157L210.479 89.7979C207.568 90.0392 205.167 91.0482 203.484 92.7568L210.304 99.7186C210.355 99.6486 210.415 99.5804 210.479 99.5157Z" fill="#163300"/>
<path d="M219.923 97.4316L219.896 97.4316C219.019 97.4337 218.149 97.6022 217.334 97.9283C216.153 98.4142 214.901 98.7093 213.627 98.8027L213.627 99.3553C213.933 99.6047 214.172 99.927 214.322 100.293C214.471 100.658 214.526 101.056 214.482 101.448C214.438 101.841 214.296 102.216 214.069 102.54C213.842 102.863 213.538 103.124 213.184 103.299C212.829 103.475 212.437 103.558 212.042 103.542C211.648 103.526 211.263 103.411 210.924 103.208C210.586 103.005 210.303 102.72 210.103 102.379C209.903 102.038 209.792 101.653 209.78 101.258L201.164 100.579C201.48 100.688 203.031 101.256 203.729 102.185C204.693 103.47 204.708 105.28 204.708 105.298L204.708 105.53L204.924 105.621C205.013 105.658 207.143 106.522 212.053 106.522C216.964 106.522 218.912 105.822 218.992 105.801L219.167 105.738L219.214 105.563C219.214 105.548 219.653 103.967 220.545 102.898C221.36 101.919 223.039 101.073 223.056 101.064L223.249 100.968L223.249 100.754C223.249 100.318 223.163 99.8853 222.996 99.482C222.828 99.0786 222.583 98.7122 222.274 98.4036C221.965 98.095 221.599 97.8503 221.195 97.6836C220.792 97.5168 220.359 97.4312 219.923 97.4316Z" fill="#163300"/>
</g>
<path d="M148.471 156.207C148.393 156.207 148.325 146.033 148.325 133.487C148.325 120.94 148.393 110.772 148.471 110.772C148.549 110.772 148.616 120.94 148.616 133.487C148.616 146.033 148.555 156.207 148.471 156.207Z" fill="#0E0F0C"/>
<path d="M148.471 157.309C148.931 157.309 149.305 156.936 149.305 156.475C149.305 156.015 148.931 155.642 148.471 155.642C148.01 155.642 147.637 156.015 147.637 156.475C147.637 156.936 148.01 157.309 148.471 157.309Z" fill="#0E0F0C"/>
<path d="M148.258 109.882C135.915 109.882 125.874 99.8415 125.874 87.4984C125.874 75.1552 135.915 65.1143 148.258 65.1143C160.601 65.1143 170.642 75.1552 170.642 87.4984C170.642 99.8415 160.601 109.882 148.258 109.882Z" stroke="#A0B78E" stroke-width="0.5" stroke-linecap="round" stroke-linejoin="round"/>
<path d="M148.258 106.726C137.635 106.726 129.03 98.1133 129.03 87.4983C129.03 76.8834 137.643 68.2705 148.258 68.2705C158.873 68.2705 167.486 76.8834 167.486 87.4983C167.486 98.1131 158.873 106.726 148.258 106.726Z" fill="white" stroke="#A0B78E"/>
<g clip-path="url(#clip3_5901_7063)">
<path d="M144.568 85.1987L145.626 85.8693V84.4293L144.568 83.7588V85.1987Z" fill="#163300"/>
<path d="M142.461 90.563L143.519 91.2335V89.7936L142.461 89.123V90.563Z" fill="#163300"/>
<path d="M142.461 85.1987L143.519 85.8693V84.4293L142.461 83.7588V85.1987Z" fill="#163300"/>
<path d="M142.461 87.8813L143.519 88.5519V87.1119L142.461 86.4414V87.8813Z" fill="#163300"/>
<path d="M144.568 87.8813L145.626 88.5519V87.1119L144.568 86.4414V87.8813Z" fill="#163300"/>
<path d="M144.568 90.563L145.626 91.2335V89.7936L144.568 89.123V90.563Z" fill="#163300"/>
<path d="M142.461 93.2456L143.519 93.9161V92.4762L142.461 91.8057V93.2456Z" fill="#163300"/>
<path d="M144.568 82.5171L145.626 83.1876V81.7477L144.568 81.0771V82.5171Z" fill="#163300"/>
<path d="M144.568 93.2456L145.626 93.9161V92.4762L144.568 91.8057V93.2456Z" fill="#163300"/>
<path d="M142.461 82.5171L143.519 83.1876V81.7477L142.461 81.0771V82.5171Z" fill="#163300"/>
<path d="M146.676 78.5547V96.4424C147.855 96.3373 148.783 95.3442 148.783 94.1379V80.8591C148.783 79.6529 147.855 78.6598 146.676 78.5547Z" fill="#163300"/>
<path d="M139.305 80.8591V94.1379C139.305 95.3442 140.233 96.3373 141.412 96.4424V78.5547C140.233 78.6598 139.305 79.6529 139.305 80.8591Z" fill="#163300"/>
<path d="M145.626 80.5051V78.5449H144.568V79.8346L145.626 80.5051Z" fill="#163300"/>
<path d="M142.461 94.4873V96.4518H143.519V95.1578L142.461 94.4873Z" fill="#163300"/>
<path d="M144.568 94.4873V96.4518H145.626V95.1578L144.568 94.4873Z" fill="#163300"/>
<path d="M143.519 80.5051V78.5449H142.461V79.8346L143.519 80.5051Z" fill="#163300"/>
<path d="M156.95 84.09L156.847 84.0307C157.042 83.8763 157.105 83.6006 156.984 83.3734C156.848 83.1177 156.53 83.0209 156.274 83.157L155.785 83.4176L154.576 82.7194L155.785 82.0211L156.274 82.2817C156.353 82.3235 156.437 82.3434 156.52 82.3434C156.708 82.3434 156.889 82.2424 156.984 82.0653C157.105 81.8382 157.042 81.5624 156.847 81.408L156.95 81.3487C157.2 81.2039 157.286 80.883 157.142 80.6321C156.997 80.3811 156.676 80.2952 156.425 80.4401L156.322 80.4994C156.286 80.2535 156.079 80.0608 155.821 80.0521C155.53 80.0423 155.289 80.2689 155.279 80.5585L155.26 81.1124L154.051 81.8106V80.4143L154.521 80.1209C154.767 79.9676 154.842 79.644 154.689 79.3981C154.552 79.1798 154.282 79.0967 154.051 79.1882V79.0695C154.051 78.7798 153.816 78.5449 153.526 78.5449C153.237 78.5449 153.002 78.7798 153.002 79.0695V79.1882C152.771 79.0966 152.5 79.1798 152.364 79.3981C152.211 79.644 152.286 79.9676 152.531 80.1209L153.002 80.4143V81.8107L151.792 81.1125L151.773 80.5586C151.764 80.269 151.522 80.0421 151.231 80.0522C150.974 80.0609 150.767 80.2536 150.73 80.4995L150.628 80.4402C150.377 80.2952 150.056 80.3813 149.911 80.6322C149.766 80.8831 149.852 81.204 150.103 81.3488L150.206 81.4081C150.011 81.5625 149.948 81.8382 150.069 82.0654C150.163 82.2425 150.345 82.3435 150.532 82.3435C150.615 82.3435 150.7 82.3236 150.778 82.2818L151.268 82.0212L152.477 82.7195L151.268 83.4177L150.779 83.1571C150.523 83.021 150.205 83.1178 150.069 83.3735C149.948 83.6007 150.011 83.8765 150.206 84.0308L150.103 84.0901C149.852 84.235 149.766 84.5558 149.911 84.8067C150.008 84.975 150.185 85.0691 150.366 85.0691C150.455 85.0691 150.545 85.0464 150.628 84.9987L150.73 84.9394C150.767 85.1853 150.974 85.3779 151.231 85.3867C151.237 85.3869 151.243 85.387 151.249 85.387C151.531 85.387 151.764 85.1638 151.773 84.8803L151.792 84.3264L153.002 83.6282V85.0247L152.531 85.318C152.286 85.4714 152.211 85.7949 152.364 86.0408C152.5 86.2591 152.771 86.3423 153.002 86.2507V86.3693C153.002 86.6591 153.237 86.894 153.526 86.894C153.816 86.894 154.051 86.6591 154.051 86.3693V86.2509C154.113 86.2756 154.178 86.2878 154.243 86.2878C154.418 86.2878 154.589 86.2002 154.689 86.0408C154.842 85.795 154.767 85.4714 154.521 85.318L154.051 85.0247V83.6282L155.26 84.3265L155.279 84.8804C155.289 85.1638 155.522 85.3871 155.803 85.3871C155.809 85.3871 155.815 85.387 155.821 85.3868C156.079 85.378 156.286 85.1853 156.322 84.9395L156.425 84.9988C156.507 85.0465 156.598 85.0691 156.687 85.0691C156.868 85.0691 157.044 84.9751 157.141 84.8068C157.286 84.5557 157.2 84.2349 156.95 84.09Z" fill="#163300"/>
</g>
<path d="M129.17 62.4957C129.17 62.4957 128.454 62.423 127.575 62.2887C126.697 62.1544 125.992 62.0256 125.992 62.0033C125.992 61.9809 126.708 62.076 127.587 62.2159C128.465 62.3558 129.176 62.4733 129.17 62.4957Z" fill="white"/>
<path d="M82.7847 124.992C70.4416 124.992 60.4006 114.951 60.4006 102.608C60.4006 90.2646 70.4416 80.2236 82.7847 80.2236C95.1279 80.2236 105.169 90.2646 105.169 102.608C105.169 114.951 95.1279 124.992 82.7847 124.992Z" stroke="#A0B78E" stroke-width="0.5" stroke-linecap="round" stroke-linejoin="round"/>
<path d="M82.7845 121.835C72.161 121.835 63.5568 113.223 63.5568 102.608C63.5568 91.9928 72.1697 83.3799 82.7845 83.3799C93.3994 83.3799 102.012 91.9928 102.012 102.608C102.012 113.222 93.3994 121.835 82.7845 121.835Z" fill="white" stroke="#A0B78E"/>
<g clip-path="url(#clip4_5901_7063)">
<path d="M78.601 103.543C78.1731 104.562 76.691 103.272 77.1456 102.19C77.5665 101.188 79.0625 102.445 78.601 103.543Z" fill="#163300"/>
<path d="M79.9703 98.366C79.4042 99.3919 80.7355 100.832 81.2725 99.8599C81.8382 98.835 80.5061 97.3946 79.9703 98.366ZM79.9703 98.366C79.4042 99.3919 80.7355 100.832 81.2725 99.8599C81.8382 98.835 80.5061 97.3946 79.9703 98.366ZM79.9703 98.366C79.4042 99.3919 80.7355 100.832 81.2725 99.8599C81.8382 98.835 80.5061 97.3946 79.9703 98.366ZM85.758 98.3644C85.4072 97.7284 84.6177 98.123 84.3878 98.9107C84.2488 99.3878 84.3615 100.032 84.7989 100.156C85.4774 100.351 86.1864 99.1407 85.758 98.3644ZM87.8999 101.978C87.245 101.978 86.6498 102.993 86.947 103.698C87.2266 104.362 88.0545 104.054 88.3672 103.295C88.5991 102.732 88.4614 101.978 87.8999 101.978ZM87.8999 101.978C87.245 101.978 86.6498 102.993 86.947 103.698C87.2266 104.362 88.0545 104.054 88.3672 103.295C88.5991 102.732 88.4614 101.978 87.8999 101.978ZM79.9703 98.366C79.4042 99.3919 80.7355 100.832 81.2725 99.8599C81.8382 98.835 80.5061 97.3946 79.9703 98.366ZM85.758 98.3644C85.4072 97.7284 84.6177 98.123 84.3878 98.9107C84.2488 99.3878 84.3615 100.032 84.7989 100.156C85.4774 100.351 86.1864 99.1407 85.758 98.3644ZM90.1931 95.1777C88.2116 93.1959 85.5764 92.1045 82.7738 92.1045C79.9712 92.1045 77.336 93.1959 75.3545 95.1777C73.3726 97.1593 72.2812 99.7945 72.2812 102.597C72.2812 105.4 73.3726 108.034 75.3545 110.016C77.336 111.998 79.9712 113.09 82.7738 113.09C85.5764 113.09 88.2116 111.998 90.1931 110.016C92.1749 108.034 93.2663 105.4 93.2663 102.597C93.2663 99.7945 92.1749 97.1593 90.1931 95.1777ZM83.2074 98.5669C83.5792 97.2908 84.7362 96.5949 85.7524 96.8856C87.9843 97.5234 87.281 101.404 84.9314 101.404C83.6043 101.404 82.793 99.9879 83.2074 98.5669ZM78.8935 97.7722C79.7548 96.211 81.9623 96.6525 82.5204 98.5669C82.9393 100.002 82.1085 101.404 80.799 101.404C79.1722 101.404 78.0609 99.2821 78.8935 97.7722ZM76.9926 100.721C78.7009 100.031 80.4888 102.224 79.7346 104.019C79.4226 104.761 78.7724 105.137 78.105 105.137C75.8434 105.137 74.9351 101.552 76.9926 100.721ZM86.315 107.835C85.7781 108.348 84.8899 108.463 84.3272 108.312C82.83 107.909 80.7925 108.374 80.5618 108.374C79.3129 108.374 78.3772 107.522 78.6526 106.265C78.9764 104.789 80.1396 104.873 80.4146 103.475C80.9478 100.752 84.4492 100.743 84.9846 103.476C85.258 104.875 86.4184 104.789 86.7421 106.264C86.7463 106.264 86.9995 107.182 86.315 107.835ZM87.4422 105.29C85.3178 105.29 84.9846 102.101 86.9426 101.009C87.9431 100.451 89.096 100.822 89.5358 101.867C90.1657 103.366 89.0066 105.29 87.4422 105.29ZM87.8999 101.978C87.245 101.978 86.6498 102.993 86.947 103.698C87.2266 104.362 88.0545 104.054 88.3672 103.295C88.5991 102.732 88.4614 101.978 87.8999 101.978ZM84.7989 100.156C85.4774 100.351 86.1864 99.1407 85.758 98.3644C85.4072 97.7284 84.6177 98.123 84.3878 98.9107C84.2488 99.3878 84.3615 100.032 84.7989 100.156ZM83.778 103.711C83.6587 103.102 83.3374 102.673 82.6353 102.673C82.448 102.673 81.8106 102.746 81.6212 103.712C81.2625 105.535 80.0519 105.624 79.854 106.528C79.7116 107.176 80.5531 107.178 80.7491 107.125C83.407 106.409 85.7469 107.866 85.5409 106.528C85.3425 105.622 84.1338 105.535 83.778 103.711ZM81.2725 99.8599C81.8382 98.835 80.5061 97.3946 79.9703 98.366C79.4042 99.3919 80.7355 100.832 81.2725 99.8599ZM85.758 98.3644C85.4072 97.7284 84.6177 98.123 84.3878 98.9107C84.2488 99.3878 84.3615 100.032 84.7989 100.156C85.4774 100.351 86.1864 99.1407 85.758 98.3644ZM79.9703 98.366C79.4042 99.3919 80.7355 100.832 81.2725 99.8599C81.8382 98.835 80.5061 97.3946 79.9703 98.366ZM85.758 98.3644C85.4072 97.7284 84.6177 98.123 84.3878 98.9107C84.2488 99.3878 84.3615 100.032 84.7989 100.156C85.4774 100.351 86.1864 99.1407 85.758 98.3644ZM79.9703 98.366C79.4042 99.3919 80.7355 100.832 81.2725 99.8599C81.8382 98.835 80.5061 97.3946 79.9703 98.366Z" fill="#163300"/>
</g>
<path d="M112.444 162.788C112.371 162.821 108.476 154.198 103.748 143.532C99.019 132.866 95.2416 124.186 95.3144 124.158C95.3871 124.13 99.282 132.743 104.011 143.414C108.739 154.086 112.539 162.754 112.444 162.788Z" fill="#0E0F0C"/>
<path d="M112.466 163.688C112.927 163.688 113.3 163.315 113.3 162.854C113.3 162.394 112.927 162.021 112.466 162.021C112.006 162.021 111.632 162.394 111.632 162.854C111.632 163.315 112.006 163.688 112.466 163.688Z" fill="#0E0F0C"/>
<path d="M27.3841 156.889C15.041 156.889 5 146.848 5 134.505C5 122.162 15.041 112.121 27.3841 112.121C39.7272 112.121 49.7682 122.162 49.7682 134.505C49.7682 146.848 39.7272 156.889 27.3841 156.889Z" stroke="#A0B78E" stroke-width="0.5" stroke-linecap="round" stroke-linejoin="round"/>
<path d="M68.6995 183.42C68.638 183.471 62.9524 177.298 55.9909 169.626C49.0295 161.954 43.4335 155.692 43.495 155.636C43.5566 155.58 49.2421 161.758 56.2036 169.43C63.165 177.102 68.7611 183.364 68.6995 183.42Z" fill="#0E0F0C"/>
<path d="M68.8453 184.366C69.3058 184.366 69.6791 183.993 69.6791 183.532C69.6791 183.072 69.3058 182.698 68.8453 182.698C68.3848 182.698 68.0115 183.072 68.0115 183.532C68.0115 183.993 68.3848 184.366 68.8453 184.366Z" fill="#0E0F0C"/>
<path d="M27.384 153.733C16.7604 153.733 8.15625 145.12 8.15625 134.505C8.15625 123.89 16.7692 115.277 27.384 115.277C37.9989 115.277 46.6118 123.89 46.6118 134.505C46.6118 145.12 37.9989 153.733 27.384 153.733Z" fill="white" stroke="#A0B78E"/>
<g clip-path="url(#clip5_5901_7063)">
<path d="M32.0474 130.775C31.5333 130.775 31.1147 130.356 31.1147 129.842C31.1147 128.813 30.2782 127.977 29.2494 127.977H27.8504C27.5926 127.977 27.384 128.185 27.384 128.443C27.384 128.701 27.5926 128.909 27.8504 128.909H29.2494C29.7635 128.909 30.182 129.328 30.182 129.842C30.182 130.871 31.0186 131.707 32.0474 131.707C32.5615 131.707 32.9801 132.126 32.9801 132.64V134.039C32.9801 134.297 33.1886 134.505 33.4464 134.505C33.7042 134.505 33.9128 134.297 33.9128 134.039V132.64C33.9127 131.611 33.0762 130.775 32.0474 130.775Z" fill="#163300"/>
<path d="M31.5811 133.573H30.6484C30.3912 133.573 30.1821 133.363 30.1821 133.106C30.1821 132.335 29.5545 131.707 28.7831 131.707C28.5258 131.707 28.3167 131.498 28.3167 131.241V130.308C28.3167 130.05 28.1081 129.842 27.8504 129.842C27.5926 129.842 27.384 130.05 27.384 130.308V131.241C27.384 132.012 28.0116 132.64 28.783 132.64C29.0403 132.64 29.2494 132.849 29.2494 133.106C29.2494 133.878 29.8769 134.505 30.6484 134.505H31.5811C31.8389 134.505 32.0474 134.297 32.0474 134.039C32.0474 133.781 31.8389 133.573 31.5811 133.573Z" fill="#163300"/>
<path d="M27.3841 123.313C21.2129 123.313 16.192 128.334 16.192 134.506C16.192 140.677 21.2129 145.698 27.3841 145.698C33.5553 145.698 38.5761 140.677 38.5761 134.506C38.5761 128.334 33.5553 123.313 27.3841 123.313ZM27.3841 143.832C22.2412 143.832 18.0574 139.648 18.0574 134.506C18.0574 132.269 18.8498 130.216 20.1668 128.607L26.9979 135.438H21.3217C21.0639 135.438 20.8553 135.647 20.8553 135.905V137.77C20.8553 138.028 21.0639 138.236 21.3217 138.236H29.7959L33.2825 141.723C31.674 143.04 29.6203 143.832 27.3841 143.832ZM34.6014 140.404L32.4336 138.236H33.4464C33.7042 138.236 33.9128 138.028 33.9128 137.77V135.905C33.9128 135.647 33.7042 135.438 33.4464 135.438H29.6356L21.4856 127.288C23.0941 125.971 25.1478 125.179 27.3841 125.179C32.5269 125.179 36.7108 129.363 36.7108 134.506C36.7108 136.742 35.9184 138.795 34.6014 140.404ZM32.0474 137.304V136.371H32.9801V137.304H32.0474Z" fill="#163300"/>
</g>
</g>
<defs>
<clipPath id="clip0_5901_7063">
<rect width="342" height="228" fill="white" transform="translate(3 62)"/>
</clipPath>
<clipPath id="clip1_5901_7063">
<rect width="18" height="25.179" fill="white" transform="translate(261.682 102.693)"/>
</clipPath>
<clipPath id="clip2_5901_7063">
<rect width="22.3841" height="22.3841" fill="white" transform="translate(200.861 84.1406)"/>
</clipPath>
<clipPath id="clip3_5901_7063">
<rect width="17.9073" height="17.9073" fill="white" transform="translate(139.305 78.5449)"/>
</clipPath>
<clipPath id="clip4_5901_7063">
<rect width="22.3841" height="22.3841" fill="white" transform="translate(71.5927 91.416)"/>
</clipPath>
<clipPath id="clip5_5901_7063">
<rect width="22.3841" height="22.3841" fill="white" transform="translate(16.192 123.313)"/>
</clipPath>
</defs>
</svg>
