<svg width="299" height="272" viewBox="0 0 299 272" fill="none" xmlns="http://www.w3.org/2000/svg">
<path d="M174.457 83.0714L184.623 79.6705C190.752 82.8933 197.912 84.3393 205.365 83.3514C222.178 81.1244 234.944 66.6029 234.981 49.6287C235.029 28.3071 216.137 11.9014 195.058 14.9612C178.154 17.4157 165.565 32.3105 165.897 49.4094C166.067 58.1527 169.433 66.0218 174.803 72.0109L174.787 72.0001L174.457 83.0714Z" fill="white"/>
<path d="M175.109 83.5615C175.109 83.5615 175.133 83.2973 175.158 82.8134C175.182 82.2963 175.215 81.5893 175.257 80.6767C175.336 78.782 175.451 76.0445 175.598 72.4971L175.35 72.6249L175.366 72.6357C175.44 72.6856 175.54 72.6656 175.589 72.5922C175.63 72.5299 175.62 72.4494 175.574 72.3958C172.65 69.074 169.366 64.0935 167.768 57.4112C166.945 54.093 166.654 50.372 166.983 46.4736C167.308 42.5796 168.33 38.4906 170.23 34.5734C172.12 30.6585 174.883 26.9231 178.457 23.8119C182.02 20.6996 186.398 18.2214 191.28 16.8005C200.996 13.9228 212.87 15.6791 221.76 22.6729L223.415 23.9881L224.938 25.4429C225.998 26.3644 226.814 27.5119 227.752 28.5309C229.424 30.7381 230.95 33.0431 232.042 35.5256C234.321 40.444 235.37 45.7593 235.259 50.8786C235.11 56.0016 233.803 60.8945 231.669 65.1469C229.538 69.408 226.596 73.0285 223.269 75.8442C216.571 81.5049 208.537 83.8457 201.741 83.8937C194.877 83.9879 189.251 82.041 185.348 80.0195C185.305 80.0167 185.265 80.015 185.222 80.0122C181.983 81.1407 179.479 82.012 177.747 82.6157C176.915 82.9106 176.268 83.1391 175.793 83.3071C175.347 83.4659 175.109 83.5615 175.109 83.5615C175.1 83.5727 175.314 83.5094 175.744 83.3762C176.212 83.2281 176.854 83.0272 177.679 82.7656C179.451 82.1967 182.012 81.3745 185.325 80.3113L185.201 80.3017C189.112 82.3971 194.787 84.4295 201.748 84.3883C208.64 84.3932 216.83 82.066 223.677 76.3296C227.078 73.4777 230.092 69.7989 232.279 65.4598C234.47 61.1305 235.817 56.1367 235.981 50.9064C236.106 45.682 235.043 40.2499 232.719 35.2204C231.603 32.6808 230.049 30.3243 228.338 28.069C227.381 27.0248 226.547 25.8555 225.464 24.9122L223.908 23.4268L222.217 22.0811C213.131 14.9329 200.986 13.15 191.072 16.1096C186.09 17.5714 181.628 20.1125 178.003 23.2972C174.369 26.4821 171.566 30.2997 169.658 34.2954C167.741 38.2945 166.724 42.4618 166.414 46.4229C166.102 50.3874 166.424 54.1621 167.284 57.5241C168.957 64.2927 172.336 69.2997 175.335 72.6096L175.541 72.3686L175.526 72.3578C175.453 72.3089 175.354 72.3278 175.305 72.4012C175.287 72.4257 175.279 72.459 175.279 72.4866C175.215 76.0859 175.166 78.8636 175.13 80.7853C175.119 81.6799 175.109 82.3734 175.104 82.8803C175.098 83.3441 175.1 83.5727 175.109 83.5615Z" fill="#263238"/>
<path d="M189.977 41.2964C190.855 41.2964 191.643 41.5243 192.34 41.98C193.043 42.4292 193.6 43.0347 194.01 43.7964C194.42 44.5581 194.625 45.4045 194.625 46.3354C194.625 47.7482 194.29 49.0828 193.619 50.3394C193.176 51.1792 192.623 51.9149 191.959 52.5464C191.295 53.1714 190.566 53.6564 189.771 54.0015C188.984 54.3465 188.167 54.519 187.32 54.519C186.396 54.519 185.585 54.2912 184.889 53.8354C184.199 53.3797 183.661 52.7547 183.277 51.9604C182.9 51.1662 182.711 50.2677 182.711 49.2651C182.711 47.911 183.069 46.6121 183.785 45.3687C184.267 44.5353 184.84 43.8159 185.504 43.2104C186.168 42.5985 186.884 42.1265 187.652 41.7944C188.421 41.4624 189.195 41.2964 189.977 41.2964ZM189.527 42.1167C188.824 42.1167 188.167 42.3153 187.555 42.7124C186.949 43.103 186.415 43.6304 185.953 44.2944C185.491 44.9585 185.13 45.7072 184.869 46.5405C184.615 47.3739 184.488 48.23 184.488 49.1089C184.488 49.9943 184.618 50.7821 184.879 51.4722C185.139 52.1558 185.517 52.6961 186.012 53.0933C186.513 53.4839 187.118 53.6792 187.828 53.6792C188.505 53.6792 189.143 53.4806 189.742 53.0835C190.348 52.6799 190.882 52.1395 191.344 51.4624C191.806 50.7853 192.167 50.0269 192.428 49.187C192.695 48.3472 192.828 47.4878 192.828 46.6089C192.828 45.7365 192.698 44.965 192.438 44.2944C192.184 43.6174 191.809 43.0868 191.314 42.7026C190.826 42.312 190.23 42.1167 189.527 42.1167ZM199.352 45.8276C200.12 45.8276 200.715 46.0946 201.139 46.6284C201.562 47.1623 201.773 47.8979 201.773 48.8354C201.773 49.506 201.643 50.1733 201.383 50.8374C201.122 51.495 200.781 52.0939 200.357 52.6343C199.934 53.1746 199.469 53.6076 198.961 53.9331C198.453 54.2586 197.952 54.4214 197.457 54.4214C196.676 54.4214 196.08 54.1675 195.67 53.6597C195.26 53.1519 195.055 52.4292 195.055 51.4917C195.055 50.8146 195.182 50.144 195.436 49.48C195.696 48.8094 196.038 48.2007 196.461 47.6538C196.884 47.1004 197.346 46.6577 197.848 46.3257C198.355 45.9937 198.857 45.8276 199.352 45.8276ZM199.117 46.6284C198.792 46.6284 198.476 46.7716 198.17 47.0581C197.864 47.3381 197.587 47.7059 197.34 48.1616C197.092 48.6174 196.897 49.1154 196.754 49.6558C196.611 50.1961 196.539 50.7235 196.539 51.2378C196.539 51.993 196.66 52.5789 196.9 52.9956C197.141 53.4123 197.444 53.6206 197.809 53.6206C198.134 53.6206 198.443 53.4806 198.736 53.2007C199.036 52.9142 199.303 52.5431 199.537 52.0874C199.771 51.6252 199.954 51.1239 200.084 50.5835C200.221 50.0431 200.289 49.5125 200.289 48.9917C200.289 48.2235 200.185 47.6375 199.977 47.2339C199.768 46.8302 199.482 46.6284 199.117 46.6284ZM208.668 45.8276C209.267 45.8276 209.729 46.0848 210.055 46.5991C210.38 47.1134 210.543 47.7352 210.543 48.4644C210.543 49.3628 210.257 50.284 209.684 51.228C209.306 51.853 208.873 52.4064 208.385 52.8882C207.896 53.3634 207.405 53.7345 206.91 54.0015C206.422 54.2684 205.973 54.4019 205.562 54.4019C205.23 54.4019 204.97 54.3498 204.781 54.2456L204.234 57.1558C204.195 57.3185 204.176 57.5008 204.176 57.7026C204.176 57.9565 204.267 58.1063 204.449 58.1519C204.618 58.1909 204.924 58.2104 205.367 58.2104C205.393 58.2104 205.406 58.2495 205.406 58.3276C205.406 58.5295 205.374 58.6727 205.309 58.7573C205.263 58.7573 205.208 58.7573 205.143 58.7573C205.084 58.7573 205.019 58.7541 204.947 58.7476C204.876 58.741 204.811 58.7378 204.752 58.7378C204.7 58.7378 204.658 58.7378 204.625 58.7378C203.74 58.7378 202.809 58.7964 201.832 58.9136C201.793 58.9006 201.773 58.8485 201.773 58.7573C201.773 58.5685 201.799 58.4318 201.852 58.3472C202.203 58.3472 202.464 58.243 202.633 58.0347C202.77 57.8589 202.874 57.5789 202.945 57.1948L204.488 49.2261L203.551 50.1636C203.473 50.0724 203.434 49.9422 203.434 49.7729C203.434 49.7209 203.453 49.6753 203.492 49.6362L204.645 48.4058L205.152 45.8667C205.361 45.8146 205.576 45.7886 205.797 45.7886C206.018 45.7886 206.227 45.8341 206.422 45.9253C206.363 46.1987 206.314 46.4266 206.275 46.6089C206.243 46.7912 206.22 46.9279 206.207 47.019C206.337 46.9019 206.454 46.7977 206.559 46.7065C206.663 46.6154 206.757 46.5373 206.842 46.4722C207.005 46.342 207.258 46.202 207.604 46.0522C207.949 45.9025 208.303 45.8276 208.668 45.8276ZM207.887 46.9604C207.112 46.9604 206.487 47.3055 206.012 47.9956L205.172 52.312C205.12 52.6115 205.146 52.8849 205.25 53.1323C205.354 53.3797 205.582 53.5034 205.934 53.5034C206.311 53.5034 206.686 53.37 207.057 53.103C207.434 52.8296 207.776 52.4683 208.082 52.019C208.388 51.5698 208.632 51.0718 208.814 50.5249C209.003 49.9715 209.098 49.4149 209.098 48.855C209.098 47.592 208.694 46.9604 207.887 46.9604ZM215.465 45.769C216.207 45.769 216.793 46.0164 217.223 46.5112C217.288 46.661 217.32 46.7977 217.32 46.9214C217.32 47.1558 217.258 47.3576 217.135 47.5269C217.011 47.6961 216.852 47.7808 216.656 47.7808C216.48 47.7808 216.318 47.6864 216.168 47.4976C216.025 47.3088 215.846 47.1167 215.631 46.9214C215.416 46.7261 215.133 46.6284 214.781 46.6284C214.508 46.6284 214.293 46.7196 214.137 46.9019C213.98 47.0841 213.902 47.2925 213.902 47.5269C213.902 47.8654 214.029 48.2267 214.283 48.6108C214.537 48.995 214.814 49.3368 215.113 49.6362C215.413 49.9357 215.689 50.3003 215.943 50.73C216.197 51.1597 216.324 51.5959 216.324 52.0386C216.324 52.7547 216.064 53.3341 215.543 53.7769C215.022 54.2196 214.352 54.4409 213.531 54.4409C212.789 54.4409 212.203 54.1935 211.773 53.6987C211.708 53.5946 211.676 53.4709 211.676 53.3276C211.676 53.0933 211.738 52.8849 211.861 52.7026C211.985 52.5203 212.145 52.4292 212.34 52.4292C212.516 52.4292 212.678 52.5236 212.828 52.7124C212.971 52.9012 213.15 53.0933 213.365 53.2886C213.58 53.4839 213.863 53.5815 214.215 53.5815C214.501 53.5815 214.732 53.4871 214.908 53.2983C215.084 53.1095 215.172 52.9045 215.172 52.6831C215.172 52.3446 215.045 51.9832 214.791 51.5991C214.537 51.215 214.26 50.8732 213.961 50.5737C213.661 50.2743 213.385 49.9097 213.131 49.48C212.877 49.0503 212.75 48.6141 212.75 48.1714C212.75 47.8068 212.87 47.439 213.111 47.0679C213.352 46.6968 213.678 46.3875 214.088 46.1401C214.498 45.8927 214.957 45.769 215.465 45.769ZM221.344 41.9995C221.539 41.9995 221.689 42.0841 221.793 42.2534C221.897 42.4227 221.949 42.618 221.949 42.8394C221.949 42.9956 221.842 43.4741 221.627 44.2749C221.464 44.8869 221.272 45.59 221.051 46.3843C220.836 47.1785 220.618 47.9826 220.396 48.7964C220.182 49.6037 219.99 50.3394 219.82 51.0034C219.794 51.1206 219.713 51.2215 219.576 51.3062C219.439 51.3908 219.339 51.4331 219.273 51.4331C219.195 51.4331 219.156 51.3159 219.156 51.0815C219.156 51.0685 219.169 50.9448 219.195 50.7104C219.228 50.4761 219.27 50.131 219.322 49.6753C219.4 49.0633 219.488 48.3537 219.586 47.5464C219.69 46.7391 219.794 45.9351 219.898 45.1343C220.009 44.327 220.107 43.6336 220.191 43.0542C220.23 42.8328 220.361 42.6017 220.582 42.3608C220.803 42.12 221.057 41.9995 221.344 41.9995ZM217.984 53.6206C217.984 53.256 218.108 52.95 218.355 52.7026C218.603 52.4552 218.909 52.3315 219.273 52.3315C219.508 52.3315 219.706 52.4227 219.869 52.605C220.032 52.7873 220.113 52.9956 220.113 53.23C220.113 53.6076 219.993 53.9299 219.752 54.1968C219.511 54.4637 219.208 54.5972 218.844 54.5972C218.596 54.5972 218.391 54.4995 218.229 54.3042C218.066 54.1089 217.984 53.881 217.984 53.6206Z" fill="#0E0F0C"/>
<g clip-path="url(#clip0_6456_21150)">
<path d="M245.766 198.093C245.589 196.965 244.532 196.192 243.399 196.369C242.27 196.545 241.498 197.605 241.674 198.734C241.972 200.662 242.348 206.701 240.264 209.131C239.813 209.656 239.267 209.972 238.582 210.097L238.772 198.595C238.799 196.924 237.453 195.555 235.778 195.555C234.097 195.555 232.744 196.941 232.785 198.622L233.327 220.45C232.609 220.335 232.042 220.02 231.574 219.474C229.49 217.044 229.869 211.005 230.164 209.077C230.34 207.948 229.567 206.888 228.439 206.711C227.306 206.535 226.249 207.308 226.072 208.436C225.923 209.385 224.726 217.844 228.425 222.161C229.696 223.646 231.419 224.49 233.429 224.618L233.663 234.121H238.182L238.511 214.269C240.477 214.116 242.159 213.279 243.41 211.818C247.112 207.501 245.915 199.046 245.766 198.093Z" fill="#BDBDBD"/>
<path d="M52.8476 216.6C52.7357 215.882 52.061 215.387 51.3389 215.502C50.6202 215.614 50.1252 216.288 50.2405 217.01C50.4304 218.24 50.6711 222.09 49.3421 223.639C49.054 223.974 48.7082 224.174 48.2708 224.256L48.3929 216.922C48.4098 215.858 47.5521 214.984 46.4842 214.984C45.4129 214.984 44.5518 215.868 44.5755 216.939L44.9213 230.854C44.4636 230.779 44.1009 230.579 43.806 230.234C42.477 228.685 42.7177 224.835 42.9076 223.605C43.0194 222.887 42.5279 222.209 41.8091 222.097C41.087 221.985 40.4124 222.476 40.3005 223.195C40.2056 223.802 39.4428 229.19 41.799 231.945C42.6092 232.891 43.7076 233.429 44.9891 233.511L45.1383 239.567H48.0199L48.2301 226.913C49.4811 226.814 50.5558 226.282 51.3525 225.35C53.7053 222.595 52.9425 217.203 52.8476 216.6Z" fill="#BDBDBD"/>
<path d="M149.5 271.5C231.79 271.5 298.5 260.348 298.5 246.591C298.5 232.833 231.79 221.681 149.5 221.681C67.2096 221.681 0.5 232.833 0.5 246.591C0.5 260.348 67.2096 271.5 149.5 271.5Z" fill="url(#paint0_linear_6456_21150)"/>
<path d="M173.285 212.538C173.285 212.538 173.197 217.611 173.281 218.119C173.366 218.628 171.295 221.603 170.447 221.471C169.6 221.339 167.904 221.057 167.66 220.776C167.416 220.495 167.525 219.827 167.61 219.221C167.698 218.611 168.332 213.087 168.332 212.805C168.332 212.524 172.342 211.765 173.285 212.538Z" fill="#FFD3BC"/>
<path d="M170 217.828C168.939 218.4 168.345 220.142 168.193 220.163C168.044 220.183 167.762 220.142 167.762 219.969C167.762 219.797 167.806 219.217 167.613 219.217C167.42 219.217 167.203 220.163 167.162 221.542C167.118 222.921 166.63 226.205 167.162 226.622C167.498 226.883 170.566 228.496 170.651 228.709C170.735 228.926 170.586 230.431 170.844 230.668C171.102 230.905 171.705 231.485 172.18 231.509C172.654 231.529 175.387 231.81 176.682 231.509C177.973 231.207 179.611 230.583 179.655 230.411C179.699 230.238 179.333 226.578 178.923 226.127C178.512 225.676 175.563 221.627 175.326 221.261C175.088 220.895 174.916 220.013 174.916 219.495C174.916 218.98 174.448 217.851 173.576 217.58C172.668 217.299 170.796 217.397 170 217.828Z" fill="#FE889D"/>
<path d="M142.346 215.472C142.346 215.472 142.346 218.428 142.261 218.936C142.177 219.444 144.248 222.42 145.096 222.288C145.943 222.155 147.638 221.874 147.882 221.593C148.126 221.312 148.018 220.644 147.933 220.037C147.845 219.427 147.299 216.021 147.299 215.74C147.299 215.452 143.289 214.7 142.346 215.472Z" fill="#FFD3BC"/>
<path d="M145.075 150.267C143.875 154.625 141.607 169.56 141.607 176.819C141.607 184.078 140.882 202.584 140.882 205.394C140.882 208.207 140.58 215.184 141.305 215.547C142.031 215.91 143.729 217.001 146.031 216.638C148.333 216.276 148.94 214.822 149.001 213.49C149.062 212.158 149.608 202.588 150.154 198.894C150.7 195.2 152.639 188.073 153.91 183.491C155.181 178.906 158.151 169.692 158.938 169.726C159.724 169.76 164.633 189.951 165.04 191.096C165.45 192.242 166.227 208.498 166.277 209.864C166.328 211.229 166.277 212.541 167.135 213.097C167.993 213.653 170.624 215.018 171.986 215.117C173.353 215.218 174.261 213.046 174.512 212.389C174.766 211.731 175.214 189.985 175.051 184.02C174.888 178.056 175.363 166.93 175.085 163.304C174.81 159.678 173.922 151.904 173.356 150.267C172.797 148.63 145.075 150.267 145.075 150.267Z" fill="#192B59"/>
<path d="M136.603 99.5928C137.749 98.3219 143.089 92.3033 144.15 92.0898C145.211 91.8763 147.791 91.412 148.364 90.8189C148.94 90.2259 151.371 82.5907 150.408 81.2013C149.445 79.8118 145.726 80.2049 144.601 82.5704C143.475 84.9358 143.529 86.1728 141.672 87.8062C139.814 89.4397 131.715 96.0582 130.962 96.7258C130.209 97.3934 131.704 100.643 132.888 101.206C134.074 101.768 136.603 99.5928 136.603 99.5928Z" fill="#FFBF9D"/>
<path d="M151.367 101.426C148.638 101.999 144.102 102.483 142.607 102.968C141.109 103.453 135.21 105.52 135.254 104.639C135.298 103.758 137.983 99.8875 137.498 99.491C137.013 99.0945 134.108 98.6099 133.623 97.9931C133.138 97.3764 132.477 95.9259 131.82 96.1021C131.158 96.2784 123.503 103.405 124.026 106.137C125.26 112.572 143.356 117.259 143.77 120.065C144.184 122.871 142.366 149.779 143.356 150.768C144.346 151.758 154.832 155.557 160.117 155.886C165.403 156.214 174.671 154.374 175.177 152.985C175.682 151.595 172.597 124.86 172.956 124.86C173.315 124.86 173.414 133.275 177.441 135.451C180.099 136.887 183.754 135.406 184.452 134.613C185.15 133.82 181.953 122.634 180.509 118.859C179.062 115.087 177.678 107.289 174.407 104.524C171.135 101.758 166.518 102.226 164.928 101.579C163.338 100.928 158.005 101.396 156.659 101.253C155.317 101.111 151.367 101.426 151.367 101.426Z" fill="#FE889D"/>
<path d="M185.459 129.557C185.459 129.557 180.753 130.981 180.387 131.469C180.021 131.957 179.367 133.915 180.387 134.732C181.408 135.549 182.526 136.159 183.737 135.217C184.947 134.275 186.049 133.011 186.747 132.848C187.445 132.689 189.537 132.987 190.415 132.645C191.293 132.299 192.958 125.646 192.287 125.243C191.612 124.84 185.459 129.557 185.459 129.557Z" fill="#FFBF9D"/>
<path d="M151.388 100.528C149.869 100.213 146.936 97.3459 146.668 94.4348C146.407 91.5983 144.319 83.6243 151.584 80.6319C158.402 77.8259 165.416 80.7132 166.426 84.1733C167.369 87.4063 159.365 87.552 156.432 89.6565C153.5 91.761 153.3 93.1572 152.567 92.8251C151.832 92.493 151.388 100.528 151.388 100.528Z" fill="#353533"/>
<path d="M145.106 81.5655C143.71 82.5014 142.739 84.087 142.727 85.7466C142.719 86.8191 143.092 87.9005 142.861 88.9489C142.586 90.1999 141.53 91.1091 140.633 92.0361C139.736 92.9632 138.899 94.1945 139.219 95.4348C139.352 95.9523 139.677 96.4056 139.829 96.9177C140.294 98.4783 139.09 100.041 139.004 101.664C138.905 103.542 140.437 105.268 142.279 105.781C144.121 106.295 146.145 105.758 147.74 104.718C149.336 103.677 150.562 102.179 151.654 100.634C152.052 100.07 152.438 99.4919 152.697 98.8557C153.006 98.0928 153.125 97.2666 153.159 96.4457C153.255 94.0812 152.958 90.8789 152.503 88.5554C151.848 85.2112 151.327 83.0421 150.452 80.5402C148.593 80.0656 146.509 80.625 145.106 81.5655Z" fill="#263238"/>
<path d="M146.95 81.0757C146.369 81.7342 146.05 82.589 145.937 83.4536C145.906 83.6891 145.892 83.939 145.994 84.1549C146.095 84.3673 146.299 84.5189 146.519 84.61C147.137 84.8651 147.882 84.6733 148.397 84.2513C148.913 83.8292 149.227 83.2136 149.423 82.5836C149.619 81.9528 149.901 80.5234 149.132 80.1237C148.425 79.7552 147.372 80.5975 146.95 81.0757Z" fill="#FF6782"/>
<path d="M149.716 79.0772C150.343 78.3937 151.315 77.9003 152.237 77.7397C153.159 77.5791 153.715 77.6255 154.604 77.3337C155.449 77.0562 156.195 76.5387 157.037 76.2523C158.892 75.6205 161.039 76.2264 162.513 77.5005C162.845 77.7878 163.134 78.2161 163.511 78.4374C164.051 78.756 164.872 78.8595 165.474 79.0406C166.27 79.2806 167.08 79.5269 167.769 79.9873C168.458 80.4477 169.019 81.1633 169.08 81.9788C169.183 83.3484 167.877 84.5253 168.142 85.8592C168.287 86.5927 168.925 87.1343 169.2 87.8303C169.584 88.8001 169.17 89.9637 168.365 90.6391C167.76 91.1459 166.633 91.6304 165.815 91.4653C165.018 91.3047 164.613 90.4544 163.648 90.681C162.874 90.8631 162.082 91.3342 161.375 91.683C159.327 92.6931 157.322 93.8575 155.098 94.4009C154.39 94.574 153.774 94.8274 153.213 95.3021C153.049 95.4404 151.827 96.694 152.033 96.909C150.188 94.9862 148.623 92.8046 147.4 90.4517C146.755 89.2106 146.197 87.8936 146.085 86.5052C145.924 84.5155 146.832 82.3 149 81.8798C148.821 80.6226 149.316 79.5135 149.716 79.0772Z" fill="#263238"/>
<path d="M149.074 89.0286C150.207 88.645 151.141 89.084 151.702 90.2555C152.19 91.2745 153.3 90.9559 153.091 89.3873C155.685 87.1156 152.808 85.5229 154.957 83.3146C156.297 81.9369 159.045 82.4036 160.122 83.3253C160.638 82.4428 162.017 81.7085 163.291 82.193C164.441 82.6302 165.156 83.3342 165.661 84.9323C166.187 86.5963 165.577 86.8881 165.822 88.0596C165.916 88.5129 166.347 89.4159 166.329 90.5642C166.242 96.0151 165.046 97.3534 163.794 98.21C162.932 98.7989 161.859 99.0898 160.032 99.0505V101.576C160.032 101.576 161.422 103.525 161.451 108.45C161.451 108.45 159.597 107.556 156.186 105.676C152.687 103.749 151.636 101.876 151.636 101.876V93.9646C151.358 94.5776 150.047 95.2174 148.785 94.1359C147.188 92.7681 147.074 89.7059 149.074 89.0286Z" fill="#FFBF9D"/>
<path d="M164.974 86.9524L163.221 86.1851C163.42 85.6979 163.974 85.4748 164.458 85.6863C164.943 85.8977 165.173 86.4652 164.974 86.9524Z" fill="#263238"/>
<path d="M157.994 86.5282L156.329 87.4669C156.045 87.0217 156.188 86.4506 156.649 86.191C157.108 85.9322 157.711 86.083 157.994 86.5282Z" fill="#263238"/>
<path d="M158.577 93.1274L161.201 94.1188C160.947 94.8468 160.078 95.202 159.258 94.8575C158.545 94.5577 158.323 93.8546 158.577 93.1274Z" fill="#AF6152"/>
<path d="M160.023 94.9782C159.979 94.2421 159.382 93.6425 158.616 93.6104C158.569 93.6086 158.525 93.6157 158.479 93.6184C158.452 94.1556 158.706 94.6267 159.257 94.8578C159.515 94.9657 159.776 94.9979 160.023 94.9782Z" fill="#FFA8A7"/>
<path d="M160.457 87.467L161.102 92.354L163.601 91.0968L160.457 87.467Z" fill="#FEB087"/>
<path d="M157.827 89.6389C157.383 89.6389 157.023 89.2853 157.023 88.8492C157.023 88.4131 157.383 88.0596 157.827 88.0596C158.271 88.0596 158.631 88.4131 158.631 88.8492C158.631 89.2853 158.271 89.6389 157.827 89.6389Z" fill="#263238"/>
<path d="M163.793 89.3452C163.349 89.3452 162.989 88.9916 162.989 88.5555C162.989 88.1194 163.349 87.7659 163.793 87.7659C164.237 87.7659 164.597 88.1194 164.597 88.5555C164.597 88.9916 164.237 89.3452 163.793 89.3452Z" fill="#263238"/>
<path d="M160.032 99.0505C158.255 98.889 155.226 98.6954 153.829 96.686C153.829 96.686 153.98 97.8594 155.762 98.8275C157.016 99.5074 160.032 99.875 160.032 99.875V99.0505Z" fill="#FEB087"/>
<path d="M176.899 119.245L167.355 131.306C166.86 131.933 167.315 132.855 168.115 132.841L185.754 132.543C186.045 132.54 186.32 132.397 186.496 132.163L195.511 120.123C195.938 119.553 195.528 118.74 194.816 118.747L177.634 118.889C177.346 118.886 177.075 119.018 176.899 119.245Z" fill="url(#paint1_linear_6456_21150)"/>
<path d="M191.985 124.101C191.056 124.196 189.707 124.718 189.707 125.203C189.707 125.687 190.788 125.819 191.086 125.867C191.385 125.911 191.778 126.006 191.666 126.155C191.554 126.304 191.33 127.05 190.734 126.921C190.137 126.789 187.523 126.751 187.018 126.751C186.513 126.751 185.916 127.107 185.879 127.48C185.842 127.853 185.73 127.927 185.432 127.948C185.133 127.968 184.591 128.246 184.591 128.731C184.591 129.215 185.791 129.652 185.791 129.825C185.791 129.998 188.144 131.431 188.605 131.699C189.066 131.967 189.927 132.645 190.412 132.645C190.897 132.645 191.71 132.184 191.771 131.516C191.832 130.849 192.792 130.364 192.802 130.035C192.815 129.707 192.5 129.466 192.534 129.259C192.571 129.052 193.409 128.761 193.409 128.239C193.409 127.717 193.08 127.016 193.032 126.795C192.985 126.579 192.788 126.104 192.985 126.043C193.178 125.982 193.86 125.352 193.738 124.769C193.615 124.189 192.415 124.057 191.985 124.101Z" fill="#FFBF9D"/>
<path d="M145.543 218.645C146.604 219.217 147.198 220.959 147.35 220.979C147.499 221 147.781 220.959 147.781 220.786C147.781 220.613 147.737 220.034 147.93 220.034C148.123 220.034 148.34 220.979 148.381 222.359C148.425 223.738 148.913 227.022 148.381 227.439C148.045 227.7 144.977 229.313 144.892 229.526C144.807 229.743 144.957 231.248 144.699 231.485C144.441 231.722 143.838 232.302 143.363 232.325C142.889 232.346 140.156 232.627 138.861 232.325C137.569 232.024 135.932 231.4 135.888 231.227C135.844 231.055 136.21 227.395 136.62 226.944C137.03 226.493 139.98 222.443 140.217 222.077C140.454 221.711 140.627 220.83 140.627 220.312C140.627 219.797 141.095 218.668 141.966 218.397C142.875 218.116 144.746 218.214 145.543 218.645Z" fill="#FE889D"/>
</g>
<defs>
<linearGradient id="paint0_linear_6456_21150" x1="149.501" y1="210.391" x2="149.501" y2="249.506" gradientUnits="userSpaceOnUse">
<stop stop-color="#F4F4F4"/>
<stop offset="0.4764" stop-color="#F4F4F4"/>
<stop offset="1" stop-color="white"/>
</linearGradient>
<linearGradient id="paint1_linear_6456_21150" x1="178.175" y1="119.799" x2="186.566" y2="135.24" gradientUnits="userSpaceOnUse">
<stop stop-color="#F6DBDB"/>
<stop offset="1" stop-color="#EB9A99"/>
</linearGradient>
<clipPath id="clip0_6456_21150">
<rect width="298" height="194" fill="white" transform="translate(0.5 77.5)"/>
</clipPath>
</defs>
</svg>
