<svg width="25" height="24" viewBox="0 0 25 24" fill="none" xmlns="http://www.w3.org/2000/svg">
<path d="M15.1067 5.19C15.4847 4.75428 15.773 4.24817 15.9549 3.70074C16.1368 3.1533 16.2087 2.57533 16.1667 2C15.006 2.09369 13.9287 2.63956 13.1667 3.52C12.8018 3.94198 12.5252 4.43288 12.3535 4.96364C12.1817 5.49441 12.1182 6.05424 12.1667 6.61C12.7328 6.61472 13.2924 6.4891 13.8023 6.24286C14.3121 5.99662 14.7584 5.63637 15.1067 5.19ZM17.6267 12.63C17.6334 11.8637 17.8352 11.1118 18.2131 10.4452C18.5911 9.77859 19.1326 9.21926 19.7867 8.82C19.3739 8.22524 18.8282 7.73483 18.1929 7.38767C17.5576 7.04052 16.8502 6.84615 16.1267 6.82C14.5667 6.66 13.1267 7.73 12.2967 7.73C11.4667 7.73 10.2967 6.84 8.99666 6.86C8.14679 6.888 7.31868 7.13578 6.59311 7.57919C5.86753 8.02259 5.26927 8.64648 4.85666 9.39C3.09666 12.45 4.40666 17 6.16666 19.47C6.96666 20.68 7.96666 22.05 9.28666 22C10.6067 21.95 11.0367 21.18 12.5667 21.18C14.0967 21.18 14.5667 22 15.8667 21.97C17.1667 21.94 18.0867 20.73 18.9267 19.52C19.5217 18.6415 19.9865 17.6816 20.3067 16.67C19.5141 16.332 18.838 15.7693 18.3617 15.0513C17.8854 14.3333 17.6299 13.4916 17.6267 12.63Z" fill="black"/>
</svg>
