<svg width="25" height="24" viewBox="0 0 25 24" fill="none" xmlns="http://www.w3.org/2000/svg">
<path d="M23.3933 12.25C23.3933 11.47 23.3233 10.72 23.1933 10H12.8333V14.255H18.7533C18.4983 15.63 17.7233 16.795 16.5583 17.575V20.335H20.1133C22.1933 18.42 23.3933 15.6 23.3933 12.25Z" fill="#4285F4"/>
<path d="M12.8332 22.9998C15.8032 22.9998 18.2932 22.0148 20.1132 20.3348L16.5582 17.5748C15.5732 18.2348 14.3132 18.6248 12.8332 18.6248C9.96817 18.6248 7.54317 16.6898 6.67817 14.0898H3.00317V16.9398C4.81317 20.5348 8.53317 22.9998 12.8332 22.9998Z" fill="#34A853"/>
<path d="M6.67825 14.0905C6.45825 13.4305 6.33325 12.7255 6.33325 12.0005C6.33325 11.2755 6.45825 10.5705 6.67825 9.91055V7.06055H3.00325C2.23325 8.59341 1.83257 10.2852 1.83325 12.0005C1.83325 13.7755 2.25825 15.4555 3.00325 16.9405L6.67825 14.0905Z" fill="#FBBC05"/>
<path d="M12.8332 5.375C14.4482 5.375 15.8982 5.93 17.0382 7.02L20.1932 3.865C18.2882 2.09 15.7982 1 12.8332 1C8.53317 1 4.81317 3.465 3.00317 7.06L6.67817 9.91C7.54317 7.31 9.96817 5.375 12.8332 5.375Z" fill="#EA4335"/>
</svg>
