<svg width="65" height="64" viewBox="0 0 65 64" fill="none" xmlns="http://www.w3.org/2000/svg">
<circle cx="32.5" cy="32" r="32" fill="url(#paint0_linear_5961_16567)"/>
<path d="M47.2665 40.8119L38.4547 32.0002L47.2665 23.1884C48.7613 21.6937 48.8927 19.3576 47.6705 17.7094C47.5477 17.544 47.4163 17.3834 47.2665 17.2334C45.6223 15.5889 42.9562 15.5889 41.3118 17.2334L39.5055 19.04L32.8024 25.7427L32.4997 26.0453L24.203 17.7483L23.6881 17.2334C22.0435 15.5889 19.3773 15.5889 17.7331 17.2334C16.089 18.8779 16.089 21.5439 17.7331 23.1884L26.5448 32.0002L17.7331 40.8118C16.089 42.4563 16.089 45.1222 17.7334 46.7667C18.2304 47.2636 18.821 47.6075 19.4477 47.8041C20.8961 48.2585 22.5408 47.9144 23.6881 46.7667L32.4998 37.9549L34.316 39.7711L41.3116 46.7668C41.7789 47.234 42.3301 47.5636 42.9154 47.7655C44.3899 48.2737 46.0892 47.944 47.2666 46.7667C48.9112 45.1221 48.9112 42.4563 47.2665 40.8119Z" fill="white"/>
<defs>
<linearGradient id="paint0_linear_5961_16567" x1="-7.42661" y1="-7.92661" x2="148.816" y2="82.3793" gradientUnits="userSpaceOnUse">
<stop offset="0.129" stop-color="#F62C2C"/>
<stop offset="0.509" stop-color="#F48E93"/>
</linearGradient>
</defs>
</svg>
