<svg width="56" height="56" viewBox="0 0 56 56" fill="none" xmlns="http://www.w3.org/2000/svg">
<g id="Group 1000004088">
<circle id="Ellipse 303" cx="28" cy="28" r="28" fill="#FE889D"/>
<path id="Vector" d="M28.0001 54.0001C42.3595 54.0001 54.0001 42.3595 54.0001 28.0001C54.0001 13.6407 42.3595 2.00012 28.0001 2.00012C13.6407 2.00012 2.00012 13.6407 2.00012 28.0001C2.00012 42.3595 13.6407 54.0001 28.0001 54.0001Z" fill="white"/>
<g id="Group 1000004085">
<g id="Group">
<g id="Group_2">
<path id="Vector_2" d="M39.4593 17.6358L12.7953 25.4673C12.2882 25.6162 11.9972 26.1506 12.1451 26.6609L12.2521 27.0299L38.7565 19.2453C39.4567 19.0397 40.1926 19.4456 40.3969 20.1503L43.4199 30.5742C43.8089 30.3635 44.0126 29.9014 43.8839 29.4575L40.6453 18.2901C40.4973 17.7798 39.9663 17.4869 39.4593 17.6358Z" fill="#FFC0CB"/>
</g>
<g id="Group_3">
<path id="Vector_3" d="M40.1779 15.6373L13.5139 23.4688C13.0068 23.6177 12.7158 24.1521 12.8637 24.6623L12.9708 25.0314L39.4752 17.2468C40.1753 17.0412 40.9112 17.4471 41.1156 18.1518L44.1385 28.5757C44.5276 28.365 44.7312 27.9029 44.6025 27.459L41.3639 16.2916C41.2159 15.7813 40.6849 15.4884 40.1779 15.6373Z" fill="#FFC0CB"/>
</g>
<g id="Group_4">
<path id="Vector_4" d="M42.6342 32.6155L15.9702 40.447C15.4631 40.596 14.9321 40.303 14.7842 39.7927L11.5456 28.6253C11.3976 28.115 11.6887 27.5806 12.1958 27.4317L38.8598 19.6002C39.3668 19.4513 39.8978 19.7442 40.0458 20.2545L43.2844 31.4219C43.4323 31.9322 43.1412 32.4666 42.6342 32.6155Z" fill="#FFC0CB"/>
</g>
<g id="Group_5">
<path id="Vector_5" d="M27.491 34.8339C29.9884 34.8339 32.0129 32.7964 32.0129 30.2831C32.0129 27.7698 29.9884 25.7323 27.491 25.7323C24.9935 25.7323 22.969 27.7698 22.969 30.2831C22.969 32.7964 24.9935 34.8339 27.491 34.8339Z" fill="white"/>
</g>
<g id="Group_6">
<path id="Vector_6" d="M36.9452 25.8833L37.5121 25.7168C37.5449 25.7071 37.5752 25.7238 37.5848 25.7569L38.5092 28.9445C38.5188 28.9775 38.5022 29.008 38.4694 29.0176L37.9212 29.1787C37.8884 29.1883 37.8581 29.1716 37.8485 29.1385L37.095 26.5403C37.0909 26.5262 37.0774 26.5148 37.0647 26.5236L36.7653 26.6832C36.7306 26.7037 36.7016 26.6917 36.6907 26.654L36.5731 26.2485C36.5649 26.2201 36.5721 26.1925 36.596 26.1701L36.8789 25.9181C36.8983 25.897 36.9217 25.8902 36.9452 25.8833Z" fill="white"/>
<path id="Vector_7" d="M38.5368 28.0204L38.1019 26.5208C37.9364 25.9503 38.1911 25.4609 38.7394 25.2999C39.2969 25.1361 39.7732 25.4108 39.9386 25.9813L40.3735 27.4809C40.539 28.0514 40.2843 28.5408 39.7267 28.7046C39.1785 28.8656 38.7023 28.591 38.5368 28.0204ZM39.7238 27.7127L39.267 26.1377C39.2069 25.9302 39.0641 25.8237 38.9048 25.8704C38.7549 25.9145 38.6914 26.0815 38.7516 26.289L39.2084 27.864C39.2685 28.0715 39.4113 28.178 39.5612 28.1339C39.7206 28.0872 39.7839 27.9201 39.7238 27.7127Z" fill="white"/>
</g>
<g id="Group_7">
<path id="Vector_8" d="M14.8716 32.366L15.4385 32.1995C15.4713 32.1898 15.5016 32.2066 15.5112 32.2396L16.4357 35.4272C16.4452 35.4602 16.4286 35.4907 16.3958 35.5004L15.8476 35.6614C15.8148 35.671 15.7845 35.6543 15.7749 35.6213L15.0214 33.023C15.0173 33.0089 15.0038 32.9975 14.9912 33.0063L14.6917 33.1659C14.657 33.1864 14.628 33.1744 14.6171 33.1367L14.4995 32.7312C14.4913 32.7028 14.4985 32.6752 14.5225 32.6527L14.8054 32.4008C14.8247 32.3798 14.8482 32.3729 14.8716 32.366Z" fill="white"/>
<path id="Vector_9" d="M16.463 34.5036L16.0282 33.004C15.8627 32.4334 16.1174 31.9441 16.6656 31.7831C17.2232 31.6193 17.6995 31.8939 17.865 32.4645L18.2999 33.9641C18.4653 34.5346 18.2105 35.024 17.653 35.1877C17.1047 35.3488 16.6285 35.0742 16.463 34.5036ZM17.6501 34.1959L17.1933 32.6209C17.1331 32.4134 16.9904 32.3069 16.8311 32.3536C16.6811 32.3977 16.6177 32.5648 16.6778 32.7723L17.1346 34.3473C17.1948 34.5547 17.3376 34.6612 17.4875 34.6171C17.6468 34.5703 17.7102 34.4033 17.6501 34.1959Z" fill="white"/>
</g>
</g>
<path id="Vector_10" d="M8.94946 15.0268L44.9205 43.7258L47.0499 41.0027L10.9023 12.5294L8.94946 15.0268Z" fill="#E40033"/>
</g>
</g>
</svg>
