<svg width="56" height="56" viewBox="0 0 56 56" fill="none" xmlns="http://www.w3.org/2000/svg">
<circle cx="28" cy="28" r="28" fill="#FE889D"/>
<path d="M28 54C42.3594 54 54 42.3594 54 28C54 13.6406 42.3594 2 28 2C13.6406 2 2 13.6406 2 28C2 42.3594 13.6406 54 28 54Z" fill="white"/>
<g clip-path="url(#clip0_6301_32227)">
<path d="M43.1098 37.0519C42.4177 35.1553 41.0144 33.4057 38.2096 33.1764C37.7377 33.1378 37.4867 32.9547 36.9306 32.6412C35.5452 31.86 34.1262 31.2777 32.5762 30.9199C32.3577 30.7015 32.1899 30.4224 32.0608 30.1136L27.9999 33.8363L23.8864 30.231C23.7718 30.4782 23.6304 30.7027 23.4548 30.8872C23.4445 30.8981 23.4344 30.9094 23.4238 30.92C21.8703 31.2785 20.4582 31.8582 19.0694 32.6412C18.5133 32.9548 18.2623 33.1379 17.7904 33.1765C14.9856 33.4057 13.5823 35.1553 12.8902 37.0519C15.8182 42.3847 21.4867 46 28 46C34.5133 46 40.1818 42.3847 43.1098 37.0519Z" fill="#FFC0CB"/>
<path d="M31.6567 27.9316C31.2873 28.3618 30.8997 28.7216 30.5293 29.0093C29.8077 29.5697 28.9171 29.874 28 29.874C27.0828 29.874 26.1923 29.5697 25.4707 29.0093C25.1003 28.7216 24.7127 28.3618 24.3433 27.9316C24.3197 28.618 24.2163 29.519 23.8864 30.2309L28 33.8362L32.0609 30.1136C31.772 29.422 31.679 28.5806 31.6567 27.9316Z" fill="#FFCDBF"/>
<path d="M24.3432 27.9316C24.3196 28.618 24.2163 29.519 23.8864 30.2309L26.3667 32.4047L26.7382 29.6761C26.2825 29.5301 25.8528 29.306 25.4706 29.0093C25.1003 28.7216 24.7126 28.3618 24.3432 27.9316Z" fill="#FFBEAB"/>
<path d="M12.8902 37.0519C13.5916 38.3294 14.4505 39.508 15.4404 40.5623C15.5891 36.3445 17.2365 33.9491 17.8847 33.1663C17.8541 33.1703 17.8229 33.1738 17.7904 33.1765C14.9857 33.4057 13.5823 35.1552 12.8902 37.0519Z" fill="#FFC0CB"/>
<path d="M22.0411 19.6154L22.0401 19.6164L22.0411 19.6154Z" fill="#3A3A60"/>
<path d="M27.9999 10C24.1338 10 21 13.169 21 17.0782C21 17.1821 21 26.9575 21 27.0616C21 27.5798 21.4155 28 21.9281 28C23.3351 28 32.8252 28 34.0719 28C34.5844 28 35 27.5798 35 27.0616C35 25.1294 35 19.2926 35 17.0782C35.0001 13.169 31.8662 10 27.9999 10Z" fill="#576574"/>
<path d="M35.1066 19.5832C34.8132 19.3143 34.2286 19.4506 33.9759 19.6153C34.0313 19.9601 34.0344 20.3128 33.9866 20.6611L33.6883 22.8333C33.6883 23.0084 33.6828 23.1802 33.6727 23.349C34.3999 23.5683 34.7611 22.9154 34.822 22.4674C34.8482 22.2745 34.891 22.0844 34.9504 21.8989C35.144 21.2948 35.8418 20.2571 35.1066 19.5832Z" fill="#F9BD91"/>
<path d="M35.1008 19.5832C34.8023 19.3143 34.2075 19.4506 33.9504 19.6153C34.0067 19.9601 34.0099 20.3128 33.9613 20.6611L33.6578 22.8333C33.6578 23.0084 33.6522 23.1802 33.6418 23.349C34.3818 23.5683 34.7493 22.9154 34.8113 22.4674C34.8379 22.2745 34.8815 22.0844 34.9419 21.8989C35.1388 21.2948 35.8489 20.2571 35.1008 19.5832Z" fill="#FFCDBF"/>
<path d="M33.8165 21.6971L33.6578 22.8333C33.6578 23.0084 33.6522 23.1801 33.6418 23.349C34.3818 23.5683 34.7493 22.9154 34.8113 22.4674C34.8686 22.0527 34.9734 21.7979 35.0738 21.5651C34.7799 21.9755 34.1904 22.0362 33.8165 21.6971Z" fill="#FFBEAB"/>
<path d="M20.8998 19.5832C21.1983 19.3143 21.7931 19.4506 22.0503 19.6153C21.9939 19.9601 21.9907 20.3128 22.0394 20.6611L22.3428 22.8333C22.3428 23.0084 22.3485 23.1802 22.3588 23.349C21.6188 23.5683 21.2513 22.9154 21.1893 22.4674C21.1627 22.2745 21.1191 22.0844 21.0587 21.8989C20.8618 21.2948 20.1517 20.2571 20.8998 19.5832Z" fill="#FFCDBF"/>
<path d="M22.1841 21.6971L22.3428 22.8333C22.3428 23.0084 22.3484 23.1801 22.3587 23.349C21.6188 23.5683 21.2512 22.9154 21.1893 22.4674C21.132 22.0527 21.0272 21.7979 20.9268 21.5651C21.2207 21.9755 21.8102 22.0362 22.1841 21.6971Z" fill="#FFBEAB"/>
<path d="M33.611 17.6154C32.8746 17.3729 31.4318 16.7342 30.0418 15.1807C29.8149 14.9272 29.4435 14.9459 29.2357 15.2025C28.2617 16.4062 25.6419 19.3478 22.3585 20.6614C22.1431 20.7476 22 20.97 22 21.2189V23.5906C22 26.9394 24.4209 30 28.0855 30C31.3468 30 34 27.1248 34 23.5906V18.184C34 17.9224 33.8421 17.6915 33.611 17.6154Z" fill="#FFCDBF"/>
<path d="M28.0362 33.738L28 33.7712L27.9389 33.7177L26.0685 34.5262L26.7043 35.3767C26.8011 35.506 26.8705 35.6523 26.9108 35.8067L28.3553 34.172L28.0362 33.738Z" fill="#FFC0CB"/>
<path d="M24.1723 29.8926C24.0988 29.8181 23.9823 29.8074 23.8963 29.8671L21.9867 31.1966C21.8878 31.2655 21.8691 31.4044 21.9464 31.4969L24.943 35.0888C25.1991 35.3958 25.6486 35.4533 25.9737 35.2207L28 33.7712L24.1723 29.8926Z" fill="#FFE5E9"/>
<path d="M24.1724 29.8926C24.0988 29.8181 23.9823 29.8074 23.8964 29.8671L21.9693 31.2088C21.8797 31.2711 21.8628 31.3968 21.9327 31.4805L23.6696 33.5625C23.6684 33.5365 23.6676 33.5103 23.6676 33.4839C23.6676 32.5297 24.4411 31.7562 25.3953 31.7562C25.6922 31.7562 25.9715 31.8312 26.2156 31.9631L24.1724 29.8926Z" fill="#FFE5E9"/>
<path d="M28 33.7712L27.0711 35.0347C26.9142 35.2482 26.8295 35.5063 26.8295 35.7714V40.7074C26.8295 40.8877 26.9757 41.034 27.1561 41.034H28.7231C28.9034 41.034 29.0497 40.8878 29.0497 40.7074V36.2017C29.0497 35.9334 29.1365 35.6723 29.2972 35.4573L29.933 34.6068L28 33.7712Z" fill="#FFE5E9"/>
<path d="M32.1035 29.8672C32.0177 29.8074 31.9011 29.8181 31.8276 29.8926L28 33.7713L30.0263 35.2208C30.3515 35.4534 30.801 35.3959 31.057 35.0889L34.0673 31.4806C34.1372 31.3969 34.1203 31.2712 34.0307 31.2089L32.1035 29.8672Z" fill="#FFE5E9"/>
<path d="M36.8127 40.0668L36.0933 40.3737C35.3422 40.6941 34.4656 40.3418 34.1452 39.5907L33.9876 39.2212C33.6672 38.4701 34.0195 37.5936 34.7706 37.2731L35.49 36.9662C36.2411 36.6458 37.1177 36.9982 37.4381 37.7492L37.5957 38.1187C37.9162 38.8697 37.5638 39.7464 36.8127 40.0668Z" fill="#FFCDBF"/>
<path d="M18.9906 40.0668L19.71 40.3737C20.461 40.6941 21.3377 40.3418 21.6581 39.5907L21.8157 39.2212C22.1361 38.4701 21.7838 37.5936 21.0327 37.2731L20.3133 36.9662C19.5622 36.6458 18.6856 36.9982 18.3652 37.7492L18.2076 38.1187C17.8872 38.8697 18.2395 39.7464 18.9906 40.0668Z" fill="#FFCDBF"/>
<path d="M23.292 39.7697C24.6379 38.8664 26.2572 38.3392 28 38.3392C29.7703 38.3392 31.413 38.8836 32.7713 39.8133L34.2873 37.4176C32.4901 36.2109 30.3273 35.5066 28 35.5066C25.7002 35.5066 23.5613 36.1947 21.7769 37.3754L23.292 39.7697Z" fill="#494970"/>
<path d="M23.7824 38.1398C23.4158 37.5048 23.5382 36.723 24.0306 36.2261C23.2327 36.5259 22.4772 36.912 21.7769 37.3754L23.2921 39.7698C23.7996 39.4292 24.3461 39.1422 24.9234 38.9167C24.4614 38.8467 24.0342 38.5759 23.7824 38.1398Z" fill="#3A3A60"/>
<path d="M34.176 37.3443L32.6267 39.7163C33.1754 40.0755 33.6802 40.4963 34.1305 40.9696C34.5441 41.4044 34.7066 42.0356 34.5205 42.6062C34.4752 42.7451 34.4507 42.8935 34.4507 43.0476C34.4507 43.6428 34.8145 44.1501 35.3264 44.3651C35.3273 44.3655 35.3282 44.3659 35.3291 44.3663C36.4341 43.8461 37.4745 43.2119 38.4358 42.4789C37.5607 40.3688 36.0654 38.5809 34.176 37.3443Z" fill="#353533"/>
<path d="M17.5643 42.4789C18.5256 43.212 19.5661 43.8461 20.671 44.3663C20.6717 44.3661 20.6722 44.3658 20.6729 44.3655C21.1854 44.1506 21.5493 43.6425 21.5493 43.0476C21.5493 42.8934 21.5248 42.7451 21.4795 42.6061C21.2934 42.0356 21.4559 41.4044 21.8695 40.9696C22.3197 40.4963 22.8245 40.0755 23.3732 39.7162L21.8239 37.3442C19.9346 38.5809 18.4392 40.3688 17.5643 42.4789Z" fill="#353533"/>
<path d="M28 46C29.1876 46 30.3468 45.8793 31.4667 45.6504C31.4195 45.1733 31.2731 44.6987 31.0182 44.2572C30.1416 42.7388 28.2872 42.1301 26.705 42.7646C26.6998 42.7667 26.6946 42.769 26.6894 42.7711C26.6269 42.7966 26.5649 42.8241 26.5033 42.8534C26.4879 42.8608 26.4724 42.868 26.4571 42.8756C26.39 42.9088 26.3233 42.9435 26.2575 42.9815C25.2694 43.552 24.6661 44.5366 24.5403 45.5909C24.5379 45.6107 24.5363 45.6307 24.5342 45.6505C25.6538 45.8793 26.8128 46 28 46Z" fill="#494970"/>
<path d="M37.6539 37.9745L36.1646 38.6099C35.3584 38.9538 34.9801 39.895 35.3241 40.7013L36.6036 43.7006C38.0532 42.8633 39.3691 41.8208 40.5123 40.6131L39.7453 38.8151C39.4013 38.0088 38.4602 37.6306 37.6539 37.9745Z" fill="#FCD2AE"/>
<path d="M36.1646 38.6099C35.3584 38.9538 34.9801 39.895 35.3241 40.7012L36.6036 43.7006C37.2071 43.3519 37.7874 42.9678 38.3418 42.5509L37.2001 39.8746C36.9224 39.2238 37.088 38.491 37.5584 38.0152L36.1646 38.6099Z" fill="#F9BD91"/>
<path d="M19.6386 38.6099L18.1493 37.9745C17.3431 37.6306 16.4019 38.0088 16.058 38.8151L15.3527 40.4682C16.4859 41.6931 17.7947 42.7528 19.2392 43.6077L20.4791 40.7013C20.8232 39.895 20.445 38.9538 19.6386 38.6099Z" fill="#FCD2AE"/>
<path d="M18.1495 37.9745C17.3432 37.6306 16.402 38.0088 16.0581 38.8151L15.3528 40.4682C15.881 41.0391 16.4466 41.575 17.0472 42.0702L18.0225 39.7838C18.3389 39.0423 19.1148 38.6325 19.8789 38.7396C19.8035 38.6907 19.724 38.6463 19.6387 38.6099L18.1495 37.9745Z" fill="#F9BD91"/>
</g>
<defs>
<clipPath id="clip0_6301_32227">
<rect width="36" height="36" fill="white" transform="translate(10 10)"/>
</clipPath>
</defs>
</svg>
