<svg width="56" height="56" viewBox="0 0 56 56" fill="none" xmlns="http://www.w3.org/2000/svg">
<circle cx="28" cy="28" r="28" fill="#FE889D"/>
<path d="M28 54C42.3594 54 54 42.3594 54 28C54 13.6406 42.3594 2 28 2C13.6406 2 2 13.6406 2 28C2 42.3594 13.6406 54 28 54Z" fill="white"/>
<g clip-path="url(#clip0_1682_29014)">
<path d="M43.1097 37.0519C42.4177 35.1553 41.0143 33.4057 38.2095 33.1764C37.7377 33.1378 37.4866 32.9547 36.9305 32.6412C35.5452 31.86 34.1261 31.2777 32.5761 30.92C32.3576 30.7015 32.1899 30.4224 32.0608 30.1137L27.9999 33.8363L23.8863 30.231C23.7718 30.4782 23.6303 30.7028 23.4547 30.8873C23.4444 30.8982 23.4343 30.9094 23.4237 30.92C21.8702 31.2785 20.4582 31.8582 19.0693 32.6413C18.5132 32.9549 18.2622 33.1379 17.7904 33.1765C14.9855 33.4058 13.5822 35.1554 12.8901 37.052C15.8182 42.3848 21.4866 46 27.9999 46C34.5133 46 40.1817 42.3848 43.1097 37.0519Z" fill="#FFC0CB"/>
<path d="M31.6567 27.9316C31.2872 28.3619 30.8997 28.7216 30.5293 29.0093C29.8076 29.5697 28.9171 29.8741 27.9999 29.8741C27.0828 29.8741 26.1923 29.5697 25.4706 29.0093C25.1002 28.7216 24.7126 28.3618 24.3432 27.9316C24.3196 28.618 24.2163 29.519 23.8864 30.2309L27.9999 33.8362L32.0608 30.1136C31.7719 29.422 31.6789 28.5807 31.6567 27.9316Z" fill="#FFCDBF"/>
<path d="M24.3432 27.9316C24.3196 28.618 24.2163 29.519 23.8864 30.2309L26.3667 32.4048L26.7382 29.6761C26.2825 29.5302 25.8528 29.306 25.4706 29.0093C25.1003 28.7216 24.7126 28.3619 24.3432 27.9316Z" fill="#FFBEAB"/>
<path d="M12.8901 37.0519C13.5916 38.3294 14.4504 39.5081 15.4404 40.5623C15.589 36.3446 17.2364 33.9491 17.8846 33.1663C17.8541 33.1703 17.8228 33.1738 17.7904 33.1765C14.9856 33.4057 13.5822 35.1552 12.8901 37.0519Z" fill="#FFC0CB"/>
<path d="M22.041 19.6154L22.04 19.6164L22.041 19.6154Z" fill="#494970"/>
<path d="M26.7534 10.0782C22.9858 10.5916 22.6277 12.7276 22.626 13.5113C22.6257 13.6757 22.5346 13.828 22.3868 13.8999C20.4271 14.8533 21.4836 19.448 21.4836 19.448C21.6804 19.4612 21.8865 19.5409 22.0401 19.6153C22.0777 19.3812 22.1392 19.1507 22.2259 18.9279C22.292 18.7581 22.3746 18.5866 22.4779 18.4245C22.6571 18.1433 22.7387 17.8117 22.7144 17.4801C22.6439 16.5215 22.6779 14.6327 23.9432 14.0634C25.0151 13.581 26.33 13.8603 27.1685 14.1392C27.713 14.3203 28.3029 14.3203 28.8475 14.1392C29.686 13.8603 31.0009 13.581 32.0728 14.0634C33.3345 14.6311 33.3718 16.5107 33.3022 17.4718C33.2779 17.806 33.3574 18.1411 33.538 18.4244C33.6446 18.5917 33.7293 18.769 33.7964 18.9442C33.8799 19.1619 33.9392 19.3869 33.9759 19.6152C34.1696 19.5215 34.4464 19.4192 34.6832 19.4527C34.7122 18.448 34.8049 17.3649 34.8049 17.3649C35.9214 11.8967 30.81 9.52555 26.7534 10.0782Z" fill="#0E0F0C"/>
<path d="M22.041 19.6154L22.04 19.6164L22.041 19.6154Z" fill="#3A3A60"/>
<path d="M27.2017 10.0299C27.0511 10.0423 26.9014 10.0581 26.7534 10.0783C22.9858 10.5916 22.6277 12.7277 22.626 13.5114C22.6257 13.6758 22.5346 13.8281 22.3868 13.9C20.4271 14.8533 21.4836 19.4481 21.4836 19.4481C21.6804 19.4613 21.8865 19.5409 22.0401 19.6154C22.2286 18.4421 22.7785 18.3531 22.7144 17.4801C22.6439 16.5216 22.6779 14.6328 23.9432 14.0635C24.8821 13.6409 26.0074 13.8029 26.8358 14.0369C25.393 12.9967 25.5938 10.7911 27.2017 10.0299Z" fill="#353533"/>
<path d="M35.1066 19.5832C34.8131 19.3143 34.2286 19.4506 33.9759 19.6153C34.0313 19.9601 34.0344 20.3128 33.9866 20.6611L33.6883 22.8333C33.6883 23.0084 33.6827 23.1802 33.6726 23.349C34.3998 23.5683 34.761 22.9154 34.8219 22.4674C34.8481 22.2745 34.891 22.0844 34.9503 21.8989C35.1439 21.2948 35.8417 20.2571 35.1066 19.5832Z" fill="#F9BD91"/>
<path d="M35.1008 19.5832C34.8023 19.3143 34.2075 19.4506 33.9504 19.6153C34.0067 19.9601 34.0099 20.3128 33.9613 20.6611L33.6578 22.8333C33.6578 23.0084 33.6522 23.1802 33.6418 23.349C34.3818 23.5683 34.7493 22.9154 34.8113 22.4674C34.8379 22.2745 34.8815 22.0844 34.9419 21.8989C35.1388 21.2948 35.8489 20.2571 35.1008 19.5832Z" fill="#FFCDBF"/>
<path d="M33.8165 21.6971L33.6578 22.8333C33.6578 23.0084 33.6522 23.1802 33.6418 23.349C34.3818 23.5684 34.7493 22.9154 34.8113 22.4674C34.8686 22.0527 34.9734 21.798 35.0738 21.5651C34.7799 21.9755 34.1904 22.0363 33.8165 21.6971Z" fill="#FFBEAB"/>
<path d="M20.8997 19.5832C21.1983 19.3143 21.7931 19.4506 22.0502 19.6153C21.9939 19.9601 21.9906 20.3128 22.0393 20.6611L22.3428 22.8333C22.3428 23.0084 22.3484 23.1802 22.3587 23.349C21.6188 23.5683 21.2512 22.9154 21.1893 22.4674C21.1626 22.2745 21.119 22.0844 21.0586 21.8989C20.8618 21.2948 20.1517 20.2571 20.8997 19.5832Z" fill="#FFCDBF"/>
<path d="M22.184 21.6971L22.3427 22.8333C22.3427 23.0084 22.3483 23.1802 22.3587 23.349C21.6187 23.5684 21.2512 22.9154 21.1892 22.4674C21.1319 22.0527 21.0271 21.798 20.9268 21.5651C21.2206 21.9755 21.8101 22.0363 22.184 21.6971Z" fill="#FFBEAB"/>
<path d="M33.7958 18.9196C33.7285 18.7441 33.6437 18.5663 33.5369 18.3986C33.3559 18.1146 33.2763 17.7788 33.3005 17.4439C33.3703 16.4807 33.3329 14.5968 32.0685 14.0279C30.9942 13.5445 29.6766 13.8244 28.8363 14.1039C28.2905 14.2853 27.699 14.2853 27.1533 14.1039C26.313 13.8244 24.9953 13.5446 23.9211 14.0279C22.6531 14.5985 22.6191 16.4915 22.6897 17.4522C22.7141 17.7846 22.6323 18.117 22.4527 18.3988C22.3492 18.5612 22.2663 18.7331 22.2001 18.9032C21.9852 19.4551 21.9227 20.0537 22.0031 20.6398L22.3021 22.8173C22.3021 25.9477 23.973 28.0754 25.3944 29.1792C26.1363 29.7553 27.0519 30.0683 27.9948 30.0683C28.9378 30.0683 29.8533 29.7553 30.5953 29.1792C32.0166 28.0754 33.6876 25.9477 33.6876 22.8173L33.9865 20.6403C34.0661 20.06 34.0057 19.4672 33.7958 18.9196Z" fill="#FFCDBF"/>
<path d="M27.5561 29.1791C26.491 28.0754 25.2388 25.9477 25.2388 22.8173L25.0148 20.6398C24.9544 20.0537 25.0014 19.4551 25.1624 18.9032C25.2121 18.733 25.2741 18.5611 25.3517 18.3988C25.4863 18.117 25.5476 17.7845 25.5293 17.4522C25.4764 16.4915 25.5019 14.5985 26.4522 14.0279C26.5034 13.9972 26.5552 13.9696 26.6078 13.9449C25.8042 13.744 24.7843 13.6396 23.9213 14.0279C22.6532 14.5985 22.6192 16.4915 22.6898 17.4522C22.7142 17.7846 22.6324 18.117 22.4528 18.3988C22.3493 18.5612 22.2665 18.7331 22.2002 18.9032C21.9854 19.4551 21.9228 20.0537 22.0032 20.6398L22.3022 22.8173C22.3022 25.9477 23.9732 28.0754 25.3945 29.1791C26.1365 29.7553 27.052 30.0683 27.9949 30.0683C28.2867 30.0683 28.5758 30.0382 28.858 29.9797C28.3861 29.8492 27.94 29.577 27.5561 29.1791Z" fill="#FFBEAB"/>
<path d="M28.0362 33.7381L28 33.7713L27.9389 33.7177L26.0685 34.5262L26.7042 35.3767C26.801 35.5061 26.8704 35.6523 26.9108 35.8067L28.3553 34.172L28.0362 33.7381Z" fill="#FFC0CB"/>
<path d="M24.1723 29.8926C24.0987 29.8182 23.9822 29.8074 23.8963 29.8672L21.9867 31.1966C21.8877 31.2655 21.869 31.4044 21.9463 31.4969L24.943 35.0889C25.199 35.3958 25.6485 35.4534 25.9737 35.2208L27.9999 33.7713L24.1723 29.8926Z" fill="#FFE5E9"/>
<path d="M24.1722 29.8926C24.0987 29.8182 23.9822 29.8074 23.8963 29.8672L21.9691 31.2088C21.8796 31.2712 21.8627 31.3968 21.9326 31.4806L23.6694 33.5625C23.6683 33.5365 23.6675 33.5103 23.6675 33.484C23.6675 32.5298 24.441 31.7563 25.3952 31.7563C25.6921 31.7563 25.9714 31.8312 26.2154 31.9631L24.1722 29.8926Z" fill="#FFE5E9"/>
<path d="M27.9999 33.7713L27.071 35.0347C26.9141 35.2483 26.8293 35.5063 26.8293 35.7714V40.7074C26.8293 40.8877 26.9756 41.034 27.1559 41.034H28.7229C28.9033 41.034 29.0495 40.8878 29.0495 40.7074V36.2018C29.0495 35.9335 29.1364 35.6723 29.297 35.4574L29.9329 34.6068L27.9999 33.7713Z" fill="#FFE5E9"/>
<path d="M32.1035 29.8672C32.0177 29.8074 31.9011 29.8181 31.8276 29.8926L28 33.7713L30.0263 35.2208C30.3515 35.4534 30.801 35.3959 31.057 35.0889L34.0673 31.4806C34.1372 31.3969 34.1203 31.2712 34.0307 31.2089L32.1035 29.8672Z" fill="#FFE5E9"/>
<path d="M36.8127 40.0668L36.0933 40.3737C35.3422 40.6942 34.4656 40.3418 34.1452 39.5907L33.9876 39.2213C33.6672 38.4702 34.0195 37.5936 34.7706 37.2732L35.49 36.9663C36.2411 36.6458 37.1177 36.9982 37.4381 37.7493L37.5957 38.1188C37.9162 38.8698 37.5638 39.7464 36.8127 40.0668Z" fill="#FFCDBF"/>
<path d="M18.9906 40.0668L19.71 40.3737C20.461 40.6942 21.3377 40.3418 21.6581 39.5907L21.8157 39.2213C22.1361 38.4702 21.7838 37.5936 21.0327 37.2732L20.3133 36.9663C19.5622 36.6458 18.6856 36.9982 18.3652 37.7493L18.2076 38.1188C17.8872 38.8698 18.2395 39.7464 18.9906 40.0668Z" fill="#FFCDBF"/>
<path d="M23.2919 39.7698C24.6377 38.8665 26.2571 38.3393 27.9999 38.3393C29.7702 38.3393 31.4129 38.8836 32.7712 39.8133L34.2872 37.4176C32.49 36.211 30.3272 35.5067 27.9999 35.5067C25.7 35.5067 23.5612 36.1947 21.7767 37.3754L23.2919 39.7698Z" fill="#494970"/>
<path d="M23.7824 38.1398C23.4157 37.5048 23.5381 36.723 24.0305 36.2261C23.2327 36.5259 22.4772 36.912 21.7769 37.3754L23.292 39.7698C23.7995 39.4292 24.3461 39.1422 24.9233 38.9167C24.4613 38.8467 24.0342 38.5759 23.7824 38.1398Z" fill="#3A3A60"/>
<path d="M34.1759 37.3443L32.6266 39.7163C33.1753 40.0755 33.6801 40.4963 34.1304 40.9696C34.544 41.4045 34.7065 42.0357 34.5204 42.6062C34.475 42.7452 34.4506 42.8935 34.4506 43.0477C34.4506 43.6428 34.8144 44.1502 35.3262 44.3651C35.3271 44.3655 35.3281 44.3659 35.329 44.3664C36.4339 43.8461 37.4744 43.212 38.4357 42.479C37.5606 40.3688 36.0653 38.5809 34.1759 37.3443Z" fill="#353533"/>
<path d="M17.5642 42.4789C18.5255 43.212 19.566 43.8461 20.671 44.3664C20.6716 44.3661 20.6722 44.3658 20.6728 44.3655C21.1854 44.1506 21.5492 43.6425 21.5492 43.0476C21.5492 42.8935 21.5247 42.7451 21.4794 42.6062C21.2933 42.0356 21.4559 41.4044 21.8694 40.9696C22.3197 40.4963 22.8244 40.0755 23.3731 39.7163L21.8239 37.3443C19.9345 38.5809 18.4392 40.3688 17.5642 42.4789Z" fill="#353533"/>
<path d="M28 46C29.1875 46 30.3468 45.8793 31.4666 45.6504C31.4195 45.1734 31.2731 44.6987 31.0181 44.2572C30.1415 42.7388 28.2872 42.1301 26.7049 42.7646C26.6997 42.7667 26.6945 42.769 26.6893 42.7711C26.6268 42.7966 26.5648 42.8241 26.5032 42.8535C26.4878 42.8608 26.4723 42.868 26.457 42.8756C26.3899 42.9088 26.3232 42.9435 26.2575 42.9815C25.2693 43.552 24.6661 44.5367 24.5402 45.5909C24.5378 45.6108 24.5362 45.6307 24.5342 45.6506C25.6538 45.8794 26.8127 46 28 46Z" fill="#494970"/>
<path d="M37.6538 37.9745L36.1645 38.6099C35.3582 38.9538 34.98 39.895 35.3239 40.7013L36.6035 43.7006C38.053 42.8633 39.3689 41.8208 40.5122 40.6131L39.7452 38.8151C39.4012 38.0088 38.4601 37.6306 37.6538 37.9745Z" fill="#FCD2AE"/>
<path d="M36.1645 38.6099C35.3582 38.9539 34.98 39.895 35.3239 40.7013L36.6035 43.7006C37.207 43.352 37.7873 42.9678 38.3417 42.551L37.1999 39.8746C36.9223 39.2238 37.0879 38.491 37.5583 38.0153L36.1645 38.6099Z" fill="#F9BD91"/>
<path d="M19.6386 38.6099L18.1493 37.9745C17.343 37.6306 16.4019 38.0088 16.0579 38.8151L15.3527 40.4682C16.4859 41.6931 17.7946 42.7528 19.2392 43.6077L20.4791 40.7013C20.8231 39.895 20.4449 38.9538 19.6386 38.6099Z" fill="#FCD2AE"/>
<path d="M18.1494 37.9745C17.3431 37.6306 16.402 38.0088 16.058 38.8151L15.3528 40.4682C15.881 41.0391 16.4466 41.575 17.0471 42.0702L18.0225 39.7838C18.3388 39.0423 19.1148 38.6325 19.8788 38.7396C19.8034 38.6907 19.724 38.6463 19.6387 38.6099L18.1494 37.9745Z" fill="#F9BD91"/>
</g>
<defs>
<clipPath id="clip0_1682_29014">
<rect width="36" height="36" fill="white" transform="translate(10 10)"/>
</clipPath>
</defs>
</svg>
