<svg width="186" height="163" viewBox="0 0 186 163" fill="none" xmlns="http://www.w3.org/2000/svg">
<g id="Group">
<g id="Group_2">
<g id="Group_3">
<path id="Vector" d="M179.17 162.93H6.09774C2.73164 162.93 0 160.198 0 156.832V6.09774C0 2.73165 2.73164 0 6.09774 0H179.17C182.536 0 185.267 2.73165 185.267 6.09774V156.832C185.267 160.198 182.536 162.93 179.17 162.93Z" fill="#FFCE76"/>
</g>
</g>
<g id="Group_4">
<path id="Vector_2" d="M145.333 133.921L144.523 133.577C155.493 107.424 141.588 96.1362 132.318 91.7303C121.233 86.4609 117.849 78.4422 117.708 78.1073L118.528 77.7725C118.563 77.8518 121.947 85.8264 132.697 90.9372C148.955 98.6651 153.555 114.332 145.333 133.921Z" fill="#47393D"/>
</g>
<g id="Group_5">
<path id="Vector_3" d="M143.587 127.7L96.9642 112.121L56.0688 133.613C48.1206 102.56 69.26 101.15 70.1676 78.5658C70.6346 66.8638 73.2782 54.4921 80.3628 50.2184C84.3986 47.7863 89.5271 48.8702 89.5271 48.8702C95.3781 43.6977 105.036 46.5615 108.878 50.2184C113.328 54.4657 116.482 61.5151 117.848 71.8072C120.835 94.2155 149.28 92.2505 143.587 127.7Z" fill="#47393D"/>
</g>
<g id="Group_6">
<g id="Group_7">
<g id="Group_8">
<g id="Group_9">
<path id="Vector_4" d="M101.741 88.6021H84.5841L82.0199 109.6C83.9408 112.05 88.4877 116.747 94.9027 116.104C99.2557 115.663 102.322 112.614 104.296 109.689C104.543 109.697 101.741 88.6021 101.741 88.6021Z" fill="#FFBB8D"/>
</g>
</g>
<g id="Group_10">
<g id="Group_11">
<path id="Vector_5" d="M103.319 100.78C90.6651 106.023 85.1313 98.392 85.1313 98.392L102.305 92.9199C102.605 95.2022 102.975 98.066 103.319 100.78Z" fill="#47393D"/>
</g>
</g>
<g id="Group_12">
<g id="Group_13">
<path id="Vector_6" d="M109.6 63.8502C112.71 74.3362 109.873 101.52 93.4301 101.573C75.7978 101.626 74.9518 72.0716 77.895 62.5813C81.6664 50.3506 106.225 52.483 109.6 63.8502Z" fill="#FFBB8D"/>
</g>
</g>
</g>
</g>
<g id="Group_14">
<path id="Vector_7" d="M110.569 73.3936C94.8401 75.1912 88.8569 62.7049 88.8569 62.7049C78.2828 58.0964 76.0358 72.2657 76.0358 72.2657C76.0358 72.2657 73.6567 65.4895 76.8906 58.8366C82.4508 47.4077 105.397 51.3113 109.538 57.7616C116.024 67.8686 112.816 75.1912 112.816 75.1912L110.569 73.3936Z" fill="#47393D"/>
</g>
<g id="Group_15">
<path id="Vector_8" d="M103.142 74.9881C100.058 74.9881 97.3619 74.2567 95.0885 72.7851C89.449 69.1547 88.4709 62.4049 88.4268 62.1141L89.2992 61.9907C89.308 62.0612 90.2685 68.6348 95.5732 72.0449C99.327 74.4506 104.332 74.7413 110.447 72.9085L110.703 73.7544C107.971 74.5827 105.442 74.9881 103.142 74.9881Z" fill="#47393D"/>
</g>
<g id="Group_16">
<path id="Vector_9" d="M70.5999 73.5079C70.5118 72.8646 68.4587 57.7613 75.7989 51.126C79.0769 48.1564 83.7207 47.3898 89.5893 48.8349L89.3778 49.6897C83.8088 48.3239 79.4381 49.0288 76.3893 51.7869C69.4015 58.1137 71.4547 73.2347 71.4723 73.3933L70.5999 73.5079Z" fill="#47393D"/>
</g>
<g id="Group_17">
<g id="Group_18">
<g id="Group_19">
<path id="Vector_10" d="M27.9784 163C27.9784 163 32.1111 115.478 82.0209 109.609H104.773C104.773 109.609 158.639 115.734 158.639 163H27.9784Z" fill="white"/>
</g>
</g>
<g id="Group_20">
<path id="Vector_11" d="M82.0199 109.61L82.9363 102.357C90.2148 106.199 97.0792 106.27 103.485 102.357L104.772 109.61C104.772 109.61 102.137 116.818 92.9905 116.967C84.8837 117.091 82.0199 109.61 82.0199 109.61Z" fill="white"/>
</g>
</g>
<g id="Group_21">
<g id="Group_22">
<g id="Group_23">
<path id="Vector_12" d="M95.933 159.353C82.2043 159.353 70.044 157.493 58.439 153.739L58.7121 152.902C78.9263 159.441 100.876 160.19 129.902 155.326L130.043 156.198C117.504 158.295 106.278 159.353 95.933 159.353Z" fill="#47393D"/>
</g>
</g>
<g id="Group_24">
<g id="Group_25">
<path id="Vector_13" d="M95.1505 150.585C88.3037 150.585 81.8623 150.118 75.6236 149.175C69.7902 148.294 64.0626 146.981 58.6081 145.271L58.8724 144.434C64.2828 146.135 69.9576 147.439 75.747 148.302C84.1798 149.571 92.9828 149.968 102.676 149.518C110.703 149.148 119.348 148.17 129.085 146.549L129.234 147.421C119.462 149.051 110.791 150.03 102.729 150.4C100.138 150.523 97.6178 150.585 95.1505 150.585Z" fill="#47393D"/>
</g>
</g>
<g id="Group_26">
<g id="Group_27">
<path id="Vector_14" d="M94.3126 141.808C87.8535 141.808 81.7558 141.394 75.8343 140.548C70.23 139.755 64.6962 138.557 59.3915 136.979L59.6383 136.133C64.9077 137.693 70.3975 138.883 75.9577 139.667C84.0733 140.821 92.515 141.174 101.767 140.742C109.892 140.372 118.563 139.402 128.282 137.772L128.432 138.645C118.686 140.275 109.98 141.253 101.811 141.623C99.2472 141.755 96.7534 141.808 94.3126 141.808Z" fill="#47393D"/>
</g>
</g>
<g id="Group_28">
<g id="Group_29">
<path id="Vector_15" d="M93.5365 133.04C87.43 133.04 81.6583 132.67 76.0364 131.921C70.5995 131.198 65.2596 130.106 60.1576 128.669L60.3955 127.823C65.4623 129.251 70.767 130.335 76.1598 131.048C83.9405 132.079 92.0209 132.388 100.859 131.991C109.019 131.612 117.725 130.643 127.479 129.013L127.629 129.885C117.839 131.524 109.098 132.502 100.912 132.881C98.383 132.978 95.9333 133.04 93.5365 133.04Z" fill="#47393D"/>
</g>
</g>
<g id="Group_30">
<g id="Group_31">
<path id="Vector_16" d="M92.7254 124.264C87.0859 124.264 81.7019 123.938 76.4236 123.286L76.2562 123.268C71.1454 122.651 66.0522 121.673 61.1088 120.369L61.0207 120.351L61.1352 119.47L61.3291 119.514C66.2284 120.81 71.2864 121.779 76.3531 122.387L76.5205 122.405C83.9665 123.33 91.6151 123.585 99.9334 123.206L100.057 123.198C108.058 122.845 116.755 121.867 126.651 120.219L126.792 121.092C116.861 122.748 108.128 123.726 100.101 124.079L99.9687 124.088C97.5014 124.202 95.0869 124.264 92.7254 124.264Z" fill="#47393D"/>
</g>
</g>
<g id="Group_32">
<g id="Group_33">
<path id="Vector_17" d="M93.6947 115.549C81.0146 115.549 69.7796 113.672 61.1176 111.557L61.0207 111.531L61.1352 110.65L61.3202 110.694C76.7673 114.474 100.506 117.47 125.858 110.306L126.096 111.152C114.781 114.36 103.784 115.549 93.6947 115.549Z" fill="#47393D"/>
</g>
</g>
</g>
<g id="Group_34">
<path id="Vector_18" d="M82.0208 109.609L77.8793 162.859L27.9783 163C27.9783 163 31.0008 112.447 82.0208 109.609Z" fill="#F9614A"/>
</g>
<g id="Group_35">
<path id="Vector_19" d="M104.773 109.609L108.914 162.859L158.815 163C158.815 163 160.63 114.562 104.773 109.609Z" fill="#F9614A"/>
</g>
<g id="Group_36">
<g id="Group_37">
<path id="Vector_20" d="M54.1822 162.938L53.3451 162.859C53.3803 162.498 54.1646 154.021 56.4468 148.602L57.2223 148.928C54.9929 154.232 54.191 162.859 54.1822 162.938Z" fill="#47393D"/>
</g>
</g>
<g id="Group_38">
<g id="Group_39">
<path id="Vector_21" d="M134.75 162.947C134.742 162.859 133.993 154.232 131.781 148.928L132.556 148.602C134.812 154.03 135.552 162.515 135.588 162.877L134.75 162.947Z" fill="#47393D"/>
</g>
</g>
<g id="Group_40">
<g id="Group_41">
<g id="Group_42">
<g id="Group_43">
<g id="Group_44">
<path id="Vector_22" d="M47.3363 58.0168H45.5652V38.3578C45.5652 32.3305 50.7289 27.4224 57.0733 27.4224H77.781V29.1054H57.0733C51.707 29.1054 47.3363 33.2558 47.3363 38.3578V58.0168Z" fill="white"/>
</g>
</g>
</g>
</g>
<g id="Group_45">
<g id="Group_46">
<g id="Group_47">
<g id="Group_48">
<path id="Vector_23" d="M77.781 118.113H57.0733C50.7289 118.113 45.5652 113.205 45.5652 107.178V87.5098H47.3363V107.178C47.3363 112.28 51.707 116.43 57.0733 116.43H77.781V118.113Z" fill="white"/>
</g>
</g>
</g>
</g>
<g id="Group_49">
<g id="Group_50">
<g id="Group_51">
<g id="Group_52">
<path id="Vector_24" d="M141.041 58.0168H139.27V38.3578C139.27 33.2558 134.899 29.1054 129.533 29.1054H108.834V27.4224H129.533C135.877 27.4224 141.041 32.3217 141.041 38.3578V58.0168Z" fill="white"/>
</g>
</g>
</g>
</g>
<g id="Group_53">
<g id="Group_54">
<g id="Group_55">
<g id="Group_56">
<path id="Vector_25" d="M129.533 118.113H108.834V116.43H129.533C134.899 116.43 139.27 112.28 139.27 107.178V87.5098H141.041V107.178C141.041 113.205 135.877 118.113 129.533 118.113Z" fill="white"/>
</g>
</g>
</g>
</g>
</g>
<g id="Group_57">
<g id="Group_58">
<path id="Vector_26" d="M87.1737 49.0906C87.1737 49.0906 80.8909 43.3453 87.0944 40.7106C87.0944 40.7106 89.0594 35.0623 94.276 36.3929C100.136 37.8821 98.6642 46.0241 95.8533 48.9761L87.1737 49.0906Z" fill="#47393D"/>
</g>
<g id="Group_59">
<path id="Vector_27" d="M87.0254 49.3816C86.9725 49.3551 81.8353 46.7028 83.2187 42.6494C84.2938 39.486 87.51 40.3848 87.5365 40.3936L87.3514 41.028C87.2457 41.0016 84.7167 40.3055 83.8444 42.8609C82.646 46.3768 87.281 48.7648 87.325 48.7912L87.0254 49.3816Z" fill="#47393D"/>
</g>
<g id="Group_60">
<path id="Vector_28" d="M97.2828 48.6759L96.7717 48.2529C96.7982 48.2265 99.2478 45.1953 98.8866 42.0495C98.7103 40.5427 97.9173 39.2297 96.525 38.1547L96.9303 37.6348C98.4724 38.8244 99.3536 40.2871 99.5474 41.979C99.944 45.4156 97.3974 48.5437 97.2828 48.6759Z" fill="#47393D"/>
</g>
</g>
</g>
</svg>
