<svg width="314" height="171" viewBox="0 0 314 171" fill="none" xmlns="http://www.w3.org/2000/svg">
<mask id="mask0_1400_32203" style="mask-type:alpha" maskUnits="userSpaceOnUse" x="10" y="19" width="63" height="74">
<path d="M68.0475 91.749L64.1359 81.8205L69.5624 68.548L62.5006 60.6368L70.4877 45.1379L58.1032 34.3177L72.3782 19.7506L31.6174 20.0224L10.6625 38.9709L10.304 88.7593C10.291 90.6271 12.0132 92.1217 14.1586 92.1069L68.0475 91.749Z" fill="#F5F5F5"/>
</mask>
<g mask="url(#mask0_1400_32203)">
<path d="M10.4172 31.1084V86.2361C10.4172 89.5572 13.1191 92.2486 16.4511 92.2486H119.214C122.547 92.2486 125.248 89.5563 125.248 86.2361V31.1084H10.4172Z" fill="white"/>
<path d="M10.4171 26.158V31.1086H125.248V26.158C125.248 22.8369 122.546 20.1455 119.214 20.1455H16.451C13.1189 20.1455 10.4171 22.8378 10.4171 26.158Z" fill="#4987FF"/>
<path opacity="0.25" d="M119.215 20.8252H16.4514C13.5002 20.8252 11.0998 23.2171 11.0998 26.1578L11.1203 27.1781C11.1203 24.2373 13.542 21.8454 16.5197 21.8454H120.199C121.437 21.8454 122.578 22.2598 123.489 22.9542C122.512 21.6625 120.959 20.8252 119.215 20.8252Z" fill="white"/>
<path opacity="0.11" d="M123.564 21.9902C123.986 22.8114 124.225 23.7431 124.225 24.7293V29.6799H10.4172V31.1086H125.248V26.158C125.248 24.5404 124.606 23.0717 123.564 21.9902Z" fill="black"/>
<path d="M89.349 75.0083H55.5394V77.1849H89.349V75.0083Z" fill="#CCCCCC"/>
<path d="M85.3153 81.9858H55.5132V84.1625H85.3153V81.9858Z" fill="#CCCCCC"/>
<path d="M84.9151 39.1606H59.0684V42.2894H84.9151V39.1606Z" fill="#CCCCCC"/>
<path d="M75.8029 47.1191H55.5392V49.2958H75.8029V47.1191Z" fill="#CCCCCC"/>
<path d="M82.0707 54.1255H55.5392V56.3021H82.0707V54.1255Z" fill="#CCCCCC"/>
<path d="M67.162 61.1318H55.5392V63.3085H67.162V61.1318Z" fill="#CCCCCC"/>
<path d="M85.3569 61.1318H70.4481V63.3085H85.3569V61.1318Z" fill="#CCCCCC"/>
<path d="M108.541 68.0703H55.5392V70.2469H108.541V68.0703Z" fill="#CCCCCC"/>
<path d="M49.7734 39.166H14.8187V84.1569H49.7734V39.166Z" fill="#EBEBEB"/>
<path d="M47.3006 78.2023C45.6978 75.5798 40.3778 75.5049 38.085 75.5202C36.6103 75.5211 36.0749 74.0703 36.1056 72.6118C34.9963 73.421 33.718 73.8848 32.356 73.8848C30.994 73.8848 29.7148 73.4219 28.6055 72.6118C28.6371 74.072 28.1034 75.5194 26.627 75.5202C24.3351 75.5049 19.0142 75.5798 17.4114 78.2023C15.8086 80.8248 14.9504 84.1033 14.9504 84.1033H49.7625C49.7616 84.1025 48.9034 80.8248 47.3006 78.2023Z" fill="#FDBC91"/>
<path d="M47.3014 78.2012C45.6986 75.5787 40.3777 75.5029 38.0849 75.5191C37.3574 75.5191 36.8587 75.166 36.5436 74.6333C32.4473 76.7682 29.064 75.1643 28.1597 74.6478C27.8446 75.1719 27.3485 75.5191 26.6261 75.5199C24.3333 75.5046 19.0125 75.5795 17.4096 78.202C15.8068 80.8245 14.9478 84.103 14.9478 84.103H49.7624C49.7633 84.1022 48.9042 80.8237 47.3014 78.2012Z" fill="#D9D9D9"/>
<path d="M47.3004 78.2035C45.6899 75.5691 40.3452 75.4934 38.0421 75.5087C37.3112 75.5087 36.8099 75.1539 36.4931 74.6187C32.378 76.7629 28.9794 75.1522 28.0708 74.6331C27.754 75.1598 27.2562 75.5087 26.5303 75.5087C24.2273 75.4934 18.8817 75.5683 17.272 78.2035C15.6615 80.8379 14.7991 84.1318 14.7991 84.1318H49.7734C49.7726 84.1318 48.9101 80.8379 47.3004 78.2035Z" fill="white"/>
<path d="M32.3312 54.99C32.3312 55.1619 32.1911 55.3023 32.0178 55.3023C31.8453 55.3023 31.7044 55.1628 31.7044 54.99C31.7044 54.8181 31.8445 54.6777 32.0178 54.6777C32.1911 54.6786 32.3312 54.8181 32.3312 54.99Z" fill="#262626"/>
<path d="M32.1218 54.9902C32.1218 55.0472 32.0756 55.0931 32.0184 55.0931C31.9612 55.0931 31.9151 55.0472 31.9151 54.9902C31.9151 54.9332 31.9612 54.8872 32.0184 54.8872C32.0756 54.8872 32.1218 54.9332 32.1218 54.9902Z" fill="#141414"/>
<path d="M36.2687 71.4559C37.4788 70.3651 38.3848 68.7892 38.9697 67.021C39.3241 67.506 39.8612 67.0176 39.927 66.5649C39.921 65.8714 41.2138 62.7265 39.7536 62.8473C39.7536 62.8473 39.7468 62.8618 39.7348 62.8865C40.7271 49.5077 23.9764 49.5247 24.979 62.8916C24.9653 62.8635 24.9576 62.8473 24.9576 62.8473C23.4965 62.7307 24.7902 65.8655 24.7843 66.5649C24.85 67.0185 25.3888 67.5077 25.7432 67.0185C26.3282 68.7883 27.2342 70.3651 28.445 71.4559C29.591 72.3409 30.9283 72.8489 32.3569 72.8489C33.7847 72.8497 35.1228 72.3409 36.2687 71.4559Z" fill="#FDBC91"/>
<path d="M36.106 72.6107C36.1136 72.2261 36.1606 71.8407 36.2409 71.4816C36.2503 71.4731 36.2588 71.4646 36.2682 71.4561C35.1222 72.341 33.785 72.8498 32.3555 72.8498C30.9269 72.8498 29.5888 72.341 28.4437 71.4569C28.4531 71.4654 28.4616 71.4739 28.471 71.4824C28.5504 71.8424 28.5974 72.2278 28.6059 72.6116C29.7152 73.4217 30.9935 73.8845 32.3564 73.8845C33.7184 73.8837 34.9967 73.4208 36.106 72.6107Z" fill="#F2AD80"/>
<path d="M30.5029 84.1566L31.8026 76.4941H32.8751L34.0681 84.1566H30.5029Z" fill="black"/>
<path d="M28.5427 73.541L32.3563 75.6964L30.5127 78.3563L27.3976 75.3118L28.5427 73.541Z" fill="#E6E6E6"/>
<path d="M36.168 73.541L32.3544 75.6964L34.0597 78.3563L37.314 75.3118L36.168 73.541Z" fill="#E6E6E6"/>
<path d="M32.361 75.6919L31.1963 77.3733L31.2433 77.4099C31.8922 77.9145 32.8068 77.8991 33.4387 77.3733L32.361 75.6919Z" fill="black"/>
<path opacity="0.1" d="M33.0502 77.6182C32.5951 77.8275 32.0691 77.8317 31.6105 77.6292L31.5704 77.8675C32.0511 78.0947 32.6113 78.0904 33.0878 77.8573L33.0502 77.6182Z" fill="black"/>
<path d="M47.3015 78.1951C45.6919 75.5454 40.3497 75.4697 38.0475 75.4858C37.647 75.4858 37.3166 75.3786 37.0467 75.1931L32.304 84.1566L27.5442 75.1914C27.2744 75.3769 26.9422 75.485 26.5408 75.4858C24.2387 75.4705 18.8965 75.5462 17.2868 78.1951C15.6772 80.8448 14.8156 84.1566 14.8156 84.1566H49.772C49.7728 84.1566 48.9112 80.8448 47.3015 78.1951Z" fill="#292929"/>
<path d="M28.5645 73.395L26.1999 76.5961L27.3826 77.3773L25.919 78.8213L32.3047 84.1564L28.2844 75.5036L28.5645 73.395Z" fill="#545454"/>
<path d="M36.145 73.395L38.5104 76.5961L37.3277 77.3773L38.7914 78.8213L32.3049 84.1564L36.426 75.5036L36.145 73.395Z" fill="#545454"/>
<path d="M25.7785 66.2153L24.8768 63.1282C24.8768 63.1282 24.3431 60.3517 24.519 58.8473C24.6949 57.3429 23.5711 59.0575 23.5711 59.0575C23.5711 59.0575 23.0092 57.3778 24.063 56.3278C25.1167 55.2778 23.7633 55.4182 23.4217 55.5228C23.0801 55.6275 24.3089 53.8083 25.9946 53.3879C27.6802 52.9676 25.4711 52.3728 24.6795 53.2126C24.6795 53.2126 26.2405 49.6431 31.4384 49.6082C36.6362 49.5733 38.2869 53.0024 38.3569 54.5775C38.3569 54.5775 39.8316 54.9621 39.9725 56.9217C39.9725 56.9217 39.3756 56.572 39.3756 56.7464C39.3756 56.9209 40.4482 58.1964 39.6839 63.0882L38.9188 66.3353C38.9188 66.3353 38.5678 56.7115 37.2681 56.4316C36.5525 56.2776 35.2947 56.4095 34.3084 56.5592C33.4784 56.6852 32.6415 56.7583 31.8021 56.7873C30.5323 56.8315 27.4505 57.5888 26.6077 59.1987C25.3422 61.6145 25.7785 66.2153 25.7785 66.2153Z" fill="#613D20"/>
<g clip-path="url(#clip0_1400_32203)">
<path d="M40.4669 23.5581H42.4175C42.8933 23.5581 43.3164 23.6505 43.6862 23.8358C44.0559 24.0212 44.3426 24.2829 44.5466 24.6215C44.7507 24.9601 44.8525 25.3511 44.8525 25.7938C44.8525 26.2371 44.7507 26.6276 44.5466 26.9662C44.3426 27.3048 44.0559 27.5671 43.6862 27.7519C43.3164 27.9372 42.8933 28.0296 42.4175 28.0296H40.4669V23.5581ZM42.3792 27.3278C42.7063 27.3278 42.994 27.2648 43.2429 27.1392C43.4917 27.0137 43.6824 26.8348 43.8167 26.6025C43.9504 26.3701 44.0176 26.101 44.0176 25.7944C44.0176 25.4878 43.9504 25.2181 43.8167 24.9863C43.683 24.754 43.4917 24.575 43.2429 24.4495C42.994 24.324 42.7063 24.261 42.3792 24.261H41.2954V27.3278H42.3792Z" fill="white"/>
<path d="M48.6514 28.0307L47.7398 26.721C47.7014 26.7253 47.6444 26.7275 47.5677 26.7275H46.5607V28.0312H45.7322V23.5581H47.5677C47.9545 23.5581 48.2913 23.6222 48.5779 23.7498C48.8646 23.8775 49.0846 24.0607 49.2375 24.2994C49.3905 24.5382 49.4672 24.8213 49.4672 25.1492C49.4672 25.4857 49.3851 25.7752 49.2216 26.0182C49.058 26.2612 48.823 26.4422 48.5172 26.5613L49.5434 28.0312H48.6514V28.0307ZM48.352 24.4906C48.165 24.3374 47.8911 24.2604 47.5299 24.2604H46.5612V26.0433H47.5299C47.8911 26.0433 48.165 25.9658 48.352 25.8099C48.539 25.6544 48.6323 25.4339 48.6323 25.1487C48.6323 24.8634 48.539 24.6439 48.352 24.4906Z" fill="white"/>
<path d="M50.3916 23.5581H51.2201V28.0307H50.3916V23.5581Z" fill="white"/>
<path d="M56.4725 23.5581L54.5283 28.0307H53.7126L51.762 23.5581H52.6608L54.1458 27.0084L55.6435 23.5581H56.4725Z" fill="white"/>
<path d="M60.2907 27.3342V28.0307H56.9441V23.5581H60.2012V24.2546H57.7726V25.4173H59.9273V26.101H57.7726V27.3342H60.2907Z" fill="white"/>
<path d="M64.1344 28.0307L63.2227 26.721C63.1844 26.7253 63.1273 26.7275 63.0506 26.7275H62.0436V28.0312H61.2151V23.5581H63.0506C63.4374 23.5581 63.7742 23.6222 64.0608 23.7498C64.3475 23.8775 64.5675 24.0607 64.7204 24.2994C64.8734 24.5382 64.9501 24.8213 64.9501 25.1492C64.9501 25.4857 64.868 25.7752 64.7045 26.0182C64.5409 26.2612 64.3059 26.4422 64.0001 26.5613L65.0263 28.0312H64.1344V28.0307ZM63.8349 24.4906C63.6479 24.3374 63.374 24.2604 63.0128 24.2604H62.0441V26.0433H63.0128C63.374 26.0433 63.6479 25.9658 63.8349 25.8099C64.0219 25.6544 64.1152 25.4339 64.1152 25.1487C64.1152 24.8634 64.0214 24.6439 63.8349 24.4906Z" fill="white"/>
<path d="M67.6333 23.5581H68.4618V27.3278H70.795V28.0307H67.6333V23.5581Z" fill="white"/>
<path d="M71.452 23.5581H72.2805V28.0307H71.452V23.5581Z" fill="white"/>
</g>
</g>
<mask id="mask1_1400_32203" style="mask-type:alpha" maskUnits="userSpaceOnUse" x="59" y="19" width="65" height="74">
<path d="M118.818 91.9875C120.972 91.9722 122.72 90.4435 122.733 88.566L123.226 22.9978C123.24 21.1203 121.511 19.6181 119.357 19.6334L74.0227 19.9509L59.6881 34.5966L72.1184 45.4713L64.0961 61.0527L71.1835 69.004L65.7324 82.3469L69.6568 92.3268L118.818 91.9875Z" fill="#F5F5F5"/>
</mask>
<g mask="url(#mask1_1400_32203)">
<path d="M7.33167 30.9209V86.2625C7.33167 89.5965 10.044 92.2983 13.3889 92.2983H116.55C119.896 92.2983 122.608 89.5956 122.608 86.2625V30.9209H7.33167Z" fill="white"/>
<path d="M7.33191 25.9509V30.9207H122.609V25.9509C122.609 22.6169 119.896 19.915 116.551 19.915H13.3892C10.0442 19.915 7.33191 22.6178 7.33191 25.9509Z" fill="#4987FF"/>
<path opacity="0.25" d="M116.551 20.5977H13.3892C10.4266 20.5977 8.01685 22.9988 8.01685 25.951L8.03742 26.9752C8.03742 24.023 10.4686 21.6219 13.4578 21.6219H117.54C118.782 21.6219 119.927 22.0379 120.842 22.7349C119.861 21.4382 118.303 20.5977 116.551 20.5977Z" fill="white"/>
<path opacity="0.11" d="M120.917 21.7671C121.341 22.5914 121.581 23.5268 121.581 24.5168V29.4866H7.33167V30.9208H122.608V25.951C122.608 24.3272 121.964 22.8528 120.917 21.7671Z" fill="black"/>
<path d="M118.209 39.0269H111.562V39.9093H118.209V39.0269Z" fill="#292929"/>
<path d="M118.21 41.0479H111.562V41.3127H118.21V41.0479Z" fill="#292929"/>
<path d="M118.21 42.4521H111.562V43.3345H118.21V42.4521Z" fill="#292929"/>
<path d="M118.21 44.2529H111.562V44.9585H118.21V44.2529Z" fill="#292929"/>
<path d="M118.21 46.186H111.562V46.4508H118.21V46.186Z" fill="#292929"/>
<path d="M118.21 47.8101H111.562V48.2508H118.21V47.8101Z" fill="#292929"/>
<path d="M118.21 49.5225H111.562V49.9632H118.21V49.5225Z" fill="#292929"/>
<path d="M118.21 51.3232H111.562V51.588H118.21V51.3232Z" fill="#292929"/>
<path d="M118.21 52.4629H111.562V53.874H118.21V52.4629Z" fill="#292929"/>
<path d="M118.21 55.1245H111.562V55.3013H118.21V55.1245Z" fill="#292929"/>
<path d="M118.21 55.8882H111.562V57.2993H118.21V55.8882Z" fill="#292929"/>
<path d="M118.21 57.9536H111.562V58.6592H118.21V57.9536Z" fill="#292929"/>
<path d="M118.21 59.7979H111.562V60.2386H118.21V59.7979Z" fill="#292929"/>
<path d="M118.21 61.4224H111.562V62.04H118.21V61.4224Z" fill="#292929"/>
<path d="M118.21 63.3555H111.562V63.5323H118.21V63.3555Z" fill="#292929"/>
<path d="M118.21 65.0239H111.562V65.2887H118.21V65.0239Z" fill="#292929"/>
<path d="M118.21 66.5596H111.562V67.1772H118.21V66.5596Z" fill="#292929"/>
<path d="M118.21 68.4927H111.562V68.6695H118.21V68.4927Z" fill="#292929"/>
<path d="M118.21 69.5879H111.562V70.999H118.21V69.5879Z" fill="#292929"/>
<path d="M118.21 71.5903H111.562V71.7672H118.21V71.5903Z" fill="#292929"/>
<path d="M118.21 73.4106H111.562V74.0282H118.21V73.4106Z" fill="#292929"/>
<path d="M118.21 75.1665H111.562V75.6961H118.21V75.1665Z" fill="#292929"/>
<path d="M118.21 77.0117H111.562V77.2765H118.21V77.0117Z" fill="#292929"/>
<path d="M118.21 78.5923H111.562V79.1219H118.21V78.5923Z" fill="#292929"/>
<path d="M118.21 80.437H111.562V80.7018H118.21V80.437Z" fill="#292929"/>
<path d="M118.21 81.5757H111.562V82.9868H118.21V81.5757Z" fill="#292929"/>
<path d="M118.21 83.7739H111.562V84.2147H118.21V83.7739Z" fill="#292929"/>
<path d="M86.5693 74.9907H52.6285V77.1758H86.5693V74.9907Z" fill="#CCCCCC"/>
<path d="M82.5204 81.9956H52.6027V84.1807H82.5204V81.9956Z" fill="#CCCCCC"/>
<path d="M82.1186 39.0039H56.1716V42.1448H82.1186V39.0039Z" fill="#CCCCCC"/>
<path d="M72.9709 46.9932H52.6285V49.1782H72.9709V46.9932Z" fill="#CCCCCC"/>
<path d="M79.263 54.0269H52.6285V56.2119H79.263V54.0269Z" fill="#CCCCCC"/>
<path d="M105.836 54.0269H82.5621V56.2119H105.836V54.0269Z" fill="#CCCCCC"/>
<path d="M64.2965 61.0605H52.6285V63.2456H64.2965V61.0605Z" fill="#CCCCCC"/>
<path d="M82.5621 61.0605H67.5955V63.2456H82.5621V61.0605Z" fill="#CCCCCC"/>
<path d="M105.836 61.0605H85.6772V63.2456H105.836V61.0605Z" fill="#CCCCCC"/>
<path d="M105.837 46.9932H76.1478V49.1782H105.837V46.9932Z" fill="#CCCCCC"/>
<path d="M105.836 68.0259H52.6285V70.2109H105.836V68.0259Z" fill="#CCCCCC"/>
<path d="M102.293 39.0039H86.8839V42.1448H102.293V39.0039Z" fill="#CCCCCC"/>
<g clip-path="url(#clip1_1400_32203)">
<path d="M61.2719 28.0307L60.3603 26.721C60.3219 26.7253 60.2649 26.7275 60.1882 26.7275H59.1812V28.0312H58.3527V23.5581H60.1882C60.575 23.5581 60.9117 23.6222 61.1984 23.7498C61.4851 23.8775 61.7051 24.0607 61.858 24.2994C62.0109 24.5382 62.0877 24.8213 62.0877 25.1492C62.0877 25.4857 62.0056 25.7752 61.842 26.0182C61.6785 26.2612 61.4435 26.4422 61.1377 26.5613L62.1639 28.0312H61.2719V28.0307ZM60.9725 24.4906C60.7855 24.3374 60.5116 24.2604 60.1504 24.2604H59.1817V26.0433H60.1504C60.5116 26.0433 60.7855 25.9658 60.9725 25.8099C61.1595 25.6544 61.2527 25.4339 61.2527 25.1487C61.2527 24.8634 61.159 24.6439 60.9725 24.4906Z" fill="white"/>
<path d="M64.7709 23.5581H65.5994V27.3278H67.9326V28.0307H64.7709V23.5581Z" fill="white"/>
<path d="M68.5895 23.5581H69.4181V28.0307H68.5895V23.5581Z" fill="white"/>
<path d="M71.4673 27.7974C71.1039 27.5992 70.8194 27.3258 70.6132 26.9765C70.407 26.6272 70.3041 26.233 70.3041 25.7945C70.3041 25.356 70.408 24.9618 70.6164 24.6125C70.8247 24.2632 71.1103 23.9898 71.4737 23.7916C71.837 23.5929 72.2436 23.4941 72.6943 23.4941C73.0598 23.4941 73.3934 23.5582 73.6949 23.6859C73.9965 23.8135 74.2517 23.9989 74.4601 24.2419L73.9246 24.7466C73.6017 24.3973 73.2042 24.2227 72.7327 24.2227C72.4269 24.2227 72.1525 24.2899 71.9106 24.424C71.6681 24.5581 71.479 24.7445 71.3431 24.9832C71.2073 25.222 71.1391 25.4922 71.1391 25.7945C71.1391 26.0968 71.2067 26.3676 71.3431 26.6058C71.479 26.8445 71.6681 27.0309 71.9106 27.165C72.153 27.2991 72.4269 27.3664 72.7327 27.3664C73.2042 27.3664 73.6017 27.1896 73.9246 26.836L74.4601 27.3471C74.2517 27.5902 73.996 27.7755 73.6917 27.9031C73.388 28.0308 73.0534 28.0949 72.6879 28.0949C72.2372 28.0949 71.8306 27.9955 71.4673 27.7974Z" fill="white"/>
<path d="M78.6032 27.3342V28.0307H75.2566V23.5581H78.5137V24.2546H76.0851V25.4173H78.2398V26.101H76.0851V27.3342H78.6032Z" fill="white"/>
<path d="M83.4922 23.5581V28.0307H82.8102L80.3497 25.0018V28.0307H79.5276V23.5581H80.2096L82.6696 26.5865V23.5581H83.4922Z" fill="white"/>
<path d="M85.0763 27.948C84.7556 27.8503 84.5014 27.7199 84.3144 27.5581L84.601 26.9124C84.7838 27.0571 85.0081 27.1757 85.2735 27.267C85.5388 27.3589 85.8057 27.4043 86.0732 27.4043C86.4046 27.4043 86.6524 27.3509 86.8159 27.2446C86.9795 27.1383 87.0616 26.9973 87.0616 26.8226C87.0616 26.695 87.0157 26.5892 86.9246 26.5065C86.833 26.4231 86.7174 26.3585 86.5772 26.3115C86.4371 26.2645 86.2458 26.2116 86.0034 26.1518C85.6635 26.0712 85.3885 25.99 85.1781 25.9088C84.9676 25.8282 84.787 25.701 84.6362 25.5285C84.4854 25.356 84.4098 25.1226 84.4098 24.8289C84.4098 24.5821 84.4769 24.3572 84.6106 24.1548C84.7444 23.9524 84.9463 23.7916 85.2164 23.6725C85.486 23.554 85.8164 23.4941 86.2075 23.4941C86.4792 23.4941 86.7472 23.5283 87.0104 23.5962C87.2736 23.6645 87.5011 23.7623 87.6924 23.8899L87.4308 24.5351C87.2353 24.4203 87.0312 24.3327 86.8191 24.2729C86.6065 24.213 86.4003 24.1837 86.2011 24.1837C85.8739 24.1837 85.6304 24.2392 85.4711 24.3498C85.3118 24.4609 85.2319 24.6077 85.2319 24.7904C85.2319 24.9181 85.2777 25.0227 85.3688 25.1034C85.4599 25.1846 85.5761 25.2481 85.7162 25.2951C85.8563 25.3421 86.0476 25.3955 86.2901 25.4548C86.6215 25.5317 86.8932 25.6113 87.1058 25.6946C87.3184 25.778 87.5001 25.9045 87.6509 26.0749C87.8016 26.2453 87.8773 26.4755 87.8773 26.765C87.8773 27.0123 87.8102 27.2355 87.6764 27.4358C87.5427 27.6361 87.3397 27.7958 87.068 27.9149C86.7957 28.034 86.4643 28.0938 86.0737 28.0938C85.7295 28.0949 85.3971 28.0457 85.0763 27.948Z" fill="white"/>
<path d="M92.0465 27.3342V28.0307H88.7V23.5581H91.957V24.2546H89.5285V25.4173H91.6832V26.101H89.5285V27.3342H92.0465Z" fill="white"/>
</g>
<path d="M107.038 81.9871C105.987 82.6064 104.266 82.5902 103.219 81.9709C102.809 81.7283 102.527 81.4097 102.373 81.0629C102.425 80.986 102.473 80.9074 102.52 80.8288C102.764 80.4111 103.354 79.4441 102.54 79.1554C102.421 79.1127 102.273 79.1323 102.202 79.2186C101.75 79.767 101.638 80.4265 101.849 81.0287C101.544 81.4524 101.154 81.8427 100.69 82.187C100.426 82.3826 100.14 82.5663 99.8322 82.7269C99.6505 82.8217 99.401 82.9498 99.2338 82.7824C99.1438 82.6927 99.1413 82.5133 99.119 82.4091C98.9801 81.7522 98.9544 81.0859 99.0212 80.4239C99.0427 80.2121 98.6295 80.2069 98.5361 80.3769C98.1469 81.0825 97.6882 81.7676 97.1619 82.427C96.9073 82.7465 96.6364 83.06 96.3518 83.3667C96.2198 83.5085 96.0852 83.6485 95.9472 83.7878C95.8666 83.8689 95.786 83.9501 95.702 84.0295C95.5983 84.1286 95.5383 84.2192 95.36 84.1816C95.1062 84.1286 94.9682 83.8621 94.8765 83.7041C94.7848 83.5452 94.7179 83.3786 94.6665 83.2112C94.5559 82.8473 94.5336 82.4732 94.5319 82.1024C94.5293 81.4686 94.5722 80.8339 94.6527 80.2027C95.1439 79.1802 95.4003 78.1022 95.3917 77.013C95.39 76.8191 94.9725 76.7705 94.9065 76.9661C94.5533 78.0116 94.2841 79.0905 94.1418 80.1745C93.6918 81.0816 93.0488 81.941 92.237 82.7234C92.0484 82.9054 92.4771 83.0805 92.6639 82.9003C93.1989 82.386 93.6601 81.8368 94.045 81.2627C94.027 81.6505 94.0261 82.0375 94.0467 82.4228C94.0681 82.8225 94.1315 83.2283 94.3056 83.6101C94.4513 83.9304 94.6742 84.3456 95.1234 84.5087C95.5914 84.6787 95.9137 84.4156 96.1649 84.1713C96.5292 83.8168 96.873 83.4512 97.1953 83.0771C97.6797 82.515 98.1117 81.9324 98.4966 81.3336C98.5009 81.4729 98.5103 81.6113 98.524 81.7496C98.5609 82.1127 98.5703 82.562 98.7735 82.9003C99.2338 83.6673 100.419 82.8704 100.893 82.5389C101.35 82.2203 101.746 81.859 102.071 81.4677C102.271 81.7693 102.562 82.0418 102.942 82.2587C104.202 82.9763 106.151 82.9652 107.39 82.234C107.632 82.0905 107.281 81.8436 107.038 81.9871ZM102.339 80.1164C102.309 80.1967 102.275 80.2761 102.239 80.3556C102.252 80.1138 102.322 79.8729 102.454 79.6466C102.477 79.802 102.382 80.0011 102.339 80.1164Z" fill="#404040"/>
</g>
<path d="M115.226 2H136.647V20.75" stroke="#385423" stroke-width="4" stroke-miterlimit="10" stroke-linejoin="round"/>
<path d="M136.647 88.25V107H115.226" stroke="#385423" stroke-width="4" stroke-miterlimit="10" stroke-linejoin="round"/>
<path d="M22.9498 107H2.35254L2.35254 88.25" stroke="#385423" stroke-width="4" stroke-miterlimit="10" stroke-linejoin="round"/>
<path d="M2.35254 20.75L2.35254 2H22.9498" stroke="#385423" stroke-width="4" stroke-miterlimit="10" stroke-linejoin="round"/>
<g clip-path="url(#clip2_1400_32203)">
<path d="M184.383 29.438V87.2269C184.383 90.7083 187.201 93.5297 190.675 93.5297H297.828C301.303 93.5297 304.12 90.7074 304.12 87.2269V29.438H184.383Z" fill="white"/>
<path d="M184.383 24.2486V29.4381H304.12V24.2486C304.12 20.7671 301.303 17.9458 297.829 17.9458H190.675C187.201 17.9458 184.383 20.768 184.383 24.2486Z" fill="#4987FF"/>
<path opacity="0.25" d="M297.829 18.6587H190.675C187.598 18.6587 185.095 21.1661 185.095 24.2488L185.116 25.3182C185.116 22.2355 187.641 19.7282 190.746 19.7282H298.855C300.146 19.7282 301.335 20.1626 302.285 20.8904C301.267 19.5364 299.648 18.6587 297.829 18.6587Z" fill="white"/>
<path opacity="0.11" d="M302.364 19.8794C302.804 20.7402 303.053 21.7169 303.053 22.7507V27.9402H184.383V29.4379H304.12V24.2483C304.12 22.5527 303.451 21.0131 302.364 19.8794Z" fill="black"/>
<path d="M299.551 37.9028H292.647V38.8243H299.551V37.9028Z" fill="#292929"/>
<path d="M299.551 40.0132H292.647V40.2897H299.551V40.0132Z" fill="#292929"/>
<path d="M299.551 41.4795H292.647V42.4009H299.551V41.4795Z" fill="#292929"/>
<path d="M299.551 43.3599H292.647V44.0966H299.551V43.3599Z" fill="#292929"/>
<path d="M299.551 45.3784H292.647V45.6549H299.551V45.3784Z" fill="#292929"/>
<path d="M299.551 47.0742H292.647V47.5345H299.551V47.0742Z" fill="#292929"/>
<path d="M299.551 48.8628H292.647V49.3231H299.551V48.8628Z" fill="#292929"/>
<path d="M299.551 50.7432H292.647V51.0197H299.551V50.7432Z" fill="#292929"/>
<path d="M299.551 51.9326H292.647V53.4062H299.551V51.9326Z" fill="#292929"/>
<path d="M299.551 54.7124H292.647V54.897H299.551V54.7124Z" fill="#292929"/>
<path d="M299.551 55.5098H292.647V56.9833H299.551V55.5098Z" fill="#292929"/>
<path d="M299.551 57.6665H292.647V58.4033H299.551V57.6665Z" fill="#292929"/>
<path d="M299.551 59.5923H292.647V60.0525H299.551V59.5923Z" fill="#292929"/>
<path d="M299.551 61.2891H292.647V61.934H299.551V61.2891Z" fill="#292929"/>
<path d="M299.551 63.3076H292.647V63.4923H299.551V63.3076Z" fill="#292929"/>
<path d="M299.551 65.0493H292.647V65.3258H299.551V65.0493Z" fill="#292929"/>
<path d="M299.551 66.6533H292.647V67.2982H299.551V66.6533Z" fill="#292929"/>
<path d="M299.551 68.6719H292.647V68.8565H299.551V68.6719Z" fill="#292929"/>
<path d="M299.551 69.8154H292.647V71.289H299.551V69.8154Z" fill="#292929"/>
<path d="M299.551 71.9062H292.647V72.0909H299.551V71.9062Z" fill="#292929"/>
<path d="M299.551 73.8071H292.647V74.452H299.551V73.8071Z" fill="#292929"/>
<path d="M299.551 75.6406H292.647V76.1937H299.551V75.6406Z" fill="#292929"/>
<path d="M299.551 77.5674H292.647V77.8439H299.551V77.5674Z" fill="#292929"/>
<path d="M299.551 79.2178H292.647V79.7708H299.551V79.2178Z" fill="#292929"/>
<path d="M299.551 81.1445H292.647V81.421H299.551V81.1445Z" fill="#292929"/>
<path d="M299.551 82.3335H292.647V83.8071H299.551V82.3335Z" fill="#292929"/>
<path d="M299.551 84.6284H292.647V85.0887H299.551V84.6284Z" fill="#292929"/>
<path d="M266.688 75.457H231.434V77.7387H266.688V75.457Z" fill="#CCCCCC"/>
<path d="M262.481 82.7715H231.406V85.0532H262.481V82.7715Z" fill="#CCCCCC"/>
<path d="M262.065 37.8789H235.114V41.1587H262.065V37.8789Z" fill="#CCCCCC"/>
<path d="M252.563 46.2217H231.434V48.5034H252.563V46.2217Z" fill="#CCCCCC"/>
<path d="M259.099 53.5664H231.434V55.8481H259.099V53.5664Z" fill="#CCCCCC"/>
<path d="M286.7 53.5664H262.525V55.8481H286.7V53.5664Z" fill="#CCCCCC"/>
<path d="M243.553 60.9106H231.434V63.1923H243.553V60.9106Z" fill="#CCCCCC"/>
<path d="M262.525 60.9106H246.979V63.1923H262.525V60.9106Z" fill="#CCCCCC"/>
<path d="M286.7 60.9106H265.761V63.1923H286.7V60.9106Z" fill="#CCCCCC"/>
<path d="M286.7 46.2217H255.863V48.5034H286.7V46.2217Z" fill="#CCCCCC"/>
<path d="M286.7 68.1841H231.434V70.4658H286.7V68.1841Z" fill="#CCCCCC"/>
<path d="M283.02 37.8789H267.014V41.1587H283.02V37.8789Z" fill="#CCCCCC"/>
<path d="M225.422 37.8843H188.974V85.047H225.422V37.8843Z" fill="#EBEBEB"/>
<path d="M222.843 78.8047C221.172 76.0556 215.624 75.9771 213.234 75.9931C211.696 75.994 211.138 74.4732 211.17 72.9443C210.013 73.7926 208.68 74.2787 207.26 74.2787C205.84 74.2787 204.506 73.7935 203.349 72.9443C203.382 74.475 202.826 75.9922 201.286 75.9931C198.896 75.9771 193.348 76.0556 191.677 78.8047C190.005 81.5538 189.111 84.9906 189.111 84.9906H225.41C225.409 84.9897 224.514 81.5538 222.843 78.8047Z" fill="#FDBC91"/>
<path d="M222.844 78.8036C221.172 76.0545 215.624 75.9751 213.234 75.992C212.475 75.992 211.955 75.6219 211.626 75.0635C207.355 77.3015 203.827 75.6201 202.884 75.0786C202.556 75.6281 202.038 75.992 201.285 75.9929C198.894 75.9769 193.346 76.0554 191.675 78.8045C190.004 81.5535 189.108 84.9904 189.108 84.9904H225.41C225.411 84.9895 224.515 81.5527 222.844 78.8036Z" fill="#D9D9D9"/>
<path d="M222.843 78.8063C221.164 76.0447 215.591 75.9653 213.189 75.9814C212.427 75.9814 211.904 75.6094 211.574 75.0483C207.283 77.2961 203.739 75.6076 202.792 75.0635C202.461 75.6156 201.942 75.9814 201.185 75.9814C198.784 75.9653 193.21 76.0438 191.532 78.8063C189.852 81.5678 188.953 85.0207 188.953 85.0207H225.422C225.421 85.0207 224.521 81.5678 222.843 78.8063Z" fill="white"/>
<path d="M207.234 54.4724C207.234 54.6526 207.088 54.7997 206.907 54.7997C206.727 54.7997 206.58 54.6535 206.58 54.4724C206.58 54.2922 206.726 54.145 206.907 54.145C207.088 54.1459 207.234 54.2922 207.234 54.4724Z" fill="#262626"/>
<path d="M207.016 54.4724C207.016 54.5323 206.968 54.5806 206.908 54.5806C206.849 54.5806 206.8 54.5323 206.8 54.4724C206.8 54.4125 206.849 54.3643 206.908 54.3643C206.968 54.3643 207.016 54.4125 207.016 54.4724Z" fill="#141414"/>
<path d="M211.34 71.7331C212.601 70.5895 213.546 68.9376 214.156 67.084C214.526 67.5925 215.086 67.0805 215.154 66.6059C215.148 65.879 216.496 62.5822 214.973 62.7089C214.973 62.7089 214.966 62.724 214.954 62.7499C215.988 48.7253 198.522 48.7431 199.568 62.7553C199.553 62.7258 199.545 62.7089 199.545 62.7089C198.022 62.5867 199.371 65.8727 199.365 66.6059C199.433 67.0814 199.995 67.5943 200.364 67.0814C200.974 68.9367 201.919 70.5895 203.182 71.7331C204.377 72.6607 205.771 73.1932 207.261 73.1932C208.749 73.1941 210.145 72.6607 211.34 71.7331Z" fill="#FDBC91"/>
<path d="M211.17 72.9433C211.178 72.5402 211.227 72.1361 211.31 71.7597C211.32 71.7507 211.329 71.7418 211.339 71.7329C210.144 72.6606 208.749 73.194 207.259 73.194C205.769 73.194 204.374 72.6606 203.18 71.7338C203.19 71.7427 203.199 71.7516 203.208 71.7606C203.291 72.1379 203.34 72.5419 203.349 72.9442C204.506 73.7934 205.839 74.2786 207.26 74.2786C208.68 74.2777 210.013 73.7925 211.17 72.9433Z" fill="#F2AD80"/>
<path d="M205.328 85.0465L206.683 77.0142H207.801L209.045 85.0465H205.328Z" fill="black"/>
<path d="M203.283 73.9185L207.26 76.1779L205.337 78.9662L202.089 75.7747L203.283 73.9185Z" fill="#E6E6E6"/>
<path d="M211.235 73.9185L207.258 76.1779L209.036 78.9662L212.43 75.7747L211.235 73.9185Z" fill="#E6E6E6"/>
<path d="M207.265 76.1733L206.051 77.9359L206.1 77.9743C206.776 78.5032 207.73 78.4871 208.389 77.9359L207.265 76.1733Z" fill="black"/>
<path opacity="0.1" d="M207.984 78.1929C207.509 78.4123 206.961 78.4168 206.483 78.2045L206.441 78.4542C206.942 78.6924 207.526 78.6879 208.023 78.4435L207.984 78.1929Z" fill="black"/>
<path d="M222.844 78.7976C221.165 76.02 215.595 75.9406 213.194 75.9576C212.777 75.9576 212.432 75.8452 212.151 75.6507L207.206 85.0469L202.242 75.6489C201.961 75.8434 201.615 75.9567 201.196 75.9576C198.796 75.9415 193.225 76.0209 191.547 78.7976C189.868 81.5753 188.97 85.0469 188.97 85.0469H225.42C225.421 85.0469 224.522 81.5753 222.844 78.7976Z" fill="#292929"/>
<path d="M203.306 73.7656L200.841 77.1213L202.074 77.9401L200.548 79.4538L207.206 85.0465L203.014 75.976L203.306 73.7656Z" fill="#545454"/>
<path d="M211.211 73.7656L213.677 77.1213L212.444 77.9401L213.97 79.4538L207.206 85.0465L211.504 75.976L211.211 73.7656Z" fill="#545454"/>
<path d="M200.401 66.2392L199.461 63.0031C199.461 63.0031 198.904 60.0925 199.088 58.5155C199.271 56.9385 198.099 58.7358 198.099 58.7358C198.099 58.7358 197.513 56.9751 198.612 55.8743C199.711 54.7736 198.3 54.9208 197.943 55.0305C197.587 55.1402 198.869 53.2332 200.626 52.7925C202.384 52.3519 200.08 51.7284 199.255 52.6088C199.255 52.6088 200.883 48.8669 206.303 48.8304C211.723 48.7938 213.444 52.3885 213.517 54.0395C213.517 54.0395 215.054 54.4427 215.201 56.497C215.201 56.497 214.579 56.1303 214.579 56.3132C214.579 56.4961 215.697 57.8331 214.9 62.9612L214.103 66.365C214.103 66.365 213.737 56.2766 212.381 55.9832C211.635 55.8217 210.324 55.96 209.295 56.117C208.43 56.249 207.557 56.3257 206.682 56.356C205.358 56.4024 202.144 57.1963 201.266 58.8839C199.946 61.4162 200.401 66.2392 200.401 66.2392Z" fill="#613D20"/>
<g clip-path="url(#clip3_1400_32203)">
<path d="M217.663 21.75H219.567C220.031 21.75 220.444 21.8402 220.805 22.0211C221.166 22.2019 221.445 22.4574 221.645 22.7878C221.844 23.1183 221.943 23.4999 221.943 23.932C221.943 24.3646 221.844 24.7457 221.645 25.0762C221.445 25.4066 221.166 25.6626 220.805 25.8429C220.444 26.0238 220.031 26.114 219.567 26.114H217.663V21.75ZM219.529 25.4291C219.849 25.4291 220.129 25.3675 220.372 25.2451C220.615 25.1226 220.801 24.9479 220.932 24.7212C221.063 24.4944 221.128 24.2317 221.128 23.9325C221.128 23.6333 221.063 23.3701 220.932 23.1439C220.802 22.9171 220.615 22.7425 220.372 22.62C220.129 22.4975 219.849 22.436 219.529 22.436H218.472V25.4291H219.529Z" fill="white"/>
<path d="M225.651 26.115L224.761 24.8369C224.724 24.8411 224.668 24.8432 224.593 24.8432H223.61V26.1156H222.802V21.75H224.593C224.971 21.75 225.299 21.8126 225.579 21.9371C225.859 22.0617 226.073 22.2405 226.223 22.4735C226.372 22.7065 226.447 22.9828 226.447 23.3028C226.447 23.6312 226.367 23.9138 226.207 24.1509C226.047 24.3881 225.818 24.5648 225.52 24.681L226.521 26.1156H225.651V26.115ZM225.358 22.6601C225.176 22.5105 224.909 22.4355 224.556 22.4355H223.611V24.1754H224.556C224.909 24.1754 225.176 24.0998 225.358 23.9476C225.541 23.7959 225.632 23.5807 225.632 23.3023C225.632 23.024 225.541 22.8097 225.358 22.6601Z" fill="white"/>
<path d="M227.349 21.75H228.158V26.115H227.349V21.75Z" fill="white"/>
<path d="M233.284 21.75L231.386 26.115H230.59L228.687 21.75H229.564L231.013 25.1173L232.475 21.75H233.284Z" fill="white"/>
<path d="M237.01 25.4353V26.115H233.744V21.75H236.923V22.4297H234.553V23.5645H236.656V24.2317H234.553V25.4353H237.01Z" fill="white"/>
<path d="M240.761 26.115L239.872 24.8369C239.834 24.8411 239.779 24.8432 239.704 24.8432H238.721V26.1156H237.912V21.75H239.704C240.081 21.75 240.41 21.8126 240.69 21.9371C240.969 22.0617 241.184 22.2405 241.333 22.4735C241.483 22.7065 241.558 22.9828 241.558 23.3028C241.558 23.6312 241.477 23.9138 241.318 24.1509C241.158 24.3881 240.929 24.5648 240.63 24.681L241.632 26.1156H240.761V26.115ZM240.469 22.6601C240.287 22.5105 240.019 22.4355 239.667 22.4355H238.721V24.1754H239.667C240.019 24.1754 240.287 24.0998 240.469 23.9476C240.652 23.7959 240.743 23.5807 240.743 23.3023C240.743 23.024 240.651 22.8097 240.469 22.6601Z" fill="white"/>
<path d="M244.176 21.75H244.985V25.4291H247.262V26.115H244.176V21.75Z" fill="white"/>
<path d="M247.903 21.75H248.712V26.115H247.903V21.75Z" fill="white"/>
<path d="M250.712 25.8873C250.357 25.6939 250.079 25.427 249.878 25.0861C249.677 24.7452 249.577 24.3605 249.577 23.9326C249.577 23.5046 249.678 23.1199 249.881 22.779C250.085 22.4381 250.363 22.1712 250.718 21.9778C251.073 21.7839 251.469 21.6875 251.909 21.6875C252.266 21.6875 252.592 21.7501 252.886 21.8746C253.18 21.9992 253.429 22.1801 253.633 22.4173L253.11 22.9099C252.795 22.569 252.407 22.3985 251.947 22.3985C251.648 22.3985 251.38 22.4642 251.144 22.595C250.908 22.7259 250.723 22.9078 250.591 23.1408C250.458 23.3738 250.391 23.6375 250.391 23.9326C250.391 24.2276 250.457 24.4919 250.591 24.7244C250.723 24.9574 250.908 25.1393 251.144 25.2701C251.381 25.401 251.648 25.4666 251.947 25.4666C252.407 25.4666 252.795 25.2941 253.11 24.949L253.633 25.4479C253.429 25.685 253.18 25.8659 252.883 25.9905C252.586 26.1151 252.26 26.1776 251.903 26.1776C251.463 26.1776 251.066 26.0807 250.712 25.8873Z" fill="white"/>
<path d="M257.676 25.4353V26.115H254.41V21.75H257.589V22.4297H255.219V23.5645H257.321V24.2317H255.219V25.4353H257.676Z" fill="white"/>
<path d="M262.448 21.75V26.115H261.782L259.381 23.159V26.115H258.578V21.75H259.244L261.645 24.7055V21.75H262.448Z" fill="white"/>
<path d="M263.994 26.0343C263.681 25.9389 263.433 25.8117 263.25 25.6538L263.53 25.0236C263.708 25.1648 263.927 25.2805 264.186 25.3697C264.445 25.4593 264.705 25.5036 264.967 25.5036C265.29 25.5036 265.532 25.4515 265.691 25.3478C265.851 25.2441 265.931 25.1064 265.931 24.936C265.931 24.8114 265.886 24.7082 265.797 24.6274C265.708 24.5461 265.595 24.483 265.458 24.4371C265.322 24.3913 265.135 24.3397 264.898 24.2813C264.567 24.2026 264.298 24.1233 264.093 24.0441C263.888 23.9654 263.711 23.8413 263.564 23.673C263.417 23.5046 263.343 23.2768 263.343 22.9901C263.343 22.7493 263.409 22.5299 263.539 22.3323C263.67 22.1347 263.867 21.9778 264.13 21.8616C264.393 21.7459 264.716 21.6875 265.098 21.6875C265.363 21.6875 265.624 21.7209 265.881 21.7871C266.138 21.8538 266.36 21.9492 266.547 22.0738L266.291 22.7034C266.101 22.5914 265.901 22.5059 265.695 22.4475C265.487 22.3891 265.286 22.3604 265.091 22.3604C264.772 22.3604 264.534 22.4147 264.379 22.5226C264.223 22.631 264.145 22.7743 264.145 22.9526C264.145 23.0772 264.19 23.1793 264.279 23.2581C264.368 23.3373 264.481 23.3993 264.618 23.4452C264.755 23.4911 264.942 23.5432 265.178 23.601C265.502 23.6761 265.767 23.7538 265.974 23.8351C266.182 23.9164 266.359 24.0399 266.506 24.2062C266.653 24.3725 266.727 24.5972 266.727 24.8797C266.727 25.121 266.662 25.3389 266.531 25.5344C266.401 25.7299 266.203 25.8857 265.937 26.002C265.672 26.1182 265.348 26.1766 264.967 26.1766C264.631 26.1776 264.307 26.1297 263.994 26.0343Z" fill="white"/>
<path d="M270.796 25.4353V26.115H267.53V21.75H270.709V22.4297H268.339V23.5645H270.442V24.2317H268.339V25.4353H270.796Z" fill="white"/>
</g>
<path d="M287.947 82.7625C286.855 83.4092 285.067 83.3923 283.98 82.7456C283.555 82.4922 283.261 82.1595 283.101 81.7974C283.155 81.7171 283.206 81.635 283.254 81.553C283.507 81.1168 284.12 80.1071 283.275 79.8056C283.151 79.761 282.997 79.7815 282.924 79.8716C282.454 80.4442 282.338 81.1329 282.557 81.7617C282.24 82.2041 281.835 82.6118 281.353 82.9712C281.079 83.1755 280.782 83.3673 280.462 83.535C280.273 83.634 280.014 83.7678 279.841 83.5929C279.747 83.4993 279.744 83.312 279.721 83.2032C279.577 82.5172 279.55 81.8215 279.62 81.1302C279.642 80.909 279.213 80.9036 279.116 81.0811C278.712 81.8179 278.235 82.5333 277.689 83.2219C277.424 83.5555 277.143 83.8828 276.847 84.2031C276.71 84.3511 276.57 84.4974 276.427 84.6428C276.343 84.7276 276.259 84.8123 276.172 84.8952C276.064 84.9987 276.002 85.0933 275.817 85.054C275.553 84.9987 275.41 84.7204 275.315 84.5554C275.219 84.3895 275.15 84.2156 275.097 84.0407C274.982 83.6607 274.959 83.2701 274.957 82.8829C274.954 82.2211 274.999 81.5583 275.082 80.8992C275.593 79.8315 275.859 78.7058 275.85 77.5685C275.848 77.366 275.414 77.3152 275.346 77.5194C274.979 78.6112 274.699 79.7378 274.552 80.8697C274.084 81.817 273.416 82.7143 272.573 83.5314C272.377 83.7214 272.822 83.9043 273.017 83.716C273.572 83.1791 274.051 82.6055 274.451 82.0061C274.432 82.4111 274.431 82.8151 274.453 83.2174C274.475 83.6349 274.541 84.0586 274.722 84.4573C274.873 84.7918 275.105 85.2253 275.571 85.3956C276.057 85.5732 276.392 85.2984 276.653 85.0433C277.031 84.6731 277.388 84.2914 277.723 83.9007C278.226 83.3138 278.675 82.7054 279.075 82.0801C279.079 82.2255 279.089 82.37 279.103 82.5145C279.142 82.8936 279.151 83.3628 279.363 83.716C279.841 84.517 281.072 83.6848 281.565 83.3387C282.039 83.006 282.45 82.6287 282.788 82.2202C282.995 82.5351 283.297 82.8196 283.693 83.0462C285.001 83.7954 287.025 83.7838 288.312 83.0203C288.564 82.8704 288.199 82.6127 287.947 82.7625ZM283.066 80.8091C283.035 80.8929 283 80.9759 282.962 81.0588C282.976 80.8064 283.049 80.5549 283.185 80.3185C283.209 80.4808 283.11 80.6887 283.066 80.8091Z" fill="#404040"/>
</g>
<path d="M290.626 2.23006H312V20.939" stroke="#385423" stroke-width="4" stroke-miterlimit="10" stroke-linejoin="round"/>
<path d="M312 88.2911V107H290.626" stroke="#385423" stroke-width="4" stroke-miterlimit="10" stroke-linejoin="round"/>
<path d="M198.552 107H178V88.2911" stroke="#385423" stroke-width="4" stroke-miterlimit="10" stroke-linejoin="round"/>
<path d="M178 20.939V2.23006H198.552" stroke="#385423" stroke-width="4" stroke-miterlimit="10" stroke-linejoin="round"/>
<path d="M245 171C256.046 171 265 162.046 265 151C265 139.954 256.046 131 245 131C233.954 131 225 139.954 225 151C225 162.046 233.954 171 245 171Z" fill="#39B54A"/>
<path d="M243.386 159C242.961 159 242.554 158.831 242.254 158.531L237.45 153.732C237.158 153.43 236.996 153.026 237 152.607C237.004 152.187 237.172 151.786 237.469 151.49C237.766 151.193 238.168 151.025 238.587 151.021C239.007 151.017 239.412 151.179 239.714 151.47L243.094 154.841L250.035 143.755C250.26 143.394 250.619 143.137 251.034 143.041C251.448 142.945 251.884 143.018 252.245 143.243C252.606 143.468 252.862 143.826 252.959 144.24C253.055 144.654 252.982 145.09 252.757 145.45L244.75 158.248C244.622 158.452 244.45 158.625 244.246 158.753C244.043 158.881 243.813 158.962 243.573 158.989C243.511 158.997 243.448 159 243.386 159Z" fill="white"/>
<path d="M69 171C80.0457 171 89 162.046 89 151C89 139.954 80.0457 131 69 131C57.9543 131 49 139.954 49 151C49 162.046 57.9543 171 69 171Z" fill="#E84646"/>
<path d="M71.539 151L77.4518 145.087C77.6233 144.921 77.7601 144.723 77.8542 144.504C77.9483 144.285 77.9979 144.05 77.9999 143.811C78.002 143.573 77.9566 143.336 77.8663 143.116C77.776 142.895 77.6427 142.695 77.4741 142.526C77.3055 142.357 77.105 142.224 76.8843 142.134C76.6637 142.043 76.4272 141.998 76.1888 142C75.9504 142.002 75.7148 142.052 75.4957 142.146C75.2766 142.24 75.0785 142.377 74.9129 142.548L69 148.461L63.0871 142.548C62.9215 142.377 62.7234 142.24 62.5043 142.146C62.2852 142.052 62.0496 142.002 61.8112 142C61.5728 141.998 61.3363 142.043 61.1157 142.134C60.895 142.224 60.6945 142.357 60.5259 142.526C60.3573 142.695 60.224 142.895 60.1337 143.116C60.0434 143.336 59.998 143.573 60.0001 143.811C60.0021 144.05 60.0517 144.285 60.1458 144.504C60.2399 144.723 60.3767 144.921 60.5482 145.087L66.461 151L60.5482 156.913C60.3767 157.079 60.2399 157.277 60.1458 157.496C60.0517 157.715 60.0021 157.95 60.0001 158.189C59.998 158.427 60.0434 158.664 60.1337 158.884C60.224 159.105 60.3573 159.305 60.5259 159.474C60.6945 159.643 60.895 159.776 61.1157 159.866C61.3363 159.957 61.5728 160.002 61.8112 160C62.0496 159.998 62.2852 159.948 62.5043 159.854C62.7234 159.76 62.9215 159.623 63.0871 159.452L69 153.539L74.9129 159.452C75.2515 159.779 75.7051 159.96 76.1759 159.956C76.6467 159.952 77.097 159.763 77.43 159.43C77.7629 159.097 77.9517 158.647 77.9558 158.176C77.9599 157.705 77.7789 157.252 77.4518 156.913L71.539 151Z" fill="white"/>
<defs>
<clipPath id="clip0_1400_32203">
<rect width="54.442" height="4.60073" fill="white" transform="translate(40.4669 23.4941)"/>
</clipPath>
<clipPath id="clip1_1400_32203">
<rect width="54.442" height="4.60073" fill="white" transform="translate(37.6045 23.4941)"/>
</clipPath>
<clipPath id="clip2_1400_32203">
<rect width="119.737" height="75.584" fill="white" transform="translate(184.383 17.9458)"/>
</clipPath>
<clipPath id="clip3_1400_32203">
<rect width="53.1333" height="4.49014" fill="white" transform="translate(217.663 21.6875)"/>
</clipPath>
</defs>
</svg>
