<svg width="32" height="32" viewBox="0 0 32 32" fill="none" xmlns="http://www.w3.org/2000/svg">
<circle cx="16" cy="16" r="16" fill="#9FE870"/>
<path d="M20.2191 22.9997C19.6091 22.9997 18.7522 22.7791 17.4691 22.0622C15.9088 21.1872 14.7019 20.3794 13.15 18.8316C11.6538 17.3363 10.9257 16.3681 9.9066 14.5138C8.75535 12.42 8.9516 11.3225 9.17097 10.8535C9.43222 10.2928 9.81785 9.95752 10.3163 9.62471C10.5994 9.43922 10.899 9.28022 11.2113 9.14971C11.2425 9.13627 11.2716 9.12346 11.2975 9.1119C11.4522 9.04221 11.6866 8.9369 11.9835 9.0494C12.1816 9.12377 12.3585 9.27596 12.6353 9.5494C13.2032 10.1094 13.9791 11.3566 14.2653 11.9691C14.4575 12.3819 14.5847 12.6544 14.585 12.96C14.585 13.3178 14.405 13.5938 14.1866 13.8916C14.1457 13.9475 14.105 14.001 14.0657 14.0528C13.8278 14.3653 13.7757 14.4556 13.81 14.6169C13.8797 14.941 14.3994 15.9056 15.2535 16.7578C16.1075 17.61 17.0444 18.0969 17.3697 18.1663C17.5378 18.2022 17.63 18.1478 17.9525 17.9016C17.9988 17.8663 18.0463 17.8297 18.096 17.7931C18.4291 17.5453 18.6922 17.37 19.0416 17.37H19.0435C19.3475 17.37 19.6078 17.5019 20.0391 17.7194C20.6016 18.0031 21.8863 18.7691 22.4497 19.3375C22.7238 19.6138 22.8766 19.79 22.9513 19.9878C23.0638 20.2856 22.9578 20.5191 22.8888 20.6753C22.8772 20.7013 22.8644 20.7297 22.851 20.7613C22.7194 21.073 22.5595 21.372 22.3732 21.6544C22.041 22.1513 21.7044 22.536 21.1425 22.7975C20.854 22.934 20.5383 23.0031 20.2191 22.9997Z" fill="#353533"/>
</svg>
