<svg width="32" height="32" viewBox="0 0 32 32" fill="none" xmlns="http://www.w3.org/2000/svg">
<circle cx="16" cy="16" r="16" fill="#9FE870"/>
<path d="M12.5 23.5C12.3674 23.5 12.2402 23.4473 12.1464 23.3536C12.0527 23.2598 12 23.1326 12 23V21H11.25C10.6535 20.9993 10.0816 20.7621 9.65974 20.3403C9.23793 19.9184 9.00066 19.3465 9 18.75V12.75C9.00066 12.1535 9.23793 11.5816 9.65974 11.1597C10.0816 10.7379 10.6535 10.5007 11.25 10.5H20.75C21.3465 10.5007 21.9184 10.7379 22.3403 11.1597C22.7621 11.5816 22.9993 12.1535 23 12.75V18.75C22.9993 19.3465 22.7621 19.9184 22.3403 20.3403C21.9184 20.7621 21.3465 20.9993 20.75 21H15.6794L12.8203 23.3841C12.7303 23.4589 12.617 23.4999 12.5 23.5Z" fill="#353533"/>
</svg>
