<svg width="20" height="21" viewBox="0 0 20 21" fill="none" xmlns="http://www.w3.org/2000/svg">
<g id="time">
<path id="Vector" d="M10 2.375C5.51289 2.375 1.875 6.01289 1.875 10.5C1.875 14.9871 5.51289 18.625 10 18.625C14.4871 18.625 18.125 14.9871 18.125 10.5C18.125 6.01289 14.4871 2.375 10 2.375ZM13.75 11.75H10C9.83424 11.75 9.67527 11.6842 9.55806 11.5669C9.44085 11.4497 9.375 11.2908 9.375 11.125V5.5C9.375 5.33424 9.44085 5.17527 9.55806 5.05806C9.67527 4.94085 9.83424 4.875 10 4.875C10.1658 4.875 10.3247 4.94085 10.4419 5.05806C10.5592 5.17527 10.625 5.33424 10.625 5.5V10.5H13.75C13.9158 10.5 14.0747 10.5658 14.1919 10.6831C14.3092 10.8003 14.375 10.9592 14.375 11.125C14.375 11.2908 14.3092 11.4497 14.1919 11.5669C14.0747 11.6842 13.9158 11.75 13.75 11.75Z" fill="#163300"/>
</g>
</svg>
