<svg width="20" height="21" viewBox="0 0 20 21" fill="none" xmlns="http://www.w3.org/2000/svg">
<g id="right arrow / 24 / Outline">
<path id="Vector" d="M12.0047 10.2619L12.0047 10.2619L12.0062 10.2633C12.0374 10.2943 12.0622 10.3312 12.0791 10.3718C12.0961 10.4124 12.1048 10.456 12.1048 10.5C12.1048 10.544 12.0961 10.5876 12.0791 10.6282C12.0622 10.6688 12.0374 10.7057 12.0062 10.7366L12.0047 10.7381L8.47284 14.27C8.47264 14.2702 8.47244 14.2704 8.47224 14.2706C8.44122 14.3012 8.4045 14.3254 8.36415 14.3419C8.32353 14.3585 8.28005 14.3669 8.23618 14.3667L8.23618 14.3666L8.23039 14.3667C8.18653 14.3669 8.14304 14.3585 8.10243 14.3419C8.06236 14.3255 8.02587 14.3015 7.99499 14.2712C7.93368 14.2089 7.89929 14.125 7.89929 14.0375C7.89929 13.9496 7.934 13.8653 7.99584 13.8029C7.99597 13.8027 7.99609 13.8026 7.99622 13.8025L10.9452 10.8535L11.2987 10.5L10.9452 10.1464L7.99622 7.19748C7.99609 7.19734 7.99595 7.19721 7.99582 7.19707C7.93399 7.13466 7.89929 7.05035 7.89929 6.96248C7.89929 6.87442 7.93414 6.78993 7.99622 6.72748L7.99662 6.72708C8.02761 6.69584 8.06447 6.67104 8.10509 6.65411C8.14571 6.63719 8.18928 6.62848 8.23329 6.62848C8.27729 6.62848 8.32086 6.63719 8.36148 6.65411C8.4021 6.67104 8.43896 6.69584 8.46995 6.72708L8.46995 6.72708L8.4714 6.72853L12.0047 10.2619Z" fill="#0E0F0C" stroke="#0E0F0C"/>
</g>
</svg>
