<svg width="20" height="21" viewBox="0 0 20 21" fill="none" xmlns="http://www.w3.org/2000/svg">
<g id="add-circle">
<path id="Vector" d="M2.375 10.5C2.375 6.29606 5.79606 2.875 10 2.875C14.2039 2.875 17.625 6.29606 17.625 10.5C17.625 14.7039 14.2039 18.125 10 18.125C5.79606 18.125 2.375 14.7039 2.375 10.5ZM11.125 13.625V11.625H13.125C13.4234 11.625 13.7095 11.5065 13.9205 11.2955C14.1315 11.0845 14.25 10.7984 14.25 10.5C14.25 10.2016 14.1315 9.91548 13.9205 9.7045C13.7095 9.49353 13.4234 9.375 13.125 9.375H11.125V7.375C11.125 7.07663 11.0065 6.79048 10.7955 6.5795C10.5845 6.36853 10.2984 6.25 10 6.25C9.70163 6.25 9.41548 6.36853 9.2045 6.5795C8.99353 6.79048 8.875 7.07663 8.875 7.375V9.375H6.875C6.57663 9.375 6.29048 9.49353 6.0795 9.7045C5.86853 9.91548 5.75 10.2016 5.75 10.5C5.75 10.7984 5.86853 11.0845 6.0795 11.2955C6.29048 11.5065 6.57663 11.625 6.875 11.625H8.875V13.625C8.875 13.9234 8.99353 14.2095 9.2045 14.4205C9.41548 14.6315 9.70163 14.75 10 14.75C10.2984 14.75 10.5845 14.6315 10.7955 14.4205C11.0065 14.2095 11.125 13.9234 11.125 13.625Z" fill="#163300" stroke="#163300"/>
</g>
</svg>
