<svg width="20" height="21" viewBox="0 0 20 21" fill="none" xmlns="http://www.w3.org/2000/svg">
<g id="clock / 24 / Outline">
<path id="Vector" d="M10.3333 9.66669V10.1667H10.8333H12.5C12.5884 10.1667 12.6732 10.2018 12.7357 10.2643C12.7982 10.3268 12.8333 10.4116 12.8333 10.5C12.8333 10.5884 12.7982 10.6732 12.7357 10.7357C12.6732 10.7982 12.5884 10.8334 12.5 10.8334H9.99996C9.91156 10.8334 9.82677 10.7982 9.76426 10.7357C9.70175 10.6732 9.66663 10.5884 9.66663 10.5V6.33335C9.66663 6.24495 9.70175 6.16016 9.76426 6.09765C9.82677 6.03514 9.91156 6.00002 9.99996 6.00002C10.0884 6.00002 10.1732 6.03514 10.2357 6.09765C10.2982 6.16016 10.3333 6.24495 10.3333 6.33335V9.66669ZM5.648 3.98684C6.93618 3.1261 8.45068 2.66669 9.99996 2.66669C11.0287 2.66669 12.0473 2.8693 12.9977 3.26296C13.948 3.65663 14.8116 4.23362 15.539 4.96102C16.2664 5.68841 16.8434 6.55195 17.237 7.50233C17.6307 8.45272 17.8333 9.47133 17.8333 10.5C17.8333 12.0493 17.3739 13.5638 16.5131 14.852C15.6524 16.1402 14.429 17.1442 12.9977 17.7371C11.5663 18.33 9.99127 18.4851 8.47176 18.1828C6.95224 17.8806 5.55647 17.1345 4.46096 16.039C3.36545 14.9435 2.6194 13.5477 2.31715 12.0282C2.01489 10.5087 2.17002 8.93369 2.76291 7.50233C3.35579 6.07098 4.35981 4.84758 5.648 3.98684ZM6.01838 16.4589C7.19693 17.2464 8.58253 17.6667 9.99996 17.6667C11.9007 17.6667 13.7236 16.9116 15.0676 15.5676C16.4116 14.2236 17.1666 12.4007 17.1666 10.5C17.1666 9.08259 16.7463 7.69699 15.9588 6.51843C15.1713 5.33988 14.0521 4.42131 12.7425 3.87888C11.433 3.33646 9.99201 3.19453 8.60182 3.47106C7.21162 3.74759 5.93464 4.43015 4.93236 5.43242C3.93009 6.4347 3.24753 7.71168 2.971 9.10187C2.69447 10.4921 2.8364 11.933 3.37883 13.2426C3.92125 14.5521 4.83982 15.6714 6.01838 16.4589Z" fill="#0E0F0C" stroke="#A8A9A8"/>
</g>
</svg>
