<svg width="20" height="21" viewBox="0 0 20 21" fill="none" xmlns="http://www.w3.org/2000/svg">
<g id="reorder-three">
<g id="Vector">
<path fill-rule="evenodd" clip-rule="evenodd" d="M3.125 10.5C3.125 10.1548 3.40482 9.875 3.75 9.875H16.25C16.5952 9.875 16.875 10.1548 16.875 10.5C16.875 10.8452 16.5952 11.125 16.25 11.125H3.75C3.40482 11.125 3.125 10.8452 3.125 10.5Z" fill="#163300"/>
<path fill-rule="evenodd" clip-rule="evenodd" d="M3.125 7.375C3.125 7.02982 3.40482 6.75 3.75 6.75H16.25C16.5952 6.75 16.875 7.02982 16.875 7.375C16.875 7.72018 16.5952 8 16.25 8H3.75C3.40482 8 3.125 7.72018 3.125 7.375Z" fill="#163300"/>
<path fill-rule="evenodd" clip-rule="evenodd" d="M3.125 13.625C3.125 13.2798 3.40482 13 3.75 13H16.25C16.5952 13 16.875 13.2798 16.875 13.625C16.875 13.9702 16.5952 14.25 16.25 14.25H3.75C3.40482 14.25 3.125 13.9702 3.125 13.625Z" fill="#163300"/>
<path fill-rule="evenodd" clip-rule="evenodd" d="M3.125 10.5C3.125 10.1548 3.40482 9.875 3.75 9.875H16.25C16.5952 9.875 16.875 10.1548 16.875 10.5C16.875 10.8452 16.5952 11.125 16.25 11.125H3.75C3.40482 11.125 3.125 10.8452 3.125 10.5Z" stroke="#163300" stroke-linecap="round" stroke-linejoin="round"/>
<path fill-rule="evenodd" clip-rule="evenodd" d="M3.125 7.375C3.125 7.02982 3.40482 6.75 3.75 6.75H16.25C16.5952 6.75 16.875 7.02982 16.875 7.375C16.875 7.72018 16.5952 8 16.25 8H3.75C3.40482 8 3.125 7.72018 3.125 7.375Z" stroke="#163300" stroke-linecap="round" stroke-linejoin="round"/>
<path fill-rule="evenodd" clip-rule="evenodd" d="M3.125 13.625C3.125 13.2798 3.40482 13 3.75 13H16.25C16.5952 13 16.875 13.2798 16.875 13.625C16.875 13.9702 16.5952 14.25 16.25 14.25H3.75C3.40482 14.25 3.125 13.9702 3.125 13.625Z" stroke="#163300" stroke-linecap="round" stroke-linejoin="round"/>
</g>
</g>
</svg>
