<svg width="20" height="21" viewBox="0 0 20 21" fill="none" xmlns="http://www.w3.org/2000/svg">
<g id="calendar-clear">
<path id="Vector" d="M15.125 2.99958V3.49958H15.625H16.25C16.7804 3.49958 17.2891 3.71029 17.6642 4.08536C18.0393 4.46044 18.25 4.96914 18.25 5.49958V5.62458H1.75V5.49958C1.75 4.96914 1.96071 4.46044 2.33579 4.08536C2.71086 3.71029 3.21957 3.49958 3.75 3.49958H4.375H4.875V2.99958V2.37462C4.875 2.37461 4.875 2.37459 4.875 2.37458C4.87501 2.35767 4.87844 2.34094 4.8851 2.3254C4.89177 2.30985 4.90152 2.29581 4.91377 2.28414C4.92602 2.27247 4.94051 2.2634 4.95637 2.2575L4.7836 1.79368L4.95637 2.2575C4.97208 2.25164 4.9888 2.24901 5.00555 2.24976C5.05916 2.25269 5.125 2.30563 5.125 2.39215V2.99958V3.49958H5.625H14.375H14.875V2.99958V2.37462C14.875 2.37461 14.875 2.37459 14.875 2.37458C14.875 2.35767 14.8784 2.34094 14.8851 2.3254C14.8918 2.30985 14.9015 2.29581 14.9138 2.28414C14.926 2.27247 14.9405 2.2634 14.9564 2.2575C14.9721 2.25164 14.9888 2.24901 15.0055 2.24976C15.0592 2.25269 15.125 2.30563 15.125 2.39215V2.99958ZM2.33579 18.1638C1.96071 17.7887 1.75 17.28 1.75 16.7496V7.87458H18.25V16.7496C18.25 17.28 18.0393 17.7887 17.6642 18.1638C17.2891 18.5389 16.7804 18.7496 16.25 18.7496H3.75C3.21957 18.7496 2.71086 18.5389 2.33579 18.1638Z" fill="#373737" stroke="#353533"/>
</g>
</svg>
