<svg width="20" height="21" viewBox="0 0 20 21" fill="none" xmlns="http://www.w3.org/2000/svg">
<g id="calendar / 24 / Outline">
<g id="Vector">
<mask id="path-1-inside-1_2029_5038" fill="white">
<path d="M10 16.3333C10.1648 16.3333 10.326 16.2844 10.463 16.1929C10.6 16.1013 10.7068 15.9712 10.7699 15.8189C10.833 15.6666 10.8495 15.4991 10.8173 15.3374C10.7852 15.1758 10.7058 15.0273 10.5893 14.9107C10.4727 14.7942 10.3242 14.7148 10.1626 14.6827C10.0009 14.6505 9.83339 14.667 9.68112 14.7301C9.52885 14.7932 9.3987 14.9 9.30713 15.037C9.21556 15.174 9.16669 15.3352 9.16669 15.5C9.16669 15.721 9.25448 15.933 9.41077 16.0892C9.56705 16.2455 9.77901 16.3333 10 16.3333ZM14.1667 16.3333C14.3315 16.3333 14.4926 16.2844 14.6297 16.1929C14.7667 16.1013 14.8735 15.9712 14.9366 15.8189C14.9997 15.6666 15.0162 15.4991 14.984 15.3374C14.9519 15.1758 14.8725 15.0273 14.7559 14.9107C14.6394 14.7942 14.4909 14.7148 14.3293 14.6827C14.1676 14.6505 14.0001 14.667 13.8478 14.7301C13.6955 14.7932 13.5654 14.9 13.4738 15.037C13.3822 15.174 13.3334 15.3352 13.3334 15.5C13.3334 15.721 13.4212 15.933 13.5774 16.0892C13.7337 16.2455 13.9457 16.3333 14.1667 16.3333ZM14.1667 13C14.3315 13 14.4926 12.9511 14.6297 12.8595C14.7667 12.768 14.8735 12.6378 14.9366 12.4855C14.9997 12.3333 15.0162 12.1657 14.984 12.0041C14.9519 11.8424 14.8725 11.6939 14.7559 11.5774C14.6394 11.4608 14.4909 11.3815 14.3293 11.3493C14.1676 11.3172 14.0001 11.3337 13.8478 11.3967C13.6955 11.4598 13.5654 11.5666 13.4738 11.7037C13.3822 11.8407 13.3334 12.0018 13.3334 12.1666C13.3334 12.3877 13.4212 12.5996 13.5774 12.7559C13.7337 12.9122 13.9457 13 14.1667 13ZM10 13C10.1648 13 10.326 12.9511 10.463 12.8595C10.6 12.768 10.7068 12.6378 10.7699 12.4855C10.833 12.3333 10.8495 12.1657 10.8173 12.0041C10.7852 11.8424 10.7058 11.6939 10.5893 11.5774C10.4727 11.4608 10.3242 11.3815 10.1626 11.3493C10.0009 11.3172 9.83339 11.3337 9.68112 11.3967C9.52885 11.4598 9.3987 11.5666 9.30713 11.7037C9.21556 11.8407 9.16669 12.0018 9.16669 12.1666C9.16669 12.3877 9.25448 12.5996 9.41077 12.7559C9.56705 12.9122 9.77901 13 10 13ZM15.8334 2.99998H15V2.16665C15 1.94563 14.9122 1.73367 14.7559 1.57739C14.5997 1.42111 14.3877 1.33331 14.1667 1.33331C13.9457 1.33331 13.7337 1.42111 13.5774 1.57739C13.4212 1.73367 13.3334 1.94563 13.3334 2.16665V2.99998H6.66669V2.16665C6.66669 1.94563 6.57889 1.73367 6.42261 1.57739C6.26633 1.42111 6.05437 1.33331 5.83335 1.33331C5.61234 1.33331 5.40038 1.42111 5.2441 1.57739C5.08782 1.73367 5.00002 1.94563 5.00002 2.16665V2.99998H4.16669C3.50365 2.99998 2.86776 3.26337 2.39892 3.73221C1.93008 4.20105 1.66669 4.83694 1.66669 5.49998V17.1666C1.66669 17.8297 1.93008 18.4656 2.39892 18.9344C2.86776 19.4033 3.50365 19.6666 4.16669 19.6666H15.8334C16.4964 19.6666 17.1323 19.4033 17.6011 18.9344C18.07 18.4656 18.3334 17.8297 18.3334 17.1666V5.49998C18.3334 4.83694 18.07 4.20105 17.6011 3.73221C17.1323 3.26337 16.4964 2.99998 15.8334 2.99998ZM16.6667 17.1666C16.6667 17.3877 16.5789 17.5996 16.4226 17.7559C16.2663 17.9122 16.0544 18 15.8334 18H4.16669C3.94567 18 3.73371 17.9122 3.57743 17.7559C3.42115 17.5996 3.33335 17.3877 3.33335 17.1666V9.66665H16.6667V17.1666ZM16.6667 7.99998H3.33335V5.49998C3.33335 5.27897 3.42115 5.067 3.57743 4.91072C3.73371 4.75444 3.94567 4.66665 4.16669 4.66665H5.00002V5.49998C5.00002 5.72099 5.08782 5.93295 5.2441 6.08923C5.40038 6.24551 5.61234 6.33331 5.83335 6.33331C6.05437 6.33331 6.26633 6.24551 6.42261 6.08923C6.57889 5.93295 6.66669 5.72099 6.66669 5.49998V4.66665H13.3334V5.49998C13.3334 5.72099 13.4212 5.93295 13.5774 6.08923C13.7337 6.24551 13.9457 6.33331 14.1667 6.33331C14.3877 6.33331 14.5997 6.24551 14.7559 6.08923C14.9122 5.93295 15 5.72099 15 5.49998V4.66665H15.8334C16.0544 4.66665 16.2663 4.75444 16.4226 4.91072C16.5789 5.067 16.6667 5.27897 16.6667 5.49998V7.99998ZM5.83335 13C5.99817 13 6.15929 12.9511 6.29633 12.8595C6.43337 12.768 6.54018 12.6378 6.60325 12.4855C6.66633 12.3333 6.68283 12.1657 6.65068 12.0041C6.61852 11.8424 6.53915 11.6939 6.42261 11.5774C6.30607 11.4608 6.15758 11.3815 5.99593 11.3493C5.83428 11.3172 5.66672 11.3337 5.51445 11.3967C5.36218 11.4598 5.23203 11.5666 5.14046 11.7037C5.04889 11.8407 5.00002 12.0018 5.00002 12.1666C5.00002 12.3877 5.08782 12.5996 5.2441 12.7559C5.40038 12.9122 5.61234 13 5.83335 13ZM5.83335 16.3333C5.99817 16.3333 6.15929 16.2844 6.29633 16.1929C6.43337 16.1013 6.54018 15.9712 6.60325 15.8189C6.66633 15.6666 6.68283 15.4991 6.65068 15.3374C6.61852 15.1758 6.53915 15.0273 6.42261 14.9107C6.30607 14.7942 6.15758 14.7148 5.99593 14.6827C5.83428 14.6505 5.66672 14.667 5.51445 14.7301C5.36218 14.7932 5.23203 14.9 5.14046 15.037C5.04889 15.174 5.00002 15.3352 5.00002 15.5C5.00002 15.721 5.08782 15.933 5.2441 16.0892C5.40038 16.2455 5.61234 16.3333 5.83335 16.3333Z"/>
</mask>
<path d="M10 16.3333C10.1648 16.3333 10.326 16.2844 10.463 16.1929C10.6 16.1013 10.7068 15.9712 10.7699 15.8189C10.833 15.6666 10.8495 15.4991 10.8173 15.3374C10.7852 15.1758 10.7058 15.0273 10.5893 14.9107C10.4727 14.7942 10.3242 14.7148 10.1626 14.6827C10.0009 14.6505 9.83339 14.667 9.68112 14.7301C9.52885 14.7932 9.3987 14.9 9.30713 15.037C9.21556 15.174 9.16669 15.3352 9.16669 15.5C9.16669 15.721 9.25448 15.933 9.41077 16.0892C9.56705 16.2455 9.77901 16.3333 10 16.3333ZM14.1667 16.3333C14.3315 16.3333 14.4926 16.2844 14.6297 16.1929C14.7667 16.1013 14.8735 15.9712 14.9366 15.8189C14.9997 15.6666 15.0162 15.4991 14.984 15.3374C14.9519 15.1758 14.8725 15.0273 14.7559 14.9107C14.6394 14.7942 14.4909 14.7148 14.3293 14.6827C14.1676 14.6505 14.0001 14.667 13.8478 14.7301C13.6955 14.7932 13.5654 14.9 13.4738 15.037C13.3822 15.174 13.3334 15.3352 13.3334 15.5C13.3334 15.721 13.4212 15.933 13.5774 16.0892C13.7337 16.2455 13.9457 16.3333 14.1667 16.3333ZM14.1667 13C14.3315 13 14.4926 12.9511 14.6297 12.8595C14.7667 12.768 14.8735 12.6378 14.9366 12.4855C14.9997 12.3333 15.0162 12.1657 14.984 12.0041C14.9519 11.8424 14.8725 11.6939 14.7559 11.5774C14.6394 11.4608 14.4909 11.3815 14.3293 11.3493C14.1676 11.3172 14.0001 11.3337 13.8478 11.3967C13.6955 11.4598 13.5654 11.5666 13.4738 11.7037C13.3822 11.8407 13.3334 12.0018 13.3334 12.1666C13.3334 12.3877 13.4212 12.5996 13.5774 12.7559C13.7337 12.9122 13.9457 13 14.1667 13ZM10 13C10.1648 13 10.326 12.9511 10.463 12.8595C10.6 12.768 10.7068 12.6378 10.7699 12.4855C10.833 12.3333 10.8495 12.1657 10.8173 12.0041C10.7852 11.8424 10.7058 11.6939 10.5893 11.5774C10.4727 11.4608 10.3242 11.3815 10.1626 11.3493C10.0009 11.3172 9.83339 11.3337 9.68112 11.3967C9.52885 11.4598 9.3987 11.5666 9.30713 11.7037C9.21556 11.8407 9.16669 12.0018 9.16669 12.1666C9.16669 12.3877 9.25448 12.5996 9.41077 12.7559C9.56705 12.9122 9.77901 13 10 13ZM15.8334 2.99998H15V2.16665C15 1.94563 14.9122 1.73367 14.7559 1.57739C14.5997 1.42111 14.3877 1.33331 14.1667 1.33331C13.9457 1.33331 13.7337 1.42111 13.5774 1.57739C13.4212 1.73367 13.3334 1.94563 13.3334 2.16665V2.99998H6.66669V2.16665C6.66669 1.94563 6.57889 1.73367 6.42261 1.57739C6.26633 1.42111 6.05437 1.33331 5.83335 1.33331C5.61234 1.33331 5.40038 1.42111 5.2441 1.57739C5.08782 1.73367 5.00002 1.94563 5.00002 2.16665V2.99998H4.16669C3.50365 2.99998 2.86776 3.26337 2.39892 3.73221C1.93008 4.20105 1.66669 4.83694 1.66669 5.49998V17.1666C1.66669 17.8297 1.93008 18.4656 2.39892 18.9344C2.86776 19.4033 3.50365 19.6666 4.16669 19.6666H15.8334C16.4964 19.6666 17.1323 19.4033 17.6011 18.9344C18.07 18.4656 18.3334 17.8297 18.3334 17.1666V5.49998C18.3334 4.83694 18.07 4.20105 17.6011 3.73221C17.1323 3.26337 16.4964 2.99998 15.8334 2.99998ZM16.6667 17.1666C16.6667 17.3877 16.5789 17.5996 16.4226 17.7559C16.2663 17.9122 16.0544 18 15.8334 18H4.16669C3.94567 18 3.73371 17.9122 3.57743 17.7559C3.42115 17.5996 3.33335 17.3877 3.33335 17.1666V9.66665H16.6667V17.1666ZM16.6667 7.99998H3.33335V5.49998C3.33335 5.27897 3.42115 5.067 3.57743 4.91072C3.73371 4.75444 3.94567 4.66665 4.16669 4.66665H5.00002V5.49998C5.00002 5.72099 5.08782 5.93295 5.2441 6.08923C5.40038 6.24551 5.61234 6.33331 5.83335 6.33331C6.05437 6.33331 6.26633 6.24551 6.42261 6.08923C6.57889 5.93295 6.66669 5.72099 6.66669 5.49998V4.66665H13.3334V5.49998C13.3334 5.72099 13.4212 5.93295 13.5774 6.08923C13.7337 6.24551 13.9457 6.33331 14.1667 6.33331C14.3877 6.33331 14.5997 6.24551 14.7559 6.08923C14.9122 5.93295 15 5.72099 15 5.49998V4.66665H15.8334C16.0544 4.66665 16.2663 4.75444 16.4226 4.91072C16.5789 5.067 16.6667 5.27897 16.6667 5.49998V7.99998ZM5.83335 13C5.99817 13 6.15929 12.9511 6.29633 12.8595C6.43337 12.768 6.54018 12.6378 6.60325 12.4855C6.66633 12.3333 6.68283 12.1657 6.65068 12.0041C6.61852 11.8424 6.53915 11.6939 6.42261 11.5774C6.30607 11.4608 6.15758 11.3815 5.99593 11.3493C5.83428 11.3172 5.66672 11.3337 5.51445 11.3967C5.36218 11.4598 5.23203 11.5666 5.14046 11.7037C5.04889 11.8407 5.00002 12.0018 5.00002 12.1666C5.00002 12.3877 5.08782 12.5996 5.2441 12.7559C5.40038 12.9122 5.61234 13 5.83335 13ZM5.83335 16.3333C5.99817 16.3333 6.15929 16.2844 6.29633 16.1929C6.43337 16.1013 6.54018 15.9712 6.60325 15.8189C6.66633 15.6666 6.68283 15.4991 6.65068 15.3374C6.61852 15.1758 6.53915 15.0273 6.42261 14.9107C6.30607 14.7942 6.15758 14.7148 5.99593 14.6827C5.83428 14.6505 5.66672 14.667 5.51445 14.7301C5.36218 14.7932 5.23203 14.9 5.14046 15.037C5.04889 15.174 5.00002 15.3352 5.00002 15.5C5.00002 15.721 5.08782 15.933 5.2441 16.0892C5.40038 16.2455 5.61234 16.3333 5.83335 16.3333Z" fill="#353533" stroke="#353533" stroke-width="2" mask="url(#path-1-inside-1_2029_5038)"/>
</g>
</g>
</svg>
