<svg width="16" height="17" viewBox="0 0 16 17" fill="none" xmlns="http://www.w3.org/2000/svg">
<g id="calender time filled 1" clip-path="url(#clip0_2056_4672)">
<g id="Group">
<g id="Group_2">
<path id="Vector" d="M10.6665 0.500014C10.6612 0.499977 10.6559 0.500014 10.6506 0.500126C10.287 0.493884 9.98725 0.783558 9.98105 1.14709C9.98093 1.15393 9.98093 1.16077 9.98101 1.16761V2.70539H11.3266V1.16761C11.3286 0.800976 11.0331 0.502107 10.6665 0.500014Z" fill="#163300"/>
</g>
</g>
<g id="Group_3">
<g id="Group_4">
<path id="Vector_2" d="M12.2354 2.14453H11.9247V3.01251C11.9278 3.1699 11.8028 3.30009 11.6454 3.30323C11.6416 3.3033 11.6378 3.3033 11.634 3.30323H9.6671C9.51266 3.30577 9.38542 3.18269 9.38284 3.02824C9.38277 3.02301 9.38281 3.01774 9.38303 3.01251V2.14453H4.29971V3.01251C4.29463 3.17775 4.15682 3.30779 3.99154 3.30323H2.02474C1.86107 3.30745 1.72498 3.17824 1.72072 3.01456C1.72072 3.01389 1.72068 3.01318 1.72068 3.01251V2.14453H1.44203C0.769538 2.14793 0.226034 2.69383 0.225586 3.36632V4.64881H13.4572V3.36632C13.4542 2.69278 12.9089 2.14748 12.2354 2.14453Z" fill="#163300"/>
</g>
</g>
<g id="Group_5">
<g id="Group_6">
<path id="Vector_3" d="M3.00831 0.5C2.63091 0.5 2.31885 0.79016 2.31885 1.16748V2.70526H3.70181V1.16748C3.70181 0.79016 3.38567 0.5 3.00831 0.5Z" fill="#163300"/>
</g>
</g>
<g id="Group_7">
<g id="Group_8">
<path id="Vector_4" d="M0.225586 5.24707V13.4295C0.225586 14.1 0.771295 14.6662 1.44203 14.6662H6.98251C6.51129 13.8753 6.26176 12.9721 6.26012 12.0515C6.26012 9.26319 8.52997 6.98444 11.3183 6.98444C12.0571 6.98624 12.7868 7.14797 13.4572 7.4585V5.24707H0.225586Z" fill="#163300"/>
</g>
</g>
<g id="Group_9">
<g id="Group_10">
<path id="Vector_5" d="M11.3156 7.58203C8.85311 7.58207 6.8569 9.57835 6.85693 12.0409C6.85697 14.5034 8.85326 16.4996 11.3158 16.4996C13.7783 16.4996 15.7745 14.5033 15.7745 12.0408C15.7717 9.5794 13.777 7.58476 11.3156 7.58203ZM13.0765 12.7221H11.0722C10.9043 12.7191 10.769 12.5835 10.7662 12.4156V9.7932C10.7662 9.62807 10.9001 9.49418 11.0652 9.49418C11.2303 9.49418 11.3642 9.62807 11.3642 9.7932V12.124H13.0765C13.2416 12.124 13.3755 12.2579 13.3755 12.4231C13.3755 12.5882 13.2416 12.7221 13.0765 12.7221Z" fill="#163300"/>
</g>
</g>
</g>
<defs>
<clipPath id="clip0_2056_4672">
<rect width="16" height="16" fill="white" transform="translate(0 0.5)"/>
</clipPath>
</defs>
</svg>
