<svg width="17" height="17" viewBox="0 0 17 17" fill="none" xmlns="http://www.w3.org/2000/svg">
<path fill-rule="evenodd" clip-rule="evenodd" d="M6.73223 3.23223C7.20107 2.76339 7.83696 2.5 8.5 2.5C9.16304 2.5 9.79893 2.76339 10.2678 3.23223C10.7366 3.70107 11 4.33696 11 5V5.5H6V5C6 4.33696 6.26339 3.70107 6.73223 3.23223ZM5 5.5V5C5 4.07174 5.36875 3.1815 6.02513 2.52513C6.6815 1.86875 7.57174 1.5 8.5 1.5C9.42826 1.5 10.3185 1.86875 10.9749 2.52513C11.6313 3.1815 12 4.07174 12 5V5.5H14C14.2652 5.5 14.5196 5.60536 14.7071 5.79289C14.8946 5.98043 15 6.23478 15 6.5V13.2891C15 14.5247 13.9564 15.5 12.75 15.5H4.25C3.02886 15.5 2 14.4711 2 13.25V6.5C2 6.23478 2.10536 5.98043 2.29289 5.79289C2.48043 5.60536 2.73478 5.5 3 5.5H5ZM11.5 6.5H5.5H3L3 13.25C3 13.9189 3.58114 14.5 4.25 14.5H12.75C13.4336 14.5 14 13.9434 14 13.2891V6.5H11.5Z" fill="#163300"/>
</svg>
