<svg width="17" height="17" viewBox="0 0 17 17" fill="none" xmlns="http://www.w3.org/2000/svg">
<path d="M14.7078 5.79375C14.6151 5.7004 14.5048 5.62637 14.3833 5.57595C14.2618 5.52553 14.1315 5.49971 14 5.5H12V5C12 4.07174 11.6313 3.1815 10.9749 2.52513C10.3185 1.86875 9.42826 1.5 8.5 1.5C7.57174 1.5 6.6815 1.86875 6.02513 2.52513C5.36875 3.1815 5 4.07174 5 5V5.5H3C2.73478 5.5 2.48043 5.60536 2.29289 5.79289C2.10536 5.98043 2 6.23478 2 6.5V13.25C2 14.4688 3.03125 15.5 4.25 15.5H12.75C13.3395 15.5002 13.9057 15.2697 14.3275 14.8578C14.5398 14.6553 14.7088 14.4119 14.8244 14.1423C14.9399 13.8727 14.9997 13.5824 15 13.2891V6.5C15.0004 6.36881 14.9748 6.23884 14.9246 6.11761C14.8745 5.99638 14.8008 5.88631 14.7078 5.79375ZM6 5C6 4.33696 6.26339 3.70107 6.73223 3.23223C7.20107 2.76339 7.83696 2.5 8.5 2.5C9.16304 2.5 9.79893 2.76339 10.2678 3.23223C10.7366 3.70107 11 4.33696 11 5V5.5H6V5Z" fill="#163300"/>
</svg>
