<svg width="16" height="16" viewBox="0 0 16 16" fill="none" xmlns="http://www.w3.org/2000/svg">
<g clip-path="url(#clip0_2114_5204)">
<path d="M14.0007 2.49915H4.00421C3.45212 2.49915 3.00456 2.94671 3.00456 3.49879C3.00456 4.05088 3.45212 4.49844 4.00421 4.49844H14.0007C14.5528 4.49844 15.0003 4.05088 15.0003 3.49879C15.0003 2.94671 14.5528 2.49915 14.0007 2.49915Z" fill="#163300"/>
<path d="M2.00493 3.49873C2.0038 3.23405 1.89775 2.9806 1.71003 2.79398C1.32014 2.4064 0.690421 2.4064 0.300526 2.79398C0.11278 2.9806 0.00672348 3.23405 0.00563011 3.49873C-0.00183601 3.56349 -0.00183601 3.62891 0.00563011 3.69367C0.0169386 3.7588 0.0353697 3.8225 0.0606108 3.8836C0.0874451 3.9428 0.119215 3.99965 0.155577 4.05354C0.191471 4.10958 0.233363 4.16153 0.280533 4.20849C0.326017 4.25378 0.376281 4.29402 0.430481 4.32844C0.483119 4.36677 0.540192 4.39867 0.600421 4.42341C0.666679 4.45777 0.73731 4.48301 0.810347 4.49838C0.875106 4.50563 0.94052 4.50563 1.00528 4.49838C1.26925 4.4986 1.5226 4.39439 1.71003 4.20849C1.7572 4.16153 1.79909 4.10958 1.83499 4.05354C1.87135 3.99965 1.90312 3.9428 1.92995 3.8836C1.96185 3.82325 1.987 3.75955 2.00493 3.69367C2.01239 3.62891 2.01239 3.56349 2.00493 3.49873Z" fill="#163300"/>
<path d="M2.00493 7.99715C2.01236 7.93239 2.01236 7.86697 2.00493 7.80222C1.98765 7.73771 1.96247 7.6756 1.92995 7.61728C1.90421 7.55596 1.87238 7.49736 1.83499 7.44234C1.80034 7.38693 1.7583 7.33647 1.71003 7.2924C1.32014 6.90481 0.690421 6.90481 0.300527 7.2924C0.11278 7.47902 0.00672386 7.73246 0.00563049 7.99715C0.00756731 8.12888 0.0329646 8.25918 0.0806041 8.38201C0.105658 8.44115 0.135772 8.498 0.170573 8.55195C0.20859 8.60628 0.252138 8.65654 0.300527 8.7019C0.344699 8.75007 0.395119 8.79212 0.450474 8.82686C0.503112 8.86522 0.560154 8.89711 0.620414 8.92182C0.681362 8.94747 0.745121 8.96593 0.810348 8.9768C0.874294 8.99114 0.93974 8.99786 1.00528 8.9968C1.07004 9.00426 1.13545 9.00426 1.20021 8.9968C1.26381 8.98589 1.32592 8.96743 1.38515 8.94182C1.44703 8.91726 1.50576 8.88537 1.56008 8.84685C1.61544 8.81211 1.66586 8.77006 1.71003 8.72189C1.7582 8.67772 1.80025 8.6273 1.83499 8.57195C1.87341 8.51934 1.90531 8.4623 1.92995 8.40201C1.9641 8.33565 1.98931 8.26505 2.00493 8.19208C2.01261 8.12732 2.01261 8.06191 2.00493 7.99715Z" fill="#163300"/>
<path d="M2.00491 12.4956C2.01232 12.4308 2.01232 12.3654 2.00491 12.3006C1.98764 12.2345 1.96246 12.1708 1.92994 12.1107C1.9031 12.0515 1.87133 11.9946 1.83497 11.9408C1.80023 11.8854 1.75819 11.835 1.71002 11.7908C1.32012 11.4032 0.690406 11.4032 0.300512 11.7908C0.252341 11.835 0.210294 11.8854 0.175556 11.9408C0.139194 11.9946 0.107423 12.0515 0.0805891 12.1107C0.0546607 12.1715 0.0361985 12.2353 0.0256084 12.3006C0.0115197 12.3646 0.0048345 12.43 0.00561548 12.4956C0.00674008 12.7602 0.112797 13.0137 0.300512 13.2003C0.344684 13.2485 0.395104 13.2905 0.450459 13.3253C0.503097 13.3636 0.560139 13.3955 0.620399 13.4202C0.681347 13.4459 0.745106 13.4643 0.810333 13.4752C0.874279 13.4896 0.939725 13.4963 1.00526 13.4952C1.07002 13.5027 1.13544 13.5027 1.2002 13.4952C1.2638 13.4843 1.3259 13.4658 1.38513 13.4402C1.44701 13.4157 1.50574 13.3838 1.56007 13.3453C1.61542 13.3105 1.66584 13.2685 1.71002 13.2203C1.75819 13.1761 1.80023 13.1257 1.83497 13.0704C1.87343 13.0178 1.90532 12.9607 1.92994 12.9004C1.96405 12.834 1.98926 12.7635 2.00491 12.6905C2.0126 12.6257 2.0126 12.5603 2.00491 12.4956Z" fill="#163300"/>
<path d="M15.0003 6.99756H4.00421C3.45212 6.99756 3.00456 7.44512 3.00456 7.99721C3.00456 8.54929 3.45212 8.99686 4.00421 8.99686H15.0003C15.5524 8.99686 16 8.54929 16 7.99721C16 7.44512 15.5524 6.99756 15.0003 6.99756Z" fill="#163300"/>
<path d="M10.5019 11.496H4.00421C3.45212 11.496 3.00456 11.9435 3.00456 12.4956C3.00456 13.0477 3.45212 13.4953 4.00421 13.4953H10.5019C11.054 13.4953 11.5016 13.0477 11.5016 12.4956C11.5016 11.9435 11.054 11.496 10.5019 11.496Z" fill="#163300"/>
</g>
<defs>
<clipPath id="clip0_2114_5204">
<rect width="16" height="16" fill="white"/>
</clipPath>
</defs>
</svg>
