<svg width="20" height="21" viewBox="0 0 20 21" fill="none" xmlns="http://www.w3.org/2000/svg">
<path d="M9.44037 19.1153C9.61418 19.2034 9.8063 19.2493 10.0012 19.2493C10.196 19.2493 10.3882 19.2034 10.562 19.1153C10.7358 19.0272 10.8864 18.8994 11.0016 18.7422C11.682 17.8223 12.9938 15.9734 14.1266 13.9289M9.44037 19.1153L9.66646 18.6694C9.7702 18.7219 9.88486 18.7493 10.0012 18.7493C10.1175 18.7493 10.2321 18.7219 10.3359 18.6693C10.4396 18.6168 10.5295 18.5405 10.5983 18.4466L10.5996 18.4448C11.2742 17.5328 12.5714 15.704 13.689 13.6869L14.1266 13.9289M9.44037 19.1153C9.26656 19.0272 9.11596 18.8994 9.00078 18.7422C8.31914 17.8223 7.00859 15.9734 5.87578 13.9289M9.44037 19.1153L9.66646 18.6693C9.56272 18.6168 9.47283 18.5405 9.40409 18.4466L9.40251 18.4445C8.72703 17.5329 7.43086 15.7039 6.31314 13.6866M14.1266 13.9289L13.6892 13.6866C13.6892 13.6867 13.6891 13.6867 13.6891 13.6868C15.0859 11.1617 15.75 9.1666 15.75 7.72656C15.75 4.72861 13.1912 2.25 10 2.25C6.80876 2.25 4.25 4.72861 4.25 7.72656C4.25 9.16574 4.91405 11.1608 6.31314 13.6866M14.1266 13.9289C15.5348 11.3832 16.25 9.29648 16.25 7.72656C16.25 4.43164 13.4461 1.75 10 1.75C6.55391 1.75 3.75 4.43164 3.75 7.72656C3.75 9.2957 4.46523 11.3824 5.87578 13.9289M5.87578 13.9289L6.31314 13.6866M5.87578 13.9289L6.31314 13.6866M10 11H10.0005C10.7958 10.9991 11.5582 10.6828 12.1205 10.1205C12.6828 9.5582 12.9991 8.79578 13 8.00055V8C13 7.40666 12.8241 6.82664 12.4944 6.33329L12.0787 6.61107L12.4944 6.33329C12.1648 5.83994 11.6962 5.45542 11.148 5.22836C10.5999 5.0013 9.99667 4.94189 9.41473 5.05764C8.83279 5.1734 8.29824 5.45912 7.87868 5.87868C7.45912 6.29824 7.1734 6.83279 7.05764 7.41473C6.94189 7.99667 7.0013 8.59987 7.22836 9.14805C7.45542 9.69623 7.83994 10.1648 8.33329 10.4944C8.82664 10.8241 9.40666 11 10 11ZM10.75 8C10.75 8.41421 10.4142 8.75 10 8.75C9.58579 8.75 9.25 8.41421 9.25 8C9.25 7.58579 9.58579 7.25 10 7.25C10.4142 7.25 10.75 7.58579 10.75 8Z" fill="#163300" stroke="#163300"/>
</svg>
