<svg width="20" height="20" viewBox="0 0 20 20" fill="none" xmlns="http://www.w3.org/2000/svg">
<g id="upload image 438840 2452 / 24 / Outline">
<path id="Vector" d="M15.8337 10.8337C15.6126 10.8337 15.4007 10.9215 15.2444 11.0778C15.0881 11.2341 15.0003 11.4461 15.0003 11.6671V11.9837L13.767 10.7504C13.3315 10.3184 12.7429 10.0759 12.1295 10.0759C11.5161 10.0759 10.9275 10.3184 10.492 10.7504L9.90866 11.3337L7.84199 9.26707C7.40042 8.84674 6.81413 8.61231 6.20449 8.61231C5.59485 8.61231 5.00856 8.84674 4.56699 9.26707L3.33366 10.5004V5.83373C3.33366 5.61272 3.42146 5.40076 3.57774 5.24448C3.73402 5.0882 3.94598 5.0004 4.16699 5.0004H10.0003C10.2213 5.0004 10.4333 4.9126 10.5896 4.75632C10.7459 4.60004 10.8337 4.38808 10.8337 4.16707C10.8337 3.94605 10.7459 3.73409 10.5896 3.57781C10.4333 3.42153 10.2213 3.33374 10.0003 3.33374H4.16699C3.50395 3.33374 2.86807 3.59713 2.39923 4.06597C1.93038 4.53481 1.66699 5.17069 1.66699 5.83373V15.8337C1.66699 16.4968 1.93038 17.1327 2.39923 17.6015C2.86807 18.0703 3.50395 18.3337 4.16699 18.3337H14.167C14.83 18.3337 15.4659 18.0703 15.9348 17.6015C16.4036 17.1327 16.667 16.4968 16.667 15.8337V11.6671C16.667 11.4461 16.5792 11.2341 16.4229 11.0778C16.2666 10.9215 16.0547 10.8337 15.8337 10.8337ZM4.16699 16.6671C3.94598 16.6671 3.73402 16.5793 3.57774 16.423C3.42146 16.2667 3.33366 16.0548 3.33366 15.8337V12.8587L5.75033 10.4421C5.87275 10.3254 6.03538 10.2603 6.20449 10.2603C6.37361 10.2603 6.53623 10.3254 6.65866 10.4421L9.30033 13.0837L12.8837 16.6671H4.16699ZM15.0003 15.8337C14.9991 15.9933 14.9465 16.1481 14.8503 16.2754L11.092 12.5004L11.6753 11.9171C11.7351 11.8561 11.8064 11.8077 11.8851 11.7746C11.9638 11.7415 12.0483 11.7245 12.1337 11.7245C12.219 11.7245 12.3035 11.7415 12.3822 11.7746C12.4609 11.8077 12.5322 11.8561 12.592 11.9171L15.0003 14.3421V15.8337ZM18.9253 3.5754L16.4253 1.0754C16.3461 0.999535 16.2526 0.940064 16.1503 0.900402C15.9474 0.817054 15.7199 0.817054 15.517 0.900402C15.4147 0.940064 15.3212 0.999535 15.242 1.0754L12.742 3.5754C12.6643 3.6531 12.6027 3.74534 12.5606 3.84686C12.5186 3.94838 12.4969 4.05719 12.4969 4.16707C12.4969 4.38899 12.5851 4.60182 12.742 4.75874C12.8989 4.91566 13.1117 5.00381 13.3337 5.00381C13.5556 5.00381 13.7684 4.91566 13.9253 4.75874L15.0003 3.6754V8.33374C15.0003 8.55475 15.0881 8.76671 15.2444 8.92299C15.4007 9.07927 15.6126 9.16707 15.8337 9.16707C16.0547 9.16707 16.2666 9.07927 16.4229 8.92299C16.5792 8.76671 16.667 8.55475 16.667 8.33374V3.6754L17.742 4.75874C17.8195 4.83684 17.9116 4.89884 18.0132 4.94114C18.1147 4.98345 18.2236 5.00523 18.3337 5.00523C18.4437 5.00523 18.5526 4.98345 18.6541 4.94114C18.7557 4.89884 18.8479 4.83684 18.9253 4.75874C19.0034 4.68127 19.0654 4.5891 19.1077 4.48755C19.15 4.386 19.1718 4.27708 19.1718 4.16707C19.1718 4.05706 19.15 3.94814 19.1077 3.84659C19.0654 3.74504 19.0034 3.65287 18.9253 3.5754Z" fill="#828281"/>
</g>
</svg>
