<svg width="26" height="26" viewBox="0 0 26 26" fill="none" xmlns="http://www.w3.org/2000/svg">
<g clip-path="url(#clip0_7343_39500)">
<path d="M21.3811 2.52441H20.8573L0.428711 22.953V23.4768C0.428711 24.6323 1.3684 25.572 2.52395 25.572H3.21477L23.4763 5.04333V4.61965C23.4763 3.4641 22.5366 2.52441 21.3811 2.52441Z" fill="#FDDC49"/>
<path d="M2.52395 2.52441C1.3684 2.52441 0.428711 3.4641 0.428711 4.61965V22.953L20.8573 2.52441H2.52395Z" fill="#56A959"/>
<path d="M3.21484 25.5714H20.8574L11.9784 16.6924L3.21484 25.5714Z" fill="#5796FF"/>
<path d="M14.5801 14.0564L23.4763 22.9526V5.04297L14.5801 14.0564Z" fill="#CCCCCC"/>
<path d="M11.9785 16.6929L20.8575 25.5719H21.3813C22.5369 25.5719 23.4766 24.6322 23.4766 23.4766V22.9528L14.5804 14.0566L11.9785 16.6929Z" fill="#F2F2F2"/>
<path opacity="0.2" d="M21.3811 2.52441H2.52395C1.3684 2.52441 0.428711 3.4641 0.428711 4.61965V4.88156C0.428711 3.726 1.3684 2.78632 2.52395 2.78632H21.3811C22.5366 2.78632 23.4763 3.726 23.4763 4.88156V4.61965C23.4763 3.4641 22.5366 2.52441 21.3811 2.52441Z" fill="white"/>
<path opacity="0.1" d="M21.3811 25.3101H2.52395C1.3684 25.3101 0.428711 24.3704 0.428711 23.2148V23.4767C0.428711 24.6323 1.3684 25.572 2.52395 25.572H21.3811C22.5366 25.572 23.4763 24.6323 23.4763 23.4767V23.2148C23.4763 24.3704 22.5366 25.3101 21.3811 25.3101Z" fill="black"/>
<path d="M19.2857 0.428711C15.8196 0.428711 13 3.24828 13 6.71443C13 6.95945 13.0169 7.19987 13.0435 7.42853C13.2619 9.66239 14.4563 11.5024 15.7214 13.4498C16.9649 15.3644 18.2504 17.3441 18.7726 19.914C18.8218 20.158 19.0366 20.3335 19.2857 20.3335C19.5348 20.3335 19.7497 20.158 19.7988 19.914C20.3211 17.3441 21.6065 15.3644 22.8501 13.4498C24.1151 11.5024 25.3095 9.66239 25.5269 7.43722C25.5545 7.19987 25.5714 6.95945 25.5714 6.71443C25.5714 3.24828 22.7519 0.428711 19.2857 0.428711Z" fill="#E53935"/>
<path opacity="0.2" d="M19.2856 0.690616C22.0821 0.690616 24.4623 2.486 25.331 4.9904C24.5825 2.35575 22.1571 0.428711 19.2856 0.428711C16.4142 0.428711 13.9908 2.34896 13.2422 4.98361C14.111 2.47921 16.4892 0.690616 19.2856 0.690616Z" fill="white"/>
<path opacity="0.1" d="M25.5269 7.17494C25.3095 9.40011 24.1151 11.2401 22.8501 13.1875C21.6065 15.1022 20.3211 17.0818 19.7988 19.6517C19.7497 19.8957 19.5348 20.0712 19.2857 20.0712C19.0366 20.0712 18.8218 19.8957 18.7726 19.6517C18.2504 17.0818 16.9649 15.1022 15.7214 13.1875C14.4563 11.2401 13.2619 9.40011 13.0435 7.16625C13.0213 6.97564 13.0118 6.77384 13.0072 6.57102C13.0061 6.61904 13 6.66578 13 6.71405C13 6.95908 13.0169 7.1995 13.0435 7.42815C13.2619 9.66202 14.4563 11.502 15.7214 13.4494C16.9649 15.3641 18.2504 17.3437 18.7726 19.9136C18.8218 20.1576 19.0366 20.3331 19.2857 20.3331C19.5348 20.3331 19.7497 20.1576 19.7988 19.9136C20.3211 17.3437 21.6065 15.3641 22.8501 13.4494C24.1151 11.502 25.3095 9.66202 25.5269 7.43685C25.5545 7.1995 25.5714 6.95908 25.5714 6.71405C25.5714 6.66552 25.5652 6.61859 25.5641 6.57031C25.5597 6.77403 25.55 6.97641 25.5269 7.17494Z" fill="black"/>
<path d="M19.2857 8.80962C20.4428 8.80962 21.3809 7.87155 21.3809 6.71438C21.3809 5.55721 20.4428 4.61914 19.2857 4.61914C18.1285 4.61914 17.1904 5.55721 17.1904 6.71438C17.1904 7.87155 18.1285 8.80962 19.2857 8.80962Z" fill="#B71C1C"/>
<path opacity="0.1" d="M19.2857 8.80962C20.4428 8.80962 21.3809 7.87155 21.3809 6.71438C21.3809 5.55721 20.4428 4.61914 19.2857 4.61914C18.1285 4.61914 17.1904 5.55721 17.1904 6.71438C17.1904 7.87155 18.1285 8.80962 19.2857 8.80962Z" fill="black"/>
<path d="M6.19071 11.4283C4.45764 11.4283 3.04785 10.0185 3.04785 8.28544C3.04785 6.55236 4.45764 5.14258 6.19071 5.14258C6.8777 5.14258 7.53041 5.36049 8.07878 5.77227L7.44959 6.61017C7.08384 6.33547 6.64853 6.1902 6.19071 6.1902C5.03516 6.1902 4.09547 7.12988 4.09547 8.28544C4.09547 9.44099 5.03516 10.3807 6.19071 10.3807C7.16518 10.3807 7.9867 9.7121 8.21945 8.80924H6.71452V7.76163H9.33357V8.28544C9.33357 10.0185 7.92378 11.4283 6.19071 11.4283Z" fill="#F2F2F2"/>
<path d="M25.5716 6.71443C25.5716 3.24828 22.752 0.428711 19.2859 0.428711C17.4305 0.428711 15.7655 1.24141 14.614 2.52395H2.52395C1.3684 2.52395 0.428711 3.46363 0.428711 4.61919V23.4763C0.428711 24.6319 1.3684 25.5716 2.52395 25.5716H21.3811C22.5366 25.5716 23.4763 24.6319 23.4763 23.4763V12.4732C24.4872 10.8721 25.3462 9.28775 25.5271 7.43722C25.5547 7.19987 25.5716 6.95945 25.5716 6.71443Z" fill="url(#paint0_linear_7343_39500)"/>
</g>
<defs>
<linearGradient id="paint0_linear_7343_39500" x1="-1.00548" y1="7.22985" x2="25.5045" y2="19.5918" gradientUnits="userSpaceOnUse">
<stop stop-color="white" stop-opacity="0.2"/>
<stop offset="1" stop-color="white" stop-opacity="0"/>
</linearGradient>
<clipPath id="clip0_7343_39500">
<rect width="25.1429" height="25.1429" fill="white" transform="translate(0.428711 0.428711)"/>
</clipPath>
</defs>
</svg>
