<svg width="272" height="239" viewBox="0 0 272 239" fill="none" xmlns="http://www.w3.org/2000/svg">
<g opacity="0.6">
<g opacity="0.05">
<path d="M29.9297 116.5C29.9297 61.5978 74.5978 16.9297 129.5 16.9297C184.405 16.9297 229.077 61.5943 229.077 116.5C229.077 171.405 184.409 216.073 129.503 216.073C74.5978 216.073 29.9297 171.402 29.9297 116.5Z" fill="#F5FDF0" stroke="#9FE870"/>
</g>
<g opacity="0.05">
<path d="M48.3291 116.5C48.3291 71.743 84.742 35.3301 129.499 35.3301C174.257 35.3301 210.67 71.743 210.67 116.5C210.67 161.258 174.257 197.671 129.499 197.671C84.742 197.671 48.3291 161.258 48.3291 116.5Z" fill="#F5FDF0" stroke="#9FE870"/>
</g>
<g opacity="0.05">
<path d="M64.0615 116.5C64.0615 80.4188 93.4153 51.0615 129.5 51.0615C165.581 51.0615 194.938 80.4188 194.938 116.5C194.938 152.581 165.581 181.938 129.5 181.938C93.4188 181.938 64.0615 152.581 64.0615 116.5Z" fill="#F5FDF0" stroke="#9FE870"/>
</g>
<g opacity="0.1">
<path d="M79.8135 116.501C79.8135 89.1065 102.101 66.8154 129.499 66.8154C156.893 66.8154 179.184 89.1065 179.184 116.501C179.184 143.895 156.893 166.186 129.499 166.186C102.105 166.186 79.8135 143.895 79.8135 116.501Z" fill="#F5FDF0" stroke="#9FE870"/>
</g>
<g opacity="0.15">
<path d="M95.1777 116.499C95.1777 97.576 110.576 82.1777 129.499 82.1777C148.423 82.1777 163.821 97.576 163.821 116.499C163.821 135.423 148.423 150.821 129.499 150.821C110.576 150.821 95.1777 135.423 95.1777 116.499Z" fill="#F5FDF0" stroke="#9FE870"/>
</g>
<path opacity="0.1" d="M187.75 174.75C219.921 142.579 219.921 90.4206 187.75 58.25C155.579 26.0794 103.421 26.0794 71.25 58.25C39.0794 90.4206 39.0794 142.579 71.25 174.75C103.421 206.921 155.579 206.921 187.75 174.75Z" fill="#F5FDF0" stroke="#9FE870" stroke-width="4" stroke-linecap="round" stroke-linejoin="round"/>
<path opacity="0.1" d="M177.002 164.001C203.236 137.767 203.236 95.233 177.002 68.9988C150.768 42.7646 108.233 42.7646 81.9993 68.9988C55.7651 95.233 55.7651 137.767 81.9993 164.001C108.233 190.235 150.768 190.235 177.002 164.001Z" fill="#F5FDF0" stroke="#9FE870" stroke-width="7" stroke-linecap="round" stroke-linejoin="round"/>
<path opacity="0.15" d="M129.5 168.455C158.194 168.455 181.455 145.194 181.455 116.5C181.455 87.8063 158.194 64.5454 129.5 64.5454C100.806 64.5454 77.5454 87.8063 77.5454 116.5C77.5454 145.194 100.806 168.455 129.5 168.455Z" fill="#F5FDF0" stroke="#9FE870" stroke-width="10" stroke-linecap="round" stroke-linejoin="round"/>
<path opacity="0.2" d="M129.499 153.622C150.001 153.622 166.621 137.002 166.621 116.5C166.621 95.9983 150.001 79.3784 129.499 79.3784C108.997 79.3784 92.3774 95.9983 92.3774 116.5C92.3774 137.002 108.997 153.622 129.499 153.622Z" fill="#F5FDF0" stroke="#9FE870" stroke-width="13" stroke-linecap="round" stroke-linejoin="round"/>
<path opacity="0.1" d="M129.499 217.296C185.167 217.296 230.295 172.168 230.295 116.5C230.295 60.8327 185.167 15.7051 129.499 15.7051C73.8317 15.7051 28.7041 60.8327 28.7041 116.5C28.7041 172.168 73.8317 217.296 129.499 217.296Z" fill="#F5FDF0" stroke="#9FE870" stroke-width="4" stroke-linecap="round" stroke-linejoin="round"/>
</g>
<path d="M45.6757 221.996H41.125V222.176H45.6757V221.996Z" fill="#EBEBEB"/>
<path d="M252.974 212.497L17.7842 217.77V179.289H255.237L252.974 212.497Z" fill="#263238"/>
<path opacity="0.5" d="M252.974 212.497L17.7842 217.77V179.289H255.237L252.974 212.497Z" fill="black"/>
<path d="M8.73926 189.162V208.678C8.73792 212.859 11.5856 216.553 15.7616 217.785L17.424 218.269C18.4478 218.573 19.5163 218.714 20.5874 218.689L31.5715 218.444C30.2669 214.077 30.1519 209.463 31.2379 205.041C34.7528 190.729 49.7304 181.853 64.6915 185.215C79.6521 188.578 88.9308 202.906 85.4158 217.218L197.183 214.675C197.002 213.426 196.914 212.166 196.92 210.905C196.987 196.203 209.499 184.338 224.867 184.401C240.236 184.466 252.64 196.435 252.573 211.137C252.573 211.655 252.529 212.167 252.529 212.678C252.675 212.622 252.829 212.566 252.976 212.496L256.798 210.864C260.568 209.234 262.992 205.644 262.993 201.687V161.939C262.994 158.201 260.828 154.769 257.369 153.029L228.642 138.577C228.314 138.409 228.06 138.132 227.932 137.797C227.644 137.045 228.047 136.212 228.832 135.936L232.347 134.731C232.642 134.634 232.854 134.386 232.894 134.09C232.952 133.66 232.635 133.267 232.186 133.211C218.537 131.39 165.447 124.749 137.54 128.013C105.349 131.782 74.4979 158.507 74.4979 158.507C50.8088 157.659 28.6939 165.547 19.1746 169.505C16.101 170.788 13.7369 173.253 12.6648 176.293L9.40611 185.525C8.97899 186.696 8.75402 187.924 8.73926 189.162Z" fill="#9FE870"/>
<path d="M197.212 214.675C197.05 213.503 196.969 212.321 196.971 211.138C196.971 210.535 196.993 209.94 197.029 209.345L176.818 201.436C175.635 200.975 174.358 200.777 173.084 200.854L102.785 205.268C101.636 205.337 100.514 205.633 99.4901 206.136L86.1333 212.707C86.038 214.227 85.8104 215.736 85.4521 217.219L197.212 214.675Z" fill="#263238"/>
<path d="M263 201.688V200.672L251.569 204.02C252.236 206.339 252.573 208.733 252.573 211.138C252.573 211.656 252.529 212.168 252.529 212.679C252.675 212.623 252.829 212.567 252.975 212.497L256.805 210.864C260.575 209.235 262.999 205.645 263 201.688Z" fill="#263238"/>
<path d="M11.9834 215.684C13.0742 216.649 14.3784 217.367 15.7985 217.785L17.4609 218.269C18.4847 218.573 19.5532 218.714 20.6243 218.689L31.6084 218.444C31.2108 217.116 30.9241 215.759 30.7515 214.388L11.9834 215.684Z" fill="#263238"/>
<path d="M224.819 182.017C223.556 182.017 222.294 182.091 221.041 182.242C204.362 184.234 192.53 198.783 194.613 214.739L197.249 214.676C197.068 213.427 196.98 212.167 196.986 210.906C197.053 196.204 209.565 184.339 224.933 184.402C240.301 184.467 252.705 196.436 252.638 211.138C252.638 211.656 252.595 212.168 252.595 212.679C252.741 212.623 252.895 212.567 253.041 212.497L255.238 211.544C255.238 211.403 255.238 211.27 255.238 211.137C255.218 195.06 241.597 182.032 224.79 182.017L224.819 182.017Z" fill="#263238"/>
<path d="M58.3658 182.018C55.766 182.017 53.1773 182.335 50.6619 182.964C34.3962 187.03 24.6559 202.94 28.9066 218.5L31.6085 218.444C30.3039 214.077 30.1889 209.463 31.2753 205.041C34.7902 190.73 49.7678 181.853 64.7289 185.216C79.6895 188.578 88.9682 202.906 85.4532 217.219L88.1479 217.156C88.5863 215.173 88.8072 213.151 88.8067 211.125C88.8023 195.045 75.1736 182.014 58.3658 182.018Z" fill="#263238"/>
<path d="M84.8556 159.627C84.5304 159.89 84.2987 160.269 84.2017 160.698C83.9713 161.713 84.5385 162.737 85.4688 162.984L97.087 166.099C98.1162 166.378 99.1838 166.455 100.24 166.326L186.384 156.116C188.48 155.862 190.435 154.824 191.915 153.18L203.216 140.586C203.592 140.169 203.831 139.629 203.893 139.049C204.047 137.616 203.107 136.323 201.794 136.161C181.166 133.544 155.085 131.165 138.615 133.09C117.03 135.611 95.2985 151.132 84.8556 159.627Z" fill="#9FE870"/>
<path opacity="0.8" d="M85.2433 159.626C84.9177 159.89 84.6864 160.268 84.5894 160.697C84.359 161.713 84.9262 162.736 85.8564 162.983L97.4747 166.098C98.5039 166.377 99.5714 166.454 100.627 166.326L184.843 160.804C186.939 160.549 190.179 156.863 192.471 153.871L203.602 140.586C203.979 140.169 204.217 139.629 204.28 139.049C204.434 137.616 203.494 136.323 202.181 136.161C181.552 133.544 155.471 131.165 139.002 133.09C117.418 135.61 95.6866 151.131 85.2433 159.626Z" fill="white"/>
<g opacity="0.3">
<path d="M141.518 167.478C140.966 167.288 140.68 166.705 140.878 166.178C141.123 165.525 141.757 165.078 142.482 165.05L152.734 164.637C152.873 164.631 153.011 164.651 153.142 164.695C153.698 164.885 153.987 165.471 153.788 166.003C153.54 166.656 152.904 167.102 152.177 167.131L141.925 167.537C141.787 167.543 141.648 167.523 141.518 167.478Z" fill="black"/>
</g>
<path d="M217.758 139.379C216.852 140.151 216.77 141.479 217.577 142.347L220.008 144.876C220.287 145.159 220.641 145.365 221.033 145.471L250.815 153.373C251.333 153.507 251.867 153.575 252.404 153.576H258.321C258.013 153.38 257.698 153.198 257.369 153.03L228.642 138.564L228.64 138.563C227.915 138.22 227.617 137.381 227.975 136.687L218.646 138.921C218.317 139.006 218.013 139.163 217.758 139.379Z" fill="#9FE870"/>
<path d="M32.3075 173.225L22.1459 172.166L16.3079 174.45C15.0807 174.931 14.1638 175.939 13.8369 177.169C13.6454 177.88 13.7528 178.634 14.137 179.27L14.2394 179.438C14.8924 180.514 16.159 181.106 17.4466 180.938L23.3048 180.167C23.8759 180.089 24.4171 179.874 24.8791 179.544L31.638 174.64L32.3075 173.225Z" fill="white"/>
<path d="M74.5195 158.493L76.1377 158.934C77.3954 159.278 78.7488 158.999 79.7479 158.192C89.1648 150.57 105.539 138.878 123.208 133.428C123.287 133.403 123.353 133.352 123.393 133.283C123.482 133.131 123.426 132.939 123.267 132.854L121.07 131.775C95.5798 140.231 74.5195 158.493 74.5195 158.493Z" fill="#9FE870"/>
<path opacity="0.8" d="M74.5195 158.493L76.1377 158.934C77.3954 159.278 78.7488 158.999 79.7479 158.192C89.1648 150.57 105.539 138.878 123.208 133.428C123.287 133.403 123.353 133.352 123.393 133.283C123.482 133.131 123.426 132.939 123.267 132.854L121.07 131.775C95.5798 140.231 74.5195 158.493 74.5195 158.493Z" fill="white"/>
<path opacity="0.2" d="M171.092 168.784L85.4521 174.643L87.064 184.747C87.5578 187.842 88.7573 190.796 90.5777 193.398L97.7355 203.631L170.829 194.178L205.385 168.784H171.092Z" fill="white"/>
<path d="M224.792 233.313C237.596 233.313 247.976 223.383 247.976 211.134C247.976 198.886 237.596 188.956 224.792 188.956C211.988 188.956 201.608 198.886 201.608 211.134C201.608 223.383 211.988 233.313 224.792 233.313Z" fill="#263238"/>
<path opacity="0.4" d="M224.792 224.732C232.642 224.732 239.006 218.644 239.006 211.135C239.006 203.626 232.642 197.538 224.792 197.538C216.943 197.538 210.579 203.626 210.579 211.135C210.579 218.644 216.943 224.732 224.792 224.732Z" fill="white"/>
<g opacity="0.3">
<path d="M225.933 199.992V206.962C225.933 207.562 225.425 208.048 224.798 208.048H224.79C224.163 208.048 223.655 207.562 223.655 206.962V199.992C223.655 199.392 224.163 198.906 224.79 198.906H224.798C225.424 198.906 225.933 199.392 225.933 199.992Z" fill="white"/>
</g>
<g opacity="0.3">
<path d="M225.933 215.312V222.283C225.933 222.883 225.425 223.369 224.798 223.369H224.79C224.163 223.369 223.655 222.883 223.655 222.283V215.312C223.655 214.713 224.163 214.227 224.79 214.227H224.798C225.424 214.227 225.933 214.713 225.933 215.312Z" fill="white"/>
</g>
<g opacity="0.3">
<path d="M229.134 209.995C228.589 210.292 227.897 210.111 227.586 209.589C227.586 209.589 227.585 209.588 227.584 209.586C227.272 209.067 227.46 208.403 228.004 208.104L234.308 204.601C234.855 204.3 235.553 204.479 235.868 205.001C236.178 205.521 235.992 206.184 235.451 206.486L229.146 209.988C229.142 209.991 229.138 209.993 229.134 209.995Z" fill="white"/>
</g>
<g opacity="0.3">
<path d="M215.267 217.626C214.724 217.924 214.03 217.745 213.718 217.225C213.718 217.224 213.717 217.223 213.716 217.222C213.404 216.702 213.592 216.038 214.135 215.739L220.44 212.237L220.441 212.236C220.983 211.935 221.677 212.111 221.993 212.629C222.309 213.15 222.126 213.817 221.583 214.121L215.271 217.623C215.27 217.625 215.268 217.625 215.267 217.626Z" fill="white"/>
</g>
<g opacity="0.3">
<path d="M234.309 217.652L228.004 214.15C227.458 213.848 227.272 213.18 227.587 212.658C227.905 212.138 228.603 211.963 229.146 212.265L235.451 215.768C235.992 216.069 236.179 216.732 235.869 217.253C235.553 217.775 234.855 217.953 234.309 217.652Z" fill="white"/>
</g>
<g opacity="0.3">
<path d="M221.99 209.592C221.676 210.111 220.982 210.289 220.44 209.989L214.135 206.487C214.134 206.486 214.133 206.485 214.131 206.485C213.589 206.185 213.403 205.52 213.717 205.002C213.717 205.001 213.718 205 213.719 204.999C214.033 204.48 214.727 204.302 215.269 204.602L221.581 208.104L221.582 208.105C222.123 208.406 222.307 209.071 221.992 209.589C221.992 209.591 221.991 209.592 221.99 209.592Z" fill="white"/>
</g>
<path d="M222.886 211.131C222.886 210.125 223.738 209.31 224.79 209.31C224.792 209.31 224.795 209.31 224.797 209.31C225.852 209.31 226.708 210.128 226.708 211.138C226.708 212.148 225.852 212.966 224.797 212.966C223.741 212.966 222.886 212.148 222.886 211.138C222.886 211.136 222.886 211.133 222.886 211.131Z" fill="#263238"/>
<path d="M58.3645 233.317C71.1685 233.317 81.5483 223.387 81.5483 211.138C81.5483 198.89 71.1685 188.96 58.3645 188.96C45.5604 188.96 35.1807 198.89 35.1807 211.138C35.1807 223.387 45.5604 233.317 58.3645 233.317Z" fill="#263238"/>
<path opacity="0.4" d="M58.3651 224.737C66.2151 224.737 72.5788 218.649 72.5788 211.139C72.5788 203.63 66.2151 197.542 58.3651 197.542C50.5151 197.542 44.1514 203.63 44.1514 211.139C44.1514 218.649 50.5151 224.737 58.3651 224.737Z" fill="white"/>
<g opacity="0.3">
<path d="M59.501 199.992V206.962C59.501 207.562 58.993 208.048 58.3659 208.048H58.3588C57.7317 208.048 57.2236 207.562 57.2236 206.962V199.992C57.2236 199.392 57.7317 198.906 58.3588 198.906H58.3659C58.9925 198.906 59.501 199.392 59.501 199.992Z" fill="white"/>
</g>
<g opacity="0.3">
<path d="M59.501 215.312V222.283C59.501 222.883 58.993 223.369 58.3659 223.369H58.3588C57.7317 223.369 57.2236 222.883 57.2236 222.283V215.312C57.2236 214.713 57.7317 214.227 58.3588 214.227H58.3659C58.9925 214.227 59.501 214.713 59.501 215.312Z" fill="white"/>
</g>
<g opacity="0.3">
<path d="M62.7002 209.997C62.1581 210.291 61.4698 210.108 61.1634 209.59L61.1629 209.589C60.8476 209.071 61.0315 208.406 61.5735 208.105L67.8856 204.602C67.8865 204.602 67.8874 204.601 67.8887 204.601C68.4321 204.302 69.1263 204.481 69.4385 205.001C69.4389 205.002 69.4394 205.003 69.4403 205.004C69.7524 205.524 69.565 206.188 69.0212 206.487L62.7163 209.989C62.7104 209.992 62.7055 209.995 62.7002 209.997Z" fill="white"/>
</g>
<g opacity="0.3">
<path d="M47.2855 217.225C47.2851 217.224 47.2842 217.223 47.2837 217.222C46.9715 216.702 47.1594 216.038 47.7028 215.739L54.0077 212.237C54.5516 211.935 55.2493 212.11 55.5673 212.629C55.8822 213.152 55.6956 213.82 55.15 214.121L48.8451 217.624C48.299 217.926 47.6008 217.747 47.2855 217.225Z" fill="white"/>
</g>
<g opacity="0.3">
<path d="M69.4365 217.256C69.123 217.775 68.4284 217.952 67.8859 217.652L61.5738 214.15C61.0308 213.846 60.8474 213.178 61.1637 212.658L61.1641 212.658C61.4799 212.14 62.1745 211.964 62.7161 212.266L69.021 215.768C69.0219 215.769 69.0228 215.769 69.0241 215.77C69.5666 216.07 69.7523 216.734 69.4387 217.253C69.4378 217.254 69.4374 217.255 69.4365 217.256Z" fill="white"/>
</g>
<g opacity="0.3">
<path d="M55.5603 209.6C55.2437 210.118 54.5482 210.292 54.0075 209.988L47.7025 206.486C47.7016 206.486 47.7007 206.485 47.6998 206.484C47.1573 206.184 46.9717 205.52 47.2852 205.001C47.601 204.479 48.2992 204.3 48.8448 204.602L55.1497 208.104C55.1506 208.105 55.1515 208.105 55.1529 208.106C55.6954 208.406 55.881 209.07 55.5675 209.589C55.5648 209.593 55.5626 209.596 55.5603 209.6Z" fill="white"/>
</g>
<path d="M58.3652 209.31C59.4207 209.31 60.2763 210.128 60.2763 211.138C60.2763 212.148 59.4207 212.966 58.3652 212.966C57.3097 212.966 56.4541 212.148 56.4541 211.138C56.4537 210.128 57.3097 209.31 58.3652 209.31Z" fill="#263238"/>
<path opacity="0.3" d="M260.567 169.296C261.34 169.066 261.771 168.281 261.53 167.542C261.262 162.873 260.224 158.716 257.232 155.857C257.031 155.229 256.401 154.818 255.716 154.87L238.047 156.467C237.739 156.498 237.45 156.622 237.22 156.821C236.621 157.34 236.574 158.226 237.116 158.799L242.177 164.019C242.353 164.199 242.575 164.332 242.821 164.404L259.737 169.308C260.009 169.381 260.298 169.377 260.567 169.296Z" fill="black"/>
<path d="M84.2017 160.689C83.9713 161.705 84.5385 162.728 85.4688 162.975L97.087 166.09C98.1162 166.369 98.978 166.56 100.316 166.618L103.974 166.386L100.525 148.557C92.5564 153.563 92.0107 153.791 84.8556 159.618C84.5304 159.882 84.2992 160.26 84.2017 160.689Z" fill="#263238"/>
<path d="M159.886 132.515L152.587 162.96L162.134 162.304L166.494 132.8C164.26 132.678 162.057 132.583 159.886 132.515Z" fill="#263238"/>
<path d="M190.18 156.61L203.589 140.586C203.975 140.167 204.219 139.617 204.281 139.028C204.432 137.594 203.489 136.304 202.175 136.146C199.428 135.789 196.505 135.445 193.582 135.109" fill="#263238"/>
<path d="M94.7684 163.784C92.4471 163.81 90.5432 162.032 90.5159 159.811C90.4935 157.922 91.8456 156.273 93.7683 155.843L99.3693 154.587L100.794 163.565L94.8797 163.782C94.8426 163.783 94.8055 163.784 94.7684 163.784Z" fill="#9FE870"/>
<path opacity="0.3" d="M99.1552 163.627L100.795 163.565L99.3699 154.587L97.7705 154.949L99.1552 163.627Z" fill="black"/>
<path opacity="0.6" d="M161.935 162.306C162.004 165.461 161.968 168.799 161.612 170.504C160.82 174.294 154.645 202.011 154.645 202.011" stroke="black" stroke-width="0.5" stroke-miterlimit="10" stroke-linecap="round" stroke-linejoin="round"/>
<path opacity="0.6" d="M84.1504 161.358C84.1504 161.358 85.9962 185.324 88.8063 190.172C91.5471 194.901 99.4907 206.136 99.4907 206.136" stroke="black" stroke-width="0.5" stroke-miterlimit="10" stroke-linecap="round" stroke-linejoin="round"/>
<path opacity="0.6" d="M77.7041 159.079C77.7041 159.079 57.9597 163.746 52.1495 164.636C47.3791 165.367 27.9835 169.882 22.1455 172.166" stroke="black" stroke-width="0.5" stroke-miterlimit="10" stroke-linecap="round" stroke-linejoin="round"/>
<path opacity="0.8" d="M217.758 139.379C216.852 140.151 216.77 141.479 217.577 142.347L220.008 144.876C220.287 145.159 220.641 145.365 221.033 145.471L250.815 153.373C251.333 153.507 251.867 153.575 252.404 153.576H258.321C258.013 153.38 257.698 153.198 257.369 153.03L228.642 138.564L228.64 138.563C227.915 138.22 227.617 137.381 227.975 136.687L218.646 138.921C218.317 139.006 218.013 139.163 217.758 139.379Z" fill="white"/>
<path d="M105.903 157.588C105.635 157.743 102.473 160.869 102.473 160.869L103.089 164.744L107.065 160.818L105.903 157.588Z" fill="#263238"/>
<path d="M110.665 165.671C109.966 166 109.12 165.726 108.775 165.057L102.467 152.831C102.122 152.162 102.409 151.352 103.108 151.023C103.807 150.693 104.653 150.967 104.998 151.636L111.306 163.862C111.651 164.531 111.365 165.341 110.665 165.671Z" fill="#263238"/>
<path d="M117.549 150.953C117.549 150.953 120.678 162.896 122.512 163.347C125.836 164.164 137.271 163.249 137.048 162.896L136.561 157.403C136.561 157.403 125.036 159.227 125.125 159.033L120.782 149.75L117.549 150.953Z" fill="#EBB373"/>
<path d="M120.423 150.472C120.423 150.472 121.451 149.557 121.48 148.446C121.508 147.335 121.839 146.456 121.801 145.629C121.762 144.802 121.039 145.679 120.753 146.221C120.467 146.762 120.137 147.372 119.747 147.101C119.357 146.83 117.658 143.209 117.072 142.892C116.487 142.574 116.57 143.242 116.57 143.242C116.57 143.242 116.133 142.373 115.726 142.446C115.621 142.465 115.406 142.672 115.541 143.098C115.843 144.056 116.585 146.035 116.585 146.035C116.545 145.92 115.446 143.54 115.233 143.204C114.954 142.765 114.589 142.694 114.328 142.857C113.957 143.089 115.214 146.084 115.175 146.246C115.175 146.246 114.511 144.498 113.946 144.415C113.38 144.332 113.735 145.454 114.245 146.386C114.712 147.241 115.394 149.035 115.957 149.86C116.651 150.876 117.355 151.409 118.531 151.237C119.707 151.065 120.423 150.472 120.423 150.472Z" fill="#EBB373"/>
<path opacity="0.3" d="M116.653 143.346C116.985 144.05 117.284 144.77 117.548 145.5" stroke="black" stroke-width="0.25" stroke-miterlimit="10" stroke-linecap="round" stroke-linejoin="round"/>
<path opacity="0.3" d="M115.411 146.933C116.217 146.298 117.221 145.897 118.259 145.795" stroke="black" stroke-width="0.25" stroke-miterlimit="10" stroke-linecap="round" stroke-linejoin="round"/>
<path opacity="0.3" d="M119.492 147.535C119.134 147.756 118.861 148.098 118.732 148.486C118.604 148.874 118.622 149.304 118.782 149.681" stroke="black" stroke-width="0.25" stroke-miterlimit="10" stroke-linecap="round" stroke-linejoin="round"/>
<path d="M150.195 156.578C148.101 153.933 144.779 154.198 142.621 154.561L138.341 155.236C138.206 155.257 138.072 155.288 137.941 155.327L136.965 155.617L127.812 158.422L130.021 164.028L133.01 163.677L132.511 164.451L135.447 164.271L151.461 163.473L151.461 163.472L151.462 160.363C151.462 159.005 151.051 157.66 150.195 156.578Z" fill="#263238"/>
<path d="M149.329 160.99C149.329 160.99 147.318 173.873 145.899 175.237C142.506 178.498 129.953 169.529 129.953 169.529L130.341 166.067L141.184 170.362L143.214 159.42L149.329 160.99Z" fill="#EBB373"/>
<path d="M150.979 160.112C150.881 160.43 150.015 169.416 150.015 169.416L140.819 168.596C140.819 168.596 141.299 166.101 141.995 161.736C142.719 157.191 143.143 154.894 145.498 154.524C149.959 153.823 150.979 160.112 150.979 160.112Z" fill="#263238"/>
<path d="M147.897 139.761C149.283 142.087 149.767 143.478 149.892 145.709C150.039 148.315 149.915 150.617 149.308 151.285C148.51 152.161 139.886 152.984 135.054 152.796C134.878 152.789 134.733 151.322 134.733 151.322C134.733 151.322 134.048 152.755 133.821 152.745C132.503 152.688 131.657 152.641 131.657 152.641C131.657 152.641 132.75 150.489 134.09 142.724C134.745 138.932 138.732 137.418 141.081 137.132C144.997 136.658 147.897 139.761 147.897 139.761Z" fill="#263238"/>
<path d="M136.405 147.085C135.14 144.992 133.885 139.353 139.155 137.614C145.733 135.442 148.68 139.456 149.245 143.433C149.811 147.411 147.467 150.416 143.12 150.115C138.773 149.814 137.28 148.532 136.405 147.085Z" fill="#263238"/>
<path d="M145.539 147.367L141.653 150.787L140.904 151.549C141.112 152.088 141.285 152.641 141.344 153.172C141.462 154.109 140.857 154.816 140.857 154.816L139.984 156.713C141.93 155.254 146.364 154.474 146.364 154.474C145.637 152.041 145.33 149.757 145.539 147.367Z" fill="#EBB373"/>
<path opacity="0.2" d="M141.364 153.379C142.413 152.844 143.582 151.888 143.504 150.733C143.467 150.246 143.381 149.783 143.274 149.483L141.072 152.018C141.222 152.45 141.27 152.733 141.364 153.379Z" fill="black"/>
<path d="M146.776 143.568C146.25 147.203 146.108 148.747 144.046 150.573C140.945 153.32 136.436 152.15 135.827 148.498C135.279 145.21 136.232 139.82 140.051 138.452C143.815 137.105 147.303 139.934 146.776 143.568Z" fill="#EBB373"/>
<path d="M141.928 144.679C141.889 145.045 141.638 145.337 141.368 145.331C141.098 145.324 140.91 145.022 140.95 144.655C140.988 144.288 141.239 143.997 141.51 144.003C141.78 144.009 141.967 144.312 141.928 144.679Z" fill="#263238"/>
<path d="M137.966 144.435C137.927 144.785 137.681 145.064 137.416 145.057C137.151 145.051 136.967 144.762 137.005 144.412C137.043 144.062 137.29 143.784 137.555 143.79C137.82 143.797 138.004 144.085 137.966 144.435Z" fill="#263238"/>
<path d="M142.534 143.355C142.481 143.363 142.427 143.352 142.385 143.32C141.73 142.828 141.016 143.043 141.008 143.046C140.902 143.078 140.792 143.03 140.765 142.935C140.738 142.841 140.802 142.737 140.91 142.703C140.947 142.691 141.844 142.42 142.656 143.031C142.737 143.092 142.742 143.206 142.667 143.286C142.632 143.325 142.583 143.348 142.534 143.355Z" fill="#263238"/>
<path d="M136.703 142.603C136.662 142.582 136.63 142.548 136.616 142.504C136.588 142.413 136.649 142.316 136.751 142.288C137.779 142.005 138.451 142.505 138.48 142.527C138.559 142.588 138.566 142.696 138.496 142.77C138.425 142.843 138.304 142.853 138.224 142.793C138.198 142.773 137.67 142.391 136.853 142.617C136.8 142.632 136.746 142.625 136.703 142.603Z" fill="#263238"/>
<path d="M143.746 140.182C142.474 141.348 142.854 145.98 146.232 146.733C150.2 146.024 147.545 136.704 143.746 140.182Z" fill="#263238"/>
<path d="M138.807 147.89C139.095 148.361 139.426 149.264 139.426 149.264C139.516 149.249 139.607 149.236 139.697 149.217C140.925 148.999 141.419 148.51 141.595 148.034C141.69 147.773 141.686 147.514 141.655 147.307C141.621 147.068 141.54 146.904 141.54 146.904C140.962 147.392 139.834 147.68 139.224 147.809C138.969 147.866 138.807 147.89 138.807 147.89Z" fill="#263238"/>
<path d="M139.224 147.808L139.417 148.209C140.573 148.001 141.357 147.706 141.654 147.306C141.621 147.067 141.54 146.903 141.54 146.903C140.961 147.391 139.833 147.679 139.224 147.808Z" fill="white"/>
<path d="M139.697 149.217C140.925 148.998 141.419 148.509 141.595 148.033C141.179 148.123 140.689 148.275 140.282 148.534C139.97 148.73 139.797 148.978 139.697 149.217Z" fill="#DC5753"/>
<path d="M139.047 144.227C139.047 144.227 138.249 145.84 137.46 146.611C137.926 147.084 138.808 146.886 138.808 146.886L139.047 144.227Z" fill="#E4873E"/>
<path d="M140.758 143.795L141.624 144.032C141.206 144.441 140.758 143.795 140.758 143.795Z" fill="#263238"/>
<path d="M136.847 143.585L137.713 143.822C137.295 144.231 136.847 143.585 136.847 143.585Z" fill="#263238"/>
<path d="M140.116 137.671C138.586 138.093 136.865 140.517 136.552 141.464C138.678 141.895 144.546 140.231 144.546 140.231C144.546 140.231 148.35 141.42 146.489 139.464C144.627 137.509 140.116 137.671 140.116 137.671Z" fill="#263238"/>
<path d="M147.786 146.593C147.299 147.322 146.544 147.759 145.865 147.891C144.844 148.088 144.398 146.512 144.789 145.559C145.142 144.702 146.162 144.169 147.136 144.403C148.095 144.633 148.343 145.761 147.786 146.593Z" fill="#EBB373"/>
<path d="M134.67 142.047C134.378 143.644 134.081 145.255 133.441 146.757C132.801 148.258 131.472 151.354 130.021 152.191" stroke="#263238" stroke-width="0.5" stroke-miterlimit="10"/>
<path d="M145.563 147.782C145.545 148.157 145.849 148.476 146.242 148.494C146.635 148.511 146.968 148.22 146.986 147.845C147.004 147.469 146.701 147.15 146.308 147.133C145.915 147.115 145.582 147.406 145.563 147.782Z" fill="#9FE870"/>
<path opacity="0.1" d="M147.039 145.517C146.706 145.411 146.325 145.46 146.033 145.645C145.741 145.829 145.545 146.146 145.517 146.48" stroke="black" stroke-width="0.5" stroke-miterlimit="10" stroke-linecap="round" stroke-linejoin="round"/>
<path d="M134.608 168.464L130.342 166.067L129.179 164.643C129.179 164.643 127.982 163.289 127.015 163.203C126.325 163.141 125.611 163.483 125.611 163.483C125.611 163.483 124.491 164.161 125.177 165.177C125.177 165.177 124.069 165.723 124.824 166.905C124.824 166.905 123.765 166.922 124.669 167.983C125.573 169.044 126.645 169.255 127.497 169.38C128.348 169.505 129.372 169.221 129.372 169.221L134.082 172.182L134.608 168.464Z" fill="#EBB373"/>
<path d="M141.624 163.975L142.395 159.36L140.048 164.027L141.624 163.975Z" fill="black"/>
<path d="M133.01 163.677L134.929 159.949L131.244 163.884L133.01 163.677Z" fill="black"/>
<path d="M136.579 111.906C136.579 113.682 135.144 115.122 133.375 115.122H75.8028C74.0333 115.122 72.5986 113.682 72.5986 111.906V95.4606C72.5986 93.6849 74.0333 92.2451 75.8028 92.2451H133.375C135.145 92.2451 136.579 93.6849 136.579 95.4606V111.906Z" fill="#BCEF9B"/>
<path d="M105.141 113.565C105.141 113.565 107.491 122.084 118.395 127.762C118.395 127.762 110.799 122.302 110.799 113.565H105.141Z" fill="#CAF3B0"/>
<path d="M84.0089 99.665L85.31 102.31L88.219 102.735L86.114 104.794L86.6111 107.701L84.0089 106.329L81.4068 107.701L81.9039 104.794L79.7988 102.735L82.7078 102.31L84.0089 99.665Z" fill="#385423"/>
<path d="M94.299 99.665L95.6 102.31L98.5086 102.735L96.4036 104.794L96.9007 107.701L94.299 106.329L91.6968 107.701L92.1939 104.794L90.0889 102.735L92.9974 102.31L94.299 99.665Z" fill="#385423"/>
<path d="M104.59 99.665L105.891 102.31L108.8 102.735L106.695 104.794L107.192 107.701L104.59 106.329L101.988 107.701L102.485 104.794L100.38 102.735L103.289 102.31L104.59 99.665Z" fill="#385423"/>
<path d="M114.881 99.665L116.182 102.31L119.091 102.735L116.986 104.794L117.483 107.701L114.881 106.329L112.279 107.701L112.776 104.794L110.671 102.735L113.58 102.31L114.881 99.665Z" fill="#385423"/>
<path d="M125.171 99.665L126.472 102.31L129.381 102.735L127.276 104.794L127.773 107.701L125.171 106.329L122.569 107.701L123.066 104.794L120.961 102.735L123.87 102.31L125.171 99.665Z" fill="#385423"/>
<path d="M222.834 214.339L227.039 211.021C229.72 214.08 231.883 217.127 233.516 218.946L232.502 221.331L229.763 220.78C229.763 220.78 226.856 217.659 222.834 214.339Z" fill="#B97964"/>
<path d="M226.862 218.732L228.497 217.688C230.171 218.536 230.505 217.859 230.711 216.353C231.15 215.995 231.624 216.459 231.756 216.581L234.705 219.253C234.955 219.475 234.978 219.857 234.756 220.106C234.717 220.151 234.671 220.189 234.621 220.22C233.177 221.142 232.494 221.578 230.696 222.725L225.199 226.234C223.7 227.191 222.427 225.875 222.956 225.341C225.341 222.955 226.786 220.882 227.13 219.526C227.198 219.282 226.967 219.281 226.862 218.732Z" fill="#7D966A"/>
<path d="M226.621 220.178C227.067 219.972 227.602 219.975 228.045 220.185" stroke="#263238" stroke-width="0.5" stroke-miterlimit="10" stroke-linecap="round" stroke-linejoin="round"/>
<path d="M226.235 221.208C226.681 221.002 227.217 221.005 227.66 221.215" stroke="#263238" stroke-width="0.5" stroke-miterlimit="10" stroke-linecap="round" stroke-linejoin="round"/>
<path d="M225.614 222.263C226.06 222.057 226.596 222.06 227.039 222.27" stroke="#263238" stroke-width="0.5" stroke-miterlimit="10" stroke-linecap="round" stroke-linejoin="round"/>
<path opacity="0.7" d="M234.757 220.106C234.717 220.15 234.672 220.189 234.621 220.219C233.177 221.141 232.494 221.577 230.696 222.725L225.199 226.233C224.388 226.751 223.646 226.602 223.217 226.273C223.446 226.129 234.424 219.241 234.538 219.101L234.752 219.303C234.954 219.529 234.962 219.874 234.757 220.106Z" fill="white"/>
<path d="M198.036 214.22L204.552 218.245C204.068 223.143 202.867 227.594 203.319 229.998L201.217 231.509L198.353 228.518C198.353 228.518 198.599 219.754 198.036 214.22Z" fill="#B97964"/>
<path d="M198.095 226.354L200.033 226.312C201.025 227.908 201.66 227.504 202.617 226.323C203.177 226.246 203.343 226.889 203.392 227.061L204.528 230.879C204.626 231.198 204.448 231.537 204.13 231.635C204.073 231.653 204.014 231.662 203.955 231.662C202.243 231.698 201.433 231.716 199.302 231.761L192.785 231.9C191.008 231.938 190.602 230.153 191.33 229.971C194.605 229.172 196.915 228.152 197.912 227.172C198.097 227 197.901 226.879 198.095 226.354Z" fill="#7D966A"/>
<path d="M197.139 227.465C197.626 227.521 198.082 227.802 198.352 228.212" stroke="#263238" stroke-width="0.5" stroke-miterlimit="10" stroke-linecap="round" stroke-linejoin="round"/>
<path d="M196.277 228.145C196.764 228.201 197.221 228.482 197.491 228.892" stroke="#263238" stroke-width="0.5" stroke-miterlimit="10" stroke-linecap="round" stroke-linejoin="round"/>
<path d="M195.198 228.723C195.686 228.779 196.142 229.06 196.412 229.47" stroke="#263238" stroke-width="0.5" stroke-miterlimit="10" stroke-linecap="round" stroke-linejoin="round"/>
<path opacity="0.7" d="M204.129 231.636C204.072 231.653 204.014 231.662 203.954 231.663C202.242 231.699 201.432 231.716 199.301 231.762L192.784 231.901C191.823 231.921 191.266 231.408 191.07 230.904C191.341 230.9 204.293 230.724 204.462 230.663L204.54 230.948C204.597 231.245 204.425 231.544 204.129 231.636Z" fill="white"/>
<path d="M206.843 120.685C206.843 120.685 206.112 118.273 206.882 113.771C206.881 113.766 206.64 113.69 206.639 113.686C206.744 113.056 206.866 112.472 206.985 111.964C206.988 111.949 206.987 111.944 206.987 111.944L201.451 116.304C201.748 117.682 201.552 120.433 201.383 121.604C201.383 121.604 200.864 123.75 203.609 123.53C205.616 123.369 206.843 120.685 206.843 120.685Z" fill="#B97964"/>
<path opacity="0.2" d="M201.57 118.276L204.909 117.114C204.718 118.217 203.918 119.589 201.546 119.962C201.546 119.962 201.649 118.741 201.57 118.276Z" fill="black"/>
<path d="M206.706 109.042C206.732 112.868 206.823 115.026 205.03 117.095C202.333 120.207 197.626 118.819 196.457 115.066C195.404 111.688 195.54 105.999 199.169 104.264C202.745 102.554 206.681 105.216 206.706 109.042Z" fill="#B97964"/>
<path d="M206.877 104.428C206.212 102.364 200.958 102.699 199.564 103.872C199.356 104.047 202.573 105.401 202.38 105.345L203.879 105.752C204.101 105.687 204.563 105.92 204.84 106.607C204.84 106.607 205.07 112.46 206.837 114.039C208.121 113.299 208.041 110.979 208.366 109.571C208.85 107.475 209.397 104.415 206.877 104.428Z" fill="#263238"/>
<path d="M208.424 112.116C208.187 113.117 207.507 113.912 206.779 114.339C205.682 114.981 205.175 113.767 205.2 112.559C205.224 111.472 205.449 110.134 206.683 109.985C207.9 109.837 208.695 110.97 208.424 112.116Z" fill="#B97964"/>
<path d="M201.337 110.514C201.363 110.903 201.178 111.231 200.923 111.246C200.668 111.261 200.44 110.957 200.414 110.567C200.387 110.178 200.572 109.849 200.827 109.835C201.082 109.82 201.31 110.123 201.337 110.514Z" fill="#263238"/>
<path d="M197.526 110.849C197.553 111.239 197.368 111.567 197.113 111.582C196.858 111.597 196.63 111.293 196.603 110.903C196.577 110.514 196.762 110.185 197.016 110.17C197.271 110.155 197.5 110.46 197.526 110.849Z" fill="#263238"/>
<path d="M198.753 110.549C198.753 110.549 197.653 112.57 197.312 113.386C197.886 113.839 198.804 113.549 198.804 113.549L198.753 110.549Z" fill="#A24E3F"/>
<path d="M202.163 108.61C202.106 108.639 202.036 108.636 201.979 108.597C201.302 108.139 200.677 108.388 200.67 108.391C200.577 108.429 200.47 108.385 200.43 108.292C200.391 108.199 200.435 108.093 200.528 108.054C200.561 108.041 201.343 107.727 202.183 108.297C202.268 108.354 202.289 108.467 202.233 108.55C202.215 108.577 202.191 108.597 202.163 108.61Z" fill="#263238"/>
<path d="M200.164 114.705C200.796 114.667 201.264 114.318 201.721 113.813" stroke="#263238" stroke-width="0.75" stroke-miterlimit="10" stroke-linecap="round" stroke-linejoin="round"/>
<path opacity="0.2" d="M207.484 111.121C207.315 110.904 206.997 110.842 206.736 110.926C206.474 111.009 206.266 111.215 206.119 111.447C205.942 111.726 205.84 112.051 205.825 112.381" stroke="black" stroke-width="0.5" stroke-miterlimit="10" stroke-linecap="round" stroke-linejoin="round"/>
<path d="M195.73 109.319C195.696 109.314 195.662 109.299 195.634 109.274C195.558 109.206 195.551 109.09 195.618 109.015C196.285 108.26 197.115 108.387 197.153 108.387C197.253 108.403 197.321 108.497 197.307 108.597C197.292 108.696 197.2 108.764 197.102 108.75C197.067 108.743 196.427 108.654 195.891 109.26C195.849 109.308 195.788 109.327 195.73 109.319Z" fill="#263238"/>
<path d="M207.544 102.718C207.189 101.89 206.07 101.795 205.248 102.04C205.199 100.996 203.795 100.509 202.945 100.61C202.06 100.714 201.771 101.097 201.771 101.097C201.841 101.105 201.459 100.604 201.232 100.411C200.394 99.7008 199.156 99.5699 198.22 100.094C197.284 100.617 196.704 101.765 196.81 102.885C196.211 102.369 195.226 102.476 194.756 103.107C194.286 103.738 194.42 104.775 195.035 105.269C194.387 105.366 193.901 106.1 194.038 106.778C194.174 107.456 194.905 107.938 195.538 107.769C195.644 108.536 195.809 109.491 195.914 110.258L196.697 107.337C197.21 107.103 197.289 106.853 197.346 106.265C197.798 106.959 198.402 106.847 199.187 106.748C199.973 106.65 200.676 106.058 200.939 105.275C201.412 105.999 202.236 106.509 203.059 106.419C203.882 106.328 204.615 105.533 204.537 104.662C205.088 105.364 206.141 105.555 206.867 105.086C207.593 104.616 207.899 103.547 207.544 102.718Z" fill="#263238"/>
<path d="M213.326 120.442C213.326 120.442 216.723 120.536 218.088 124.332C219.345 127.827 222.543 135.533 222.543 135.533L214.898 137.777L211.854 128.651L213.326 120.442Z" fill="#7D966A"/>
<path d="M200.836 156.843L205.445 166.696C205.445 166.696 198.127 188.77 197.687 191.071C197.247 193.371 197.043 222.355 197.043 222.355L205.186 222.368L208.379 194.094C208.379 194.094 218.268 170.081 218.993 168.128C220.349 164.475 218.927 159.561 218.927 159.561L216.409 155.924L200.836 156.843Z" fill="#263238"/>
<path d="M196.364 161.784C196.364 162.68 199.541 193.255 200.063 193.364C200.584 193.474 223.599 218.692 223.599 218.692L230.134 212.943L213.247 190.004L211.377 169.39L210.722 156.433L195.994 157.523L196.364 161.784Z" fill="#263238"/>
<path opacity="0.4" d="M207.534 201.339L207.94 194.159L212.672 183.654L209.12 194.759L208.781 202.363L207.534 201.339Z" fill="black"/>
<path opacity="0.4" d="M199 186.393L205.445 166.697L203.201 164.643L203.914 167.468L198.721 184.054L199 186.393Z" fill="black"/>
<path d="M176.727 130.017L186.698 139.187L191.346 130.519C191.346 130.519 196.418 135.536 196.245 135.61C196.072 135.684 190.275 148.4 186.094 146.118C181.913 143.836 174.844 132.363 174.844 132.363L176.727 130.017Z" fill="#B97964"/>
<path opacity="0.2" d="M186.698 139.187C186.698 139.187 187.563 140.572 187.455 141.879C187.455 141.879 187.842 141.239 187.725 140.198C187.608 139.157 187.101 138.437 187.101 138.437L186.698 139.187Z" fill="black"/>
<path d="M195.878 122.72C198.6 124.119 199.693 129.09 193.842 141.076L186.855 135.676C187.976 132.685 189.113 131.128 190.905 127.497C193.746 121.861 195.878 122.72 195.878 122.72Z" fill="#7D966A"/>
<path d="M195.791 122.537C197.711 122.111 205.347 120.107 213.515 120.45L217.83 150.931C217.83 150.931 218.668 154.925 219.815 158.887C212.037 163.399 201.241 164.127 195.448 161.665C195.525 161.787 195.343 158.411 195.094 153.463C194.656 144.746 194.011 131.149 194.212 123.216C194.219 123.02 195.6 122.58 195.791 122.537Z" fill="#7D966A"/>
<path opacity="0.2" d="M194.474 139.75L194.2 129.892L192.958 140.393L193.842 141.077L194.474 139.75Z" fill="black"/>
<path opacity="0.2" d="M215.326 137.653L214.898 137.778L212.113 130.303L214.202 138.857L215.622 138.865L215.326 137.653Z" fill="black"/>
<path d="M177.688 131.605C177.688 131.605 178.453 130.395 178.18 129.242C177.907 128.089 177.996 127.096 177.734 126.253C177.472 125.41 176.997 126.502 176.862 127.135C176.727 127.767 176.567 128.483 176.11 128.304C175.652 128.126 172.999 124.831 172.337 124.656C171.674 124.481 171.936 125.148 171.936 125.148C171.936 125.148 171.271 124.366 170.889 124.545C170.79 124.592 170.636 124.862 170.883 125.266C171.44 126.175 172.707 128.024 172.707 128.024C172.637 127.917 170.91 125.747 170.609 125.455C170.216 125.075 169.837 125.096 169.624 125.332C169.321 125.668 171.37 128.431 171.375 128.608C171.375 128.608 170.249 126.978 169.669 127.039C169.09 127.1 169.743 128.165 170.497 128.995C171.189 129.755 172.346 131.428 173.124 132.133C174.082 133.002 174.92 133.369 176.032 132.886C177.143 132.403 177.688 131.605 177.688 131.605Z" fill="#B97964"/>
<path opacity="0.3" d="M172.043 125.233C172.561 125.874 173.05 126.538 173.507 127.224" stroke="black" stroke-width="0.25" stroke-miterlimit="10" stroke-linecap="round" stroke-linejoin="round"/>
<path opacity="0.3" d="M171.791 129.256C172.412 128.392 173.293 127.717 174.288 127.343" stroke="black" stroke-width="0.25" stroke-miterlimit="10" stroke-linecap="round" stroke-linejoin="round"/>
<path opacity="0.3" d="M175.974 128.817C175.681 129.137 175.505 129.562 175.484 129.995C175.462 130.429 175.596 130.868 175.856 131.216" stroke="black" stroke-width="0.25" stroke-miterlimit="10" stroke-linecap="round" stroke-linejoin="round"/>
<path d="M221.969 135.703C221.969 135.703 224.269 141.162 225.246 146.061C225.689 148.287 223.913 149.714 222.097 150.154C216.374 151.539 203.478 151.544 203.478 151.544L203.141 147.603L217.994 144.383L215.325 137.652L221.969 135.703Z" fill="#B97964"/>
<path d="M203.446 152.383L198.578 152.933C198.411 152.952 198.245 152.894 198.126 152.776L190.717 145.437C190.411 145.134 190.551 144.613 190.968 144.505L195.249 143.399C195.438 143.35 195.637 143.404 195.776 143.541L203.774 151.436C204.105 151.764 203.909 152.33 203.446 152.383Z" fill="#263238"/>
<path d="M203.902 147.624C203.902 147.624 203.764 147.05 201.611 146.391C199.974 145.891 198.349 144.357 198.085 144.41C197.821 144.463 197.532 145.297 198.213 146.036C198.894 146.774 199.598 147.19 199.418 147.472C198.985 148.152 193.66 147.598 193.568 148.181C193.476 148.763 194.491 150.429 197.343 151.544C200.194 152.658 204.103 151.541 204.103 151.541L203.902 147.624Z" fill="#B97964"/>
<path d="M229.582 92.3955C229.582 92.3955 228.341 95.7177 222.586 97.9325C222.586 97.9325 224.918 95.8029 224.918 92.3955H229.582Z" fill="#BCEF9B"/>
<path d="M226.846 94.9524C231.775 94.9524 235.77 91.1574 235.77 86.4762C235.77 81.7949 231.775 78 226.846 78C221.918 78 217.923 81.7949 217.923 86.4762C217.923 91.1574 221.918 94.9524 226.846 94.9524Z" fill="#BCEF9B"/>
<path d="M226.816 93.7876C231.084 93.7876 234.544 90.5013 234.544 86.4475C234.544 82.3937 231.084 79.1074 226.816 79.1074C222.549 79.1074 219.089 82.3937 219.089 86.4475C219.089 90.5013 222.549 93.7876 226.816 93.7876Z" fill="#9FE870"/>
<path d="M229.112 85.7365C228.582 86.3062 228.082 86.9155 227.609 87.5501C227.377 87.8716 227.148 88.1959 226.931 88.5316C226.818 88.7036 226.724 88.8531 226.603 89.0505L226.283 89.5752L226.017 90.0236L225.938 90.1534L225.898 90.2183L225.879 90.2521L225.869 90.2662C225.864 90.2662 225.859 90.2606 225.856 90.2549C225.696 90.0829 225.539 89.9137 225.388 89.7529C225.317 89.6711 224.799 89.1126 224.73 89.0365L224.629 88.918L224.558 88.8306C224.425 88.6614 224.306 88.4978 224.2 88.3427C223.991 88.0325 223.836 87.7617 223.725 87.5332C223.503 87.0735 223.565 86.6109 223.651 86.5376C223.74 86.4614 223.947 86.594 224.287 86.9099C224.457 87.0678 224.661 87.2681 224.905 87.5078C225.028 87.6235 225.608 88.2299 225.75 88.368L225.778 88.3934C225.785 88.4019 225.78 88.3963 225.785 88.3963H225.79C225.795 88.3934 225.797 88.3934 225.8 88.3906C225.805 88.3849 225.807 88.3765 225.807 88.368H225.805C225.898 88.2157 226.022 88.0183 226.135 87.849C226.362 87.4965 226.603 87.1552 226.85 86.8168C227.345 86.1455 227.872 85.5081 228.432 84.9073C229.127 84.2389 229.701 83.8186 230.11 83.5902C230.516 83.3589 230.755 83.3166 230.819 83.4181C230.95 83.6296 230.317 84.3291 229.112 85.7365Z" fill="white"/>
</svg>
