<svg width="20" height="20" viewBox="0 0 20 20" fill="none" xmlns="http://www.w3.org/2000/svg">
<path d="M8.2884 0.0596507C4.00285 0.537675 0.538471 4.00101 0.0599254 8.28657C-0.56963 13.9234 3.84507 18.7151 9.35745 18.7151C9.67769 18.7151 9.99169 18.6995 10.2958 18.6688C10.5999 18.638 10.817 18.3615 10.7655 18.0606C10.7202 17.795 10.4796 17.6028 10.2114 17.6304C9.93545 17.6591 9.6501 17.6737 9.35745 17.6737C4.63969 17.6737 0.827472 13.725 1.05086 8.95986C1.24926 4.7295 4.7303 1.24898 8.96118 1.05111C13.7258 0.828239 17.6734 4.64046 17.6734 9.35769C17.6734 9.6493 17.6588 9.93466 17.6302 10.2112C17.6021 10.4793 17.7947 10.7204 18.0603 10.7657C18.3613 10.8173 18.6373 10.5996 18.668 10.296C18.6992 9.99089 18.7149 9.6769 18.7149 9.35769C18.7149 3.84583 13.9247 -0.568342 8.2884 0.0596507Z" fill="#163300"/>
<path d="M15.6062 20.0001C18.0286 20.0001 20.0001 18.0292 20.0001 15.6062C20.0001 13.1833 18.0286 11.2129 15.6062 11.2129C13.1838 11.2129 11.2129 13.1838 11.2129 15.6062C11.2129 18.0286 13.1838 20.0001 15.6062 20.0001ZM15.6062 12.2543C17.4548 12.2543 18.9587 13.7582 18.9587 15.6068C18.9587 17.4553 17.4548 18.9587 15.6062 18.9587C13.7577 18.9587 12.2543 17.4548 12.2543 15.6062C12.2543 13.7577 13.7577 12.2543 15.6062 12.2543Z" fill="#163300"/>
<path d="M15.0218 16.1959V17.6977C15.0218 17.9851 15.2551 18.2184 15.5425 18.2184H15.6696C15.957 18.2184 16.1903 17.9851 16.1903 17.6977V16.1959H17.6968C17.9842 16.1959 18.2175 15.9627 18.2175 15.6752V15.5466C18.2175 15.2592 17.9842 15.0259 17.6968 15.0259H16.1903V13.5168C16.1903 13.2294 15.957 12.9961 15.6696 12.9961H15.5425C15.2551 12.9961 15.0218 13.2294 15.0218 13.5168V15.0259H13.5154C13.2279 15.0259 12.9946 15.2592 12.9946 15.5466V15.6752C12.9946 15.9627 13.2279 16.1959 13.5154 16.1959H15.0218Z" fill="#163300"/>
<path d="M11.6511 11.13C11.6511 9.8652 10.6221 8.83573 9.3573 8.83573C8.66682 8.83573 8.10496 8.27387 8.10496 7.58339C8.10496 6.89291 8.66682 6.33105 9.3573 6.33105C10.0478 6.33105 10.6096 6.89291 10.6096 7.58339C10.6096 7.87083 10.8429 8.10412 11.1304 8.10412C11.4178 8.10412 11.6511 7.87083 11.6511 7.58339C11.6511 6.54194 10.9497 5.67077 9.99727 5.39167V4.35959C9.99727 4.07215 9.76398 3.83887 9.47654 3.83887C9.1891 3.83887 8.95582 4.07215 8.95582 4.35959V5.33022C7.88209 5.52133 7.06299 6.45602 7.06299 7.58339C7.06299 8.84823 8.09194 9.87718 9.35678 9.87718C10.0473 9.87718 10.6091 10.4396 10.6091 11.13C10.6091 11.8205 10.0478 12.3829 9.3573 12.3829C8.66682 12.3829 8.10496 11.821 8.10496 11.1306C8.10496 10.8426 7.87167 10.6098 7.58423 10.6098C7.29679 10.6098 7.06351 10.8426 7.06351 11.1306C7.06351 12.2579 7.88261 13.1931 8.95634 13.3837V14.3554C8.95634 14.6434 9.18962 14.8761 9.47706 14.8761C9.7645 14.8761 9.99779 14.6434 9.99779 14.3554V13.3223C10.9497 13.0427 11.6511 12.1715 11.6511 11.13Z" fill="#163300"/>
</svg>
