<svg width="24" height="24" viewBox="0 0 24 24" fill="none" xmlns="http://www.w3.org/2000/svg">
<path d="M12.0001 12.6968C11.5276 12.6968 11.0657 12.5567 10.6729 12.2941C10.2801 12.0316 9.97392 11.6585 9.79313 11.222C9.61235 10.7855 9.56506 10.3052 9.65724 9.84178C9.74943 9.37839 9.97695 8.95274 10.311 8.61865C10.6451 8.28457 11.0708 8.05705 11.5342 7.96486C11.9976 7.87267 12.4779 7.91997 12.9144 8.10075C13.3509 8.28154 13.724 8.5877 13.9865 8.98053C14.249 9.37335 14.3892 9.8352 14.3892 10.3077C14.3892 10.4927 14.3157 10.6702 14.1849 10.801C14.054 10.9318 13.8766 11.0053 13.6916 11.0053C13.5065 11.0053 13.3291 10.9318 13.1982 10.801C13.0674 10.6702 12.9939 10.4927 12.9939 10.3077C12.9939 10.1111 12.9356 9.91897 12.8264 9.75553C12.7172 9.5921 12.562 9.46472 12.3804 9.3895C12.1988 9.31428 11.999 9.2946 11.8062 9.33294C11.6134 9.37129 11.4363 9.46594 11.2973 9.60493C11.1583 9.74392 11.0637 9.921 11.0253 10.1138C10.987 10.3066 11.0067 10.5064 11.0819 10.688C11.1571 10.8696 11.2845 11.0248 11.4479 11.134C11.6113 11.2432 11.8035 11.3015 12.0001 11.3015C12.1851 11.3015 12.3625 11.375 12.4934 11.5058C12.6242 11.6367 12.6977 11.8141 12.6977 11.9992C12.6977 12.1842 12.6242 12.3617 12.4934 12.4925C12.3625 12.6233 12.1851 12.6968 12.0001 12.6968Z" fill="#163300"/>
<path d="M12 16.0806C11.3666 16.08 10.7594 15.8281 10.3115 15.3803C9.86361 14.9325 9.61163 14.3253 9.61084 13.6919C9.61084 13.5069 9.68434 13.3294 9.81518 13.1986C9.94602 13.0677 10.1235 12.9942 10.3085 12.9942C10.4935 12.9942 10.671 13.0677 10.8018 13.1986C10.9327 13.3294 11.0062 13.5069 11.0062 13.6919C11.0062 13.8885 11.0645 14.0806 11.1737 14.2441C11.2829 14.4075 11.4381 14.5349 11.6197 14.6101C11.8013 14.6853 12.0011 14.705 12.1939 14.6666C12.3867 14.6283 12.5638 14.5336 12.7028 14.3947C12.8417 14.2557 12.9364 14.0786 12.9747 13.8858C13.0131 13.693 12.9934 13.4932 12.9182 13.3116C12.843 13.13 12.7156 12.9748 12.5522 12.8656C12.3887 12.7564 12.1966 12.6981 12 12.6981C11.815 12.6981 11.6375 12.6246 11.5067 12.4937C11.3758 12.3629 11.3023 12.1854 11.3023 12.0004C11.3023 11.8154 11.3758 11.6379 11.5067 11.5071C11.6375 11.3762 11.815 11.3027 12 11.3027C12.3141 11.3021 12.6253 11.3635 12.9157 11.4832C13.2061 11.603 13.47 11.7789 13.6923 12.0008C13.9146 12.2227 14.091 12.4862 14.2114 12.7764C14.3317 13.0665 14.3937 13.3776 14.3937 13.6917C14.3937 14.0058 14.3317 14.3168 14.2114 14.607C14.091 14.8971 13.9146 15.1607 13.6923 15.3826C13.47 15.6045 13.2061 15.7804 12.9157 15.9001C12.6253 16.0199 12.3141 16.0812 12 16.0806Z" fill="#163300"/>
<path d="M11.9999 9.31534C11.8149 9.31529 11.6375 9.24177 11.5066 9.11094C11.3758 8.98011 11.3023 8.80268 11.3022 8.61766V7.34904C11.3022 7.16401 11.3758 6.98655 11.5066 6.85571C11.6374 6.72487 11.8149 6.65137 11.9999 6.65137C12.185 6.65137 12.3624 6.72487 12.4933 6.85571C12.6241 6.98655 12.6976 7.16401 12.6976 7.34904V8.61766C12.6975 8.80268 12.624 8.98011 12.4932 9.11094C12.3624 9.24177 12.1849 9.31529 11.9999 9.31534Z" fill="#163300"/>
<path d="M11.9999 17.3495C11.8149 17.3495 11.6375 17.2759 11.5066 17.1451C11.3758 17.0143 11.3023 16.8369 11.3022 16.6518V15.3832C11.3022 15.1982 11.3758 15.0207 11.5066 14.8899C11.6374 14.7591 11.8149 14.6855 11.9999 14.6855C12.185 14.6855 12.3624 14.7591 12.4933 14.8899C12.6241 15.0207 12.6976 15.1982 12.6976 15.3832V16.6518C12.6975 16.8369 12.624 17.0143 12.4932 17.1451C12.3624 17.2759 12.1849 17.3495 11.9999 17.3495Z" fill="#163300"/>
<path d="M21.3024 7.11628C21.1174 7.11623 20.9399 7.04271 20.8091 6.91188C20.6783 6.78105 20.6048 6.60362 20.6047 6.4186V3.39535H17.5815C17.3964 3.39535 17.219 3.32184 17.0881 3.191C16.9573 3.06017 16.8838 2.88271 16.8838 2.69767C16.8838 2.51264 16.9573 2.33518 17.0881 2.20434C17.219 2.0735 17.3964 2 17.5815 2H21.3024C21.4874 2.00005 21.6648 2.07357 21.7957 2.2044C21.9265 2.33523 22 2.51265 22.0001 2.69767V6.4186C22 6.60362 21.9265 6.78105 21.7957 6.91188C21.6648 7.04271 21.4874 7.11623 21.3024 7.11628Z" fill="#163300"/>
<path d="M16.6509 8.04659C16.513 8.04657 16.3781 8.00564 16.2634 7.92898C16.1487 7.85232 16.0593 7.74336 16.0065 7.61589C15.9537 7.48842 15.9399 7.34816 15.9668 7.21284C15.9937 7.07752 16.0601 6.95322 16.1577 6.85564L20.8088 2.20448C20.9398 2.07444 21.117 2.00162 21.3016 2.00195C21.4861 2.00229 21.6631 2.07576 21.7936 2.20628C21.9241 2.33679 21.9976 2.51371 21.9979 2.69828C21.9982 2.88286 21.9254 3.06004 21.7954 3.19103L17.1442 7.84219C17.0795 7.90712 17.0027 7.9586 16.918 7.99368C16.8333 8.02876 16.7426 8.04675 16.6509 8.04659Z" fill="#163300"/>
<path d="M12 22C9.34784 22 6.8043 20.9464 4.92893 19.0711C3.05357 17.1957 2 14.6522 2 12C2 9.34784 3.05357 6.8043 4.92893 4.92893C6.8043 3.05357 9.34784 2 12 2C12.185 2 12.3625 2.0735 12.4933 2.20434C12.6242 2.33518 12.6977 2.51264 12.6977 2.69767C12.6977 2.88271 12.6242 3.06017 12.4933 3.191C12.3625 3.32184 12.185 3.39535 12 3.39535C10.2982 3.39535 8.63454 3.9 7.21951 4.84549C5.80448 5.79099 4.7016 7.13485 4.05034 8.70714C3.39907 10.2794 3.22867 12.0095 3.56068 13.6787C3.8927 15.3478 4.71221 16.881 5.91559 18.0844C7.11898 19.2878 8.65218 20.1073 10.3213 20.4393C11.9905 20.7713 13.7206 20.6009 15.2929 19.9497C16.8652 19.2984 18.209 18.1955 19.1545 16.7805C20.1 15.3655 20.6047 13.7018 20.6047 12C20.6047 11.815 20.6782 11.6375 20.809 11.5067C20.9398 11.3758 21.1173 11.3023 21.3023 11.3023C21.4874 11.3023 21.6648 11.3758 21.7957 11.5067C21.9265 11.6375 22 11.815 22 12C21.997 14.6513 20.9425 17.1931 19.0678 19.0678C17.1931 20.9425 14.6513 21.997 12 22Z" fill="#163300"/>
</svg>
