<svg width="20" height="21" viewBox="0 0 20 21" fill="none" xmlns="http://www.w3.org/2000/svg">
<path d="M8.4375 3.33676V8.02426H11.5625V3.33676H8.4375ZM10.3906 6.85239H9.60938V4.50864H10.3906V6.85239Z" fill="#163300"/>
<path d="M6.69457 10.9993L6.38519 12.1149H6.98984L6.69457 10.9993Z" fill="#163300"/>
<path d="M15.6997 6.70183C14.8861 5.77398 13.866 5.0657 12.7344 4.62746V9.19613H7.26562V4.62765C6.1016 5.0789 5.05539 5.81601 4.23336 6.77921C3.06523 8.14804 2.42188 9.89421 2.42188 11.6961C2.42188 15.8747 5.82141 19.2743 10 19.2743C14.1786 19.2743 17.5781 15.8747 17.5781 11.6961C17.5781 9.85691 16.911 8.08324 15.6997 6.70183ZM7.33672 13.3758L7.13516 12.7243H6.24922L6.05234 13.3758H5.08203L6.32422 10.0477H7.06484L8.30238 13.3758H7.33672ZM9.46016 13.3758H8.48047L10.8945 10.0477H11.8789L9.46016 13.3758ZM14.689 12.9586C14.5937 13.0555 14.4851 13.1368 14.3632 13.2024C14.2414 13.268 14.1116 13.318 13.9742 13.3524C13.8366 13.3867 13.7023 13.4039 13.5711 13.4039C13.3398 13.4039 13.1273 13.3547 12.9336 13.2563C12.7398 13.1578 12.5734 13.0274 12.4344 12.8649C12.2952 12.7024 12.1866 12.518 12.1086 12.3118C12.0304 12.1055 11.9914 11.8962 11.9914 11.6836C11.9914 11.4805 12.0273 11.2805 12.0992 11.0836C12.1711 10.8868 12.2765 10.7102 12.4156 10.5539C12.5546 10.3977 12.7234 10.2712 12.9219 10.1743C13.1203 10.0774 13.3461 10.0289 13.5992 10.0289C13.8961 10.0289 14.1554 10.0954 14.3773 10.2282C14.5992 10.361 14.7633 10.5368 14.8696 10.7555L14.1711 11.2524C14.143 11.1711 14.1062 11.104 14.061 11.0508C14.0156 10.9977 13.9664 10.9555 13.9133 10.9243C13.8602 10.893 13.8039 10.8712 13.7446 10.8586C13.6852 10.8462 13.6305 10.8399 13.5805 10.8399C13.4649 10.8399 13.3656 10.8657 13.2829 10.9172C13.2 10.9688 13.1312 11.036 13.0766 11.1188C13.022 11.2016 12.9821 11.2954 12.9571 11.4C12.932 11.5048 12.9196 11.6086 12.9196 11.7118C12.9196 11.8274 12.9344 11.9384 12.9641 12.0446C12.9938 12.1509 13.0375 12.2446 13.0954 12.3258C13.1532 12.4071 13.2235 12.4719 13.3063 12.5203C13.3891 12.5688 13.4836 12.593 13.5899 12.593C13.643 12.593 13.6977 12.586 13.7539 12.5719C13.8102 12.5578 13.8641 12.5344 13.9157 12.5016C13.9672 12.4688 14.0141 12.4266 14.0563 12.375C14.0985 12.3235 14.132 12.2602 14.1571 12.1852L14.9024 12.6305C14.8554 12.7524 14.7843 12.8618 14.689 12.9586Z" fill="#163300"/>
</svg>
