<svg width="20" height="21" viewBox="0 0 20 21" fill="none" xmlns="http://www.w3.org/2000/svg">
<path d="M6.22235 8.1456L7.30552 8.8321V7.35791L6.22235 6.67142V8.1456Z" fill="#163300"/>
<path d="M4.06494 13.6375L5.14811 14.324V12.8499L4.06494 12.1634V13.6375Z" fill="#163300"/>
<path d="M4.06494 8.1456L5.14811 8.8321V7.35791L4.06494 6.67142V8.1456Z" fill="#163300"/>
<path d="M4.06494 10.8916L5.14811 11.5781V10.1039L4.06494 9.41739V10.8916Z" fill="#163300"/>
<path d="M6.22235 10.8916L7.30552 11.5781V10.1039L6.22235 9.41739V10.8916Z" fill="#163300"/>
<path d="M6.22235 13.6375L7.30552 14.324V12.8499L6.22235 12.1634V13.6375Z" fill="#163300"/>
<path d="M4.06494 16.3835L5.14811 17.07V15.5958L4.06494 14.9093V16.3835Z" fill="#163300"/>
<path d="M6.22235 5.39963L7.30552 6.08613V4.61194L6.22235 3.92545V5.39963Z" fill="#163300"/>
<path d="M6.22235 16.3835L7.30552 17.07V15.5958L6.22235 14.9093V16.3835Z" fill="#163300"/>
<path d="M4.06494 5.39963L5.14811 6.08613V4.61194L4.06494 3.92545V5.39963Z" fill="#163300"/>
<path d="M8.37973 1.3434V19.6567C9.58718 19.5491 10.5371 18.5323 10.5371 17.2974V3.70266C10.5371 2.46771 9.58718 1.45096 8.37973 1.3434Z" fill="#163300"/>
<path d="M0.833344 3.70266V17.2974C0.833344 18.5323 1.78327 19.5491 2.99072 19.6567V1.3434C1.78327 1.45096 0.833344 2.46771 0.833344 3.70266Z" fill="#163300"/>
<path d="M7.30552 3.34015V1.33333H6.22235V2.65365L7.30552 3.34015Z" fill="#163300"/>
<path d="M4.06494 17.6553V19.6666H5.14811V18.3418L4.06494 17.6553Z" fill="#163300"/>
<path d="M6.22235 17.6553V19.6666H7.30552V18.3418L6.22235 17.6553Z" fill="#163300"/>
<path d="M5.14811 3.34015V1.33333H4.06494V2.65365L5.14811 3.34015Z" fill="#163300"/>
<path d="M18.8979 7.01033L18.7927 6.9496C18.9922 6.79158 19.0569 6.50924 18.933 6.27671C18.7935 6.01489 18.4683 5.91578 18.2064 6.05517L17.7056 6.32194L16.4675 5.60709L17.7056 4.89223L18.2065 5.159C18.2869 5.20186 18.3733 5.22216 18.4585 5.22216C18.6506 5.22216 18.8364 5.11882 18.933 4.93746C19.0569 4.70493 18.9921 4.42259 18.7927 4.26457L18.8979 4.20384C19.1548 4.05553 19.2428 3.72703 19.0945 3.47015C18.9461 3.21324 18.6177 3.12526 18.3608 3.27357L18.2556 3.3343C18.2185 3.08258 18.0063 2.88532 17.743 2.87633C17.4448 2.8663 17.198 3.09833 17.1879 3.39478L17.1685 3.96189L15.9303 4.67674V3.24715L16.4118 2.94683C16.6634 2.78982 16.7402 2.45853 16.5832 2.20684C16.4438 1.9833 16.167 1.89822 15.9303 1.99189V1.87043C15.9303 1.57381 15.6899 1.33333 15.3932 1.33333C15.0966 1.33333 14.8561 1.57381 14.8561 1.87043V1.99189C14.6196 1.89815 14.3427 1.98326 14.2033 2.20684C14.0462 2.45853 14.123 2.78982 14.3747 2.94683L14.8561 3.24715V4.67685L13.618 3.962L13.5986 3.39489C13.5885 3.09848 13.3413 2.86609 13.0435 2.87644C12.7801 2.88542 12.568 3.08265 12.5309 3.33441L12.4257 3.27368C12.1688 3.12529 11.8403 3.21338 11.692 3.47026C11.5437 3.72714 11.6317 4.05563 11.8886 4.20395L11.9938 4.26468C11.7943 4.42269 11.7296 4.705 11.8535 4.93756C11.9501 5.11893 12.1359 5.22227 12.328 5.22227C12.4132 5.22227 12.4996 5.20193 12.58 5.1591L13.0809 4.89234L14.319 5.60719L13.0809 6.32205L12.5801 6.05528C12.3182 5.91589 11.993 6.01496 11.8535 6.27682C11.7296 6.50939 11.7943 6.79173 11.9938 6.94971L11.8886 7.01044C11.6317 7.15875 11.5437 7.48724 11.692 7.74412C11.7915 7.91643 11.972 8.01275 12.1576 8.01275C12.2488 8.01275 12.3411 7.98955 12.4257 7.94071L12.5309 7.87998C12.568 8.1317 12.7801 8.32893 13.0435 8.33791C13.0497 8.33813 13.0559 8.33824 13.0621 8.33824C13.3503 8.33824 13.5887 8.10968 13.5986 7.81946L13.6179 7.25239L14.8561 6.53753V7.96724L14.3747 8.26755C14.123 8.42457 14.0462 8.75585 14.2032 9.00754C14.3427 9.23109 14.6196 9.31624 14.8561 9.22249V9.34391C14.8561 9.64054 15.0966 9.88102 15.3932 9.88102C15.6898 9.88102 15.9303 9.64054 15.9303 9.34391V9.22264C15.9941 9.24791 16.0608 9.26045 16.1269 9.26045C16.3061 9.26045 16.4813 9.17079 16.5831 9.00758C16.7402 8.75589 16.6634 8.4246 16.4117 8.26759L15.9303 7.96727V6.53757L17.1685 7.25242L17.1879 7.8195C17.1977 8.10971 17.4361 8.33831 17.7243 8.33827C17.7305 8.33827 17.7367 8.33816 17.7429 8.33795C18.0063 8.32896 18.2184 8.13174 18.2555 7.88001L18.3607 7.94074C18.4453 7.98958 18.5376 8.01278 18.6288 8.01278C18.8144 8.01278 18.9949 7.91646 19.0944 7.74416C19.2428 7.48714 19.1548 7.15864 18.8979 7.01033Z" fill="#163300"/>
</svg>
