<svg width="20" height="21" viewBox="0 0 20 21" fill="none" xmlns="http://www.w3.org/2000/svg">
<g clip-path="url(#clip0_2034_5415)">
<path d="M8.94411 4.16182C8.72382 3.85468 8.29666 3.78496 7.99026 4.00497C7.68326 4.22519 7.61306 4.65208 7.83341 4.95881C8.54294 5.94738 8.17589 7.27836 7.78799 8.6878C7.35284 10.2669 6.85953 12.0575 7.94958 13.5765C8.08308 13.7627 8.29266 13.8615 8.50564 13.8615C8.6438 13.8615 8.78258 13.8198 8.90342 13.7333C9.21049 13.513 9.28056 13.0862 9.06027 12.7794C8.35075 11.7908 8.7178 10.4598 9.10563 9.05044C9.54092 7.47122 10.0342 5.68059 8.94411 4.16182Z" fill="#163300"/>
<path d="M10.3405 4.42774C10.4807 4.42774 10.6229 4.38475 10.7443 4.29492C11.0488 4.07159 11.1141 3.64382 10.8906 3.33945L8.99743 0.762797C8.73985 0.412401 8.1538 0.412401 7.89608 0.762797L6.00316 3.33939C5.77949 3.64375 5.84488 4.07152 6.14925 4.29485C6.453 4.51879 6.88213 4.45238 7.10444 4.14903L8.44679 2.32218L9.78908 4.14903C9.92264 4.33127 10.1303 4.42774 10.3405 4.42774Z" fill="#163300"/>
<path d="M3.66351 13.7151C3.99157 13.7151 4.27562 13.4823 4.33452 13.1595C4.54133 12.0277 4.53199 10.8698 3.79105 9.83742C3.57084 9.53035 3.14354 9.46062 2.83721 9.68063C2.53021 9.90085 2.46014 10.3277 2.68043 10.6344C3.13873 11.273 3.1478 12.0545 2.99224 12.9076C2.91574 13.3276 3.23655 13.7151 3.66351 13.7151Z" fill="#163300"/>
<path d="M1.95147 9.82462L3.29376 7.99776L4.63611 9.82462C4.76967 10.0069 4.97723 10.1033 5.18756 10.1033C5.32769 10.1033 5.46992 10.0603 5.5913 9.9705C5.89566 9.74717 5.96113 9.3194 5.73759 9.01504L3.84453 6.43845C3.58681 6.08798 3.00083 6.08798 2.74311 6.43845L0.850121 9.0151C0.62652 9.31947 0.691915 9.74724 0.996278 9.97057C1.30003 10.1944 1.72923 10.1281 1.95147 9.82462Z" fill="#163300"/>
<path d="M18.5992 3.30627H15.5941C15.2749 3.30627 14.9986 3.52663 14.9279 3.83769L12.4007 14.8921H2.43646C2.23608 14.8921 2.04592 14.9798 1.9158 15.1324C1.78623 15.2849 1.7295 15.4865 1.76166 15.6844L2.44519 19.9252C2.49853 20.2564 2.78421 20.4999 3.12005 20.4999H14.3126C14.621 20.4999 14.8912 20.293 14.9721 19.9949L19.2587 4.16832C19.3147 3.96313 19.2714 3.74359 19.1418 3.57435C19.0124 3.40538 18.8121 3.30627 18.5992 3.30627Z" fill="#163300"/>
</g>
<defs>
<clipPath id="clip0_2034_5415">
<rect width="20" height="20" fill="white" transform="translate(0 0.5)"/>
</clipPath>
</defs>
</svg>
