<svg width="20" height="21" viewBox="0 0 20 21" fill="none" xmlns="http://www.w3.org/2000/svg">
<g id="Group">
<g id="Group_2">
<g id="Group_3">
<path id="Vector" d="M14.1667 7.16669C13.7073 7.16669 13.3334 6.79274 13.3334 6.33337C13.3334 5.41419 12.5859 4.66669 11.6667 4.66669H10.4167C10.1864 4.66669 10 4.85305 10 5.08337C10 5.31368 10.1864 5.50005 10.4167 5.50005H11.6667C12.1261 5.50005 12.5 5.87399 12.5 6.33337C12.5 7.25255 13.2475 8.00001 14.1667 8.00001C14.6261 8.00001 15 8.37395 15 8.83333V10.0833C15 10.3136 15.1864 10.5 15.4167 10.5C15.647 10.5 15.8334 10.3136 15.8334 10.0833V8.83333C15.8333 7.91415 15.0859 7.16669 14.1667 7.16669Z" fill="#163300"/>
<path id="Vector_2" d="M13.75 9.66667H12.9167C12.6868 9.66667 12.5 9.47992 12.5 9.24999C12.5 8.5607 11.9393 7.99999 11.25 7.99999C11.0201 7.99999 10.8333 7.81324 10.8333 7.58331V6.74999C10.8333 6.51968 10.647 6.33331 10.4166 6.33331C10.1863 6.33331 9.99997 6.51968 9.99997 6.74999V7.58331C9.99997 8.27261 10.5607 8.83331 11.25 8.83331C11.4799 8.83331 11.6666 9.02007 11.6666 9.24999C11.6666 9.93929 12.2274 10.5 12.9166 10.5H13.75C13.9803 10.5 14.1667 10.3136 14.1667 10.0833C14.1667 9.85304 13.9803 9.66667 13.75 9.66667Z" fill="#163300"/>
<path id="Vector_3" d="M10 0.5C4.48609 0.5 0 4.98609 0 10.5C0 16.0139 4.48609 20.5 10 20.5C15.5139 20.5 20 16.0139 20 10.5C20 4.98609 15.5139 0.5 10 0.5ZM10 18.8333C5.40488 18.8333 1.66668 15.0951 1.66668 10.5C1.66668 8.50191 2.37469 6.66695 3.55141 5.22977L9.65496 11.3333H4.58332C4.35301 11.3333 4.16664 11.5197 4.16664 11.75V13.4167C4.16664 13.647 4.35301 13.8334 4.58332 13.8334H12.1549L15.2702 16.9486C13.833 18.1253 11.9981 18.8333 10 18.8333ZM16.4486 15.7702L14.5117 13.8333H15.4167C15.647 13.8333 15.8334 13.647 15.8334 13.4166V11.75C15.8334 11.5197 15.647 11.3333 15.4167 11.3333H12.0117L4.72977 4.05137C6.16695 2.87469 8.00191 2.16668 10 2.16668C14.5951 2.16668 18.3333 5.90488 18.3333 10.5C18.3333 12.4981 17.6253 14.333 16.4486 15.7702ZM14.1667 13V12.1667H15V13H14.1667Z" fill="#163300"/>
</g>
</g>
</g>
</svg>
