<svg width="20" height="21" viewBox="0 0 20 21" fill="none" xmlns="http://www.w3.org/2000/svg">
<g id="Group">
<path id="Vector" d="M5.87888 7.93161L7.06052 8.68052V7.07232L5.87888 6.32341V7.93161Z" fill="#163300"/>
<path id="Vector_2" d="M3.52536 13.9228L4.707 14.6717V13.0635L3.52536 12.3146V13.9228Z" fill="#163300"/>
<path id="Vector_3" d="M3.52536 7.93161L4.707 8.68052V7.07232L3.52536 6.32341V7.93161Z" fill="#163300"/>
<path id="Vector_4" d="M3.52536 10.9272L4.707 11.6761V10.0679L3.52536 9.31902V10.9272Z" fill="#163300"/>
<path id="Vector_5" d="M5.87888 10.9272L7.06052 11.6761V10.0679L5.87888 9.31902V10.9272Z" fill="#163300"/>
<path id="Vector_6" d="M5.87888 13.9228L7.06052 14.6717V13.0635L5.87888 12.3146V13.9228Z" fill="#163300"/>
<path id="Vector_7" d="M3.52536 16.9184L4.707 17.6673V16.0591L3.52536 15.3102V16.9184Z" fill="#163300"/>
<path id="Vector_8" d="M5.87888 4.93599L7.06052 5.6849V4.0767L5.87888 3.32779V4.93599Z" fill="#163300"/>
<path id="Vector_9" d="M5.87888 16.9184L7.06052 17.6673V16.0591L5.87888 15.3102V16.9184Z" fill="#163300"/>
<path id="Vector_10" d="M3.52536 4.93599L4.707 5.6849V4.0767L3.52536 3.32779V4.93599Z" fill="#163300"/>
<path id="Vector_11" d="M8.23236 0.510941V20.4891C9.54958 20.3717 10.5859 19.2625 10.5859 17.9153V3.08468C10.5859 1.73746 9.54958 0.628284 8.23236 0.510941Z" fill="#163300"/>
<path id="Vector_12" d="M0 3.08468V17.9153C0 19.2625 1.03628 20.3717 2.3535 20.4891V0.510941C1.03628 0.628284 0 1.73746 0 3.08468Z" fill="#163300"/>
<path id="Vector_13" d="M7.06052 2.68929V0.500031H5.87888V1.94038L7.06052 2.68929Z" fill="#163300"/>
<path id="Vector_14" d="M3.52536 18.3058V20.4999H4.707V19.0547L3.52536 18.3058Z" fill="#163300"/>
<path id="Vector_15" d="M5.87888 18.3058V20.4999H7.06052V19.0547L5.87888 18.3058Z" fill="#163300"/>
<path id="Vector_16" d="M4.707 2.68929V0.500031H3.52536V1.94038L4.707 2.68929Z" fill="#163300"/>
<path id="Vector_17" d="M19.7069 6.69312L19.5922 6.62687C19.8098 6.45449 19.8804 6.14648 19.7452 5.89281C19.5931 5.60719 19.2383 5.49906 18.9526 5.65113L18.4063 5.94215L17.0555 5.16231L18.4063 4.38247L18.9526 4.67348C19.0404 4.72024 19.1346 4.74239 19.2276 4.74239C19.4371 4.74239 19.6399 4.62965 19.7452 4.4318C19.8804 4.17813 19.8097 3.87013 19.5922 3.69775L19.7069 3.6315C19.9872 3.4697 20.0832 3.11134 19.9214 2.83111C19.7595 2.55084 19.4013 2.45486 19.121 2.61666L19.0062 2.68291C18.9657 2.4083 18.7343 2.19311 18.4471 2.1833C18.1217 2.17236 17.8525 2.42549 17.8415 2.74888L17.8203 3.36755L16.4696 4.14739V2.58783L16.9948 2.26022C17.2693 2.08893 17.3531 1.72752 17.1818 1.45295C17.0297 1.20909 16.7277 1.11628 16.4696 1.21846V1.08596C16.4696 0.762373 16.2073 0.500031 15.8837 0.500031C15.5601 0.500031 15.2977 0.762373 15.2977 1.08596V1.21846C15.0396 1.1162 14.7376 1.20905 14.5855 1.45295C14.4142 1.72752 14.498 2.08893 14.7725 2.26022L15.2977 2.58783V4.14751L13.947 3.36767L13.9259 2.749C13.9149 2.42564 13.6452 2.17213 13.3203 2.18342C13.033 2.19322 12.8016 2.40838 12.7611 2.68303L12.6463 2.61678C12.3661 2.4549 12.0078 2.551 11.846 2.83123C11.6842 3.11146 11.7801 3.46982 12.0604 3.63161L12.1751 3.69786C11.9576 3.87025 11.8869 4.17821 12.0221 4.43192C12.1275 4.62977 12.3302 4.74251 12.5397 4.74251C12.6327 4.74251 12.727 4.72032 12.8147 4.6736L13.3611 4.38259L14.7118 5.16243L13.3611 5.94226L12.8147 5.65125C12.5291 5.49918 12.1743 5.60727 12.0221 5.89293C11.887 6.14664 11.9576 6.45464 12.1751 6.62699L12.0604 6.69324C11.7801 6.85503 11.6841 7.21339 11.846 7.49362C11.9545 7.68159 12.1514 7.78667 12.3539 7.78667C12.4533 7.78667 12.5541 7.76136 12.6463 7.70807L12.7611 7.64182C12.8016 7.91643 13.033 8.13159 13.3203 8.14139C13.3271 8.14163 13.3339 8.14174 13.3406 8.14174C13.655 8.14174 13.915 7.89241 13.9258 7.57581L13.947 6.95718L15.2977 6.17734V7.73702L14.7725 8.06463C14.4979 8.23592 14.4142 8.59733 14.5855 8.8719C14.7376 9.11576 15.0396 9.20865 15.2977 9.10639V9.23885C15.2977 9.56244 15.56 9.82478 15.8836 9.82478C16.2072 9.82478 16.4696 9.56244 16.4696 9.23885V9.10654C16.5391 9.13412 16.6119 9.14779 16.6841 9.14779C16.8796 9.14779 17.0707 9.04998 17.1817 8.87193C17.353 8.59737 17.2693 8.23596 16.9948 8.06467L16.4696 7.73706V6.17738L17.8203 6.95722L17.8414 7.57585C17.8522 7.89245 18.1123 8.14182 18.4266 8.14178C18.4334 8.14178 18.4402 8.14167 18.447 8.14143C18.7342 8.13163 18.9657 7.91647 19.0061 7.64186L19.1209 7.70811C19.2132 7.76139 19.3139 7.78671 19.4133 7.78671C19.6158 7.78671 19.8128 7.68163 19.9213 7.49366C20.0832 7.21327 19.9872 6.85492 19.7069 6.69312Z" fill="#163300"/>
</g>
</svg>
