<svg width="20" height="21" viewBox="0 0 20 21" fill="none" xmlns="http://www.w3.org/2000/svg">
<g id="Pets allowed">
<path id="Vector" d="M6.26185 11.3358C5.87951 12.2462 4.55531 11.0933 4.96146 10.1269C5.33751 9.23149 6.67418 10.3543 6.26185 11.3358Z" fill="#163300"/>
<path id="Vector_2" d="M7.48535 6.70979C6.97952 7.62646 8.16902 8.91335 8.64887 8.04463C9.15424 7.12888 7.96406 5.84187 7.48535 6.70979ZM7.48535 6.70979C6.97952 7.62646 8.16902 8.91335 8.64887 8.04463C9.15424 7.12888 7.96406 5.84187 7.48535 6.70979ZM7.48535 6.70979C6.97952 7.62646 8.16902 8.91335 8.64887 8.04463C9.15424 7.12888 7.96406 5.84187 7.48535 6.70979ZM12.6566 6.70842C12.3431 6.14011 11.6377 6.4927 11.4323 7.19651C11.3081 7.6228 11.4088 8.1981 11.7997 8.30945C12.4059 8.48306 13.0394 7.40205 12.6566 6.70842ZM14.5704 9.93726C13.9853 9.93726 13.4534 10.844 13.7189 11.4743C13.9688 12.0668 14.7085 11.7925 14.9879 11.1142C15.1951 10.6106 15.0721 9.93726 14.5704 9.93726ZM14.5704 9.93726C13.9853 9.93726 13.4534 10.844 13.7189 11.4743C13.9688 12.0668 14.7085 11.7925 14.9879 11.1142C15.1951 10.6106 15.0721 9.93726 14.5704 9.93726ZM7.48535 6.70979C6.97952 7.62646 8.16902 8.91335 8.64887 8.04463C9.15424 7.12888 7.96406 5.84187 7.48535 6.70979ZM12.6566 6.70842C12.3431 6.14011 11.6377 6.4927 11.4323 7.19651C11.3081 7.6228 11.4088 8.1981 11.7997 8.30945C12.4059 8.48306 13.0394 7.40205 12.6566 6.70842ZM16.6193 3.86113C14.8488 2.09039 12.4943 1.11523 9.99023 1.11523C7.48615 1.11523 5.13165 2.09039 3.36113 3.86113C1.59039 5.63165 0.615234 7.98615 0.615234 10.4902C0.615234 12.9943 1.59039 15.3484 3.36113 17.1193C5.13165 18.8901 7.48615 19.8652 9.99023 19.8652C12.4943 19.8652 14.8488 18.8901 16.6193 17.1193C18.3901 15.3484 19.3652 12.9943 19.3652 10.4902C19.3652 7.98615 18.3901 5.63165 16.6193 3.86113ZM10.3776 6.88935C10.7098 5.74918 11.7436 5.12742 12.6516 5.38708C14.6458 5.957 14.0174 9.42456 11.918 9.42456C10.7323 9.42456 10.0074 8.15896 10.3776 6.88935ZM6.52325 6.17924C7.29275 4.78432 9.26514 5.1788 9.76387 6.88935C10.1381 8.17143 9.39583 9.42456 8.22578 9.42456C6.77227 9.42456 5.77927 7.52839 6.52325 6.17924ZM4.82483 8.81413C6.35113 8.19775 7.94861 10.157 7.27478 11.761C6.996 12.4238 6.41499 12.7596 5.81875 12.7596C3.79795 12.7596 2.98645 9.55685 4.82483 8.81413ZM13.1543 15.1708C12.6746 15.6289 11.8809 15.7317 11.3782 15.5964C10.0405 15.236 8.21995 15.652 8.01384 15.652C6.89793 15.652 6.06194 14.8903 6.30798 13.7674C6.59729 12.449 7.63664 12.5241 7.88235 11.2751C8.35876 8.84183 11.4872 8.83382 11.9656 11.2754C12.2098 12.5252 13.2467 12.449 13.5358 13.7667C13.5396 13.7667 13.7659 14.5871 13.1543 15.1708ZM14.1614 12.8967C12.2633 12.8967 11.9656 10.0475 13.7151 9.07162C14.609 8.57278 15.639 8.9042 16.032 9.83838C16.5948 11.1769 15.5592 12.8967 14.1614 12.8967ZM14.5704 9.93726C13.9853 9.93726 13.4534 10.844 13.7189 11.4743C13.9688 12.0668 14.7085 11.7925 14.9879 11.1142C15.1951 10.6106 15.0721 9.93726 14.5704 9.93726ZM11.7997 8.30945C12.4059 8.48306 13.0394 7.40205 12.6566 6.70842C12.3431 6.14011 11.6377 6.4927 11.4323 7.19651C11.3081 7.6228 11.4088 8.1981 11.7997 8.30945ZM10.8875 11.486C10.7809 10.9414 10.4938 10.558 9.86652 10.558C9.6991 10.558 9.12964 10.6231 8.96038 11.4863C8.63995 13.1153 7.55825 13.1947 7.38144 14.0025C7.25418 14.5815 8.00606 14.5831 8.18115 14.5357C10.556 13.896 12.6466 15.1982 12.4626 14.0025C12.2853 13.1932 11.2054 13.1153 10.8875 11.486ZM8.64887 8.04463C9.15424 7.12888 7.96406 5.84187 7.48535 6.70979C6.97952 7.62646 8.16902 8.91335 8.64887 8.04463ZM12.6566 6.70842C12.3431 6.14011 11.6377 6.4927 11.4323 7.19651C11.3081 7.6228 11.4088 8.1981 11.7997 8.30945C12.4059 8.48306 13.0394 7.40205 12.6566 6.70842ZM7.48535 6.70979C6.97952 7.62646 8.16902 8.91335 8.64887 8.04463C9.15424 7.12888 7.96406 5.84187 7.48535 6.70979ZM12.6566 6.70842C12.3431 6.14011 11.6377 6.4927 11.4323 7.19651C11.3081 7.6228 11.4088 8.1981 11.7997 8.30945C12.4059 8.48306 13.0394 7.40205 12.6566 6.70842ZM7.48535 6.70979C6.97952 7.62646 8.16902 8.91335 8.64887 8.04463C9.15424 7.12888 7.96406 5.84187 7.48535 6.70979Z" fill="#163300"/>
</g>
</svg>
