<svg width="20" height="21" viewBox="0 0 20 21" fill="none" xmlns="http://www.w3.org/2000/svg">
<g id="Baby seat 2" clip-path="url(#clip0_2034_4204)">
<path id="Vector" d="M8.33281 15.2125L1.92656 8.66406C0.651563 10.1875 0 12.2016 0 14.5422L8.24063 15.1875C8.27264 15.1901 8.3039 15.1985 8.33281 15.2125Z" fill="#163300"/>
<path id="Vector_2" d="M10.0781 13.625C10.3178 13.6257 10.5556 13.6674 10.7812 13.7484V1.31406C10.7812 1.10686 10.6989 0.908142 10.5524 0.761629C10.4059 0.615116 10.2072 0.532806 10 0.532806C9.7928 0.532806 9.59409 0.615116 9.44757 0.761629C9.30106 0.908142 9.21875 1.10686 9.21875 1.31406V13.8141C9.48867 13.6911 9.78154 13.6267 10.0781 13.625Z" fill="#163300"/>
<path id="Vector_3" d="M10.0781 17.2188C10.8979 17.2188 11.5625 16.5542 11.5625 15.7344C11.5625 14.9146 10.8979 14.25 10.0781 14.25C9.25833 14.25 8.59375 14.9146 8.59375 15.7344C8.59375 16.5542 9.25833 17.2188 10.0781 17.2188Z" fill="#163300"/>
<path id="Vector_4" d="M8.59375 14.2375V5.55469C5.99219 5.77031 3.84687 6.67188 2.34375 8.19844L8.4375 14.4187C8.48281 14.3562 8.53594 14.2953 8.59375 14.2375Z" fill="#163300"/>
<path id="Vector_5" d="M17.0313 12.375H17.0078C16.2236 12.3768 15.4468 12.5274 14.7188 12.8188C13.6629 13.2529 12.5448 13.5166 11.4063 13.6V14.0938C11.68 14.3166 11.8934 14.6046 12.0269 14.9314C12.1603 15.2581 12.2096 15.6132 12.1702 15.964C12.1307 16.3147 12.0038 16.65 11.8011 16.9389C11.5984 17.2279 11.3263 17.4613 11.0099 17.6178C10.6936 17.7743 10.3429 17.8488 9.99023 17.8345C9.63755 17.8202 9.2941 17.7176 8.99139 17.536C8.68869 17.3545 8.43642 17.0998 8.25775 16.7954C8.07907 16.491 7.9797 16.1466 7.96876 15.7938L0.270325 15.1875C0.553137 15.2844 1.93907 15.7922 2.56251 16.6219C3.42345 17.7703 3.43751 19.3875 3.43751 19.4031V19.6109L3.6297 19.6922C3.70939 19.725 5.61251 20.4969 10 20.4969C14.3875 20.4969 16.1281 19.8719 16.2 19.8531L16.3563 19.7969L16.3984 19.6406C16.3984 19.6266 16.7906 18.2141 17.5875 17.2594C18.3156 16.3844 19.8156 15.6281 19.8313 15.6203L20.0031 15.5344V15.3438C20.0031 14.9536 19.9262 14.5673 19.7769 14.2069C19.6275 13.8465 19.4085 13.5191 19.1325 13.2434C18.8565 12.9677 18.5289 12.7491 18.1683 12.6001C17.8078 12.4511 17.4214 12.3746 17.0313 12.375Z" fill="#163300"/>
</g>
<defs>
<clipPath id="clip0_2034_4204">
<rect width="20" height="20" fill="white" transform="translate(0 0.5)"/>
</clipPath>
</defs>
</svg>
