<svg width="20" height="21" viewBox="0 0 20 21" fill="none" xmlns="http://www.w3.org/2000/svg">
<g id="walk">
<g id="Vector">
<path fill-rule="evenodd" clip-rule="evenodd" d="M5.60088 9.15827V11.8979C5.60088 12.243 5.32105 12.5229 4.97588 12.5229C4.6307 12.5229 4.35088 12.243 4.35088 11.8979V9.00449C4.35088 8.90754 4.37343 8.81192 4.41675 8.7252C4.41675 8.7252 4.41662 8.72547 4.41688 8.72494L4.41746 8.72379L4.4187 8.72132C4.4197 8.71934 4.42105 8.71665 4.42275 8.7133C4.42616 8.7066 4.43095 8.69721 4.43709 8.68531C4.44937 8.66153 4.46705 8.62768 4.48978 8.58522C4.53521 8.50035 4.60101 8.38065 4.68438 8.23764C4.85035 7.95293 5.08953 7.56961 5.37948 7.18289C5.66672 6.79979 6.01929 6.39234 6.41586 6.07514C6.80381 5.76484 7.30233 5.48613 7.86924 5.48613H8.47666C9.05682 5.48613 9.61322 5.7166 10.0235 6.12684C10.4337 6.53707 10.6642 7.09347 10.6642 7.67363V14.7156L12.7692 18.9691C12.9223 19.2784 12.7957 19.6533 12.4863 19.8064C12.1769 19.9595 11.802 19.8329 11.6489 19.5235L9.47348 15.1279L7.77006 12.9519C7.75328 12.9304 7.73793 12.9079 7.72408 12.8845C7.40926 12.3515 7.24352 11.7438 7.24424 11.1248V7.01411C7.22857 7.02606 7.21271 7.03845 7.19664 7.0513C6.91496 7.2766 6.63469 7.5925 6.37959 7.93274C6.12721 8.26936 5.91456 8.60937 5.76429 8.86717C5.69507 8.98591 5.63985 9.08587 5.60088 9.15827Z" fill="#163300"/>
<path d="M14.3786 11.8979C14.236 11.8978 14.0965 11.8556 13.9778 11.7764L11.629 10.2658C11.5128 10.1909 11.4172 10.088 11.3511 9.96661C11.2849 9.84522 11.2502 9.70917 11.2501 9.5709V8.64512C11.25 8.60552 11.2606 8.56663 11.2808 8.53254C11.3009 8.49845 11.3299 8.4704 11.3646 8.45135C11.3993 8.4323 11.4385 8.42293 11.4781 8.42424C11.5177 8.42555 11.5562 8.43748 11.5895 8.45879L14.779 10.5725C14.9082 10.6586 15.0063 10.7841 15.0587 10.9303C15.1112 11.0765 15.1151 11.2357 15.07 11.3844C15.025 11.533 14.9332 11.6632 14.8084 11.7557C14.6836 11.8482 14.5324 11.898 14.377 11.8979H14.3786Z" fill="#163300"/>
<path d="M6.71533 19.7764C6.60291 19.7765 6.49201 19.7504 6.39144 19.7002C6.29088 19.6499 6.20342 19.5769 6.13603 19.4869C5.89619 19.1674 5.97978 18.8158 6.28056 18.4744L8.62236 15.558C8.6546 15.5339 8.69153 15.5167 8.73078 15.5077C8.77002 15.4986 8.81073 15.4978 8.85029 15.5054C8.88985 15.513 8.9274 15.5287 8.96052 15.5516C8.99365 15.5746 9.02163 15.6041 9.04267 15.6385C9.10361 15.7377 9.1747 15.8592 9.24541 15.9936C9.45009 16.3822 9.47978 16.6229 9.17978 16.9975C8.86728 17.3881 7.14853 19.6318 7.14853 19.6318C7.04619 19.7482 6.86611 19.7764 6.71533 19.7764Z" fill="#163300"/>
<path fill-rule="evenodd" clip-rule="evenodd" d="M8.27978 3.21738C8.27978 2.24571 9.06748 1.45801 10.0392 1.45801C11.0108 1.45801 11.7985 2.24571 11.7985 3.21738C11.7985 4.18906 11.0108 4.97676 10.0392 4.97676C9.06748 4.97676 8.27978 4.18906 8.27978 3.21738Z" fill="#163300"/>
</g>
</g>
</svg>
