<svg width="20" height="21" viewBox="0 0 20 21" fill="none" xmlns="http://www.w3.org/2000/svg">
<g id="Chat">
<path id="Vector" d="M11.8513 2.89816C10.6093 2.13215 9.1375 1.71094 7.61719 1.71094C3.47867 1.71094 0 4.79426 0 8.74219C0 10.1264 0.43 11.4533 1.2468 12.5993L0.105781 16.1815C-0.0147656 16.5599 0.268672 16.9453 0.66418 16.9453C0.754609 16.9453 0.845625 16.9244 0.929609 16.8817L4.39961 15.1173C4.54012 15.1779 4.68238 15.2341 4.82609 15.2864C4.0227 14.0324 3.59375 12.593 3.59375 11.0859C3.59375 6.59777 7.37023 3.14734 11.8513 2.89816Z" fill="#163300"/>
<path id="Vector_2" d="M18.7532 14.943C19.57 13.797 20 12.4701 20 11.0859C20 7.13656 16.5198 4.05469 12.3828 4.05469C8.2443 4.05469 4.76562 7.13801 4.76562 11.0859C4.76562 15.0353 8.24578 18.1172 12.3828 18.1172C13.4929 18.1172 14.5989 17.891 15.6002 17.461L19.0704 19.2254C19.281 19.3325 19.5354 19.3026 19.7154 19.1496C19.8954 18.9966 19.966 18.7504 19.8943 18.5253L18.7532 14.943ZM10 11.6719C9.67641 11.6719 9.41406 11.4095 9.41406 11.0859C9.41406 10.7623 9.67641 10.5 10 10.5C10.3236 10.5 10.5859 10.7623 10.5859 11.0859C10.5859 11.4095 10.3236 11.6719 10 11.6719ZM12.3438 11.6719C12.0202 11.6719 11.7578 11.4095 11.7578 11.0859C11.7578 10.7623 12.0202 10.5 12.3438 10.5C12.6673 10.5 12.9297 10.7623 12.9297 11.0859C12.9297 11.4095 12.6673 11.6719 12.3438 11.6719ZM14.6875 11.6719C14.3639 11.6719 14.1016 11.4095 14.1016 11.0859C14.1016 10.7623 14.3639 10.5 14.6875 10.5C15.0111 10.5 15.2734 10.7623 15.2734 11.0859C15.2734 11.4095 15.0111 11.6719 14.6875 11.6719Z" fill="#163300"/>
</g>
</svg>
