<svg width="20" height="21" viewBox="0 0 20 21" fill="none" xmlns="http://www.w3.org/2000/svg">
<g id="musical-notes">
<path id="Vector" d="M16.4766 1.95986C16.353 1.86457 16.2089 1.79925 16.0557 1.76902C15.9025 1.73879 15.7444 1.74448 15.5938 1.78564L7.80789 3.87861C7.53774 3.95117 7.29935 4.11145 7.13022 4.33426C6.96108 4.55706 6.87078 4.82975 6.87352 5.10947V13.9376C6.87352 14.2009 6.7032 14.4282 6.43953 14.5169L6.43484 14.5188L4.40359 15.222C3.62664 15.4817 3.12352 16.2032 3.12352 17.0591C3.12067 17.4072 3.20164 17.7509 3.35957 18.0611C3.51751 18.3713 3.74778 18.639 4.03094 18.8415C4.39558 19.1064 4.83454 19.2494 5.28523 19.2501C5.52102 19.2497 5.75518 19.211 5.97859 19.1356L5.99344 19.1306L6.84656 18.8204C7.21664 18.6969 7.53876 18.4606 7.76776 18.1447C7.99677 17.8288 8.12117 17.4492 8.12352 17.0591V8.77783C8.12352 8.49306 8.30984 8.26181 8.59852 8.18916L8.60672 8.18681L15.4282 6.36494C15.4513 6.35899 15.4754 6.35838 15.4987 6.36317C15.522 6.36795 15.5439 6.378 15.5628 6.39255C15.5816 6.40709 15.5969 6.42575 15.6074 6.4471C15.6179 6.46845 15.6234 6.49192 15.6235 6.51572V12.0599C15.6235 12.3235 15.4575 12.5435 15.1895 12.6333L15.1798 12.6368L13.1919 13.3442C12.8053 13.4714 12.4692 13.7182 12.2322 14.0491C11.9952 14.3799 11.8696 14.7775 11.8735 15.1845C11.87 15.5336 11.9507 15.8785 12.1086 16.1899C12.2666 16.5013 12.4972 16.7701 12.7809 16.9735C13.0588 17.1744 13.3809 17.3053 13.7201 17.3553C14.0592 17.4053 14.4054 17.3728 14.7294 17.2606L14.7434 17.256L15.5966 16.9454C15.9666 16.8219 16.2887 16.5857 16.5177 16.2699C16.7467 15.9541 16.8711 15.5746 16.8735 15.1845V2.76572C16.8744 2.60982 16.839 2.45586 16.7701 2.31601C16.7012 2.17615 16.6007 2.05422 16.4766 1.95986Z" fill="#163300"/>
</g>
</svg>
