<svg width="190" height="149" viewBox="0 0 190 149" fill="none" xmlns="http://www.w3.org/2000/svg">
<path opacity="0.1" d="M261 220C309.049 171.951 309.049 94.0488 261 46C212.951 -2.04879 135.049 -2.04877 87 46C38.9512 94.0488 38.9512 171.951 87 220C135.049 268.049 212.951 268.049 261 220Z" fill="#F5FDF0" stroke="#9FE870" stroke-width="4" stroke-linecap="round" stroke-linejoin="round"/>
<path opacity="0.1" d="M244.946 203.946C284.128 164.764 284.128 101.236 244.946 62.0539C205.764 22.8715 142.236 22.8715 103.054 62.054C63.8715 101.236 63.8715 164.764 103.054 203.946C142.236 243.128 205.764 243.128 244.946 203.946Z" fill="#F5FDF0" stroke="#9FE870" stroke-width="7" stroke-linecap="round" stroke-linejoin="round"/>
<path opacity="0.15" d="M173.999 210.597C216.855 210.597 251.597 175.856 251.597 133C251.597 90.1439 216.855 55.4023 173.999 55.4023C131.143 55.4023 96.4019 90.1439 96.4019 133C96.4019 175.856 131.143 210.597 173.999 210.597Z" fill="#F5FDF0" stroke="#9FE870" stroke-width="10" stroke-linecap="round" stroke-linejoin="round"/>
<path opacity="0.2" d="M173.999 188.443C204.62 188.443 229.443 163.62 229.443 133C229.443 102.379 204.62 77.5566 173.999 77.5566C143.379 77.5566 118.556 102.379 118.556 133C118.556 163.62 143.379 188.443 173.999 188.443Z" fill="#F5FDF0" stroke="#9FE870" stroke-width="13" stroke-linecap="round" stroke-linejoin="round"/>
<path opacity="0.1" d="M173.999 283.544C257.143 283.544 324.543 216.143 324.543 133C324.543 49.8565 257.143 -17.5444 173.999 -17.5444C90.856 -17.5444 23.4551 49.8565 23.4551 133C23.4551 216.143 90.856 283.544 173.999 283.544Z" fill="#F5FDF0" stroke="#9FE870" stroke-width="4" stroke-linecap="round" stroke-linejoin="round"/>
<path d="M98.5667 74.3628L103.453 97.4288H108.547L113.433 74.3628H98.5667Z" fill="#163300"/>
<path d="M130.266 69.1945L128.521 63.1489L126.945 64.6642C125.684 65.8771 123.848 66.2846 122.196 65.7081C119.642 64.8168 116.803 64.13 113.765 63.6931C111.293 63.3388 108.688 63.1489 106 63.1489C103.311 63.1489 100.707 63.3388 98.2347 63.6931C95.1967 64.1298 92.3578 64.8166 89.8034 65.7081C88.1512 66.2848 86.3154 65.8773 85.054 64.6642L83.4784 63.1489L81.7339 69.1945V74.4726L99.8849 76.9641H112.114L130.265 74.4726V69.1945H130.266Z" fill="#163300"/>
<path d="M116.441 69.7933L115.826 74.0633C115.694 74.9806 115.376 75.8312 114.917 76.5798C113.746 78.4833 111.645 79.7259 109.288 79.7259H102.712C100.355 79.7259 98.254 78.4833 97.0835 76.5798C96.6238 75.8312 96.3062 74.9806 96.174 74.0633L95.5587 69.7933C95.29 67.9222 95.8675 66.1478 96.9821 64.828C97.5966 64.1003 98.4766 63.6503 99.4222 63.5368C101.536 63.2833 103.738 63.1489 106 63.1489C108.262 63.1489 110.464 63.2833 112.578 63.5368C113.524 63.6503 114.403 64.1004 115.018 64.828C116.133 66.1478 116.71 67.9222 116.441 69.7933Z" fill="#5B5C5A"/>
<path d="M115.421 73.0198C114.184 75.0309 111.964 76.3439 109.474 76.3439H102.526C100.036 76.3439 97.8159 75.0309 96.5793 73.0198C96.1812 72.3718 95.8863 71.6507 95.7151 70.8784L96.174 74.0629C96.3062 74.9802 96.6238 75.8308 97.0836 76.5793C98.254 78.4829 100.355 79.7255 102.712 79.7255H109.288C111.645 79.7255 113.746 78.4829 114.917 76.5793C115.376 75.8308 115.694 74.9802 115.826 74.0629L116.285 70.8784C116.114 71.6507 115.819 72.372 115.421 73.0198Z" fill="#5B5C5A"/>
<path d="M106 73.817C107.524 73.817 108.759 72.5818 108.759 71.0579C108.759 69.5341 107.524 68.2988 106 68.2988C104.476 68.2988 103.241 69.5341 103.241 71.0579C103.241 72.5818 104.476 73.817 106 73.817Z" fill="#5B5C5A"/>
<path d="M106 40.3667C89.8742 40.3667 76.8018 53.4392 76.8018 69.565C76.8018 85.6908 89.8742 98.7631 106 98.7631C122.126 98.7631 135.198 85.6907 135.198 69.565C135.198 53.4393 122.126 40.3667 106 40.3667ZM106 92.505C93.3306 92.505 83.0601 82.2344 83.0601 69.5648C83.0601 56.8952 93.3306 46.6248 106 46.6248C118.669 46.6248 128.94 56.8954 128.94 69.565C128.94 82.2346 118.669 92.505 106 92.505Z" fill="#5B5C5A"/>
<path d="M106 94.6927C90.5586 94.6927 77.9188 82.7057 76.8736 67.5298C76.8272 68.2023 76.8018 68.8807 76.8018 69.565C76.8018 85.6908 89.8742 98.7633 106 98.7633C122.126 98.7633 135.198 85.6906 135.198 69.565C135.198 68.8806 135.173 68.2023 135.127 67.5298C134.081 82.7057 121.441 94.6927 106 94.6927Z" fill="#5B5C5A"/>
<path d="M73.6836 74.8332L69.0784 65.5263C67.1706 61.6708 68.6499 56.9967 72.4286 54.9409L73.1596 54.5432L76.5331 51.4245C78.125 49.9529 80.6958 50.5136 81.5302 52.5146L84.697 59.9174C84.7701 60.088 85.0081 60.0989 85.0961 59.9353L86.9073 56.5722C87.1502 56.1207 87.7124 55.9505 88.1649 56.1915L89.3208 56.8071C91.2391 57.8289 92.0832 60.1293 91.2809 62.1493L80.4789 89.3503L70.5165 85.9291L73.6836 74.8332Z" fill="#FDD6C8"/>
<path d="M72.4284 54.941L73.1594 54.5433L73.3816 54.3379C71.9533 56.6204 71.7127 59.5636 72.9884 62.1419L77.3896 71.0366C77.5207 71.3018 77.5482 71.6063 77.4662 71.8908L73.0406 86.7961L70.5161 85.9292L73.6832 74.8335L69.078 65.5266C67.1704 61.6708 68.6497 56.9968 72.4284 54.941Z" fill="#FDCAB8"/>
<path d="M70.134 80.9916L62.0495 104.28C61.8883 104.744 62.134 105.251 62.5984 105.412L74.6144 109.584C75.0788 109.745 75.586 109.499 75.7472 109.035L83.8317 85.7469C84.0007 85.26 83.743 84.7282 83.2561 84.5592L71.3214 80.4162C70.8347 80.2471 70.3029 80.5047 70.134 80.9916Z" fill="#CAF3B0"/>
<path d="M70.134 80.9917C70.3029 80.5048 70.8347 80.2471 71.3216 80.4161L75.1879 81.7583C74.7345 81.6008 74.2299 81.8679 74.0608 82.3548L65.6843 106.484L62.5984 105.413C62.134 105.251 61.8883 104.744 62.0495 104.28L70.134 80.9917Z" fill="#CAF3B0"/>
<path d="M138.316 74.8332L142.922 65.5263C144.829 61.6708 143.35 56.9967 139.571 54.9409L138.84 54.5432L135.467 51.4245C133.875 49.9529 131.304 50.5136 130.47 52.5146L127.303 59.9174C127.23 60.088 126.992 60.0989 126.904 59.9353L125.093 56.5722C124.85 56.1207 124.288 55.9505 123.835 56.1915L122.679 56.8071C120.761 57.8289 119.917 60.1293 120.719 62.1493L131.521 89.3503L141.484 85.9288L138.316 74.8332Z" fill="#FDD6C8"/>
<path d="M139.571 54.941L138.841 54.5433L138.618 54.3379C140.047 56.6204 140.287 59.5636 139.012 62.1419L134.61 71.0366C134.479 71.3018 134.452 71.6063 134.534 71.8908L138.959 86.7961L141.484 85.9292L138.317 74.8335L142.922 65.5266C144.829 61.6708 143.35 56.9968 139.571 54.941Z" fill="#FDCAB8"/>
<path d="M141.866 80.9916L149.951 104.28C150.112 104.744 149.866 105.251 149.402 105.412L137.386 109.584C136.921 109.745 136.414 109.499 136.253 109.035L128.168 85.7469C127.999 85.26 128.257 84.7282 128.744 84.5592L140.679 80.4162C141.165 80.2471 141.697 80.5047 141.866 80.9916Z" fill="#CAF3B0"/>
<path d="M141.866 80.9917C141.697 80.5048 141.165 80.2471 140.678 80.4161L136.812 81.7583C137.265 81.6008 137.77 81.8679 137.939 82.3548L146.315 106.484L149.401 105.413C149.866 105.251 150.112 104.744 149.95 104.28L141.866 80.9917Z" fill="#CAF3B0"/>
</svg>
