<svg width="121" height="106" viewBox="0 0 121 106" fill="none" xmlns="http://www.w3.org/2000/svg">
<path d="M112.698 6.26709H15.5807C10.9957 6.26709 7.27881 9.98974 7.27881 14.5819V75.8365C7.27881 80.4286 10.9957 84.1513 15.5807 84.1513H112.698C117.283 84.1513 121 80.4286 121 75.8365V14.5819C121 9.98974 117.283 6.26709 112.698 6.26709Z" fill="#9FE870"/>
<path d="M4.6253 5.36895C4.43084 5.36813 4.24448 5.29081 4.10642 5.15366L2.7722 3.82478C2.63262 3.68498 2.5542 3.49538 2.5542 3.29768C2.5542 3.09998 2.63262 2.91038 2.7722 2.77058C2.91177 2.63079 3.10108 2.55225 3.29847 2.55225C3.49586 2.55225 3.68518 2.63079 3.82476 2.77058L5.15157 4.10689C5.28963 4.24598 5.36712 4.43415 5.36712 4.63027C5.36712 4.8264 5.28963 5.01456 5.15157 5.15366C5.08231 5.22247 5.00017 5.27689 4.90986 5.31384C4.81954 5.35078 4.72285 5.36951 4.6253 5.36895Z" fill="#9FE870"/>
<path d="M2.61658 10.0312H0.74124C0.544651 10.0312 0.356113 9.95295 0.217104 9.81373C0.0780942 9.6745 0 9.48567 0 9.28878C0 9.09188 0.0780942 8.90305 0.217104 8.76383C0.356113 8.6246 0.544651 8.54639 0.74124 8.54639H2.61658C2.81317 8.54639 3.0017 8.6246 3.14071 8.76383C3.27972 8.90305 3.35782 9.09188 3.35782 9.28878C3.35782 9.48567 3.27972 9.6745 3.14071 9.81373C3.0017 9.95295 2.81317 10.0312 2.61658 10.0312Z" fill="#9FE870"/>
<path d="M9.34707 3.36447C9.15914 3.36493 8.97806 3.29389 8.84045 3.16571C8.70284 3.03754 8.61898 2.8618 8.60583 2.67404L8.4724 0.795796C8.46534 0.698254 8.4776 0.600284 8.50847 0.507499C8.53933 0.414715 8.58819 0.328948 8.65224 0.255134C8.7163 0.181321 8.79429 0.120912 8.88173 0.0773758C8.96917 0.0338393 9.06433 0.00803442 9.16176 0.0014443C9.35723 -0.0107798 9.54959 0.0549689 9.69681 0.184335C9.84403 0.3137 9.93414 0.496162 9.94747 0.691862L10.0883 2.57011C10.0954 2.66765 10.0831 2.76563 10.0522 2.85842C10.0214 2.9512 9.97252 3.03697 9.90846 3.11078C9.8444 3.1846 9.76642 3.24501 9.67898 3.28854C9.59154 3.33208 9.49637 3.35788 9.39895 3.36447H9.34707Z" fill="#9FE870"/>
<path d="M72.4341 76.1411L102.254 106V76.1411H72.4341Z" fill="#9FE870"/>
<path d="M80.6099 63.0599L79.1274 56.757C78.753 55.1002 78.753 53.3805 79.1274 51.7236L81.188 42.7481C82.0311 38.9206 81.5746 34.9208 79.8908 31.3826C78.2071 27.8444 75.3924 24.9703 71.8929 23.2158C71.9586 23.0507 72.0155 22.8822 72.0634 22.711C72.185 22.1665 72.1984 21.6033 72.1028 21.0537C72.0072 20.504 71.8044 19.9785 71.506 19.5074C71.2076 19.0362 70.8195 18.6285 70.3638 18.3075C69.9081 17.9865 69.3937 17.7586 68.8501 17.6368C68.3064 17.5149 67.7441 17.5015 67.1953 17.5972C66.6465 17.693 66.1219 17.8961 65.6514 18.195C65.181 18.4938 64.7739 18.8826 64.4534 19.339C64.1329 19.7954 63.9054 20.3105 63.7837 20.855C63.7469 21.0286 63.7246 21.2049 63.717 21.3821C59.805 21.4741 56.0355 22.8704 53.0052 25.35C49.9749 27.8296 47.8572 31.2508 46.9872 35.0718L44.9784 44.0547C44.6094 45.7087 43.8749 47.2587 42.8288 48.5907L38.8336 53.6761C38.4428 54.175 38.1844 54.7647 38.0826 55.3905C37.9807 56.0163 38.0387 56.6577 38.251 57.2551C38.4634 57.8524 38.8232 58.3861 39.2971 58.8066C39.7709 59.2271 40.3433 59.5206 40.9609 59.6598L76.1698 67.5588C76.7853 67.692 77.4244 67.6676 78.028 67.4877C78.6315 67.3079 79.18 66.9784 79.6227 66.5299C80.0654 66.0814 80.3879 65.5282 80.5605 64.9217C80.733 64.3151 80.75 63.6748 80.6099 63.0599Z" fill="white"/>
<path d="M54.0216 65.0055C53.7538 64.9463 53.4755 64.9543 53.2115 65.0285C52.9475 65.1028 52.7058 65.2411 52.5079 65.4313C52.31 65.6214 52.1619 65.8575 52.0769 66.1186C51.9918 66.3797 51.9724 66.6579 52.0202 66.9283C52.2224 68.1212 52.7745 69.2268 53.6062 70.1044C54.4379 70.982 55.5116 71.5918 56.6905 71.8561C57.8694 72.1204 59.1002 72.0273 60.2261 71.5887C61.352 71.1501 62.3221 70.3857 63.0128 69.393C63.1706 69.1693 63.271 68.9101 63.3053 68.6383C63.3395 68.3666 63.3064 68.0905 63.209 67.8346C63.1116 67.5786 62.9529 67.3505 62.7468 67.1705C62.5406 66.9904 62.2934 66.8639 62.027 66.8021L54.0216 65.0055Z" fill="white"/>
<path d="M26.9811 52.5107C26.7974 52.5121 26.6163 52.4673 26.4544 52.3803C26.2926 52.2934 26.155 52.1672 26.0545 52.0132C22.5536 46.76 21.2795 40.3291 22.5125 34.1351C23.7455 27.941 27.3846 22.4912 32.6293 18.9843C32.8751 18.8209 33.1756 18.7619 33.4647 18.8204C33.7538 18.8789 34.0079 19.05 34.1711 19.2961C34.3343 19.5422 34.3931 19.8432 34.3348 20.1328C34.2764 20.4223 34.1055 20.6768 33.8598 20.8403C29.1119 24.0252 25.8205 28.9676 24.7086 34.5815C23.5967 40.1955 24.7553 46.0219 27.9299 50.7809C28.0938 51.0261 28.1539 51.3264 28.0969 51.616C28.04 51.9055 27.8706 52.1605 27.626 52.3251C27.4348 52.4511 27.2099 52.5158 26.9811 52.5107Z" fill="white"/>
<path d="M31.688 49.348C31.5059 49.3468 31.3268 49.3008 31.1665 49.2141C31.0062 49.1274 30.8697 49.0025 30.7689 48.8506C28.1042 44.8487 27.1345 39.9513 28.0726 35.2338C29.0107 30.5164 31.78 26.3648 35.7723 23.6909C35.8939 23.6095 36.0304 23.5529 36.174 23.5243C36.3175 23.4958 36.4652 23.4958 36.6087 23.5244C36.7522 23.553 36.8887 23.6096 37.0104 23.6911C37.132 23.7725 37.2365 23.8772 37.3178 23.999C37.399 24.1209 37.4556 24.2576 37.4841 24.4013C37.5126 24.5451 37.5126 24.693 37.484 24.8368C37.4555 24.9805 37.3989 25.1172 37.3176 25.239C37.2363 25.3609 37.1318 25.4655 37.0101 25.5469C33.506 27.889 31.0744 31.5294 30.25 35.6671C29.4257 39.8048 30.2763 44.1011 32.6146 47.6108C32.7786 47.8559 32.8387 48.1563 32.7817 48.4458C32.7247 48.7354 32.5553 48.9904 32.3107 49.1549C32.1263 49.2785 31.9099 49.3456 31.688 49.348Z" fill="white"/>
<path d="M36.4023 46.193C36.2206 46.194 36.0415 46.1497 35.881 46.0642C35.7206 45.9787 35.5839 45.8546 35.4832 45.703C34.575 44.341 33.9439 42.8131 33.626 41.2065C33.3081 39.6 33.3096 37.9464 33.6304 36.3405C33.9512 34.7345 34.5851 33.2077 35.4957 31.8474C36.4064 30.487 37.5759 29.3199 38.9374 28.4127C39.1822 28.2605 39.4764 28.2093 39.7581 28.2701C40.0398 28.3308 40.2869 28.4987 40.4475 28.7384C40.608 28.9781 40.6693 29.2708 40.6185 29.5549C40.5677 29.839 40.4088 30.0923 40.1753 30.2613C39.0586 31.0079 38.0997 31.9676 37.3533 33.0854C36.607 34.2033 36.0879 35.4575 35.8257 36.7763C35.5634 38.0951 35.5631 39.4528 35.8249 40.7718C36.0866 42.0907 36.6052 43.3451 37.3511 44.4632C37.5132 44.709 37.5721 45.0088 37.5152 45.2977C37.4584 45.5867 37.2903 45.8416 37.0472 46.0074C36.8561 46.1334 36.6311 46.1982 36.4023 46.193Z" fill="white"/>
<path d="M91.0836 68.168C90.8349 68.1674 90.5937 68.0834 90.3984 67.9293C90.203 67.7753 90.0649 67.5601 90.006 67.3182C89.9471 67.0763 89.9709 66.8216 90.0735 66.5948C90.1761 66.368 90.3517 66.1822 90.5721 66.067C95.6506 63.439 99.4793 58.8989 101.217 53.4446C102.954 47.9903 102.458 42.0683 99.8376 36.9802C99.7579 36.8496 99.706 36.7039 99.6851 36.5523C99.6642 36.4007 99.6746 36.2464 99.7159 36.099C99.7572 35.9516 99.8283 35.8144 99.9249 35.6958C100.022 35.5772 100.142 35.4798 100.277 35.4097C100.413 35.3396 100.562 35.2984 100.715 35.2885C100.867 35.2786 101.02 35.3002 101.164 35.3522C101.307 35.4041 101.439 35.4852 101.55 35.5903C101.661 35.6954 101.749 35.8223 101.809 35.9631C103.241 38.7435 104.111 41.779 104.371 44.8964C104.631 48.0138 104.275 51.1519 103.324 54.1316C102.373 57.1112 100.845 59.8739 98.827 62.2619C96.8094 64.65 94.3419 66.6165 91.5654 68.0492C91.4151 68.1228 91.2508 68.1633 91.0836 68.168Z" fill="white"/>
<path d="M88.4817 63.1271C88.2331 63.1265 87.9919 63.0425 87.7966 62.8884C87.6012 62.7344 87.4631 62.5192 87.4042 62.2773C87.3453 62.0354 87.3691 61.7807 87.4717 61.5539C87.5743 61.3271 87.7499 61.1413 87.9703 61.0261C89.8252 60.0684 91.4733 58.7538 92.8205 57.1576C94.1677 55.5613 95.1874 53.7148 95.8215 51.7235C96.4555 49.7322 96.6914 47.6352 96.5157 45.5526C96.3399 43.4699 95.7559 41.4423 94.7971 39.5859C94.6615 39.323 94.6356 39.017 94.7253 38.7351C94.815 38.4531 95.0128 38.2184 95.2752 38.0826C95.5377 37.9467 95.8433 37.9208 96.1247 38.0106C96.4062 38.1004 96.6406 38.2986 96.7762 38.5614C97.8687 40.6777 98.5341 42.9889 98.7342 45.3629C98.9342 47.7368 98.6652 50.1271 97.9424 52.3968C97.2195 54.6666 96.0571 56.7714 94.5215 58.5909C92.986 60.4105 91.1074 61.909 88.9932 63.0009C88.8359 63.0851 88.6601 63.1285 88.4817 63.1271Z" fill="white"/>
<path d="M85.8801 58.086C85.6323 58.0819 85.393 57.9957 85.1994 57.8407C85.0059 57.6858 84.8692 57.4709 84.8107 57.2298C84.7522 56.9886 84.7752 56.7349 84.8762 56.5083C84.9772 56.2817 85.1504 56.095 85.3686 55.9776C86.562 55.3625 87.6226 54.5177 88.4896 53.4916C89.3566 52.4654 90.0131 51.2781 90.4214 49.9976C90.8297 48.717 90.9818 47.3684 90.869 46.0289C90.7562 44.6894 90.3808 43.3854 89.7642 42.1914C89.6285 41.9285 89.6027 41.6225 89.6924 41.3405C89.782 41.0586 89.9798 40.8239 90.2423 40.688C90.5047 40.5522 90.8103 40.5263 91.0918 40.6161C91.3733 40.7059 91.6076 40.904 91.7433 41.1669C93.2518 44.1071 93.534 47.5266 92.5279 50.675C91.5218 53.8234 89.3095 56.4433 86.3767 57.9598C86.223 58.0392 86.0531 58.0824 85.8801 58.086Z" fill="white"/>
</svg>
