<svg width="249" height="149" viewBox="0 0 249 149" fill="none" xmlns="http://www.w3.org/2000/svg">
<g opacity="0.5">
<g opacity="0.05">
<path d="M25.0385 92.9999C25.0385 10.8641 91.8635 -55.9609 173.999 -55.9609C256.14 -55.9609 322.971 10.8589 322.971 92.9999C322.971 175.141 256.146 241.966 174.005 241.966C91.8635 241.966 25.0385 175.136 25.0385 92.9999Z" fill="#F5FDF0" stroke="#9FE870"/>
</g>
<g opacity="0.05">
<path d="M52.5196 93.0001C52.5196 26.016 107.015 -28.4795 173.999 -28.4795C240.983 -28.4795 295.479 26.016 295.479 93.0001C295.479 159.984 240.983 214.48 173.999 214.48C107.015 214.48 52.5196 159.984 52.5196 93.0001Z" fill="#F5FDF0" stroke="#9FE870"/>
</g>
<g opacity="0.05">
<path d="M76.0163 92.9998C76.0163 38.9741 119.968 -4.9834 173.999 -4.9834C228.025 -4.9834 271.983 38.9741 271.983 92.9998C271.983 147.025 228.025 190.983 173.999 190.983C119.974 190.983 76.0163 147.025 76.0163 92.9998Z" fill="#F5FDF0" stroke="#9FE870"/>
</g>
<g opacity="0.1">
<path d="M99.5442 92.9999C99.5442 51.9485 132.943 18.5449 173.999 18.5449C215.051 18.5449 248.454 51.9486 248.454 92.9999C248.454 134.051 215.051 167.455 173.999 167.455C132.948 167.455 99.5442 134.051 99.5442 92.9999Z" fill="#F5FDF0" stroke="#9FE870"/>
</g>
<g opacity="0.15">
<path d="M122.491 93.0004C122.491 64.6009 145.6 41.4922 173.999 41.4922C202.399 41.4922 225.508 64.6009 225.508 93.0004C225.508 121.4 202.399 144.509 173.999 144.509C145.6 144.509 122.491 121.4 122.491 93.0004Z" fill="#F5FDF0" stroke="#9FE870"/>
</g>
<path opacity="0.1" d="M261 180C309.049 131.951 309.049 54.0488 261 5.99999C212.951 -42.0488 135.049 -42.0488 87 6C38.9512 54.0488 38.9512 131.951 87 180C135.049 228.049 212.951 228.049 261 180Z" fill="#F5FDF0" stroke="#9FE870" stroke-width="4" stroke-linecap="round" stroke-linejoin="round"/>
<path opacity="0.1" d="M244.946 163.946C284.129 124.764 284.129 61.2364 244.946 22.0539C205.764 -17.1285 142.236 -17.1285 103.054 22.054C63.8716 61.2364 63.8716 124.764 103.054 163.946C142.236 203.128 205.764 203.128 244.946 163.946Z" fill="#F5FDF0" stroke="#9FE870" stroke-width="7" stroke-linecap="round" stroke-linejoin="round"/>
<path opacity="0.15" d="M173.999 170.597C216.855 170.597 251.597 135.856 251.597 92.9998C251.597 50.1439 216.855 15.4023 173.999 15.4023C131.143 15.4023 96.4019 50.1439 96.4019 92.9998C96.4019 135.856 131.143 170.597 173.999 170.597Z" fill="#F5FDF0" stroke="#9FE870" stroke-width="10" stroke-linecap="round" stroke-linejoin="round"/>
<path opacity="0.2" d="M173.999 148.443C204.62 148.443 229.443 123.62 229.443 93C229.443 62.3795 204.62 37.5566 173.999 37.5566C143.379 37.5566 118.556 62.3795 118.556 93C118.556 123.62 143.379 148.443 173.999 148.443Z" fill="#F5FDF0" stroke="#9FE870" stroke-width="13" stroke-linecap="round" stroke-linejoin="round"/>
<path opacity="0.1" d="M173.999 243.544C257.142 243.544 324.543 176.144 324.543 93.0003C324.543 9.85699 257.142 -57.5439 173.999 -57.5439C90.8559 -57.5439 23.455 9.85699 23.455 93.0003C23.455 176.144 90.8559 243.544 173.999 243.544Z" fill="#F5FDF0" stroke="#9FE870" stroke-width="4" stroke-linecap="round" stroke-linejoin="round"/>
</g>
<path d="M84.8844 134.482H231.886L225.917 112.51H84.8844V134.482Z" fill="#657285"/>
<path d="M151.84 91.0029C151.844 91.0029 151.849 91.0029 151.854 91.0042C151.849 91.0029 151.845 91.0029 151.84 91.0029Z" fill="#131F2D"/>
<path d="M194.064 107.569C191.86 107.487 189.57 107.442 187.19 107.442C187.19 107.442 174.024 96.0541 158.792 92.1787C174.452 96.032 194.064 107.569 194.064 107.569Z" fill="#131F2D"/>
<path d="M74.8103 116.117V103.544C74.8103 103.544 89.6114 101.858 98.5615 98.626C119.282 91.0393 130.419 90.8994 149.236 90.8994C163.523 90.8994 177.993 100.435 184.133 105.026C186.203 106.574 188.711 107.429 191.299 107.486C213.9 107.979 227.87 112.476 234.809 115.511C238.061 116.934 240.154 120.145 240.154 123.685V127.918C240.621 127.918 241 128.295 241 128.761V135.785C241 136.251 240.621 136.629 240.154 136.629H230.498H226.666C228.002 134.242 228.74 131.478 228.665 128.534C228.454 120.15 221.584 113.323 213.172 113.138C204.249 112.941 196.954 120.09 196.954 128.939C196.954 131.731 197.684 134.352 198.958 136.629H115.978C117.314 134.242 118.052 131.478 117.977 128.534C117.766 120.15 110.896 113.323 102.484 113.138C93.561 112.941 86.2665 120.09 86.2665 128.939C86.2665 131.731 86.9956 134.352 88.2703 136.629H84.957C73.4903 136.629 71.8653 124.941 71.7577 119.211C71.7281 117.511 73.1041 116.117 74.8103 116.117Z" fill="#9FE870"/>
<path d="M156.501 93.1698C169.593 96.472 183.63 107.757 183.63 107.757L146.473 106.965C145.015 106.934 143.703 106.079 143.09 104.761L137.396 92.5146H151.173C152.97 92.5146 154.76 92.7302 156.501 93.1698Z" fill="#131F2D"/>
<path d="M135.211 92.7959L140.428 104.707C140.829 105.623 140.156 106.647 139.153 106.648C133.889 106.65 120.068 106.456 112.112 104.469C110.201 103.992 109.56 101.595 110.981 100.235C114.214 97.1445 121.244 92.7959 135.211 92.7959Z" fill="#131F2D"/>
<path d="M239.189 119.646H233.759C233.759 119.646 224.881 111.386 210.634 109.045C210.634 109.045 236.954 111.936 239.189 119.646Z" fill="#E4F9D5"/>
<path d="M74.8106 116.117H76.2477C77.0528 116.117 77.7872 115.658 78.1312 114.932C78.9617 113.18 80.7861 109.852 83.5855 107.487C84.6692 106.571 84.0202 104.808 82.5999 104.808H74.8106V116.117Z" fill="#E4F9D5"/>
<path d="M146.083 110.462H153.305C153.703 110.462 154.027 110.139 154.027 109.742C154.027 109.344 153.703 109.021 153.305 109.021H146.083C145.684 109.021 145.36 109.344 145.36 109.742C145.36 110.139 145.683 110.462 146.083 110.462Z" fill="#131F2D"/>
<path d="M114.155 110.462H121.377C121.775 110.462 122.099 110.139 122.099 109.742C122.099 109.344 121.775 109.021 121.377 109.021H114.155C113.756 109.021 113.432 109.344 113.432 109.742C113.433 110.139 113.756 110.462 114.155 110.462Z" fill="#131F2D"/>
<path d="M120.27 115.134H185.382C188.075 115.134 189.731 118.07 188.332 120.363L184.138 127.232C183.226 128.726 181.233 129.138 179.804 128.122C174.235 124.165 158.199 115.958 120.27 115.134Z" fill="#5B7547"/>
<path d="M144.033 84.8672H147.372C147.809 84.8672 148.199 85.1406 148.346 85.5497L150.314 91.0036H142.998V85.8989C142.998 85.3289 143.461 84.8672 144.033 84.8672Z" fill="#F1A34F"/>
<path d="M142.997 90.9158V87.1855H144.43C145.418 87.1855 146.3 87.805 146.631 88.7325L147.413 90.9158H142.997Z" fill="#131F2D"/>
<path d="M158.133 116.982H163.075V121.907H158.133V116.982Z" fill="#131F2D"/>
<path d="M153.192 121.908H158.133V126.833H153.192V121.908Z" fill="#131F2D"/>
<path d="M148.25 116.982H153.191V121.907H148.25V116.982Z" fill="#131F2D"/>
<path d="M143.308 121.908H148.249V126.833H143.308V121.908Z" fill="#131F2D"/>
<path d="M138.367 116.982H143.308V121.907H138.367V116.982Z" fill="#131F2D"/>
<path d="M92.2452 138.739C86.859 133.37 86.859 124.667 92.2452 119.299C97.6314 113.93 106.364 113.93 111.75 119.299C117.137 124.667 117.137 133.37 111.75 138.739C106.364 144.107 97.6314 144.107 92.2452 138.739Z" fill="#131F2D"/>
<path d="M93.451 129.019C93.451 133.723 97.2771 137.537 101.997 137.537C106.717 137.537 110.543 133.723 110.543 129.019C110.543 124.315 106.717 120.502 101.997 120.502C97.2771 120.502 93.451 124.316 93.451 129.019ZM100.826 124.906C100.181 125.088 99.5974 125.415 99.1142 125.852L96.1523 124.029C97.3235 122.668 98.9643 121.72 100.825 121.437V124.906H100.826ZM107.839 124.028L104.878 125.851C104.394 125.414 103.811 125.087 103.166 124.905V121.435C105.027 121.719 106.668 122.667 107.839 124.028ZM106.129 130.169C106.231 129.803 106.287 129.418 106.287 129.019C106.287 128.607 106.227 128.209 106.118 127.831L109.078 126.008C109.474 126.933 109.695 127.951 109.695 129.019C109.695 130.074 109.48 131.08 109.094 131.993L106.129 130.169ZM103.167 133.133C103.826 132.947 104.419 132.61 104.907 132.16L107.865 133.98C106.691 135.358 105.041 136.318 103.166 136.603V133.133H103.167ZM101.996 130.953C100.925 130.953 100.055 130.088 100.055 129.019C100.055 127.952 100.924 127.085 101.996 127.085C103.068 127.085 103.936 127.951 103.936 129.019C103.936 130.088 103.068 130.953 101.996 130.953ZM96.1269 133.981L99.0846 132.161C99.5732 132.611 100.167 132.948 100.825 133.134V136.604C98.9506 136.318 97.3003 135.358 96.1269 133.981ZM94.8987 131.994C94.5125 131.08 94.2983 130.075 94.2983 129.02C94.2983 127.952 94.5178 126.934 94.9145 126.009L97.8743 127.832C97.7646 128.21 97.7055 128.608 97.7055 129.02C97.7055 129.419 97.7614 129.804 97.8638 130.17L94.8987 131.994Z" fill="#98BDF4"/>
<path d="M212.801 142.784C205.184 142.784 199.009 136.63 199.009 129.038C199.009 121.446 205.184 115.292 212.801 115.292C220.419 115.292 226.594 121.446 226.594 129.038C226.594 136.63 220.419 142.784 212.801 142.784Z" fill="#131F2D"/>
<path d="M204.255 129.039C204.255 133.743 208.081 137.556 212.801 137.556C217.521 137.556 221.347 133.743 221.347 129.039C221.347 124.335 217.521 120.521 212.801 120.521C208.081 120.523 204.255 124.336 204.255 129.039ZM211.631 124.926C210.986 125.108 210.403 125.435 209.92 125.871L206.958 124.049C208.129 122.688 209.77 121.739 211.63 121.456V124.926H211.631ZM218.645 124.049L215.683 125.871C215.2 125.435 214.616 125.108 213.971 124.926V121.455C215.833 121.738 217.473 122.687 218.645 124.049ZM216.933 130.188C217.036 129.822 217.092 129.437 217.092 129.039C217.092 128.627 217.032 128.228 216.923 127.85L219.883 126.028C220.278 126.952 220.499 127.97 220.499 129.039C220.499 130.094 220.285 131.099 219.898 132.013L216.933 130.188ZM213.971 133.153C214.63 132.967 215.223 132.629 215.711 132.179L218.669 134C217.496 135.377 215.845 136.337 213.97 136.622V133.153H213.971ZM212.801 130.973C211.73 130.973 210.861 130.107 210.861 129.039C210.861 127.971 211.729 127.105 212.801 127.105C213.872 127.105 214.742 127.97 214.742 129.039C214.742 130.107 213.872 130.973 212.801 130.973ZM206.932 134.001L209.89 132.18C210.379 132.63 210.973 132.968 211.63 133.154V136.624C209.756 136.337 208.105 135.377 206.932 134.001ZM205.704 132.014C205.318 131.099 205.104 130.095 205.104 129.04C205.104 127.971 205.323 126.953 205.72 126.029L208.68 127.852C208.57 128.229 208.511 128.628 208.511 129.04C208.511 129.439 208.567 129.823 208.669 130.189L205.704 132.014Z" fill="#98BDF4"/>
<path d="M213.335 138.595L211.927 144.523L209.819 144.511L209.741 138.595H213.335Z" fill="#FFBF9D"/>
<path d="M195.329 138.849L191.324 144.523L189.763 142.519L192.173 138.068L195.329 138.849Z" fill="#FFBF9D"/>
<path d="M211.998 144.193C211.998 144.193 211.829 145.368 212.266 146.624C212.266 146.624 212.611 148.196 211.063 148.225C209.515 148.255 209.135 148.109 209.31 147.144C209.486 146.18 209.819 144.513 209.819 144.513L211.998 144.193Z" fill="#FFBF9D"/>
<path d="M209.164 148.997C209.164 148.997 209.166 148.998 209.169 149H212.373C212.376 148.997 212.378 148.997 212.378 148.997C212.554 148.174 212.267 146.625 212.267 146.625C210.513 148.301 209.415 146.583 209.415 146.583C209.132 147.299 209.164 148.997 209.164 148.997Z" fill="#131F2D"/>
<path d="M186.032 147.374C186.032 147.374 188.887 144.132 189.763 142.52L191.886 143.607L187.141 148.064L186.031 147.918L186.032 147.374Z" fill="#FFBF9D"/>
<path d="M184.281 148.991H188.241C188.59 148.676 188.923 148.043 189.331 147.212C189.564 146.737 190.087 146.474 190.623 146.331V148.991H191.442L192.202 146.163C192.708 145.215 192.328 144.346 191.972 143.598C191.559 143.597 190.359 143.895 188.251 146.318C187.558 147.114 186.793 147.398 186.033 147.374C186.022 147.38 186.012 147.387 186.001 147.391C184.799 147.942 184.408 148.619 184.281 148.991Z" fill="#131F2D"/>
<path d="M206.255 75.2414C206.351 75.4707 206.465 75.6747 206.605 75.8661C206.561 75.6937 206.516 75.4833 206.491 75.2351C206.414 74.6168 206.401 73.7439 206.547 72.5071C206.528 72.8573 206.483 74.0878 206.694 75.2288C206.758 75.6116 206.86 75.9808 206.993 76.3057C207.006 76.3183 207.019 76.331 207.031 76.3436C207.356 76.6622 207.7 77.0577 208.064 77.4972C209.161 78.836 210.39 80.6333 211.493 82.4569C211.57 82.5841 211.653 82.7114 211.729 82.8397C212.82 84.6696 213.769 86.4858 214.317 87.8309C214.483 88.2326 214.617 88.5954 214.706 88.9014V88.9077C214.821 89.3221 214.859 89.6344 214.802 89.8195C214.802 89.8195 215.114 89.6281 215.631 89.3095C215.988 89.0865 216.447 88.812 216.963 88.4934L217.517 87.0463C217.594 87.346 217.505 87.8561 217.422 88.2189C217.561 88.1358 217.702 88.0464 217.849 87.9644C220.201 86.5489 223.331 84.7001 225.013 83.885C224.949 83.2225 224.651 82.0173 224.644 81.9721C225.071 82.1887 225.441 83.1257 225.613 83.6169C225.663 83.5916 225.709 83.579 225.753 83.5601C225.753 83.5601 226.027 79.8309 221.335 76.0565C218.874 74.0804 217.108 73.1108 217.58 71.3261C217.778 70.5931 217.811 68.6475 217.626 66.8755V66.8692C217.575 66.4296 217.505 65.9963 217.396 65.5756V65.5693C217.236 64.9005 216.988 64.2821 216.618 63.7594C215.904 62.7141 214.941 62.2556 213.098 62.5679C213.098 62.5679 212.327 62.02 211.938 62C211.938 62 212.238 62.1209 212.359 62.3187C211.753 62.1588 210.874 62.0252 210.058 62.2934C209.835 62.3639 209.599 62.529 209.35 62.7719C209.127 62.9886 208.898 63.2757 208.668 63.6132C208.649 63.6385 208.63 63.6637 208.616 63.69C208.597 63.7089 208.591 63.7216 208.578 63.7405C208.547 63.7847 208.514 63.8362 208.482 63.8867C208.266 64.2243 208.049 64.6134 207.833 65.0277V65.034C207.469 65.7481 207.125 66.519 206.825 67.374V67.4318C206.729 67.7126 206.634 67.9987 206.551 68.2858C206.544 68.2921 206.544 68.2984 206.544 68.3047C206.544 68.3173 206.538 68.3299 206.532 68.3489C205.797 70.836 205.503 73.5325 206.255 75.2414Z" fill="#131F2D"/>
<path d="M207.81 76.9103C207.792 76.9187 209.541 77.8263 210.856 77.4666C212.094 77.129 212.903 75.5242 212.885 75.521C212.361 75.4169 212.21 74.6965 212.221 71.6025L211.985 71.6488L208.001 72.4376C208.001 72.4376 208.091 73.6911 208.095 74.8721C208.097 75.8639 208.036 76.804 207.81 76.9103Z" fill="#FFBF9D"/>
<path d="M208 72.4362C208 72.4362 208.09 73.6898 208.093 74.8708C210.323 74.8077 211.501 72.7748 211.983 71.6475L208 72.4362Z" fill="#FFBF9D"/>
<path d="M212.804 71.7873C212.804 71.7873 214.314 70.2087 214.901 68.7175C215.319 67.6522 215.582 63.4445 211.349 63.2047C211.349 63.2047 210.13 63.0816 208.855 63.6138C207.84 64.0376 206.288 65.0798 207.009 68.9436L207.14 70.2256L212.804 71.7873Z" fill="#131F2D"/>
<path d="M190.007 140.765C190.007 140.765 191.066 140.948 191.935 141.014C192.128 141.029 192.311 141.037 192.471 141.037C192.89 141.037 193.644 140.88 194.15 140.762L194.188 140.753C194.41 140.701 194.581 140.658 194.644 140.641L194.67 140.634C194.67 140.634 199.95 134.756 202.911 125.333C202.98 125.113 203.053 124.892 203.13 124.668C204.751 119.942 208.111 114.011 209.881 108.641C210.163 107.786 210.416 106.98 210.643 106.219C210.716 105.975 210.787 105.735 210.854 105.5C212.159 100.966 212.537 97.9888 212.885 94.8086L202.239 97.5166C202.24 97.5177 197.77 116.894 190.007 140.765Z" fill="#657285"/>
<path d="M207.302 73.067C207.302 73.067 212.456 74.1944 213.108 70.9742C213.761 67.754 214.865 65.7317 211.603 64.8756C208.34 64.0196 207.45 65.1185 206.971 66.1397C206.492 67.1619 205.98 72.6905 207.302 73.067Z" fill="#FFBF9D"/>
<path d="M209.265 64.3224C209.265 64.3224 209.919 68.386 211.979 69.383C214.039 70.3799 215.098 69.9877 215.098 69.9877C215.098 69.9877 214.465 68.5154 214.585 66.1344C214.585 66.1333 210.695 62.7386 209.265 64.3224Z" fill="#131F2D"/>
<path d="M209.554 64.6993C209.554 64.6993 208.327 65.3293 207.904 66.098C207.481 66.8657 207.025 68.5316 206.544 68.3749C206.544 68.3749 205.995 65.5922 207.486 64.3807C209.067 63.0955 209.554 64.6993 209.554 64.6993Z" fill="#131F2D"/>
<path d="M191.936 141.015C192.129 141.03 192.312 141.038 192.472 141.038C192.891 141.038 193.645 140.88 194.151 140.763L194.189 140.754L194.645 140.642L194.671 140.634C194.671 140.634 199.951 134.757 202.912 125.334C202.981 125.114 203.054 124.893 203.131 124.669C204.752 119.943 208.112 114.012 209.882 108.642C210.164 107.787 210.417 106.981 210.644 106.22C210.717 105.976 210.788 105.736 210.855 105.5L208.972 104.071C208.972 104.071 203.32 113.225 201.57 121.839C200.119 128.98 193.874 138.237 191.936 141.015Z" fill="#131F2D"/>
<path d="M208.775 122.643C208.743 126.832 208.954 136.463 209.5 140.451C209.5 140.451 210.018 140.908 211.301 140.914C212.614 140.919 213.202 140.434 213.202 140.434C214.571 133.501 215.544 127.766 216.254 122.823C216.836 118.767 217.352 115.289 217.749 112.296C218.102 109.644 218.36 107.37 218.485 105.41C218.501 105.143 218.515 104.883 218.528 104.629C218.543 104.294 218.555 103.967 218.561 103.65C218.568 103.331 218.569 103.021 218.567 102.72L218.521 102.716L215.875 102.459L207.519 101.644C207.659 108.983 208.794 120.208 208.775 122.643Z" fill="#657285"/>
<path d="M211.301 140.912C212.419 140.976 213.202 140.432 213.202 140.432C214.572 133.5 215.544 127.764 216.254 122.821C216.836 118.765 217.352 115.287 217.75 112.294C218.102 109.642 218.361 107.368 218.485 105.408C218.5 104.443 218.51 103.517 218.521 102.715C218.532 101.902 218.546 101.213 218.568 100.734L215.876 102.457L213.043 104.269C213.043 104.269 217.061 107.925 216.073 114.834C215.087 121.744 212.676 139.933 211.301 140.912Z" fill="#131F2D"/>
<path d="M208.256 75.1301C208.256 75.1301 204.817 74.7052 203.376 76.1397C201.609 77.897 198.293 87.9719 198.425 89.1224C198.475 89.561 200.218 89.3569 200.815 88.7312C203.794 85.6057 207.209 77.4669 208.256 75.1301Z" fill="#9FE870"/>
<path d="M200.77 103.518C203.975 104.351 218.935 105.996 219.063 102.249C219.095 101.335 219.063 100.231 218.991 99.0363C218.768 95.3355 218.16 90.7618 217.868 88.2452C217.735 87.0915 218.179 81.9247 217.838 79.1094C217.789 78.693 217.721 78.3259 217.631 78.0336C216.985 75.9092 214.081 75.3329 212.591 75.2824L208.094 75.1289C208.094 75.1289 203.45 80.3167 202.804 81.9111C202.158 83.5054 201.946 88.9603 201.444 91.6031C200.944 94.2449 199.211 103.114 200.77 103.518Z" fill="#9FE870"/>
<path d="M209.605 90.8554C209.605 90.8554 212.104 98.5335 218.992 99.0362C218.769 95.3354 218.161 90.7618 217.87 88.2451C217.736 87.0915 218.18 81.9247 217.839 79.1094C217.75 79.1283 217.668 79.1788 217.575 79.1967C209.992 80.6606 208.916 89.2547 209.605 90.8554Z" fill="#5B7547"/>
<path d="M198.641 89.3107C198.641 89.3107 203.156 90.7914 208.656 88.4167C208.656 88.4167 210.155 88.2748 210.898 88.4641C210.898 88.4641 210.738 86.9781 210.012 86.5742C209.285 86.1704 206.158 87.0443 205.222 86.916C203.179 86.6342 199.619 86.4144 198.641 89.3107Z" fill="#FFBF9D"/>
<path d="M202.665 85.8524C202.665 85.8524 202.241 82.1842 203.678 79.9725C203.678 79.9725 203.171 79.8001 202.807 80.3743C202.443 80.9485 199.907 86.3982 201.115 86.7999C202.321 87.2016 202.665 85.8524 202.665 85.8524Z" fill="#5B7547"/>
<path d="M209.256 86.4658C209.321 86.4658 211.387 86.7361 211.754 86.9948C212.12 87.2535 211.797 88.1579 211.109 88.2442C210.419 88.3294 209.256 86.4658 209.256 86.4658Z" fill="#AE7461"/>
<path d="M214.906 87.8558C214.906 87.8558 209.018 87.6402 203.676 86.6064C203.676 86.6064 202.701 86.6149 202.815 87.4678C202.93 88.3206 212.073 93.0931 214.083 92.1739L214.906 87.8558Z" fill="#FFBF9D"/>
<path d="M203.676 86.6066C203.676 86.6066 203.052 85.8525 202.664 85.8525C202.276 85.8525 201.264 86.3479 201.112 86.8001C200.962 87.2523 202.31 86.9294 202.814 87.4679C203.319 88.0063 203.676 86.6066 203.676 86.6066Z" fill="#E4F9D5"/>
<path d="M212.593 75.2842C212.593 75.2842 217.541 75.2957 218.265 77.0741C219.586 80.3195 215.232 91.0854 214.084 92.1759C213.589 92.645 211.302 91.9057 211.302 88.8043C211.301 87.1953 211.417 77.8008 212.593 75.2842Z" fill="#9FE870"/>
<path d="M94.853 89.076C93.8049 83.3429 93.1 82.4625 92.5078 80.4894C91.9157 78.5163 90.975 77.235 89.8037 76.7817C89.0177 76.4778 85.0689 75.055 83.6959 75.5266C82.3526 76.0042 81.0737 76.6467 79.8887 77.4394C78.9691 78.0494 78.2721 78.9412 77.9026 79.9811L75.8064 85.895L79.4957 89.5634L81.3456 85.633L83.3527 90.3495L83.0566 95.1053L94.5674 98.2025C95.605 96.5255 95.4478 92.3278 94.853 89.076Z" fill="#ADEC85"/>
<g opacity="0.2">
<path d="M91.8632 82.8223C91.3549 85.8068 91.2737 86.2286 90.7654 89.2026C90.5898 90.2272 90.0789 91.8229 89.3504 92.5671C88.8107 93.1147 88.2814 93.6414 87.5293 93.8196C86.8324 93.9846 85.7712 94.003 85.1161 93.7147C84.461 93.4265 83.9003 92.1426 84.1702 91.4849C85.1475 91.6945 85.4489 92.0089 86.29 91.4849C87.0236 91.0185 88.0665 89.9861 88.4648 89.2131C90.1444 85.964 90.6081 85.8487 91.8711 82.8223" fill="black"/>
</g>
<path d="M83.523 88.6058C83.3368 88.355 83.167 88.0924 83.0147 87.8197L81.8303 85.8729L80.6145 83.9574C80.4333 83.6997 80.2696 83.4301 80.1245 83.1504C80.1876 83.2077 80.2431 83.2729 80.2896 83.3443C80.3892 83.4727 80.528 83.664 80.6931 83.9024C81.0285 84.3793 81.4792 85.0475 81.9456 85.7995C82.412 86.5515 82.8181 87.2485 83.0985 87.7595C83.24 88.0215 83.3605 88.2206 83.4234 88.3674C83.4688 88.4412 83.5024 88.5216 83.523 88.6058Z" fill="#263238"/>
<path d="M91.5567 93.9592C91.4733 94.0026 91.3854 94.0368 91.2947 94.0614C91.1873 94.0973 91.0779 94.127 90.9671 94.1505C90.8224 94.1897 90.6754 94.2203 90.5269 94.2422C90.1428 94.3105 89.7537 94.3465 89.3636 94.3496C88.8849 94.3504 88.407 94.3092 87.9355 94.2265C87.4645 94.1378 87.0024 94.0071 86.5546 93.836C86.1924 93.6945 85.8419 93.5246 85.5065 93.3277C85.3598 93.2465 85.2445 93.1574 85.1292 93.0866C85.0338 93.0246 84.942 92.9572 84.8541 92.8849C84.7742 92.83 84.7012 92.7658 84.6366 92.6936C84.6523 92.6726 84.9773 92.9268 85.5537 93.2439C85.8917 93.426 86.2419 93.5845 86.6018 93.7181C87.4864 94.0479 88.4222 94.219 89.3662 94.2238C89.7509 94.2243 90.1352 94.1989 90.5165 94.1478C91.1558 94.0561 91.5488 93.933 91.5567 93.9592Z" fill="#263238"/>
<path d="M86.9372 85.0262C86.9163 85.1284 85.6795 87.5914 85.6795 87.5914L79.8416 84.5152L79.2468 81.9997C79.1486 81.5958 78.8945 81.2472 78.5399 81.0301C78.1854 80.8131 77.7594 80.7453 77.355 80.8416L75.6335 81.5464C75.5625 81.5742 75.4994 81.6191 75.4501 81.6772C75.4007 81.7353 75.3665 81.8047 75.3505 81.8792C75.3269 82.005 75.3505 82.1412 75.5784 82.1124C76.0055 82.0784 76.8886 81.984 76.8886 81.984L76.4824 83.4173C76.3752 83.7929 76.4165 84.1954 76.5977 84.5414L76.8597 85.0366L77.4283 85.9564H77.4152C77.4152 85.9564 83.0907 91.7865 86.2769 92.1664C88.1923 92.3944 90.3619 87.0254 90.3619 87.0254L86.9372 85.0262Z" fill="#FFBF9D"/>
<path d="M76.8467 82.0815C76.8467 82.0815 76.8912 82.0212 76.9882 81.9557C77.1181 81.8653 77.273 81.8176 77.4313 81.8194C77.5139 81.824 77.5938 81.8508 77.6625 81.8969C77.7312 81.9431 77.7863 82.0068 77.8219 82.0815C77.877 82.1995 77.8403 82.2782 77.8219 82.2729C77.8035 82.2677 77.8219 82.1995 77.759 82.1104C77.7203 82.0538 77.6693 82.0067 77.6098 81.9726C77.5504 81.9386 77.4839 81.9185 77.4156 81.9138C77.2737 81.9158 77.1343 81.9517 77.0092 82.0186C76.9279 82.0579 76.8545 82.092 76.8467 82.0815Z" fill="#AA6550"/>
<path d="M77.5833 82.9746C77.5833 82.9746 77.544 82.9274 77.4889 82.8566C77.4186 82.7663 77.3253 82.6965 77.2188 82.6545C77.1122 82.6126 76.9964 82.5999 76.8834 82.618C76.7942 82.618 76.7392 82.6495 76.7339 82.639C76.7287 82.6285 76.7759 82.5892 76.8702 82.5577C76.995 82.5213 77.1283 82.5273 77.2492 82.5747C77.3702 82.6222 77.472 82.7084 77.5387 82.8199C77.5859 82.909 77.5912 82.9719 77.5833 82.9746Z" fill="#AA6550"/>
<path d="M88.1477 77.2516L86.5755 84.743L90.7679 87.2611L92.3768 82.6572C92.3768 82.6572 91.7007 77.0656 88.1477 77.2516Z" fill="#ADEC85"/>
<path d="M90.4064 77.3828C90.4064 77.3828 90.3724 77.4116 90.299 77.4509C90.2256 77.4902 90.1208 77.5479 89.982 77.6186C89.7042 77.7601 89.2955 77.9593 88.7845 78.1872C87.4562 78.7945 86.0576 79.2345 84.6209 79.4974C83.1752 79.7557 81.6912 79.7057 80.2661 79.3506C79.8396 79.2386 79.4239 79.0886 79.0241 78.9026C78.88 78.8423 78.7621 78.7768 78.7018 78.7401C78.6642 78.7213 78.6283 78.6994 78.5944 78.6746C78.7478 78.7265 78.8983 78.7869 79.045 78.8554C79.4523 79.0199 79.8709 79.1548 80.2975 79.2589C81.7118 79.5827 83.1768 79.6184 84.6052 79.3637C86.0323 79.101 87.4248 78.6764 88.7557 78.0981C89.2797 77.8833 89.6806 77.6972 89.9662 77.5741C90.1086 77.5007 90.2556 77.4368 90.4064 77.3828Z" fill="#EBEBEB"/>
<path d="M91.5095 78.2109C91.4736 78.2434 91.4341 78.2715 91.3916 78.2948L91.0458 78.5175C90.8629 78.6373 90.674 78.7475 90.4798 78.8477C90.2544 78.9656 90.0029 79.1097 89.7068 79.2407L89.2509 79.4503C89.091 79.5237 88.9181 79.584 88.7426 79.6547C88.3941 79.7988 88.0063 79.9167 87.6027 80.0478C85.8335 80.5814 83.9844 80.8004 82.1395 80.695C81.715 80.6609 81.3115 80.6373 80.9394 80.577C80.7508 80.5482 80.57 80.5299 80.3971 80.4984L79.9018 80.3989C79.5874 80.3438 79.307 80.26 79.0607 80.1971C78.8489 80.1459 78.6399 80.0838 78.4345 80.0111L78.0441 79.8748C77.9973 79.8624 77.9524 79.8439 77.9104 79.8198C77.9588 79.8224 78.0064 79.8321 78.0519 79.8486L78.4502 79.9587C78.6205 80.0111 78.8301 80.0713 79.0791 80.1237C79.328 80.1761 79.6031 80.2574 79.9228 80.3045L80.4154 80.3936C80.5857 80.4251 80.7665 80.4408 80.9394 80.4644C81.3115 80.5194 81.7255 80.5404 82.1317 80.5692C83.9629 80.6623 85.7967 80.4452 87.5556 79.9272C87.9565 79.8014 88.3417 79.6888 88.6901 79.5473C88.8631 79.4792 89.036 79.4215 89.1959 79.3534L89.6544 79.1516C89.9505 79.0311 90.202 78.8896 90.4405 78.7795C90.6789 78.6695 90.8623 78.5621 91.0143 78.473L91.3759 78.2738C91.4174 78.247 91.4624 78.2258 91.5095 78.2109Z" fill="#EBEBEB"/>
<path d="M90.7575 87.2619C90.6401 87.2123 90.5263 87.1545 90.4169 87.089L89.4946 86.5649L86.3503 84.7491L86.311 84.7255V84.681C86.4236 84.1228 86.5442 83.5202 86.6699 82.9018C86.8586 81.969 87.042 81.0833 87.194 80.2815C87.2805 79.878 87.3512 79.4954 87.4298 79.1312C87.5009 78.7945 87.6136 78.468 87.7652 78.1591C87.9849 77.7003 88.3736 77.3444 88.85 77.166C88.9789 77.1216 89.1145 77.0995 89.2509 77.1005C89.2977 77.0973 89.3448 77.1026 89.3898 77.1162C89.211 77.1223 89.0342 77.1558 88.8657 77.2158C88.4156 77.4056 88.0529 77.7571 87.8491 78.201C87.7074 78.5063 87.6027 78.8273 87.5372 79.1574C87.4665 79.5164 87.3931 79.9016 87.3145 80.3025C87.1521 81.1148 86.9739 82.0004 86.7905 82.9228C86.6647 83.5438 86.5415 84.1438 86.4289 84.7019L86.3974 84.6338L89.5234 86.4916L90.4274 87.0418C90.5434 87.1059 90.6538 87.1795 90.7575 87.2619Z" fill="#263238"/>
<path d="M92.0389 82.4346C92.0619 82.6677 92.0549 82.9028 92.0179 83.1342C91.963 83.6942 91.8631 84.2489 91.7192 84.7928C91.5754 85.3374 91.3896 85.87 91.1637 86.3859C91.0817 86.6054 90.9716 86.8132 90.8362 87.0043C90.9003 86.7807 90.98 86.5618 91.0746 86.3493C91.4723 85.3067 91.757 84.2244 91.9236 83.1211C91.9474 82.89 91.9859 82.6607 92.0389 82.4346Z" fill="#263238"/>
<path d="M69.3082 124.104L69.2611 128.103C69.2611 128.103 65.1787 129.4 65.1001 130.139L72.8508 130.506L73.181 124.277L69.3082 124.104Z" fill="#455A64"/>
<path d="M71.6875 127.879C71.7611 127.905 71.8224 127.958 71.8597 128.026C71.8969 128.095 71.9075 128.175 71.8894 128.251C71.8663 128.326 71.8152 128.389 71.7469 128.427C71.6785 128.465 71.5981 128.475 71.5224 128.456C71.4447 128.427 71.3801 128.371 71.341 128.298C71.3019 128.225 71.2908 128.14 71.31 128.06C71.343 127.985 71.4037 127.925 71.4794 127.894C71.5552 127.863 71.6401 127.862 71.7164 127.892" fill="#E0E0E0"/>
<path d="M72.8507 130.506V129.877L65.4145 129.759C65.4145 129.759 65.0607 129.892 65.0896 130.139L72.8507 130.506Z" fill="#E0E0E0"/>
<path d="M69.1379 128.058C69.1379 128.095 69.3266 128.121 69.5049 128.252C69.6832 128.383 69.767 128.546 69.8142 128.533C69.8614 128.52 69.8142 128.3 69.5809 128.145C69.3476 127.99 69.13 128.022 69.1379 128.058Z" fill="#263238"/>
<path d="M68.3072 128.354C68.3072 128.391 68.4592 128.464 68.5693 128.63C68.6794 128.795 68.7188 128.968 68.7581 128.968C68.7974 128.968 68.8289 128.755 68.6742 128.551C68.5195 128.346 68.3098 128.32 68.3072 128.354Z" fill="#263238"/>
<path d="M67.799 129.306C67.8331 129.306 67.896 129.13 67.799 128.918C67.702 128.705 67.5369 128.616 67.5212 128.656C67.5054 128.695 67.6077 128.802 67.6758 128.978C67.744 129.154 67.7571 129.3 67.799 129.306Z" fill="#263238"/>
<path d="M69.2479 127.146C69.2636 127.183 69.4393 127.146 69.6542 127.162C69.8692 127.178 70.0291 127.264 70.0501 127.233C70.0711 127.201 69.919 127.057 69.6673 127.03C69.4157 127.004 69.2322 127.117 69.2479 127.146Z" fill="#263238"/>
<g opacity="0.3">
<path d="M69.3002 124.896L69.2898 125.608L73.1022 125.755L73.1363 125.113L69.3002 124.896Z" fill="black"/>
</g>
<path d="M69.2741 126.341C69.3993 126.383 69.5335 126.389 69.6621 126.359C69.8033 126.341 69.9416 126.305 70.0737 126.252C70.1526 126.223 70.2289 126.187 70.3018 126.145C70.3471 126.123 70.3887 126.095 70.425 126.061C70.4513 126.035 70.4681 126.001 70.4729 125.964C70.4776 125.928 70.47 125.891 70.4512 125.859C70.4332 125.832 70.4091 125.809 70.3809 125.793C70.3527 125.776 70.3212 125.767 70.2887 125.764C70.2393 125.762 70.1899 125.766 70.1418 125.777C70.0586 125.794 69.977 125.817 69.898 125.848C69.7646 125.902 69.64 125.975 69.5284 126.066C69.3396 126.226 69.2662 126.365 69.2846 126.373C69.3029 126.38 69.3947 126.27 69.5835 126.142C69.6945 126.068 69.8142 126.008 69.94 125.964C70.0135 125.939 70.0889 125.919 70.1654 125.906C70.2493 125.888 70.3201 125.89 70.3385 125.927C70.3568 125.964 70.3385 125.948 70.3385 125.971C70.3113 125.996 70.2814 126.017 70.2493 126.034C70.1785 126.074 70.1078 126.11 70.0396 126.142C69.9161 126.195 69.788 126.237 69.6569 126.268C69.5278 126.284 69.4 126.308 69.2741 126.341Z" fill="#263238"/>
<path d="M69.3294 126.398C69.4073 126.29 69.4487 126.161 69.4473 126.028C69.4619 125.885 69.4512 125.74 69.4159 125.601C69.3948 125.517 69.3649 125.437 69.3268 125.36C69.3083 125.307 69.2766 125.261 69.2348 125.225C69.193 125.188 69.1425 125.163 69.0882 125.152C69.0539 125.151 69.0201 125.16 68.9907 125.178C68.9614 125.195 68.9378 125.221 68.923 125.252C68.8999 125.296 68.884 125.344 68.8758 125.394C68.8627 125.481 68.8627 125.569 68.8758 125.656C68.8902 125.802 68.9406 125.943 69.0227 126.065C69.1642 126.275 69.3215 126.327 69.3241 126.314C69.3268 126.301 69.2088 126.217 69.1013 126.018C69.0398 125.903 69.004 125.777 68.9964 125.648C68.9922 125.572 68.9984 125.496 69.0148 125.422C69.0305 125.341 69.0646 125.276 69.0961 125.286C69.1275 125.297 69.1957 125.352 69.2245 125.42C69.2601 125.489 69.289 125.561 69.311 125.635C69.3487 125.762 69.3681 125.893 69.3687 126.025C69.3477 126.251 69.3005 126.39 69.3294 126.398Z" fill="#263238"/>
<path d="M85.1083 95.1488C85.1083 95.1488 72.9975 90.0655 69.2505 89.8532C66.8923 89.717 65.121 91.2263 65.4407 93.6579C65.6005 94.8763 68.9466 109.117 68.9466 109.117L74.0456 106.791L71.593 96.9411L81.55 101.778L85.1083 95.1488Z" fill="#263238"/>
<path d="M70.0707 94.4478C70.0314 94.4818 70.4323 94.998 70.8567 95.6819C71.2812 96.3658 71.5642 96.9554 71.6114 96.937C71.6585 96.9187 71.4411 96.2872 71.0087 95.5902C70.5764 94.8932 70.1152 94.4163 70.0707 94.4478Z" fill="#455A64"/>
<path d="M69.0803 95.0143C69.0541 95.0588 69.6646 95.4466 70.3904 95.9759C71.1162 96.5052 71.6612 96.969 71.7005 96.9323C71.7398 96.8956 71.2158 96.3533 70.4873 95.8292C69.7589 95.3051 69.1012 94.9724 69.0803 95.0143Z" fill="#455A64"/>
<path d="M94.5543 98.2037C94.5543 98.2037 93.032 100.166 91.5803 100.703C89.7462 101.377 76.2624 107.741 76.2624 107.741C76.2624 107.741 73.815 125.924 74.0089 125.164L68.3623 125.027L68.9754 108.281C69.0488 106.138 70.7677 103.675 72.615 102.58L85.1083 95.1484L94.5543 98.2037Z" fill="#263238"/>
<path d="M68.868 111.346C68.8859 111.27 68.8938 111.193 68.8915 111.115C68.8915 110.947 68.9125 110.73 68.9256 110.457C68.9577 109.651 69.0329 108.848 69.151 108.049C69.3164 106.87 69.7347 105.74 70.3772 104.737C70.7748 104.161 71.2654 103.654 71.8289 103.239C72.4403 102.793 73.0801 102.388 73.7443 102.025C76.4615 100.469 78.8066 98.8811 80.5412 97.7937C81.4059 97.2435 82.1133 96.8059 82.5955 96.5072L83.1562 96.1613C83.224 96.1239 83.2881 96.08 83.3475 96.0303C83.2753 96.0564 83.206 96.0898 83.1405 96.1298C83.0068 96.2006 82.8103 96.3054 82.5614 96.4469C82.0609 96.7273 81.3482 97.1518 80.4652 97.6863C78.7122 98.7501 76.354 100.32 73.6525 101.879C72.9816 102.245 72.3356 102.656 71.7188 103.108C71.1412 103.536 70.6399 104.059 70.2357 104.654C69.5894 105.683 69.177 106.841 69.0278 108.047C68.9199 108.85 68.8639 109.66 68.8601 110.471C68.8601 110.733 68.8601 110.961 68.8601 111.131C68.8563 111.203 68.8589 111.275 68.868 111.346Z" fill="#455A64"/>
<path d="M89.5706 100.119C89.4659 99.9568 89.3503 99.8019 89.2247 99.6553C88.9644 99.2768 88.7837 98.8494 88.6936 98.399C88.6036 97.9485 88.6059 97.4845 88.7006 97.035C88.7588 96.8506 88.8044 96.6624 88.8369 96.4717C88.7097 96.6234 88.6199 96.8029 88.5749 96.9957C88.4407 97.461 88.4209 97.9518 88.5172 98.4264C88.6112 98.901 88.8199 99.3454 89.1251 99.7208C89.3636 100.022 89.5601 100.135 89.5706 100.119Z" fill="#455A64"/>
<path d="M70.4375 125.026C70.4467 124.997 70.452 124.966 70.4532 124.935C70.4532 124.861 70.4741 124.772 70.4872 124.659C70.5161 124.397 70.5527 124.052 70.5999 123.611C70.6916 122.679 70.8226 121.35 70.9851 119.715C71.0611 118.892 71.1475 117.991 71.2471 117.024C71.3467 116.057 71.4384 115.022 71.5091 113.932C71.5799 112.842 71.6952 111.702 71.8943 110.526C72.0888 109.319 72.4412 108.143 72.9424 107.028C73.4659 105.926 74.1571 104.912 74.9914 104.022C75.7733 103.195 76.6293 102.44 77.5488 101.769C79.1247 100.659 80.7614 99.6381 82.4513 98.7109C83.8846 97.8882 85.027 97.1859 85.7843 96.6566C86.1668 96.3946 86.455 96.1824 86.6489 96.033L86.8664 95.8627C86.9153 95.8243 86.9389 95.8033 86.9372 95.7998C86.908 95.8116 86.8806 95.8275 86.8559 95.847L86.628 96.0042C86.4288 96.1431 86.1328 96.3474 85.7476 96.6016C84.9772 97.1099 83.8295 97.7938 82.3884 98.6035C80.6848 99.5171 79.0364 100.53 77.4519 101.638C76.5201 102.311 75.6534 103.07 74.8631 103.904C74.0138 104.806 73.3109 105.835 72.78 106.954C72.2766 108.083 71.9242 109.273 71.7319 110.494C71.5353 111.673 71.4358 112.818 71.3545 113.901C71.2733 114.983 71.1921 116.026 71.0925 116.993C70.9929 117.959 70.9301 118.861 70.8593 119.686C70.7204 121.324 70.5973 122.652 70.5318 123.588C70.4968 124.038 70.4706 124.388 70.4532 124.636C70.4532 124.749 70.4401 124.84 70.4348 124.911C70.4296 124.982 70.4322 125.026 70.4375 125.026Z" fill="#455A64"/>
<path d="M83.7405 66.3092C83.5503 65.8195 83.1918 65.4136 82.7294 65.1644C82.2669 64.9151 81.7308 64.8389 81.2172 64.9493C80.9912 65.0319 80.7549 65.0831 80.5149 65.1013C80.2241 65.0514 79.9383 64.976 79.6607 64.8759C79.3462 64.8249 79.024 64.8927 78.7567 65.0661C78.4894 65.2395 78.2961 65.506 78.2144 65.814C77.9682 65.7542 77.712 65.7487 77.4636 65.7981C77.2152 65.8474 76.9805 65.9503 76.7758 66.0996C76.5752 66.2549 76.4327 66.4734 76.3714 66.7196C76.3101 66.9659 76.3335 67.2256 76.4378 67.4569C76.54 67.6482 76.6999 67.8001 76.802 67.9967C76.9566 68.319 76.8859 68.7068 76.9933 69.0448C77.0942 69.2906 77.2622 69.503 77.4781 69.6578C77.694 69.8126 77.9492 69.9034 78.2144 69.9199C78.7479 69.9474 79.2816 69.8718 79.7865 69.6972" fill="#263238"/>
<path d="M81.301 76.6728C81.2355 76.1645 81.1936 75.8081 81.1936 75.8081C81.1936 75.8081 79.5035 75.8081 78.8353 73.7119C78.4973 72.6638 78.272 70.9135 78.1357 69.4671C78.106 69.1589 78.1389 68.848 78.2325 68.5529C78.3261 68.2579 78.4785 67.9849 78.6805 67.7503C78.8825 67.5157 79.1299 67.3245 79.4078 67.1881C79.6857 67.0518 79.9883 66.9731 80.2974 66.9568L84.7833 66.7236L84.8803 67.418L86.062 76.0439C86.1047 76.3567 86.0852 76.6748 86.0046 76.98C85.9239 77.2851 85.7838 77.5714 85.5921 77.8222C85.4005 78.073 85.1612 78.2835 84.8879 78.4415C84.6146 78.5995 84.3128 78.7019 83.9999 78.7428C83.6866 78.7848 83.3682 78.7645 83.0629 78.6831C82.7575 78.6016 82.4712 78.4607 82.2205 78.2684C81.9697 78.0761 81.7594 77.8361 81.6016 77.5623C81.4438 77.2885 81.3417 76.9862 81.301 76.6728Z" fill="#FFBF9D"/>
<path d="M81.1936 75.8077C82.2063 75.6623 83.1587 75.2387 83.9449 74.584C83.9449 74.584 83.4785 76.1771 81.301 76.3107L81.1936 75.8077Z" fill="#AA6550"/>
<path d="M77.9 68.5203C77.9 68.5203 79.087 68.9212 80.4495 68.0094C81.343 67.4119 82.4278 67.0373 82.6977 67.1997C82.9676 67.3622 83.1431 68.3369 84.1257 68.5098C84.1257 68.5098 84.2987 70.3964 85.0402 70.234C85.5642 70.1187 85.2603 68.0382 85.0402 66.8512C84.9942 66.6217 84.8727 66.4142 84.6951 66.2618C84.5175 66.1094 84.294 66.0208 84.0602 66.0101L82.6793 65.9551L80.9552 66.4372L79.1053 66.9403L77.6956 67.5299L77.9 68.5203Z" fill="#263238"/>
<path d="M84.875 69.4669C84.9012 69.4486 86.0469 68.8456 86.2592 70.0961C86.4715 71.3466 85.1739 71.2994 85.1634 71.2653C85.1529 71.2313 84.875 69.4669 84.875 69.4669Z" fill="#FFBF9D"/>
<path d="M85.4647 70.7249C85.4647 70.7249 85.4909 70.738 85.5302 70.7485C85.5854 70.7616 85.6435 70.7532 85.6927 70.7249C85.764 70.6598 85.817 70.5771 85.8465 70.4851C85.8759 70.3931 85.8808 70.295 85.8605 70.2006C85.8454 70.0931 85.8069 69.9902 85.7478 69.8991C85.7287 69.8623 85.7012 69.8305 85.6675 69.8063C85.6338 69.7821 85.5948 69.7663 85.5538 69.7602C85.5278 69.758 85.5018 69.7648 85.4802 69.7797C85.4587 69.7945 85.443 69.8163 85.4358 69.8415C85.4358 69.8782 85.4358 69.9017 85.4358 69.907C85.4358 69.9122 85.407 69.8886 85.407 69.8362C85.4092 69.8041 85.4221 69.7736 85.4437 69.7497C85.474 69.718 85.5153 69.6993 85.559 69.6973C85.6124 69.6983 85.6645 69.713 85.7105 69.7401C85.7564 69.7672 85.7945 69.8057 85.8212 69.8519C85.8929 69.951 85.9389 70.0663 85.9549 70.1875C85.9809 70.2979 85.9733 70.4135 85.9332 70.5195C85.893 70.6256 85.822 70.7172 85.7294 70.7826C85.6975 70.7978 85.6626 70.8056 85.6272 70.8056C85.5918 70.8056 85.5569 70.7978 85.525 70.7826C85.4725 70.7564 85.462 70.7302 85.4647 70.7249Z" fill="#AA6550"/>
<path d="M78.5 65.3528C78.5 65.3528 78.542 65.421 78.6311 65.5205C78.7586 65.6618 78.9214 65.7666 79.1027 65.8245C79.3721 65.9115 79.66 65.9242 79.9359 65.8612C80.2791 65.7778 80.6162 65.671 80.9447 65.5415C81.2849 65.4075 81.6483 65.3425 82.0138 65.3502C82.3229 65.3614 82.6154 65.4931 82.8287 65.7171C82.974 65.8633 83.0622 66.0565 83.0776 66.2621C83.0885 66.3366 83.0757 66.4127 83.0409 66.4796C83.0278 66.4796 83.0409 66.401 83.0252 66.2673C82.9925 66.0817 82.9006 65.9116 82.7632 65.7826C82.5613 65.5891 82.2934 65.4795 82.0138 65.476C81.6649 65.4763 81.3191 65.5421 80.9945 65.6699C80.6605 65.8028 80.3161 65.908 79.9648 65.9843C79.6682 66.0457 79.3603 66.0221 79.0765 65.9162C78.8838 65.8455 78.7162 65.7197 78.5944 65.5546C78.5 65.4341 78.5 65.3555 78.5 65.3528Z" fill="#455A64"/>
<path d="M82.7213 66.5492C82.7213 66.5492 82.6584 66.4836 82.5274 66.3919C82.3405 66.2776 82.1254 66.2177 81.9064 66.219C81.5742 66.2178 81.2467 66.2978 80.9526 66.4522C80.585 66.6507 80.2052 66.8258 79.8154 66.9763C79.4456 67.091 79.0562 67.1286 78.6713 67.0867C78.2863 67.0448 77.9141 66.9243 77.5777 66.7326C77.3742 66.6181 77.188 66.4751 77.0248 66.3081C76.9613 66.2513 76.9081 66.1839 76.8676 66.1089C77.0996 66.314 77.3526 66.494 77.6223 66.6461C78.2848 66.9938 79.0578 67.0663 79.7735 66.8479C80.1577 66.6924 80.5338 66.5175 80.9002 66.3238C81.2129 66.1655 81.5615 66.0915 81.9116 66.1089C82.1495 66.1181 82.3786 66.2015 82.5667 66.3474C82.6354 66.3995 82.6888 66.4692 82.7213 66.5492Z" fill="#455A64"/>
<path d="M78.8406 87.8428L72.7564 82.6572L70.7493 83.1105C70.7493 83.1105 72.8638 87.5074 74.3941 89.1188C74.3941 89.1188 75.9059 91.1417 78.4004 90.2665C80.8949 89.3913 78.8406 87.8428 78.8406 87.8428Z" fill="#FFBF9D"/>
<path d="M72.2953 76.9453H69.7091C69.6115 76.9506 69.5163 76.9776 69.4305 77.0243C69.3446 77.071 69.2703 77.1363 69.2128 77.2153C69.1553 77.2944 69.1162 77.3852 69.0983 77.4813C69.0803 77.5774 69.084 77.6762 69.1091 77.7707L71.711 82.8357C71.7603 82.9322 71.8354 83.0131 71.9279 83.0695C72.0204 83.1259 72.1267 83.1556 72.235 83.1554H75.3793C75.4532 83.1471 75.524 83.1207 75.5852 83.0785C75.6464 83.0363 75.6963 82.9796 75.7303 82.9134C75.7642 82.8472 75.7813 82.7737 75.78 82.6993C75.7787 82.625 75.7589 82.5521 75.7226 82.4872L73.215 77.527C73.1296 77.3552 72.9987 77.21 72.8366 77.1074C72.6744 77.0049 72.4872 76.9488 72.2953 76.9453Z" fill="#455A64"/>
<path d="M72.1223 77.252H69.5361C69.4619 77.2515 69.3888 77.2702 69.3239 77.3061C69.2589 77.3421 69.2044 77.3942 69.1654 77.4574C69.1265 77.5205 69.1044 77.5927 69.1014 77.6669C69.0984 77.741 69.1146 77.8147 69.1483 77.8808L71.6873 82.8358C71.7371 82.9318 71.8123 83.0124 71.9047 83.0688C71.9971 83.1252 72.1032 83.1551 72.2114 83.1554H75.3295C75.3723 83.1537 75.414 83.1414 75.451 83.1197C75.488 83.0981 75.5191 83.0677 75.5416 83.0312C75.5641 82.9948 75.5773 82.9533 75.58 82.9106C75.5828 82.8678 75.5751 82.825 75.5574 82.786L73.0472 77.8284C72.9624 77.6554 72.8308 77.5097 72.6673 77.4078C72.5038 77.3059 72.315 77.2519 72.1223 77.252Z" fill="#263238"/>
<path d="M71.9022 79.3223L70.33 79.9511L69.9946 81.2193L70.7519 83.1059L73.5215 83.5147L72.7092 82.6841L72.8114 81.9583C72.8114 81.9583 73.5975 81.7146 73.5975 81.5967C73.5975 81.4787 73.5005 81.0726 73.3826 81.0595C73.0724 81.1303 72.7684 81.2258 72.4734 81.3451C72.4734 81.3451 73.435 80.5826 73.4088 80.4595C73.3826 80.3363 73.2778 80.0245 73.0865 79.9878C72.8952 79.9511 71.3388 80.6874 71.3388 80.6874L71.0768 81.2613L70.8567 80.3416C70.8567 80.3416 72.2428 79.9538 71.9022 79.3223Z" fill="#FFBF9D"/>
<path d="M72.1014 82.2996C72.1014 82.2996 72.0621 82.2471 72.0464 82.1423C72.0298 82.0087 72.0449 81.8732 72.0904 81.7466C72.136 81.62 72.2107 81.5058 72.3085 81.4135C72.3872 81.3453 72.4475 81.3217 72.4527 81.3296C72.3331 81.4621 72.2349 81.6124 72.1617 81.7752C72.115 81.9459 72.0947 82.1227 72.1014 82.2996Z" fill="#AA6550"/>
<path d="M71.3519 82.0241C71.3826 81.8886 71.4036 81.751 71.4148 81.6125C71.4212 81.4577 71.4476 81.3043 71.4935 81.1563C71.5234 81.0613 71.5757 80.9748 71.6459 80.9041C71.7162 80.8334 71.8023 80.7806 71.8972 80.75C72.2721 80.6137 72.6129 80.5036 72.8593 80.4223C72.9911 80.3725 73.1271 80.3348 73.2656 80.3096C73.1436 80.3792 73.0144 80.4355 72.8803 80.4774C72.6365 80.5717 72.2957 80.6923 71.926 80.826C71.8397 80.8558 71.7609 80.9041 71.6953 80.9676C71.6371 81.0293 71.5925 81.1025 71.5643 81.1826C71.5163 81.3243 71.4854 81.4713 71.4725 81.6204C71.4674 81.763 71.4259 81.902 71.3519 82.0241Z" fill="#AA6550"/>
<path d="M70.9904 81.7391C70.9655 81.6366 70.9655 81.5296 70.9904 81.4271C71.0193 81.2594 71.0588 81.1283 71.0825 81.1309C71.1072 81.2334 71.1072 81.3403 71.0825 81.4429C71.0535 81.6106 71.0141 81.7417 70.9904 81.7391Z" fill="#AA6550"/>
<path d="M70.9484 78.2063C70.9484 78.2716 70.9678 78.3355 71.0041 78.3898C71.0404 78.4441 71.092 78.4865 71.1523 78.5115C71.2127 78.5365 71.2791 78.543 71.3432 78.5303C71.4072 78.5175 71.4661 78.4861 71.5123 78.4399C71.5585 78.3937 71.5899 78.3348 71.6027 78.2707C71.6154 78.2067 71.6089 78.1403 71.5839 78.0799C71.5589 78.0195 71.5166 77.968 71.4622 77.9317C71.4079 77.8954 71.3441 77.876 71.2787 77.876C71.2352 77.8756 71.1921 77.8839 71.1519 77.9004C71.1117 77.9169 71.0751 77.9412 71.0444 77.972C71.0136 78.0027 70.9893 78.0393 70.9728 78.0795C70.9564 78.1197 70.9481 78.1628 70.9484 78.2063Z" fill="#FAFAFA"/>
</svg>
