<svg width="190" height="149" viewBox="0 0 190 149" fill="none" xmlns="http://www.w3.org/2000/svg">
<g opacity="0.5" clip-path="url(#clip0_2401_9854)">
<g opacity="0.05">
<path d="M25.0386 133C25.0386 50.8641 91.8636 -15.9609 173.999 -15.9609C256.141 -15.9609 322.971 50.8589 322.971 133C322.971 215.141 256.146 281.966 174.005 281.966C91.8636 281.966 25.0386 215.136 25.0386 133Z" fill="#F5FDF0" stroke="#9FE870"/>
</g>
<g opacity="0.05">
<path d="M52.5195 133C52.5195 66.016 107.015 11.5205 173.999 11.5205C240.983 11.5205 295.479 66.016 295.479 133C295.479 199.984 240.983 254.48 173.999 254.48C107.015 254.48 52.5195 199.984 52.5195 133Z" fill="#F5FDF0" stroke="#9FE870"/>
</g>
<g opacity="0.05">
<path d="M76.0164 133C76.0164 78.9741 119.969 35.0166 174 35.0166C228.025 35.0166 271.983 78.9741 271.983 133C271.983 187.025 228.025 230.983 174 230.983C119.974 230.983 76.0164 187.025 76.0164 133Z" fill="#F5FDF0" stroke="#9FE870"/>
</g>
<g opacity="0.1">
<path d="M99.5442 133C99.5442 91.949 132.943 58.5454 173.999 58.5454C215.051 58.5454 248.454 91.949 248.454 133C248.454 174.052 215.051 207.455 173.999 207.455C132.948 207.455 99.5442 174.052 99.5442 133Z" fill="#F5FDF0" stroke="#9FE870"/>
</g>
<g opacity="0.15">
<path d="M122.491 133C122.491 104.6 145.6 81.4917 173.999 81.4917C202.399 81.4917 225.508 104.6 225.508 133C225.508 161.399 202.399 184.508 173.999 184.508C145.6 184.508 122.491 161.399 122.491 133Z" fill="#F5FDF0" stroke="#9FE870"/>
</g>
<path opacity="0.1" d="M261 220C309.049 171.951 309.049 94.0488 261 46C212.951 -2.04879 135.049 -2.04877 87 46C38.9512 94.0488 38.9512 171.951 87 220C135.049 268.049 212.951 268.049 261 220Z" fill="#F5FDF0" stroke="#9FE870" stroke-width="4" stroke-linecap="round" stroke-linejoin="round"/>
<path opacity="0.1" d="M244.946 203.946C284.128 164.764 284.128 101.236 244.946 62.0539C205.764 22.8715 142.236 22.8715 103.054 62.054C63.8715 101.236 63.8715 164.764 103.054 203.946C142.236 243.128 205.764 243.128 244.946 203.946Z" fill="#F5FDF0" stroke="#9FE870" stroke-width="7" stroke-linecap="round" stroke-linejoin="round"/>
<path opacity="0.15" d="M173.999 210.597C216.855 210.597 251.597 175.856 251.597 133C251.597 90.1439 216.855 55.4023 173.999 55.4023C131.143 55.4023 96.4019 90.1439 96.4019 133C96.4019 175.856 131.143 210.597 173.999 210.597Z" fill="#F5FDF0" stroke="#9FE870" stroke-width="10" stroke-linecap="round" stroke-linejoin="round"/>
<path opacity="0.2" d="M173.999 188.443C204.62 188.443 229.443 163.62 229.443 133C229.443 102.379 204.62 77.5566 173.999 77.5566C143.379 77.5566 118.556 102.379 118.556 133C118.556 163.62 143.379 188.443 173.999 188.443Z" fill="#F5FDF0" stroke="#9FE870" stroke-width="13" stroke-linecap="round" stroke-linejoin="round"/>
<path opacity="0.1" d="M173.999 283.544C257.143 283.544 324.544 216.143 324.544 133C324.544 49.8565 257.143 -17.5444 173.999 -17.5444C90.856 -17.5444 23.4551 49.8565 23.4551 133C23.4551 216.143 90.856 283.544 173.999 283.544Z" fill="#F5FDF0" stroke="#9FE870" stroke-width="4" stroke-linecap="round" stroke-linejoin="round"/>
</g>
<g clip-path="url(#clip1_2401_9854)">
<path d="M110.046 114.999H109.986C104.75 114.999 100.491 110.74 100.491 105.504V103.286C100.491 101.991 101.541 100.942 102.835 100.942H117.197C118.491 100.942 119.54 101.991 119.54 103.286V105.504C119.54 110.74 115.281 114.999 110.046 114.999Z" fill="#D8F6C5"/>
<path d="M117.196 100.942H110.016V115H110.045C115.281 115 119.54 110.74 119.54 105.505V103.286C119.54 101.992 118.491 100.942 117.196 100.942Z" fill="#D8F6C5"/>
<path d="M114.701 49.6494H105.331C104.036 49.6494 102.987 48.6001 102.987 47.3058V42.0305C102.987 38.1548 106.14 35.002 110.016 35.002C113.891 35.002 117.044 38.155 117.044 42.0305V47.3058C117.044 48.6001 115.995 49.6494 114.701 49.6494Z" fill="#D8F6C5"/>
<path d="M114.7 49.6494C115.995 49.6494 117.044 48.6001 117.044 47.3058V42.0305C117.044 38.1548 113.891 35.002 110.016 35.002V49.6494H114.7Z" fill="#D8F6C5"/>
<path d="M134.85 105.629H85.1807C83.1521 105.629 81.5017 103.979 81.5017 101.95V98.5996C81.5017 94.9292 82.8531 91.4046 85.3069 88.675C86.9859 86.8073 87.9106 84.3957 87.9106 81.8843V66.7009C87.9106 54.5123 97.8266 44.5962 110.015 44.5962C122.204 44.5962 132.12 54.5123 132.12 66.7009V81.8843C132.12 84.3957 133.045 86.8073 134.724 88.6749C137.178 91.4045 138.529 94.9291 138.529 98.5994V101.95C138.529 103.979 136.879 105.629 134.85 105.629Z" fill="#BCEF9B"/>
<path d="M134.85 105.63C136.879 105.63 138.529 103.979 138.529 101.951V98.5999C138.529 94.9295 137.178 91.405 134.724 88.6754C133.045 86.8078 132.12 84.3961 132.12 81.8848V66.7014C132.12 54.5128 122.204 44.5967 110.016 44.5967V105.63H134.85Z" fill="#BCEF9B"/>
<path d="M81.502 98.5999V101.951C81.502 103.979 83.1524 105.63 85.1809 105.63H134.85C136.879 105.63 138.529 103.979 138.529 101.951V98.5999C138.529 96.9925 138.27 95.4132 137.773 93.916H82.2588C81.7613 95.4132 81.502 96.9925 81.502 98.5999Z" fill="#9FE870"/>
<path d="M110.016 93.9157V105.629H134.85C136.879 105.629 138.529 103.979 138.529 101.95V98.5994C138.529 96.992 138.27 95.4127 137.773 93.9155H110.016V93.9157Z" fill="#9FE870"/>
<path d="M72.3465 60.8856C72.1826 60.8856 72.0163 60.8684 71.8496 60.8323C70.5843 60.5592 69.7801 59.3121 70.0533 58.0468C71.9301 49.3535 76.7198 41.3677 83.5398 35.5602C84.5254 34.721 86.0046 34.8399 86.8436 35.8252C87.6828 36.8108 87.5642 38.2898 86.5786 39.129C80.5376 44.2731 76.2959 51.3428 74.635 59.036C74.398 60.1346 73.4264 60.8856 72.3465 60.8856Z" fill="#D96486"/>
<path d="M147.654 60.8855C146.573 60.8855 145.602 60.1346 145.365 59.036C143.704 51.3428 139.462 44.2731 133.422 39.1292C132.436 38.29 132.317 36.8108 133.157 35.8254C133.996 34.8398 135.475 34.721 136.46 35.5604C143.28 41.3675 148.07 49.3535 149.947 58.0468C150.22 59.3121 149.416 60.5592 148.15 60.8324C147.984 60.8681 147.817 60.8855 147.654 60.8855Z" fill="#D96486"/>
<path d="M81.3573 63.6273C81.2138 63.6273 81.0681 63.614 80.9219 63.5865C79.6497 63.3475 78.8124 62.1224 79.0515 60.8504C80.3379 54.0053 83.9452 47.6824 89.2088 43.0464C90.18 42.1907 91.6611 42.2849 92.5165 43.2561C93.3721 44.2275 93.278 45.7084 92.3068 46.5638C87.824 50.5123 84.7524 55.8934 83.6581 61.716C83.4465 62.842 82.4626 63.6273 81.3573 63.6273Z" fill="#D96486"/>
<path d="M138.643 63.6275C137.537 63.6275 136.554 62.8422 136.342 61.7163C135.248 55.8939 132.176 50.5126 127.694 46.5643C126.722 45.7087 126.628 44.2279 127.484 43.2565C128.339 42.2853 129.82 42.1914 130.792 43.0468C136.055 47.6827 139.662 54.0055 140.949 60.8504C141.188 62.1226 140.35 63.3475 139.078 63.5866C138.932 63.6142 138.786 63.6275 138.643 63.6275Z" fill="#D96486"/>
</g>
<defs>
<clipPath id="clip0_2401_9854">
<rect width="190" height="190" fill="white" transform="translate(0 -41)"/>
</clipPath>
<clipPath id="clip1_2401_9854">
<rect width="80" height="80" fill="white" transform="translate(70 35)"/>
</clipPath>
</defs>
</svg>
