<svg width="299" height="273" viewBox="0 0 299 273" fill="none" xmlns="http://www.w3.org/2000/svg">
<path d="M174.457 83.8214L184.623 80.4205C190.752 83.6433 197.912 85.0893 205.365 84.1014C222.178 81.8744 234.944 67.3529 234.981 50.3787C235.029 29.0571 216.137 12.6514 195.058 15.7112C178.154 18.1657 165.565 33.0605 165.897 50.1594C166.067 58.9027 169.433 66.7718 174.803 72.7609L174.787 72.7501L174.457 83.8214Z" fill="white"/>
<path d="M175.109 84.3115C175.109 84.3115 175.133 84.0473 175.158 83.5634C175.182 83.0463 175.215 82.3393 175.257 81.4267C175.336 79.532 175.451 76.7945 175.598 73.2471L175.35 73.3749L175.366 73.3857C175.44 73.4356 175.54 73.4156 175.589 73.3422C175.63 73.2799 175.62 73.1994 175.574 73.1458C172.65 69.824 169.366 64.8435 167.768 58.1612C166.945 54.843 166.654 51.122 166.983 47.2236C167.308 43.3296 168.33 39.2406 170.23 35.3234C172.12 31.4085 174.883 27.6731 178.457 24.5619C182.02 21.4496 186.398 18.9714 191.28 17.5505C200.996 14.6728 212.87 16.4291 221.76 23.4229L223.415 24.7381L224.938 26.1929C225.998 27.1144 226.814 28.2619 227.752 29.2809C229.424 31.4881 230.95 33.7931 232.042 36.2756C234.321 41.194 235.37 46.5093 235.259 51.6286C235.11 56.7516 233.803 61.6445 231.669 65.8969C229.538 70.158 226.596 73.7785 223.269 76.5942C216.571 82.2549 208.537 84.5957 201.741 84.6437C194.877 84.7379 189.251 82.791 185.348 80.7695C185.305 80.7667 185.265 80.765 185.222 80.7622C181.983 81.8907 179.479 82.762 177.747 83.3657C176.915 83.6606 176.268 83.8891 175.793 84.0571C175.347 84.2159 175.109 84.3115 175.109 84.3115C175.1 84.3227 175.314 84.2594 175.744 84.1262C176.212 83.9781 176.854 83.7772 177.679 83.5156C179.451 82.9467 182.012 82.1245 185.325 81.0613L185.201 81.0517C189.112 83.1471 194.787 85.1795 201.748 85.1383C208.64 85.1432 216.83 82.816 223.677 77.0796C227.078 74.2277 230.092 70.5489 232.279 66.2098C234.47 61.8805 235.817 56.8867 235.981 51.6564C236.106 46.432 235.043 40.9999 232.719 35.9704C231.603 33.4308 230.049 31.0743 228.338 28.819C227.381 27.7748 226.547 26.6055 225.464 25.6622L223.908 24.1768L222.217 22.8311C213.131 15.6829 200.986 13.9 191.072 16.8596C186.09 18.3214 181.628 20.8625 178.003 24.0472C174.369 27.2321 171.566 31.0497 169.658 35.0454C167.741 39.0445 166.724 43.2118 166.414 47.1729C166.102 51.1374 166.424 54.9121 167.284 58.2741C168.957 65.0427 172.336 70.0497 175.335 73.3596L175.541 73.1186L175.526 73.1078C175.453 73.0589 175.354 73.0778 175.305 73.1513C175.287 73.1757 175.279 73.209 175.279 73.2366C175.215 76.8359 175.166 79.6136 175.13 81.5353C175.119 82.4299 175.109 83.1234 175.104 83.6303C175.098 84.0941 175.1 84.3227 175.109 84.3115Z" fill="#263238"/>
<path d="M189.977 42.0464C190.855 42.0464 191.643 42.2743 192.34 42.73C193.043 43.1792 193.6 43.7847 194.01 44.5464C194.42 45.3081 194.625 46.1545 194.625 47.0854C194.625 48.4982 194.29 49.8328 193.619 51.0894C193.176 51.9292 192.623 52.6649 191.959 53.2964C191.295 53.9214 190.566 54.4064 189.771 54.7515C188.984 55.0965 188.167 55.269 187.32 55.269C186.396 55.269 185.585 55.0412 184.889 54.5854C184.199 54.1297 183.661 53.5047 183.277 52.7104C182.9 51.9162 182.711 51.0177 182.711 50.0151C182.711 48.661 183.069 47.3621 183.785 46.1187C184.267 45.2853 184.84 44.5659 185.504 43.9604C186.168 43.3485 186.884 42.8765 187.652 42.5444C188.421 42.2124 189.195 42.0464 189.977 42.0464ZM189.527 42.8667C188.824 42.8667 188.167 43.0653 187.555 43.4624C186.949 43.853 186.415 44.3804 185.953 45.0444C185.491 45.7085 185.13 46.4572 184.869 47.2905C184.615 48.1239 184.488 48.98 184.488 49.8589C184.488 50.7443 184.618 51.5321 184.879 52.2222C185.139 52.9058 185.517 53.4461 186.012 53.8433C186.513 54.2339 187.118 54.4292 187.828 54.4292C188.505 54.4292 189.143 54.2306 189.742 53.8335C190.348 53.4299 190.882 52.8895 191.344 52.2124C191.806 51.5353 192.167 50.7769 192.428 49.937C192.695 49.0972 192.828 48.2378 192.828 47.3589C192.828 46.4865 192.698 45.715 192.438 45.0444C192.184 44.3674 191.809 43.8368 191.314 43.4526C190.826 43.062 190.23 42.8667 189.527 42.8667ZM199.352 46.5776C200.12 46.5776 200.715 46.8446 201.139 47.3784C201.562 47.9123 201.773 48.6479 201.773 49.5854C201.773 50.256 201.643 50.9233 201.383 51.5874C201.122 52.245 200.781 52.8439 200.357 53.3843C199.934 53.9246 199.469 54.3576 198.961 54.6831C198.453 55.0086 197.952 55.1714 197.457 55.1714C196.676 55.1714 196.08 54.9175 195.67 54.4097C195.26 53.9019 195.055 53.1792 195.055 52.2417C195.055 51.5646 195.182 50.894 195.436 50.23C195.696 49.5594 196.038 48.9507 196.461 48.4038C196.884 47.8504 197.346 47.4077 197.848 47.0757C198.355 46.7437 198.857 46.5776 199.352 46.5776ZM199.117 47.3784C198.792 47.3784 198.476 47.5216 198.17 47.8081C197.864 48.0881 197.587 48.4559 197.34 48.9116C197.092 49.3674 196.897 49.8654 196.754 50.4058C196.611 50.9461 196.539 51.4735 196.539 51.9878C196.539 52.743 196.66 53.3289 196.9 53.7456C197.141 54.1623 197.444 54.3706 197.809 54.3706C198.134 54.3706 198.443 54.2306 198.736 53.9507C199.036 53.6642 199.303 53.2931 199.537 52.8374C199.771 52.3752 199.954 51.8739 200.084 51.3335C200.221 50.7931 200.289 50.2625 200.289 49.7417C200.289 48.9735 200.185 48.3875 199.977 47.9839C199.768 47.5802 199.482 47.3784 199.117 47.3784ZM208.668 46.5776C209.267 46.5776 209.729 46.8348 210.055 47.3491C210.38 47.8634 210.543 48.4852 210.543 49.2144C210.543 50.1128 210.257 51.034 209.684 51.978C209.306 52.603 208.873 53.1564 208.385 53.6382C207.896 54.1134 207.405 54.4845 206.91 54.7515C206.422 55.0184 205.973 55.1519 205.562 55.1519C205.23 55.1519 204.97 55.0998 204.781 54.9956L204.234 57.9058C204.195 58.0685 204.176 58.2508 204.176 58.4526C204.176 58.7065 204.267 58.8563 204.449 58.9019C204.618 58.9409 204.924 58.9604 205.367 58.9604C205.393 58.9604 205.406 58.9995 205.406 59.0776C205.406 59.2795 205.374 59.4227 205.309 59.5073C205.263 59.5073 205.208 59.5073 205.143 59.5073C205.084 59.5073 205.019 59.5041 204.947 59.4976C204.876 59.491 204.811 59.4878 204.752 59.4878C204.7 59.4878 204.658 59.4878 204.625 59.4878C203.74 59.4878 202.809 59.5464 201.832 59.6636C201.793 59.6506 201.773 59.5985 201.773 59.5073C201.773 59.3185 201.799 59.1818 201.852 59.0972C202.203 59.0972 202.464 58.993 202.633 58.7847C202.77 58.6089 202.874 58.3289 202.945 57.9448L204.488 49.9761L203.551 50.9136C203.473 50.8224 203.434 50.6922 203.434 50.5229C203.434 50.4709 203.453 50.4253 203.492 50.3862L204.645 49.1558L205.152 46.6167C205.361 46.5646 205.576 46.5386 205.797 46.5386C206.018 46.5386 206.227 46.5841 206.422 46.6753C206.363 46.9487 206.314 47.1766 206.275 47.3589C206.243 47.5412 206.22 47.6779 206.207 47.769C206.337 47.6519 206.454 47.5477 206.559 47.4565C206.663 47.3654 206.757 47.2873 206.842 47.2222C207.005 47.092 207.258 46.952 207.604 46.8022C207.949 46.6525 208.303 46.5776 208.668 46.5776ZM207.887 47.7104C207.112 47.7104 206.487 48.0555 206.012 48.7456L205.172 53.062C205.12 53.3615 205.146 53.6349 205.25 53.8823C205.354 54.1297 205.582 54.2534 205.934 54.2534C206.311 54.2534 206.686 54.12 207.057 53.853C207.434 53.5796 207.776 53.2183 208.082 52.769C208.388 52.3198 208.632 51.8218 208.814 51.2749C209.003 50.7215 209.098 50.1649 209.098 49.605C209.098 48.342 208.694 47.7104 207.887 47.7104ZM215.465 46.519C216.207 46.519 216.793 46.7664 217.223 47.2612C217.288 47.411 217.32 47.5477 217.32 47.6714C217.32 47.9058 217.258 48.1076 217.135 48.2769C217.011 48.4461 216.852 48.5308 216.656 48.5308C216.48 48.5308 216.318 48.4364 216.168 48.2476C216.025 48.0588 215.846 47.8667 215.631 47.6714C215.416 47.4761 215.133 47.3784 214.781 47.3784C214.508 47.3784 214.293 47.4696 214.137 47.6519C213.98 47.8341 213.902 48.0425 213.902 48.2769C213.902 48.6154 214.029 48.9767 214.283 49.3608C214.537 49.745 214.814 50.0868 215.113 50.3862C215.413 50.6857 215.689 51.0503 215.943 51.48C216.197 51.9097 216.324 52.3459 216.324 52.7886C216.324 53.5047 216.064 54.0841 215.543 54.5269C215.022 54.9696 214.352 55.1909 213.531 55.1909C212.789 55.1909 212.203 54.9435 211.773 54.4487C211.708 54.3446 211.676 54.2209 211.676 54.0776C211.676 53.8433 211.738 53.6349 211.861 53.4526C211.985 53.2703 212.145 53.1792 212.34 53.1792C212.516 53.1792 212.678 53.2736 212.828 53.4624C212.971 53.6512 213.15 53.8433 213.365 54.0386C213.58 54.2339 213.863 54.3315 214.215 54.3315C214.501 54.3315 214.732 54.2371 214.908 54.0483C215.084 53.8595 215.172 53.6545 215.172 53.4331C215.172 53.0946 215.045 52.7332 214.791 52.3491C214.537 51.965 214.26 51.6232 213.961 51.3237C213.661 51.0243 213.385 50.6597 213.131 50.23C212.877 49.8003 212.75 49.3641 212.75 48.9214C212.75 48.5568 212.87 48.189 213.111 47.8179C213.352 47.4468 213.678 47.1375 214.088 46.8901C214.498 46.6427 214.957 46.519 215.465 46.519ZM221.344 42.7495C221.539 42.7495 221.689 42.8341 221.793 43.0034C221.897 43.1727 221.949 43.368 221.949 43.5894C221.949 43.7456 221.842 44.2241 221.627 45.0249C221.464 45.6369 221.272 46.34 221.051 47.1343C220.836 47.9285 220.618 48.7326 220.396 49.5464C220.182 50.3537 219.99 51.0894 219.82 51.7534C219.794 51.8706 219.713 51.9715 219.576 52.0562C219.439 52.1408 219.339 52.1831 219.273 52.1831C219.195 52.1831 219.156 52.0659 219.156 51.8315C219.156 51.8185 219.169 51.6948 219.195 51.4604C219.228 51.2261 219.27 50.881 219.322 50.4253C219.4 49.8133 219.488 49.1037 219.586 48.2964C219.69 47.4891 219.794 46.6851 219.898 45.8843C220.009 45.077 220.107 44.3836 220.191 43.8042C220.23 43.5828 220.361 43.3517 220.582 43.1108C220.803 42.87 221.057 42.7495 221.344 42.7495ZM217.984 54.3706C217.984 54.006 218.108 53.7 218.355 53.4526C218.603 53.2052 218.909 53.0815 219.273 53.0815C219.508 53.0815 219.706 53.1727 219.869 53.355C220.032 53.5373 220.113 53.7456 220.113 53.98C220.113 54.3576 219.993 54.6799 219.752 54.9468C219.511 55.2137 219.208 55.3472 218.844 55.3472C218.596 55.3472 218.391 55.2495 218.229 55.0542C218.066 54.8589 217.984 54.631 217.984 54.3706Z" fill="#0E0F0C"/>
<g clip-path="url(#clip0_7901_7127)">
<path d="M245.766 198.843C245.589 197.715 244.532 196.942 243.399 197.119C242.27 197.295 241.498 198.355 241.674 199.484C241.972 201.412 242.348 207.451 240.264 209.881C239.813 210.406 239.267 210.722 238.582 210.847L238.772 199.345C238.799 197.674 237.453 196.305 235.778 196.305C234.097 196.305 232.744 197.691 232.785 199.372L233.327 221.2C232.609 221.085 232.042 220.77 231.574 220.224C229.49 217.794 229.869 211.755 230.164 209.827C230.34 208.698 229.567 207.638 228.439 207.461C227.306 207.285 226.249 208.058 226.072 209.186C225.923 210.135 224.726 218.594 228.425 222.911C229.696 224.396 231.419 225.24 233.429 225.368L233.663 234.871H238.182L238.511 215.019C240.477 214.866 242.159 214.029 243.41 212.568C247.112 208.251 245.915 199.796 245.766 198.843Z" fill="#BDBDBD"/>
<path d="M52.8476 217.35C52.7357 216.632 52.061 216.137 51.3389 216.252C50.6202 216.364 50.1252 217.038 50.2405 217.76C50.4304 218.99 50.6711 222.84 49.3421 224.389C49.054 224.724 48.7082 224.924 48.2708 225.006L48.3929 217.672C48.4098 216.608 47.5521 215.734 46.4842 215.734C45.4129 215.734 44.5518 216.618 44.5755 217.689L44.9213 231.604C44.4636 231.529 44.1009 231.329 43.806 230.984C42.477 229.435 42.7177 225.585 42.9076 224.355C43.0194 223.637 42.5279 222.959 41.8091 222.847C41.087 222.735 40.4124 223.226 40.3005 223.945C40.2056 224.552 39.4428 229.94 41.799 232.695C42.6092 233.641 43.7076 234.179 44.9891 234.261L45.1383 240.317H48.0199L48.2301 227.663C49.4811 227.564 50.5558 227.032 51.3525 226.1C53.7053 223.345 52.9425 217.953 52.8476 217.35Z" fill="#BDBDBD"/>
<path d="M149.5 272.25C231.79 272.25 298.5 261.098 298.5 247.341C298.5 233.583 231.79 222.431 149.5 222.431C67.2096 222.431 0.5 233.583 0.5 247.341C0.5 261.098 67.2096 272.25 149.5 272.25Z" fill="url(#paint0_linear_7901_7127)"/>
<path d="M173.284 211.288C173.284 211.288 173.196 216.361 173.28 216.869C173.365 217.378 171.294 220.353 170.446 220.221C169.599 220.089 167.904 219.807 167.659 219.526C167.415 219.245 167.524 218.577 167.609 217.971C167.697 217.361 168.331 211.837 168.331 211.555C168.331 211.274 172.341 210.515 173.284 211.288Z" fill="#FFD3BC"/>
<path d="M169.999 216.578C168.938 217.15 168.344 218.892 168.192 218.913C168.043 218.933 167.761 218.892 167.761 218.719C167.761 218.547 167.805 217.967 167.612 217.967C167.419 217.967 167.202 218.913 167.161 220.292C167.117 221.671 166.629 224.955 167.161 225.372C167.497 225.633 170.565 227.246 170.65 227.459C170.734 227.676 170.585 229.181 170.843 229.418C171.101 229.655 171.704 230.235 172.179 230.259C172.653 230.279 175.386 230.56 176.681 230.259C177.972 229.957 179.61 229.333 179.654 229.161C179.698 228.988 179.332 225.328 178.922 224.877C178.512 224.426 175.562 220.377 175.325 220.011C175.087 219.645 174.915 218.763 174.915 218.245C174.915 217.73 174.447 216.601 173.575 216.33C172.667 216.049 170.795 216.147 169.999 216.578Z" fill="#FE889D"/>
<path d="M142.345 214.222C142.345 214.222 142.345 217.178 142.26 217.686C142.176 218.194 144.247 221.17 145.095 221.038C145.942 220.905 147.637 220.624 147.881 220.343C148.125 220.062 148.017 219.394 147.932 218.787C147.844 218.177 147.298 214.771 147.298 214.49C147.298 214.202 143.288 213.45 142.345 214.222Z" fill="#FFD3BC"/>
<path d="M145.074 149.017C143.874 153.375 141.606 168.31 141.606 175.569C141.606 182.828 140.881 201.334 140.881 204.144C140.881 206.957 140.579 213.934 141.304 214.297C142.03 214.66 143.728 215.751 146.03 215.388C148.332 215.026 148.939 213.572 149 212.24C149.061 210.908 149.607 201.338 150.153 197.644C150.699 193.95 152.638 186.823 153.909 182.241C155.18 177.656 158.15 168.442 158.937 168.476C159.723 168.51 164.632 188.701 165.039 189.846C165.449 190.992 166.226 207.248 166.276 208.614C166.327 209.979 166.276 211.291 167.134 211.847C167.992 212.403 170.623 213.768 171.985 213.867C173.352 213.968 174.26 211.796 174.511 211.139C174.765 210.481 175.213 188.735 175.05 182.77C174.887 176.806 175.362 165.68 175.084 162.054C174.809 158.428 173.921 150.654 173.355 149.017C172.796 147.38 145.074 149.017 145.074 149.017Z" fill="#192B59"/>
<path d="M136.602 98.3428C137.748 97.0719 143.088 91.0533 144.149 90.8398C145.21 90.6263 147.79 90.162 148.363 89.5689C148.939 88.9759 151.37 81.3407 150.407 79.9513C149.444 78.5618 145.725 78.9549 144.6 81.3204C143.474 83.6858 143.528 84.9228 141.671 86.5562C139.813 88.1897 131.714 94.8082 130.961 95.4758C130.208 96.1434 131.703 99.3933 132.887 99.9559C134.073 100.518 136.602 98.3428 136.602 98.3428Z" fill="url(#paint1_linear_7901_7127)"/>
<path d="M151.366 100.176C148.637 100.749 144.101 101.233 142.606 101.718C141.108 102.203 135.209 104.27 135.253 103.389C135.297 102.508 137.982 98.6375 137.497 98.241C137.012 97.8445 134.107 97.3599 133.622 96.7431C133.137 96.1264 132.476 94.6759 131.819 94.8521C131.157 95.0284 123.502 102.155 124.025 104.887C125.259 111.322 143.355 116.009 143.769 118.815C144.183 121.621 142.365 148.529 143.355 149.518C144.345 150.508 154.831 154.307 160.116 154.636C165.402 154.964 174.67 153.124 175.176 151.735C175.681 150.345 172.596 123.61 172.955 123.61C173.314 123.61 173.413 132.025 177.44 134.201C180.098 135.637 183.753 134.156 184.451 133.363C185.149 132.57 181.952 121.384 180.508 117.609C179.061 113.837 177.677 106.039 174.406 103.274C171.134 100.508 166.517 100.976 164.927 100.329C163.337 99.6779 158.004 100.146 156.658 100.003C155.316 99.8609 151.366 100.176 151.366 100.176Z" fill="#FE889D"/>
<path d="M185.458 128.307C185.458 128.307 180.752 129.731 180.386 130.219C180.02 130.707 179.366 132.665 180.386 133.482C181.407 134.299 182.525 134.909 183.736 133.967C184.946 133.025 186.048 131.761 186.746 131.598C187.444 131.439 189.536 131.737 190.414 131.395C191.292 131.049 192.957 124.396 192.286 123.993C191.611 123.59 185.458 128.307 185.458 128.307Z" fill="url(#paint2_linear_7901_7127)"/>
<path d="M151.387 99.2781C149.868 98.9629 146.935 96.0959 146.667 93.1848C146.406 90.3483 144.318 82.3743 151.583 79.3819C158.401 76.5759 165.415 79.4632 166.425 82.9233C167.368 86.1563 159.364 86.302 156.431 88.4065C153.499 90.511 153.299 91.9072 152.566 91.5751C151.831 91.243 151.387 99.2781 151.387 99.2781Z" fill="#353533"/>
<path d="M151.265 93.5949C151.17 94.8928 150.841 101.179 151.387 102.108C151.888 102.958 152.777 105.429 156.258 105.32C159.743 105.212 162.001 101.728 162.195 101.322C162.384 100.915 161.978 95.879 161.978 95.0351C161.978 94.1913 157.296 92.2054 155.418 92.2596C153.536 92.3105 151.356 92.3749 151.265 93.5949Z" fill="url(#paint3_linear_7901_7127)"/>
<path d="M151.583 93.6153C151.977 93.6051 151.512 96.0011 152.224 96.7839C152.936 97.5667 156.035 101.65 159.313 101.25C162.147 100.905 161.74 98.4648 162.15 96.4518C162.52 94.6252 163.7 94.4693 164.113 89.7011C164.273 87.8576 165.147 84.9669 163.544 84.4348C161.94 83.8994 155.926 82.476 154.431 84.4348C152.936 86.3936 152.794 91.0906 152.01 90.484C151.227 89.8774 149.59 86.9256 148.627 88.5252C147.668 90.1281 149.485 93.6763 151.583 93.6153Z" fill="#F2DAD4"/>
<path d="M176.898 117.995L167.354 130.056C166.859 130.683 167.314 131.605 168.114 131.591L185.753 131.293C186.044 131.29 186.319 131.147 186.495 130.913L195.51 118.873C195.937 118.303 195.527 117.49 194.815 117.497L177.633 117.639C177.345 117.636 177.074 117.768 176.898 117.995Z" fill="url(#paint4_linear_7901_7127)"/>
<path d="M191.984 122.851C191.055 122.946 189.706 123.468 189.706 123.953C189.706 124.437 190.787 124.569 191.085 124.617C191.384 124.661 191.777 124.756 191.665 124.905C191.553 125.054 191.33 125.8 190.733 125.671C190.136 125.539 187.522 125.501 187.017 125.501C186.512 125.501 185.915 125.857 185.878 126.23C185.841 126.603 185.729 126.677 185.431 126.698C185.132 126.718 184.59 126.996 184.59 127.481C184.59 127.965 185.79 128.402 185.79 128.575C185.79 128.748 188.143 130.181 188.604 130.449C189.065 130.717 189.926 131.395 190.411 131.395C190.896 131.395 191.709 130.934 191.77 130.266C191.831 129.599 192.791 129.114 192.801 128.785C192.814 128.457 192.499 128.216 192.533 128.009C192.57 127.802 193.408 127.511 193.408 126.989C193.408 126.467 193.079 125.766 193.031 125.545C192.984 125.329 192.787 124.854 192.984 124.793C193.177 124.732 193.859 124.102 193.737 123.519C193.614 122.939 192.414 122.807 191.984 122.851Z" fill="#FFD3BC"/>
<path d="M145.542 217.395C146.603 217.967 147.197 219.709 147.349 219.729C147.498 219.75 147.78 219.709 147.78 219.536C147.78 219.363 147.736 218.784 147.929 218.784C148.122 218.784 148.339 219.729 148.38 221.109C148.424 222.488 148.912 225.772 148.38 226.189C148.044 226.45 144.976 228.063 144.891 228.276C144.806 228.493 144.956 229.998 144.698 230.235C144.44 230.472 143.837 231.052 143.362 231.075C142.888 231.096 140.155 231.377 138.86 231.075C137.568 230.774 135.931 230.15 135.887 229.977C135.843 229.805 136.209 226.145 136.619 225.694C137.029 225.243 139.979 221.193 140.216 220.827C140.453 220.461 140.626 219.58 140.626 219.062C140.626 218.547 141.094 217.418 141.965 217.147C142.874 216.866 144.745 216.964 145.542 217.395Z" fill="#FE889D"/>
</g>
<defs>
<linearGradient id="paint0_linear_7901_7127" x1="149.501" y1="211.141" x2="149.501" y2="250.256" gradientUnits="userSpaceOnUse">
<stop stop-color="#F4F4F4"/>
<stop offset="0.4764" stop-color="#F4F4F4"/>
<stop offset="1" stop-color="white"/>
</linearGradient>
<linearGradient id="paint1_linear_7901_7127" x1="153.693" y1="91.0202" x2="139.109" y2="89.3921" gradientUnits="userSpaceOnUse">
<stop stop-color="#F2BFAD"/>
<stop offset="1" stop-color="#F2DAD4"/>
</linearGradient>
<linearGradient id="paint2_linear_7901_7127" x1="186.264" y1="130.476" x2="187.006" y2="143.051" gradientUnits="userSpaceOnUse">
<stop stop-color="#F2BFAD"/>
<stop offset="0.7043" stop-color="#F2DAD4"/>
</linearGradient>
<linearGradient id="paint3_linear_7901_7127" x1="155.585" y1="96.2531" x2="160.404" y2="106.321" gradientUnits="userSpaceOnUse">
<stop stop-color="#F2BFAD"/>
<stop offset="1" stop-color="#F2DAD4"/>
</linearGradient>
<linearGradient id="paint4_linear_7901_7127" x1="178.174" y1="118.549" x2="186.565" y2="133.99" gradientUnits="userSpaceOnUse">
<stop stop-color="#F6DBDB"/>
<stop offset="1" stop-color="#EB9A99"/>
</linearGradient>
<clipPath id="clip0_7901_7127">
<rect width="298" height="194" fill="white" transform="translate(0.5 78.25)"/>
</clipPath>
</defs>
</svg>
