<svg width="343" height="149" viewBox="0 0 343 149" fill="none" xmlns="http://www.w3.org/2000/svg">
<path opacity="0.5" d="M0 108.005V149H343V130.84C314.891 124.576 297.151 146.582 255.888 147.108C112.928 148.972 75.2092 79.1305 0 108.005Z" fill="#FFDEEB"/>
<path opacity="0.5" d="M268.02 43.4037C224.698 39.3186 221.482 30.7196 183.159 22.5495C158.166 16.9325 134.639 26.9562 113.061 27.5741C54.7431 29.249 43.5294 0.852755 46.412 0H343V32.9919C323.172 40.0642 299.745 45.9262 268.02 43.4037Z" fill="#FFDEEB"/>
<path d="M236.601 70.5331C236.304 72.3179 235.808 73.7601 236.481 73.7601C237.185 73.7601 238.059 72.302 238.451 70.4375C238.876 68.4296 238.764 67.1787 238.187 67.1787C237.21 67.1787 236.985 68.2544 236.601 70.5331Z" fill="#FFBF9D"/>
<path d="M252.622 60.693C252.422 59.442 252.189 58.0636 251.877 56.7649C251.661 55.8645 251.604 54.9243 251.709 54.008C251.797 53.2272 251.604 52.3029 251.1 50.6775C250.227 47.8967 246.758 33.2519 244.243 26.8617C243.449 24.8459 243.834 23.8818 243.57 22.5352C243.281 21.0213 242.352 17.6908 241.11 16.416C240.221 15.4997 239.516 14.3523 239.388 14.0256C239.019 13.0775 238.699 11.8425 238.563 11.1174C238.355 10.0258 237.994 9.57961 237.401 9.73896C236.704 9.92222 237.473 13.2767 237.626 14.5196C237.129 13.7149 236.224 12.3285 235.647 11.3006C235.351 10.7748 234.533 8.31273 233.444 8.41631C232.595 8.49599 233.708 10.5517 233.837 10.9421C233.092 9.84254 231.85 7.51595 231.081 8.08963C230.296 8.67128 232.539 12.3046 232.963 13.4201C232.114 12.5516 229.358 8.71908 228.517 9.78677C227.828 10.6553 231.61 15.0614 231.834 15.3403C230.224 14.7507 228.814 15.2606 228.87 15.8742C228.926 16.5594 230.424 16.7745 231.425 17.7068C233.3 19.4517 234.013 21.0134 235.567 22.2564C236.921 23.332 238.403 26.2243 238.531 27.9613C238.659 29.5867 240.83 34.1602 241.431 39.3951C242.032 44.5821 242.929 49.7851 244.13 53.4503C244.451 54.4303 244.467 55.498 244.106 56.4621C244.082 56.5258 244.058 56.5816 244.042 56.6453C242.993 59.8643 244.122 66.4138 244.09 69.6806C244.058 73.1785 242.376 76.0867 241.919 78.8436C241.198 83.1542 241.078 85.9668 243.514 89.2256C245.052 91.2813 252.998 97.9025 252.598 93.8947C252.245 90.381 252.237 87.6082 252.87 84.2537C254.464 76.0071 253.551 66.5334 252.622 60.693Z" fill="#FFB4A3"/>
<path d="M235.839 61.8722C237.049 65.7047 237.385 71.2662 235.126 75.9513C232.579 81.2419 228.085 84.8991 223.647 86.2138C218.704 87.6799 212.904 86.0624 206.36 87.5125C200.704 88.7635 197.355 91.608 194.632 93.1059C192.533 94.2612 188.896 92.7872 188.896 89.0981C188.896 85.409 188.896 84.174 188.896 81.7678C188.896 78.4691 190.178 75.1226 193.702 72.9474C198.573 69.9436 204.141 70.5172 208.699 68.7006C214.827 66.2624 216.557 58.9321 222.886 55.9999C228.469 53.4104 234.293 56.98 235.839 61.8722Z" fill="#0E0F0C"/>
<path d="M251.509 114.3H231.017C228.67 114.3 226.667 113.934 225.361 112.77C223.599 111.201 215.845 103.361 214.13 100.173C214.114 100.149 214.106 100.126 214.09 100.102C212.432 96.8986 212.095 92.9865 214.314 91.5044C216.045 90.3491 222.269 88.883 223.911 87.2736C225.369 85.8393 225.658 84.0147 225.153 82.6522C224.568 81.0746 223.447 76.8915 223.102 76.031C222.718 75.051 223.23 74.4693 224.2 74.3179C225.834 74.055 230.817 73.7124 233.252 73.5132C234.462 73.4176 235.054 73.7203 235.175 74.6287C235.335 75.8079 235.415 78.1584 235.455 78.7879C235.583 80.8356 237.658 81.473 239.06 81.4491C240.614 81.4252 245.845 81.0427 248.272 81.1941C249.962 81.3057 251.396 82.4132 251.645 84.2856C251.973 86.7158 253.247 101.934 254.593 110.006C255.057 112.81 252.438 114.3 251.509 114.3Z" fill="#FFB4A3"/>
<path d="M235.335 76.5727C234.862 79.7758 232.563 82.0147 231.65 84.676C230.52 87.9428 229.967 90.5721 226.074 90.5721C224.704 90.5721 222.662 90.2853 220.579 90.7315C218.696 91.1379 217.174 91.1857 215.86 90.7713C218.4 89.7594 222.605 88.5643 223.911 87.2814C225.369 85.8472 225.658 84.0226 225.153 82.6601C224.568 81.0825 223.447 76.8994 223.102 76.0389C222.718 75.0589 223.23 74.4772 224.2 74.3258C225.834 74.0629 230.816 73.7203 233.252 73.5211C234.461 73.4255 235.054 73.7282 235.174 74.6366C235.238 75.1385 235.295 75.8556 235.335 76.5727Z" fill="#FEB893"/>
<path d="M251.509 114.3C246.334 114.3 236.184 114.3 231.017 114.3C228.67 114.3 226.659 113.934 225.361 112.771C223.591 111.185 215.716 103.241 214.09 100.102C212.432 96.8908 212.095 92.9865 214.314 91.5045C216.045 90.3492 222.269 88.8831 223.903 87.2736C224.68 94.9865 227.412 96.341 230.656 95.345C235.335 93.9028 238.082 87.6003 239.052 81.4571C240.606 81.4332 245.837 81.0508 248.264 81.2022C249.954 81.3137 251.38 82.4133 251.637 84.2937C251.957 86.7239 253.239 101.942 254.585 110.014C255.057 112.81 252.438 114.3 251.509 114.3Z" fill="white"/>
<path d="M236.032 60.0953C234.013 57.5138 231.73 56.5815 228.934 56.5815H228.926H228.918C226.122 56.5815 223.831 57.5138 221.821 60.0953C219.225 63.4259 220.683 69.569 221.164 72.3339C221.54 74.4852 222.534 76.6126 223.823 77.5448C225.041 78.4213 226.523 79.6005 228.926 79.6005H228.934H228.942C231.345 79.6005 232.827 78.4213 234.045 77.5448C235.327 76.6126 236.328 74.4772 236.705 72.3339C237.169 69.5611 238.627 63.4179 236.032 60.0953Z" fill="#FFB4A3"/>
<path d="M224.432 90.5085C223.278 90.4607 221.941 90.4368 220.579 90.7316C218.696 91.138 217.174 91.1858 215.86 90.7715C218.4 89.7596 222.605 88.5644 223.911 87.2816C224.031 88.4927 224.208 89.5683 224.432 90.5085Z" fill="#DCDCF5"/>
<path d="M232.699 73.1706C231.786 72.6846 231.265 72.1268 230.112 71.9914C229.503 71.9196 229.302 72.1348 228.918 72.1348C228.533 72.1348 228.333 71.9196 227.724 71.9914C226.579 72.1268 226.05 72.6925 225.137 73.1706C225.049 73.2184 225.041 73.3379 225.121 73.4017C226.25 74.3897 227.252 75.553 228.918 75.553C230.584 75.553 231.586 74.3897 232.715 73.4017C232.787 73.3379 232.787 73.2184 232.699 73.1706Z" fill="#E03F61"/>
<path d="M229.992 72.8757C229.439 72.8438 229.263 72.9314 228.918 72.9314C228.574 72.9314 228.39 72.8358 227.845 72.8757C227.212 72.9155 226.106 73.1784 225.434 73.3776C226.098 73.8477 226.996 74.2381 228.918 74.2381C230.841 74.2381 231.738 73.8477 232.403 73.3776C231.73 73.1705 230.625 72.9075 229.992 72.8757Z" fill="#312D52"/>
<path d="M229.991 72.8757C229.439 72.8438 229.262 72.9314 228.918 72.9314C228.573 72.9314 228.397 72.8358 227.845 72.8757C227.452 72.8996 226.883 73.0111 226.354 73.1386C226.923 73.3697 227.7 73.5051 228.926 73.5051C230.152 73.5051 230.929 73.3697 231.497 73.1386C230.953 73.0031 230.384 72.8996 229.991 72.8757Z" fill="white"/>
<path d="M228.229 68.1906C228.397 67.0034 229.559 65.3142 228.221 65.2505C224.937 65.0832 221.804 63.0195 223.543 60.0475C224.312 58.7329 225.441 57.8962 225.722 57.3544C225.93 56.9481 223.014 58.5655 221.812 60.0953C219.217 63.4259 220.675 69.569 221.155 72.3339C221.532 74.4852 222.525 76.6126 223.815 77.5448C225.033 78.4213 226.515 79.6005 228.918 79.6005H228.926H228.934C231.337 79.6005 232.819 78.4213 234.037 77.5448C234.646 77.1066 235.19 76.3895 235.639 75.5369C234.862 76.8675 232.683 78.8993 228.926 78.8993C226.395 78.8993 224.184 75.3059 223.463 73.3538C223.302 72.9315 223.382 72.4534 223.671 72.1028C224.512 71.067 225.922 70.2543 226.435 70.2543C226.955 70.2543 228.189 71.6008 228.926 71.6008C229.431 71.6008 230.696 70.7164 230.504 69.9834C230.32 69.2742 228.005 69.7603 228.229 68.1906Z" fill="#FEB893"/>
<path d="M237.417 67.0753C237.321 65.0276 236.864 61.96 232.883 59.8485C227.716 57.1076 222.894 59.4661 222.894 58.0478C222.894 55.8407 228.197 52.3508 233.388 55.5698C237.858 58.3426 238.891 62.0158 238.138 67.0195C237.946 68.3342 237.481 68.4059 237.417 67.0753Z" fill="#312D52"/>
<path d="M220.459 65.3143C220.363 69.9754 221.853 72.6048 220.891 72.9394C219.922 73.2741 217.847 67.609 219.009 63.0912C220.315 58.0237 224.488 57.2349 225.137 57.4262C226.683 57.8723 220.587 59.4978 220.459 65.3143Z" fill="#312D52"/>
<path d="M221.244 70.5331C221.54 72.3179 222.037 73.7601 221.364 73.7601C220.659 73.7601 219.786 72.302 219.393 70.4375C218.969 68.4296 219.081 67.1787 219.658 67.1787C220.635 67.1787 220.859 68.2544 221.244 70.5331Z" fill="#FEB893"/>
<path d="M228.501 69.7127C228.509 69.9043 228.341 69.9921 228.092 70.016C227.844 70.032 227.612 69.9442 227.612 69.8644C227.612 69.7846 227.82 69.6888 228.06 69.6249C228.285 69.5691 228.493 69.5531 228.501 69.7127Z" fill="#312D52"/>
<path d="M229.343 69.7127C229.335 69.9043 229.503 69.9921 229.751 70.016C229.999 70.032 230.232 69.9442 230.232 69.8644C230.232 69.7846 230.023 69.6888 229.783 69.6249C229.551 69.5691 229.351 69.5531 229.343 69.7127Z" fill="#312D52"/>
<path d="M239.268 114.3H231.017C228.67 114.3 226.667 113.934 225.361 112.77C223.743 111.32 217.022 104.556 214.643 101.002C215.292 98.8587 216.598 98.6037 218.664 100.699C221.028 103.098 223.952 105.974 226.707 108.619C228.806 110.627 231.57 111.751 234.181 111.751C237.113 111.759 238.788 112.906 239.268 114.3Z" fill="#DCDCF5"/>
<path d="M232.915 12.3206C233.949 14.1532 234.846 14.687 234.95 15.0057C235.054 15.3244 233.981 14.6073 232.987 13.3962C232.042 11.6353 231.001 9.42825 231.017 9.09361C231.033 8.80677 231.305 9.2689 231.618 9.91429C231.93 10.5597 232.411 11.4361 232.915 12.3206Z" fill="#FEB893"/>
<path d="M233.949 62.2787C234.141 64.0077 232.074 64.5734 229.767 64.5734C227.46 64.5734 225.97 63.4898 225.586 62.2787C225.137 60.8844 225.674 58.7968 229.327 59.3386C231.626 59.6653 233.813 61.0198 233.949 62.2787Z" fill="#FFBF9D"/>
<path d="M229.471 68.5892C229.471 68.8919 229.223 69.1389 228.918 69.1389C228.614 69.1389 228.366 68.8919 228.366 68.5892C228.366 68.2864 228.502 67.6888 228.918 67.6888C229.311 67.6888 229.471 68.2784 229.471 68.5892Z" fill="#FFBF9D"/>
<path d="M228.918 64.9318C229.102 64.9318 229.31 64.9318 229.359 64.9318C229.887 64.9318 230.304 64.4139 230.945 63.9836C231.89 63.3621 232.827 63.3542 233.652 63.3542C234.59 63.3542 235.615 63.6012 236.28 64.1191C236.72 64.4617 237.273 64.6609 237.866 64.6609C237.866 65.0911 237.866 66.0871 237.866 66.4297C237.562 66.5572 237.073 66.8202 236.961 67.3699C236.704 68.6607 236.088 69.9674 233.684 69.9674C232.114 69.9674 231.057 69.4495 230.256 68.1667C229.975 67.7205 229.759 66.9715 229.599 66.5971C229.463 66.2704 229.166 66.1827 228.918 66.1827V64.9318Z" fill="white"/>
<path d="M230.16 66.6926C230.44 68.4137 231.506 69.5451 233.356 69.6328C236.2 69.7602 236.448 68.2942 236.721 66.6926C237.129 64.3262 235.303 63.6968 233.356 63.6968C231.642 63.6968 229.823 64.637 230.16 66.6926Z" fill="#312D52"/>
<path d="M233.556 64.8362C232.018 64.8362 230.696 65.5532 230.144 66.5731C229.903 64.6051 231.674 63.6968 233.356 63.6968C235.254 63.6968 237.041 64.2943 236.744 66.5253C236.248 65.5293 235.07 64.8362 233.556 64.8362Z" fill="#87B0DC"/>
<path d="M228.918 64.9318C228.734 64.9318 228.525 64.9318 228.477 64.9318C227.948 64.9318 227.532 64.4138 226.891 63.9836C225.946 63.3621 225.009 63.3541 224.183 63.3541C223.246 63.3541 222.221 63.6011 221.556 64.119C221.115 64.4617 220.563 64.6609 219.97 64.6609C219.97 65.0911 219.97 66.0871 219.97 66.4297C220.274 66.5572 220.763 66.8201 220.875 67.3699C221.131 68.6607 221.748 69.9674 224.151 69.9674C225.721 69.9674 226.779 69.4495 227.58 68.1667C227.86 67.7205 228.077 66.9715 228.237 66.597C228.373 66.2703 228.669 66.1827 228.918 66.1827V64.9318Z" fill="white"/>
<path d="M227.677 66.6926C227.396 68.4137 226.331 69.5451 224.48 69.6328C221.637 69.7602 221.388 68.2942 221.116 66.6926C220.707 64.3262 222.534 63.6968 224.48 63.6968C226.195 63.6968 228.013 64.637 227.677 66.6926Z" fill="#312D52"/>
<path d="M224.28 64.8362C225.818 64.8362 227.14 65.5532 227.693 66.5731C227.933 64.6051 226.163 63.6968 224.481 63.6968C222.582 63.6968 220.796 64.2943 221.092 66.5253C221.597 65.5293 222.766 64.8362 224.28 64.8362Z" fill="#87B0DC"/>
<path d="M246.174 69.8001C245.773 66.095 245.268 60.9 246.045 58.4061C246.542 56.8126 247.463 55.6652 247.568 54.7409C247.656 53.9601 246.494 52.3825 245.877 50.7969C245.1 48.797 244.179 44.7732 243.418 39.5703C242.785 35.2199 240.67 30.8456 240.069 27.9214C239.637 25.8019 239.877 24.3598 239.469 23.324C238.9 21.8898 238.243 22.4714 237.001 21.1966C236.112 20.2803 232.844 17.8182 231.947 17.1011C231.234 16.5274 230.473 16.3123 229.808 16.0972C229.223 15.906 228.862 15.5713 228.886 15.8581C228.942 16.5434 230.44 16.7585 231.442 17.6907C233.316 19.4357 234.029 20.9974 235.583 22.2403C236.937 23.316 238.419 26.2083 238.547 27.9453C238.676 29.5707 240.846 34.1442 241.447 39.3791C242.048 44.5661 242.945 49.7691 244.147 53.4342C244.467 54.4143 244.483 55.482 244.123 56.4461C244.099 56.5098 244.075 56.5656 244.059 56.6293C243.009 59.8483 244.139 66.3978 244.107 69.6646C244.075 73.1625 242.393 76.0707 241.936 78.8276C241.591 80.8673 241.391 82.5724 241.519 84.1421C241.567 84.66 242.016 85.4169 242.2 84.2058C242.881 79.6961 244.996 74.0071 245.677 75.8795C246.686 78.6363 246.782 77.1225 246.71 75.8158C246.654 74.6365 246.574 73.4971 246.174 69.8001Z" fill="#FEB893"/>
<path d="M252.886 84.2617C252.245 87.6082 252.261 90.389 252.614 93.9028C253.014 97.9106 245.068 91.2893 243.53 89.2336C241.094 85.9669 241.215 83.1622 241.936 78.8516C242.392 76.1187 244.05 73.2264 244.106 69.7683C247.062 71.5611 251.693 70.9635 253.615 69.9118C253.88 74.4932 253.783 79.5767 252.886 84.2617Z" fill="white"/>
<path d="M245.676 75.8955C244.987 74.031 242.873 79.7121 242.2 84.2298C242.015 85.4489 241.567 84.6919 241.519 84.174C241.383 82.5964 241.591 80.8993 241.935 78.8595C242.392 76.1266 244.05 73.2343 244.106 69.7762C244.755 70.1746 245.492 70.4535 246.261 70.6368C246.59 73.6884 246.662 74.7402 246.718 75.8397C246.782 77.1385 246.694 78.6524 245.676 75.8955Z" fill="#DCDCF5"/>
<path d="M234.694 11.715C235.359 12.8145 236.544 14.3204 236.32 14.4957C236.12 14.6551 234.59 12.3524 233.853 10.9262C233.308 9.7549 233.276 9.5318 233.212 9.31667C233.116 8.98999 233.292 9.0139 233.508 9.49197C233.693 9.87442 234.093 10.719 234.694 11.715Z" fill="#FEB893"/>
<path d="M237.81 13.2289C238.123 14.4161 238.427 14.8145 238.387 15.0694C238.355 15.2607 238.139 15.2527 237.642 14.5037C237.386 13.2289 237.137 11.6752 237.113 11.0377C237.097 10.6553 237.297 10.7429 237.426 11.4282C237.49 11.8345 237.666 12.703 237.81 13.2289Z" fill="#FEB893"/>
<path d="M243.177 21.7226C243.145 22.7345 240.646 22.6229 239.781 22.1528C238.828 21.6349 239.549 20.6868 237.153 19.4677C236.537 19.157 235.119 18.1689 234.141 17.412C233.645 17.0216 233.428 16.4001 233.957 16.0894C234.91 15.5316 237.338 14.9579 239.292 15.2607C239.997 15.3723 240.622 16.0176 241.095 16.5674C242.473 18.1371 243.21 20.7266 243.177 21.7226Z" fill="#FFBF9D"/>
<path d="M234.205 17.1411C234.005 17.1411 232.715 16.1372 231.842 15.3325C231.249 14.8066 228.91 11.6593 228.654 10.9024C228.317 9.92233 229.102 11.1016 229.743 12.0019C230.368 12.8704 231.153 13.8425 231.578 14.3206C232.443 15.2847 234.55 17.1411 234.205 17.1411Z" fill="#FEB893"/>
<path d="M248.488 40.7575C250.082 46.7254 251.011 53.251 249.626 52.51C248.48 51.9045 248.512 50.1595 247.911 46.0163C247.102 40.4308 243.826 27.1963 244.114 26.7103C244.33 26.3199 246.902 34.8295 248.488 40.7575Z" fill="#FFBF9D"/>
<path d="M343 61.1311V149H165C165 146.044 166.45 142.371 167.916 139.614C169.302 127.75 174.285 122.475 180.965 117.184C187.558 111.966 198.886 109.328 207.185 109.328C213.481 109.328 259.247 109.328 273.883 109.328C274.58 103.679 275.517 94.3886 276.198 87.2256C274.403 85.9826 267.362 79.457 260.304 75.8396C258.47 75.7759 256.659 75.6484 255.33 75.2341C253.711 74.7241 251.989 73.9911 250.98 73.5051C249.698 71.1785 253.383 65.9596 256.635 63.872C257.316 63.4338 257.965 63.3541 258.734 63.3541C259.896 63.3541 260.505 63.3621 261.314 63.3621C275.148 60.5494 298.404 58.0316 318.326 58.9718C326.513 59.3543 335.221 60.1431 343 61.1311Z" fill="#FF667F"/>
<path d="M304.308 149H303.595C303.346 146.402 302.233 134.69 302.353 131.112C302.409 129.527 302.665 127.678 302.946 125.726C303.467 122.045 304.003 118.236 303.314 115.448C302.401 111.743 299.613 107.432 295.704 102.086L296.281 101.671C300.238 107.081 303.058 111.472 304.003 115.28C304.724 118.204 304.18 122.085 303.651 125.83C303.378 127.766 303.114 129.598 303.066 131.144C302.946 134.658 304.075 146.594 304.308 149Z" fill="#FE889D"/>
<path d="M273.882 109.328C273.762 110.46 273.538 112.659 273.538 112.659H189.289C189.289 110.81 194.263 109.328 198.517 109.328C204.821 109.328 259.247 109.328 273.882 109.328Z" fill="#FE889D"/>
<path d="M197.043 123.065C194.872 128.929 196.058 140.275 197.9 149H197.171C195.329 140.204 194.167 128.794 196.378 122.818C197.812 118.953 203.019 113.886 205.831 112.348L206.175 112.97C203.452 114.46 198.421 119.344 197.043 123.065Z" fill="#FE889D"/>
<path d="M208.122 128.642C208.435 132.714 205.847 134.06 202.923 134.06C200.135 134.06 197.7 131.638 197.7 128.642C197.7 125.646 199.607 123.224 202.587 123.224C205.631 123.216 207.89 125.654 208.122 128.642Z" fill="#E03F61"/>
<path d="M206.912 130.021C204.637 129.909 200.223 129.407 198.541 129.192C198.341 129.168 198.189 129.001 198.173 128.802C198.157 128.555 198.141 128.308 198.149 128.045C198.149 127.853 198.293 127.694 198.485 127.678C200.031 127.519 204.998 127.24 206.88 127.192C207.137 127.184 207.369 127.359 207.425 127.606C207.553 128.14 207.633 128.706 207.665 129.256C207.689 129.686 207.337 130.045 206.912 130.021Z" fill="#FF667F"/>
<path d="M219.578 99.6395C218.897 106.548 215.564 113.089 211.07 119.161C208.547 122.571 205.999 124.3 203.724 124.292C201.401 124.284 200.464 120.252 202.05 115.495C203.692 110.547 207.369 107.042 209.316 101.074C211.343 94.8588 213.225 90.8191 216.189 91.0661C218.632 91.2653 220.179 93.5043 219.578 99.6395Z" fill="#FFB4A3"/>
<path d="M219.577 99.6395C219.265 102.803 218.4 105.886 217.118 108.89C216.357 104.117 209.011 102.914 207.553 105.217C208.21 103.95 208.819 102.588 209.316 101.074C211.342 94.8588 213.225 90.8191 216.189 91.0661C218.632 91.2653 220.178 93.5043 219.577 99.6395Z" fill="white"/>
<path d="M240.286 110.555C239.933 111.328 239.108 111.519 238.371 111.352C236.849 111.001 233.669 109.591 232.627 109.137C231.546 108.667 230.809 108.579 229.607 109.352C224.248 112.778 215.268 120.34 209.869 122.666C206.825 123.981 203.556 125.104 202.331 123.607C200.841 121.782 201.385 116.683 205.359 113.416C208.675 110.691 212.264 110.276 216.43 108.794C220.563 107.32 226.155 104.906 229.784 103.464C232.403 102.428 234.222 103.297 235.696 103.846C236.849 104.277 239.164 105.265 240.23 105.751C241.768 106.468 240.702 109.639 240.286 110.555Z" fill="#FFB4A3"/>
<path d="M240.71 109.36C239.541 109.185 237.65 108.555 237.041 108.316C235.952 107.886 235.175 107.225 234.398 106.205C233.805 105.416 231.338 103.95 229.543 105.034C224.096 108.324 215.044 109.759 209.644 112.093C207.698 112.93 206.112 114.005 205.278 114.228C204.782 114.356 204.005 114.587 205.351 113.416C208.667 110.691 212.256 110.276 216.421 108.794C220.555 107.32 226.147 104.906 229.775 103.464C232.395 102.428 234.213 103.297 235.687 103.846C236.841 104.277 239.156 105.265 240.222 105.751C241.343 106.269 241.095 108.061 240.71 109.36Z" fill="#FEB893"/>
<path d="M296.601 102.109C296.601 102.109 295.111 102.309 294.198 102.428C292.452 102.651 291.298 101.392 290.537 100.548C287.901 97.6316 280.251 88.7077 276.935 85.9508C276.678 85.7357 276.286 85.8871 276.238 86.2137C276.166 86.6599 276.102 87.1221 276.062 87.4487C274.267 86.2058 267.226 79.6802 260.168 76.0628C258.334 75.999 256.523 75.8715 255.193 75.4572C253.575 74.9473 251.853 74.2142 250.844 73.7282C250.619 73.3139 250.547 72.8119 250.603 72.2462C250.187 72.0869 249.93 71.9753 249.53 71.7522C249.554 71.4494 249.666 70.6606 249.738 70.2383C250.155 70.2224 250.795 70.2224 251.204 70.2383C251.46 69.6806 251.781 69.1069 252.157 68.5332C258.454 68.581 263.42 70.8996 269.597 75.4094C281.293 83.9429 289.528 92.5242 296.601 102.109Z" fill="#FE889D"/>
<path d="M286.564 112.707C286.292 113.774 285.322 114.523 284.217 114.523H242.401C239.789 114.523 237.714 112.189 237.874 109.424L238.195 103.958C238.443 99.7272 241.431 96.2373 245.389 95.568L259.96 93.098C264.622 92.3092 269.365 93.9027 272.737 97.3926L274.035 98.7392C275.149 99.8945 276.647 100.54 278.209 100.54H286.099L287.269 109.942L286.564 112.707Z" fill="#FF667F"/>
<path d="M242.2 107.185C242.032 106.635 241.727 105.161 241.487 103.95H238.203L237.882 109.416C237.722 112.181 239.797 114.515 242.408 114.515H284.225C285.33 114.515 286.299 113.766 286.572 112.699L287.277 109.942H246.87C244.467 109.95 242.801 109.209 242.2 107.185Z" fill="#FE889D"/>
<path d="M183.681 149C181.831 144.275 177.954 139.55 174.477 139.55C171 139.55 168.02 142.929 167.163 149H183.681Z" fill="#312D52"/>
<path d="M183.681 149H174.325C175.919 147.016 179.171 146.028 181.07 146.028C181.494 146.028 181.887 146.036 182.263 146.06C182.808 147.008 183.289 148.004 183.681 149Z" fill="#48487C"/>
<path d="M343 97.1933V97.9025C325.08 98.3965 309.619 99.8307 296.057 102.221L295.929 101.528C309.539 99.1216 325.032 97.6873 343 97.1933Z" fill="#FE889D"/>
<path d="M342.999 61.6809V97.5041C339.571 97.6077 336.535 97.7352 334.035 97.8865C324.342 98.4682 317.189 95.5281 309.618 92.2772C296.489 86.6281 277.095 66.2226 264.141 63.88C279.177 61.1949 301.776 58.8444 320.505 59.7527C327.45 60.0953 335.533 60.7885 342.999 61.6809Z" fill="white"/>
<path d="M343 62.2865V81.0746C338.834 78.732 334.124 76.1823 323.486 73.545C302.057 68.2384 279.386 70.4455 279.386 65.633C279.386 62.6052 293.197 60.5336 312.639 60.5336C322.941 60.5416 334.02 61.2985 343 62.2865Z" fill="#E1EDFA"/>
<path d="M342.999 101.225V101.926C333.763 100.906 324.054 100.173 313.952 99.735L313.984 99.0259C324.022 99.4641 333.723 100.205 342.999 101.225Z" fill="#FE889D"/>
<path d="M343 139.558V149H324.487C326.826 144.387 334.644 139.781 343 139.558Z" fill="#312D52"/>
<path d="M260.977 107.193H238.01L238.195 103.958H259.503C260.072 103.958 260.593 104.277 260.841 104.787L261.57 106.245C261.786 106.675 261.466 107.193 260.977 107.193Z" fill="white"/>
<path d="M242.2 107.193H238.01L238.195 103.958H241.479C241.727 105.161 242.032 106.635 242.2 107.193Z" fill="#DCDCF5"/>
<path d="M342.999 62.2865V68.6926C340.748 68.8997 337.921 68.6288 333.931 67.3221C326.449 64.884 320.794 64.0474 312.182 64.4935C305.597 64.8282 298.948 63.7446 299.998 62.414C300.871 61.3144 310.019 60.8443 319.976 60.6531C328.019 60.908 336.126 61.5295 342.999 62.2865Z" fill="#E1EDFA"/>
<path d="M193.695 77.0588C198.565 74.0549 204.133 74.4294 208.691 72.6128C214.819 70.1746 217.943 58.7807 224.272 55.8565C226.074 55.0278 228.285 55.1792 230.52 55.9601C228.245 54.9322 225.538 54.7729 222.878 55.9999C216.549 58.9241 214.819 66.2624 208.691 68.7006C204.133 70.5172 198.565 69.9435 193.695 72.9474C190.17 75.1226 188.888 78.4691 188.888 81.7678C188.888 83.2976 188.888 84.3573 188.888 85.8791C188.888 82.5805 190.17 79.234 193.695 77.0588Z" fill="#353533"/>
</svg>
