<svg width="190" height="149" viewBox="0 0 190 149" fill="none" xmlns="http://www.w3.org/2000/svg">
<g opacity="0.5" clip-path="url(#clip0_2718_11107)">
<g opacity="0.05">
<path d="M25.0386 133C25.0386 50.8642 91.8636 -15.9608 173.999 -15.9608C256.141 -15.9608 322.971 50.859 322.971 133C322.971 215.141 256.146 281.966 174.005 281.966C91.8636 281.966 25.0386 215.136 25.0386 133Z" fill="#FFE5E9" stroke="#FFC0CB"/>
</g>
<g opacity="0.05">
<path d="M52.5195 133C52.5195 66.0158 107.015 11.5203 173.999 11.5203C240.983 11.5203 295.479 66.0158 295.479 133C295.479 199.984 240.983 254.48 173.999 254.48C107.015 254.48 52.5195 199.984 52.5195 133Z" fill="#FFE5E9" stroke="#FFC0CB"/>
</g>
<g opacity="0.05">
<path d="M76.0161 133C76.0161 78.9743 119.968 35.0168 173.999 35.0168C228.025 35.0168 271.982 78.9743 271.982 133C271.982 187.026 228.025 230.983 173.999 230.983C119.974 230.983 76.0161 187.026 76.0161 133Z" fill="#FFE5E9" stroke="#FFC0CB"/>
</g>
<g opacity="0.1">
<path d="M99.5444 133C99.5444 91.9488 132.943 58.5452 173.999 58.5452C215.051 58.5452 248.454 91.9488 248.454 133C248.454 174.052 215.051 207.455 173.999 207.455C132.948 207.455 99.5444 174.052 99.5444 133Z" fill="#FFE5E9" stroke="#FFC0CB"/>
</g>
<g opacity="0.15">
<path d="M122.491 133C122.491 104.601 145.6 81.4918 173.999 81.4918C202.399 81.4918 225.508 104.601 225.508 133C225.508 161.399 202.399 184.508 173.999 184.508C145.6 184.508 122.491 161.399 122.491 133Z" fill="#FFE5E9" stroke="#FFC0CB"/>
</g>
<path opacity="0.1" d="M261 220C309.049 171.951 309.049 94.0488 261 46C212.951 -2.04879 135.049 -2.04877 87 46C38.9512 94.0488 38.9512 171.951 87 220C135.049 268.049 212.951 268.049 261 220Z" fill="#FFE5E9" stroke="#FFC0CB" stroke-width="4" stroke-linecap="round" stroke-linejoin="round"/>
<path opacity="0.1" d="M244.946 203.946C284.128 164.764 284.128 101.236 244.946 62.0539C205.764 22.8715 142.236 22.8715 103.054 62.054C63.8715 101.236 63.8715 164.764 103.054 203.946C142.236 243.128 205.764 243.128 244.946 203.946Z" fill="#FFE5E9" stroke="#FFC0CB" stroke-width="7" stroke-linecap="round" stroke-linejoin="round"/>
<path opacity="0.15" d="M173.999 210.597C216.855 210.597 251.597 175.856 251.597 133C251.597 90.1441 216.855 55.4026 173.999 55.4026C131.143 55.4026 96.4019 90.1441 96.4019 133C96.4019 175.856 131.143 210.597 173.999 210.597Z" fill="#FFE5E9" stroke="#FFC0CB" stroke-width="10" stroke-linecap="round" stroke-linejoin="round"/>
<path opacity="0.2" d="M173.999 188.443C204.62 188.443 229.443 163.621 229.443 133C229.443 102.38 204.62 77.5567 173.999 77.5567C143.379 77.5567 118.556 102.38 118.556 133C118.556 163.621 143.379 188.443 173.999 188.443Z" fill="#FFE5E9" stroke="#FFC0CB" stroke-width="13" stroke-linecap="round" stroke-linejoin="round"/>
<path opacity="0.1" d="M173.999 283.544C257.143 283.544 324.544 216.143 324.544 133C324.544 49.8565 257.143 -17.5444 173.999 -17.5444C90.856 -17.5444 23.4551 49.8565 23.4551 133C23.4551 216.143 90.856 283.544 173.999 283.544Z" fill="#FFE5E9" stroke="#FFC0CB" stroke-width="4" stroke-linecap="round" stroke-linejoin="round"/>
</g>
<g clip-path="url(#clip1_2718_11107)">
<path d="M110.046 114.999H109.986C104.75 114.999 100.491 110.74 100.491 105.504V103.286C100.491 101.991 101.541 100.942 102.835 100.942H117.197C118.491 100.942 119.54 101.991 119.54 103.286V105.504C119.54 110.74 115.281 114.999 110.046 114.999Z" fill="#FFE5E9"/>
<path d="M117.196 100.942H110.016V114.999H110.045C115.281 114.999 119.54 110.74 119.54 105.505V103.286C119.54 101.991 118.491 100.942 117.196 100.942Z" fill="#FFE5E9"/>
<path d="M114.7 49.6495H105.33C104.036 49.6495 102.987 48.6002 102.987 47.3058V42.0305C102.987 38.1549 106.14 35.002 110.015 35.002C113.891 35.002 117.044 38.155 117.044 42.0305V47.3058C117.044 48.6002 115.995 49.6495 114.7 49.6495Z" fill="#FFE5E9"/>
<path d="M114.7 49.6495C115.995 49.6495 117.044 48.6002 117.044 47.3058V42.0305C117.044 38.1549 113.891 35.002 110.016 35.002V49.6495H114.7Z" fill="#FFE5E9"/>
<path d="M134.851 105.63H85.1809C83.1524 105.63 81.502 103.979 81.502 101.951V98.5998C81.502 94.9294 82.8533 91.4049 85.3071 88.6753C86.9861 86.8075 87.9108 84.3959 87.9108 81.8845V66.7011C87.9108 54.5125 97.8269 44.5964 110.016 44.5964C122.204 44.5964 132.12 54.5125 132.12 66.7011V81.8845C132.12 84.3959 133.045 86.8075 134.724 88.6751C137.178 91.4047 138.529 94.9293 138.529 98.5996V101.95C138.529 103.979 136.879 105.63 134.851 105.63Z" fill="#FE889D"/>
<path d="M134.85 105.63C136.879 105.63 138.529 103.979 138.529 101.951V98.5998C138.529 94.9294 137.178 91.4048 134.724 88.6752C133.045 86.8076 132.12 84.396 132.12 81.8847V66.7013C132.12 54.5126 122.204 44.5966 110.016 44.5966V105.63H134.85Z" fill="#FE889D"/>
<path d="M81.502 98.5998V101.951C81.502 103.979 83.1524 105.63 85.1809 105.63H134.85C136.879 105.63 138.529 103.979 138.529 101.951V98.5998C138.529 96.9923 138.27 95.413 137.773 93.9159H82.2588C81.7613 95.413 81.502 96.9923 81.502 98.5998Z" fill="#FF6782"/>
<path d="M110.016 93.9159V105.629H134.85C136.879 105.629 138.529 103.979 138.529 101.95V98.5996C138.529 96.9922 138.27 95.4128 137.773 93.9157H110.016V93.9159Z" fill="#FF6782"/>
<path d="M72.3465 60.8854C72.1826 60.8854 72.0163 60.8682 71.8496 60.8321C70.5843 60.559 69.7801 59.3119 70.0533 58.0466C71.9301 49.3533 76.7198 41.3675 83.5398 35.56C84.5254 34.7208 86.0046 34.8397 86.8436 35.825C87.6828 36.8106 87.5642 38.2896 86.5786 39.1288C80.5376 44.2728 76.2959 51.3426 74.635 59.0358C74.398 60.1343 73.4264 60.8854 72.3465 60.8854Z" fill="#FFD583"/>
<path d="M147.654 60.8854C146.573 60.8854 145.602 60.1345 145.365 59.0359C143.704 51.3427 139.462 44.273 133.422 39.1291C132.436 38.2899 132.317 36.8107 133.157 35.8253C133.996 34.8397 135.475 34.7209 136.46 35.5603C143.28 41.3674 148.07 49.3534 149.947 58.0467C150.22 59.312 149.416 60.5591 148.15 60.8323C147.984 60.868 147.817 60.8854 147.654 60.8854Z" fill="#FFD583"/>
<path d="M81.3573 63.6272C81.2138 63.6272 81.0681 63.6139 80.9219 63.5864C79.6497 63.3473 78.8124 62.1222 79.0515 60.8502C80.3379 54.0052 83.9452 47.6822 89.2088 43.0463C90.18 42.1905 91.6611 42.2848 92.5165 43.256C93.3721 44.2274 93.278 45.7082 92.3068 46.5637C87.824 50.5121 84.7524 55.8932 83.6581 61.7158C83.4465 62.8419 82.4626 63.6272 81.3573 63.6272Z" fill="#FFD583"/>
<path d="M138.643 63.6273C137.537 63.6273 136.554 62.842 136.342 61.7161C135.248 55.8937 132.176 50.5125 127.694 46.5642C126.722 45.7086 126.628 44.2277 127.484 43.2563C128.339 42.2851 129.82 42.1912 130.792 43.0466C136.055 47.6826 139.662 54.0053 140.949 60.8502C141.188 62.1224 140.35 63.3473 139.078 63.5864C138.932 63.6141 138.786 63.6273 138.643 63.6273Z" fill="#FFD583"/>
</g>
<defs>
<clipPath id="clip0_2718_11107">
<rect width="190" height="190" fill="white" transform="translate(0 -41)"/>
</clipPath>
<clipPath id="clip1_2718_11107">
<rect width="80" height="80" fill="white" transform="translate(70 35)"/>
</clipPath>
</defs>
</svg>
