<svg width="190" height="149" viewBox="0 0 190 149" fill="none" xmlns="http://www.w3.org/2000/svg">
<g opacity="0.5" clip-path="url(#clip0_2718_11106)">
<g opacity="0.05">
<path d="M25.0386 133C25.0386 50.8642 91.8636 -15.9608 173.999 -15.9608C256.141 -15.9608 322.971 50.859 322.971 133C322.971 215.141 256.146 281.966 174.005 281.966C91.8636 281.966 25.0386 215.136 25.0386 133Z" fill="#FFE5E9" stroke="#FFC0CB"/>
</g>
<g opacity="0.05">
<path d="M52.5195 133C52.5195 66.0158 107.015 11.5203 173.999 11.5203C240.983 11.5203 295.479 66.0158 295.479 133C295.479 199.984 240.983 254.48 173.999 254.48C107.015 254.48 52.5195 199.984 52.5195 133Z" fill="#FFE5E9" stroke="#FFC0CB"/>
</g>
<g opacity="0.05">
<path d="M76.0161 133C76.0161 78.9743 119.968 35.0168 173.999 35.0168C228.025 35.0168 271.982 78.9743 271.982 133C271.982 187.026 228.025 230.983 173.999 230.983C119.974 230.983 76.0161 187.026 76.0161 133Z" fill="#FFE5E9" stroke="#FFC0CB"/>
</g>
<g opacity="0.1">
<path d="M99.5444 133C99.5444 91.9488 132.943 58.5452 173.999 58.5452C215.051 58.5452 248.454 91.9489 248.454 133C248.454 174.052 215.051 207.455 173.999 207.455C132.948 207.455 99.5444 174.052 99.5444 133Z" fill="#FFE5E9" stroke="#FFC0CB"/>
</g>
<g opacity="0.15">
<path d="M122.491 133C122.491 104.601 145.6 81.4918 173.999 81.4918C202.399 81.4918 225.508 104.601 225.508 133C225.508 161.399 202.399 184.508 173.999 184.508C145.6 184.508 122.491 161.399 122.491 133Z" fill="#FFE5E9" stroke="#FFC0CB"/>
</g>
<path opacity="0.1" d="M261 220C309.049 171.951 309.049 94.0488 261 46C212.951 -2.04879 135.049 -2.04877 87 46C38.9512 94.0488 38.9512 171.951 87 220C135.049 268.049 212.951 268.049 261 220Z" fill="#FFE5E9" stroke="#FFC0CB" stroke-width="4" stroke-linecap="round" stroke-linejoin="round"/>
<path opacity="0.1" d="M244.946 203.946C284.128 164.764 284.128 101.236 244.946 62.0539C205.764 22.8715 142.236 22.8715 103.054 62.054C63.8715 101.236 63.8715 164.764 103.054 203.946C142.236 243.128 205.764 243.128 244.946 203.946Z" fill="#FFE5E9" stroke="#FFC0CB" stroke-width="7" stroke-linecap="round" stroke-linejoin="round"/>
<path opacity="0.15" d="M173.999 210.597C216.855 210.597 251.597 175.856 251.597 133C251.597 90.1441 216.855 55.4026 173.999 55.4026C131.143 55.4026 96.4019 90.1441 96.4019 133C96.4019 175.856 131.143 210.597 173.999 210.597Z" fill="#FFE5E9" stroke="#FFC0CB" stroke-width="10" stroke-linecap="round" stroke-linejoin="round"/>
<path opacity="0.2" d="M173.999 188.443C204.62 188.443 229.443 163.621 229.443 133C229.443 102.379 204.62 77.5567 173.999 77.5567C143.379 77.5567 118.556 102.379 118.556 133C118.556 163.621 143.379 188.443 173.999 188.443Z" fill="#FFE5E9" stroke="#FFC0CB" stroke-width="13" stroke-linecap="round" stroke-linejoin="round"/>
<path opacity="0.1" d="M173.999 283.544C257.143 283.544 324.543 216.143 324.543 133C324.543 49.8565 257.143 -17.5444 173.999 -17.5444C90.856 -17.5444 23.4551 49.8565 23.4551 133C23.4551 216.143 90.856 283.544 173.999 283.544Z" fill="#FFE5E9" stroke="#FFC0CB" stroke-width="4" stroke-linecap="round" stroke-linejoin="round"/>
</g>
<path d="M98.5664 74.3627L103.453 97.4286H108.547L113.433 74.3627H98.5664Z" fill="#163300"/>
<path d="M130.266 69.1944L128.521 63.1489L126.945 64.6641C125.684 65.877 123.848 66.2846 122.196 65.7081C119.642 64.8167 116.803 64.1299 113.765 63.693C111.293 63.3388 108.688 63.1489 106 63.1489C103.311 63.1489 100.707 63.3388 98.2347 63.693C95.1967 64.1298 92.3578 64.8166 89.8034 65.7081C88.1512 66.2847 86.3154 65.8772 85.054 64.6641L83.4784 63.1489L81.7339 69.1944V74.4725L99.8849 76.964H112.114L130.265 74.4725V69.1944H130.266Z" fill="#163300"/>
<path d="M116.441 69.7932L115.826 74.0633C115.694 74.9806 115.376 75.8312 114.916 76.5797C113.746 78.4832 111.645 79.7259 109.288 79.7259H102.712C100.355 79.7259 98.2538 78.4832 97.0833 76.5797C96.6235 75.8312 96.3059 74.9806 96.1737 74.0633L95.5584 69.7932C95.2898 67.9222 95.8673 66.1477 96.9819 64.8279C97.5963 64.1002 98.4763 63.6502 99.422 63.5368C101.536 63.2833 103.738 63.1489 106 63.1489C108.262 63.1489 110.464 63.2833 112.578 63.5368C113.523 63.6502 114.403 64.1004 115.018 64.8279C116.132 66.1477 116.71 67.9222 116.441 69.7932Z" fill="#5B5C5A"/>
<path d="M115.421 73.02C114.184 75.0311 111.964 76.3441 109.474 76.3441H102.526C100.036 76.3441 97.8157 75.0311 96.579 73.02C96.181 72.372 95.886 71.6508 95.7148 70.8786L96.1737 74.0631C96.3059 74.9804 96.6235 75.831 97.0833 76.5795C98.2538 78.483 100.355 79.7257 102.712 79.7257H109.288C111.645 79.7257 113.746 78.483 114.916 76.5795C115.376 75.831 115.694 74.9804 115.826 74.0631L116.285 70.8786C116.114 71.6508 115.819 72.3722 115.421 73.02Z" fill="#5B5C5A"/>
<path d="M106 73.8171C107.524 73.8171 108.759 72.5818 108.759 71.058C108.759 69.5342 107.524 68.2989 106 68.2989C104.476 68.2989 103.241 69.5342 103.241 71.058C103.241 72.5818 104.476 73.8171 106 73.8171Z" fill="#5B5C5A"/>
<path d="M106 40.3667C89.8742 40.3667 76.8018 53.4391 76.8018 69.565C76.8018 85.6908 89.8742 98.7631 106 98.7631C122.126 98.7631 135.198 85.6906 135.198 69.565C135.198 53.4393 122.126 40.3667 106 40.3667ZM106 92.5049C93.3306 92.5049 83.0601 82.2344 83.0601 69.5648C83.0601 56.8952 93.3306 46.6248 106 46.6248C118.669 46.6248 128.94 56.8954 128.94 69.565C128.94 82.2346 118.669 92.5049 106 92.5049Z" fill="#5B5C5A"/>
<path d="M106 94.6927C90.5586 94.6927 77.9188 82.7057 76.8736 67.5298C76.8272 68.2023 76.8018 68.8807 76.8018 69.565C76.8018 85.6908 89.8742 98.7633 106 98.7633C122.126 98.7633 135.198 85.6906 135.198 69.565C135.198 68.8806 135.173 68.2023 135.127 67.5298C134.081 82.7057 121.441 94.6927 106 94.6927Z" fill="#5B5C5A"/>
<path d="M73.6834 74.8333L69.0781 65.5264C67.1703 61.6709 68.6497 56.9968 72.4283 54.941L73.1593 54.5433L76.5329 51.4246C78.1248 49.953 80.6955 50.5136 81.53 52.5146L84.6968 59.9174C84.7698 60.0881 85.0079 60.0989 85.0959 59.9353L86.9071 56.5722C87.1499 56.1207 87.7121 55.9506 88.1647 56.1915L89.3205 56.8072C91.2388 57.829 92.0829 60.1294 91.2806 62.1494L80.4786 89.3504L70.5162 85.9292L73.6834 74.8333Z" fill="#FDD6C8"/>
<path d="M72.4284 54.9412L73.1594 54.5434L73.3816 54.338C71.9533 56.6205 71.7127 59.5637 72.9884 62.142L77.3896 71.0367C77.5207 71.3019 77.5482 71.6065 77.4662 71.8909L73.0406 86.7963L70.5161 85.9294L73.6832 74.8336L69.078 65.5268C67.1704 61.6709 68.6497 56.997 72.4284 54.9412Z" fill="#FDCAB8"/>
<path d="M70.134 80.9916L62.0495 104.28C61.8883 104.744 62.134 105.251 62.5984 105.412L74.6144 109.584C75.0788 109.745 75.586 109.499 75.7472 109.035L83.8317 85.7468C84.0007 85.2599 83.743 84.7281 83.2561 84.5592L71.3214 80.4161C70.8347 80.247 70.3029 80.5046 70.134 80.9916Z" fill="#FE889D"/>
<path d="M70.134 80.9915C70.3029 80.5046 70.8347 80.247 71.3216 80.4159L75.1879 81.7581C74.7345 81.6007 74.2299 81.8678 74.0608 82.3547L65.6843 106.484L62.5984 105.412C62.134 105.251 61.8883 104.744 62.0495 104.28L70.134 80.9915Z" fill="#FE889D"/>
<path d="M138.316 74.8333L142.922 65.5264C144.829 61.6709 143.35 56.9968 139.571 54.941L138.84 54.5433L135.467 51.4246C133.875 49.953 131.304 50.5136 130.47 52.5146L127.303 59.9174C127.23 60.0881 126.992 60.0989 126.904 59.9353L125.093 56.5722C124.85 56.1207 124.288 55.9506 123.835 56.1915L122.679 56.8072C120.761 57.829 119.917 60.1294 120.719 62.1494L131.521 89.3504L141.484 85.9288L138.316 74.8333Z" fill="#FDD6C8"/>
<path d="M139.571 54.9412L138.841 54.5434L138.618 54.338C140.047 56.6205 140.287 59.5637 139.012 62.142L134.61 71.0367C134.479 71.3019 134.452 71.6065 134.534 71.8909L138.959 86.7963L141.484 85.9294L138.317 74.8336L142.922 65.5268C144.829 61.6709 143.35 56.997 139.571 54.9412Z" fill="#FDCAB8"/>
<path d="M141.866 80.9916L149.95 104.28C150.111 104.744 149.866 105.251 149.401 105.412L137.385 109.584C136.921 109.745 136.414 109.499 136.253 109.035L128.168 85.7468C127.999 85.2599 128.257 84.7281 128.744 84.5592L140.678 80.4161C141.165 80.247 141.697 80.5046 141.866 80.9916Z" fill="#FE889D"/>
<path d="M141.866 80.9915C141.697 80.5046 141.165 80.247 140.678 80.4159L136.812 81.7581C137.265 81.6007 137.77 81.8678 137.939 82.3547L146.315 106.484L149.401 105.412C149.866 105.251 150.112 104.744 149.95 104.28L141.866 80.9915Z" fill="#FE889D"/>
<defs>
<clipPath id="clip0_2718_11106">
<rect width="190" height="190" fill="white" transform="translate(0 -41)"/>
</clipPath>
</defs>
</svg>
