<svg width="249" height="149" viewBox="0 0 249 149" fill="none" xmlns="http://www.w3.org/2000/svg">
<g opacity="0.5">
<g opacity="0.05">
<path d="M25.0385 92.9999C25.0385 10.8641 91.8635 -55.9609 173.999 -55.9609C256.14 -55.9609 322.971 10.8589 322.971 92.9999C322.971 175.141 256.146 241.966 174.005 241.966C91.8635 241.966 25.0385 175.136 25.0385 92.9999Z" fill="#F5FDF0" stroke="#9FE870"/>
</g>
<g opacity="0.05">
<path d="M52.5196 93.0001C52.5196 26.016 107.015 -28.4795 173.999 -28.4795C240.983 -28.4795 295.479 26.016 295.479 93.0001C295.479 159.984 240.983 214.48 173.999 214.48C107.015 214.48 52.5196 159.984 52.5196 93.0001Z" fill="#F5FDF0" stroke="#9FE870"/>
</g>
<g opacity="0.05">
<path d="M76.0163 92.9998C76.0163 38.9741 119.968 -4.9834 173.999 -4.9834C228.025 -4.9834 271.983 38.9741 271.983 92.9998C271.983 147.025 228.025 190.983 173.999 190.983C119.974 190.983 76.0163 147.025 76.0163 92.9998Z" fill="#F5FDF0" stroke="#9FE870"/>
</g>
<g opacity="0.1">
<path d="M99.5442 92.9999C99.5442 51.9485 132.943 18.5449 173.999 18.5449C215.051 18.5449 248.454 51.9486 248.454 92.9999C248.454 134.051 215.051 167.455 173.999 167.455C132.948 167.455 99.5442 134.051 99.5442 92.9999Z" fill="#F5FDF0" stroke="#9FE870"/>
</g>
<g opacity="0.15">
<path d="M122.491 93.0004C122.491 64.6009 145.6 41.4922 173.999 41.4922C202.399 41.4922 225.508 64.6009 225.508 93.0004C225.508 121.4 202.399 144.509 173.999 144.509C145.6 144.509 122.491 121.4 122.491 93.0004Z" fill="#F5FDF0" stroke="#9FE870"/>
</g>
<path opacity="0.1" d="M261 180C309.049 131.951 309.049 54.0488 261 5.99999C212.951 -42.0488 135.049 -42.0488 87 6C38.9512 54.0488 38.9512 131.951 87 180C135.049 228.049 212.951 228.049 261 180Z" fill="#F5FDF0" stroke="#9FE870" stroke-width="4" stroke-linecap="round" stroke-linejoin="round"/>
<path opacity="0.1" d="M244.946 163.946C284.129 124.764 284.129 61.2364 244.946 22.0539C205.764 -17.1285 142.236 -17.1285 103.054 22.054C63.8716 61.2364 63.8716 124.764 103.054 163.946C142.236 203.128 205.764 203.128 244.946 163.946Z" fill="#F5FDF0" stroke="#9FE870" stroke-width="7" stroke-linecap="round" stroke-linejoin="round"/>
<path opacity="0.15" d="M173.999 170.597C216.855 170.597 251.597 135.856 251.597 92.9998C251.597 50.1439 216.855 15.4023 173.999 15.4023C131.143 15.4023 96.4019 50.1439 96.4019 92.9998C96.4019 135.856 131.143 170.597 173.999 170.597Z" fill="#F5FDF0" stroke="#9FE870" stroke-width="10" stroke-linecap="round" stroke-linejoin="round"/>
<path opacity="0.2" d="M173.999 148.443C204.62 148.443 229.443 123.62 229.443 93C229.443 62.3795 204.62 37.5566 173.999 37.5566C143.379 37.5566 118.556 62.3795 118.556 93C118.556 123.62 143.379 148.443 173.999 148.443Z" fill="#F5FDF0" stroke="#9FE870" stroke-width="13" stroke-linecap="round" stroke-linejoin="round"/>
<path opacity="0.1" d="M173.999 243.544C257.142 243.544 324.543 176.144 324.543 93.0003C324.543 9.85699 257.142 -57.5439 173.999 -57.5439C90.8559 -57.5439 23.455 9.85699 23.455 93.0003C23.455 176.144 90.8559 243.544 173.999 243.544Z" fill="#F5FDF0" stroke="#9FE870" stroke-width="4" stroke-linecap="round" stroke-linejoin="round"/>
</g>
<path d="M195.921 149L156.842 148.977C152.142 148.975 148.333 145.197 148.334 140.539L148.353 43.4355C148.354 38.7744 152.168 34.9972 156.871 35L195.951 35.0228C200.651 35.0256 204.459 38.8035 204.459 43.4617L204.439 140.565C204.438 145.226 200.624 149.003 195.921 149Z" fill="#263238"/>
<path d="M196.195 38.2816L188.592 38.2471C187.573 38.2426 186.742 39.0953 186.738 40.1516L186.732 41.5186C186.728 42.5752 185.897 43.428 184.878 43.4231L170.058 43.3554C169.038 43.3509 168.215 42.4906 168.22 41.4339L168.226 40.0669C168.23 39.0103 167.407 38.15 166.387 38.1455L163.713 38.133L157.059 38.1026C153.754 38.0877 151.063 40.7316 151.049 44.0073L150.643 139.118C150.629 142.393 153.295 145.058 156.598 145.074L195.735 145.253C199.04 145.268 201.731 142.624 201.745 139.348L202.151 44.2364C202.164 40.9625 199.498 38.2969 196.195 38.2816Z" fill="#F5F5F5"/>
<path d="M179.585 127.29C179.54 128.439 179.498 129.516 179.462 130.411H185.084L184.396 126.988L179.585 127.29Z" fill="#F5F5F5"/>
<path d="M156.737 128.72L156.786 130.409H178.901C178.938 129.461 178.98 128.409 179.022 127.323L156.737 128.72Z" fill="#F5F5F5"/>
<path d="M184.678 126.968L185.37 130.408H195.734L195.609 126.282L184.678 126.968Z" fill="#F5F5F5"/>
<path d="M180.146 78.8762L182.106 67.6141L176.973 67.2373V78.8762H180.146Z" fill="#EBEBEB"/>
<path d="M156.275 122.467L150.704 124.63L150.688 128.541L156.441 128.18L156.275 122.467Z" fill="#F5F5F5"/>
<path d="M156.25 121.586L155.945 111.098L155.941 111.098V107.398L150.776 107.941L150.708 123.732L156.247 121.581L156.25 121.586Z" fill="#EBEBEB"/>
<path d="M155.94 99.1406L150.816 98.4697L150.779 107.102L155.94 106.56V99.1406Z" fill="#F5F5F5"/>
<path d="M194.138 107.554L193.922 110.56L187.87 111.207L188.338 113.585L195.209 113.072L195.106 109.661L195.654 107.402L194.138 107.554Z" fill="#F5F5F5"/>
<path d="M183.23 113.969L188.057 113.608L187.005 108.27L182.792 108.691L183.23 113.969Z" fill="#F5F5F5"/>
<path d="M183.275 114.526L183.644 118.978L184.299 125.083L184.568 126.42L195.593 125.729L195.226 113.633L183.275 114.526Z" fill="#EBEBEB"/>
<path d="M164.3 93.5044L164.724 94.2247L156.221 99.1401V110.8L165.195 110.17L182.491 108.44L181.857 100.797L165.335 98.6583L165.444 97.8315L181.787 99.9475L180.715 87.0125L164.539 88.554L164.486 88.0003L180.669 86.458L180.11 79.709H164.55L150.885 82.1738L150.819 97.6296L155.993 98.3064L164.3 93.5044ZM157.092 109.687C157.092 109.687 157.156 100.073 157.092 99.7139L164.03 96.0556L164.929 109.196L157.092 109.687Z" fill="#F5F5F5"/>
<path d="M193.572 107.612L187.286 108.241L187.762 110.661L193.396 110.058L193.572 107.612Z" fill="#F5F5F5"/>
<path d="M179.665 125.229C179.645 125.734 179.626 126.237 179.606 126.73L184.285 126.437L184.045 125.241L179.665 125.229Z" fill="#F5F5F5"/>
<path d="M169.587 78.8761L170.412 75.1722H176.693V67.2164L157.052 65.7744V73.2445L150.917 74.6198L150.889 81.3264L164.474 78.8761H169.587Z" fill="#EBEBEB"/>
<path d="M182.693 56.7406L182.525 56.059L190.025 53.1172L185.147 43.4111C185.059 43.4243 184.969 43.4329 184.877 43.4326L176.589 43.3945L176.815 56.9787L182.693 56.7406Z" fill="#F5F5F5"/>
<path d="M194.059 51.5293L194.05 38.2759L188.591 38.251C187.572 38.2465 186.741 39.0992 186.737 40.1555L186.731 41.5225C186.729 42.1744 186.411 42.7482 185.928 43.0914L190.81 52.804L194.059 51.5293Z" fill="#EBEBEB"/>
<path d="M165.864 52.1006L165.232 38.1465L163.713 38.1396L157.78 38.1123L155.253 50.5908L165.864 52.1006ZM164.512 39.5606L164.714 50.9247L156.829 49.7809L158.556 39.5606H164.512Z" fill="#F5F5F5"/>
<path d="M166.15 52.1396L166.152 52.2585C166.165 53.3473 166.188 55.3071 166.204 57.4035L176.534 56.9852L176.308 43.3883L170.057 43.3596C169.038 43.3551 168.215 42.4948 168.219 41.4381L168.225 40.0711C168.23 39.0145 167.406 38.1541 166.387 38.1497L165.513 38.1455L166.147 52.1386L166.15 52.1396Z" fill="#F5F5F5"/>
<path d="M154.419 50.472L156.922 38.1152C153.68 38.173 151.062 40.7836 151.048 44.0137L151.022 50.1738L151.048 49.9923L154.419 50.472Z" fill="#F5F5F5"/>
<path d="M156.211 65.7129L150.957 65.3271L150.921 73.764L156.211 72.5781V65.7129Z" fill="#F5F5F5"/>
<path d="M154.364 50.7471L151.021 50.2715L150.963 63.9341L151.683 63.987L154.364 50.7471Z" fill="#F5F5F5"/>
<path d="M164.975 121.422L165.063 110.453L156.225 111.073L156.537 121.819L164.975 121.422Z" fill="#F5F5F5"/>
<path d="M166.601 118.895L179.118 124.838C179.268 120.954 179.401 117.323 179.388 117.091L179.66 117.077L179.792 116.815C179.97 116.903 179.97 116.903 179.877 119.551C179.825 121.028 179.751 122.994 179.675 124.96H184.004L183.365 118.999L182.513 108.717L166.158 110.353L166.601 118.895Z" fill="#F5F5F5"/>
<path d="M197.283 100.69L197.142 99.2441L182.138 100.791L182.769 108.412L195.724 107.116L197.283 100.69Z" fill="#F5F5F5"/>
<path d="M176.693 76.0107H171.088L170.449 78.8806H176.693V76.0107Z" fill="#F5F5F5"/>
<path d="M194.966 76.9763L180.929 76.0137L180.357 79.3008L180.948 86.4342L195.752 85.0233L194.966 76.9763ZM181.445 79.2945L182.199 77.2203L194.391 77.9845L195.096 83.9186L181.858 85.4747L181.445 79.2945Z" fill="#F5F5F5"/>
<path d="M196.422 91.8856L195.806 85.5762L180.994 86.9878L181.55 93.7019L196.422 91.8856Z" fill="#F5F5F5"/>
<path d="M156.457 128.737L150.71 129.097L150.687 128.727L150.68 130.407H156.506L156.457 128.737Z" fill="#F5F5F5"/>
<path d="M202.046 48.3994L202.131 48.6113L202.149 44.2433C202.163 40.9694 199.498 38.3041 196.194 38.2889L194.33 38.2803L194.339 51.4224L202.046 48.3994Z" fill="#EBEBEB"/>
<path d="M179.106 125.145L166.329 119.078L165.879 110.385L165.344 110.438L165.253 121.695L156.545 122.105L156.553 122.356L156.554 122.361L156.553 122.362L156.721 128.165L179.044 126.766C179.065 126.228 179.086 125.685 179.106 125.145ZM157.092 122.821L169.281 121.973L177.211 125.62L157.092 126.699V122.821Z" fill="#F5F5F5"/>
<path d="M198.415 62.9967L198.938 59.9236C194.356 58.3029 194.039 53.5672 194.053 52.1338L191.061 53.3069L195.565 62.2664L198.415 62.9967Z" fill="#F5F5F5"/>
<path d="M182.069 99.9633L188.298 99.3211L187.071 93.8682L181.619 94.5339L182.069 99.9633Z" fill="#F5F5F5"/>
<path d="M195.508 68.3464L183.873 68.3443L182.907 68.2734L181.593 75.8247L195.403 76.7718L195.083 73.4885L196.442 68.6384L195.508 68.3464Z" fill="#F5F5F5"/>
<path d="M194.703 66.3167L194.849 62.7123L190.276 53.6143L183.186 56.3953L185.623 66.3164H194.703V66.3167ZM190 54.721L194.19 62.6221L193.585 65.0845L186.415 64.817L184.622 57.3438L190 54.721Z" fill="#F5F5F5"/>
<path d="M196.513 109.806L196.728 116.885L201.769 116.604L201.785 116.882L196.736 117.164L196.993 125.637L201.759 125.338L201.795 125.893L197.01 126.193L197.138 130.406H201.782L201.883 106.779L197.132 107.255L196.513 109.806Z" fill="#F5F5F5"/>
<path d="M165.873 52.383L155.198 50.8643L152.528 64.0475L165.92 65.0309C165.974 63.0009 165.927 56.7755 165.873 52.383Z" fill="#EBEBEB"/>
<path d="M183.431 66.3115H185.046L182.76 57.0088L176.819 57.2494L176.962 65.8366L183.431 66.3115Z" fill="#F5F5F5"/>
<path d="M150.651 137.175L150.642 139.126C150.642 139.186 150.649 139.244 150.651 139.304V137.175Z" fill="#F5F5F5"/>
<path d="M166.193 65.05L176.681 65.8201L176.539 57.2646L166.206 57.6829C166.228 60.5763 166.237 63.6622 166.193 65.05Z" fill="#F5F5F5"/>
<path d="M196.504 92.7158L187.35 93.8336L188.579 99.2917L197.06 98.4172L196.504 92.7158Z" fill="#F5F5F5"/>
<path d="M198.985 59.6472L199.571 56.1987L202.098 56.3936L202.13 48.9678L194.336 52.0247C194.177 57.2498 197.489 59.0876 198.985 59.6472Z" fill="#EBEBEB"/>
<path d="M195.984 72.9706L196.302 76.2276L202.011 76.6192L202.04 69.912L197.26 68.416L195.984 72.9706Z" fill="#F5F5F5"/>
<path d="M198.701 100.787L197.202 106.966L201.884 106.498L201.911 100.018C200.475 99.6431 199.221 99.3376 198.547 99.209L198.701 100.787Z" fill="#F5F5F5"/>
<path d="M195.541 66.4249L202.046 68.4611L202.062 64.7941L195.673 63.1582L195.541 66.4249Z" fill="#F5F5F5"/>
<path d="M198.464 98.3625C198.989 98.441 199.982 98.6501 201.915 99.1537L201.976 84.9854L197.202 85.4406L198.464 98.3625Z" fill="#F5F5F5"/>
<path d="M197.148 84.8867L201.978 84.4263L202.008 77.4557L196.384 77.0703L197.148 84.8867Z" fill="#F5F5F5"/>
<path d="M199.524 59.8236C200.439 60.0994 201.291 60.313 202.081 60.4696L202.096 56.9516L200.039 56.793L199.524 59.8236Z" fill="#F5F5F5"/>
<path d="M198.96 63.1343L202.066 63.9297L202.079 60.7508C201.276 60.5914 200.409 60.3747 199.477 60.0947L198.96 63.1343Z" fill="#F5F5F5"/>
<path d="M201.795 140.134L201.759 139.488L196.993 139.836L196.736 129.988L201.785 129.661L201.769 129.338L196.728 129.665L196.514 121.437L197.133 118.472L201.883 117.919L201.884 117.595L197.202 118.139L198.702 110.957L198.548 109.123C199.221 109.273 200.475 109.628 201.912 110.063L201.916 109.056C199.983 108.471 198.989 108.228 198.465 108.137L197.202 93.1187L201.976 92.5896L201.979 91.94L197.148 92.4751L196.385 83.3907L202.009 83.839L202.012 82.8677L196.303 82.4125L195.984 78.6268L197.261 73.3333L202.04 75.072L202.047 73.3799L195.541 71.0134L195.673 67.2168L202.062 69.1185L202.066 68.1187L198.96 67.1943L199.477 63.6616C200.409 63.987 201.276 64.2389 202.079 64.4241L202.081 64.0918C201.292 63.9095 200.44 63.6616 199.524 63.341L200.039 59.8192L202.096 60.0036L202.098 59.3556L199.572 59.129L198.985 63.137C197.489 62.4866 194.177 60.3511 194.336 54.2779L202.13 50.7251L202.131 50.3146L202.047 50.0683L194.339 53.5817L194.33 38.3077L194.05 38.3061L194.059 53.7095L190.81 55.1902L185.929 43.902C185.7 44.0912 185.434 44.2181 185.147 44.2671L190.025 55.5477L182.525 58.9667L182.692 59.7589L176.814 60.0357L176.589 44.2479L176.308 44.2462L176.534 60.049L166.204 60.535C166.188 58.0986 166.165 55.8209 166.151 54.5555L166.15 54.4173L166.146 54.4165L165.512 38.1534L165.231 38.1518L165.864 54.3695L155.253 52.6148L157.78 38.112L157.057 38.1084C157.011 38.108 156.967 38.1148 156.921 38.1156L154.419 52.477L151.047 51.9194L151.021 52.1303L151.02 52.2416L154.363 52.7944L151.682 68.1817L150.962 68.1203L150.956 69.7396L156.21 70.1879V78.1672L150.92 79.5455L150.917 80.5401L157.051 78.9417V70.2598L176.692 71.9358V81.1821H170.411L169.586 85.4869H164.473L150.888 88.3346L150.884 89.3205L164.549 86.4558H180.109L180.669 94.2997L164.485 96.0922L164.538 96.7357L180.714 94.9441L181.786 109.978L165.443 107.518L165.334 108.479L181.856 110.965L182.49 119.848L165.194 121.859L156.22 122.59V109.039L164.723 103.326L164.299 102.489L155.992 108.07L150.819 107.284L150.815 108.261L155.94 109.04V117.663L150.778 118.293L150.775 119.268L155.94 118.638V122.937L155.944 122.936L156.249 135.127L156.247 135.121L150.707 137.62L150.703 138.663L156.274 136.149L156.44 142.79L150.687 143.209L150.686 143.424L150.71 143.855L156.457 143.436L156.505 145.378H156.786L156.737 143.416L179.022 141.792C178.979 143.053 178.938 144.276 178.901 145.378H179.462C179.497 144.338 179.54 143.086 179.584 141.751L184.395 141.4L185.084 145.378H185.37L184.678 141.38L195.609 140.583L195.734 145.378H197.137M179.607 141.103C179.626 140.529 179.645 139.945 179.665 139.358L184.045 139.372L184.285 140.762L179.607 141.103ZM184.568 140.741L184.299 139.188L183.644 132.092L183.275 126.918L195.226 125.88L195.593 139.938L184.568 140.741ZM187.286 119.617L193.572 118.886L193.397 121.729L187.762 122.429L187.286 119.617ZM187.005 119.649L188.057 125.854L183.229 126.273L182.792 120.139L187.005 119.649ZM195.21 125.233L188.339 125.83L187.87 123.065L193.923 122.313L194.139 118.82L195.655 118.644L195.106 121.269L195.21 125.233ZM187.071 102.91L188.298 109.248L182.069 109.994L181.619 103.684L187.071 102.91ZM188.58 109.214L187.351 102.87L196.504 101.571L197.061 108.198L188.58 109.214ZM194.884 82.2997L181.073 81.199L182.387 72.4226L183.353 72.505L194.989 72.5074L195.923 72.8473L194.563 78.4841L194.884 82.2997ZM194.053 54.4073C194.039 56.0732 194.356 61.5775 198.938 63.4607L198.415 67.0324L195.565 66.1836L191.061 55.7707L194.053 54.4073ZM190.276 56.129L194.849 66.703L194.703 70.8921H185.623L183.186 59.3616L190.276 56.129ZM182.76 60.0799L185.046 70.8921H183.431L176.962 70.3401L176.819 60.3599L182.76 60.0799ZM176.539 60.3724L176.681 70.3156L166.193 69.4206C166.237 67.8077 166.229 64.2212 166.207 60.8584L176.539 60.3724ZM155.198 52.933L165.873 54.6981C165.927 59.8027 165.973 67.0384 165.92 69.3973L152.528 68.2544L155.198 52.933ZM182.106 72.3985L180.147 85.4873H176.973V71.9603L182.106 72.3985ZM171.088 82.1522H176.693V85.4877H170.449L171.088 82.1522ZM180.357 85.9794L180.929 82.1591L194.966 83.2778L195.752 92.6302L180.948 94.27L180.357 85.9794ZM195.806 93.2733L196.423 100.606L181.551 102.717L180.994 94.914L195.806 93.2733ZM182.138 110.96L197.142 109.162L197.283 110.843L195.724 118.311L182.77 119.817L182.138 110.96ZM183.365 132.122L184.004 139.049H179.675C179.751 136.764 179.825 134.479 179.877 132.762C179.97 129.686 179.97 129.686 179.792 129.583L179.66 129.887L179.388 129.904C179.401 130.173 179.268 134.394 179.118 138.908L166.601 132L166.159 122.072L182.513 120.171L183.365 132.122ZM165.064 122.195L164.975 134.943L156.537 135.404L156.225 122.915L165.064 122.195ZM156.553 136.025L156.555 136.024L156.553 136.018L156.545 135.727L165.254 135.251L165.344 122.167L165.88 122.105L166.33 132.209L179.107 139.26C179.086 139.887 179.065 140.518 179.045 141.144L156.722 142.77L156.553 136.025Z" fill="white"/>
<path d="M169.281 121.968L157.092 122.816V126.694L177.211 125.615L169.281 121.968Z" fill="#E0E0E0"/>
<path d="M194.391 77.983L182.199 77.2188L181.445 79.293L181.858 85.4731L195.097 83.917L194.391 77.983Z" fill="#E0E0E0"/>
<path d="M164.953 51.6532L164.751 40.2891H158.795L157.068 50.5094L164.953 51.6532Z" fill="#E0E0E0"/>
<path d="M193.585 65.0871L194.19 62.6247L190 54.7236L184.623 57.3464L186.415 64.8196L193.585 65.0871Z" fill="#EBEBEB"/>
<path d="M157.092 99.7159C157.156 100.075 157.092 109.69 157.092 109.69L164.93 109.198L164.03 96.0576L157.092 99.7159Z" fill="#E0E0E0"/>
<path d="M183.231 107.521L182.817 101.562L196.258 99.8496V100.877L194.633 106.356L183.231 107.521Z" fill="#E0E0E0"/>
<path d="M195.763 122.702L195.594 118.816L183.778 119.385C183.467 119.399 183.16 119.335 182.885 119.197L166.126 110.807C165.738 110.613 165.483 110.225 165.461 109.795L163.179 65.9444C163.168 65.7346 163.249 65.5297 163.401 65.3824C163.552 65.2348 163.762 65.1612 163.973 65.175L171.155 65.7025V57.9199H171.997V65.8103C171.997 66.0136 171.911 66.2095 171.76 66.3481C171.611 66.4864 171.408 66.5569 171.202 66.5424L164.026 66.0153L166.301 109.752C166.308 109.884 166.386 110.003 166.505 110.063L183.265 118.452C183.411 118.525 183.574 118.561 183.737 118.552L195.651 117.978C195.854 117.968 196.042 118.037 196.189 118.17C196.337 118.303 196.422 118.485 196.431 118.683L196.604 122.666L195.763 122.702Z" fill="white"/>
<path d="M182.716 67.2505C182.716 63.3143 179.128 60.209 175.016 60.9739C172.43 61.4551 170.369 63.5483 169.916 66.1171C169.633 67.723 169.968 69.2335 170.706 70.4802H170.703L170.721 70.5044C170.968 70.9174 171.278 71.213 171.592 71.6471L175.337 76.5643C175.803 77.176 176.73 77.176 177.196 76.5643L180.878 71.7283C180.878 71.7283 181.566 70.9157 181.815 70.4982L181.829 70.4806H181.826C182.389 69.5314 182.716 68.4302 182.716 67.2505ZM176.266 70.034C174.699 70.034 173.428 68.7744 173.428 67.2204C173.428 65.6664 174.698 64.4069 176.266 64.4069C177.834 64.4069 179.105 65.6664 179.105 67.2204C179.105 68.7741 177.834 70.034 176.266 70.034Z" fill="#9FE870"/>
<path d="M176.408 142.022C176.372 142.022 176.336 142.007 176.311 141.981L174.963 140.589C174.911 140.536 174.913 140.451 174.967 140.401C175.02 140.349 175.106 140.351 175.157 140.404L176.408 141.696L177.635 140.43C177.686 140.377 177.771 140.374 177.825 140.426C177.879 140.477 177.881 140.561 177.829 140.614L176.506 141.981C176.48 142.007 176.445 142.022 176.408 142.022Z" fill="#263238"/>
<path d="M193.945 62.9841H160.77C159.258 62.9841 158.033 61.7695 158.033 60.2711V53.3175C158.033 51.8191 159.258 50.6045 160.77 50.6045H193.945C195.457 50.6045 196.682 51.8191 196.682 53.3175V60.2711C196.682 61.7695 195.456 62.9841 193.945 62.9841Z" fill="white"/>
<path d="M193.945 62.9848C193.94 62.9599 194.3 63.0197 194.908 62.7895C195.206 62.673 195.565 62.4777 195.891 62.139C196.214 61.8037 196.508 61.3229 196.605 60.7236C196.661 60.427 196.641 60.1038 196.642 59.7634C196.641 59.4236 196.64 59.0676 196.639 58.6953C196.636 57.9505 196.634 57.142 196.631 56.273C196.629 55.4037 196.627 54.4746 196.624 53.4892C196.629 53.2407 196.611 53.0008 196.561 52.7564C196.507 52.5141 196.415 52.2784 196.297 52.0527C196.17 51.8311 196.014 51.6238 195.829 51.4378C195.64 51.256 195.423 51.0994 195.186 50.9729C194.948 50.8468 194.685 50.7641 194.416 50.7137C194.145 50.6584 193.863 50.6746 193.573 50.6715C192.995 50.6725 192.405 50.6732 191.803 50.6743C190.598 50.676 189.345 50.6777 188.047 50.6795C185.451 50.6819 182.678 50.685 179.76 50.6878C173.923 50.6898 167.507 50.6922 160.772 50.6947C159.957 50.6957 159.154 51.0814 158.672 51.7237C158.428 52.0399 158.255 52.4091 158.176 52.7972C158.097 53.1823 158.131 53.5922 158.123 54.0001C158.123 55.626 158.122 57.2281 158.122 58.8021C158.122 59.1958 158.121 59.5874 158.121 59.9773C158.11 60.3724 158.131 60.7408 158.257 61.0993C158.494 61.8106 159.048 62.3989 159.729 62.6875C160.41 62.9983 161.187 62.8724 161.932 62.9001C162.68 62.9008 163.418 62.9011 164.148 62.9018C169.984 62.9091 175.24 62.9156 179.656 62.9212C184.067 62.9333 187.637 62.943 190.111 62.9499C191.341 62.9571 192.298 62.963 192.954 62.9668C193.274 62.9706 193.521 62.9737 193.693 62.9758C193.86 62.9786 193.945 62.9848 193.945 62.9848C193.945 62.9848 193.86 62.991 193.693 62.9941C193.521 62.9962 193.275 62.9993 192.954 63.0031C192.298 63.0069 191.342 63.0128 190.111 63.02C187.637 63.0269 184.067 63.0366 179.656 63.0487C175.24 63.0542 169.984 63.0608 164.148 63.0681C163.419 63.0684 162.68 63.0691 161.933 63.0698C161.559 63.0702 161.183 63.0702 160.805 63.0705C160.418 63.0722 160.023 63.0017 159.661 62.8462C158.935 62.5396 158.344 61.914 158.09 61.1549C157.955 60.7809 157.933 60.3606 157.944 59.978C157.944 59.5881 157.944 59.1962 157.944 58.8028C157.943 57.2287 157.943 55.6267 157.942 54.0008C157.951 53.5977 157.913 53.1843 157.998 52.7627C158.083 52.3479 158.267 51.9528 158.528 51.6151C159.043 50.9297 159.902 50.516 160.772 50.5156C167.507 50.518 173.923 50.5205 179.76 50.5229C182.678 50.5256 185.451 50.5284 188.047 50.5312C189.345 50.5329 190.598 50.5346 191.803 50.5364C192.405 50.5374 192.996 50.5381 193.573 50.5391C193.859 50.5433 194.154 50.5274 194.439 50.5861C194.722 50.6401 194.998 50.7278 195.247 50.8609C195.495 50.9943 195.721 51.1589 195.918 51.3504C196.111 51.5456 196.274 51.7637 196.405 51.9957C196.528 52.2321 196.622 52.4792 196.678 52.7326C196.729 52.9849 196.746 53.2459 196.74 53.4902C196.737 54.4753 196.735 55.4048 196.733 56.2741C196.73 57.1427 196.728 57.9515 196.725 58.6964C196.724 59.0686 196.722 59.4246 196.721 59.7644C196.717 60.1017 196.735 60.4294 196.675 60.7364C196.569 61.3506 196.263 61.8393 195.929 62.1773C195.593 62.5185 195.225 62.7117 194.92 62.8244C194.614 62.9405 194.363 62.9665 194.197 62.9824C194.03 62.9868 193.945 62.9848 193.945 62.9848Z" fill="#263238"/>
<path d="M166.671 60.0769C168.397 60.0769 169.796 58.6899 169.796 56.9789C169.796 55.2679 168.397 53.8809 166.671 53.8809C164.945 53.8809 163.545 55.2679 163.545 56.9789C163.545 58.6899 164.945 60.0769 166.671 60.0769Z" fill="#455A64"/>
<path d="M166.926 57.0167C167.165 56.9202 167.337 56.679 167.342 56.3928C167.347 56.0174 167.064 55.7087 166.709 55.7032C166.354 55.6977 166.062 55.9973 166.056 56.3727C166.051 56.662 166.219 56.9098 166.458 57.0115C165.468 57.1483 165.5 58.2143 165.5 58.2143L167.84 58.2506C167.84 58.2506 167.906 57.1743 166.926 57.0167Z" fill="white"/>
<path d="M169.661 56.5874C170.414 56.5874 171.025 55.9822 171.025 55.2356C171.025 54.489 170.414 53.8838 169.661 53.8838C168.908 53.8838 168.297 54.489 168.297 55.2356C168.297 55.9822 168.908 56.5874 169.661 56.5874Z" fill="#9FE870"/>
<path d="M169.634 55.8396L168.905 55.357L169.076 55.1048L169.564 55.4288L170.172 54.6318L170.416 54.8142L169.634 55.8396Z" fill="white"/>
<path d="M177.201 60.0769C178.928 60.0769 180.327 58.6899 180.327 56.9789C180.327 55.2679 178.928 53.8809 177.201 53.8809C175.475 53.8809 174.076 55.2679 174.076 56.9789C174.076 58.6899 175.475 60.0769 177.201 60.0769Z" fill="#455A64"/>
<path d="M177.457 57.0167C177.696 56.9202 177.867 56.679 177.872 56.3928C177.878 56.0174 177.595 55.7087 177.239 55.7032C176.884 55.6977 176.592 55.9973 176.586 56.3727C176.582 56.662 176.749 56.9098 176.989 57.0115C175.998 57.1483 176.031 58.2143 176.031 58.2143L178.37 58.2506C178.37 58.2506 178.436 57.1743 177.457 57.0167Z" fill="white"/>
<path d="M181.555 55.2356C181.555 55.9822 180.944 56.5874 180.191 56.5874C179.438 56.5874 178.827 55.9822 178.827 55.2356C178.827 54.489 179.438 53.8838 180.191 53.8838C180.944 53.8834 181.555 54.489 181.555 55.2356Z" fill="#9FE870"/>
<path d="M180.164 55.8396L179.436 55.357L179.606 55.1048L180.094 55.4288L180.702 54.6318L180.946 54.8142L180.164 55.8396Z" fill="white"/>
<path d="M187.732 60.0769C189.458 60.0769 190.858 58.6899 190.858 56.9789C190.858 55.2679 189.458 53.8809 187.732 53.8809C186.006 53.8809 184.606 55.2679 184.606 56.9789C184.606 58.6899 186.006 60.0769 187.732 60.0769Z" fill="#455A64"/>
<path d="M187.988 57.0167C188.226 56.9202 188.398 56.679 188.403 56.3928C188.408 56.0174 188.125 55.7087 187.77 55.7032C187.415 55.6977 187.123 55.9973 187.117 56.3727C187.113 56.662 187.28 56.9098 187.52 57.0115C186.529 57.1483 186.562 58.2143 186.562 58.2143L188.901 58.2506C188.901 58.2506 188.966 57.1743 187.988 57.0167Z" fill="white"/>
<path d="M190.722 56.5874C191.475 56.5874 192.085 55.9822 192.085 55.2356C192.085 54.489 191.475 53.8838 190.722 53.8838C189.968 53.8838 189.358 54.489 189.358 55.2356C189.358 55.9822 189.968 56.5874 190.722 56.5874Z" fill="#9FE870"/>
<path d="M190.695 55.8396L189.966 55.357L190.136 55.1048L190.625 55.4288L191.233 54.6318L191.477 54.8142L190.695 55.8396Z" fill="white"/>
<path d="M156.582 70.5233C156.179 70.5748 155.752 70.3944 155.524 70.0761C155.797 70.1158 156.091 70.1525 156.337 70.0336C156.583 69.9147 156.722 69.5718 156.53 69.3848C156.379 69.2386 156.131 69.2638 155.916 69.2489C155.415 69.214 154.952 68.8777 154.787 68.4291C154.605 67.9341 154.771 67.3942 154.837 66.874C155.026 65.3639 154.268 63.7808 152.942 62.9212L149.498 61.0371C148.249 62.55 147.86 64.5893 148.119 66.4935C148.378 68.398 149.231 70.1877 150.257 71.844C150.556 72.3266 150.874 72.8056 151.296 73.1973C151.718 73.5892 152.256 73.891 152.844 73.9487C152.999 73.4914 152.901 72.9639 152.589 72.5848C153.52 72.6411 154.469 72.319 155.15 71.7165C154.904 71.5382 154.658 71.3595 154.412 71.1808C155.19 71.2796 156.01 71.0314 156.582 70.5233Z" fill="#0E0F0C"/>
<path d="M144.321 65.2964C144.382 63.9342 144.276 62.7037 145.661 62.329L149.978 61.1614C151.852 60.9184 153.173 63.0728 153.35 64.855C153.547 66.8348 153.694 68.926 153.494 70.4133C153.091 73.4042 150.693 73.8532 150.693 73.8532C150.693 73.8487 150.404 76.3812 150.429 77.2509L148.602 81.7643L144.77 76.1469L144.321 65.3382C144.209 65.3382 144.318 65.3645 144.321 65.2964Z" fill="#FFBF9D"/>
<path d="M146.489 72.9062C146.489 72.9062 147.462 75.0851 150.6 74.7151L150.693 73.8525C150.693 73.8525 148.624 74.037 146.489 72.9062Z" fill="#FFAE83"/>
<path d="M144.77 60.4642C145.256 59.7338 146.403 58.9713 147.301 58.8227C148.325 58.6533 148.943 58.8192 149.616 59.4013C149.616 59.4013 150.14 59.8797 150.631 59.9702C151.122 60.0604 151.532 59.9841 152.118 60.2675C152.918 60.6549 153.269 61.6677 153.64 62.4426C154.101 63.4056 154.757 64.2918 155.058 65.3101C155.359 66.3284 155.199 67.5793 154.292 68.1969C154.448 67.4168 154.577 66.5586 154.237 65.8524C154.276 66.1362 154.268 66.42 154.183 66.6975C154.013 66.2392 153.834 65.7667 153.483 65.4131C153.151 65.0796 152.693 64.8801 152.351 64.5559C151.85 64.0793 151.619 63.3531 151.009 63.0071C150.374 62.6472 149.572 62.8266 148.833 62.8301C147.591 62.8356 146.36 62.2743 145.591 61.3521L145.775 61.3373C145.442 61.1209 145.107 60.8371 144.77 60.4642Z" fill="#0E0F0C"/>
<path d="M140.145 67.7457C140.427 66.8701 140.923 66.0689 141.233 65.2021C141.535 64.3577 141.66 63.4552 142.061 62.6488C142.6 61.5635 143.609 60.1581 145.18 60.2355L145.288 60.325C145.822 60.2669 146.368 60.3216 146.871 60.5041L146.895 61.6633L147.196 61.9139C147.07 62.1438 146.951 62.3664 146.835 62.5848C146.734 63.0197 146.617 63.4514 146.434 63.8606C146.36 64.0283 146.367 64.6117 146.377 65.2567C146.392 66.2563 145.648 67.3537 144.634 67.4954C144.634 67.4954 144.575 71.4534 144.713 74.7588L143.442 72.9687C142.788 72.6127 142.252 72.0659 141.925 71.4219C141.88 71.6345 141.835 71.8471 141.79 72.0597C141.173 71.4451 140.791 70.6218 140.733 69.7753C140.616 69.9792 140.498 70.1832 140.381 70.3871C139.824 69.6384 139.862 68.6208 140.145 67.7457Z" fill="#0E0F0C"/>
<path d="M144.763 67.5208C144.721 67.4209 142.764 66.8119 142.798 68.7606C142.83 70.6537 144.836 70.2268 144.839 70.1722C144.841 70.118 144.763 67.5208 144.763 67.5208Z" fill="#FFBF9D"/>
<path d="M144.207 69.472C144.198 69.4661 144.173 69.4958 144.114 69.5224C144.058 69.5484 143.959 69.5674 143.854 69.5321C143.641 69.4627 143.457 69.1486 143.44 68.8077C143.432 68.6356 143.466 68.4708 143.528 68.334C143.586 68.1945 143.679 68.096 143.785 68.0763C143.891 68.0511 143.967 68.1102 143.993 68.163C144.021 68.2155 144.009 68.2535 144.019 68.2566C144.025 68.2611 144.061 68.2242 144.044 68.1464C144.035 68.1088 144.01 68.0646 143.962 68.0293C143.914 67.9931 143.843 67.9758 143.769 67.9848C143.615 67.9975 143.479 68.1344 143.411 68.2846C143.334 68.4356 143.291 68.6208 143.3 68.8142C143.321 69.1953 143.534 69.5484 143.825 69.6223C143.967 69.6544 144.083 69.6123 144.143 69.5663C144.204 69.518 144.214 69.4751 144.207 69.472Z" fill="#FFAE83"/>
<path d="M143.544 70.0955C143.587 69.9124 143.794 69.7787 143.99 69.8077L144.084 69.8332C144.266 69.9072 144.366 70.1245 144.3 70.301C144.234 70.4775 144.011 70.586 143.82 70.5342C143.63 70.4827 143.501 70.2786 143.544 70.0955Z" fill="#455A64"/>
<path d="M147.037 62.3884C146.997 62.4033 146.812 61.7618 146.255 61.1662C145.707 60.5631 145.06 60.3032 145.081 60.2679C145.087 60.2544 145.255 60.2997 145.503 60.4279C145.75 60.5551 146.07 60.776 146.355 61.084C146.639 61.3926 146.827 61.7224 146.927 61.9712C147.027 62.2208 147.052 62.385 147.037 62.3884Z" fill="#353533"/>
<path d="M164.177 66.9504L163.168 69.7616L162.814 70.2334C162.814 70.2334 162.508 71.796 162.488 72.1306C162.469 72.4649 162.927 74.2121 162.927 74.2121L161.901 75.7668L164.74 76.7979C164.74 76.7979 165.51 75.3779 165.724 75.2169C165.937 75.0562 166.092 74.5961 166.142 74.2847C166.193 73.9732 166.618 72.1296 166.618 72.1296C166.618 72.1296 167.877 70.0944 167.351 69.9911C167.231 69.9676 166.957 69.998 166.957 69.998C166.957 69.998 166.199 71.337 165.997 71.3647L165.71 71.207C165.71 71.207 166.301 69.1591 166.332 68.7761C166.362 68.3932 166.278 68.1232 165.967 68.079C165.967 68.079 165.733 68.1681 165.711 68.2656C165.69 68.3627 165.1 70.6478 164.966 70.6046C164.833 70.5614 164.896 70.354 164.896 70.354C164.896 70.354 165.682 67.5833 165.646 67.424C165.609 67.2646 165.467 67.0168 165.175 67.0441L164.574 68.566C164.574 68.566 164.855 67.2854 164.637 67.0565C164.418 66.8288 164.177 66.9504 164.177 66.9504Z" fill="#FFBF9D"/>
<path d="M164.779 73.1698C164.754 73.1702 164.771 72.9307 164.676 72.5487C164.579 72.1758 164.32 71.6421 163.794 71.2553L163.755 71.2266L163.765 71.1845C163.815 70.9809 163.867 70.7676 163.92 70.5478L163.923 70.5343L163.932 70.5219C163.982 70.4562 164.033 70.3788 164.081 70.301C164.241 70.0366 164.361 69.7601 164.408 69.4908C164.43 69.3574 164.437 69.2236 164.402 69.1116C164.373 68.9989 164.279 68.9174 164.187 68.9042L164.235 68.8873C163.895 69.1946 163.611 69.4476 163.409 69.6211C163.207 69.7946 163.087 69.8893 163.078 69.8803C163.069 69.8714 163.171 69.7601 163.357 69.5717C163.544 69.3833 163.816 69.1182 164.147 68.8019L164.167 68.7822L164.195 68.785C164.362 68.8016 164.489 68.9298 164.532 69.0736C164.579 69.2167 164.571 69.366 164.55 69.5119C164.502 69.805 164.377 70.096 164.21 70.3718C164.16 70.4541 164.109 70.5319 164.053 70.6059L164.065 70.5803C164.01 70.7998 163.956 71.0123 163.905 71.2156L163.877 71.1447C164.443 71.5733 164.685 72.1364 164.764 72.5304C164.802 72.7302 164.809 72.8919 164.802 73.0015C164.795 73.1114 164.787 73.1698 164.779 73.1698Z" fill="#FFAE83"/>
<path d="M164.778 70.8975C164.79 70.8626 165.222 70.9818 165.679 71.2696C166.139 71.5553 166.424 71.8842 166.395 71.9087C166.364 71.9377 166.041 71.6631 165.597 71.3874C165.156 71.1093 164.762 70.9359 164.778 70.8975Z" fill="#FFAE83"/>
<path d="M150.693 76.3608C150.777 76.3608 158.772 80.8307 158.772 80.8307L161.928 73.9482L166.459 75.3429C166.459 75.3429 163.542 83.682 162.912 84.731C162.406 85.5713 160.443 86.9407 158.392 86.3659C156.342 85.7907 152.798 84.8565 152.798 84.8565L150.693 76.3608Z" fill="#9FE870"/>
<path d="M139.727 141.085L139.657 148.801L149.8 148.934C149.754 148.016 144.533 146.106 144.533 146.106L144.793 141.164L139.727 141.085Z" fill="#455A64"/>
<path d="M141.403 145.665C141.206 145.713 141.067 145.921 141.11 146.109C141.153 146.297 141.374 146.432 141.572 146.387C141.77 146.343 141.945 146.099 141.88 145.916C141.815 145.734 141.546 145.588 141.365 145.677" fill="white"/>
<path d="M139.656 148.819L139.659 147.993L149.408 148.472C149.408 148.472 149.856 148.667 149.798 148.967L139.656 148.819Z" fill="#263238"/>
<path d="M144.698 146.069C144.696 146.116 144.448 146.134 144.202 146.281C143.952 146.423 143.824 146.624 143.778 146.605C143.733 146.595 143.811 146.316 144.112 146.142C144.411 145.966 144.71 146.026 144.698 146.069Z" fill="#263238"/>
<path d="M145.756 146.511C145.767 146.556 145.551 146.633 145.38 146.829C145.203 147.02 145.158 147.234 145.108 147.231C145.062 147.238 145.031 146.963 145.249 146.724C145.464 146.482 145.756 146.466 145.756 146.511Z" fill="#263238"/>
<path d="M146.343 147.706C146.298 147.715 146.232 147.48 146.363 147.225C146.492 146.969 146.727 146.871 146.748 146.911C146.775 146.95 146.623 147.086 146.518 147.296C146.409 147.505 146.392 147.702 146.343 147.706Z" fill="#263238"/>
<path d="M144.626 144.939C144.604 144.982 144.378 144.914 144.098 144.928C143.817 144.937 143.598 145.023 143.573 144.983C143.544 144.949 143.76 144.778 144.09 144.766C144.42 144.751 144.65 144.903 144.626 144.939Z" fill="#263238"/>
<path d="M135.098 134.972L130.011 141.002L137.907 147.031C138.469 146.282 135.606 141.73 135.606 141.73L139.033 137.993L135.098 134.972Z" fill="#455A64"/>
<path d="M133.441 139.533C133.254 139.456 133.01 139.538 132.921 139.711C132.832 139.884 132.918 140.12 133.103 140.2C133.288 140.28 133.584 140.19 133.652 140.008C133.72 139.827 133.603 139.555 133.403 139.52" fill="white"/>
<path d="M130 141.009L130.542 140.361L137.9 146.432C137.9 146.432 138.125 146.847 137.884 147.049L130 141.009Z" fill="#263238"/>
<path d="M135.767 141.786C135.734 141.822 135.527 141.691 135.238 141.664C134.948 141.629 134.716 141.713 134.693 141.671C134.663 141.637 134.907 141.463 135.257 141.502C135.607 141.538 135.803 141.759 135.767 141.786Z" fill="#263238"/>
<path d="M136.318 142.741C136.297 142.783 136.077 142.717 135.815 142.772C135.55 142.819 135.375 142.96 135.338 142.93C135.297 142.908 135.453 142.674 135.781 142.612C136.107 142.547 136.347 142.705 136.318 142.741Z" fill="#263238"/>
<path d="M135.989 144.051C135.948 144.032 136.049 143.809 136.319 143.685C136.587 143.559 136.836 143.619 136.826 143.662C136.823 143.709 136.614 143.726 136.395 143.832C136.173 143.931 136.03 144.077 135.989 144.051Z" fill="#263238"/>
<path d="M136.448 140.857C136.403 140.878 136.269 140.692 136.039 140.54C135.813 140.383 135.584 140.323 135.591 140.276C135.591 140.233 135.871 140.224 136.14 140.407C136.409 140.588 136.491 140.842 136.448 140.857Z" fill="#263238"/>
<path d="M154.526 108.957C154.673 109.736 154.903 116.362 155.051 119.856C155.199 123.35 154.83 125.071 154.408 125.854C153.986 126.636 136.447 140.859 136.447 140.859L131.601 137.461C131.601 137.461 138.732 127.273 141.266 125.448C143.801 123.623 148.641 121.942 148.641 121.942L147.264 102.802L153.877 102.461L154.526 108.957Z" fill="#263238"/>
<path d="M155.259 101.671C155.259 102.122 156.03 113.527 152.092 121.773C152.092 121.773 150.727 124.353 150.488 125.482C150.249 126.612 145.142 145.312 145.142 145.312L139.252 145.108C139.252 145.108 138.309 135.738 139.264 130.316C140.219 124.894 141.963 125.526 141.963 122.024C141.963 118.523 141.084 111.26 141.084 111.26C141.084 111.26 139.797 109.276 139.359 105.431C139.002 102.307 140.555 98.9608 140.555 98.9608L142.092 96.3865L155.084 95.7422L155.259 101.671Z" fill="#263238"/>
<path d="M155.259 101.669C155.259 101.669 155.26 101.537 155.255 101.281C155.25 101.021 155.241 100.64 155.23 100.14C155.204 99.1343 155.165 97.6528 155.115 95.74L155.115 95.71L155.083 95.7113C151.89 95.8648 147.455 96.0781 142.089 96.3363L142.061 96.3376L142.047 96.3612C141.569 97.1596 141.046 98.0334 140.507 98.9338L140.505 98.9366L140.504 98.9386C140.117 99.8252 139.805 100.768 139.578 101.759C139.347 102.749 139.219 103.792 139.254 104.861C139.326 105.929 139.51 107.007 139.783 108.092C140.068 109.172 140.432 110.264 141.028 111.291L141.019 111.265C141.242 113.165 141.448 115.133 141.623 117.158C141.709 118.171 141.786 119.199 141.839 120.24C141.866 120.761 141.886 121.285 141.89 121.811C141.9 122.075 141.879 122.337 141.874 122.601C141.845 122.862 141.831 123.127 141.771 123.385C141.673 123.905 141.476 124.405 141.213 124.88C140.952 125.356 140.66 125.827 140.415 126.324C139.914 127.316 139.591 128.39 139.356 129.481C138.887 131.671 138.793 133.946 138.767 136.238C138.756 139.265 138.918 142.237 139.182 145.113L139.187 145.172L139.25 145.174C141.257 145.243 143.223 145.31 145.139 145.376L145.196 145.378L145.21 145.327C146.916 139.062 148.509 133.208 149.912 127.943C150.084 127.285 150.254 126.635 150.422 125.995C150.509 125.673 150.565 125.351 150.671 125.047C150.774 124.74 150.893 124.439 151.017 124.144C151.27 123.553 151.542 122.981 151.819 122.423C151.89 122.284 151.96 122.145 152.03 122.007C152.103 121.872 152.172 121.732 152.228 121.59C152.35 121.309 152.471 121.03 152.59 120.753C153.519 118.532 154.066 116.375 154.45 114.407C155.204 110.459 155.303 107.247 155.338 105.056C155.353 102.86 155.259 101.669 155.259 101.669C155.259 101.669 155.257 101.743 155.261 101.889C155.265 102.038 155.27 102.255 155.278 102.539C155.295 103.112 155.304 103.958 155.29 105.055C155.24 107.244 155.126 110.453 154.362 114.391C153.973 116.354 153.421 118.505 152.492 120.715C152.373 120.99 152.252 121.267 152.13 121.547C152.073 121.688 152.006 121.824 151.932 121.962C151.862 122.1 151.791 122.239 151.72 122.378C151.44 122.936 151.167 123.51 150.912 124.103C150.786 124.401 150.665 124.702 150.56 125.014C150.452 125.327 150.393 125.653 150.308 125.969C150.139 126.608 149.968 127.257 149.795 127.915C148.366 133.173 146.776 139.028 145.075 145.293L145.145 145.244C143.228 145.177 141.262 145.109 139.256 145.039L139.324 145.1C139.062 142.23 138.901 139.26 138.911 136.238C138.937 133.951 139.031 131.682 139.497 129.508C139.73 128.423 140.05 127.361 140.543 126.381C140.786 125.89 141.075 125.423 141.339 124.941C141.605 124.46 141.81 123.942 141.909 123.41C141.971 123.145 141.985 122.876 142.014 122.609C142.019 122.342 142.04 122.074 142.03 121.81C142.025 121.281 142.005 120.755 141.978 120.234C141.924 119.19 141.846 118.162 141.759 117.148C141.582 115.121 141.375 113.153 141.149 111.251L141.148 111.239L141.14 111.226C140.557 110.226 140.189 109.134 139.906 108.064C139.633 106.988 139.449 105.91 139.376 104.856C139.34 103.8 139.465 102.765 139.693 101.782C139.915 100.798 140.226 99.8567 140.606 98.9801L140.604 98.9846C141.141 98.0832 141.662 97.2083 142.138 96.4089L142.096 96.4337C147.46 96.1596 151.895 95.9329 155.087 95.7698L155.054 95.7411C155.117 97.6535 155.166 99.1346 155.199 100.14C155.217 100.64 155.231 101.021 155.24 101.281C155.249 101.537 155.259 101.669 155.259 101.669Z" fill="#455A64"/>
<path d="M150.47 76.1966C150.47 76.1966 156.7 82.2557 156.856 84.9317C156.955 86.6109 155.363 90.4579 154.944 92.8857C154.871 93.3057 155.288 94.4232 155.299 95.1293C155.314 96.1386 152.879 96.432 151.735 96.3857C149.706 96.3042 148.067 95.251 145.802 95.1521L141.57 94.635L143.051 90.7317C143.051 90.7317 142.722 87.1815 142.615 85.8239C142.34 82.3052 141.989 81.3515 142.334 79.4616C142.678 77.5719 144.781 75.2969 144.781 75.2969C148.384 76.4804 150.439 77.2048 150.47 76.1966Z" fill="#E0E0E0"/>
<path d="M152.762 90.3266C152.769 90.3338 152.837 90.2855 152.953 90.1918C153.071 90.0995 153.23 89.9533 153.416 89.7628C153.787 89.383 154.243 88.8012 154.607 88.0858C154.969 87.3692 155.163 86.6683 155.243 86.156C155.284 85.8999 155.305 85.6911 155.307 85.5463C155.311 85.4015 155.309 85.3216 155.299 85.3213C155.274 85.3196 155.246 85.6376 155.139 86.1387C155.034 86.6396 154.828 87.3219 154.473 88.0249C154.116 88.7269 153.683 89.3059 153.336 89.6975C152.99 90.0898 152.745 90.309 152.762 90.3266Z" fill="#263238"/>
<path d="M151.939 93.6609C151.939 91.9441 151.242 88.3577 150.51 85.1594C149.653 81.414 148.276 78.1888 145.395 75.4962L144.511 75.1143C142.997 75.9912 140.993 76.9109 140.916 79.9592C140.887 81.0981 142.657 91.5791 142.657 91.5791C142.657 91.5791 136.891 103.216 138.198 105.401C138.294 105.563 150.394 107.66 151.654 106.915C152.914 106.17 151.939 94.8465 151.939 93.6609Z" fill="#9FE870"/>
<path d="M149.061 102.46H139.559C138.426 102.46 137.508 101.549 137.508 100.426V95.8762C137.508 94.7532 138.426 93.8428 139.559 93.8428H149.062C150.195 93.8428 151.113 94.7532 151.113 95.8762V100.426C151.113 101.549 150.194 102.46 149.061 102.46Z" fill="#455A64"/>
<path d="M139.01 94.9358L138.664 94.8988L140.324 79.5339C140.444 78.4237 141.034 77.4292 141.943 76.806C142.809 76.2115 143.884 76.0197 144.895 76.2789L145.005 76.308C147.539 76.9951 148.234 80.4616 148.534 85.8319C148.775 90.1511 149.529 94.3579 149.537 94.4001L149.193 94.4609C149.186 94.4187 148.428 90.1922 148.186 85.8509C147.894 80.6341 147.245 77.2737 144.913 76.6415L144.807 76.6139C143.883 76.3761 142.935 76.5458 142.141 77.0905C141.316 77.6567 140.78 78.5605 140.671 79.5712L139.01 94.9358Z" fill="#455A64"/>
<path d="M142.986 76.7975C142.984 76.7864 143.068 76.7553 143.226 76.7204C143.384 76.6858 143.617 76.6547 143.908 76.6544C144.484 76.6502 145.313 76.8078 146.054 77.3163C146.799 77.822 147.227 78.5523 147.402 79.0967C147.491 79.3715 147.531 79.6024 147.542 79.7628C147.554 79.9228 147.546 80.0116 147.535 80.0123C147.502 80.0165 147.485 79.6605 147.281 79.1403C147.081 78.6256 146.657 77.9443 145.95 77.4646C145.246 76.9821 144.461 76.8103 143.904 76.7819C143.341 76.7501 142.992 76.8289 142.986 76.7975Z" fill="#263238"/>
<path d="M147.08 92.0125C147.08 92.0125 147.555 82.602 147.354 80.2243L141.187 78.334C140.576 79.8572 139.867 89.8706 140.884 93.289C141.936 96.8225 148.313 105.52 148.313 105.52L152.36 103.411L147.08 92.0125Z" fill="#9FE870"/>
<path d="M147.608 81.1856C147.608 81.1856 147.612 81.2516 147.609 81.3798C147.605 81.5167 147.599 81.7054 147.592 81.9477C147.571 82.4555 147.542 83.1865 147.505 84.1194C147.42 86.0084 147.299 88.7134 147.15 92.016L147.144 91.9832C148.645 95.2105 150.457 99.1073 152.441 103.373L152.476 103.449L152.401 103.488C151.103 104.166 149.743 104.875 148.356 105.6L148.286 105.636L148.24 105.573C148.106 105.387 147.96 105.185 147.814 104.983C146.659 103.369 145.563 101.772 144.544 100.202C143.53 98.6303 142.574 97.0967 141.785 95.5662C141.389 94.8023 141.036 94.036 140.793 93.2507C140.746 93.0512 140.699 92.8528 140.652 92.6565C140.61 92.4592 140.588 92.2611 140.555 92.0658C140.484 91.6752 140.464 91.2867 140.421 90.9069C140.293 89.3836 140.295 87.9606 140.318 86.6644C140.375 84.071 140.554 81.9775 140.74 80.5389C140.831 79.8193 140.928 79.2635 141.017 78.8912C141.052 78.7032 141.106 78.5656 141.135 78.4726C141.167 78.3796 141.184 78.3326 141.187 78.334C141.2 78.3385 141.125 78.5255 141.053 78.8991C140.976 79.2721 140.89 79.8279 140.81 80.5475C140.646 81.9854 140.487 84.0783 140.447 86.6665C140.432 87.9599 140.438 89.3801 140.571 90.8941C140.648 91.6479 140.732 92.4336 140.948 93.2075C141.188 93.9738 141.539 94.7325 141.934 95.4908C142.723 97.0103 143.679 98.5397 144.694 100.107C145.714 101.672 146.809 103.268 147.963 104.879C148.108 105.081 148.253 105.282 148.387 105.467L148.272 105.441C149.659 104.718 151.019 104.009 152.318 103.332L152.279 103.447C150.307 99.1757 148.507 95.2734 147.016 92.042L147.008 92.0261L147.01 92.0091C147.184 88.7075 147.326 86.0035 147.426 84.1153C147.479 83.1831 147.521 82.4524 147.551 81.9453C147.567 81.7034 147.579 81.515 147.589 81.3785C147.597 81.2509 147.608 81.1856 147.608 81.1856Z" fill="#9FE870"/>
<path d="M153.629 106.077C153.629 106.077 154.191 106.623 154.375 106.987C154.559 107.35 154.815 108.891 154.815 108.891C154.815 108.891 154.5 109.125 154.029 108.289C153.559 107.453 153.434 107.04 153.434 107.04L153.629 106.077Z" fill="#FFBF9D"/>
<path d="M154.183 108.925L153.661 106.112L152.017 103.709L148.752 105.426L149.039 108.292C149.039 108.292 149.876 109.647 150.188 109.874C150.5 110.101 150.964 109.802 150.964 109.802C151.323 110.156 152.041 109.865 152.041 109.865C152.498 110.21 152.987 109.712 152.987 109.712C152.987 109.712 153.581 110.053 153.806 109.981C153.885 109.956 153.957 109.881 154.018 109.789C154.186 109.533 154.238 109.222 154.183 108.925Z" fill="#FFBF9D"/>
<path d="M150.533 109.13C150.565 109.113 150.681 109.247 150.792 109.429C150.904 109.611 150.968 109.773 150.936 109.791C150.904 109.808 150.788 109.675 150.676 109.492C150.565 109.31 150.501 109.148 150.533 109.13Z" fill="#FFAE83"/>
<path d="M151.463 108.911C151.499 108.899 151.61 109.125 151.76 109.395C151.909 109.665 152.043 109.88 152.013 109.901C151.985 109.922 151.797 109.734 151.642 109.454C151.486 109.174 151.428 108.921 151.463 108.911Z" fill="#FFAE83"/>
<path d="M152.551 108.798C152.588 108.791 152.662 108.999 152.768 109.246C152.872 109.494 152.97 109.692 152.938 109.712C152.908 109.73 152.753 109.554 152.643 109.293C152.533 109.033 152.515 108.804 152.551 108.798Z" fill="#FFAE83"/>
<path d="M153.802 107.002C153.839 106.996 153.962 107.469 154.077 108.057C154.193 108.646 154.257 109.127 154.22 109.134C154.184 109.139 154.061 108.667 153.945 108.078C153.83 107.49 153.766 107.008 153.802 107.002Z" fill="#FFAE83"/>
<path d="M150.362 108.574C150.375 108.585 150.36 108.629 150.303 108.678C150.248 108.726 150.147 108.775 150.026 108.774C149.905 108.772 149.805 108.722 149.751 108.673C149.696 108.623 149.682 108.578 149.695 108.568C149.723 108.545 149.849 108.647 150.028 108.648C150.207 108.65 150.335 108.55 150.362 108.574Z" fill="#FFAE83"/>
<path d="M151.491 108.537C151.502 108.549 151.479 108.593 151.414 108.64C151.349 108.687 151.239 108.728 151.113 108.728C150.987 108.728 150.877 108.685 150.813 108.638C150.747 108.591 150.725 108.547 150.737 108.535C150.762 108.509 150.908 108.604 151.114 108.601C151.318 108.605 151.465 108.511 151.491 108.537Z" fill="#FFAE83"/>
<path d="M153.538 107.938C153.547 107.92 153.637 107.999 153.578 108.134C153.516 108.257 153.368 108.363 153.178 108.418C152.987 108.471 152.802 108.448 152.685 108.404C152.566 108.36 152.511 108.303 152.52 108.29C152.535 108.259 152.809 108.393 153.14 108.297C153.299 108.254 153.437 108.165 153.495 108.092C153.553 108.014 153.523 107.947 153.538 107.938Z" fill="#FFAE83"/>
<path d="M206.28 71.9747C205.001 70.9091 205.394 67.6401 205.726 65.9668L201.807 68.9832C201.884 69.1803 201.951 69.3801 202 69.5854C202.106 69.9517 202.114 70.3402 202.025 70.7121C201.94 71.0173 201.488 72.2383 201.488 72.2383C201.488 72.2383 200.226 75.8181 202.587 75.8625C204.918 75.807 206.28 71.9747 206.28 71.9747Z" fill="#FFBF9D"/>
<path opacity="0.2" d="M204.957 67.6455C205.062 69.6269 203.038 70.4649 202.025 70.7174C202.114 70.3456 202.106 69.9571 202 69.5908L204.957 67.6455Z" fill="black"/>
<path d="M201.455 60.136C199.498 59.9306 200.655 61.382 198.571 61.8731C198.646 63.1663 200.249 64.4678 200.725 63.6242C201.251 62.6973 203.08 60.2886 201.455 60.136Z" fill="#0E0F0C"/>
<path d="M206.455 64.5353C205.857 66.833 205.566 68.1429 204.127 69.0947C201.962 70.5294 199.28 68.9421 199.161 66.5056C199.053 64.3106 200.049 60.9223 202.568 60.4616C205.049 60.0121 207.053 62.2376 206.455 64.5353Z" fill="#FFBF9D"/>
<path d="M198.986 58.5853C200.525 58.2772 201.068 58.3938 202.402 58.7767C202.402 58.7767 202.014 58.1496 202.067 57.3643C205.289 59.6231 206.457 58.2911 208.043 59.612C209.057 60.4556 208.276 61.7266 208.276 61.7266C208.276 61.7266 210.823 63.0392 207.49 66.0972C207.407 66.4052 207.404 66.6938 207.54 66.8687C207.792 67.1906 208.204 67.3293 208.594 67.4486C208.002 67.6845 207.327 67.7095 206.718 67.5152C206.864 67.8843 207.102 68.2145 207.407 68.4671C206.601 68.603 205.738 68.2922 205.201 67.6762L205.632 65.9862C205.491 65.9862 205.345 66.0001 205.187 66.0417C205.023 65.5034 204.935 64.9428 204.927 64.3795C204.963 63.9355 205.057 63.497 205.209 63.078C205.209 63.078 203.8 62.4259 203.673 61.4796C203.673 61.4796 201.367 62.4231 199.988 61.4796C198.612 60.5361 199.684 58.9932 198.986 58.5853Z" fill="#0E0F0C"/>
<path d="M207.019 66.6548C206.712 67.2181 206.164 67.5844 205.646 67.7232C204.866 67.9313 204.747 67.1238 204.957 66.4023C205.145 65.7529 205.5 64.987 206.286 65.0953C207.064 65.2035 207.371 66.011 207.019 66.6548Z" fill="#FFBF9D"/>
<path d="M219.805 144.12L217.056 144.645L214.534 138.856L218.125 137.574L219.805 144.12Z" fill="#263238"/>
<path d="M216.699 144.184L217.565 143.901C217.762 143.837 217.975 143.876 218.141 143.998C218.861 144.52 219.152 144.137 219.487 143.318C219.819 143.165 220.04 143.532 220.104 143.629L221.516 145.777C221.635 145.954 221.588 146.198 221.41 146.318C221.38 146.34 221.344 146.357 221.308 146.368C220.256 146.709 219.761 146.873 218.454 147.297L214.454 148.602C213.363 148.957 212.782 147.93 213.197 147.68C215.071 146.576 216.309 145.513 216.741 144.719C216.821 144.583 216.677 144.545 216.699 144.184Z" fill="#263238"/>
<path d="M215.041 145.465C214.928 145.429 214.839 145.343 214.803 145.229C214.775 145.171 214.784 145.105 214.825 145.055C215.033 144.775 216.281 144.927 216.42 144.947C216.433 144.947 216.45 144.955 216.458 144.966C216.475 144.988 216.472 145.019 216.45 145.038C216.204 145.188 215.943 145.313 215.672 145.407C215.473 145.493 215.251 145.512 215.041 145.465ZM214.916 145.113C214.9 145.135 214.897 145.163 214.908 145.188C214.939 145.268 215.002 145.329 215.083 145.36C215.387 145.462 215.955 145.191 216.256 145.027C215.744 144.977 215.033 144.96 214.916 145.113Z" fill="#9FE870"/>
<path d="M216.414 145.06C216.046 145.03 215.191 144.716 215.135 144.422C215.121 144.361 215.141 144.275 215.282 144.209C215.852 143.948 216.453 144.933 216.467 144.977C216.478 144.994 216.481 145.016 216.47 145.033C216.458 145.038 216.447 145.044 216.436 145.044L216.414 145.06ZM215.332 144.292C215.227 144.339 215.238 144.378 215.243 144.392C215.268 144.575 215.908 144.858 216.32 144.93C216.165 144.705 215.747 144.153 215.371 144.275L215.332 144.292Z" fill="#9FE870"/>
<path d="M216.317 145.05C216.627 144.995 216.962 145.084 217.206 145.286" stroke="#9FE870" stroke-width="0.5" stroke-miterlimit="10" stroke-linecap="round" stroke-linejoin="round"/>
<path d="M215.91 145.63C216.22 145.575 216.555 145.664 216.799 145.866" stroke="#9FE870" stroke-width="0.5" stroke-miterlimit="10" stroke-linecap="round" stroke-linejoin="round"/>
<path d="M215.351 146.189C215.661 146.134 215.996 146.222 216.24 146.425" stroke="#9FE870" stroke-width="0.5" stroke-miterlimit="10" stroke-linecap="round" stroke-linejoin="round"/>
<path d="M201.793 145.492L198.997 145.386L197.832 139.178L201.616 138.734L201.793 145.492Z" fill="#263238"/>
<path d="M198.753 144.856L199.659 144.776C199.863 144.757 200.063 144.845 200.198 145.001C200.785 145.67 201.153 145.364 201.663 144.64C202.02 144.565 202.155 144.973 202.194 145.081L203.091 147.49C203.169 147.69 203.069 147.917 202.867 147.995C202.831 148.009 202.795 148.017 202.756 148.02C201.657 148.117 201.134 148.164 199.767 148.286L195.578 148.661C194.438 148.764 194.097 147.631 194.56 147.482C196.633 146.824 198.075 146.066 198.673 145.392C198.784 145.273 198.651 145.203 198.753 144.856Z" fill="#263238"/>
<path d="M196.849 145.736C196.746 145.675 196.68 145.57 196.669 145.453C196.655 145.389 196.677 145.325 196.73 145.287C196.996 145.059 198.175 145.489 198.308 145.539C198.322 145.542 198.335 145.553 198.341 145.567C198.352 145.592 198.341 145.622 198.316 145.633C198.045 145.725 197.762 145.786 197.477 145.819C197.264 145.858 197.045 145.83 196.849 145.736ZM196.807 145.364C196.785 145.381 196.777 145.409 196.782 145.436C196.794 145.52 196.843 145.597 196.915 145.642C197.189 145.811 197.804 145.672 198.133 145.581C197.643 145.417 196.954 145.242 196.807 145.364Z" fill="#9FE870"/>
<path d="M198.28 145.649C197.928 145.538 197.164 145.041 197.175 144.739C197.175 144.675 197.214 144.597 197.366 144.564C197.981 144.436 198.346 145.532 198.352 145.579C198.36 145.599 198.355 145.618 198.341 145.635C198.33 145.64 198.316 145.64 198.305 145.637L198.28 145.649ZM197.394 144.653C197.281 144.675 197.283 144.717 197.283 144.73C197.267 144.914 197.826 145.332 198.213 145.496C198.114 145.241 197.829 144.611 197.436 144.644L197.394 144.653Z" fill="#9FE870"/>
<path d="M198.186 145.613C198.501 145.627 198.809 145.788 199 146.04" stroke="#9FE870" stroke-width="0.5" stroke-miterlimit="10" stroke-linecap="round" stroke-linejoin="round"/>
<path d="M197.66 146.089C197.975 146.103 198.283 146.264 198.474 146.516" stroke="#9FE870" stroke-width="0.5" stroke-miterlimit="10" stroke-linecap="round" stroke-linejoin="round"/>
<path d="M196.993 146.51C197.308 146.524 197.615 146.685 197.806 146.937" stroke="#9FE870" stroke-width="0.5" stroke-miterlimit="10" stroke-linecap="round" stroke-linejoin="round"/>
<path d="M213.577 117.667C212.22 106.9 212.002 95.5448 210.391 93.1389L201.945 93.0029C201.986 93.1722 205.715 113.879 206.986 119.532C208.696 126.988 215.902 143.281 215.902 143.281L219.802 142.373C219.805 142.373 216.107 125.995 213.577 117.667Z" fill="#263238"/>
<path d="M197.167 93.1829C196.425 92.6168 194.003 121.871 197.505 143.436L202.225 143.241C202.225 143.241 202.092 124.571 202.568 116.135C203.044 107.699 205.884 93.1829 205.884 93.1829H197.167Z" fill="#263238"/>
<path opacity="0.2" d="M202.767 113.558C202.767 113.558 202.457 111.385 202.322 108.635C202.189 105.915 202.543 103.196 203.332 100.593L203.985 104.123L202.767 113.558Z" fill="black"/>
<path opacity="0.2" d="M196.649 95.5538C196.649 95.5538 198.163 97.9874 203.143 97.3797C208.123 96.772 211.13 95.2069 211.13 95.2069L210.761 93.8027L196.851 94.3744L196.649 95.5538Z" fill="black"/>
<path d="M191.179 85.0156L187.207 78.325L189.023 77.6562L195.085 84.3773L191.179 85.0156Z" fill="#FFBF9D"/>
<path d="M186.817 77.1641C186.877 77.7802 187.154 78.2825 187.212 78.3296L188.051 79.6533L190.053 79.0844C190.053 79.0844 188.995 77.9411 188.99 77.7746C188.976 77.2224 189.183 74.8193 189.142 74.0256C189.114 73.4956 189.208 72.5354 188.951 72.405C188.693 72.2746 188.45 72.5077 188.45 72.5077C188.45 72.5077 188.223 72.2107 187.979 72.4411C187.733 72.6714 187.381 73.5511 187.271 73.9895C187.099 74.6611 186.866 75.599 186.819 76.1762V77.1641H186.817Z" fill="#FFBF9D"/>
<path d="M188.91 77.879C189.22 77.4766 189.535 77.0714 189.77 76.6219C190.009 76.1723 190.166 75.67 190.15 75.1622C190.144 75.0373 190.128 74.9069 190.058 74.8015C189.989 74.6988 189.851 74.6294 189.734 74.6738C189.624 74.7154 189.566 74.8375 189.521 74.9458C189.319 75.4397 189.294 75.5951 189.034 76.0391" fill="#FFBF9D"/>
<path d="M189.034 76.1417C188.619 76.1584 188.209 76.3664 187.957 76.6992C187.924 76.7436 187.869 76.7686 187.816 76.7353C187.772 76.7103 187.744 76.6382 187.78 76.5938C188.079 76.2 188.541 75.9531 189.037 75.9337C189.167 75.9282 189.167 76.1362 189.034 76.1417Z" fill="#FFAE83"/>
<path d="M188.542 72.552C188.472 73.3374 188.273 74.1033 188.27 74.8969C188.27 75.0301 188.063 75.0301 188.063 74.8969C188.065 74.1033 188.265 73.3374 188.334 72.552C188.345 72.4188 188.553 72.4188 188.542 72.552Z" fill="#FFAE83"/>
<path d="M187.736 72.7943C187.725 72.8165 187.509 72.6472 187.274 72.9969C187.036 73.3465 186.485 76.141 186.595 76.8319C186.709 77.5229 187.047 77.9197 187.08 77.8781C187.116 77.8365 187.736 72.7943 187.736 72.7943Z" fill="#FFBF9D"/>
<path d="M187.819 72.8587C187.774 73.2833 187.722 73.7078 187.666 74.1296C187.628 74.4182 187.608 74.7263 187.525 75.0065C187.489 75.1342 187.287 75.0815 187.326 74.951C187.403 74.6791 187.425 74.3794 187.461 74.0991C187.517 73.6856 187.564 73.2722 187.608 72.8587C187.625 72.7255 187.832 72.7255 187.819 72.8587Z" fill="#FFAE83"/>
<path d="M188.378 75.002C187.96 75.002 187.533 75.0602 187.121 75.1268C187.066 75.1351 187.01 75.1129 186.994 75.0547C186.98 75.0047 187.01 74.9354 187.066 74.9271C187.497 74.8577 187.94 74.7967 188.378 74.7939C188.513 74.7939 188.513 75.002 188.378 75.002Z" fill="#FFAE83"/>
<path d="M198.172 73.1756C198.172 73.1756 196.353 80.8929 196.868 96.5912C200.705 97.8982 205.746 97.5596 211.238 96.6023C211.34 94.3906 208.467 85.0555 210.601 74.6381C209.012 74.33 207.285 71.8714 205.671 71.7715C205.671 71.7715 202.643 74.0636 202.493 74.1136L201.602 72.3542C200.207 72.493 199.528 72.8232 198.172 73.1756Z" fill="#9FE870"/>
<path opacity="0.7" d="M198.172 73.1756C198.172 73.1756 196.353 80.8929 196.868 96.5912C200.326 97.8649 205.552 97.6013 211.238 96.6023C211.34 94.3906 208.467 85.0555 210.601 74.6381C209.012 74.33 207.285 71.8714 205.671 71.7715C205.671 71.7715 202.643 74.0636 202.493 74.1136L201.602 72.3542C200.207 72.493 199.528 72.8232 198.172 73.1756Z" fill="white"/>
<path opacity="0.3" d="M206.13 99.4257C206.13 99.4257 205.455 99.1344 205.206 98.732C204.954 98.3296 204.456 92.8878 204.303 89.9713C204.148 87.0547 205.026 75.8604 205.026 75.8604L206.13 99.4257Z" fill="black"/>
<path d="M210.947 72.6269L206.767 71.775L205.56 70.1377C205.56 70.1377 205.073 72.0996 205.062 72.2356C204.71 76.6895 204.882 90.9364 205.081 92.6236C205.322 94.6799 206.315 100.519 206.315 100.519C209.513 100.899 212.369 98.5954 214.304 99.3974C214.304 99.3974 210.875 87.0514 210.972 85.3531C211.068 83.6548 211.597 79.1593 211.597 79.1593L210.947 72.6269Z" fill="#9FE870"/>
<path d="M201.973 71.0254L200.489 72.3824L197.962 72.9929C197.962 72.9929 197.333 79.1506 196.78 84.1873C196.093 90.4005 195.085 100.163 195.085 100.163C196.724 100.255 198.983 100.11 198.983 100.11C198.983 100.11 199.711 92.8619 200.237 87.6505C200.705 83.0051 200.849 76.4727 201.532 73.14C201.798 71.8357 201.973 71.0254 201.973 71.0254Z" fill="#9FE870"/>
<path d="M189.604 77.8991L193.219 81.5288C193.219 81.5288 193.219 81.2652 193.416 81.1209C193.613 80.9766 193.809 81.3318 193.809 81.3318C193.809 81.3318 195.445 75.5098 196.035 74.372C196.624 73.2371 198.003 72.9873 198.003 72.9873C198.003 72.9873 197.004 84.9198 196.907 85.0197C196.807 85.1169 196.505 88.2776 194.41 87.8836C192.314 87.4895 187.406 80.1579 187.406 80.1579L189.604 77.8991Z" fill="#9FE870"/>
<g opacity="0.2">
<path d="M196.394 86.3487C196.533 84.47 196.68 82.5913 196.843 80.7126C196.926 79.7663 197.009 78.8201 197.089 77.871C197.103 77.7045 197.122 77.6046 197.067 77.4548C197.02 77.3271 196.97 77.1967 196.923 77.069C196.843 76.8526 196.76 76.6334 196.68 76.4169C196.632 76.292 196.832 76.2365 196.879 76.3614C196.959 76.5779 197.042 76.7971 197.122 77.0135C197.205 77.2355 197.327 77.452 197.313 77.6906C197.253 78.6702 197.142 79.6498 197.059 80.6294C196.893 82.5358 196.743 84.4422 196.602 86.3487C196.591 86.4819 196.383 86.4819 196.394 86.3487Z" fill="black"/>
</g>
<path opacity="0.2" d="M211.296 81.812L210.551 79.4033C210.551 79.4033 209.923 83.8322 211.019 84.6592L211.296 81.812Z" fill="black"/>
<path d="M214.986 98.863C214.936 98.9296 214.202 100.636 214.125 100.991C214.047 101.347 214.402 104.016 214.706 103.822C215.013 103.628 215.058 103.5 215.055 102.909C215.052 102.318 214.994 101.774 215.163 101.902C215.329 102.027 215.794 103.708 215.692 104.208C215.589 104.707 215.376 105.604 215.703 105.795C216.029 105.984 216.201 105.601 216.201 105.601C216.201 105.601 216.53 105.795 216.777 105.584C217.023 105.376 217.679 104.285 217.732 103.689C217.784 103.092 217.256 100.259 217.131 99.6511C217.092 99.468 217.444 97.9167 217.444 97.9167L214.988 97.001V98.863H214.986Z" fill="#FFBF9D"/>
<path d="M210.947 72.626C211.16 72.5899 212.655 73.5251 213.989 76.8274C215.489 80.5403 216.682 83.6372 217.446 86.0237C217.934 87.5417 218.141 99.0746 217.3 99.3688C216.458 99.6629 214.695 98.6889 214.567 98.3753C214.44 98.059 213.576 89.4759 213.612 88.13C213.635 87.3141 210.501 80.3294 210.374 79.4026C210.244 78.4729 210.947 72.626 210.947 72.626Z" fill="#9FE870"/>
<g opacity="0.2">
<path d="M210.842 73.2577C210.501 73.6573 210.354 74.2068 210.255 74.7091C210.136 75.2946 210.089 75.8912 210.078 76.4851C210.075 76.6183 209.867 76.6183 209.87 76.4851C209.881 75.8551 209.936 75.2197 210.064 74.6036C210.174 74.0791 210.34 73.5241 210.695 73.1106C210.783 73.008 210.927 73.1578 210.842 73.2577Z" fill="black"/>
</g>
<g opacity="0.2">
<path d="M193.914 81.3063C194.374 81.6446 194.761 82.0745 195.044 82.571C195.11 82.6875 194.93 82.7929 194.864 82.6764C194.598 82.2104 194.241 81.8027 193.809 81.4865C193.765 81.4533 193.742 81.395 193.773 81.3451C193.798 81.2979 193.87 81.273 193.914 81.3063Z" fill="black"/>
</g>
<g opacity="0.2">
<path d="M193.369 81.5021C193.873 81.9625 194.293 82.5145 194.606 83.1219C194.667 83.2411 194.487 83.3465 194.426 83.2273C194.122 82.6337 193.715 82.0984 193.222 81.6491C193.125 81.5603 193.272 81.4133 193.369 81.5021Z" fill="black"/>
</g>
</svg>
