<svg width="101" height="100" viewBox="0 0 101 100" fill="none" xmlns="http://www.w3.org/2000/svg">
<circle cx="50.25" cy="50" r="50" fill="#E6E6E6"/>
<g clip-path="url(#clip0_1400_31931)">
<path d="M49.8366 48.9388C53.6749 48.9388 56.9985 47.5621 59.7142 44.8461C62.4298 42.1304 63.8065 38.8077 63.8065 34.9689C63.8065 31.1316 62.4298 27.8084 59.7137 25.0918C56.9976 22.3766 53.6744 21 49.8366 21C45.9978 21 42.6751 22.3766 39.9594 25.0923C37.2438 27.8079 35.8667 31.1311 35.8667 34.9689C35.8667 38.8077 37.2438 42.1309 39.9599 44.8465C42.676 47.5617 45.9992 48.9388 49.8366 48.9388Z" fill="#B8B8B8"/>
<path d="M74.2802 65.5989C74.2019 64.4688 74.0435 63.236 73.8103 61.9341C73.5749 60.6225 73.2718 59.3826 72.9089 58.2494C72.5341 57.0781 72.0243 55.9214 71.3942 54.8129C70.7402 53.6624 69.972 52.6606 69.11 51.8362C68.2086 50.9737 67.105 50.2803 65.8288 49.7746C64.5571 49.2714 63.1477 49.0166 61.6401 49.0166C61.048 49.0166 60.4754 49.2595 59.3696 49.9794C58.689 50.4233 57.8929 50.9366 57.0044 51.5043C56.2446 51.9884 55.2153 52.442 53.944 52.8526C52.7037 53.254 51.4443 53.4575 50.2013 53.4575C48.9583 53.4575 47.6994 53.254 46.4577 52.8526C45.1877 52.4424 44.1585 51.9888 43.3996 51.5048C42.5194 50.9423 41.7229 50.429 41.0322 49.979C39.9277 49.259 39.3546 49.0161 38.7626 49.0161C37.2545 49.0161 35.8456 49.2714 34.5743 49.775C33.299 50.2799 32.1949 50.9733 31.2926 51.8366C30.4311 52.6615 29.6625 53.6628 29.0093 54.8129C28.3796 55.9214 27.8699 57.0776 27.4946 58.2498C27.1322 59.3831 26.8291 60.6225 26.5937 61.9341C26.3605 63.2342 26.2021 64.4674 26.1237 65.6002C26.0468 66.71 26.0078 67.8619 26.0078 69.0252C26.0078 72.0528 26.9703 74.5039 28.8682 76.3115C30.7426 78.0952 33.2229 79.0001 36.239 79.0001H64.1663C67.1824 79.0001 69.6618 78.0956 71.5367 76.3115C73.435 74.5052 74.3975 72.0537 74.3975 69.0248C74.397 67.8561 74.3577 66.7034 74.2802 65.5989Z" fill="#B8B8B8"/>
</g>
<defs>
<clipPath id="clip0_1400_31931">
<rect width="58" height="58" fill="white" transform="translate(21.25 21)"/>
</clipPath>
</defs>
</svg>
