<svg width="24" height="24" viewBox="0 0 24 24" fill="none" xmlns="http://www.w3.org/2000/svg">
<g clip-path="url(#clip0_1400_34438)">
<path d="M12 0C5.3832 0 0 5.38327 0 12.0001C0 18.6169 5.3832 24 12 24C18.6168 24 24 18.6169 24 12.0001C24 5.38327 18.6168 0 12 0ZM12 21.8182C6.58618 21.8182 2.18182 17.4138 2.18182 12.0001C2.18182 6.58633 6.58618 2.18182 12 2.18182C17.4138 2.18182 21.8182 6.58633 21.8182 12.0001C21.8182 17.4138 17.4137 21.8182 12 21.8182Z" fill="#9FE870"/>
<path d="M11.9999 5.09082C11.198 5.09082 10.5457 5.74362 10.5457 6.54602C10.5457 7.34769 11.198 7.99991 11.9999 7.99991C12.8018 7.99991 13.4542 7.34769 13.4542 6.54602C13.4542 5.74362 12.8018 5.09082 11.9999 5.09082Z" fill="#9FE870"/>
<path d="M12.0001 10.1816C11.3976 10.1816 10.9092 10.6701 10.9092 11.2725V17.818C10.9092 18.4205 11.3976 18.9089 12.0001 18.9089C12.6026 18.9089 13.091 18.4205 13.091 17.818V11.2725C13.091 10.6701 12.6026 10.1816 12.0001 10.1816Z" fill="#9FE870"/>
</g>
<defs>
<clipPath id="clip0_1400_34438">
<rect width="24" height="24" fill="white"/>
</clipPath>
</defs>
</svg>
