<svg width="24" height="24" viewBox="0 0 24 24" fill="none" xmlns="http://www.w3.org/2000/svg">
<path fill-rule="evenodd" clip-rule="evenodd" d="M6.4149 1.83309C6.57214 1.95658 6.74874 2.12273 6.95191 2.3234C7.3872 2.75181 7.89219 3.4382 8.32551 4.09713C8.76369 4.76344 9.16972 5.46488 9.3973 5.95309L9.39744 5.95341L9.39759 5.95372C9.52658 6.23111 9.64285 6.48249 9.72457 6.7028C9.80756 6.92653 9.87653 7.17263 9.87698 7.44118C9.87791 8.00333 9.57279 8.43719 9.27888 8.83736C9.19444 8.95232 9.1227 9.04652 9.06087 9.12772C8.92758 9.30273 8.84021 9.41747 8.77026 9.55016C8.70203 9.67959 8.68212 9.77304 8.71441 9.92348C8.76098 10.1404 8.96343 10.6152 9.35655 11.2364C9.73673 11.8372 10.2573 12.5148 10.8792 13.1347C11.501 13.7546 12.1678 14.2614 12.7566 14.6281C13.3633 15.006 13.8305 15.2 14.0537 15.2476C14.209 15.2807 14.3059 15.26 14.4356 15.1924C14.5725 15.1212 14.6942 15.0283 14.8834 14.8838C14.9578 14.827 15.0426 14.7623 15.1429 14.6877L15.1431 14.6876L15.1506 14.682C15.5522 14.3837 15.9983 14.0522 16.5638 14.0528C16.8432 14.0531 17.094 14.132 17.3148 14.2221C17.5257 14.3082 17.7681 14.4303 18.0339 14.5642L18.0562 14.5754C18.5221 14.8104 19.215 15.2085 19.8857 15.6424C20.5445 16.0687 21.2398 16.5662 21.6727 17.0024L21.6733 17.0031C21.8745 17.2063 22.0411 17.3829 22.1649 17.5401C22.2847 17.6922 22.4163 17.8891 22.4717 18.1339C22.5342 18.4097 22.4776 18.6391 22.4195 18.7982C22.3933 18.87 22.3624 18.9388 22.3403 18.9881C22.3368 18.9958 22.3334 19.0033 22.3301 19.0106C22.3095 19.0563 22.2916 19.0962 22.2725 19.1418L22.272 19.1429L22.2716 19.144C22.0756 19.6086 21.8373 20.0542 21.5596 20.475L21.5588 20.4763L21.558 20.4776C21.0153 21.2928 20.5049 21.8254 19.7114 22.195C19.2991 22.387 18.7099 22.581 17.7943 22.4668C16.9137 22.357 15.768 21.9671 14.2043 21.0914L14.2039 21.0911C11.7017 19.6878 9.96545 18.4779 7.72575 16.2445C5.49262 14.0176 4.39498 12.5642 2.85737 9.77085C1.30942 6.95878 1.31164 5.22466 1.7537 4.28004C2.12486 3.48691 2.66282 2.97881 3.4753 2.43901L3.4769 2.43795L3.47851 2.4369C3.89982 2.16009 4.3456 1.92244 4.81026 1.72694L4.81179 1.7263L4.81332 1.72566C4.85931 1.70655 4.89953 1.68852 4.94551 1.66791C4.95272 1.66467 4.96008 1.66138 4.96762 1.658C5.01703 1.63589 5.08594 1.60515 5.15763 1.57911C5.31655 1.52138 5.54553 1.46499 5.8208 1.52706C6.06553 1.58225 6.26243 1.71334 6.4149 1.83309ZM5.39057 3.11014C5.01142 3.26977 4.64764 3.46369 4.30376 3.68948C3.61739 4.14568 3.32315 4.46524 3.11229 4.91582C2.97216 5.21527 2.71281 6.39771 4.17143 9.04751C5.64038 11.7161 6.65212 13.0555 8.78492 15.1823C10.911 17.3025 12.5319 18.4336 14.9373 19.7826C16.4092 20.607 17.3635 20.9015 17.98 20.9784C18.5615 21.0509 18.8664 20.9338 19.078 20.8353C19.5321 20.6237 19.8531 20.3315 20.3085 19.6475C20.5349 19.3043 20.7292 18.9409 20.8891 18.5621C20.9106 18.5105 20.9318 18.4629 20.9496 18.4231C20.8797 18.3401 20.7726 18.2253 20.6077 18.0588C20.2962 17.745 19.718 17.3204 19.0709 16.9018C18.4356 16.4908 17.7898 16.1211 17.3811 15.9149C17.086 15.7663 16.897 15.6718 16.7479 15.6109C16.6027 15.5516 16.5605 15.5528 16.5622 15.5528C16.5758 15.5528 16.5294 15.5263 16.0376 15.8917C15.9874 15.929 15.9331 15.9707 15.8756 16.0147C15.6564 16.1827 15.3911 16.3861 15.1282 16.523C14.7354 16.7275 14.2844 16.8305 13.7408 16.7146C13.265 16.6131 12.6234 16.3123 11.9635 15.9013C11.2857 15.4791 10.5283 14.9029 9.82022 14.1971C9.11232 13.4914 8.52332 12.7248 8.08905 12.0386C7.66771 11.3728 7.35079 10.718 7.24782 10.2383C7.13059 9.69219 7.23747 9.24119 7.44334 8.85066C7.57601 8.599 7.77433 8.33898 7.93755 8.12497C7.98557 8.062 8.03056 8.00302 8.06994 7.94941C8.38523 7.52011 8.37783 7.45168 8.37702 7.44422C8.377 7.44397 8.37698 7.44379 8.37698 7.44367C8.37695 7.42921 8.37362 7.37384 8.31821 7.22448C8.26155 7.07173 8.17334 6.87841 8.03753 6.58637C7.85207 6.18861 7.48853 5.55436 7.07223 4.92131C6.6511 4.28093 6.21674 3.70436 5.89935 3.3921L5.89881 3.39157L5.89828 3.39104C5.7308 3.22561 5.61562 3.1184 5.53246 3.04861C5.49205 3.06667 5.44336 3.08818 5.39057 3.11014Z" fill="#9FE870"/>
</svg>
