<svg width="24" height="24" viewBox="0 0 24 24" fill="none" xmlns="http://www.w3.org/2000/svg">
<path d="M11.4947 0.951172C8.00314 0.951172 5.14706 3.8093 5.14706 7.30087C5.14706 9.43581 6.21806 11.3264 7.84628 12.4766C4.05611 13.9961 1.36776 17.703 1.36776 22.0274C1.3375 23.3907 3.39802 23.3907 3.36776 22.0274C3.36776 17.4373 7.06871 13.7383 11.6588 13.7383C13.261 13.7383 14.7483 14.195 16.0142 14.9785C17.1523 15.6764 18.1991 13.9695 17.0611 13.2715C16.4912 12.9189 15.8736 12.6439 15.2369 12.4062C16.8086 11.2501 17.8365 9.39336 17.8365 7.30087C17.8365 3.8093 14.9863 0.951172 11.4947 0.951172ZM11.4947 2.95316C13.9054 2.95316 15.8365 4.89017 15.8365 7.30087C15.8365 9.71156 13.9054 11.6406 11.4947 11.6406C9.08402 11.6406 7.14706 9.71156 7.14706 7.30087C7.14706 4.89017 9.08402 2.95316 11.4947 2.95316ZM17.6295 19.9688V21.9688C17.6584 23.2728 19.6005 23.2728 19.6295 21.9688V19.9688H21.6314C22.9661 19.9688 22.9661 17.9669 21.6314 17.9669H19.6295V15.9669C19.636 15.4062 19.1804 14.9496 18.6197 14.9551C18.0667 14.9589 17.623 15.4138 17.6295 15.9669V17.9669H15.5816C14.1991 18.0308 14.2948 20.0326 15.6295 19.9688H17.6295Z" fill="#9FE870"/>
</svg>
