<svg width="24" height="24" viewBox="0 0 24 24" fill="none" xmlns="http://www.w3.org/2000/svg">
<g clip-path="url(#clip0_1400_34448)">
<path d="M12 0C5.36761 0 0 5.367 0 12C0 18.6323 5.367 24 12 24C18.6324 24 24 18.633 24 12C24 5.36761 18.633 0 12 0ZM12 22.3256C6.30647 22.3256 1.67442 17.6936 1.67442 12C1.67442 6.30642 6.30647 1.67442 12 1.67442C17.6936 1.67442 22.3256 6.30642 22.3256 12C22.3256 17.6936 17.6936 22.3256 12 22.3256Z" fill="#9FE870"/>
<path d="M11.6448 15.1836C10.9814 15.1836 10.4443 15.7364 10.4443 16.3998C10.4443 17.0475 10.9656 17.6161 11.6448 17.6161C12.324 17.6161 12.861 17.0475 12.861 16.3998C12.861 15.7364 12.3082 15.1836 11.6448 15.1836Z" fill="#9FE870"/>
<path d="M11.8503 5.97559C9.71784 5.97559 8.73853 7.23929 8.73853 8.09223C8.73853 8.70826 9.25978 8.9926 9.68624 8.9926C10.5392 8.9926 10.1917 7.77629 11.8029 7.77629C12.5926 7.77629 13.2245 8.12382 13.2245 8.85043C13.2245 9.70337 12.3399 10.193 11.8187 10.6353C11.3606 11.0301 10.7604 11.6778 10.7604 13.0362C10.7604 13.8576 10.9815 14.0945 11.6291 14.0945C12.4031 14.0945 12.561 13.747 12.561 13.4469C12.561 12.6255 12.5768 12.1516 13.4456 11.4724C13.8721 11.1407 15.2147 10.0666 15.2147 8.58184C15.2147 7.09707 13.8721 5.97559 11.8503 5.97559Z" fill="#9FE870"/>
</g>
<defs>
<clipPath id="clip0_1400_34448">
<rect width="24" height="24" fill="white"/>
</clipPath>
</defs>
</svg>
