<svg width="24" height="24" viewBox="0 0 24 24" fill="none" xmlns="http://www.w3.org/2000/svg">
<path d="M9.16293 11.7266H6.13672C6.04349 11.7266 5.95405 11.7636 5.88814 11.8296L3.5077 14.21C3.50179 14.2159 3.49509 14.2227 3.47859 14.2158C3.46209 14.209 3.46209 14.1995 3.46209 14.1912V12.0782C3.46209 11.884 3.30468 11.7266 3.11052 11.7266H2.73223C2.30032 11.7266 1.94899 11.3752 1.94899 10.9434V1.48638C1.94899 1.05452 2.30037 0.703136 2.73223 0.703136H12.1891C12.621 0.703136 12.9724 1.05452 12.9724 1.48638V7.91708C12.9724 8.11124 13.1298 8.26865 13.3239 8.26865C13.5181 8.26865 13.6755 8.11124 13.6755 7.91708V1.48638C13.6756 0.666807 13.0088 0 12.1892 0H2.73223C1.91266 0 1.24585 0.666807 1.24585 1.48638V10.9433C1.24585 11.7629 1.91266 12.4297 2.73223 12.4297H2.75895V14.1911C2.75895 14.4874 2.93577 14.752 3.20947 14.8654C3.30032 14.9031 3.39534 14.9213 3.48951 14.9213C3.67903 14.9213 3.86489 14.8471 4.00486 14.7072L6.28232 12.4298H9.16293C9.35709 12.4298 9.51449 12.2723 9.51449 12.0782C9.51449 11.884 9.35713 11.7266 9.16293 11.7266Z" fill="#2E6A5E"/>
<path d="M21.2677 9.07861H11.8108C10.9912 9.07861 10.3245 9.74542 10.3245 10.565V20.0219C10.3245 20.8415 10.9913 21.5083 11.8108 21.5083H17.7177L19.9951 23.7857C20.1351 23.9257 20.3209 23.9999 20.5105 23.9999C20.6046 23.9999 20.6997 23.9815 20.7905 23.9439C21.0642 23.8306 21.241 23.5659 21.241 23.2696V21.5082H21.2677C22.0874 21.5082 22.7541 20.8414 22.7541 20.0218V10.565C22.7542 9.74537 22.0874 9.07861 21.2677 9.07861ZM22.051 20.0219C22.051 20.4538 21.6997 20.8051 21.2678 20.8051H20.8895C20.6953 20.8051 20.5379 20.9625 20.5379 21.1567V23.2697C20.5379 23.2781 20.5379 23.2875 20.5214 23.2943C20.505 23.3012 20.4982 23.2945 20.4923 23.2885L18.1119 20.9081C18.046 20.8421 17.9565 20.8051 17.8633 20.8051H11.8108C11.3789 20.8051 11.0276 20.4537 11.0276 20.0218V10.565C11.0276 10.1331 11.379 9.78175 11.8108 9.78175H21.2677C21.6997 9.78175 22.051 10.1331 22.051 10.565V20.0219H22.051Z" fill="#2E6A5E"/>
<path d="M7.92467 2.96572C7.92345 2.96249 7.92219 2.95925 7.92088 2.95606C7.84381 2.76884 7.66334 2.64795 7.46093 2.64795C7.46079 2.64795 7.4606 2.64795 7.46041 2.64795C7.25782 2.64814 7.07735 2.76945 7.00061 2.957C6.99953 2.95963 6.9985 2.9623 6.99747 2.96497L4.58281 9.3051C4.51371 9.48656 4.60475 9.68967 4.7862 9.75876C4.82736 9.77447 4.86969 9.78187 4.91127 9.78187C5.05292 9.78187 5.18647 9.69562 5.23986 9.55532L5.75503 8.20272H9.14954L9.37407 8.79776C9.44265 8.97941 9.64539 9.07114 9.82712 9.00256C10.0088 8.93403 10.1005 8.73115 10.0319 8.54951L7.92467 2.96572ZM6.02283 7.49963L7.46009 3.72604L8.88417 7.49963H6.02283Z" fill="#2E6A5E"/>
<path d="M18.2143 18.0896C17.841 18.3814 17.3927 18.5357 16.9176 18.5357C15.7557 18.5357 14.8104 17.5904 14.8104 16.4284C14.8104 15.2665 15.7557 14.3212 16.9176 14.3212H17.8633C18.0575 14.3212 18.2149 14.1637 18.2149 13.9696C18.2149 13.7754 18.0575 13.618 17.8633 13.618C17.8633 13.618 16.7447 13.618 16.7285 13.618C16.2966 13.618 15.9452 13.2666 15.9452 12.8348C15.9452 12.4029 16.2966 12.0515 16.7285 12.0515C16.951 12.0515 17.1638 12.1467 17.3124 12.3127C17.4419 12.4573 17.6642 12.4696 17.8088 12.3401C17.9535 12.2106 17.9658 11.9883 17.8363 11.8437C17.5545 11.5289 17.1507 11.3484 16.7285 11.3484C15.9089 11.3484 15.2421 12.0152 15.2421 12.8348C15.2421 13.2519 15.4151 13.6292 15.6928 13.8995C14.7552 14.3555 14.1073 15.3176 14.1073 16.4284C14.1073 17.9781 15.368 19.2388 16.9177 19.2388C17.5512 19.2388 18.1493 19.033 18.6474 18.6436C18.8003 18.524 18.8274 18.3031 18.7078 18.1501C18.5882 17.9971 18.3673 17.9701 18.2143 18.0896Z" fill="#2E6A5E"/>
</svg>
