<svg width="24" height="24" viewBox="0 0 24 24" fill="none" xmlns="http://www.w3.org/2000/svg">
<path fill-rule="evenodd" clip-rule="evenodd" d="M7.36453 6C6.79712 6 6.36304 6.307 6.2103 6.66341L4.88742 9.75H19.1126L17.7897 6.66342C17.637 6.30701 17.2029 6 16.6355 6H7.36453ZM19.5 11.25H4.5V16.5H19.5V11.25ZM18 18V18.75C18 19.1642 18.3358 19.5 18.75 19.5H20.25C20.6642 19.5 21 19.1642 21 18.75V10.5C21 10.3984 20.9794 10.2979 20.9394 10.2046L19.1684 6.07253C18.7446 5.08363 17.7096 4.5 16.6355 4.5H7.36453C6.29038 4.5 5.2554 5.08362 4.83158 6.07252L3.06065 10.2046C3.02063 10.2979 3 10.3984 3 10.5V18.75C3 19.1642 3.33579 19.5 3.75 19.5H5.25C5.66421 19.5 6 19.1642 6 18.75V18H18ZM5.25 13.5C5.25 12.6716 5.92157 12 6.75 12C7.57843 12 8.25 12.6716 8.25 13.5C8.25 14.3284 7.57843 15 6.75 15C5.92157 15 5.25 14.3284 5.25 13.5ZM15.75 13.5C15.75 12.6716 16.4216 12 17.25 12C18.0784 12 18.75 12.6716 18.75 13.5C18.75 14.3284 18.0784 15 17.25 15C16.4216 15 15.75 14.3284 15.75 13.5Z" fill="#9FE870"/>
</svg>
