<svg width="20" height="22" viewBox="0 0 20 22" fill="none" xmlns="http://www.w3.org/2000/svg">
<g id="28">
<path id="Vector" d="M19.0525 15.995L17.77 14.15C17.5949 13.8992 17.5007 13.6009 17.5 13.295V8C17.5 6.01088 16.7098 4.10322 15.3033 2.6967C13.8968 1.29018 11.9891 0.5 10 0.5C8.01087 0.5 6.10322 1.29018 4.6967 2.6967C3.29017 4.10322 2.5 6.01088 2.5 8V13.295C2.49927 13.6009 2.40506 13.8992 2.23 14.15L0.947498 15.995C0.753308 16.2102 0.625611 16.477 0.57985 16.7632C0.534089 17.0494 0.572224 17.3427 0.689642 17.6077C0.807061 17.8727 0.998735 18.098 1.24148 18.2563C1.48423 18.4147 1.76766 18.4993 2.0575 18.5H6.325C6.49713 19.3477 6.95705 20.1099 7.6268 20.6573C8.29656 21.2047 9.13498 21.5038 10 21.5038C10.865 21.5038 11.7034 21.2047 12.3732 20.6573C13.043 20.1099 13.5029 19.3477 13.675 18.5H17.9425C18.2323 18.4993 18.5158 18.4147 18.7585 18.2563C19.0013 18.098 19.1929 17.8727 19.3104 17.6077C19.4278 17.3427 19.4659 17.0494 19.4201 16.7632C19.3744 16.477 19.2467 16.2102 19.0525 15.995ZM10 20C9.53579 19.9987 9.08335 19.8538 8.7047 19.5853C8.32605 19.3168 8.03973 18.9377 7.885 18.5H12.115C11.9603 18.9377 11.6739 19.3168 11.2953 19.5853C10.9166 19.8538 10.4642 19.9987 10 20ZM2.0575 17C2.0914 16.9685 2.12159 16.9333 2.1475 16.895L3.46 15.005C3.81013 14.5034 3.99855 13.9067 4 13.295V8C4 6.4087 4.63214 4.88258 5.75736 3.75736C6.88258 2.63214 8.4087 2 10 2C11.5913 2 13.1174 2.63214 14.2426 3.75736C15.3679 4.88258 16 6.4087 16 8V13.295C16.0014 13.9067 16.1899 14.5034 16.54 15.005L17.8525 16.895C17.8784 16.9333 17.9086 16.9685 17.9425 17H2.0575Z" fill="#9FE870"/>
</g>
</svg>
