<svg width="24" height="24" viewBox="0 0 24 24" fill="none" xmlns="http://www.w3.org/2000/svg">
<g id="Group">
<path id="Vector" d="M0.619629 20.6848V23.49C0.619629 23.7733 0.846304 23.9717 1.12966 24H16.289C16.5724 24 16.7707 23.7733 16.7991 23.49V20.6848C16.7991 17.3412 14.5889 14.4227 11.387 13.4876C12.3788 12.9492 13.1721 12.0992 13.6538 11.1074C14.0788 11.4475 14.5605 11.7025 15.0423 11.8725V12.4959C15.0423 13.2043 15.609 13.7993 16.3457 13.7993H17.4792C18.1875 13.7993 18.7826 13.2326 18.7826 12.4959V11.8725C19.3493 11.6742 19.8593 11.3625 20.341 10.9941L20.8794 11.3058C21.5028 11.6458 22.2962 11.4474 22.6362 10.8241L23.2029 9.8607C23.5713 9.2373 23.3445 8.4439 22.7212 8.07558L22.1828 7.76388C22.2395 7.48052 22.2678 7.16882 22.2678 6.88546C22.2678 6.6021 22.2395 6.2904 22.1828 6.00704L22.7212 5.69534C23.3446 5.3553 23.5713 4.56191 23.2029 3.93856C23.1746 3.91022 23.0895 3.76857 22.6362 2.97518C22.2678 2.35178 21.5027 2.15344 20.8794 2.49349L20.341 2.80519C19.8877 2.4368 19.3493 2.12516 18.7826 1.92677V1.30343C18.7826 0.595059 18.2159 0 17.4792 0H16.3457C15.6373 0 15.0423 0.566717 15.0423 1.30343V1.92683C14.4756 2.12516 13.9655 2.43686 13.4838 2.80525L12.9455 2.49355C12.3221 2.1535 11.5287 2.3519 11.1887 2.97524L10.792 3.65526C10.1403 3.3719 9.43192 3.2586 8.72355 3.2586C5.72003 3.2586 3.25482 5.66712 3.25482 8.67064C3.25482 10.6541 4.33158 12.4959 6.06001 13.4593C2.82982 14.3943 0.619629 17.3412 0.619629 20.6848ZM12.0104 3.48527C12.0955 3.34362 12.2654 3.28694 12.4354 3.3719L13.2855 3.8536C13.4838 3.96696 13.7105 3.93862 13.8806 3.79691C14.3906 3.31522 14.9857 2.97518 15.6657 2.77685C15.864 2.72016 16.0341 2.52183 16.0341 2.29515V1.33177C16.0341 1.16178 16.1757 1.02007 16.3458 1.02007H17.4792C17.6492 1.02007 17.7909 1.16172 17.7909 1.33177V2.29515C17.7909 2.52183 17.9326 2.72016 18.1593 2.77685C18.811 2.97518 19.4344 3.31522 19.9444 3.79691C20.1144 3.93856 20.3411 3.96691 20.5395 3.8536L21.3895 3.3719C21.5312 3.28688 21.7296 3.34356 21.8146 3.48527L22.3812 4.44866C22.4662 4.59031 22.4095 4.7887 22.2678 4.84532L21.4177 5.32702C21.2194 5.44038 21.1344 5.66706 21.191 5.86539C21.361 6.54542 21.361 7.2255 21.191 7.90553C21.1344 8.1322 21.2477 8.35888 21.4177 8.4439L22.2678 8.9256C22.4094 9.01062 22.4661 9.18061 22.3812 9.3506L21.8144 10.314C21.7294 10.4556 21.5594 10.5123 21.4178 10.4274L20.5677 9.94566C20.3694 9.8323 20.1427 9.86064 19.9726 10.0023C19.4626 10.484 18.8675 10.8241 18.1875 11.0224C17.9608 11.0791 17.8191 11.2774 17.8191 11.5041V12.4675C17.8191 12.6375 17.6775 12.7792 17.5074 12.7792H16.374C16.204 12.7792 16.0623 12.6375 16.0623 12.4675V11.5041C16.0623 11.2774 15.9206 11.0791 15.6939 11.0224C15.0705 10.8524 14.5039 10.5407 14.0221 10.1157C14.1355 9.66236 14.1921 9.12399 14.1921 8.72726C14.1921 6.80043 13.172 5.10034 11.6703 4.13696L12.0104 3.48527ZM4.21821 8.69892C4.21821 6.23377 6.23 4.25026 8.69521 4.25026C11.1604 4.25026 13.1722 6.26206 13.1722 8.69892C13.1722 11.0224 11.4154 13.1759 8.66686 13.1759C6.23 13.1759 4.21821 11.1641 4.21821 8.69892ZM8.12849 14.1676C8.18517 14.1676 9.31855 14.1676 9.26192 14.1676C12.8605 14.1676 15.7791 17.0862 15.7791 20.6848V22.9799H1.61136V20.6848C1.61136 17.0862 4.52991 14.1676 8.12849 14.1676Z" fill="#9FE870"/>
<path id="Vector_2" d="M16.884 9.66207C18.4141 9.66207 19.6325 8.41532 19.6325 6.88522C19.6325 5.35512 18.3858 4.13672 16.8557 4.13672C15.3256 4.13672 14.1072 5.38346 14.1072 6.91356C14.1072 8.41527 15.3539 9.66207 16.884 9.66207ZM16.884 5.12839C17.8757 5.12839 18.6408 5.95012 18.6408 6.91351C18.6408 7.90523 17.8191 8.67028 16.8557 8.67028C15.8923 8.67028 15.0989 7.87689 15.0989 6.88516C15.0989 5.89344 15.8923 5.10004 16.884 5.12839Z" fill="#9FE870"/>
</g>
</svg>
