<svg width="24" height="24" viewBox="0 0 24 24" fill="none" xmlns="http://www.w3.org/2000/svg">
<g id="shield-checkmark">
<g id="Vector">
<path fill-rule="evenodd" clip-rule="evenodd" d="M16.2408 7.68294C16.554 7.95404 16.5881 8.42768 16.317 8.74086L11.1233 14.7409C10.9879 14.8973 10.7938 14.9909 10.587 14.9994C10.3803 15.0079 10.1792 14.9306 10.0314 14.7857L7.72512 12.5264C7.42923 12.2365 7.42436 11.7617 7.71423 11.4658C8.0041 11.1699 8.47895 11.165 8.77483 11.4549L10.5113 13.156L15.1829 7.75914C15.454 7.44596 15.9277 7.41185 16.2408 7.68294Z" fill="#9FE870"/>
<path fill-rule="evenodd" clip-rule="evenodd" d="M11.6913 1.56647C11.8875 1.47784 12.1124 1.47784 12.3087 1.56647C16.0375 3.25047 17.7114 3.7885 21.8402 4.52913C22.1802 4.59011 22.4345 4.8754 22.4563 5.22012C23.249 17.7832 13.0535 22.1342 12.2802 22.4457C12.1004 22.5181 11.8996 22.5181 11.7198 22.4457C10.9464 22.1342 0.750994 17.7832 1.54365 5.22012C1.5654 4.8754 1.81977 4.59011 2.15974 4.52913C6.28859 3.7885 7.96247 3.25047 11.6913 1.56647ZM3.01212 5.89841C2.65848 16.1309 10.3285 20.1754 12 20.9334C13.6715 20.1754 21.3415 16.1309 20.9878 5.89841C17.2567 5.20575 15.4519 4.61914 12 3.07241C8.548 4.61914 6.74328 5.20575 3.01212 5.89841Z" fill="#9FE870"/>
</g>
</g>
</svg>
