<svg width="336" height="87" viewBox="0 0 336 87" fill="none" xmlns="http://www.w3.org/2000/svg">
<path d="M30.6864 61.5967C25.0314 61.5967 19.8477 60.2926 15.1353 57.6845C10.4783 55.0208 6.79147 51.3861 4.07488 46.7802C1.35829 42.1188 0 36.9303 0 31.2145C0 25.4988 1.35829 20.338 4.07488 15.7321C6.79147 11.0708 10.4783 7.436 15.1353 4.82785C19.8477 2.16421 25.0314 0.83239 30.6864 0.83239C36.7294 0.83239 42.1903 2.38618 47.0691 5.49376C51.9478 8.54585 55.5792 12.7633 57.9631 18.1461L46.4038 23.1404C45.0732 19.9218 43.0219 17.4524 40.2499 15.7321C37.5333 13.9564 34.3454 13.0685 30.6864 13.0685C27.4154 13.0685 24.4216 13.8454 21.705 15.3992C19.0438 16.953 16.9094 19.1172 15.3016 21.8918C13.7493 24.6109 12.9731 27.7185 12.9731 31.2145C12.9731 34.5996 13.7493 37.6794 15.3016 40.454C16.9094 43.1732 19.0438 45.3374 21.705 46.9467C24.4216 48.556 27.4154 49.3606 30.6864 49.3606C34.4563 49.3606 37.6996 48.4727 40.4162 46.697C43.1328 44.8657 45.1564 42.2853 46.4869 38.9557L58.2126 43.8668C55.6069 49.8045 51.8647 54.2439 46.9859 57.185C42.1626 60.1261 36.7294 61.5967 30.6864 61.5967ZM88.9724 51.941L89.804 46.1143L89.1388 41.2032L89.2219 32.1302C89.2219 29.9105 88.5012 28.1902 87.0597 26.9694C85.6183 25.7485 83.6224 25.1381 81.0722 25.1381C79.1317 25.1381 77.1359 25.4988 75.0846 26.2202C73.0887 26.8861 70.9543 27.8295 68.6812 29.0503L64.1905 18.9784C67.2952 17.3692 70.2612 16.1761 73.0887 15.3992C75.9716 14.6223 78.9654 14.2338 82.0701 14.2338C88.0577 14.2338 92.8256 15.8431 96.3738 19.0617C99.922 22.2248 101.696 26.6642 101.696 32.3799V60.3481H90.802L88.9724 51.941ZM78.3279 61.5967C75.6113 61.5967 73.061 61.014 70.677 59.8487C68.3485 58.6278 66.4358 56.8798 64.9389 54.6046C63.4975 52.274 62.7768 49.5826 62.7768 46.5305C62.7768 43.7004 63.4421 41.1477 64.7726 38.8725C66.1586 36.5418 68.0436 34.7383 70.4276 33.462C72.867 32.1302 75.5558 31.4643 78.4942 31.4643C81.4325 31.4643 84.0659 32.0747 86.3944 33.2955C88.723 34.5163 90.5248 36.2366 91.7999 38.4563C93.0751 40.676 93.7126 43.2287 93.7126 46.1143C93.7126 49.4438 92.9919 52.274 91.5504 54.6046C90.109 56.8798 88.224 58.6278 85.8955 59.8487C83.567 61.014 81.0444 61.5967 78.3279 61.5967ZM82.0701 52.0242C83.5115 52.0242 84.759 51.7745 85.8123 51.2751C86.8657 50.7757 87.6696 50.1097 88.224 49.2774C88.8338 48.3895 89.1388 47.3351 89.1388 46.1143C89.1388 44.9489 88.8338 43.9223 88.224 43.0344C87.6696 42.1466 86.8657 41.4529 85.8123 40.9535C84.759 40.454 83.5115 40.2043 82.0701 40.2043C80.7395 40.2043 79.5198 40.454 78.411 40.9535C77.3576 41.4529 76.526 42.1466 75.9162 43.0344C75.3618 43.9223 75.0846 44.9489 75.0846 46.1143C75.0846 47.3351 75.3618 48.3895 75.9162 49.2774C76.526 50.1097 77.3576 50.7757 78.411 51.2751C79.5198 51.7745 80.7395 52.0242 82.0701 52.0242ZM111.067 15.4824H121.712L123.541 24.4722V60.3481H111.067V15.4824ZM117.803 35.3765C117.859 31.825 118.524 28.4954 119.799 25.3878C121.074 22.2248 122.848 19.6998 125.121 17.8131C127.45 15.9264 130.166 14.983 133.271 14.983C134.103 14.983 134.907 15.0385 135.683 15.1495V27.2191C134.574 27.1081 133.631 27.0526 132.855 27.0526C130.915 27.0526 129.252 27.3856 127.866 28.0515C126.48 28.7174 125.399 29.6885 124.622 30.9648C123.902 32.1857 123.541 33.6562 123.541 35.3765H117.803ZM168.862 61.5967C164.704 61.5967 160.962 60.5423 157.635 58.4336C154.364 56.3249 151.814 53.467 149.985 49.86C148.155 46.253 147.24 42.2853 147.24 37.9569C147.24 33.573 148.21 29.5775 150.151 25.9705C152.091 22.308 154.697 19.4501 157.968 17.3969C161.239 15.2882 164.87 14.2338 168.862 14.2338C173.131 14.2338 177.012 15.2604 180.505 17.3137C183.997 19.3669 186.714 22.197 188.654 25.804C190.595 29.3555 191.565 33.4065 191.565 37.9569C191.565 42.3963 190.567 46.4195 188.571 50.0265C186.631 53.6335 183.914 56.4636 180.421 58.5169C176.984 60.5701 173.131 61.5967 168.862 61.5967ZM167.199 50.193C169.472 50.193 171.523 49.6658 173.353 48.6114C175.182 47.5571 176.624 46.0865 177.677 44.1998C178.731 42.313 179.257 40.2321 179.257 37.9569C179.257 35.6262 178.731 33.5175 177.677 31.6307C176.624 29.744 175.155 28.2734 173.27 27.2191C171.44 26.1092 169.389 25.5543 167.116 25.5543C164.843 25.5543 162.764 26.1092 160.879 27.2191C159.049 28.2734 157.608 29.744 156.554 31.6307C155.501 33.5175 154.974 35.6262 154.974 37.9569C154.974 40.2321 155.501 42.313 156.554 44.1998C157.608 46.0865 159.049 47.5571 160.879 48.6114C162.764 49.6658 164.87 50.193 167.199 50.193ZM142.334 15.4824H153.561L155.556 25.0549L154.226 34.7106V40.787L154.808 51.1919V86.4249H142.334V15.4824ZM221.709 61.5967C217.107 61.5967 212.921 60.5701 209.151 58.5169C205.437 56.4636 202.526 53.6335 200.42 50.0265C198.313 46.4195 197.259 42.3963 197.259 37.9569C197.259 33.462 198.313 29.411 200.42 25.804C202.526 22.197 205.437 19.3669 209.151 17.3137C212.921 15.2604 217.107 14.2338 221.709 14.2338C226.31 14.2338 230.468 15.2604 234.183 17.3137C237.953 19.3669 240.892 22.197 242.998 25.804C245.161 29.3555 246.242 33.4065 246.242 37.9569C246.242 42.3963 245.161 46.4195 242.998 50.0265C240.892 53.6335 237.953 56.4636 234.183 58.5169C230.468 60.5701 226.31 61.5967 221.709 61.5967ZM221.709 50.2762C223.982 50.2762 226.033 49.749 227.863 48.6947C229.748 47.5848 231.217 46.0865 232.271 44.1998C233.379 42.313 233.934 40.2321 233.934 37.9569C233.934 35.6262 233.379 33.5175 232.271 31.6307C231.217 29.744 229.748 28.2734 227.863 27.2191C226.033 26.1092 223.982 25.5543 221.709 25.5543C219.436 25.5543 217.357 26.0815 215.472 27.1358C213.642 28.1902 212.201 29.6885 211.147 31.6307C210.094 33.5175 209.567 35.6262 209.567 37.9569C209.567 40.2321 210.094 42.3408 211.147 44.283C212.201 46.1698 213.642 47.6403 215.472 48.6947C217.357 49.749 219.436 50.2762 221.709 50.2762ZM276.364 61.5967C271.763 61.5967 267.577 60.5701 263.807 58.5169C260.093 56.4636 257.182 53.6335 255.075 50.0265C252.968 46.4195 251.915 42.3963 251.915 37.9569C251.915 33.462 252.968 29.411 255.075 25.804C257.182 22.197 260.093 19.3669 263.807 17.3137C267.577 15.2604 271.763 14.2338 276.364 14.2338C280.966 14.2338 285.124 15.2604 288.839 17.3137C292.608 19.3669 295.547 22.197 297.654 25.804C299.816 29.3555 300.897 33.4065 300.897 37.9569C300.897 42.3963 299.816 46.4195 297.654 50.0265C295.547 53.6335 292.608 56.4636 288.839 58.5169C285.124 60.5701 280.966 61.5967 276.364 61.5967ZM276.364 50.2762C278.637 50.2762 280.689 49.749 282.518 48.6947C284.403 47.5848 285.872 46.0865 286.926 44.1998C288.035 42.313 288.589 40.2321 288.589 37.9569C288.589 35.6262 288.035 33.5175 286.926 31.6307C285.872 29.744 284.403 28.2734 282.518 27.2191C280.689 26.1092 278.637 25.5543 276.364 25.5543C274.091 25.5543 272.012 26.0815 270.127 27.1358C268.298 28.1902 266.856 29.6885 265.803 31.6307C264.75 33.5175 264.223 35.6262 264.223 37.9569C264.223 40.2321 264.75 42.3408 265.803 44.283C266.856 46.1698 268.298 47.6403 270.127 48.6947C272.012 49.749 274.091 50.2762 276.364 50.2762ZM308.088 0H320.562V60.3481H308.088V0ZM323.526 0H336V60.3481H323.526V0Z" fill="#163300"/>
<path d="M257.753 85.8663C256.934 85.8663 256.271 85.6254 255.766 85.1435C255.26 84.6617 255.007 84.0354 255.007 83.2644C255.007 82.4935 255.26 81.8672 255.766 81.3853C256.271 80.9035 256.934 80.6626 257.753 80.6626C258.547 80.6626 259.198 80.9035 259.704 81.3853C260.234 81.8672 260.498 82.4935 260.498 83.2644C260.498 84.0113 260.234 84.6376 259.704 85.1435C259.198 85.6254 258.547 85.8663 257.753 85.8663ZM272.845 85.9385C270.894 85.9385 269.136 85.5049 267.57 84.6376C266.028 83.7463 264.8 82.5417 263.885 81.024C262.994 79.4822 262.548 77.7476 262.548 75.8203C262.548 73.9172 262.994 72.1947 263.885 70.6528C264.776 69.0869 266.004 67.8703 267.57 67.0031C269.136 66.1117 270.894 65.666 272.845 65.666C274.988 65.666 276.855 66.1599 278.445 67.1476C280.059 68.1112 281.275 69.4844 282.094 71.2672L278.517 72.821C277.939 71.7128 277.168 70.8697 276.205 70.2915C275.265 69.6892 274.145 69.3881 272.845 69.3881C271.689 69.3881 270.629 69.6651 269.665 70.2192C268.726 70.7733 267.979 71.5442 267.425 72.5319C266.871 73.4956 266.594 74.5917 266.594 75.8203C266.594 77.049 266.871 78.1451 267.425 79.1088C267.979 80.0724 268.726 80.8313 269.665 81.3853C270.629 81.9394 271.689 82.2165 272.845 82.2165C274.17 82.2165 275.314 81.9153 276.277 81.3131C277.265 80.7108 278.035 79.8194 278.589 78.639L282.275 80.1928C281.793 81.301 281.106 82.2888 280.215 83.156C279.324 84.0233 278.24 84.7099 276.964 85.2158C275.711 85.6976 274.338 85.9385 272.845 85.9385ZM294.654 85.9385C292.679 85.9385 290.896 85.5049 289.306 84.6376C287.717 83.7463 286.464 82.5417 285.549 81.024C284.634 79.4822 284.176 77.7476 284.176 75.8203C284.176 73.8931 284.634 72.1585 285.549 70.6167C286.464 69.0749 287.717 67.8703 289.306 67.0031C290.896 66.1117 292.679 65.666 294.654 65.666C296.605 65.666 298.375 66.1117 299.965 67.0031C301.578 67.8703 302.831 69.0749 303.722 70.6167C304.637 72.1585 305.095 73.8931 305.095 75.8203C305.095 77.7235 304.637 79.446 303.722 80.9878C302.831 82.5297 301.578 83.7463 299.965 84.6376C298.375 85.5049 296.605 85.9385 294.654 85.9385ZM294.617 82.2526C295.846 82.2526 296.942 81.9756 297.905 81.4215C298.893 80.8433 299.663 80.0724 300.217 79.1088C300.796 78.121 301.085 77.0249 301.085 75.8203C301.085 74.6158 300.796 73.5197 300.217 72.5319C299.663 71.5442 298.893 70.7733 297.905 70.2192C296.942 69.6651 295.846 69.3881 294.617 69.3881C293.413 69.3881 292.317 69.6651 291.33 70.2192C290.366 70.7733 289.608 71.5442 289.054 72.5319C288.5 73.5197 288.223 74.6158 288.223 75.8203C288.223 77.0249 288.5 78.121 289.054 79.1088C289.608 80.0965 290.366 80.8674 291.33 81.4215C292.317 81.9756 293.413 82.2526 294.617 82.2526ZM308.62 66.1719H312.269L312.702 69.894V85.4688H308.62V66.1719ZM319.783 73.0378C319.783 71.8815 319.482 70.9781 318.88 70.3276C318.302 69.6772 317.531 69.3519 316.568 69.3519C315.869 69.3519 315.219 69.5326 314.617 69.894C314.039 70.2312 313.569 70.7131 313.208 71.3394C312.871 71.9658 312.702 72.6765 312.702 73.4715H310.751C310.872 71.7851 311.269 70.3637 311.943 69.2074C312.618 68.0269 313.461 67.1476 314.472 66.5694C315.484 65.9672 316.556 65.666 317.688 65.666C318.82 65.666 319.856 65.9551 320.795 66.5333C321.734 67.1115 322.481 67.9426 323.035 69.0267C323.589 70.1108 323.866 71.3876 323.866 72.8572V85.4688H319.783V73.0378ZM330.947 73.0378C330.947 71.8815 330.646 70.9781 330.044 70.3276C329.466 69.6772 328.695 69.3519 327.732 69.3519C327.009 69.3519 326.347 69.5326 325.745 69.894C325.167 70.2312 324.709 70.7131 324.372 71.3394C324.035 71.9658 323.866 72.6765 323.866 73.4715H321.879C321.903 71.8574 322.216 70.4722 322.818 69.3158C323.445 68.1353 324.275 67.2319 325.311 66.6056C326.347 65.9792 327.503 65.666 328.78 65.666C329.936 65.666 330.983 65.9431 331.923 66.4972C332.862 67.0512 333.609 67.8703 334.163 68.9544C334.741 70.0144 335.03 71.3033 335.03 72.821V85.4688H330.947V73.0378Z" fill="#163300"/>
</svg>
