<svg width="336" height="67" viewBox="0 0 336 67" fill="none" xmlns="http://www.w3.org/2000/svg">
<g clip-path="url(#clip0_7743_27379)">
<path d="M42.0801 24.2787C41.633 25.0777 41.4102 26.991 41.4116 30.0184V40.935C41.4116 44.2451 39.6982 47.1209 36.2713 49.5628C32.7249 52.1214 28.3815 53.4007 23.2412 53.4007C16.1049 53.4007 10.4123 51.1587 6.16343 46.6746C2.05448 42.4025 0 36.9564 0 30.3363C0 23.2923 2.08981 17.4229 6.26942 12.7282C10.9409 7.4465 17.3727 4.80566 25.5648 4.80566C31.0352 4.80566 35.367 5.86214 38.5602 7.9751L37.9957 18.37L37.7143 18.4413C36.8991 17.0105 35.2795 15.8364 32.8554 14.9193C30.542 14.0489 28.0894 13.6075 25.6178 13.6169C23.0945 13.6169 20.8879 14.0157 18.9978 14.8133C17.1595 15.5765 15.5169 16.7441 14.1918 18.2293C11.4226 21.2581 10.0373 25.2612 10.036 30.2385C10.036 34.5866 11.2589 38.0727 13.7047 40.6966C16.1504 43.304 19.2961 44.6071 23.1414 44.6059C27.3903 44.6059 30.2546 43.5025 31.7344 41.2957C32.2045 40.5865 32.4496 39.7518 32.4376 38.9009V33.0553H27.8964C25.4507 33.0553 24.1238 33.2666 23.9159 33.6892L23.812 33.6546L23.494 24.4622C24.1503 24.6524 26.8148 24.7468 31.4878 24.7455H35.6436C38.2253 24.7455 40.3375 24.5689 41.9802 24.2156L42.0801 24.2787Z" fill="#163300"/>
<path d="M58.9613 48.5929C58.9613 50.6185 59.0085 51.9363 59.1025 52.5466H50.304V15.6591H58.9654V18.3766C60.968 16.0937 63.0715 14.9521 65.2759 14.9521C67.4803 14.9521 69.2182 15.2246 70.4896 15.7694L69.8533 25.264L69.7121 25.3703C68.8935 23.9115 67.1884 23.182 64.5966 23.182C63.6062 23.182 62.5988 23.5172 61.5744 24.1872C60.5272 24.8803 59.641 25.7895 58.9757 26.8537L58.9613 48.5929Z" fill="#163300"/>
<path d="M73.0537 34.4046C73.0288 31.7842 73.506 29.1834 74.4591 26.7442C75.3639 24.4412 76.714 22.3411 78.4312 20.5651C82.084 16.8231 86.863 14.9521 92.768 14.9521C97.7564 14.9521 101.762 16.6113 104.784 19.9297C107.759 23.1322 109.25 27.1569 109.259 32.0037C109.259 33.8631 109.118 35.134 108.836 35.8165C106.493 36.4745 101.725 36.8041 94.5334 36.8055H82.1634C82.4428 38.0215 82.9632 39.1687 83.6935 40.1783C84.4238 41.188 85.3492 42.0396 86.4142 42.6821C88.6406 44.0839 91.5341 44.784 95.0948 44.7827C98.8181 44.7827 102.016 44.1117 104.689 42.77C105.253 42.5059 105.783 42.1744 106.269 41.783C106.222 42.77 106.163 43.7834 106.094 44.8174L105.708 50.3344C103.926 51.5603 101.044 52.4076 97.0615 52.8763C95.9425 53.0116 94.8164 53.0798 93.6894 53.0806C87.7382 53.0806 82.8183 51.3389 78.9295 47.8558C75.0136 44.3481 73.0549 39.8643 73.0537 34.4046ZM99.9008 29.9563C98.9381 24.897 96.1971 22.3667 91.6778 22.3653C88.1159 22.3653 85.4102 23.9073 83.5607 26.9914C82.986 27.961 82.5485 29.0064 82.261 30.0972C82.8223 30.1218 83.5139 30.1442 84.3335 30.1688H86.9349C87.8012 30.1906 88.6325 30.2021 89.4284 30.2035H91.4318C92.6276 30.2035 93.7971 30.1912 94.9463 30.1688L97.8262 30.0625C98.6012 30.038 99.2906 30.0033 99.9008 29.9563Z" fill="#163300"/>
<path d="M115.241 34.4046C115.216 31.7842 115.692 29.1834 116.646 26.7442C117.55 24.4409 118.899 22.3406 120.616 20.5651C124.277 16.8231 129.057 14.9521 134.954 14.9521C139.944 14.9521 143.95 16.6113 146.973 19.9297C149.955 23.1268 151.446 27.1514 151.446 32.0037C151.446 33.8631 151.306 35.134 151.025 35.8165C148.682 36.4745 143.914 36.8041 136.722 36.8055H124.353C124.632 38.0215 125.153 39.1687 125.884 40.1783C126.613 41.188 127.539 42.0396 128.604 42.6821C130.83 44.0839 133.722 44.784 137.283 44.7827C141.009 44.7827 144.208 44.1117 146.878 42.77C147.443 42.5063 147.973 42.1749 148.459 41.783C148.411 42.77 148.354 43.7834 148.283 44.8174L147.897 50.3344C146.117 51.5603 143.236 52.4076 139.252 52.8763C138.132 53.0117 137.005 53.0798 135.877 53.0806C129.928 53.0806 125.009 51.3389 121.119 47.8558C117.199 44.3481 115.241 39.8643 115.241 34.4046ZM142.09 29.9563C141.13 24.897 138.389 22.3667 133.868 22.3653C130.305 22.3653 127.6 23.9073 125.75 26.9914C125.174 27.9609 124.736 29.0063 124.448 30.0972C125.012 30.1218 125.701 30.1442 126.523 30.1688H129.123C129.989 30.1906 130.821 30.2021 131.618 30.2035H133.621C134.815 30.2035 135.986 30.192 137.134 30.1688L140.017 30.0625C140.791 30.038 141.482 30.0026 142.09 29.9563Z" fill="#163300"/>
<path d="M168.369 47.9998C168.369 50.0683 168.463 51.5727 168.651 52.5131H159.776V15.6584H168.373V18.7961C171.485 16.2348 174.809 14.9535 178.346 14.9521C182.213 14.9521 185.302 16.2634 187.612 18.8858C189.922 21.5083 191.078 24.9582 191.078 29.2356V43.274C191.078 47.2465 191.136 49.6328 191.253 50.433C191.37 51.2332 191.53 51.7503 191.73 51.9845C191.935 52.2192 192.103 52.4315 192.244 52.6193L192.172 52.7602C190.262 52.5941 188.871 52.5118 188.001 52.5131H185.524C184.771 52.5131 183.758 52.5485 182.484 52.6193V33.3979C182.484 26.509 180.386 23.0645 176.188 23.0645C173.077 23.0645 170.472 24.6629 168.373 27.8596L168.369 47.9998Z" fill="#163300"/>
<path d="M210.478 51.7853V62.159C210.478 64.1806 210.525 65.4978 210.619 66.1105H201.856V15.6588H210.482V17.952C213.32 15.9534 216.042 14.9535 218.649 14.9522C221.256 14.9508 223.565 15.3156 225.577 16.0467C227.578 16.765 229.393 17.9218 230.892 19.4325C234.249 22.7488 235.926 27.477 235.926 33.6168C235.926 37.6874 234.976 41.3209 233.074 44.5175C231.442 47.2369 229.122 49.4762 226.349 51.0092C223.839 52.438 220.998 53.1803 218.111 53.1616C215.159 53.1616 212.615 52.7028 210.478 51.7853ZM210.478 42.896C212.261 44.4017 214.571 45.1505 217.406 45.1424C222.055 45.1424 225.059 42.896 226.419 38.4035C226.897 36.8075 227.135 35.1486 227.124 33.482C227.124 31.7299 226.959 30.3304 226.63 29.2835C226.34 28.3189 225.906 27.4034 225.344 26.5675C224.854 25.8442 224.255 25.2013 223.568 24.6623C222.949 24.1768 222.275 23.7656 221.56 23.437C220.402 22.9021 219.14 22.6235 217.864 22.6201C216.504 22.6409 215.162 22.9403 213.922 23.5003C212.623 24.045 211.449 24.8496 210.472 25.865L210.478 42.896Z" fill="#163300"/>
<path d="M282.812 34.3003C282.803 31.7637 283.25 29.2461 284.132 26.8688C284.971 24.5723 286.258 22.4662 287.916 20.6734C291.506 16.8592 296.164 14.9521 301.89 14.9521C307.595 14.9521 312.124 16.7529 315.478 20.3546C318.693 23.7901 320.3 28.2501 320.3 33.7344C320.3 39.2187 318.646 43.7603 315.337 47.3593C311.839 51.1735 307.205 53.0806 301.432 53.0806C295.471 53.0806 290.801 51.2096 287.423 47.4676C284.348 44.0552 282.811 39.6661 282.812 34.3003ZM291.369 34.096C291.366 35.5638 291.617 37.021 292.108 38.4034C292.561 39.7249 293.28 40.9387 294.222 41.969C296.168 44.1103 298.726 45.181 301.895 45.181C304.826 45.181 307.136 44.1342 308.822 42.0405C310.464 40.0149 311.286 37.379 311.287 34.1329C311.287 30.8363 310.442 28.1799 308.753 26.1638C306.945 23.998 304.47 22.915 301.324 22.915C298.133 22.915 295.634 24.0688 293.827 26.3764C292.18 28.481 291.358 31.0515 291.358 34.0879L291.369 34.096Z" fill="#163300"/>
<path d="M335.859 48.597C335.859 50.6204 335.906 51.9371 336 52.5467H327.029V0H335.859V48.597Z" fill="#163300"/>
<path d="M240.6 34.2923C240.59 31.7604 241.038 29.2478 241.921 26.8751C242.761 24.583 244.048 22.481 245.708 20.6916C249.303 16.8848 253.965 14.9814 259.696 14.9814C265.406 14.9814 269.94 16.7787 273.296 20.3735C276.515 23.8024 278.124 28.2537 278.124 33.7273C278.124 39.201 276.468 43.7339 273.157 47.3259C269.657 51.1327 265.017 53.0362 259.239 53.0362C253.272 53.0362 248.597 51.1687 245.215 47.434C242.138 44.0283 240.6 39.6476 240.6 34.2923ZM249.164 34.0883C249.162 35.5533 249.412 37.0077 249.905 38.3873C250.359 39.706 251.078 40.9172 252.02 41.946C253.97 44.0833 256.53 45.1519 259.701 45.1519C262.637 45.1519 264.948 44.1071 266.634 42.0174C268.278 39.9903 269.1 37.3574 269.1 34.1189C269.1 30.8287 268.254 28.1775 266.563 26.1654C264.754 24.0036 262.277 22.9227 259.129 22.9227C255.933 22.9227 253.431 24.0743 251.624 26.3775C249.984 28.4821 249.162 31.0496 249.161 34.0802L249.164 34.0883Z" fill="#163300"/>
<path d="M259.362 45.9801C266.232 45.9801 271.802 40.4104 271.802 33.5398C271.802 26.6693 266.232 21.0996 259.362 21.0996C252.491 21.0996 246.922 26.6693 246.922 33.5398C246.922 40.4104 252.491 45.9801 259.362 45.9801Z" fill="#163300"/>
<path d="M255.672 34.5894L255.36 35.025C255.345 35.0451 255.335 35.0679 255.33 35.092C255.325 35.1163 255.324 35.1413 255.329 35.1655C255.333 35.1899 255.343 35.2131 255.357 35.2336C255.371 35.2541 255.388 35.2716 255.409 35.285L255.741 35.4999C255.781 35.5257 255.829 35.5351 255.875 35.5262C255.922 35.5173 255.962 35.4908 255.99 35.4524L256.289 35.029C256.319 34.9862 256.34 34.9377 256.35 34.8865C256.361 34.8352 256.361 34.7824 256.349 34.7313C256.338 34.6802 256.317 34.6319 256.286 34.5896C256.256 34.5472 256.216 34.5116 256.172 34.485C256.09 34.4371 255.994 34.4213 255.901 34.4407C255.81 34.4599 255.727 34.513 255.672 34.5894Z" fill="#9FE870"/>
<path d="M256.181 35.9401L256.567 36.1897C256.613 36.2195 256.668 36.2304 256.723 36.22C256.776 36.2097 256.824 36.179 256.855 36.1343L257.202 35.643C257.263 35.5481 257.286 35.4335 257.264 35.3229C257.243 35.2123 257.18 35.1141 257.088 35.0486C256.996 34.9831 256.883 34.9554 256.772 34.9711C256.66 34.9868 256.558 35.0447 256.489 35.133L256.126 35.6386C256.109 35.6618 256.097 35.6882 256.091 35.7161C256.084 35.7441 256.084 35.7731 256.088 35.8013C256.094 35.8295 256.104 35.8563 256.12 35.8802C256.136 35.904 256.157 35.9244 256.181 35.9401Z" fill="#9FE870"/>
<path d="M258.219 36.696L258.516 36.8419C258.551 36.8592 258.593 36.8622 258.63 36.8502C258.668 36.8383 258.699 36.8123 258.718 36.7776L258.925 36.3965C258.946 36.3579 258.959 36.3154 258.962 36.2717C258.967 36.2279 258.961 36.1838 258.946 36.1422C258.933 36.1007 258.91 36.0626 258.88 36.0302C258.85 35.998 258.814 35.9721 258.774 35.9545C258.702 35.9228 258.621 35.9191 258.545 35.9442C258.47 35.9694 258.408 36.0216 258.37 36.0906L258.153 36.4832C258.142 36.5014 258.136 36.5215 258.134 36.5422C258.131 36.563 258.134 36.584 258.14 36.604C258.145 36.6238 258.156 36.6423 258.17 36.6581C258.183 36.674 258.2 36.6868 258.219 36.696Z" fill="#9FE870"/>
<path d="M257.267 36.288L257.679 36.492C257.728 36.5161 257.785 36.5204 257.837 36.5037C257.889 36.4872 257.933 36.451 257.959 36.4029L258.246 35.8745C258.275 35.821 258.293 35.7622 258.298 35.7016C258.303 35.641 258.295 35.58 258.276 35.5224C258.256 35.465 258.225 35.4121 258.183 35.3673C258.142 35.3226 258.092 35.2869 258.037 35.2626C257.936 35.2186 257.823 35.2137 257.719 35.2488C257.615 35.2839 257.528 35.3567 257.475 35.4526L257.175 35.9966C257.161 36.0217 257.152 36.0493 257.15 36.0777C257.147 36.1061 257.15 36.1347 257.159 36.1619C257.167 36.1892 257.181 36.2144 257.2 36.236C257.218 36.2576 257.241 36.2754 257.267 36.288Z" fill="#9FE870"/>
<path d="M270.558 28.1802V28.1768L263.758 30.2509L262.227 29.0153C262.069 28.8875 261.875 28.8127 261.672 28.8012C261.469 28.7898 261.267 28.8425 261.096 28.9516L257.861 31.0117C258.061 31.3285 258.377 31.5549 258.741 31.6429C259.106 31.731 259.489 31.6737 259.812 31.4834L260.707 30.9546C260.818 30.8892 260.947 30.8632 261.075 30.8805C261.202 30.8978 261.321 30.9576 261.409 31.0502L263.886 33.6172C263.99 33.7245 264.123 33.7994 264.268 33.8326C264.414 33.8658 264.565 33.856 264.705 33.8042L268.22 32.5057C268.09 33.3411 267.837 34.1528 267.47 34.9147C267.102 35.7031 266.619 36.4329 266.038 37.0804L259.448 44.4283L252.862 37.0809C252.406 36.571 252.009 36.0101 251.681 35.4094L251.67 35.3897L248.818 35.5963L248.99 35.9724C249.473 37.0231 250.111 37.995 250.883 38.8553L259.448 48.4094L268.015 38.8553C269.294 37.4285 270.198 35.7045 270.641 33.8399C271.086 31.9754 271.057 30.0296 270.557 28.1792L270.558 28.1802Z" fill="#9FE870"/>
<path d="M255.189 34.7725L255.44 34.4226C255.515 34.3184 255.619 34.2381 255.738 34.1915C255.859 34.1449 255.989 34.1342 256.115 34.1603C256.241 34.1866 256.357 34.2488 256.448 34.3392C256.539 34.4298 256.602 34.5449 256.63 34.6705C256.63 34.678 256.633 34.6855 256.634 34.693C256.793 34.6455 256.965 34.6543 257.119 34.7177C257.273 34.7811 257.4 34.8953 257.48 35.0414C257.589 34.9752 257.714 34.9388 257.841 34.9359C257.969 34.9329 258.095 34.9637 258.206 35.0248C258.319 35.086 258.412 35.1756 258.479 35.2845C258.545 35.3934 258.581 35.5179 258.584 35.6453C258.694 35.6343 258.804 35.6533 258.904 35.7003C259.003 35.7472 259.087 35.8204 259.148 35.9118C259.209 36.0032 259.243 36.1095 259.249 36.2192C259.254 36.329 259.228 36.4379 259.176 36.5344L259.024 36.8143L260.112 37.3923C260.158 37.4167 260.21 37.4271 260.261 37.422C260.313 37.4168 260.362 37.3967 260.402 37.3638L260.758 37.0727C260.798 37.0396 260.827 36.9953 260.842 36.9453C260.858 36.8953 260.857 36.842 260.842 36.7922L260.741 36.4664L261.106 36.7235C261.15 36.7541 261.201 36.7709 261.254 36.7714C261.308 36.772 261.36 36.7563 261.404 36.7266L261.899 36.3934C261.948 36.36 261.984 36.3109 262.002 36.2541C262.019 36.1973 262.018 36.1361 261.997 36.0805L261.844 35.6864L262.208 35.9027C262.253 35.9289 262.303 35.9415 262.355 35.939C262.406 35.9366 262.456 35.9193 262.498 35.8891L262.828 35.6487C262.874 35.6156 262.907 35.5687 262.924 35.5149C262.941 35.4612 262.94 35.4034 262.922 35.3502L262.758 34.88L263.055 34.9759C263.098 34.9895 263.143 34.9922 263.187 34.9836C263.23 34.9748 263.272 34.9552 263.306 34.9262L263.719 34.5763C263.747 34.5529 263.77 34.5241 263.786 34.4915C263.802 34.459 263.81 34.4235 263.812 34.3873C263.813 34.3511 263.808 34.315 263.794 34.2811C263.781 34.2473 263.761 34.2165 263.737 34.1908L261.108 31.5408C261.057 31.4897 260.991 31.4571 260.919 31.448C260.848 31.4389 260.776 31.454 260.714 31.4908L260.105 31.8525L260.055 31.8812C259.175 32.3694 258.065 32.0716 257.52 31.2263L257.329 30.9325L260.284 28.9901L260.161 28.9149C259.916 28.7649 259.635 28.6833 259.347 28.6788C259.06 28.6742 258.777 28.7468 258.527 28.8891L255.376 30.6833L250.737 29.6497C250.774 29.4018 250.826 29.1564 250.894 28.9149C251.377 27.0828 252.437 25.4546 253.916 24.27C255.395 23.0856 257.216 22.4075 259.11 22.3356C261.004 22.2636 262.87 22.8018 264.435 23.8707C266.001 24.9397 267.181 26.4828 267.803 28.2731L267.857 28.4294L270.402 27.6617L270.348 27.4975C269.784 25.8167 268.836 24.2905 267.58 23.0404L267.521 22.9802C265.668 21.1555 263.252 20.0123 260.666 19.7367C258.08 19.4611 255.478 20.0695 253.282 21.4627C251.087 22.8558 249.428 24.9516 248.576 27.4084C247.724 29.8652 247.73 32.538 248.592 34.9911L254.653 34.488L255.189 34.7725Z" fill="#9FE870"/>
</g>
<defs>
<clipPath id="clip0_7743_27379">
<rect width="336" height="66.1106" fill="white"/>
</clipPath>
</defs>
</svg>
