<svg width="336" height="100" viewBox="0 0 336 100" fill="none" xmlns="http://www.w3.org/2000/svg">
<path d="M272.488 71.1286C283.531 71.1286 292.483 62.1392 292.483 51.0504C292.483 39.9615 283.531 30.9722 272.488 30.9722C261.445 30.9722 252.493 39.9615 252.493 51.0504C252.493 62.1392 261.445 71.1286 272.488 71.1286Z" fill="#9FE870"/>
<path d="M49.4513 40.5251C48.9584 41.4104 48.7123 43.5324 48.7123 46.8912V58.9992C48.7123 62.6702 46.8194 65.8601 43.0334 68.5681C39.118 71.4063 34.3209 72.8252 28.6422 72.8252C20.7594 72.8252 14.4713 70.3387 9.77789 65.3652C5.2401 60.6265 2.97119 54.5858 2.97119 47.2429C2.97119 39.4315 5.27901 32.922 9.8946 27.7144C15.0547 21.8559 22.1596 18.9266 31.2093 18.9266C37.2511 18.9266 42.035 20.0983 45.5616 22.4418L44.9394 33.9636L44.628 34.0417C43.7205 32.4534 41.9317 31.1515 39.2607 30.136C36.7195 29.1726 34.0486 28.6909 31.2482 28.6909C28.4736 28.6909 26.0362 29.1335 23.9358 30.0188C21.8614 30.9041 20.0982 32.1669 18.6461 33.8073C15.5863 37.1662 14.0564 41.6057 14.0564 47.1257C14.0564 51.9429 15.4048 55.8093 18.1015 58.7257C20.7983 61.616 24.2729 63.061 28.5255 63.061C33.2189 63.061 36.3824 61.837 38.016 59.3895C38.5346 58.6084 38.7939 57.7231 38.7939 56.7337V50.2505H33.7764C31.0796 50.2505 29.6146 50.4845 29.3812 50.9534L29.2645 50.9143L28.9145 40.7204C29.6405 40.9287 32.5836 41.0329 37.7437 41.0329H42.3334C45.1858 41.0329 47.5194 40.8376 49.3346 40.447L49.4513 40.5251ZM64.896 67.4744C64.896 69.7135 64.9479 71.1719 65.0517 71.8488H55.3667V31.0343H64.896V34.0417C67.0999 31.516 69.4079 30.2531 71.8194 30.2531C74.2567 30.2531 76.1756 30.5526 77.5757 31.1515L76.8757 41.6578L76.72 41.775C75.8124 40.1606 73.9324 39.3534 71.0804 39.3534C69.9912 39.3534 68.8761 39.731 67.735 40.486C66.6203 41.2151 65.6739 42.1916 64.896 43.4152V67.4744ZM77.1899 51.7736C77.1899 48.7269 77.7084 45.9021 78.7456 43.2984C79.7829 40.6944 81.2479 38.416 83.1408 36.4632C87.1862 32.3231 92.476 30.2531 99.0103 30.2531C104.534 30.2531 108.968 32.0888 112.313 35.7602C115.606 39.3013 117.252 43.7538 117.252 49.1177C117.252 51.1748 117.097 52.5807 116.786 53.3358C114.193 54.0647 108.916 54.4295 100.955 54.4295H87.2641C87.9381 57.2156 89.5069 59.3895 91.9702 60.9517C94.4335 62.4883 97.6361 63.2563 101.577 63.2563C105.7 63.2563 109.24 62.5143 112.196 61.0299C112.974 60.6395 113.557 60.2748 113.946 59.9366C113.894 61.0299 113.829 62.1496 113.752 63.2954L113.324 69.3883C111.353 70.7421 108.164 71.6795 103.756 72.2005C102.459 72.3563 101.215 72.4345 100.022 72.4345C93.4355 72.4345 87.99 70.508 83.6856 66.6542C79.3553 62.7744 77.1899 57.8143 77.1899 51.7736ZM106.906 46.8521C105.843 41.2542 102.809 38.4551 97.8047 38.4551C93.8631 38.4551 90.868 40.1606 88.8198 43.5715C88.1976 44.6131 87.7176 45.7589 87.3804 47.0084C88.003 47.0345 88.7679 47.0605 89.6755 47.0866H92.5539C93.5129 47.1126 94.4335 47.1257 95.3151 47.1257H97.5324C98.8546 47.1257 100.151 47.1126 101.422 47.0866L104.611 46.9694C105.467 46.9433 106.232 46.9042 106.906 46.8521ZM120.6 51.7736C120.6 48.7269 121.119 45.9021 122.156 43.2984C123.193 40.6944 124.658 38.416 126.551 36.4632C130.596 32.3231 135.886 30.2531 142.421 30.2531C147.944 30.2531 152.378 32.0888 155.723 35.7602C159.016 39.3013 160.663 43.7538 160.663 49.1177C160.663 51.1748 160.507 52.5807 160.196 53.3358C157.603 54.0647 152.326 54.4295 144.366 54.4295H130.674C131.349 57.2156 132.917 59.3895 135.381 60.9517C137.844 62.4883 141.046 63.2563 144.988 63.2563C149.111 63.2563 152.65 62.5143 155.606 61.0299C156.384 60.6395 156.968 60.2748 157.357 59.9366C157.305 61.0299 157.24 62.1496 157.162 63.2954L156.734 69.3883C154.764 70.7421 151.574 71.6795 147.166 72.2005C145.869 72.3563 144.625 72.4345 143.432 72.4345C136.846 72.4345 131.401 70.508 127.096 66.6542C122.765 62.7744 120.6 57.8143 120.6 51.7736ZM150.317 46.8521C149.253 41.2542 146.22 38.4551 141.215 38.4551C137.274 38.4551 134.279 40.1606 132.23 43.5715C131.608 44.6131 131.128 45.7589 130.791 47.0084C131.414 47.0345 132.178 47.0605 133.086 47.0866H135.964C136.923 47.1126 137.844 47.1257 138.726 47.1257H140.943C142.265 47.1257 143.562 47.1126 144.832 47.0866L148.022 46.9694C148.878 46.9433 149.642 46.9042 150.317 46.8521ZM176.185 66.8496C176.185 69.1408 176.289 70.8072 176.496 71.8488H166.734V31.0343H176.185V34.5103C179.608 31.6722 183.264 30.2531 187.154 30.2531C191.406 30.2531 194.803 31.7113 197.344 34.6275C199.886 37.5177 201.156 41.3323 201.156 46.071V61.616C201.156 66.0164 201.221 68.6593 201.35 69.5446C201.48 70.4299 201.649 71.0026 201.856 71.2631C202.089 71.5231 202.284 71.7576 202.44 71.966L202.362 72.1223C200.261 71.94 198.732 71.8488 197.772 71.8488H195.049C194.22 71.8488 193.104 71.8879 191.704 71.966V50.6799C191.704 43.0509 189.397 39.2362 184.781 39.2362C181.358 39.2362 178.493 41.0068 176.185 44.5479V66.8496ZM219.479 71.0286V82.5114C219.479 84.7505 219.531 86.2089 219.634 86.8857H209.95V31.0343H219.479V33.573C222.616 31.3597 225.625 30.2531 228.502 30.2531C231.381 30.2531 233.935 30.6567 236.165 31.4639C238.395 32.2711 240.353 33.5209 242.038 35.2134C245.746 38.8847 247.601 44.1185 247.601 50.9143C247.601 55.4189 246.55 59.4416 244.45 62.9828C242.661 65.9773 240.184 68.3727 237.021 70.1694C234.22 71.7576 231.186 72.5517 227.919 72.5517C224.652 72.5517 221.839 72.0442 219.479 71.0286ZM219.479 61.1862C221.449 62.8526 224.004 63.6858 227.141 63.6858C232.275 63.6858 235.594 61.1992 237.099 56.2261C237.617 54.5336 237.877 52.724 237.877 50.7971C237.877 48.8442 237.695 47.295 237.332 46.1492C236.969 44.9778 236.489 43.9753 235.893 43.1421C235.322 42.2828 234.674 41.5797 233.948 41.0329C233.222 40.46 232.483 40.0044 231.731 39.6659C230.408 39.067 229.047 38.7676 227.647 38.7676C226.247 38.7676 224.795 39.093 223.291 39.744C221.787 40.3949 220.516 41.2672 219.479 42.361V61.1862Z" fill="black"/>
<path d="M330.703 67.4744C330.703 69.7135 330.755 71.1719 330.858 71.8488H320.979V13.6539H330.703V67.4744Z" fill="black"/>
<path d="M297.548 76.9151L310.651 54.9764H283.939L297.548 76.9151Z" fill="#163300"/>
<path d="M313.823 45.2529C311.987 57.826 306.423 61.5143 297.295 61.5143C288.167 61.5143 282.771 57.4907 280.767 45.2529C280.767 36.272 288.167 28.9916 297.295 28.9916C306.423 28.9916 313.823 36.272 313.823 45.2529Z" fill="#163300"/>
<path d="M284.44 45.4205C284.44 52.4571 290.121 58.1613 297.128 58.1613C304.135 58.1613 309.816 52.4571 309.816 45.4205C309.816 38.384 304.135 32.6797 297.128 32.6797C290.121 32.6797 284.44 38.384 284.44 45.4205ZM307.315 45.4205C307.315 51.0701 302.754 55.6499 297.128 55.6499C291.502 55.6499 286.941 51.0701 286.941 45.4205C286.941 39.771 291.502 35.1912 297.128 35.1912C302.754 35.1912 307.315 39.771 307.315 45.4205Z" fill="white"/>
<path d="M296.971 36.7429C291.597 36.743 289.125 41.4057 288.748 43.6714C289.807 44.4874 291.885 44.1907 293.733 42.8559C295.581 41.5211 297.527 40.3841 300.559 42.8559C302.983 44.8332 304.92 44.2235 305.586 43.6714C305.325 42.8559 304.008 36.7429 296.971 36.7429Z" fill="white"/>
<path d="M295.601 53.9198C290.731 52.9206 288.926 48.8727 288.617 46.9664C289.482 46.6568 292.9 46.2799 294.93 48.7198C296.555 50.6719 296.054 53.0001 295.601 53.9198Z" fill="white"/>
<path d="M298.668 53.913C303.716 52.8899 305.324 48.9323 305.586 46.8353C304.688 46.5222 301.415 46.25 299.307 48.7315C297.62 50.7168 298.199 52.9794 298.668 53.913Z" fill="white"/>
<path d="M297.101 47.3104C298.155 47.3104 299.01 46.4523 299.01 45.3937C299.01 44.3351 298.155 43.4769 297.101 43.4769C296.047 43.4769 295.192 44.3351 295.192 45.3937C295.192 46.4523 296.047 47.3104 297.101 47.3104Z" stroke="white" stroke-width="2.7302"/>
</svg>
