<svg width="24" height="24" viewBox="0 0 24 24" fill="none" xmlns="http://www.w3.org/2000/svg">
<g id="car">
<path id="Vector" d="M22.782 10.0189C22.7691 9.95937 22.7503 9.90132 22.7257 9.84562L20.6006 4.88662C20.1106 3.74081 18.9187 3 17.5625 3H6.4374C5.08233 3 3.88927 3.74081 3.3999 4.88662L1.27252 9.84562C1.22417 9.95749 1.19947 10.0781 1.19996 10.2V20.1C1.19996 20.3387 1.29478 20.5676 1.46356 20.7364C1.63235 20.9052 1.86126 21 2.09996 21H3.89996C4.13865 21 4.36757 20.9052 4.53635 20.7364C4.70514 20.5676 4.79996 20.3387 4.79996 20.1V19.2H19.2V20.1C19.2 20.3387 19.2948 20.5676 19.4636 20.7364C19.6323 20.9052 19.8613 21 20.1 21H21.9C22.1387 21 22.3676 20.9052 22.5364 20.7364C22.7051 20.5676 22.8 20.3387 22.8 20.1V10.2C22.8 10.1392 22.794 10.0785 22.782 10.0189ZM5.69996 15.6C5.34395 15.6 4.99594 15.4944 4.69993 15.2966C4.40392 15.0989 4.17321 14.8177 4.03697 14.4888C3.90074 14.1599 3.86509 13.798 3.93454 13.4488C4.004 13.0997 4.17543 12.7789 4.42717 12.5272C4.6789 12.2755 4.99963 12.104 5.3488 12.0346C5.69796 11.9651 6.05988 12.0008 6.38879 12.137C6.7177 12.2733 6.99882 12.504 7.1966 12.8C7.39439 13.096 7.49996 13.444 7.49996 13.8C7.49996 14.2774 7.31032 14.7352 6.97275 15.0728C6.63518 15.4104 6.17735 15.6 5.69996 15.6ZM18.3 15.6C17.944 15.6 17.5959 15.4944 17.2999 15.2966C17.0039 15.0989 16.7732 14.8177 16.637 14.4888C16.5007 14.1599 16.4651 13.798 16.5345 13.4488C16.604 13.0997 16.7754 12.7789 17.0272 12.5272C17.2789 12.2755 17.5996 12.104 17.9488 12.0346C18.298 11.9651 18.6599 12.0008 18.9888 12.137C19.3177 12.2733 19.5988 12.504 19.7966 12.8C19.9944 13.096 20.1 13.444 20.1 13.8C20.1 14.2774 19.9103 14.7352 19.5728 15.0728C19.2352 15.4104 18.7773 15.6 18.3 15.6ZM3.46458 9.3L5.05252 5.59594C5.25615 5.12006 5.81246 4.8 6.4374 4.8H17.5625C18.1869 4.8 18.7438 5.12006 18.9474 5.59594L20.5353 9.3H3.46458Z" fill="#163300"/>
</g>
</svg>
