<svg width="24" height="24" viewBox="0 0 24 24" fill="none" xmlns="http://www.w3.org/2000/svg">
<g id="home">
<path id="Vector" fill-rule="evenodd" clip-rule="evenodd" d="M13.0393 1.90565L15.75 4.50047V3.00016C15.75 2.58594 16.0858 2.25016 16.5 2.25016H18.75C19.1642 2.25016 19.5 2.58594 19.5 3.00016V8.09016L23.0186 11.4584C23.3178 11.7448 23.3282 12.2196 23.0418 12.5188C22.7554 12.818 22.2806 12.8284 21.9814 12.5419L21 11.6025V21.0002C21 21.398 20.842 21.7795 20.5607 22.0608C20.2794 22.3421 19.8978 22.5002 19.5 22.5002H15C14.5858 22.5002 14.25 22.1644 14.25 21.7502V15.3752C14.25 15.2757 14.2105 15.1803 14.1402 15.11C14.0698 15.0397 13.9745 15.0002 13.875 15.0002H10.125C10.0255 15.0002 9.93016 15.0397 9.85984 15.11C9.78951 15.1803 9.75 15.2757 9.75 15.3752V21.7502C9.75 22.1644 9.41422 22.5002 9 22.5002H4.5C4.10218 22.5002 3.72065 22.3421 3.43934 22.0608C3.15804 21.7795 3 21.398 3 21.0002V11.6025L2.01862 12.5419C1.71941 12.8284 1.24465 12.818 0.958217 12.5188C0.67179 12.2196 0.682159 11.7448 0.981378 11.4584L10.9613 1.90503C11.2673 1.59486 11.6842 1.50041 12.0029 1.50098C12.3203 1.50155 12.7358 1.59677 13.0393 1.90565ZM4.5 10.1666V21.0002H8.25V15.3752C8.25 14.8779 8.44755 14.401 8.79918 14.0493C9.1508 13.6977 9.62772 13.5002 10.125 13.5002H13.875C14.3723 13.5002 14.8492 13.6977 15.2008 14.0493C15.5525 14.401 15.75 14.8779 15.75 15.3752V21.0002H19.5V10.1666L12.015 3.00163C12.0105 3.00123 12.0055 3.00099 12.0002 3.00098C11.9948 3.00097 11.9897 3.00121 11.985 3.00162L4.5 10.1666ZM18 6.65429V3.75016H17.25V5.93635L18 6.65429Z" fill="#A8A9A8"/>
</g>
</svg>
