<svg width="24" height="24" viewBox="0 0 24 24" fill="none" xmlns="http://www.w3.org/2000/svg">
<g id="person">
<path id="Vector" d="M7.62365 6.76952L7.62363 6.76925C7.52527 5.44347 7.93564 4.23873 8.7561 3.35997L8.75709 3.35891C9.5654 2.4881 10.7137 2 12 2C13.2743 2 14.4189 2.49096 15.2336 3.36835L15.2338 3.36855C16.0608 4.25825 16.4698 5.45924 16.3717 6.76889L16.3717 6.76952C16.1752 9.4372 14.1528 11.5 12 11.5C9.84226 11.5 7.8201 9.43688 7.62365 6.76952ZM6.12667 15.7023L6.1271 15.702C7.76334 14.6127 9.84965 14.0046 12 14.0046C14.1503 14.0046 16.2365 14.6126 17.8727 15.7019C19.7065 16.9244 20.8613 18.6514 21.2297 20.7038C21.2949 21.0721 21.2027 21.4158 21.0013 21.6582C20.8166 21.876 20.5545 21.9999 20.25 21.9999H3.75001C3.44548 21.9999 3.18333 21.876 2.99863 21.6582C2.79723 21.4156 2.70504 21.0718 2.77037 20.7033C3.13896 18.6506 4.29404 16.9197 6.12667 15.7023ZM3.29515 21.1856L3.42087 21.4999H3.75939H20.2406H20.5792L20.7049 21.1856C20.7602 21.0474 20.7561 20.9098 20.7395 20.802L20.7397 20.802L20.7374 20.7894C19.9488 16.4089 15.5739 14.4999 12 14.4999C8.42608 14.4999 4.05122 16.4089 3.26261 20.7894L3.26245 20.7894L3.26051 20.802C3.24393 20.9098 3.23985 21.0474 3.29515 21.1856ZM12 2.5C10.881 2.5 9.84843 2.9185 9.12156 3.69992L9.12138 3.7001C8.38284 4.49346 8.0378 5.58206 8.12163 6.7347C8.2047 7.8769 8.67357 8.93195 9.36068 9.70675C10.0456 10.479 10.9791 11.0047 11.9953 11.0047C13.0115 11.0047 13.9451 10.479 14.63 9.70675C15.317 8.93206 15.7858 7.87721 15.869 6.7352C15.9531 5.59442 15.6066 4.51198 14.8615 3.7112C14.1391 2.91894 13.1101 2.5 12 2.5Z" fill="#A8A9A8" stroke="#A8A9A8"/>
</g>
</svg>
